<svg xmlns="http://www.w3.org/2000/svg" width="16" height="16" viewBox="0 0 16 16">
	<g fill="none" stroke="#f5c2e7" stroke-linecap="round" stroke-linejoin="round">
		<path d="M 14.5,4.3888889 V 11.611111 C 14.5,13.2066 13.2066,14.5 11.611111,14.5 H 4.3888889 C 2.7933996,14.5 1.4999999,13.2066 1.5,11.611111 V 4.3888889 C 1.5,2.7933996 2.7933996,1.5 4.3888889,1.5 H 11.611111 C 13.2066,1.4999999 14.5,2.7933996 14.5,4.3888889 M 4.4832822,5 7.5070186,11 M 4.4832822,11 7.5070186,5" />
		<path d="m 11.501457,8.1428567 v 2.4285713 a 0.37521851,0.42857139 0 0 1 -0.375218,0.428571 h -0.87551 A 1.2507283,1.4285712 0 0 1 9,9.5714279 v 0 a 1.2507283,1.4285712 0 0 1 1.250729,-1.4285712 z m 0,0 v -2.142857" />
	</g>
</svg>
