<svg xmlns="http://www.w3.org/2000/svg" width="16" height="16" viewBox="0 0 16 16">
	<path fill="none" stroke="#cdd6f4" stroke-linecap="round" stroke-linejoin="round" d="M14.4561802 11.3673353C13.0276218 14.1261537 11.8858593 15.5 10.8437759 15.5 10.3588459 15.5 9.88231005 15.3491298 9.41749082 15.0543006 8.74000639 14.6241577 7.8668418 14.6059458 7.17068967 15.0074382 6.60881451 15.3319356 6.07177167 15.5 5.56305868 15.5 4.02887542 15.5 1.5 10.9491129 1.5 8.45090396 1.5 5.78581061 2.95006811 3.551507 5.15647301 3.551507 6.19383481 3.551507 7.09007204 4.20001691 7.84308619 4.497206 8.16210316 4.62512517 8.52255587 4.61592787 8.83410596 4.47192 9.44477141 4.18872223 10.2497236 3.551507 11.2503615 3.551507 12.4715175 3.551507 13.5338865 4.33779342 14.4184071 5.47479877 14.5532906 5.64778615 14.5172013 5.89341518 14.3377895 6.02349446 13.3500923 6.736546 12.8746057 7.53893969 12.8746057 8.45090396 12.8746057 9.36404821 13.3502672 10.1652619 14.3377895 10.8793249 14.4946576 10.992887 14.5445377 11.1984946 14.4561802 11.3673353ZM8.5 3C8.5 3 8.3468635 1.3936039 10 1" />
</svg>
