<svg xmlns="http://www.w3.org/2000/svg" width="16" height="16" viewBox="0 0 16 16">
	<path fill="none" stroke="#eba0ac" stroke-linecap="round" stroke-linejoin="round" d="m 3.5,11 v 3.5 H 9 A 3.5,3.5 135 0 0 12.5,11" />
	<path fill="none" stroke="#f5c2e7" stroke-linecap="round" stroke-linejoin="round" d="M 12,5 A 3,3 135 0 1 9,8 H 3.5 V 5" />
	<path fill="none" stroke="#f5c2e7" stroke-linecap="round" stroke-linejoin="round" d="m 12.5,5 a 3,3 135 0 1 -3,3 h -6 V 5" transform="matrix(1 0 0 -1 0 16)" />
	<path fill="none" stroke="#cba6f7" stroke-linecap="round" stroke-linejoin="round" d="M 3.5,5 V 1.5 h 5 A 3.5,3.5 45 0 1 12,5" />
	<path fill="none" stroke="#f5c2e7" stroke-linecap="round" stroke-linejoin="round" d="M 5.5,5 V 6 H 9 a 1,1 135 0 0 1,-1" />
	<path fill="none" stroke="#cba6f7" stroke-linecap="round" stroke-linejoin="round" d="M 10,5 A 1.5,1.5 45 0 0 8.5,3.5 h -3 V 5" />
	<path fill="none" stroke="#eba0ac" stroke-linecap="round" stroke-linejoin="round" d="m 5.5,11 v 1.5 H 9 A 1.5,1.5 135 0 0 10.5,11" />
	<path fill="none" stroke="#f5c2e7" stroke-linecap="round" stroke-linejoin="round" d="m 10.5,11 a 1,1 45 0 0 -1,-1 h -4 v 1" />
</svg>
