<svg xmlns="http://www.w3.org/2000/svg" width="16" height="16" viewBox="0 0 16 16">
	<g fill="none" stroke-linecap="round" stroke-linejoin="round">
		<path stroke="#a6e3a1" d="M7.5 11.5h3v-4h-5v2m4-2V6a1.5 1.5 0 00-3 0v1.5" />
		<path stroke="#89dceb" d="M14.05 5.76c.9 2.5.22 5.3-1.75 7.07A6.45 6.45 0 015.5 14m-2.78-2.2A6.52 6.52 0 014 2.85a6.45 6.45 0 018.65.64M14.5 4.5a1 1 0 01-1 1 1 1 0 01-1-1 1 1 0 011-1 1 1 0 011 1m-9 8.5A1.5 1.5 0 014 14.5 1.5 1.5 0 012.5 13 1.5 1.5 0 014 11.5 1.5 1.5 0 015.5 13m0-1.5 2-2m5-4-1 1" />
	</g>
</svg>
