<svg xmlns="http://www.w3.org/2000/svg" width="16" height="16" viewBox="0 0 16 16">
	<path fill="none" stroke="#cdd6f4" stroke-linecap="round" stroke-linejoin="round" d="M 4.5,4.5 H 12 c 0.828427,0 1.5,0.6715729 1.5,1.5 V 6.5 M 6,13.5 H 2 C 1.1715729,13.5 0.5,12.828427 0.5,12 V 3.5 c 0,-0.5522847 0.44771525,-1 1,-1 h 5 c 0.5522847,0 1,0.4477153 1,1 v 1" />
	<g fill="none" stroke-linecap="round" stroke-linejoin="round" stroke-width="2.143" transform="translate(7.767 8.057)scale(.46666)">
		<path stroke="#74c7ec" d="M 0.5,7.5 H 4 M 5.39,5.5 2.05,11" />
		<path stroke="#89b4fa" d="M 4,1.5 5.5,4 M 9,4.5 H 2.55" />
		<path stroke="#74c7ec" d="m 12,1.5 -1.5,3 M 11.51,7.1 8.5,1.5" />
		<path stroke="#89b4fa" d="M 15.5,8.52 12,8.5 m -1.38,2 L 14,5" />
		<path stroke="#74c7ec" d="M 12.5,14.5 10,11.5 M 7.03,11.52 13.51,11.5" />
		<path stroke="#89b4fa" d="m 4,14.5 1.5,-3 M 4.53,9 7.5,14.5" />
	</g>
</svg>
