<svg xmlns="http://www.w3.org/2000/svg" width="16" height="16" viewBox="0 0 16 16">
	<g fill="none" stroke-linecap="round" stroke-linejoin="round">
		<path stroke="#a6e3a1" d="m0.02679 11.07 1.714-3.429m-5.143 6 1.714-3.429m-3.429 0.8571 1.714-3.429m-5.143 6 1.714-3.429" transform="matrix(.8418 0 0 .8401 14.11 4.099)" />
		<path stroke="#cdd6f4" d="m1.873 8 0.7015-2.74a1.002 1 0 0 1 0.962-0.76h10.96a1.002 1 0 0 1 0.972 1.24l-0.2195 0.875m-9.24 6.885h-4.008a1.503 1.5 0 0 1-1.503-1.5v-8.5a1.002 1 0 0 1 1.002-1h5.01a1.002 1 0 0 1 1.002 1v1" />
	</g>
</svg>
