<svg xmlns="http://www.w3.org/2000/svg" width="16" height="16" viewBox="0 0 16 16">
	<g fill="none" stroke-linecap="round" stroke-linejoin="round">
		<path stroke="#cdd6f4" d="M 4.5,4.5 H 12 c 0.828427,0 1.5,0.6715729 1.5,1.5 V 6.5 M 6,13.5 H 2 C 1.1715729,13.5 0.5,12.828427 0.5,12 V 3.5 c 0,-0.5522847 0.44771525,-1 1,-1 h 5 c 0.5522847,0 1,0.4477153 1,1 v 1" />
		<path stroke="#89b4fa" d="M8.5,15.5001867 L8.5,13.9445689 C8.5,13.0854248 9.19647384,12.388951 10.0556179,12.388951 C10.9147619,12.388951 11.6112357,13.0854248 11.6112357,13.9445689 C11.6112357,14.8037129 10.9147619,15.5001867 10.0556179,15.5001867 L8.5,15.5001867 M15.5,8.5 C13.2388128,8.80927352 11.3283953,10.3316251 10.522135,12.466704 M15.5,8.5 C15.1907265,10.7611872 13.6683749,12.6716047 11.533296,13.477865 M11.455543,10.833333 C12.2112249,11.1821153 12.8178842,11.7887746 13.1666666,12.5444566" />
	</g>
</svg>
