<svg xmlns="http://www.w3.org/2000/svg" width="16" height="16" viewBox="0 0 16 16">
	<g fill="none" stroke-linecap="round" stroke-linejoin="round">
		<path stroke="#cdd6f4" d="m1.87 8 .7-2.74a1 1 0 01.96-.76h10.94a1 1 0 01.97 1.24l-.219.875M6 13.5H2A1.5 1.5 0 01.5 12V3.5a1 1 0 011-1h5a1 1 0 011 1v1" />
		<path stroke="#a6e3a1" d="M11.0009428,12.1566779 C10.643359,12.5312512 10.1195164,12.6932725 9.61321084,12.5598298 C8.97614775,12.3920358 8.52185663,11.796982 8.50074619,11.102555 C8.47991352,10.4084243 8.89712249,9.78389913 9.52293593,9.57330516 C10.0498941,9.3958131 10.616653,9.54839243 10.9986877,9.94707866 M14.5,12.5 L13,9.5 M13.5,15.5 L15.5,9.5" />
	</g>
</svg>
