<svg xmlns="http://www.w3.org/2000/svg" width="16" height="16" viewBox="0 0 16 16">
	<g fill="none" stroke-linecap="round" stroke-linejoin="round">
		<path stroke="#cdd6f4" d="M 4.5,4.5 H 12 c 0.828427,0 1.5,0.6715729 1.5,1.5 V 6.5 M 6,13.5 H 2 C 1.1715729,13.5 0.5,12.828427 0.5,12 V 3.5 c 0,-0.5522847 0.44771525,-1 1,-1 h 5 c 0.5522847,0 1,0.4477153 1,1 v 1" />
		<g stroke="#89b4fa">
			<circle cx="11.494" cy="11.509" r="2.992" />
			<path d="M 11.493765,11.509266 V 8.8164217 7.47 m 0,4.039266 L 9.3887595,9.8302101 8.3362569,8.9906828 m 3.1575081,2.5185832 1.168177,2.426194 0.58409,1.213097 m -1.752267,-3.639291 2.624984,0.599252 1.312493,0.299627 m -3.937477,-0.898879 2.105093,-1.6789456 1.052548,-0.8394723 m -3.157641,2.5184179 -2.6250151,0.599115 -1.3125077,0.299558 m 3.9375228,-0.898673 -1.168305,2.426132 -0.5841517,1.213067" />
		</g>
	</g>
</svg>
