<svg xmlns="http://www.w3.org/2000/svg" width="16" height="16" viewBox="0 0 16 16">
	<path fill="none" stroke="#cdd6f4" stroke-linecap="round" stroke-linejoin="round" d="M 4.5,4.5 H 12 c 0.828427,0 1.5,0.6715729 1.5,1.5 V 6.5 M 6,13.5 H 2 C 1.1715729,13.5 0.5,12.828427 0.5,12 V 3.5 c 0,-0.5522847 0.44771525,-1 1,-1 h 5 c 0.5522847,0 1,0.4477153 1,1 v 1" />
	<g fill="none" stroke-linecap="round" stroke-linejoin="round" stroke-width="2.4" transform="matrix(.41667 0 0 .4167 6.75 6.747)">
		<path stroke="#f5e0dc" d="M 12,21 A 9,9 0 0 1 12,3 c 4.97,0 9,3.582 9,8 0,1.06 -0.474,2.078 -1.318,2.828 C 18.838,14.578 17.693,15 16.5,15 H 14 A 2,2 0 0 0 13,18.75 1.3,1.3 0 0 1 12,21" />
		<path stroke="#f38ba8" d="m 7.5,10.5 c 0,1.333333 2,1.333333 2,0 0,-1.3333328 -2,-1.3333328 -2,0" />
		<path stroke="#a6e3a1" d="m 11.5,7.5 c 0,1.3333328 2,1.3333328 2,0 0,-1.3333328 -2,-1.3333328 -2,0" />
		<path stroke="#89b4fa" d="m 15.5,10.5 c 0,1.333333 2,1.333333 2,0 0,-1.3333328 -2,-1.3333328 -2,0" />
	</g>
</svg>
