<svg xmlns="http://www.w3.org/2000/svg" width="16" height="16" viewBox="0 0 16 16">
	<g fill="none">
		<path stroke="#cdd6f4" stroke-linecap="round" stroke-linejoin="round" d="m1.9 8 .7-2.7a1 1 0 0 1 1-.8h10.9a1 1 0 0 1 1 1.2L15 7m-9 6.5H2c-.8 0-1.5-.7-1.5-1.5V3.5c0-.6.4-1 1-1h5c.6 0 1 .4 1 1v1" />
		<circle cx="11.5" cy="11.5" r="2" stroke="#cdd6f4" />
		<path stroke="#eba0ac" stroke-linecap="round" stroke-linejoin="round" d="M14.7 14a4 4 0 0 1-2.2 1.4" />
		<path stroke="#89b4fa" stroke-linecap="round" stroke-linejoin="round" d="M12.5 7.6a4 4 0 0 1 3 3.7" />
		<path stroke="#cba6f7" stroke-linecap="round" stroke-linejoin="round" d="M15.5 11.5a4 4 0 0 1-.7 2.3" />
		<path stroke="#eba0ac" stroke-linecap="round" stroke-linejoin="round" d="M10.5 15.4a4 4 0 0 1-1.4-.7m-1.3-1.6a4 4 0 0 1-.3-1.6" />
	</g>
</svg>
