<svg xmlns="http://www.w3.org/2000/svg" width="16" height="16" viewBox="0 0 16 16">
	<g fill="none" stroke-linecap="round" stroke-linejoin="round">
		<path stroke="#cdd6f4" d="m1.87 8 .7-2.74a1 1 0 01.96-.76h10.94a1 1 0 01.97 1.24l-.219.875M6 13.5H2A1.5 1.5 0 01.5 12V3.5a1 1 0 011-1h5a1 1 0 011 1v1" />
		<path stroke="#7f849c" d="m 10.5,9.5 h 3 c 0.552285,0 1,0.4477153 1,1 v 3 c 0,0.552285 -0.447715,1 -1,1 h -3 c -0.5522847,0 -1,-0.447715 -1,-1 v -3 c 0,-0.5522847 0.4477153,-1 1,-1 z m 0,0 v -1 m 3,1 v -1 m -3,7 v -1 m 3,1 v -1 m -5,-4 h 1 m -1,3 h 1 m 5,-3 h 1 m -1,3 h 1" />
	</g>
</svg>
