<svg xmlns="http://www.w3.org/2000/svg" width="16" height="16" viewBox="0 0 16 16">
	<path fill="none" stroke="#cdd6f4" stroke-linecap="round" stroke-linejoin="round" d="M4.5 4.5H12c.83 0 1.5.67 1.5 1.5v.5m-7.5 7H2A1.5 1.5 0 01.5 12V3.5a1 1 0 011-1h5a1 1 0 011 1v1" />
	<path fill="none" stroke="#f9e2af" stroke-linecap="round" stroke-linejoin="round" d="m 7.734393,13.980993 c 0,0.838925 0.651896,1.519007 1.456051,1.519007 0.804154,0 1.456053,-0.680082 1.456053,-1.519007 V 10.436648 M 15.5,11.024474 c -0.24156,-0.337285 -0.607788,-0.587826 -1.16484,-0.587826 h -0.582423 c -0.643323,0 -1.164839,0.566734 -1.164839,1.265837 0,0.699103 0.521516,1.265838 1.164839,1.265838 h 0.582423 c 0.643325,0 1.16484,0.566736 1.16484,1.26584 C 15.5,14.933264 14.978485,15.5 14.33516,15.5 h -0.582423 c -0.582933,0 -0.950798,-0.310294 -1.164839,-0.694154" />
</svg>
