<svg xmlns="http://www.w3.org/2000/svg" width="16" height="16" viewBox="0 0 16 16">
	<g fill="none" stroke-linecap="round" stroke-linejoin="round">
		<path stroke="#cdd6f4" d="M4.5 4.5H12c.83 0 1.5.67 1.5 1.5v.5m-7.5 7H2A1.5 1.5 0 01.5 12V3.5a1 1 0 011-1h5a1 1 0 011 1v1" />
		<path stroke="#fab387" d="M11.5,12.5 C12.0522847,12.5 12.5,12.0522847 12.5,11.5 C12.5,10.9477153 12.0522847,10.5 11.5,10.5 C10.9477153,10.5 10.5,10.9477153 10.5,11.5 C10.5,12.0522847 10.9477153,12.5 11.5,12.5 Z M10,8.5 L11.5032952,7.5 L13,8.5 M10,14.5 L11.5032952,15.5 L13,14.5 M8.5,13 L7.5,11.4901698 L8.5,10 M14.5,13 L15.5,11.4901698 L14.5,10" />
	</g>
</svg>
