<svg xmlns="http://www.w3.org/2000/svg" width="16" height="16" viewBox="0 0 16 16">
	<g fill="none" stroke-linecap="round" stroke-linejoin="round">
		<path stroke="#cdd6f4" d="M 1.8748797,8.0004811 2.5606339,5.2574644 C 2.6719257,4.8122974 3.0719088,4.5 3.5307764,4.5 H 14.469224 c 0.552284,0 1,0.4477152 1,1 0,0.081762 -0.01003,0.163215 -0.02986,0.2425356 L 15.124325,7.0026989 M 6,13.5 H 2.0043488 C 1.1715729,13.5 0.5,12.828427 0.5,12 V 3.5 c 0,-0.5522847 0.44771525,-1 1,-1 h 5 c 0.5522847,0 1,0.4477153 1,1 v 1" />
		<path stroke="#fab387" d="M9.5,8.5 L10.5,8.5 C11.0522847,8.5 11.5,8.94771525 11.5,9.5 L11.5,10.5 C11.5,11.0522847 11.0522847,11.5 10.5,11.5 L9.5,11.5 C8.94771525,11.5 8.5,11.0522847 8.5,10.5 L8.5,9.5 C8.5,8.94771525 8.94771525,8.5 9.5,8.5 Z M13.5,12.5 L14.5,12.5 C15.0522847,12.5 15.5,12.9477153 15.5,13.5 L15.5,14.5 C15.5,15.0522847 15.0522847,15.5 14.5,15.5 L13.5,15.5 C12.9477153,15.5 12.5,15.0522847 12.5,14.5 L12.5,13.5 C12.5,12.9477153 12.9477153,12.5 13.5,12.5 Z M9.5,11.5 L9.5,14.5 L12.5,14.5" />
	</g>
</svg>
