<svg xmlns="http://www.w3.org/2000/svg" width="16" height="16" viewBox="0 0 16 16">
	<path fill="none" stroke="#cdd6f4" stroke-linecap="round" stroke-linejoin="round" d="M4.5 4.5H12c.83 0 1.5.67 1.5 1.5v.5m-7.5 7H2A1.5 1.5 0 01.5 12V3.5a1 1 0 011-1h5a1 1 0 011 1v1" />
	<path fill="none" stroke="#f2cdcd" d="M 8.063388,9.425887 A 1.0487529,1.0041303 0 0 1 9.112141,8.4217564 h 5.339106 A 1.0487529,1.0041303 0 0 1 15.5,9.425887 v 3.651383 a 1.0487529,1.0041303 0 0 1 -1.048753,1.00413 h -4.209884 c -0.144919,0 -0.281829,0.06317 -0.372213,0.171615 l -0.88858,1.063646 c -0.304329,0.363678 -0.917182,0.158104 -0.917182,-0.30781 z" clip-rule="evenodd" />
</svg>
