<svg xmlns="http://www.w3.org/2000/svg" width="16" height="16" viewBox="0 0 16 16">
	<g fill="none" stroke-linecap="round" stroke-linejoin="round">
		<path stroke="#cdd6f4" d="m4.5 4.5h7.5c0.83 0 1.5 0.67 1.5 1.5v0.5m-7.5 7h-4c-0.83 0-1.5-0.67-1.5-1.5v-8.5c0-0.55 0.45-1 1-1h5c0.55 0 1 0.45 1 1v1" />
		<path stroke="#fab387" stroke-width=".571" d="m 8.2857144,11.428571 v 2.285716 L 12,15.714289 15.714285,13.714287 V 9.1428553 L 13.714286,8.2857117 10,9.9999989 V 10.571427 Z M 12,9.1428553 13.999999,9.9999989 V 14.571431 M 8.2857144,11.428571 12,13.428573 15.714285,11.428571 M 10,9.9999989 12,11.142856 15.714285,9.1428553 M 10,10.571427 v 4.000004 m 2,-3.428575 v 4.285719" />
	</g>
</svg>
