<svg xmlns="http://www.w3.org/2000/svg" width="16" height="16" viewBox="0 0 16 16">
	<g fill="none" stroke-linecap="round" stroke-linejoin="round">
		<path stroke="#cdd6f4" d="m4.5 4.5h7.5c0.83 0 1.5 0.67 1.5 1.5v0.5m-7.5 7h-4c-0.83 0-1.5-0.67-1.5-1.5v-8.5c0-0.55 0.45-1 1-1h5c0.55 0 1 0.45 1 1v1" />
		<g transform="translate(.553 .553)scale(.9654)">
			<path stroke="#89b4fa" stroke-width=".583" d="m14.54 11.61v2.164c0 0.8993-0.724 1.623-1.623 1.623h-1.29m-2.622 0h-0.4162c-0.8993 0-1.623-0.724-1.623-1.623v-4.329c0-0.8993 0.724-1.623 1.623-1.623h1.582m-1.457 6.119 2.622-4.662m-1.165 0 0.8604 1.53m1.598 2.841 0.1639 0.2914m-4.37-1.457h1.735" />
			<g stroke-width="1.884" transform="matrix(.2955 -.0928 .09252 .2945 8.191 7.898)">
				<path stroke="#cdd6f4" d="m14 12-13.66 13.7c-1.443 1.447-3.267-0.7274-1.996-2.003l13.66-13.7" />
				<path stroke="#7f849c" d="m21.5 11.5-1.914-1.914c-0.3751-0.375-0.5859-0.8836-0.586-1.414v-1.172l-2.26-2.26c-1.115-1.115-2.625-1.746-4.202-1.756l-3.538-0.024 0.92 0.82c1.322 1.172 2.079 2.854 2.08 4.62l8.91e-4 1.6 1.999 2 1.172 2.24e-4c0.5304 1.13e-4 1.039 0.2109 1.414 0.586l1.914 1.914m-0.408 0.5686 3.854-4.031" />
			</g>
		</g>
	</g>
</svg>
