<svg xmlns="http://www.w3.org/2000/svg" width="16" height="16" viewBox="0 0 16 16">
	<g fill="none" stroke-linecap="round" stroke-linejoin="round">
		<path stroke="#cdd6f4" d="M 1.8748797,8.0004811 2.5606339,5.2574644 C 2.6719257,4.8122974 3.0719088,4.5 3.5307764,4.5 H 14.469224 c 0.552284,0 1,0.4477152 1,1 0,0.081762 -0.01003,0.163215 -0.02986,0.2425356 L 15.124325,7.0026989 M 6,13.5 H 2.0043488 C 1.1715729,13.5 0.5,12.828427 0.5,12 V 3.5 c 0,-0.5522847 0.44771525,-1 1,-1 h 5 c 0.5522847,0 1,0.4477153 1,1 v 1" />
		<path stroke="#89b4fa" d="m 8.5175952,15.5 1.0156421,-1.015642 m 3.9687157,-5.9685602 -2,1.9899902 m 3.998047,0.01001 -1.998047,2 m -2.969095,-2.6251372 3.594231,3.5940752 -0.898597,0.898597 c -0.570027,0.628347 -1.545367,0.9134 -2.477035,0.704003 C 9.8520122,14.885181 9.1624176,14.15872 8.9305221,13.26648 8.6986267,12.374239 8.9679753,11.426378 9.634417,10.789414 Z" />
	</g>
</svg>
