<svg xmlns="http://www.w3.org/2000/svg" width="16" height="16" viewBox="0 0 16 16">
	<path fill="none" stroke="#cdd6f4" stroke-linecap="round" stroke-linejoin="round" d="M 1.8748797,8.0004811 2.5606339,5.2574644 C 2.6719257,4.8122974 3.0719088,4.5 3.5307764,4.5 H 14.469224 c 0.552284,0 1,0.4477152 1,1 0,0.081762 -0.01003,0.163215 -0.02986,0.2425356 L 15.124325,7.0026989 M 6,13.5 H 2.0043488 C 1.1715729,13.5 0.5,12.828427 0.5,12 V 3.5 c 0,-0.5522847 0.44771525,-1 1,-1 h 5 c 0.5522847,0 1,0.4477153 1,1 v 1" />
	<g fill="none" fill-rule="evenodd" stroke="#fab387" stroke-linejoin="round" transform="translate(7.429 7.429)scale(.57143)">
		<path stroke-linecap="round" d="M 1.5,7 8,10.5 14.5,7 M 4.5,4.5 8.003,6.5 14.498,3 M 4.5,5.5 v 7 M 8,6.5 V 14" />
		<path stroke-linecap="round" d="M 8.003,3 11.5,4.5 v 8" />
		<path stroke-linecap="square" d="M 1.5,6.984 V 11 L 8.003,14.5 14.5,11 V 3 L 11,1.5 4.5,4.5 v 1 z" />
	</g>
</svg>
