<svg xmlns="http://www.w3.org/2000/svg" width="16" height="16" viewBox="0 0 16 16">
	<path fill="none" stroke="#94e2d5" stroke-linecap="round" stroke-linejoin="round" stroke-miterlimit="10" d="M 2.2871875,10.408589 C 1.9490532,11.150344 0.88839286,12.951485 2,15.480391 M 9.5605513,9.5 c 0,0 -1.9115455,2.815807 1.0848657,5.550291 M 10.272772,3.3881058 13.5,0.5 11.540927,4.485982" />
	<path fill="none" stroke="#94e2d5" stroke-linecap="round" stroke-linejoin="round" stroke-miterlimit="10" d="m 8,7.4673896 c 0.3444436,2.2881001 2.82696,1.6452931 3.574949,1.6603108 0.09437,0.002 0.345692,0.1564661 0.425051,0.2075741 l 0.994375,0.4689582 c 0.11517,0.073833 0.263324,0.1250159 0.388135,0.06962 l 0.466996,-0.2072715 c 0.324798,-0.071048 0.56773,-0.3418696 0.603135,-0.6723794 l 0.0494,-0.4614084 c 0.024,-0.2242193 -0.0512,-0.4477185 -0.205864,-0.6118319 L 11.5,4.5 10,3.5 V 1.5003632 c 0,0 -2.1907303,0.2606448 -2,1.9243834 0,0 -4.433939,1.7641989 -1.5132378,5.8671714 0,0 0.7898303,1.510176 0.018531,3.159567" />
	<path fill="none" stroke="#94e2d5" stroke-linecap="round" stroke-linejoin="round" stroke-miterlimit="10" d="M 8,3 C 8,3 1.5997572,3.1630907 4,9" />
	<path fill="none" stroke="#94e2d5" stroke-linecap="round" stroke-linejoin="round" stroke-miterlimit="10" d="m 3.526123,6 c 0,0 -3.46208629,2.3289406 -0.025579,6 0,0 0.9790286,1.517656 0.4994562,3.496795" />
	<path fill="none" stroke="#94e2d5" stroke-linecap="round" stroke-linejoin="round" d="m 10.5,6.5 v 0" />
</svg>
