<svg xmlns="http://www.w3.org/2000/svg" width="16" height="16" viewBox="0 0 16 16">
	<path fill="none" stroke="#cdd6f4" stroke-linecap="round" stroke-linejoin="round" d="M 6.7023163,5.8887784 11.747942,12.31524" />
	<path fill="none" stroke="#f9e2af" stroke-linecap="round" stroke-linejoin="round" d="M3.7092187 3.786028 3.3135138 1.6374727 5.343652 2.4797064 7.3909947 1.4999652 7.1157217 3.6485205 8.8877915 5.3157994 6.4963575 5.5564375 5.6877432 7.6878044 4.5694467 5.7798873 2.2812401 5.5392491ZM8.7054429 9.7905901c0 0-.6569349.5590869-1.1922152.07292C6.9779474 9.3773531 7.6577853 8.3900186 8.1458316 7.918865 8.633878 7.4477114 9.686694 6.8485731 10.161124 7.3254012 10.857149 8.0249447 9.8934836 8.7067938 9.8934836 8.7067938" />
	<path fill="none" stroke="#f9e2af" stroke-linecap="round" stroke-linejoin="round" d="m 10.30998,11.075603 c 0,0 -1.1322605,1.025722 -1.816528,0.447675 C 7.8091846,10.94522 8.6782451,9.7712631 9.3021318,9.2110531 9.9260182,8.6508438 11.230523,7.9393316 11.790376,8.5462897 12.350233,9.1532471 10.98372,10.502371 10.98372,10.502371" />
	<path fill="none" stroke="#f9e2af" stroke-linecap="round" stroke-linejoin="round" d="m 11.929977,13.036693 c 0,0 -1.508345,1.325964 -2.3308283,0.621359 -0.8224841,-0.704619 0.22212,-2.135605 0.9720263,-2.818468 0.749907,-0.682863 2.317913,-1.5501559 2.990853,-0.810308 0.672943,0.739846 -0.978993,2.332171 -0.978993,2.332171" />
	<path fill="none" stroke="#cdd6f4" stroke-linecap="round" stroke-linejoin="round" d="M 11.784737,12.357846 13.466611,14.5" />
</svg>
