<svg xmlns="http://www.w3.org/2000/svg" width="16" height="16" viewBox="0 0 16 16">
	<path fill="none" stroke="#f5e0dc" stroke-linecap="round" stroke-linejoin="round" d="M3.56 3.68c.66-.5 1.15-.83 1.48-1 .5-.24 5.43-.24 5.92 0 .33.17.82.5 1.48 1m-8.88 0C1.75 4 .76 4.34.6 4.67c-.25.5 0 3.08.49 3.58.33.33.82.33 1.48 0l1.48-3.58Zm8.88 0c1.81.33 2.8.66 2.96.99.25.5 0 3.1-.49 3.6-.33.33-.82.33-1.48 0l-1.48-3.6ZM2.57 8.14c-.33 1.65-.33 2.53 0 2.86s1.15.76 2.47 1.1m8.39-3.84c.33 1.66.33 2.41 0 2.74s-1.15.76-2.47 1.1M9 8.45c-.74-.49-1.24-.49-1.98 0-.5.33-1.15 1.65-1.97 3.63-.5.5-.58.91-.25 1.24.5.5 2.22-.33 3.21-.33s2.71.82 3.2.33c.34-.33.25-.74-.24-1.24-.82-1.98-1.48-3.3-1.97-3.63m-2.22.41C6.93 9.7 7.34 10 8 10s1.07-.3 1.23-1.13M10.5 6.5v0M5.5 6.5v0" />
</svg>
