<svg xmlns="http://www.w3.org/2000/svg" width="16" height="16" viewBox="0 0 16 16">
	<path fill="none" stroke="#7f849c" stroke-linecap="round" stroke-linejoin="round" d="M11.5 13.5a1 1 0 100-2 1 1 0 000 2m1.75-4 1.75 3-1.75 3h-3.5L8 12.5l1.75-3z" />
	<g fill="none" stroke-linecap="round" stroke-linejoin="round" stroke-width="1.083" transform="translate(-.885 -.885)scale(.92308)">
		<path stroke="#89b4fa" d="m 8.5,5.5 h -3 m 6,0 V 3 C 11.5,2.2 10.8,1.5 10,1.5 H 7 C 6.2,1.5 5.5,2.2 5.5,3 V 5.5 H 3 C 2.2,5.5 1.5,6.2 1.5,7 v 2 c 0,0.8 0.7,1.5 1.48,1.5" />
		<path stroke="#f9e2af" d="M 9.75,10.5 H 7.5 m -3,0 V 13 c 0,0.8 0.7,1.5 1.5,1.5 H 7.5 M 14.378125,9.571875 C 14.45625,9.39375 14.5,9.2 14.5,9 V 7 C 14.5,6.2 13.8,5.5 13.02,5.5 H 11.5 c 0,1.5 0,2 -1,2 h -2" />
		<path stroke="#89b4fa" d="M 2.98,10.5 H 4.5 c 0,-1.5 0,-2 1,-2 h 2 m 0,-5 v 0" />
		<path stroke="#f9e2af" d="m 8.5,12.5 v 0" />
	</g>
</svg>
