<svg xmlns="http://www.w3.org/2000/svg" width="16" height="16" viewBox="0 0 16 16">
	<path fill="none" stroke="#f38ba8" stroke-linecap="round" stroke-linejoin="round" d="m 3.1675823,9.714899 c 0.02507,0.519226 0.327855,1.171491 0.605764,1.580503 l -0.86227,0.836101 c -0.09112,0.09645 -0.01686,0.176227 0.09006,0.289924 l 0.746796,0.788832 c 0.103136,0.115107 0.172799,0.186675 0.267958,0.09272 l 0.935387,-0.904188 c 0.224779,0.10358 0.978783,0.430147 1.774186,0.387936 m 1.08749,-0.898702 -0.42143,0.412494 c -0.0403,0.03947 -0.109387,0.09686 -0.153306,0.127713 l -0.509845,0.354277 1.023637,2.595713 c 0.021156,0.05348 0.064506,0.09492 0.118599,0.113366 0.02616,0.0086 0.05306,0.01061 0.0783,0.006 0.02525,-0.0046 0.04794,-0.01601 0.06621,-0.03284 l 2.0188167,-1.843205 c 0.02351,-0.02148 0.03865,-0.05108 0.04309,-0.08459 l 0.34453,-2.650779 c 0.552942,-0.45172 1.108927,-0.9858735 1.653561,-1.5880293 3.134653,-3.4669744 3.486584,-6.3786524 3.417661,-7.8053844 -0.02278,-0.470046 -0.09154,-0.73434504 -0.09416,-0.74537504 -0.0089,-0.0327465 -0.02617,-0.0625843 -0.05001,-0.08658 -0.02349,-0.0240663 -0.05289,-0.0414137 -0.08521,-0.05027 -0.166302,-0.04462 -4.129091,-1.039281 -8.9962607,3.66551304 -0.0061,0.0068 -0.637244,0.639142 -1.305906,1.547145 l -2.592484,0.489452 c -0.03024,0.0055 -0.057619,0.021492 -0.07739,0.04521 L 0.53194491,8.4607624 c -0.015874,0.019074 -0.026238,0.042626 -0.030185,0.068583 -0.00395,0.025956 -0.00124,0.05324 0.00782,0.079779 0.00897,0.026454 0.024015,0.051167 0.043755,0.0719 0.019739,0.020733 0.043591,0.03682 0.069416,0.046856 L 3.1709863,9.7120123 3.5698803,9.2583016 c 0.04427,-0.048614 0.091871,-0.094033 0.142451,-0.1359225 l 0.45219,-0.3655561 m 4.433474,-3.8611397 c 0.790058,-0.764284 1.9660137,-0.816447 2.6264507,-0.11577 0.66085,0.700677 0.555821,1.887821 -0.234483,2.652437 -0.790058,0.764284 -1.9656857,0.816032 -2.6264517,0.115687 -0.66085,-0.700677 -0.555491,-1.888071 0.234484,-2.652354" clip-rule="evenodd" />
</svg>
