<svg xmlns="http://www.w3.org/2000/svg" width="16" height="16" viewBox="0 0 16 16">
	<path fill="none" stroke="#7f849c" stroke-linecap="round" stroke-linejoin="round" d="M11.5 13.5a1 1 0 100-2 1 1 0 000 2m1.75-4 1.75 3-1.75 3h-3.5L8 12.5l1.75-3z" />
	<path fill="none" stroke="#fab387" stroke-linecap="round" stroke-linejoin="round" d="M 1.8198082,8.9979432 H 5.1166773 M 2.0899198,3.8991686 h 5.6627777 c 1.7431441,-7.345e-4 1.7431441,2.5486523 0,2.5493867 H 3.832313 m 0,-2.5493867 V 8.9979432 M 6.4459027,6.4485553 h 0.8711965 c 0.9622971,-10e-8 1.7423929,0.7609332 1.7423929,1.699592 M 6.4459027,12.397126 5.2750145,11.453853 3.8000787,11.808218 3.1641052,10.462141 1.6778441,10.157066 1.7039799,8.6758709 0.49998613,7.7725372 1.1838756,6.4485553 0.49998613,5.1245735 1.7039799,4.2220909 1.6778441,2.740897 3.1641052,2.4358203 3.8000787,1.0897439 5.2750145,1.4441088 6.4459027,0.49998582 7.6167909,1.4432589 9.0917268,1.0888941 l 0.6359726,1.3460764 1.4862616,0.3050767 -0.02614,1.4811938 1.203994,0.9033325 -0.683889,1.3239818 0.683018,1.3239819" />
</svg>
