<svg xmlns="http://www.w3.org/2000/svg" width="16" height="16" viewBox="0 0 16 16">
	<path fill="none" stroke="#cba6f7" stroke-linecap="round" stroke-linejoin="round" d="M 1.9999999,3.5 C 1.1715728,3.5 0.50000005,4.2433238 0.50000005,5.0562248 V 10.943775 C 0.49999982,11.756676 1.1715726,12.5 1.9999998,12.5 H 14 c 0.828427,0 1.5,-0.743324 1.5,-1.556225 V 5.0562248 C 15.5,4.2433237 14.828427,3.5 14,3.5 Z m 0.405,3 H 4 v 3 H 2.4049999 c -0.2625,-0.4489256 -0.405,-0.9848395 -0.405,-1.5000001 0,-0.5151607 0.1425,-1.0510742 0.405,-1.4999999 M 6,6.5 h 4 v 3 H 6 Z m 6,0 h 1.595 C 13.8575,6.9489257 14,7.4848392 14,7.9999999 14,8.5151605 13.8575,9.0510744 13.595,9.5 H 12 Z" />
</svg>
