<?xml version="1.0" encoding="UTF-8" standalone="no"?>
<!-- Created with Inkscape (http://www.inkscape.org/) -->

<svg
   width="100.0px"
   height="100.0px"
   viewBox="0 0 100.0 100.0"
   version="1.1"
   id="SVGRoot"
   sodipodi:docname="wiptest.svg"
   inkscape:version="1.2.1 (9c6d41e410, 2022-07-14)"
   xmlns:inkscape="http://www.inkscape.org/namespaces/inkscape"
   xmlns:sodipodi="http://sodipodi.sourceforge.net/DTD/sodipodi-0.dtd"
   xmlns="http://www.w3.org/2000/svg"
   xmlns:svg="http://www.w3.org/2000/svg">
  <defs
     id="defs44872" />
  <sodipodi:namedview
     id="namedview32486"
     pagecolor="#181825"
     bordercolor="#000000"
     borderopacity="0.24705882"
     inkscape:showpageshadow="2"
     inkscape:pageopacity="0"
     inkscape:pagecheckerboard="0"
     inkscape:deskcolor="#313244"
     inkscape:document-units="px"
     showgrid="true"
     inkscape:zoom="5.6568544"
     inkscape:cx="48.790367"
     inkscape:cy="46.138716"
     inkscape:window-width="1920"
     inkscape:window-height="1017"
     inkscape:window-x="-8"
     inkscape:window-y="-8"
     inkscape:window-maximized="1"
     inkscape:current-layer="SVGRoot"
     showborder="false">
    <inkscape:grid
       type="xygrid"
       id="grid32609" />
  </sodipodi:namedview>
  <path
     style="fill:none;stroke:#358ef1;stroke-width:5;stroke-linecap:round;stroke-linejoin:round;stroke-dasharray:none;stroke-opacity:1;paint-order:fill markers stroke"
     d="m 94.1084,62.704204 c 0,0 -0.002,-0.07967 -0.798341,-0.798339 -0.796207,-0.718666 -1.626884,-1.224247 -2.461549,-1.59668 -0.834662,-0.372433 -1.603176,-0.529434 -2.46155,-0.665286 -0.858367,-0.135848 -1.268934,-0.07223 -2.261961,-0.01653 -0.993031,0.05562 -2.188074,0.188274 -3.010408,0.598757 -0.822336,0.410485 -1.751642,0.895426 -2.278599,1.397096 -0.526955,0.501669 -0.870397,0.988947 -1.230774,1.613311 -0.360373,0.624365 -0.679478,1.378756 -0.864868,2.06238 -0.185392,0.683623 -0.262539,1.123903 -0.266112,1.99585 -0.0035,0.871948 0.10257,2.251222 0.399169,3.193361 0.296595,0.94214 0.765462,1.705006 1.26404,2.395021 0.498578,0.690014 1.098406,1.328746 1.663209,1.729735 0.564801,0.40099 0.840178,0.603697 1.663208,0.997927 0.823028,0.394227 2.128909,0.831603 3.259889,1.397094 1.130983,0.565493 2.429576,1.171615 3.459476,1.729737 1.029896,0.558124 1.989353,1.061845 2.72766,1.596682 0.738309,0.534835 1.204445,0.950969 1.729737,1.53015 0.525293,0.579181 1.041249,1.243999 1.397097,1.929325 0.355846,0.685324 0.589449,1.168068 0.755332,2.105383 0.08294,0.468661 0.119288,1.122316 0.125054,1.764418 0.0057,0.642098 -0.01907,1.272636 -0.05853,1.695057 -0.07886,0.844841 -0.148423,0.925798 -0.35616,1.620201 -0.207734,0.694406 -0.703192,1.807386 -1.233139,2.528079 -0.529948,0.720691 -1.078991,1.194223 -1.827166,1.663208 -0.748178,0.468987 -1.609533,0.881167 -2.39502,1.130981 -0.785491,0.249819 -1.351173,0.309853 -2.261967,0.39917 -0.91079,0.08931 -2.087615,0.172781 -3.193358,0.06653 C 84.487021,96.660569 83.165768,96.362427 82.19982,96.03501 81.233867,95.70759 80.510285,95.390681 79.804799,94.904027 79.099311,94.417372 78.804203,94.19833 78.407705,93.73978 77.880317,93.129863 77.143663,91.677401 77.143663,91.677401"
     id="path1167"
     sodipodi:nodetypes="czzzzzzzzzzzzzzzzzzssszzzzzzzzac" />
  <path
     id="path5247"
     style="fill:none;stroke:#358ef1;stroke-width:5;stroke-linecap:round;stroke-linejoin:round;stroke-dasharray:none;stroke-opacity:1;paint-order:fill markers stroke"
     d="M 55.36348,60.116074 V 96.899016 M 43.227931,59.598665 h 24.177023" />
  <path
     style="fill:none;stroke:#41b883;stroke-width:5;stroke-linecap:round;stroke-linejoin:round;stroke-dasharray:none;paint-order:fill markers stroke"
     d="m 67.039994,9.7769252 c 0,0 -43.713396,43.7133968 -59.3522499,59.3522518 C 0.16370033,76.653219 1.6217145,86.886584 6.834939,92.099809 12.30753,97.572386 21.361925,100.79105 30.355761,91.797173 45.027197,77.125756 89.70801,32.444944 89.70801,32.444944"
     id="path14151"
     sodipodi:nodetypes="csssc" />
  <path
     style="fill:none;stroke:#41b883;stroke-width:5;stroke-linecap:round;stroke-linejoin:round;stroke-dasharray:none;paint-order:fill markers stroke"
     d="M 62.469751,2.5 96.984942,37.015185"
     id="path14181" />
</svg>
