<?xml version="1.0" encoding="UTF-8" standalone="no"?>
<!-- Created with Inkscape (http://www.inkscape.org/) -->

<svg
   width="100.0px"
   height="100.0px"
   viewBox="0 0 100.0 100.0"
   version="1.1"
   id="SVGRoot"
   sodipodi:docname="adonis.svg"
   inkscape:version="1.2.1 (9c6d41e410, 2022-07-14)"
   xmlns:inkscape="http://www.inkscape.org/namespaces/inkscape"
   xmlns:sodipodi="http://sodipodi.sourceforge.net/DTD/sodipodi-0.dtd"
   xmlns="http://www.w3.org/2000/svg"
   xmlns:svg="http://www.w3.org/2000/svg">
  <defs
     id="defs8354" />
  <sodipodi:namedview
     id="namedview32486"
     pagecolor="#181825"
     bordercolor="#000000"
     borderopacity="0.24705882"
     inkscape:showpageshadow="2"
     inkscape:pageopacity="0"
     inkscape:pagecheckerboard="0"
     inkscape:deskcolor="#313244"
     inkscape:document-units="px"
     showgrid="true"
     inkscape:zoom="3.445"
     inkscape:cx="5.6603774"
     inkscape:cy="23.802612"
     inkscape:window-width="1920"
     inkscape:window-height="1017"
     inkscape:window-x="1912"
     inkscape:window-y="-8"
     inkscape:window-maximized="1"
     inkscape:current-layer="SVGRoot"
     showborder="false"
     showguides="false">
    <inkscape:grid
       type="xygrid"
       id="grid32609" />
  </sodipodi:namedview>
  <path
     d="m 12,3 c 7.2,0 9,1.8 9,9 0,7.2 -1.8,9 -9,9 C 4.8,21 3,19.2 3,12 3,4.8 4.8,3 12,3 Z"
     id="path2759"
     style="stroke-width:0.95;stroke-dasharray:none;stroke:#5a46ff;stroke-opacity:1;fill:none"
     transform="matrix(5.2631579,0,0,5.2631579,-13.157895,-13.157895)" />
  <path
     d="M 8.863,16.922 C 10,16.5 10.5,16 12,16 c 1.5,0 2,0.5 3.138,0.922 0.713,0.264 1.516,-0.102 1.778,-0.772 0.126,-0.32 0.11,-0.673 -0.044,-0.983 L 13.164,7.693 C 12.867,7.095 12.106,6.834 11.464,7.11 a 1.24,1.24 0 0 0 -0.627,0.583 l -3.709,7.474 c -0.321,0.648 -0.017,1.415 0.679,1.714 0.332,0.143 0.715,0.167 1.056,0.04 z"
     id="path2761"
     style="stroke-width:0.95;stroke-dasharray:none;stroke:#5a46ff;stroke-opacity:1;fill:none"
     transform="matrix(5.2631579,0,0,5.2631579,-13.157895,-13.157895)" />
</svg>
