<?xml version="1.0" encoding="UTF-8"?>
<svg width="16px" height="16px" viewBox="0 0 16 16" version="1.1" xmlns="http://www.w3.org/2000/svg" xmlns:xlink="http://www.w3.org/1999/xlink">
    <title>adonis</title>
    <g id="adonis" stroke="none" stroke-width="1" fill="none" fill-rule="evenodd">
        <g transform="translate(1.5, 1.5)" id="Path" stroke="#8839EF">
            <path d="M6.5,0 C11.7,0 13,1.3 13,6.5 C13,11.7 11.7,13 6.5,13 C1.3,13 0,11.7 0,6.5 C0,1.3 1.3,0 6.5,0 Z"></path>
            <path d="M6.5,9.38888889 C7.58333333,9.38888889 7.94444444,9.75 8.76633333,10.0547778 C9.28127778,10.2454444 9.86122222,9.98111111 10.0504444,9.49722222 C10.1414444,9.26611111 10.1298889,9.01116667 10.0186667,8.78727778 L7.34066667,3.38938889 C7.12616667,2.9575 6.57655556,2.769 6.11288889,2.96833333 C5.91674165,3.05047096 5.75622266,3.19972546 5.66005556,3.38938889 L2.98133333,8.78727778 C2.7495,9.25527778 2.96905556,9.80922222 3.47172222,10.0251667 C3.7115,10.1284444 3.98811111,10.1457778 4.23438889,10.0540556 C5.05555556,9.75 5.41666667,9.38888889 6.5,9.38888889 Z" stroke-linejoin="round"></path>
        </g>
    </g>
</svg>