<?xml version="1.0" encoding="UTF-8"?>
<svg width="16px" height="16px" viewBox="0 0 16 16" version="1.1" xmlns="http://www.w3.org/2000/svg" xmlns:xlink="http://www.w3.org/1999/xlink">
    <title>adonis</title>
    <g id="adonis" stroke="none" stroke-width="1" fill="none" fill-rule="evenodd">
        <path d="M8,1.5 C13.2,1.5 14.5,2.8 14.5,8 C14.5,13.2 13.2,14.5 8,14.5 C2.8,14.5 1.5,13.2 1.5,8 C1.5,2.8 2.8,1.5 8,1.5 Z" id="Path" stroke="#8839EF"></path>
        <path d="M8,10.8888889 C9.08333333,10.8888889 9.44444444,11.25 10.2663333,11.5547778 C10.7812778,11.7454444 11.3612222,11.4811111 11.5504444,10.9972222 C11.6414444,10.7661111 11.6298889,10.5111667 11.5186667,10.2872778 L8.84066667,4.88938889 C8.62616667,4.4575 8.07655556,4.269 7.61288889,4.46833333 C7.41674165,4.55047096 7.25622266,4.69972546 7.16005556,4.88938889 L4.48133333,10.2872778 C4.2495,10.7552778 4.46905556,11.3092222 4.97172222,11.5251667 C5.2115,11.6284444 5.48811111,11.6457778 5.73438889,11.5540556 C6.55555556,11.25 6.91666667,10.8888889 8,10.8888889 Z" id="Path" stroke="#8839EF" stroke-linejoin="round"></path>
    </g>
</svg>