<?xml version="1.0" encoding="UTF-8" standalone="no"?>
<!-- Created with Inkscape (http://www.inkscape.org/) -->

<svg
   width="100.0px"
   height="100.0px"
   viewBox="0 0 100.0 100.0"
   version="1.1"
   id="SVGRoot"
   sodipodi:docname="alex.svg"
   inkscape:version="1.2.1 (9c6d41e410, 2022-07-14)"
   xmlns:inkscape="http://www.inkscape.org/namespaces/inkscape"
   xmlns:sodipodi="http://sodipodi.sourceforge.net/DTD/sodipodi-0.dtd"
   xmlns="http://www.w3.org/2000/svg"
   xmlns:svg="http://www.w3.org/2000/svg">
  <defs
     id="defs8354" />
  <sodipodi:namedview
     id="namedview32486"
     pagecolor="#181825"
     bordercolor="#000000"
     borderopacity="0.24705882"
     inkscape:showpageshadow="2"
     inkscape:pageopacity="0"
     inkscape:pagecheckerboard="0"
     inkscape:deskcolor="#313244"
     inkscape:document-units="px"
     showgrid="true"
     inkscape:zoom="3.445"
     inkscape:cx="7.5471698"
     inkscape:cy="23.802612"
     inkscape:window-width="1920"
     inkscape:window-height="1017"
     inkscape:window-x="1912"
     inkscape:window-y="-8"
     inkscape:window-maximized="1"
     inkscape:current-layer="SVGRoot"
     showborder="false"
     showguides="false">
    <inkscape:grid
       type="xygrid"
       id="grid32609" />
  </sodipodi:namedview>
  <rect
     style="fill:none;stroke:#6f42c1;stroke-width:5;stroke-linecap:round;stroke-linejoin:round;stroke-dasharray:none;stroke-opacity:1;paint-order:fill markers stroke"
     id="rect1675"
     width="94.052284"
     height="94.445076"
     x="2.9738579"
     y="2.777462"
     rx="16.187834"
     ry="16.09223" />
  <path
     style="fill:none;stroke:#6f42c1;stroke-width:5;stroke-linecap:round;stroke-linejoin:round;stroke-dasharray:none;stroke-opacity:1;paint-order:fill markers stroke"
     d="M 33.140829,69.277716 H 65.546193"
     id="path1731" />
  <path
     style="fill:none;stroke:#6f42c1;stroke-width:5;stroke-linecap:round;stroke-linejoin:round;stroke-dasharray:none;stroke-opacity:1;paint-order:fill markers stroke"
     d="m 33.435423,80.472296 h 32.40537"
     id="path1731-6" />
  <path
     style="fill:none;fill-opacity:1;stroke:#6f42c1;stroke-width:5;stroke-linecap:round;stroke-linejoin:round;stroke-dasharray:none;stroke-opacity:1;paint-order:fill markers stroke"
     d="m 67.870102,57.783019 c 0,0 -1.653,0.230795 -2.485487,0.253991 -0.393348,0.01096 -0.788819,-0.0053 -1.179245,-0.05443 -0.35538,-0.04468 -0.720257,-0.08327 -1.052249,-0.217707 -0.345216,-0.139789 -0.700378,-0.316459 -0.943397,-0.598694 -0.224363,-0.260568 -0.336042,-0.609276 -0.417271,-0.943396 -0.14169,-0.582817 -0.0907,-1.196564 -0.108854,-1.796082 -0.10175,-3.360821 0,-6.724721 0,-10.087082 0,-3.36236 -0.02898,-6.724844 0,-10.087079 0.0121,-1.403156 0.08133,-2.805818 0.07257,-4.208999 -0.0036,-0.572982 0.01306,-1.14883 -0.0511,-1.718219 -0.0693,-0.615015 -0.190106,-1.226285 -0.359198,-1.821646 -0.179674,-0.63262 -0.386802,-1.265158 -0.692739,-1.847304 -0.368636,-0.701452 -0.819579,-1.370219 -1.359821,-1.949931 -0.38974,-0.418214 -0.867783,-0.747005 -1.334163,-1.077594 -0.623478,-0.441947 -1.254867,-0.88819 -1.949932,-1.205879 -0.676539,-0.309221 -1.402828,-0.508259 -2.129531,-0.667082 -0.859116,-0.187762 -1.740058,-0.268094 -2.617013,-0.333541 -0.767765,-0.0573 -1.539565,-0.07402 -2.30913,-0.05131 -0.737612,0.02177 -1.478203,0.06074 -2.206501,0.179599 -0.77383,0.12629 -1.532328,0.339637 -2.283473,0.564454 -0.738527,0.22104 -1.482139,0.443991 -2.180844,0.76971 -0.54904,0.255949 -1.073204,0.570075 -1.565077,0.923652 -0.477546,0.343278 -0.920054,0.736949 -1.334164,1.154565 -0.529719,0.534204 -1.028089,1.104764 -1.462448,1.719018 -0.35401,0.500628 -0.642822,1.045678 -0.923652,1.590734 -0.275229,0.534185 -0.553,1.072309 -0.744053,1.642048 -0.197896,0.590146 -0.296731,1.209691 -0.410512,1.821646 -0.107451,0.577909 -0.197443,1.159844 -0.25657,1.744676 -0.01551,0.153397 -0.02566,0.461826 -0.02566,0.461826"
     id="path9744"
     sodipodi:nodetypes="caaaaaaaaaaaaaaaaaaaaaaaaaaaac" />
  <path
     style="fill:none;fill-opacity:1;stroke:#6f42c1;stroke-width:5;stroke-linecap:round;stroke-linejoin:round;stroke-dasharray:none;stroke-opacity:1;paint-order:fill markers stroke"
     d="m 61.012334,35.560595 c 0,0 -2.049293,0.990406 -3.130153,1.334164 -1.234083,0.392489 -2.513771,0.648609 -3.797236,0.821024 -3.446383,0.462972 -6.968209,0.117762 -10.41674,0.564453 -1.091181,0.141342 -2.177396,0.355931 -3.232781,0.667082 -0.862239,0.254207 -1.711552,0.570571 -2.514385,0.974966 -0.686577,0.345836 -1.375234,0.720935 -1.949932,1.231536 -0.60909,0.541157 -1.129864,1.194271 -1.53942,1.898618 -0.378409,0.650779 -0.636774,1.37397 -0.821024,2.103873 -0.27417,1.086122 -0.362671,2.216239 -0.410512,3.335409 -0.03947,0.923442 -0.07647,1.864189 0.102628,2.770956 0.134223,0.679557 0.407976,1.330696 0.718396,1.949932 0.365691,0.729492 0.814052,1.423773 1.334164,2.052559 0.377818,0.45676 0.808704,0.875781 1.28285,1.231536 0.520984,0.390898 1.100449,0.705373 1.693361,0.974966 0.526877,0.239567 1.090484,0.389041 1.642048,0.564454 0.696345,0.221457 1.38573,0.480829 2.103874,0.615768 0.7762,0.145848 1.572656,0.149134 2.360443,0.205255 0.615159,0.04382 1.230892,0.122049 1.847304,0.102628 0.72311,-0.02278 1.442743,-0.130758 2.155188,-0.25657 0.588337,-0.103896 1.170617,-0.245007 1.744675,-0.410511 0.608104,-0.17532 1.213656,-0.367947 1.79599,-0.615768 0.654626,-0.278586 1.282761,-0.618782 1.898617,-0.974966 0.599623,-0.346795 1.185938,-0.719487 1.744676,-1.128908 0.411606,-0.301608 0.784753,-0.65249 1.180222,-0.974966 0.697682,-0.568909 1.46701,-1.057105 2.103874,-1.693361 0.963803,-0.962884 2.565699,-3.181468 2.565699,-3.181468"
     id="path9917"
     sodipodi:nodetypes="caaaaaaaaaaaaaaaaaaaaaaaaac" />
</svg>
