<?xml version="1.0" encoding="UTF-8"?>
<svg width="16px" height="16px" viewBox="0 0 16 16" version="1.1" xmlns="http://www.w3.org/2000/svg" xmlns:xlink="http://www.w3.org/1999/xlink">
    <title>android</title>
    <g id="android" stroke="none" stroke-width="1" fill="none" fill-rule="evenodd" stroke-linecap="round" stroke-linejoin="round">
        <path d="M1.5,6.5 L1.5,11.5 M14.5,6.5 L14.5,11.5 M3.5,5.5 L12.5,5.5 L12.5,12 C12.5,12.8284271 11.8284271,13.5 11,13.5 L5,13.5 C4.17157288,13.5 3.5,12.8284271 3.5,12 L3.5,5.5 L3.5,5.5 Z M12.5,5.5 C12.5,3.01471863 10.4852814,1.5 8,1.5 C5.51471863,1.5 3.5,3.01471863 3.5,5.5 M4.5,0.5 L5.5,2 M11.5,0.5 L10.5,2 M5.5,13.5 L5.5,15.5 M10.5,13.5 L10.5,15.5" id="Combined-Shape" stroke="#40A02B"></path>
    </g>
</svg>