<?xml version="1.0" encoding="UTF-8"?>
<svg width="16px" height="16px" viewBox="0 0 16 16" version="1.1" xmlns="http://www.w3.org/2000/svg" xmlns:xlink="http://www.w3.org/1999/xlink">
    <title>android</title>
    <g id="android" stroke="none" stroke-width="1" fill="none" fill-rule="evenodd">
        <line x1="1.5" y1="6.5" x2="1.5" y2="11.5" id="Line" stroke="#40A02B" stroke-linecap="round" stroke-linejoin="round"></line>
        <line x1="14.5" y1="6.5" x2="14.5" y2="11.5" id="Line" stroke="#40A02B" stroke-linecap="round" stroke-linejoin="round"></line>
        <path d="M3.5,5.5 L12.5,5.5 L12.5,12 C12.5,12.8284271 11.8284271,13.5 11,13.5 L5,13.5 C4.17157288,13.5 3.5,12.8284271 3.5,12 L3.5,5.5 L3.5,5.5 Z" id="Rectangle" stroke="#40A02B"></path>
        <path d="M12.5,5.5 C12.5,3.01471863 10.4852814,1.5 8,1.5 C5.51471863,1.5 3.5,3.01471863 3.5,5.5" id="Path" stroke="#40A02B"></path>
        <line x1="4.5" y1="0.5" x2="5.5" y2="2" id="Path" stroke="#40A02B" stroke-linecap="round" stroke-linejoin="round"></line>
        <line x1="11.5" y1="0.5" x2="10.5" y2="2" id="Path" stroke="#40A02B" stroke-linecap="round" stroke-linejoin="round"></line>
        <line x1="5.5" y1="13.5" x2="5.5" y2="15.5" id="Path" stroke="#40A02B" stroke-linecap="round" stroke-linejoin="round"></line>
        <line x1="10.5" y1="13.5" x2="10.5" y2="15.5" id="Path" stroke="#40A02B" stroke-linecap="round" stroke-linejoin="round"></line>
    </g>
</svg>