<?xml version="1.0" encoding="UTF-8" standalone="no"?>
<!-- Created with Inkscape (http://www.inkscape.org/) -->

<svg
   width="100.0px"
   height="100.0px"
   viewBox="0 0 100.0 100.0"
   version="1.1"
   id="SVGRoot"
   sodipodi:docname="apl.svg"
   inkscape:version="1.2.1 (9c6d41e410, 2022-07-14)"
   xmlns:inkscape="http://www.inkscape.org/namespaces/inkscape"
   xmlns:sodipodi="http://sodipodi.sourceforge.net/DTD/sodipodi-0.dtd"
   xmlns="http://www.w3.org/2000/svg"
   xmlns:svg="http://www.w3.org/2000/svg">
  <defs
     id="defs8354" />
  <sodipodi:namedview
     id="namedview32486"
     pagecolor="#181825"
     bordercolor="#000000"
     borderopacity="0.24705882"
     inkscape:showpageshadow="2"
     inkscape:pageopacity="0"
     inkscape:pagecheckerboard="0"
     inkscape:deskcolor="#313244"
     inkscape:document-units="px"
     showgrid="true"
     inkscape:zoom="6.89"
     inkscape:cx="50.725689"
     inkscape:cy="52.104499"
     inkscape:window-width="1920"
     inkscape:window-height="1017"
     inkscape:window-x="1912"
     inkscape:window-y="-8"
     inkscape:window-maximized="1"
     inkscape:current-layer="SVGRoot"
     showborder="false"
     showguides="false">
    <inkscape:grid
       type="xygrid"
       id="grid32609" />
  </sodipodi:namedview>
  <g
     fill="none"
     stroke="currentColor"
     stroke-width="1.5"
     id="g5454"
     style="stroke-width:1.02665308;stroke-linecap:round;stroke-linejoin:round;stroke-dasharray:none;stroke:#00a33a;stroke-opacity:1"
     transform="matrix(4.8701943,0,0,4.8701943,-8.4423316,-7.1855614)">
    <path
       d="M 12.147,21.265 12,21.235 l -0.147,0.03 c -2.377,0.475 -4.62,0.21 -6.26,-1.1 C 3.964,18.86 2.75,16.373 2.75,12 2.75,7.527 3.758,5.71 5.085,5.046 5.78,4.699 6.678,4.598 7.82,4.729 c 1.141,0.132 2.458,0.488 3.943,0.983 l 0.26,0.086 0.255,-0.102 c 2.482,-0.992 4.713,-1.373 6.28,-0.641 1.47,0.685 2.692,2.538 2.692,6.945 0,4.374 -1.213,6.86 -2.843,8.164 -1.64,1.312 -3.883,1.576 -6.26,1.1 z"
       id="path5450"
       style="stroke-width:1.02665308;stroke-linecap:round;stroke-linejoin:round;stroke-dasharray:none;stroke:#00a33a;stroke-opacity:1" />
    <path
       stroke-linecap="round"
       stroke-linejoin="round"
       d="M 12,5.5 C 12,3 11,2 9,2"
       id="path5452"
       style="stroke-width:1.02665308;stroke-linecap:round;stroke-linejoin:round;stroke-dasharray:none;stroke:#00a33a;stroke-opacity:1" />
  </g>
</svg>
