<?xml version="1.0" encoding="UTF-8"?>
<svg width="16px" height="16px" viewBox="0 0 16 16" version="1.1" xmlns="http://www.w3.org/2000/svg" xmlns:xlink="http://www.w3.org/1999/xlink">
    <title>apl</title>
    <g id="apl" stroke="none" stroke-width="1" fill="none" fill-rule="evenodd" stroke-linecap="round" stroke-linejoin="round">
        <path d="M8,14.5164865 L7.8967027,14.5375676 C6.22637838,14.8713514 4.65021622,14.6851351 3.49778378,13.7645946 C2.35308108,12.8475676 1.5,11.0999459 1.5,8.02702703 C1.5,4.88383784 2.20832432,4.10702703 3.14081081,3.64043243 C3.62918919,3.39659459 4.26021622,3.32562162 5.0627027,3.41767568 C5.86448649,3.51043243 6.78994595,3.76059459 7.83345946,4.10843243 L8.01616216,4.16886486 L8.19535135,4.09718919 C9.93945946,3.40010811 11.5071892,3.13237838 12.6083243,3.64675676 C13.6412973,4.12810811 14.5,4.93021622 14.5,8.02702703 C14.5,11.1006486 13.6476216,12.8475676 12.5022162,13.7638919 C11.3497838,14.6858378 9.77362162,14.8713514 8.1032973,14.5368649 L8,14.5164865 Z" id="Path" stroke="#40A02B"></path>
        <path d="M8,3.45945946 C8,1.7027027 7.2972973,1 5.89189189,1" id="Path" stroke="#40A02B"></path>
    </g>
</svg>