<?xml version="1.0" encoding="UTF-8"?>
<svg width="16px" height="16px" viewBox="0 0 16 16" version="1.1" xmlns="http://www.w3.org/2000/svg" xmlns:xlink="http://www.w3.org/1999/xlink">
    <title>apple</title>
    <g id="apple" stroke="none" stroke-width="1" fill="none" fill-rule="evenodd">
        <path d="M14.4561802,11.3673353 C13.0276218,14.1261537 11.8858593,15.5 10.8437759,15.5 C10.3588459,15.5 9.88231005,15.3491298 9.41749082,15.0543006 C8.74000639,14.6241577 7.8668418,14.6059458 7.17068967,15.0074382 C6.60881451,15.3319356 6.07177167,15.5 5.56305868,15.5 C4.02887542,15.5 1.5,10.9491129 1.5,8.45090396 C1.5,5.78581061 2.95006811,3.551507 5.15647301,3.551507 C6.19383481,3.551507 7.09007204,4.20001691 7.84308619,4.497206 C8.16210316,4.62512517 8.52255587,4.61592787 8.83410596,4.47192 C9.44477141,4.18872223 10.2497236,3.551507 11.2503615,3.551507 C12.4715175,3.551507 13.5338865,4.33779342 14.4184071,5.47479877 C14.5532906,5.64778615 14.5172013,5.89341518 14.3377895,6.02349446 C13.3500923,6.736546 12.8746057,7.53893969 12.8746057,8.45090396 C12.8746057,9.36404821 13.3502672,10.1652619 14.3377895,10.8793249 C14.4946576,10.992887 14.5445377,11.1984946 14.4561802,11.3673353 Z" id="Path" stroke="#4C4F69" stroke-linecap="round" stroke-linejoin="round"></path>
        <path d="M8.37550434,3 C8.16858569,3.00008868 8.00062296,2.83270364 8,2.62578591 C7.99995718,1.92937106 8.27658794,1.26146726 8.7690276,0.769027599 C9.26146726,0.276587935 9.92937106,-4.28207244e-05 10.6257859,0 C10.7252311,8.53959365e-05 10.8205597,0.0397160578 10.8907569,0.110155445 C10.960954,0.180594833 11.000256,0.276059493 11,0.375504336 C10.9987518,1.82427285 9.82427326,2.99824567 8.37550434,2.99886868 L8.37550434,3 Z" id="Path" fill="#4C4F69"></path>
    </g>
</svg>