<?xml version="1.0" encoding="UTF-8" standalone="no"?>
<!-- Created with Inkscape (http://www.inkscape.org/) -->

<svg
   width="100.0px"
   height="100.0px"
   viewBox="0 0 100.0 100.0"
   version="1.1"
   id="SVGRoot"
   sodipodi:docname="apple.svg"
   inkscape:version="1.2.1 (9c6d41e410, 2022-07-14)"
   xmlns:inkscape="http://www.inkscape.org/namespaces/inkscape"
   xmlns:sodipodi="http://sodipodi.sourceforge.net/DTD/sodipodi-0.dtd"
   xmlns="http://www.w3.org/2000/svg"
   xmlns:svg="http://www.w3.org/2000/svg">
  <defs
     id="defs8354" />
  <sodipodi:namedview
     id="namedview32486"
     pagecolor="#181825"
     bordercolor="#000000"
     borderopacity="0.24705882"
     inkscape:showpageshadow="2"
     inkscape:pageopacity="0"
     inkscape:pagecheckerboard="0"
     inkscape:deskcolor="#313244"
     inkscape:document-units="px"
     showgrid="true"
     inkscape:zoom="5.1026952"
     inkscape:cx="52.423276"
     inkscape:cy="71.138875"
     inkscape:window-width="1920"
     inkscape:window-height="1017"
     inkscape:window-x="1912"
     inkscape:window-y="-8"
     inkscape:window-maximized="1"
     inkscape:current-layer="SVGRoot"
     showborder="false"
     showguides="false">
    <inkscape:grid
       type="xygrid"
       id="grid32609" />
  </sodipodi:namedview>
  <path
     fill="none"
     stroke="currentColor"
     d="M 52.323866,21.125421 A 2.3254238,2.3254238 0 0 1 49.998443,18.806777 16.264408,16.264408 0 0 1 66.262848,2.542372 c 1.288138,0 2.318644,1.044066 2.318644,2.325423 A 16.264408,16.264408 0 0 1 52.323866,21.118642 Z m 33.918643,48.922037 c 0.89492,0.67119 1.18645,1.8983 0.67797,2.89491 -8.1695,16.36611 -14.69831,24.51526 -20.657631,24.51526 -2.77288,0 -5.498304,-0.89492 -8.155933,-2.64407 a 12.081356,12.081356 0 0 0 -12.847456,-0.27797 c -3.213559,1.92542 -6.284747,2.92203 -9.193221,2.92203 -8.772881,0 -23.233898,-26.99661 -23.233898,-41.81695 0,-15.81017 8.291523,-27.877966 20.908472,-27.877966 5.932205,0 11.057629,0.881355 15.362715,2.644069 1.823727,0.75932 3.884746,0.705082 5.667795,-0.149143 3.491526,-1.681353 8.094916,-2.494913 13.816952,-2.494913 6.983055,0 13.057625,3.477966 18.115245,10.223727 a 2.3254238,2.3254238 0 0 1 -0.46101,3.254238 c -5.64745,4.230509 -8.3661,8.989831 -8.3661,14.400001 0,5.416949 2.71865,10.169497 8.3661,14.406777 z"
     id="path6247"
     style="stroke-width:5;stroke-linecap:round;stroke-linejoin:round;stroke-dasharray:none;stroke:#ffffff;stroke-opacity:1" />
</svg>
