<?xml version="1.0" encoding="UTF-8"?>
<svg width="16px" height="16px" viewBox="0 0 16 16" version="1.1" xmlns="http://www.w3.org/2000/svg" xmlns:xlink="http://www.w3.org/1999/xlink">
    <title>apps_script</title>
    <g id="apps_script" stroke="none" stroke-width="1" fill="none" fill-rule="evenodd">
        <path d="M2.5,11.5 L11.5,11.5 C12.0522847,11.5 12.5,11.9477153 12.5,12.5 C12.5,13.0522847 12.0522847,13.5 11.5,13.5 L2.5,13.5 C1.94771525,13.5 1.5,13.0522847 1.5,12.5 C1.5,11.9477153 1.94771525,11.5 2.5,11.5 Z" id="Rectangle" stroke="#E64553"></path>
        <path d="M3.3138158,8.91890604 L12.3138158,8.91890604 C12.8661006,8.91890604 13.3138158,9.36662129 13.3138158,9.91890604 C13.3138158,10.4711908 12.8661006,10.918906 12.3138158,10.918906 L3.3138158,10.918906 C2.76153105,10.918906 2.3138158,10.4711908 2.3138158,9.91890604 C2.3138158,9.36662129 2.76153105,8.91890604 3.3138158,8.91890604 Z" id="Rectangle-Copy" stroke="#DF8E1D" transform="translate(7.8138, 9.9189) rotate(35) translate(-7.8138, -9.9189)"></path>
        <path d="M5.46090936,7.27138321 L14.4609094,7.27138321 C15.0131941,7.27138321 15.4609094,7.71909846 15.4609094,8.27138321 C15.4609094,8.82366796 15.0131941,9.27138321 14.4609094,9.27138321 L5.46090936,9.27138321 C4.90862461,9.27138321 4.46090936,8.82366796 4.46090936,8.27138321 C4.46090936,7.71909846 4.90862461,7.27138321 5.46090936,7.27138321 Z" id="Rectangle-Copy-2" stroke="#40A02B" transform="translate(9.9609, 8.2714) rotate(70) translate(-9.9609, -8.2714)"></path>
        <path d="M8.1646857,7.15333378 L17.1646857,7.15333378 C17.7169705,7.15333378 18.1646857,7.60104903 18.1646857,8.15333378 C18.1646857,8.70561853 17.7169705,9.15333378 17.1646857,9.15333378 L8.1646857,9.15333378 C7.61240095,9.15333378 7.1646857,8.70561853 7.1646857,8.15333378 C7.1646857,7.60104903 7.61240095,7.15333378 8.1646857,7.15333378 Z" id="Rectangle-Copy-3" stroke="#1E66F5" transform="translate(12.6647, 8.1533) rotate(105) translate(-12.6647, -8.1533)"></path>
    </g>
</svg>