<?xml version="1.0" encoding="UTF-8"?>
<svg width="16px" height="16px" viewBox="0 0 16 16" version="1.1" xmlns="http://www.w3.org/2000/svg" xmlns:xlink="http://www.w3.org/1999/xlink">
    <title>arduino</title>
    <g id="arduino" stroke="none" stroke-width="1" fill="none" fill-rule="evenodd" stroke-linecap="round" stroke-linejoin="round">
        <path d="M8.71789579,6.65496483 C9.31317949,5.23408607 10.7753206,4.36612316 12.3195432,4.51693837 C13.8637658,4.66775358 15.1270322,5.80189116 15.4313087,7.31062471 C15.7355851,8.81935826 15.009338,10.3479934 13.6423664,11.0760648 C12.2753948,11.8041362 10.5890657,11.5604786 9.48848357,10.4758704 C8.03966488,8.9475395 7.85084641,6.88038699 6.51364534,5.53928168 C5.5066091,4.53981055 3.99146275,4.2404263 2.67496668,4.78078072 C1.35847061,5.32113514 0.5,6.59476797 0.5,8.00757606 C0.5,9.42038415 1.35847061,10.694017 2.67496668,11.2343714 C3.99146275,11.7747258 5.5066091,11.4753416 6.51364534,10.4758704 C6.83992015,10.1590246 7.10160083,9.78283635 7.28439098,9.3678579 M5,8 L3,8 M12.8985831,8.00749779 L11.0182921,8.00749779 M12,9 L12,7" id="Path" stroke="#209FB5"></path>
    </g>
</svg>