<?xml version="1.0" encoding="UTF-8"?>
<svg width="16px" height="16px" viewBox="0 0 16 16" version="1.1" xmlns="http://www.w3.org/2000/svg" xmlns:xlink="http://www.w3.org/1999/xlink">
    <title>artistic_style</title>
    <g id="artistic_style" stroke="none" stroke-width="1" fill="none" fill-rule="evenodd">
        <ellipse id="Oval" stroke="#1E66F5" transform="translate(11.5, 6.5) rotate(-45) translate(-11.5, -6.5)" cx="11.5" cy="6.5" rx="4.5" ry="1"></ellipse>
        <path d="M3.5,4.5 L2,4.5 C1.17157288,4.5 0.5,3.82842712 0.5,3 C0.5,2.17157288 1.17157288,1.5 2,1.5 C2.82842712,1.5 3.5,2.17157288 3.5,3 L3.5,13 C3.5,13.8284271 4.17157288,14.5 5,14.5 C8.33333333,14.5 12.3333333,14.5 14,14.5 M12.5,11.5 L14,11.5 C14.8284271,11.5 15.5,12.1715729 15.5,13 C15.5,13.8284271 14.8284271,14.5 14,14.5 C13.1715729,14.5 12.5,13.83 12.5,13 C12.5,11.2222222 12.5,9.88888889 12.5,9 M12.5,3 C12.5,2.17157288 11.8284271,1.5 11,1.5 L2,1.5" id="Combined-Shape" stroke="#4C4F69"></path>
        <path d="M8.13674698,9.87034055 C7.38541571,9.11900928 6.07058599,9.68250773 5.69492035,10.0581734 C5.56969847,10.433839 5.50708753,11.2477812 5.50708753,12.5 L6.01691947,12.4961667 C6.98291682,12.4808334 7.62691505,12.4195002 7.94891417,12.3121672 C8.3245798,11.9365015 8.88807826,10.6216718 8.13674698,9.87034055 Z" id="Line-83" stroke="#DF8E1D" stroke-linejoin="round"></path>
        <path d="M5,3.5 L10,3.5 M5,6.5 L7.5,6.5" id="Combined-Shape" stroke="#8C8FA1"></path>
    </g>
</svg>