<?xml version="1.0" encoding="UTF-8"?>
<svg width="16px" height="16px" viewBox="0 0 16 16" version="1.1" xmlns="http://www.w3.org/2000/svg" xmlns:xlink="http://www.w3.org/1999/xlink">
    <title>astro</title>
    <g id="astro" stroke="none" stroke-width="1" fill="none" fill-rule="evenodd" stroke-linecap="round" stroke-linejoin="round">
        <g transform="translate(2.5, 0.5)" id="Path">
            <path d="M8.06110655,1.10970757 L11,10 C10.0045494,9.48342233 8.60452195,8.70188294 7.5,8.50744629 L5.5,3 L3.5,8.50744629 C2.39058926,8.70106743 0.999661448,9.48138807 0,10 L3.1629508,1.10860229 C3.28421651,0.710541275 3.34500726,0.511589718 3.4645361,0.364112929 C3.56953214,0.233916966 3.70614435,0.132803274 3.86133392,0.0704225352 C4.03723236,0 4.24471041,0 4.6609297,0 L6.56312764,0 C6.97934693,0 7.18793027,0 7.36398661,0.0710541275 C7.51863398,0.133468059 7.65478036,0.234341387 7.75952125,0.364112929 C7.87905009,0.512063412 7.93968294,0.711172867 8.06110655,1.10970757 Z" stroke="#4C4F69"></path>
            <path d="M7.91130349,10.7656046 C7.48014013,11.1309075 6.61937222,11.3793813 5.62797708,11.3793813 C4.41071221,11.3793813 3.3906352,11.0046642 3.1198721,10.5 C3.02353842,10.7893717 3.0014035,11.1202586 3.0014035,11.3313842 C3.0014035,11.3313842 2.93780456,12.369264 3.6668541,13.0915358 C3.6668541,12.7168187 3.97409306,12.4124769 4.35272495,12.4124769 C5.00134054,12.4124769 5.00071702,12.9730091 5.00024938,13.4279786 L5.00024938,13.4687221 C5.00024938,14.1590473 5.42611282,14.7502915 6.03217325,15 C5.93890644,14.8098473 5.89060929,14.6011605 5.8909462,14.389773 C5.8909462,13.7315488 6.28142495,13.4866246 6.73550262,13.2018828 C7.09605246,12.9747068 7.49744278,12.7233006 7.77366168,12.2174017 C7.9225074,11.9454083 8.00031194,11.6408886 8,11.3315385 C8,11.1393957 7.97022603,10.9484876 7.91130349,10.7656046 L7.91130349,10.7656046 Z" stroke="#8839EF"></path>
        </g>
    </g>
</svg>