<?xml version="1.0" encoding="UTF-8"?>
<svg width="16px" height="16px" viewBox="0 0 16 16" version="1.1" xmlns="http://www.w3.org/2000/svg" xmlns:xlink="http://www.w3.org/1999/xlink">
    <title>astro_config</title>
    <g id="astro_config" stroke="none" stroke-width="1" fill="none" fill-rule="evenodd" stroke-linecap="round" stroke-linejoin="round">
        <g id="astro" transform="translate(0.5, 0.5)">
            <path d="M8.09110673,8.09135151 C7.62521144,7.88741807 7.15936142,7.71989134 6.74074074,7.64619864 L4.94320988,2.6962963 L3.14567901,7.64619864 C2.14857899,7.82021863 0.898461153,8.52154385 0,8.98765432 L2.84275084,0.996373413 C2.95174027,0.638609936 3.0063769,0.459799154 3.11380528,0.327252114 C3.2081721,0.210236483 3.33095443,0.119358992 3.47043345,0.0632933403 C3.62852489,0 3.81499899,0 4.1890825,0 L5.89871225,0 C6.27279576,0 6.46026326,0 6.61849661,0.0638609936 C6.75748832,0.119956478 6.87985198,0.210617938 6.97398947,0.327252114 C7.08141785,0.460224894 7.13591257,0.639177589 7.24504391,0.997366806 C8.12676938,3.66462829 8.78806349,5.6650744 9.22892623,6.99870514" id="Path" stroke="#4C4F69"></path>
            <path d="M6.06118304,10.6447463 C5.757697,10.7096054 5.41750794,10.7459131 5.05823126,10.7459131 C3.96419566,10.7459131 3.04738571,10.4091303 2.80403319,9.95555556 C2.71745181,10.2156328 2.69755771,10.5130225 2.69755771,10.7027749 C2.69755771,10.7027749 2.64039719,11.6355854 3.29564171,12.2847383 C3.29564171,11.9479556 3.57177747,11.6744236 3.91207872,11.6744236 C4.49503199,11.6744236 4.49447159,12.1782107 4.49405129,12.5871215 L4.49405129,12.6237404 C4.49405129,13.2441807 4.87680264,13.7755706 5.42150879,14 C5.33768382,13.8290974 5.29427601,13.6415368 5.29457881,13.451549 C5.29457881,12.8599599 5.64552761,12.6398305 6.05363693,12.3839145" id="Path" stroke="#8839EF"></path>
        </g>
        <g id="config" transform="translate(7.64, 7.9767)" stroke="#8C8FA1">
            <circle id="Path" cx="4.36" cy="4.52331668" r="1.5"></circle>
            <polygon id="Path" transform="translate(4.3615, 4.5233) rotate(-330) translate(-4.3615, -4.5233)" points="4.37708256 1.05024047 7.39262702 2.77331668 7.37708256 6.2463929 4.34599365 7.9963929 1.33044919 6.27331668 1.34599365 2.80024047"></polygon>
        </g>
    </g>
</svg>