<?xml version="1.0" encoding="UTF-8" standalone="no"?>
<!-- Created with Inkscape (http://www.inkscape.org/) -->

<svg
   width="100.0px"
   height="100.0px"
   viewBox="0 0 100.0 100.0"
   version="1.1"
   id="SVGRoot"
   sodipodi:docname="astro.svg"
   inkscape:version="1.2.1 (9c6d41e, 2022-07-14)"
   xmlns:inkscape="http://www.inkscape.org/namespaces/inkscape"
   xmlns:sodipodi="http://sodipodi.sourceforge.net/DTD/sodipodi-0.dtd"
   xmlns="http://www.w3.org/2000/svg"
   xmlns:svg="http://www.w3.org/2000/svg">
  <defs
     id="defs8354" />
  <sodipodi:namedview
     id="namedview32486"
     pagecolor="#181825"
     bordercolor="#000000"
     borderopacity="0.24705882"
     inkscape:showpageshadow="2"
     inkscape:pageopacity="0"
     inkscape:pagecheckerboard="0"
     inkscape:deskcolor="#313244"
     inkscape:document-units="px"
     showgrid="true"
     inkscape:zoom="3.6081504"
     inkscape:cx="57.092964"
     inkscape:cy="72.05908"
     inkscape:window-width="1309"
     inkscape:window-height="430"
     inkscape:window-x="0"
     inkscape:window-y="38"
     inkscape:window-maximized="0"
     inkscape:current-layer="SVGRoot"
     showborder="false"
     showguides="false">
    <inkscape:grid
       type="xygrid"
       id="grid32609" />
  </sodipodi:namedview>
  <path
     fill="currentColor"
     d="m 63.644934,4.8078445 c 0.753141,0.9375845 1.137399,2.1979449 1.905909,4.7225075 L 82.335151,64.659577 C 76.030791,61.388119 69.264388,59.097235 62.269298,57.865928 L 51.344895,20.946601 c -0.403784,-1.36025 -2.332198,-1.35475 -2.728216,0.0078 L 37.81908,57.8544 c -7.026156,1.225952 -13.823059,3.520961 -20.154232,6.805177 L 34.52985,9.5226669 c 0.768509,-2.52072 1.152767,-3.7810795 1.90975,-4.7148224 0.664997,-0.8244868 1.530199,-1.4647894 2.513035,-1.8597995 1.114344,-0.4457371 2.428499,-0.4457371 5.064497,-0.4457371 h 12.046431 c 2.635995,0 3.957837,0 5.07218,0.4495796 0.979537,0.3952123 1.841905,1.0340526 2.505349,1.855957 z"
     id="path2"
     style="fill:none;fill-opacity:1;stroke:#ffffff;stroke-width:5;stroke-linecap:round;stroke-linejoin:round;stroke-dasharray:none;stroke-opacity:1"
     sodipodi:nodetypes="cccccccccccssccc" />
  <path
     d="m 65.471336,70.063082 c -2.766777,2.367126 -8.288792,3.977234 -14.648517,3.977234 -7.808449,0 -14.352634,-2.428612 -16.089546,-5.698782 -0.618682,1.875256 -0.760863,4.019505 -0.760863,5.38752 0,0 -0.407331,6.724791 4.26928,11.405246 0,-2.428611 1.971329,-4.399936 4.399934,-4.399936 4.161684,0 4.157841,3.631388 4.153998,6.578769 v 0.265149 c 0,4.472947 2.732192,8.304156 6.621041,9.921952 -0.598661,-1.232085 -0.9088,-2.584351 -0.906888,-3.954179 0,-4.265438 2.50547,-5.85249 5.418261,-7.697005 2.313333,-1.47177 4.887963,-3.10109 6.659469,-6.378945 0.955239,-1.762658 1.454565,-3.736196 1.452557,-5.741051 5.29e-4,-1.244002 -0.191311,-2.480606 -0.568726,-3.665972 z"
     style="display:inline;fill:none;fill-opacity:1;stroke:#cc75f4;stroke-width:5;stroke-linecap:round;stroke-linejoin:round;stroke-dasharray:none;stroke-opacity:1"
     id="path4037" />
</svg>
