<?xml version="1.0" encoding="UTF-8"?>
<svg width="16px" height="16px" viewBox="0 0 16 16" version="1.1" xmlns="http://www.w3.org/2000/svg" xmlns:xlink="http://www.w3.org/1999/xlink">
    <title>azure_pipelines</title>
    <g id="azure_pipelines" stroke="none" stroke-width="1" fill="none" fill-rule="evenodd" stroke-linecap="round" stroke-linejoin="round">
        <path d="M1.5,12 L1.5,14.5 L4,14.5 M6.5,5.5 L8.5,1.5 L14.5,1.5 L14.5,7.5 L10.5,10.5 L10.5,14.5 L6.5,14.5 L6,14 L7.5,12.5 L6,11 L4.5,12.5 L3.5,11.5 L5,10 L3.5,8.5 L2,10 L1.5,9.5 L1.5,5.5 L6.5,5.5 Z M10.5,6.5 C11.0522847,6.5 11.5,6.05228475 11.5,5.5 C11.5,4.94771525 11.0522847,4.5 10.5,4.5 C9.94771525,4.5 9.5,4.94771525 9.5,5.5 C9.5,6.05228475 9.94771525,6.5 10.5,6.5 Z" id="Combined-Shape" stroke="#04A5E5"></path>
    </g>
</svg>