<?xml version="1.0" encoding="UTF-8"?>
<svg width="16px" height="16px" viewBox="0 0 16 16" version="1.1" xmlns="http://www.w3.org/2000/svg" xmlns:xlink="http://www.w3.org/1999/xlink">
    <title>babel</title>
    <g id="babel" stroke="none" stroke-width="1" fill="none" fill-rule="evenodd" stroke-linecap="round" stroke-linejoin="round">
        <path d="M4.44641454,4.0153366 C5.54994247,3.34313748 6.7732417,2.49008805 8.08381077,2.06636986 C9.24169219,1.69193716 10.5107701,1.33831387 11.7043339,1.57844366 C12.3011158,1.69850855 12.9670498,1.98258456 13.2747763,2.50282013 C13.560789,2.9863654 13.5737896,3.68389178 13.3172356,4.18331792 C12.3506287,6.06492784 8.05545844,7.78485402 8.05545844,7.78485402 M9.25649072,1.8637518 L3.5,14.5 C3.5,14.5 9.64318881,12.3684032 11.733931,10.0711524 C12.1686206,9.59335715 12.6868458,8.89952718 12.4811877,8.28961942 C12.3033287,7.76253865 11.5835945,7.53609927 11.03024,7.44273068 C9.46532982,7.17891648 6.35846788,8.35820838 6.35846788,8.35820838" id="Shape" stroke="#DF8E1D"></path>
    </g>
</svg>