<?xml version="1.0" encoding="UTF-8" standalone="no"?>
<!-- Created with Inkscape (http://www.inkscape.org/) -->

<svg
   width="100.0px"
   height="100.0px"
   viewBox="0 0 100.0 100.0"
   version="1.1"
   id="SVGRoot"
   sodipodi:docname="babel.svg"
   inkscape:version="1.2.1 (9c6d41e410, 2022-07-14)"
   xmlns:inkscape="http://www.inkscape.org/namespaces/inkscape"
   xmlns:sodipodi="http://sodipodi.sourceforge.net/DTD/sodipodi-0.dtd"
   xmlns="http://www.w3.org/2000/svg"
   xmlns:svg="http://www.w3.org/2000/svg">
  <defs
     id="defs8354" />
  <sodipodi:namedview
     id="namedview32486"
     pagecolor="#181825"
     bordercolor="#000000"
     borderopacity="0.24705882"
     inkscape:showpageshadow="2"
     inkscape:pageopacity="0"
     inkscape:pagecheckerboard="0"
     inkscape:deskcolor="#313244"
     inkscape:document-units="px"
     showgrid="true"
     inkscape:zoom="2.9825758"
     inkscape:cx="-15.08763"
     inkscape:cy="22.128524"
     inkscape:window-width="1920"
     inkscape:window-height="1017"
     inkscape:window-x="1912"
     inkscape:window-y="-8"
     inkscape:window-maximized="1"
     inkscape:current-layer="SVGRoot"
     showborder="false"
     showguides="false">
    <inkscape:grid
       type="xygrid"
       id="grid32609" />
  </sodipodi:namedview>
  <path
     id="path504"
     style="fill:none;stroke:#f5da55;stroke-width:5;stroke-linecap:round;stroke-linejoin:round;stroke-dasharray:none;stroke-opacity:1;paint-order:fill markers stroke"
     d="M 20.664742,20.898714 C 28.64385,15.988492 37.489463,9.7577585 46.965643,6.6625154 c 8.370933,-2.734233 17.547452,-5.317793 26.177081,-3.5633507 4.31522,0.8773036 9.130002,2.9514678 11.354893,6.7515528 2.068076,3.5322455 2.162092,8.6269985 0.306889,12.2755515 C 77.816417,35.869453 46.760717,48.43305 46.760717,48.43305 M 55.444999,5.1820582 13.82232,97.484179 c 0,0 44.417454,-15.57033 59.534325,-32.350692 3.143487,-3.489402 6.890273,-8.557705 5.40293,-13.012505 C 77.473977,48.270433 72.270889,46.616719 68.269004,45.935248 56.953813,44.008409 34.49027,52.622069 34.49027,52.622069" />
</svg>
