<?xml version="1.0" encoding="UTF-8"?>
<svg width="16px" height="16px" viewBox="0 0 16 16" version="1.1" xmlns="http://www.w3.org/2000/svg" xmlns:xlink="http://www.w3.org/1999/xlink">
    <title>ballerina</title>
    <g id="ballerina" stroke="none" stroke-width="1" fill="none" fill-rule="evenodd" stroke-linecap="square" stroke-linejoin="round">
        <path d="M12.5,14.5 L12.5,10.5 L9.5,9.5 L9.5,11 L10.5,14.5 L12.5,14.5 Z M9.5,1.5 L9.5,5.5 L12.5,4.5 L12.5,1.5 L9.5,1.5 Z M9.5,7.5 L12.5,6.75 L12.5,8.25 L9.5,7.5 Z M3.5,14.5 L3.5,10.5 L6.5,9.5 L6.5,11 L5.5,14.5 L3.5,14.5 Z M6.5,1.5 L6.5,5.5 L3.5,4.5 L3.5,1.5 L6.5,1.5 Z M6.5,7.5 L3.5,6.75 L3.5,8.25 L6.5,7.5 Z" id="Combined-Shape" stroke="#209FB5"></path>
    </g>
</svg>