<?xml version="1.0" encoding="UTF-8"?>
<svg width="16px" height="16px" viewBox="0 0 16 16" version="1.1" xmlns="http://www.w3.org/2000/svg" xmlns:xlink="http://www.w3.org/1999/xlink">
    <title>bash</title>
    <g id="bash" stroke="none" stroke-width="1" fill="none" fill-rule="evenodd">
        <path d="M2.87803991,14.5 C2.2290897,14.5 1.5,13.7738482 1.5,13.1250612 L1.5,4.87510201 C1.5,4.22680466 2.22680466,3.5 2.87493879,3.5 L11.1250612,3.5 C11.7730321,3.5 12.5,4.22680466 12.5,4.87510201 L12.5,13.1250612 C12.5,13.7731953 11.7731953,14.5 11.1250612,14.5 L2.87803991,14.5 Z M2,3.9 C3.5,1.65 4,1.5 4.87493879,1.5 L13.1250612,1.5 C13.7730321,1.5 14.5,2.22680466 14.5,2.87510201 L14.5,11.1250612 C14.5,12 14.25,12.6 12,14.1 M5.5,5 L5.5,6 M5.5,12 L5.5,13 M7,7.75 C7,7.05964406 6.4627417,6.5 5.8,6.5 L5.2,6.5 C4.5372583,6.5 4,7.05964406 4,7.75 C4,8.44035594 4.5372583,9 5.2,9 L5.8,9 C6.4627417,9 7,9.55964406 7,10.25 C7,10.9403559 6.4627417,11.5 5.8,11.5 L5.2,11.5 C4.5372583,11.5 4,10.9403559 4,10.25" id="Combined-Shape" stroke="#40A02B"></path>
    </g>
</svg>