<?xml version="1.0" encoding="UTF-8" standalone="no"?>
<!-- Created with Inkscape (http://www.inkscape.org/) -->

<svg
   width="100.0px"
   height="100.0px"
   viewBox="0 0 100.0 100.0"
   version="1.1"
   id="SVGRoot"
   sodipodi:docname="bash.svg"
   inkscape:version="1.2.1 (9c6d41e410, 2022-07-14)"
   xmlns:inkscape="http://www.inkscape.org/namespaces/inkscape"
   xmlns:sodipodi="http://sodipodi.sourceforge.net/DTD/sodipodi-0.dtd"
   xmlns="http://www.w3.org/2000/svg"
   xmlns:svg="http://www.w3.org/2000/svg">
  <sodipodi:namedview
     id="namedview32486"
     pagecolor="#181825"
     bordercolor="#000000"
     borderopacity="0.24705882"
     inkscape:showpageshadow="2"
     inkscape:pageopacity="0"
     inkscape:pagecheckerboard="0"
     inkscape:deskcolor="#313244"
     inkscape:document-units="px"
     showgrid="true"
     inkscape:zoom="4.2179991"
     inkscape:cx="73.731641"
     inkscape:cy="37.458519"
     inkscape:window-width="1920"
     inkscape:window-height="1017"
     inkscape:window-x="1912"
     inkscape:window-y="-8"
     inkscape:window-maximized="1"
     inkscape:current-layer="SVGRoot"
     showborder="false">
    <inkscape:grid
       type="xygrid"
       id="grid32609" />
  </sodipodi:namedview>
  <path
     id="path3129"
     style="fill:none;fill-opacity:1;stroke:#00d200;stroke-width:5;stroke-linecap:round;stroke-linejoin:round;stroke-dasharray:none;stroke-opacity:1;paint-order:fill markers stroke"
     d="m 24.475489,79.796799 v 3.352806 M 25.31369,47.358394 25.22987,50.45974 m 6.621793,2.011684 c 0,0 -4.442529,-1.001119 -6.957073,-1.005842 -2.041916,-0.0038 -4.350193,0.393666 -5.867412,1.760224 -1.50753,1.357831 -2.776128,3.632981 -2.346965,5.615951 0.524088,2.421575 1.599809,3.442525 3.017526,4.610109 1.584655,1.305069 3.703481,1.861626 5.703983,2.322415 2.190621,0.50458 4.562627,1.087578 6.19848,2.622975 1.00218,0.940638 1.820357,2.313822 1.844044,3.688087 0.03124,1.812608 -0.92598,3.721252 -2.263144,4.94539 -1.355774,1.241175 -3.388198,1.516305 -5.196851,1.844043 -1.567304,0.284004 -3.191061,0.223546 -4.777749,0.08382 -1.304563,-0.114882 -3.855728,-0.754382 -3.855728,-0.754382"
     sodipodi:nodetypes="cccccsasasaaaaac" />
  <path
     fill="none"
     stroke="#00d200"
     stroke-width="5"
     d="m 16.602,91.486 c -3.976,0 -8.443,-4.449 -8.443,-8.424 V 32.516 c 0,-3.972 4.453,-8.425 8.424,-8.425 H 67.13 c 3.97,0 8.424,4.453 8.424,8.425 v 50.546 c 0,3.971 -4.453,8.424 -8.424,8.424 z"
     id="path2"
     style="stroke-width:4.43410018;stroke-dasharray:none"
     transform="matrix(1.1276245,0,0,1.1276245,-6.381225,-6.381225)" />
  <path
     fill="none"
     stroke="#00d200"
     stroke-width="5"
     d="M 10.976,26.903 24.565,13.181 c 2.18,-2.2 5.54,-4.667 8.638,-4.667 h 50.214 c 3.936,0 8.424,4.34 8.424,8.276 v 45.833 c 0,3.724 -1.71,7.64 -4.258,10.356 l -14.71,15.683"
     id="path4"
     style="stroke-width:4.43410018;stroke-dasharray:none"
     transform="matrix(1.1276245,0,0,1.1276245,-6.381225,-6.381225)" />
</svg>
