<?xml version="1.0" encoding="UTF-8"?>
<svg width="16px" height="16px" viewBox="0 0 16 16" version="1.1" xmlns="http://www.w3.org/2000/svg" xmlns:xlink="http://www.w3.org/1999/xlink">
    <title>bicep</title>
    <g id="bicep" stroke="none" stroke-width="1" fill="none" fill-rule="evenodd">
        <path d="M12,9.5 C7.75,9.5 7.75,9.5 3.5,9.5 M3.5,13.5 L12,14.5 M12,14.5 C13.3807119,14.5 14.5,13.3807119 14.5,12 C14.5,10.6192881 13.3807119,9.5 12,9.5 C10.6192881,9.5 9.5,10.6192881 9.5,12 C9.5,13.3807119 10.6192881,14.5 12,14.5 Z M3.5,13.5 C4.6045695,13.5 5.5,12.6045695 5.5,11.5 C5.5,10.3954305 4.6045695,9.5 3.5,9.5 C2.3954305,9.5 1.5,10.3954305 1.5,11.5 C1.5,12.6045695 2.3954305,13.5 3.5,13.5 Z M3,11.5 L4,11.5 M12,12.5 C12.2761424,12.5 12.5,12.2761424 12.5,12 C12.5,11.7238576 12.2761424,11.5 12,11.5 C11.7238576,11.5 11.5,11.7238576 11.5,12 C11.5,12.2761424 11.7238576,12.5 12,12.5 Z M5.5,9.5 L8.5,4.5 M7.5,3.5 L2.25,10 M8.5,0.75 L7.5,2 L7.5,3.5 L8.5,4.5 L10,4.5 L11.25,2.75" id="Combined-Shape" stroke="#04A5E5"></path>
    </g>
</svg>