<?xml version="1.0" encoding="UTF-8"?>
<svg width="16px" height="16px" viewBox="0 0 16 16" version="1.1" xmlns="http://www.w3.org/2000/svg" xmlns:xlink="http://www.w3.org/1999/xlink">
    <title>binary</title>
    <g id="binary" stroke="none" stroke-width="1" fill="none" fill-rule="evenodd" stroke-linejoin="round">
        <rect id="Path" stroke="#4C4F69" stroke-linecap="round" x="1.5" y="1.5" width="13" height="13" rx="2"></rect>
        <polyline id="Path" stroke="#4C4F69" stroke-linecap="round" points="10.5 9.5 11.5 9.5 11.5 12.5503579"></polyline>
        <path d="M6,9.5 L7,9.5 C7.27614237,9.5 7.5,9.72385763 7.5,10 L7.5,12 C7.5,12.2761424 7.27614237,12.5 7,12.5 L6,12.5 C5.72385763,12.5 5.5,12.2761424 5.5,12 L5.5,10 C5.5,9.72385763 5.72385763,9.5 6,9.5 Z" id="Path" stroke="#4C4F69"></path>
        <path d="M10,3.5 L11,3.5 C11.2761424,3.5 11.5,3.72385763 11.5,4 L11.5,6 C11.5,6.27614237 11.2761424,6.5 11,6.5 L10,6.5 C9.72385763,6.5 9.5,6.27614237 9.5,6 L9.5,4 C9.5,3.72385763 9.72385763,3.5 10,3.5 Z" id="Path" stroke="#4C4F69"></path>
        <polyline id="Path" stroke="#4C4F69" stroke-linecap="round" points="5.5 3.5 6.5 3.5 6.5 6.55035788"></polyline>
    </g>
</svg>