<?xml version="1.0" encoding="UTF-8"?>
<svg width="16px" height="16px" viewBox="0 0 16 16" version="1.1" xmlns="http://www.w3.org/2000/svg" xmlns:xlink="http://www.w3.org/1999/xlink">
    <title>bower</title>
    <g id="bower" stroke="none" stroke-width="1" fill="none" fill-rule="evenodd">
        <path d="M10.807557,3.50081152 C10.9257406,3.22124356 11.0732216,2.97097305 11.25,2.75 C11.9166667,1.91666667 13,1.5 14.5,1.5 C14,3.66666667 13.5,5 13,5.5 C12.5,6 11.6666667,6.33333333 10.5,6.5 C10.4655544,6.04500537 10.4489317,5.71297093 10.450132,5.50389668" id="Path" stroke="#04A5E5" stroke-linecap="round"></path>
        <circle id="Oval" stroke="#DF8E1D" cx="5.5" cy="4.5" r="1"></circle>
        <path d="M8.5,10 C9.16666667,10.1666667 9.66666667,10.0833333 10,9.75 C10.6666667,9.91666667 11.1666667,9.66666667 11.5,9 C12.3333333,8.83333333 12.6666667,8.33333333 12.5,7.5" id="Line-71" stroke="#DF8E1D" stroke-linecap="round" stroke-linejoin="round"></path>
        <path d="M14.75,10 C14.75,10.6666667 14.1666667,11 13,11 C12.6666667,11.3333333 12.3333333,11.5 12,11.5 C11.6666667,11.5 11.3333333,11.3333333 11,11 C10.6666667,11.3333333 10.3333333,11.5833333 10,11.75 C9.66666667,11.9166667 9.25,11.8333333 8.75,11.5 L9.5,13.5 C9.66666667,14 9.5,14.3333333 9,14.5 C8.56623332,14.6445889 8.25,14.25 7.75,14.25 C7.25,14.25 7.19374287,14.9031286 7,15 C6.33333333,15.3333333 5.83333333,15.1666667 5.5,14.5 L5,13 C4.66666667,13.3333333 4.25,13.5 3.75,13.5 C3.2025032,13.5 1.72244232,12.300989 0.963110582,10.0002196 C0.682255768,9.1492317 0.5,8.14751816 0.5,7 C0.5,2.75 4,1.5 6,1.5 C7.33333333,1.5 8.5,2.16666667 9.5,3.5 L12,4.5 L8.5,6.5 L15.5,8 C15.6666667,9 15.4166667,9.66666667 14.75,10 Z" id="Line-70" stroke="#FE640B" stroke-linecap="square" stroke-linejoin="round"></path>
        <path d="M8.5,6.5 L15.5,8 C15.6666667,9 15.4166667,9.66666667 14.75,10 C14.75,10.6666667 14.1666667,11 13,11 C12.6666667,11.3333333 12.3333333,11.5 12,11.5 C11.6666667,11.5 11.3333333,11.3333333 11,11 C10.6666667,11.3333333 10.3333333,11.5833333 10,11.75 C9.66666667,11.9166667 9.25,11.8333333 8.75,11.5" id="Path" stroke="#40A02B" stroke-linecap="round" stroke-linejoin="round"></path>
        <path d="M8.75,11.5 L9.5,13.5 C9.66666667,14 9.5,14.3333333 9,14.5 C8.56623332,14.6445889 8.25,14.25 7.75,14.25 C7.25,14.25 7.19374287,14.9031286 7,15 C6.33333333,15.3333333 5.83333333,15.1666667 5.5,14.5 L5,13 C4.66666667,13.3333333 4.25,13.5 3.75,13.5 C3.2025032,13.5 1.72244232,12.300989 0.963110582,10.0002196" id="Path" stroke="#DF8E1D" stroke-linecap="round" stroke-linejoin="round"></path>
        <path d="M0.963110582,10.0002196 C0.682255768,9.1492317 0.5,8.14751816 0.5,7 C0.5,2.75 4,1.5 6,1.5 C7.33333333,1.5 8.5,2.16666667 9.5,3.5 L12,4.5 L8.5,6.5" id="Path" stroke="#FE640B" stroke-linecap="round" stroke-linejoin="round"></path>
        <path d="M1,10 C2.33333333,10.3333333 3.33333333,10.1666667 4,9.5 C6.33333333,9.83333333 7.83333333,8.83333333 8.5,6.5" id="Line-2" stroke="#FE640B" stroke-linecap="round" stroke-linejoin="round"></path>
    </g>
</svg>