<?xml version="1.0" encoding="UTF-8" standalone="no"?>
<!-- Created with Inkscape (http://www.inkscape.org/) -->

<svg
   width="100.0px"
   height="100.0px"
   viewBox="0 0 100.0 100.0"
   version="1.1"
   id="SVGRoot"
   sodipodi:docname="browserslist.svg"
   inkscape:version="1.2.1 (9c6d41e410, 2022-07-14)"
   xmlns:inkscape="http://www.inkscape.org/namespaces/inkscape"
   xmlns:sodipodi="http://sodipodi.sourceforge.net/DTD/sodipodi-0.dtd"
   xmlns="http://www.w3.org/2000/svg"
   xmlns:svg="http://www.w3.org/2000/svg">
  <defs
     id="defs8354" />
  <sodipodi:namedview
     id="namedview32486"
     pagecolor="#181825"
     bordercolor="#000000"
     borderopacity="0.24705882"
     inkscape:showpageshadow="2"
     inkscape:pageopacity="0"
     inkscape:pagecheckerboard="0"
     inkscape:deskcolor="#313244"
     inkscape:document-units="px"
     showgrid="true"
     inkscape:zoom="1.4912879"
     inkscape:cx="145.51181"
     inkscape:cy="59.009398"
     inkscape:window-width="1920"
     inkscape:window-height="1017"
     inkscape:window-x="1912"
     inkscape:window-y="-8"
     inkscape:window-maximized="1"
     inkscape:current-layer="SVGRoot"
     showborder="false"
     showguides="false">
    <inkscape:grid
       type="xygrid"
       id="grid32609" />
  </sodipodi:namedview>
  <path
     fill="currentColor"
     d="M 96.489896,45.741806 C 94.460849,41.717772 89.040568,41.156808 86.173471,44.389593 78.476354,38.49383 70.816089,26.105236 75.28428,11.362795 67.393545,10.431352 58.821175,12.840281 51.358394,17.225948 49.426606,13.198784 48.397896,8.8947272 48.397896,2.9547537 41.343909,6.749058 35.668115,13.784065 32.075178,21.731361 28.066974,19.528946 24.694187,16.571579 21.220801,11.613156 17.65936,18.679485 17.017512,27.57701 18.565385,36.059109 c -4.511681,0.478249 -8.9478287,-0.01886 -14.5983846,-2.0764 1.1578531,7.928317 5.8331199,15.680698 12.0814946,21.784267 -3.429358,3.007844 -7.3623897,5.15978 -13.2078488,6.726615 5.4364891,5.770121 13.5915778,9.419808 22.1051858,10.860633 -1.088589,4.373322 -3.076927,8.350193 -6.92152,12.930953 7.802492,1.610868 16.61196,-0.09433 24.433426,-3.825804 1.623386,4.215993 2.277766,8.620636 1.761933,14.58585 11.095878,-4.779908 21.940307,-18.904828 23.790658,-35.536314 9.223793,-1.540678 14.93979,-4.648921 19.582448,-7.109433 6.489661,3.07947 11.402767,-3.559238 8.897119,-8.65767 z M 68.136343,59.692535 c -0.02265,-4.372402 -2.601606,-9.202683 -3.273471,-13.647302 -0.437125,-2.893805 -1.093211,-5.827904 -0.609049,-11.058512 0.01592,-4.732192 4.430491,-15.118278 8.392071,-21.584952 m 12.831692,31.839786 c -1.746764,4.05911 -0.161212,6.818842 1.377885,8.457424"
     id="path25125"
     style="fill:none;stroke:#ffd539;stroke-width:5;stroke-linecap:round;stroke-linejoin:round;stroke-dasharray:none;stroke-opacity:1"
     sodipodi:nodetypes="cccccccccccccccccccccccc" />
</svg>
