<?xml version="1.0" encoding="UTF-8"?>
<svg width="16px" height="16px" viewBox="0 0 16 16" version="1.1" xmlns="http://www.w3.org/2000/svg" xmlns:xlink="http://www.w3.org/1999/xlink">
    <title>browserslist</title>
    <g id="browserslist" stroke="none" stroke-width="1" fill="none" fill-rule="evenodd" stroke-linecap="round" stroke-linejoin="round">
        <path d="M12.4861165,7.72489106 C11.4251959,6.91026677 10.3693752,5.19853332 10.9852246,3.16169625 C9.89770173,3.03292592 8.7160371,3.36576682 7.68736999,3.97176108 C7.42120944,3.41536826 7.2793766,2.82070358 7.2793766,2 C6.30708425,2.52420023 5.52472936,3.4963333 5.02948604,4.59419705 C4.47704094,4.28995642 4.01225928,3.88126262 3.5334184,3.19623764 C3.04244798,4.17251568 2.95409535,5.40191306 3.16732703,6.57383356 C2.54555063,6.63987671 1.93411189,6.57120842 1.15520289,6.28700181 C1.31481652,7.38224041 1.95919797,8.4534382 2.82039482,9.29680094 C2.34775653,9.71240302 1.8056491,10.0097354 1,10.2262408 C1.74927434,11.0234563 2.87332369,11.5277607 4.04685602,11.7267191 C3.89675305,12.3310554 3.62273587,12.8804017 3.09275797,13.5133383 C4.16828919,13.7359231 5.38248302,13.5003507 6.46063311,12.9847168 C6.6843403,13.5672229 6.77462262,14.1758423 6.70349945,15 C8.23292331,14.3395685 9.7276126,12.3879796 9.98260846,10.0901477 C11.2540041,9.87737273 12.0418724,9.44781592 12.6818431,9.10779041" id="Path" stroke="#DF8E1D"></path>
        <circle id="Path" stroke="#DF8E1D" cx="13.5" cy="8.5" r="1"></circle>
        <path d="M9.99997575,9.83910086 C9.99694336,9.23504092 9.64146534,8.56770114 9.54883982,7.95355511 C9.48860566,7.5537039 9.3981855,7.14832607 9.4647601,6.42572006 C9.4671033,5.7719205 10.0755097,4.33679456 10.6216143,3.44341588" id="Path" stroke="#DF8E1D"></path>
    </g>
</svg>