<?xml version="1.0" encoding="UTF-8"?>
<svg width="16px" height="16px" viewBox="0 0 16 16" version="1.1" xmlns="http://www.w3.org/2000/svg" xmlns:xlink="http://www.w3.org/1999/xlink">
    <title>bun</title>
    <g id="bun" stroke="none" stroke-width="1" fill="none" fill-rule="evenodd">
        <path d="M0.5,8.5 C0.5,13.75 6,14.5 8,14.5 C10,14.5 15.5,13.75 15.5,8.5 C15.5,4.5 11,2.5 8,1.5 C5,2.5 0.5,4.5 0.5,8.5 Z" id="Line" stroke="#DC8A78" stroke-linecap="square"></path>
        <path d="M6.5,10.5 L9.5,10.5 C9.16666667,11.1666667 8.66666667,11.5 8,11.5 C7.33333333,11.5 6.83333333,11.1666667 6.5,10.5 Z" id="Line-2" stroke="#D20F39" stroke-linecap="round" stroke-linejoin="round"></path>
        <path d="M5,8.5 C5.27614237,8.5 5.5,8.27614237 5.5,8 C5.5,7.72385763 5.27614237,7.5 5,7.5 C4.72385763,7.5 4.5,7.72385763 4.5,8 C4.5,8.27614237 4.72385763,8.5 5,8.5 Z M11,8.5 C11.2761424,8.5 11.5,8.27614237 11.5,8 C11.5,7.72385763 11.2761424,7.5 11,7.5 C10.7238576,7.5 10.5,7.72385763 10.5,8 C10.5,8.27614237 10.7238576,8.5 11,8.5 Z" id="Combined-Shape" stroke="#4C4F69"></path>
    </g>
</svg>