<?xml version="1.0" encoding="UTF-8" standalone="no"?>
<!-- Created with Inkscape (http://www.inkscape.org/) -->

<svg width="100.0px"
    height="100.0px"
    viewBox="0 0 100.0 100.0"
    version="1.1"
    id="SVGRoot"
    sodipodi:docname="converted_file.svg"
    inkscape:version="1.2.1 (9c6d41e410, 2022-07-14)"
    xmlns:inkscape="http://www.inkscape.org/namespaces/inkscape"
    xmlns:sodipodi="http://sodipodi.sourceforge.net/DTD/sodipodi-0.dtd"
    xmlns="http://www.w3.org/2000/svg"
    xmlns:svg="http://www.w3.org/2000/svg">
    <defs id="defs44872" />
    <sodipodi:namedview id="namedview32486"
        pagecolor="#181825"
        bordercolor="#000000"
        borderopacity="0.24705882"
        inkscape:showpageshadow="2"
        inkscape:pageopacity="0"
        inkscape:pagecheckerboard="0"
        inkscape:deskcolor="#313244"
        inkscape:document-units="px"
        showgrid="true"
        inkscape:zoom="1.4142136"
        inkscape:cx="140.71424"
        inkscape:cy="48.083259"
        inkscape:window-width="1920"
        inkscape:window-height="1017"
        inkscape:window-x="1912"
        inkscape:window-y="-8"
        inkscape:window-maximized="1"
        inkscape:current-layer="SVGRoot"
        showborder="false">
        <inkscape:grid type="xygrid"
            id="grid32609" />
    </sodipodi:namedview>
    <path fill="none"
        stroke="#fbf0df"
        stroke-width="4.43410018"
        transform="matrix(0.95 0 0 0.95 2.1 2.1)"
        d="M50,93.5c-27.6,0-50-17.9-50-40c0-13.3,8.3-25.7,22-33.2c4-2.1,7.5-4.3,10.5-6.1c1.7-1.1,3.3-2,4.8-2.9 C42,8.4,46,6.5,50,6.5s7.5,1.6,11.9,4.1c1.3,0.8,2.7,1.6,4.1,2.5c3.3,2,7.1,4.4,12,7.1c13.7,7.5,22,19.9,22,33.2 C100,75.6,77.6,93.5,50,93.5z"/>
    <path fill="#fbf0df"
        d="M50.1,72.8c-2.3-0.1-4.3-1.2-6-2.7c-2-1.7-3.5-4.1-4.1-6.7c-0.1-0.5,0-0.9,0.4-1.3c0.4-0.4,0.9-0.7,1.5-0.7h16.4 c0.5,0,1.1,0.3,1.5,0.7c0.3,0.4,0.4,0.8,0.3,1.3l0,0c-0.7,2.7-2.1,4.9-4.1,6.7C54.4,71.6,52.4,72.5,50.1,72.8z"/>
    <path fill="#fbf0df"
        d="M33.6,42.9c-4,0-7.3,3.3-7.3,7.3l0,0c0,4,3.3,7.3,7.3,7.3s7.3-3.3,7.3-7.3S37.7,42.9,33.6,42.9z"/>
    <path fill="#fbf0df"
        d="M66.7,42.9c-4,0-7.3,3.2-7.3,7.3l0,0c0,4,3.2,7.3,7.3,7.3c4,0,7.3-3.2,7.5-7.3C74,46.3,70.8,42.9,66.7,42.9z"/>
</svg>
