<?xml version="1.0" encoding="UTF-8" standalone="no"?>
<!-- Created with Inkscape (http://www.inkscape.org/) -->

<svg
   width="100.0px"
   height="100.0px"
   viewBox="0 0 100.0 100.0"
   version="1.1"
   id="SVGRoot"
   sodipodi:docname="bun_lock.svg"
   inkscape:version="1.3 (0e150ed6c4, 2023-07-21)"
   xmlns:inkscape="http://www.inkscape.org/namespaces/inkscape"
   xmlns:sodipodi="http://sodipodi.sourceforge.net/DTD/sodipodi-0.dtd"
   xmlns="http://www.w3.org/2000/svg"
   xmlns:svg="http://www.w3.org/2000/svg">
  <defs
     id="defs44872" />
  <sodipodi:namedview
     id="namedview32486"
     pagecolor="#181825"
     bordercolor="#000000"
     borderopacity="0.24705882"
     inkscape:showpageshadow="2"
     inkscape:pageopacity="0"
     inkscape:pagecheckerboard="0"
     inkscape:deskcolor="#313244"
     inkscape:document-units="px"
     showgrid="true"
     inkscape:zoom="2.8284273"
     inkscape:cx="-9.0156109"
     inkscape:cy="38.006987"
     inkscape:window-width="1920"
     inkscape:window-height="1017"
     inkscape:window-x="1912"
     inkscape:window-y="-8"
     inkscape:window-maximized="1"
     inkscape:current-layer="SVGRoot"
     showborder="false">
    <inkscape:grid
       type="xygrid"
       id="grid32609"
       originx="0"
       originy="0"
       spacingy="1"
       spacingx="1"
       units="px"
       visible="true" />
  </sodipodi:namedview>
  <path
     fill="none"
     stroke="currentColor"
     d="M 70.328754,73.288611 V 64.40902 a 8.8795921,8.8795921 0 0 1 17.759183,0 v 8.879591 m -23.678915,0 h 29.598647 a 2.9598638,2.9598638 0 0 1 2.959856,2.959866 v 17.75918 a 2.9598638,2.9598638 0 0 1 -2.959856,2.959868 H 64.409022 a 2.9598638,2.9598638 0 0 1 -2.959859,-2.959868 v -17.75918 a 2.9598638,2.9598638 0 0 1 2.959859,-2.959866 z"
     id="path28745"
     style="stroke:#808080;stroke-width:5;stroke-dasharray:none;stroke-opacity:1" />
  <path
     d="m 87.714908,48.318607 c 0.232589,-1.692369 0.35515,-3.48069 0.35515,-5.370238 0,-23.034484 -25.671042,-34.5517265 -42.785075,-40.310348 C 28.170951,8.3966425 2.499904,19.913885 2.499904,42.948369 c 0,30.232761 31.375725,34.551726 42.785079,34.551726 1.426169,0 3.164313,-0.06748 5.114154,-0.244629"
     id="Line"
     stroke="#dc8a78"
     stroke-linecap="square"
     style="fill:none;stroke-width:5;stroke-dasharray:none;stroke-linejoin:round;stroke-linecap:round;stroke:#fbf0e0;stroke-opacity:1"
     sodipodi:nodetypes="cscssc" />
  <path
     d="m 38.230982,54.31895 h 13.868416 c -1.540936,2.960248 -3.852338,4.44037 -6.934208,4.44037 -3.081869,0 -5.393272,-1.480122 -6.934208,-4.44037 z"
     id="Line-2"
     stroke="#d20f39"
     stroke-linecap="round"
     stroke-linejoin="round"
     style="fill:none;stroke-width:5;stroke-dasharray:none;stroke:#ff6164;stroke-opacity:1" />
  <circle
     style="fill:#808080;fill-opacity:1;stroke:none;stroke-width:5;stroke-linecap:round;stroke-linejoin:round;stroke-dasharray:none;stroke-opacity:1;paint-order:fill markers stroke"
     id="path4"
     cx="28.114733"
     cy="39.90205"
     r="4.4898262" />
  <circle
     style="fill:#808080;fill-opacity:1;stroke:none;stroke-width:5;stroke-linecap:round;stroke-linejoin:round;stroke-dasharray:none;stroke-opacity:1;paint-order:fill markers stroke"
     id="path4-4"
     cx="62.226528"
     cy="39.90205"
     r="4.4898262" />
</svg>
