<?xml version="1.0" encoding="UTF-8"?>
<svg width="16px" height="16px" viewBox="0 0 16 16" version="1.1" xmlns="http://www.w3.org/2000/svg" xmlns:xlink="http://www.w3.org/1999/xlink">
    <title>bun_lock</title>
    <g id="bun_lock" stroke="none" stroke-width="1" fill="none" fill-rule="evenodd">
        <path d="M14.5,7 C14.5,3.30769231 10.3,1.42307692 7.5,0.5 C4.7,1.42307692 0.5,3.30769231 0.5,7 C0.5,11.8461538 5.63333333,12.5 7.5,12.5" id="Path" stroke="#DC8A78" stroke-linecap="round"></path>
        <path d="M5.5,8.5 L9.5,8.5 C8.83333333,9.16666667 8.16666667,9.5 7.5,9.5 C6.83333333,9.5 6.16666667,9.16666667 5.5,8.5 Z" id="Line-2" stroke="#D20F39" stroke-linecap="round" stroke-linejoin="round"></path>
        <path d="M5,6.5 C5.27614237,6.5 5.5,6.27614237 5.5,6 C5.5,5.72385763 5.27614237,5.5 5,5.5 C4.72385763,5.5 4.5,5.72385763 4.5,6 C4.5,6.27614237 4.72385763,6.5 5,6.5 Z M10,6.5 C10.2761424,6.5 10.5,6.27614237 10.5,6 C10.5,5.72385763 10.2761424,5.5 10,5.5 C9.72385763,5.5 9.5,5.72385763 9.5,6 C9.5,6.27614237 9.72385763,6.5 10,6.5 Z" id="Combined-Shape" stroke="#4C4F69"></path>
        <g id="lock" transform="translate(9.5, 8.5)" stroke="#8C8FA1">
            <path d="M5.49820472,3 C5.77426543,3 5.99805686,3.22379143 5.99805686,3.49985214 L5.99805686,6.49879614 C5.99805686,6.77485686 5.77426543,6.99864829 5.49820472,6.99864829 L0.499852144,6.99864829 C0.223791428,6.99864829 0,6.77485686 0,6.49879614 L0,3.49968328 C0,3.22362256 0.223791428,2.99983113 0.499852144,2.99983113 L5.49820472,3 Z M1.49955643,3 L1.49955643,1.5 C1.49955643,0.671572875 2.17112931,0 2.99955643,0 C3.82798356,0 4.49955643,0.671572875 4.49955643,1.5 L4.49955643,3"></path>
        </g>
    </g>
</svg>