<?xml version="1.0" encoding="UTF-8" standalone="no"?>
<!-- Created with Inkscape (http://www.inkscape.org/) -->

<svg width="100.0px"
    height="100.0px"
    viewBox="0 0 100.0 100.0"
    version="1.1"
    id="SVGRoot"
    sodipodi:docname="converted_file.svg"
    inkscape:version="1.2.1 (9c6d41e410, 2022-07-14)"
    xmlns:inkscape="http://www.inkscape.org/namespaces/inkscape"
    xmlns:sodipodi="http://sodipodi.sourceforge.net/DTD/sodipodi-0.dtd"
    xmlns="http://www.w3.org/2000/svg"
    xmlns:svg="http://www.w3.org/2000/svg">
    <defs id="defs44872" />
    <sodipodi:namedview id="namedview32486"
        pagecolor="#181825"
        bordercolor="#000000"
        borderopacity="0.24705882"
        inkscape:showpageshadow="2"
        inkscape:pageopacity="0"
        inkscape:pagecheckerboard="0"
        inkscape:deskcolor="#313244"
        inkscape:document-units="px"
        showgrid="true"
        inkscape:zoom="1.4142136"
        inkscape:cx="140.71424"
        inkscape:cy="48.083259"
        inkscape:window-width="1920"
        inkscape:window-height="1017"
        inkscape:window-x="1912"
        inkscape:window-y="-8"
        inkscape:window-maximized="1"
        inkscape:current-layer="SVGRoot"
        showborder="false">
        <inkscape:grid type="xygrid"
            id="grid32609" />
    </sodipodi:namedview>
    <path fill="none"
        stroke="#7f849c"
        stroke-width="5"
        d="M70.735 73.695v-8.88a8.88 8.88 0 0 1 17.76 0v8.88m-23.68 0h29.599a2.96 2.96 0 0 1 2.96 2.96v17.759a2.96 2.96 0 0 1-2.96 2.96H64.815a2.96 2.96 0 0 1-2.96-2.96v-17.76a2.96 2.96 0 0 1 2.96-2.96z"/>
    <path fill="none"
        stroke="#fbf0df"
        stroke-width="4.43410018"
        stroke-linecap="round"
        d="M45.8,84.3C21.6,84.3,2,68.6,2,49.3c0-11.6,7.3-22.5,19.2-29c3.5-1.8,6.6-3.8,9.2-5.3c1.5-1,2.9-1.8,4.2-2.5
	c4.1-2.5,7.6-4.2,11.1-4.2c3.5,0,6.6,1.4,10.4,3.6c1.1,0.7,2.4,1.4,3.6,2.2c2.9,1.8,6.2,3.8,10.5,6.2c12,6.6,19.2,17.4,19.2,29.1"/>
    <path fill="#fbf0df"
        d="M46.3,67.7c-2.1-0.1-4-1.1-5.5-2.5c-1.8-1.6-3.2-3.8-3.8-6.2c-0.1-0.5,0-0.8,0.4-1.2c0.4-0.4,0.8-0.6,1.4-0.6
	h15.1c0.5,0,1,0.3,1.4,0.6c0.3,0.4,0.4,0.7,0.3,1.2l0,0c-0.6,2.5-1.9,4.5-3.8,6.2C50.3,66.6,48.4,67.4,46.3,67.7z"/>
    <path fill="#fbf0df"
        d="M31.1,40.2c-3.7,0-6.7,3-6.7,6.7l0,0c0,3.7,3,6.7,6.7,6.7s6.7-3,6.7-6.7C37.8,43.2,34.9,40.2,31.1,40.2z"/>
    <path fill="#fbf0df"
        d="M61.6,40.2c-3.7,0-6.7,2.9-6.7,6.7l0,0c0,3.7,2.9,6.7,6.7,6.7c3.7,0,6.7-2.9,6.9-6.7
	C68.3,43.3,65.4,40.2,61.6,40.2z"/>
</svg>
