<?xml version="1.0" encoding="UTF-8" standalone="no"?>
<!-- Created with Inkscape (http://www.inkscape.org/) -->

<svg
   width="100.0px"
   height="100.0px"
   viewBox="0 0 100.0 100.0"
   version="1.1"
   id="SVGRoot"
   sodipodi:docname="c.svg"
   inkscape:version="1.2.1 (9c6d41e, 2022-07-14)"
   xmlns:inkscape="http://www.inkscape.org/namespaces/inkscape"
   xmlns:sodipodi="http://sodipodi.sourceforge.net/DTD/sodipodi-0.dtd"
   xmlns="http://www.w3.org/2000/svg"
   xmlns:svg="http://www.w3.org/2000/svg">
  <sodipodi:namedview
     id="namedview32486"
     pagecolor="#181825"
     bordercolor="#000000"
     borderopacity="0.24705882"
     inkscape:showpageshadow="2"
     inkscape:pageopacity="0"
     inkscape:pagecheckerboard="0"
     inkscape:deskcolor="#313244"
     inkscape:document-units="px"
     showgrid="true"
     inkscape:zoom="4.5054921"
     inkscape:cx="54.267102"
     inkscape:cy="42.836608"
     inkscape:window-width="1432"
     inkscape:window-height="760"
     inkscape:window-x="0"
     inkscape:window-y="38"
     inkscape:window-maximized="0"
     inkscape:current-layer="SVGRoot"
     showborder="false">
    <inkscape:grid
       type="xygrid"
       id="grid32609" />
  </sodipodi:namedview>
  <path
     d="m 53.846159,4.142567 33.94442,19.597787 c 0.79822,0.460882 1.493746,1.052934 2.06557,1.739901 1.132757,1.361253 1.780824,3.095553 1.780824,4.922046 v 19.597778 19.597854 c 0,1.419836 -0.39133,2.783967 -1.097746,3.960447 -0.661294,1.100781 -1.597996,2.03725 -2.748648,2.701422 L 53.846159,95.85797 c -1.190017,0.686967 -2.518127,1.030061 -3.846237,1.030061 -1.328111,0 -2.656221,-0.343094 -3.846238,-1.030061 L 12.209281,76.259802 C 11.05884,75.59563 10.121928,74.659161 9.4608987,73.55838 8.7543729,72.3819 8.3630273,71.017769 8.3630273,69.597933 V 50.000079 30.4023 c 0,-2.748258 1.4661807,-5.28778 3.8462537,-6.661947 L 46.153684,4.142567 c 1.190017,-0.687068 2.518127,-1.030598 3.846238,-1.030598 1.32811,0 2.65622,0.34353 3.846237,1.030598 z"
     stroke="#2b66ff"
     stroke-width="6.22394"
     id="path25735"
     style="stroke-width:5;stroke-dasharray:none;fill:none;stroke-linecap:round;stroke-linejoin:round;stroke:#808080;stroke-opacity:1" />
  <path
     style="fill:none;stroke:#ffffff;stroke-width:5;stroke-linecap:round;stroke-linejoin:round;stroke-opacity:1"
     id="path45427"
     sodipodi:type="arc"
     sodipodi:cx="50"
     sodipodi:cy="50"
     sodipodi:rx="25"
     sodipodi:ry="25"
     sodipodi:start="0.75943707"
     sodipodi:end="5.5076988"
     sodipodi:arc-type="arc"
     d="M 68.130593,67.212833 A 25,25 0 0 1 40.826762,73.256218 25,25 0 0 1 25.000805,50.200616 25,25 0 0 1 40.45471,26.893996 25,25 0 0 1 67.852013,32.498411"
     sodipodi:open="true" />
</svg>
