<?xml version="1.0" encoding="UTF-8"?>
<svg width="16px" height="16px" viewBox="0 0 16 16" version="1.1" xmlns="http://www.w3.org/2000/svg" xmlns:xlink="http://www.w3.org/1999/xlink">
    <title>caddy</title>
    <g id="caddy" stroke="none" stroke-width="1" fill="none" fill-rule="evenodd" stroke-linecap="round" stroke-linejoin="round">
        <polyline id="Path" stroke="#40A02B" points="7.5 11.5 10.5 11.5 10.5 7.5 5.5 7.5 5.5 9.5"></polyline>
        <path d="M9.5,7.5 L9.5,6 C9.5,5.17157288 8.82842712,4.5 8,4.5 C7.17157288,4.5 6.5,5.17157288 6.5,6 L6.5,7.5" id="Path" stroke="#40A02B"></path>
        <path d="M14.0473153,5.75853103 C14.9594938,8.251954 14.2690914,11.0519036 12.3037323,12.8296893 C10.4409358,14.514694 7.78814024,14.959996 5.49478534,14.0048596" id="Path" stroke="#1E66F5"></path>
        <path d="M2.71662985,11.7929788 C0.684476638,8.952918 1.25425819,5.00711859 4.00602057,2.86380742 C6.64189733,0.810809657 10.3745428,1.11673948 12.6470992,3.50457382" id="Path" stroke="#1E66F5"></path>
        <circle id="Oval" stroke="#1E66F5" cx="13.5" cy="4.5" r="1"></circle>
        <circle id="Oval" stroke="#1E66F5" cx="4" cy="13" r="1.5"></circle>
        <line x1="5.5" y1="11.5" x2="7.5" y2="9.5" id="Path" stroke="#1E66F5"></line>
        <line x1="12.5" y1="5.5" x2="11.5" y2="6.5" id="Path" stroke="#1E66F5"></line>
    </g>
</svg>