<?xml version="1.0" encoding="UTF-8"?>
<svg width="16px" height="16px" viewBox="0 0 16 16" version="1.1" xmlns="http://www.w3.org/2000/svg" xmlns:xlink="http://www.w3.org/1999/xlink">
    <title>capacitor</title>
    <g id="capacitor" stroke="none" stroke-width="1" fill="none" fill-rule="evenodd" stroke-linecap="round" stroke-linejoin="round">
        <path d="M14.3600157,9.19382685 C13.8493181,9.68878751 13.3477889,10.1972956 12.8448914,10.7023827 C12.7590909,10.7887305 12.6968274,10.8552361 12.5746267,10.7320776 C11.062513,9.20764798 6.17895588,4.33330494 5.25271211,3.4167314 C5.1636274,3.32901512 5.17389062,3.26948847 5.25791214,3.18450905 C5.79743796,2.65027448 6.33431815,2.11307499 6.86855272,1.57291056 C6.96803749,1.47219421 7.02879572,1.4897101 7.11897517,1.58084745 C7.77737184,2.24818451 9.460083,3.92606056 9.64112611,4.0979352 C9.71365283,4.16663033 9.76975841,4.26132559 9.88675907,4.26556772 C10.7828974,3.37152764 11.6783972,2.47675772 12.5732583,1.58125798 C12.6731536,1.48095215 12.7362382,1.46699418 12.8439335,1.57619479 C13.3570814,2.09732753 13.8767604,2.61198861 14.4028475,3.12005605 C14.5398272,3.25142521 14.5260061,3.3225835 14.3987422,3.44779473 C13.5572954,4.27760989 12.729396,5.11933039 11.8835702,5.94586132 C11.7093693,6.11540964 11.7293483,6.19847326 11.8908229,6.35680046 C12.7206381,7.17074186 13.5341689,8.00233598 14.3634367,8.81723527 C14.5160165,8.96776243 14.5095849,9.04945762 14.3600157,9.19382685 Z M3.44187041,5.29024713 C3.32774345,5.17598334 3.26123782,5.17830967 3.14984772,5.29024713 C2.64562541,5.80746987 2.13484084,6.31825444 1.6176181,6.82247675 C1.4698278,6.96465649 1.48939633,7.0412885 1.62446025,7.17443661 C2.45235961,7.99166223 3.26657469,8.8224353 4.09721091,9.63555563 C4.26525396,9.80086182 4.25978024,9.8904939 4.09392668,10.0534738 C3.25809043,10.8750784 2.4373069,11.712283 1.60557593,12.538814 C1.48378578,12.6595094 1.45135402,12.7320361 1.59435482,12.8707948 C2.11164367,13.3747022 2.62076546,13.8869262 3.12152125,14.4072665 C3.24221666,14.5326146 3.30721702,14.5306988 3.42941771,14.4072665 C3.99959633,13.8243159 5.81322822,12.0072984 6.1665488,11.7006514 C7.53251433,13.0686239 8.43517551,13.9739308 8.87453235,14.4165718 C8.96731182,14.5093513 9.03559641,14.5126355 9.12988115,14.4165718 C9.66356834,13.8783232 10.1997187,13.342629 10.7383322,12.8094892 C10.8241327,12.7246466 10.8250906,12.6651199 10.7383322,12.5774037 C9.81272707,11.6663951 4.93947878,6.79059236 3.44187041,5.29024713 Z" id="Path" stroke="#04A5E5"></path>
    </g>
</svg>