<?xml version="1.0" encoding="UTF-8" standalone="no"?>
<!-- Created with Inkscape (http://www.inkscape.org/) -->

<svg
   width="100.0px"
   height="100.0px"
   viewBox="0 0 100.0 100.0"
   version="1.1"
   id="SVGRoot"
   sodipodi:docname="capacitor.svg"
   inkscape:version="1.2.1 (9c6d41e410, 2022-07-14)"
   xmlns:inkscape="http://www.inkscape.org/namespaces/inkscape"
   xmlns:sodipodi="http://sodipodi.sourceforge.net/DTD/sodipodi-0.dtd"
   xmlns="http://www.w3.org/2000/svg"
   xmlns:svg="http://www.w3.org/2000/svg">
  <defs
     id="defs8354">
    <linearGradient
       id="vscodeIconsFileTypeCapacitor0"
       x1="3.8429999"
       x2="28.148001"
       y1="28.15"
       y2="3.845"
       gradientUnits="userSpaceOnUse"
       gradientTransform="matrix(3.571771,0,0,3.571771,-7.1535818,-7.1501778)">
      <stop
         offset="0"
         stop-color="#7ecefd"
         id="stop2" />
      <stop
         offset="1"
         stop-color="#56b1fc"
         id="stop4" />
    </linearGradient>
  </defs>
  <sodipodi:namedview
     id="namedview32486"
     pagecolor="#181825"
     bordercolor="#000000"
     borderopacity="0.24705882"
     inkscape:showpageshadow="2"
     inkscape:pageopacity="0"
     inkscape:pagecheckerboard="0"
     inkscape:deskcolor="#313244"
     inkscape:document-units="px"
     showgrid="true"
     inkscape:zoom="2.4359829"
     inkscape:cx="-11.69959"
     inkscape:cy="-11.904846"
     inkscape:window-width="1920"
     inkscape:window-height="1017"
     inkscape:window-x="1912"
     inkscape:window-y="-8"
     inkscape:window-maximized="1"
     inkscape:current-layer="SVGRoot"
     showborder="false"
     showguides="false">
    <inkscape:grid
       type="xygrid"
       id="grid32609" />
  </sodipodi:namedview>
  <path
     fill="url(#vscodeIconsFileTypeCapacitor0)"
     d="m 96.50072,55.970201 c 1.116338,1.099365 1.068828,1.69656 -0.02375,2.751817 -3.732425,3.617049 -7.396984,7.332508 -11.071726,11.024217 -0.627728,0.631119 -1.082398,1.116331 -1.97479,0.217157 Q 66.855103,53.252317 50.218673,36.609103 40.076663,26.551918 29.92447,16.504914 c -0.651478,-0.641299 -0.576829,-1.075617 0.03732,-1.696557 Q 35.875989,8.9518466 41.732501,3.0308664 c 0.726125,-0.7363051 1.170623,-0.607367 1.828887,0.057683 q 7.21715,7.3155496 14.488588,14.5903806 c 1.313135,1.269024 2.619483,2.548227 3.942798,3.803679 0.529326,0.502181 0.93989,1.194377 1.794957,1.224913 Q 73.610792,12.908214 83.42028,3.0919426 c 0.729518,-0.7329128 1.190981,-0.8347059 1.978183,-0.037325 a 637.70149,637.70149 0 0 0 11.39067,11.2820974 c 1.000973,0.960251 0.899172,1.479397 -0.0305,2.395538 -6.148321,6.06349 -12.198242,12.215203 -18.380495,18.254942 -1.272413,1.238487 -1.126505,1.845854 0.05425,3.002904 6.063497,5.948127 12.008226,12.02519 18.068322,17.980102 z M 49.760604,63.411292 A 2.1139089,2.1139089 0 0 0 49.533265,63.071987 Q 33.107208,46.642535 16.691332,30.19612 c -0.834704,-0.834705 -1.319921,-0.817738 -2.134266,0 A 622.12712,622.12712 0 0 1 3.3597961,41.393391 c -1.0790096,1.038293 -0.9364992,1.598156 0.0509,2.571979 6.049918,5.971877 11.9980429,12.042153 18.0683199,17.983493 1.228307,1.207948 1.18759,1.862817 -0.02375,3.053798 -6.107603,6.005814 -12.1066254,12.123593 -18.1836892,18.163328 -0.8889955,0.882209 -1.1265133,1.411539 -0.081432,2.42608 A 490.43365,490.43365 0 0 1 14.350093,96.819877 c 0.882211,0.916142 1.357246,0.902566 2.249634,0 Q 22.84984,90.430651 29.235678,84.166966 a 94.864628,94.864628 0 0 1 7.366444,-7.125537 l 5.327187,5.306827 q 7.237507,7.26126 14.461444,14.539487 c 0.678622,0.678618 1.177409,0.702368 1.866211,0 Q 64.106695,90.987121 70.01071,85.144181 c 0.627718,-0.620945 0.63451,-1.055257 0,-1.69656 Q 59.86529,73.461694 49.760604,63.411292 Z"
     id="path9"
     style="display:inline;fill:none;stroke:#56b1fc;stroke-width:4.996;stroke-dasharray:none;stroke-opacity:1;stroke-linejoin:round;stroke-linecap:round" />
</svg>
