<?xml version="1.0" encoding="UTF-8"?>
<svg width="16px" height="16px" viewBox="0 0 16 16" version="1.1" xmlns="http://www.w3.org/2000/svg" xmlns:xlink="http://www.w3.org/1999/xlink">
    <title>cargo_lock</title>
    <g id="cargo_lock" stroke="none" stroke-width="1" fill="none" fill-rule="evenodd">
        <path d="M14.9982047,11.5 C15.2742654,11.5 15.4980569,11.7237914 15.4980569,11.9998521 L15.4980569,14.9987961 C15.4980569,15.2748569 15.2742654,15.4986483 14.9982047,15.4986483 L9.99985214,15.4986483 C9.72379143,15.4986483 9.5,15.2748569 9.5,14.9987961 L9.5,11.9996833 C9.5,11.7236226 9.72379143,11.4998311 9.99985214,11.4998311 L14.9982047,11.5 Z M10.9995564,11.5 L10.9995564,10 C10.9995564,9.17157288 11.6711293,8.5 12.4995564,8.5 C13.3279836,8.5 13.9995564,9.17157288 13.9995564,10 L13.9995564,11.5" id="lock" stroke="#8C8FA1"></path>
        <polyline id="Path" stroke="#FE640B" stroke-linecap="round" stroke-linejoin="round" points="0.5 6 6.5 8.99644181 12.5 5.49753926"></polyline>
        <polyline id="Path" stroke="#FE640B" stroke-linecap="round" stroke-linejoin="round" points="3.5 3.49709252 6.5 5.5 12.4984925 2"></polyline>
        <line x1="3.5" y1="4" x2="3.5" y2="11" id="Path" stroke="#FE640B" stroke-linecap="round" stroke-linejoin="round"></line>
        <line x1="6.5" y1="5.49753926" x2="6.5" y2="12.5" id="Path" stroke="#FE640B" stroke-linecap="round" stroke-linejoin="round"></line>
        <polyline id="Path" stroke="#FE640B" stroke-linecap="round" stroke-linejoin="round" points="6.49924627 2.5 9.5 4 9.5 7"></polyline>
        <polyline id="Path" stroke="#FE640B" stroke-linecap="round" stroke-linejoin="round" points="12.4984925 5.5 12.4984925 2 9.53846154 0.5 3.5 3.5 3.5 4.49709252 0.5 5.99753926 0.5 9.53846154 6.5 12.5"></polyline>
    </g>
</svg>