<?xml version="1.0" encoding="UTF-8"?>
<svg width="16px" height="16px" viewBox="0 0 16 16" version="1.1" xmlns="http://www.w3.org/2000/svg" xmlns:xlink="http://www.w3.org/1999/xlink">
    <title>certificate</title>
    <g id="certificate" stroke="none" stroke-width="1" fill="none" fill-rule="evenodd" stroke-linecap="round" stroke-linejoin="round">
        <path d="M8,9 C9.10463002,9 10,8.10452145 10,7.00006994 C10,5.89547855 9.10463002,5 8,5 C6.89536998,5 6,5.89547855 6,7.00006994 C6,8.10452145 6.89536998,9 8,9 Z" id="Path" stroke="#FE640B"></path>
        <path d="M9.86286926,2.5 L10.75,2.5 C11.7164983,2.5 12.5,3.28350169 12.5,4.25 L12.5,5.14393616 M12.5,8.8707428 L12.5,9.75 C12.5,10.7164983 11.7164983,11.5 10.75,11.5 M5.25,11.5 C4.28350169,11.5 3.5,10.7164983 3.5,9.75 L3.5,8.86773682 M3.5,5.13856506 L3.5,4.25 C3.5,3.28350169 4.28350169,2.5 5.25,2.5 L6.13624573,2.5" id="Path" stroke="#D20F39"></path>
        <path d="M8.40055866,3.10570888 L9.2876894,3.10570888 C10.2541877,3.10570888 11.0376894,3.88921057 11.0376894,4.85570888 L11.0376894,5.74964504 M11.4874369,9.01992245 L13.9623106,11.4947962 L10.7815431,11.8495626 L10.4267767,15.0303301 L7.9498846,12.553438 M4.67439289,12.1057089 L3.7876894,12.1057089 C2.82119109,12.1057089 2.0376894,11.3222072 2.0376894,10.3557089 L2.0376894,9.4734457 M2.0376894,5.74427395 L2.0376894,4.85570888 C2.0376894,3.88921057 2.82119109,3.10570888 3.7876894,3.10570888 L4.67393513,3.10570888" id="Path" stroke="#D20F39" transform="translate(8, 9.068) rotate(-315) translate(-8, -9.068)"></path>
    </g>
</svg>