<?xml version="1.0" encoding="UTF-8"?>
<svg width="16px" height="16px" viewBox="0 0 16 16" version="1.1" xmlns="http://www.w3.org/2000/svg" xmlns:xlink="http://www.w3.org/1999/xlink">
    <title>changelog</title>
    <g id="changelog" stroke="none" stroke-width="1" fill="none" fill-rule="evenodd">
        <path d="M2.31241474,6.00336067 C2.10956994,6.6324523 2,7.30343044 2,8 C2,11.5898509 4.91014913,14.5 8.5,14.5 C12.0898509,14.5 15,11.5898509 15,8 C15,4.41014913 12.0898509,1.5 8.5,1.5 C6.90925905,1.5 5.45198221,2.07142778 4.3222407,3.02021213" id="Path" stroke="#209FB5" stroke-linecap="round" stroke-linejoin="round" transform="translate(8.5, 8) rotate(-45) translate(-8.5, -8)"></path>
        <line x1="2.00069592" y1="8" x2="3.5" y2="6.5" id="Line" stroke="#209FB5" stroke-linecap="round" stroke-linejoin="round"></line>
        <line x1="0.500695915" y1="8" x2="2" y2="6.5" id="Line" stroke="#209FB5" stroke-linecap="round" stroke-linejoin="round" transform="translate(1.2503, 7.25) scale(-1, 1) translate(-1.2503, -7.25)"></line>
        <rect id="Path" fill="#209FB5" x="8" y="4" width="1" height="5" rx="0.5"></rect>
        <rect id="Path" fill="#209FB5" transform="translate(10, 8.5) rotate(-270) translate(-10, -8.5)" x="9.5" y="6.5" width="1" height="4" rx="0.5"></rect>
    </g>
</svg>