<?xml version="1.0" encoding="UTF-8"?>
<svg width="16px" height="16px" viewBox="0 0 16 16" version="1.1" xmlns="http://www.w3.org/2000/svg" xmlns:xlink="http://www.w3.org/1999/xlink">
    <title>circle_ci</title>
    <g id="circle_ci" stroke="none" stroke-width="1" fill="none" fill-rule="evenodd">
        <path d="M1.67412865,9.50083292 C2.3515945,12.3671132 4.92671605,14.5 8,14.5 C11.5898509,14.5 14.5,11.5898509 14.5,8 C14.5,4.41014913 11.5898509,1.5 8,1.5 C4.92676808,1.5 2.3516817,3.63281457 1.67412865,6.49902149 L4.29046511,6.49902149 C4.88367204,5.03442582 6.32103447,4 8,4 C10.209139,4 12,5.790861 12,8 C12,10.209139 10.209139,12 8,12 C6.31976197,12 4.88149339,10.9640056 4.28911777,9.49594023 L3.5,9.49594023 L1.67412865,9.50083292 Z" id="Path" stroke="#4C4F69"></path>
        <circle id="Oval" fill="#4C4F69" cx="8" cy="8" r="1"></circle>
    </g>
</svg>