<?xml version="1.0" encoding="UTF-8"?>
<svg width="16px" height="16px" viewBox="0 0 16 16" version="1.1" xmlns="http://www.w3.org/2000/svg" xmlns:xlink="http://www.w3.org/1999/xlink">
    <title>clojure</title>
    <g id="clojure" stroke="none" stroke-width="1" fill="none" fill-rule="evenodd">
        <path d="M14.1742229,10.0270481 C13.0576492,13.4281863 9.40073678,15.2857995 5.99556562,14.1815862 C2.59051227,13.0773997 0.719630254,9.42744644 1.81128041,6.0183533" id="Path" stroke="#40A02B" stroke-linecap="round" stroke-linejoin="round"></path>
        <path d="M1.86843337,5.84730758 C3.03988669,2.51067301 6.66437822,0.72327432 10.0246427,1.82511643 C13.3848129,2.92683073 15.2472695,6.51312928 14.2158138,9.89552742" id="Path" stroke="#1E66F5" stroke-linecap="round" stroke-linejoin="round"></path>
        <path d="M6.3620568,4.90612961 C5.25441881,5.49374936 4.5,6.6587727 4.5,8 C4.5,9.93299662 6.06700338,11.5 8,11.5 C8.64767893,11.5 9.2542684,11.3240751 9.77458982,11.0174039" id="Path" stroke="#40A02B"></path>
        <path d="M9.77458982,11.0174039 C10.8071668,10.4088155 11.5,9.2853177 11.5,8 C11.5,6.06700338 9.93299662,4.5 8,4.5 C7.40823067,4.5 6.85076306,4.64686308 6.3620568,4.90612961" id="Path" stroke="#1E66F5"></path>
        <path d="M7.85696175,7.76558124 C7.85696175,7.76558124 6.33559129,9.97664286 6.50043971,11.15" id="Path" stroke="#4C4F69" stroke-linecap="round" stroke-linejoin="round"></path>
        <path d="M1.85369755,5.90473597 C2.31808256,4.8314998 3.71399194,4.43018962 4.88762451,4.40746616 C8.19023925,4.3434273 7.50936159,10.0817221 10.0817956,11.1717599 C11.2944024,11.6854479 13.5378282,11.1099245 14.1830369,10.0043246" id="Path" stroke="#4C4F69" stroke-linecap="round" stroke-linejoin="round"></path>
    </g>
</svg>