<?xml version="1.0" encoding="UTF-8"?>
<svg width="16px" height="16px" viewBox="0 0 16 16" version="1.1" xmlns="http://www.w3.org/2000/svg" xmlns:xlink="http://www.w3.org/1999/xlink">
    <title>cobol</title>
    <g id="cobol" stroke="none" stroke-width="1" fill="none" fill-rule="evenodd" stroke-linecap="round" stroke-linejoin="round">
        <path d="M6.74375,2.23775 C7.06325,0.92075 8.93675,0.92075 9.25625,2.23775 C9.35348228,2.6390444 9.6365253,2.96976818 10.0179887,3.12780936 C10.399452,3.28585054 10.8334558,3.25220094 11.186,3.03725 C12.34325,2.33225 13.6685,3.65675 12.9635,4.81475 C12.7488594,5.16714043 12.715291,5.6008108 12.873146,5.98203437 C13.031001,6.36325795 13.3613216,6.64625111 13.76225,6.74375 C15.07925,7.06325 15.07925,8.93675 13.76225,9.25625 C13.3609556,9.35348228 13.0302318,9.6365253 12.8721906,10.0179887 C12.7141495,10.399452 12.7477991,10.8334558 12.96275,11.186 C13.66775,12.34325 12.34325,13.6685 11.18525,12.9635 C10.8328596,12.7488594 10.3991892,12.715291 10.0179656,12.873146 C9.63674205,13.031001 9.35374889,13.3613216 9.25625,13.76225 C8.93675,15.07925 7.06325,15.07925 6.74375,13.76225 C6.64651772,13.3609556 6.3634747,13.0302318 5.98201133,12.8721906 C5.60054796,12.7141495 5.16654419,12.7477991 4.814,12.96275 C3.65675,13.66775 2.3315,12.34325 3.0365,11.18525 C3.25114065,10.8328596 3.28470904,10.3991892 3.12685402,10.0179656 C2.96899901,9.63674205 2.63867841,9.35374889 2.23775,9.25625 C0.92075,8.93675 0.92075,7.06325 2.23775,6.74375 C2.6390444,6.64651772 2.96976818,6.3634747 3.12780936,5.98201133 C3.28585054,5.60054796 3.25220094,5.16654419 3.03725,4.814 C2.33225,3.65675 3.65675,2.3315 4.81475,3.0365 C5.56475,3.4925 6.53675,3.089 6.74375,2.23775 Z M9.99924521,6.49875218 C9.54308481,5.89223861 8.81734852,5.5 8,5.5 C6.61928813,5.5 5.5,6.61928813 5.5,8 C5.5,9.38071187 6.61928813,10.5 8,10.5 C8.81876956,10.5 9.54560805,10.1063963 10.001622,9.49808244" id="Combined-Shape" stroke="#1E66F5"></path>
    </g>
</svg>