<?xml version="1.0" encoding="UTF-8"?>
<svg width="16px" height="16px" viewBox="0 0 16 16" version="1.1" xmlns="http://www.w3.org/2000/svg" xmlns:xlink="http://www.w3.org/1999/xlink">
    <title>code_of_conduct</title>
    <g id="code_of_conduct" stroke="none" stroke-width="1" fill="none" fill-rule="evenodd" stroke-linecap="round" stroke-linejoin="round">
        <path d="M13.4200833,8.4688267 L8.00595084,14.5 L2.59181841,8.4688267 C1.61851529,7.40314257 1.25955433,5.81308357 1.66293195,4.35421697 C2.06630956,2.89535037 3.16371463,1.81473212 4.50269673,1.55789159 C5.84167883,1.30105105 7.1954842,1.91148362 8.00595084,3.13751334 C8.81977338,1.9204566 10.1707163,1.31803966 11.5048931,1.57725334 C12.83907,1.83646703 13.932061,2.91370939 14.3357399,4.36731126 C14.7394188,5.82091312 14.3858835,7.40636625 13.4200833,8.47363513" id="Path" stroke="#D20F39"></path>
        <path d="M8.00581294,3.00696904 L5.6287523,5.47509211 C5.3469504,5.76778384 5.3469504,6.24221284 5.6287523,6.53490456 L6.02067702,6.94181985 C6.51878823,7.45898313 7.32732258,7.45898313 7.82543379,6.94181985 L8.54722618,6.19241991 C8.97801399,5.74513819 9.5622974,5.49385651 10.1715349,5.49385651 C10.7807723,5.49385651 11.3650557,5.74513819 11.7958435,6.19241991 L13.4200833,7.87878455 M8.36670913,10.1272707 L9.81056971,11.626357 M10.1714659,8.25348452 L11.6151886,9.75257076" id="Shape" stroke="#D20F39"></path>
    </g>
</svg>