<?xml version="1.0" encoding="UTF-8" standalone="no"?>
<!-- Created with Inkscape (http://www.inkscape.org/) -->

<svg
   width="100.0px"
   height="100.0px"
   viewBox="0 0 100.0 100.0"
   version="1.1"
   id="SVGRoot"
   sodipodi:docname="code_of_conduct.svg"
   inkscape:version="1.2.1 (9c6d41e410, 2022-07-14)"
   xmlns:inkscape="http://www.inkscape.org/namespaces/inkscape"
   xmlns:sodipodi="http://sodipodi.sourceforge.net/DTD/sodipodi-0.dtd"
   xmlns="http://www.w3.org/2000/svg"
   xmlns:svg="http://www.w3.org/2000/svg">
  <defs
     id="defs8354" />
  <sodipodi:namedview
     id="namedview32486"
     pagecolor="#181825"
     bordercolor="#000000"
     borderopacity="0.24705882"
     inkscape:showpageshadow="2"
     inkscape:pageopacity="0"
     inkscape:pagecheckerboard="0"
     inkscape:deskcolor="#313244"
     inkscape:document-units="px"
     showgrid="true"
     inkscape:zoom="4.2179991"
     inkscape:cx="146.27789"
     inkscape:cy="54.765303"
     inkscape:window-width="1920"
     inkscape:window-height="1017"
     inkscape:window-x="1912"
     inkscape:window-y="-8"
     inkscape:window-maximized="1"
     inkscape:current-layer="SVGRoot"
     showborder="false"
     showguides="false">
    <inkscape:grid
       type="xygrid"
       id="grid32609" />
  </sodipodi:namedview>
  <path
     d="M 89.303651,53.014716 50.043429,91.89804 10.783208,53.014716 A 26.173481,26.173481 0 1 1 50.043429,18.643701 26.173481,26.173481 0 1 1 89.303651,53.046125"
     id="path61665"
     style="fill:none;stroke:#b0204a;stroke-width:5;stroke-linecap:round;stroke-linejoin:round;stroke-dasharray:none;stroke-opacity:1" />
  <path
     d="M 50.043429,18.612293 32.805575,35.850148 a 5.2346962,5.2346962 0 0 0 0,7.40186 l 2.84244,2.84244 c 3.61194,3.61194 9.4748,3.61194 13.08674,0 l 5.234696,-5.234696 a 16.656803,16.656803 0 0 1 23.556133,0 L 89.303651,52.637818 M 52.660777,68.341907 63.13017,78.811299 M 65.747518,55.255166 76.21691,65.724559"
     id="path61667"
     style="fill:none;stroke:#b0204a;stroke-width:5;stroke-linecap:round;stroke-linejoin:round;stroke-dasharray:none;stroke-opacity:1" />
</svg>
