<?xml version="1.0" encoding="UTF-8"?>
<svg width="16px" height="16px" viewBox="0 0 16 16" version="1.1" xmlns="http://www.w3.org/2000/svg" xmlns:xlink="http://www.w3.org/1999/xlink">
    <title>code_of_conduct</title>
    <g id="code_of_conduct" stroke="none" stroke-width="1" fill="none" fill-rule="evenodd" stroke-linecap="round" stroke-linejoin="round">
        <path d="M13.4200833,8.93276311 L8.00595084,14.5 L2.59181841,8.93276311 C1.61851529,7.94905468 1.25955433,6.48130791 1.66293195,5.13466182 C2.06630956,3.78801573 3.16371463,2.79052196 4.50269673,2.55343839 C5.84167883,2.31635481 7.1954842,2.87983103 8.00595084,4.01155077 C8.81977338,2.88811378 10.1707163,2.33203661 11.5048931,2.57131078 C12.83907,2.81058495 13.932061,3.80496252 14.3357399,5.14674885 C14.7394188,6.48853519 14.3858835,7.95203038 13.4200833,8.93720166" id="Path" stroke="#D20F39"></path>
        <path d="M8.00581294,4.00696904 L5.6287523,6.47509211 C5.3469504,6.76778384 5.3469504,7.24221284 5.6287523,7.53490456 L6.02067702,7.94181985 C6.51878823,8.45898313 7.32732258,8.45898313 7.82543379,7.94181985 L8.54722618,7.19241991 C8.97801399,6.74513819 9.5622974,6.49385651 10.1715349,6.49385651 C10.7807723,6.49385651 11.3650557,6.74513819 11.7958435,7.19241991 L13.4200833,8.87878455 M8.36670913,11.1272707 L9.81056971,12.626357 M10.1714659,9.25348452 L11.6151886,10.7525708" id="Shape" stroke="#D20F39"></path>
    </g>
</svg>