<?xml version="1.0" encoding="UTF-8"?>
<svg width="16px" height="16px" viewBox="0 0 16 16" version="1.1" xmlns="http://www.w3.org/2000/svg" xmlns:xlink="http://www.w3.org/1999/xlink">
    <title>coffeescript</title>
    <g id="coffeescript" stroke="none" stroke-width="1" fill="none" fill-rule="evenodd" stroke-linecap="round" stroke-linejoin="round">
        <path d="M14.5,7 C13.9995456,9.5 12.5,12.5 11.5,13.5025361 C10.5,14.5050723 9.5,14.5 8.5,14.5 C7.5,14.5 6.5,14.5 5.47627072,13.5025361 C4.45254144,12.5050723 3,9.5 2.5,7 C5.5,9 11.5,9 14.5,7 Z" id="Path" stroke="#FE640B"></path>
        <path d="M2.5,5 C5.5,7 11.5,7 14.5,5" id="Path" stroke="#FE640B"></path>
        <path d="M2.5,8.4 C0.770799553,10.0093125 1.235434,12.5736711 4.5,12.5" id="Path" stroke="#FE640B"></path>
        <path d="M6.98903124,2.14006033 C6.23686906,1.77846512 5.30687542,2.16641084 5.26231409,2.74060361 C5.21720092,3.32031482 6.31909368,3.372464 6.89990858,3.34294039 C7.48541414,3.3130029 7.96496582,2.85000651 8.48093915,2.57118777 C9.11210973,2.23001076 9.74231458,2.07701225 10.3819008,2.17579217 C10.9011852,2.25622331 11.819728,2.35679672 11.7559902,2.94754479 C11.6739035,3.70812258 9.89076038,3.77351599 9.51136823,3.45896541" id="Path" stroke="#FE640B"></path>
    </g>
</svg>