<?xml version="1.0" encoding="UTF-8" standalone="no"?>
<!-- Created with Inkscape (http://www.inkscape.org/) -->

<svg
   width="100.0px"
   height="100.0px"
   viewBox="0 0 100.0 100.0"
   version="1.1"
   id="SVGRoot"
   sodipodi:docname="coffeescript.svg"
   inkscape:version="1.2.1 (9c6d41e410, 2022-07-14)"
   xmlns:inkscape="http://www.inkscape.org/namespaces/inkscape"
   xmlns:sodipodi="http://sodipodi.sourceforge.net/DTD/sodipodi-0.dtd"
   xmlns="http://www.w3.org/2000/svg"
   xmlns:svg="http://www.w3.org/2000/svg">
  <sodipodi:namedview
     id="namedview32486"
     pagecolor="#181825"
     bordercolor="#000000"
     borderopacity="0.24705882"
     inkscape:showpageshadow="2"
     inkscape:pageopacity="0"
     inkscape:pagecheckerboard="0"
     inkscape:deskcolor="#313244"
     inkscape:document-units="px"
     showgrid="true"
     inkscape:zoom="4.2179991"
     inkscape:cx="18.018022"
     inkscape:cy="55.71362"
     inkscape:window-width="1920"
     inkscape:window-height="1017"
     inkscape:window-x="1912"
     inkscape:window-y="-8"
     inkscape:window-maximized="1"
     inkscape:current-layer="SVGRoot"
     showborder="false">
    <inkscape:grid
       type="xygrid"
       id="grid32609" />
  </sodipodi:namedview>
  <g
     fill="none"
     stroke="#6f4e37"
     stroke-linecap="round"
     stroke-linejoin="round"
     stroke-width="5"
     paint-order="fill markers stroke"
     id="g22141"
     transform="translate(29.183199,-65.11305)" />
  <path
     d="m 9.1922999,35.035241 c 24.7078271,12.386716 67.4927551,11.547661 87.9293441,0 -3.55534,11.732967 -12.154224,37.864541 -20.899278,46.386307 -8.746204,8.521766 -12.500662,8.320347 -20.64491,8.665637 -8.143098,0.34529 -15.547274,0.506426 -25.231518,-8.155758 C 20.661695,73.266941 10.828977,52.707202 9.1911489,35.035241 Z"
     id="path22137"
     style="fill:none;stroke:#6f4e37;stroke-width:5;stroke-linecap:round;stroke-linejoin:round;stroke-dasharray:none;stroke-opacity:1" />
  <path
     d="m 9.0702979,24.061914 c 24.7308461,12.399377 67.5595111,11.55917 88.0145161,0 M 39.054141,10.837454 c -5.450903,-2.6218437 -12.192182,0.1909 -12.515604,4.3528 -0.326875,4.202183 7.659691,4.579701 11.869931,4.365621 4.24477,-0.216382 7.720693,-3.572605 11.460187,-5.593704 4.575098,-2.47343 9.143289,-3.581812 13.779387,-2.86591 3.763665,0.58239 10.422014,1.312103 9.960476,5.593704 -0.59505,5.513136 -13.52058,5.987274 -16.271253,3.707127 M 10.617198,47.186009 C -1.9145403,58.851068 -0.2479383,76.114435 23.41481,75.580386"
     id="path22139"
     style="fill:none;stroke:#6f4e37;stroke-width:5;stroke-linecap:round;stroke-linejoin:round;stroke-dasharray:none;stroke-opacity:1"
     sodipodi:nodetypes="ccccccccccc" />
</svg>
