<?xml version="1.0" encoding="UTF-8"?>
<svg width="16px" height="16px" viewBox="0 0 16 16" version="1.1" xmlns="http://www.w3.org/2000/svg" xmlns:xlink="http://www.w3.org/1999/xlink">
    <title>command</title>
    <g id="command" stroke="none" stroke-width="1" fill="none" fill-rule="evenodd">
        <path d="M12,14.5 C13.3807119,14.5 14.5,13.3807119 14.5,12 C14.5,10.6192881 13.3807119,9.5 12,9.5 L4,9.5 C2.61928813,9.5 1.5,10.6192881 1.5,12 C1.5,13.3807119 2.61928813,14.5 4,14.5 C5.38071187,14.5 6.5,13.3807119 6.5,12 L6.5,4 C6.5,2.61928813 5.38071187,1.5 4,1.5 C2.61928813,1.5 1.5,2.61928813 1.5,4 C1.5,5.38071187 2.61928813,6.5 4,6.5 L12,6.5 C13.3807119,6.5 14.5,5.38071187 14.5,4 C14.5,2.61928813 13.3807119,1.5 12,1.5 C10.6192881,1.5 9.5,2.61928813 9.5,4 L9.5,12 C9.5,13.3807119 10.6192881,14.5 12,14.5 Z" id="Path" stroke="#4C4F69"></path>
    </g>
</svg>