<?xml version="1.0" encoding="UTF-8"?>
<svg width="16px" height="16px" viewBox="0 0 16 16" version="1.1" xmlns="http://www.w3.org/2000/svg" xmlns:xlink="http://www.w3.org/1999/xlink">
    <title>command</title>
    <g id="command" stroke="none" stroke-width="1" fill="none" fill-rule="evenodd">
        <path d="M12.5,14.5 C13.6045695,14.5 14.5,13.6045695 14.5,12.5 C14.5,11.3954305 13.6045695,10.5 12.5,10.5 L3.5,10.5 C2.3954305,10.5 1.5,11.3954305 1.5,12.5 C1.5,13.6045695 2.3954305,14.5 3.5,14.5 C4.6045695,14.5 5.5,13.6045695 5.5,12.5 L5.5,3.5 C5.5,2.3954305 4.6045695,1.5 3.5,1.5 C2.3954305,1.5 1.5,2.3954305 1.5,3.5 C1.5,4.6045695 2.3954305,5.5 3.5,5.5 L12.5,5.5 C13.6045695,5.5 14.5,4.6045695 14.5,3.5 C14.5,2.3954305 13.6045695,1.5 12.5,1.5 C11.3954305,1.5 10.5,2.3954305 10.5,3.5 L10.5,12.5 C10.5,13.6045695 11.3954305,14.5 12.5,14.5 Z" id="Path" stroke="#4C4F69"></path>
    </g>
</svg>