<?xml version="1.0" encoding="UTF-8"?>
<svg width="16px" height="16px" viewBox="0 0 16 16" version="1.1" xmlns="http://www.w3.org/2000/svg" xmlns:xlink="http://www.w3.org/1999/xlink">
    <title>craco</title>
    <g id="craco" stroke="none" stroke-width="1" fill="none" fill-rule="evenodd" stroke-linejoin="round">
        <path d="M9.5,1.5 L9.5,3.7547753 C10.0248322,3.94052678 10.5112172,4.22477771 10.9305239,4.58492328 L11.1471143,4.45096189 L12.8791651,3.45096189 L14.3791651,6.04903811 L12.4264724,7.17642575 C12.4739427,7.44080633 12.5,7.71736016 12.5,8 C12.5,8.28263984 12.4739427,8.55919367 12.4240992,8.82739023 L12.6471143,8.95096189 L14.3791651,9.95096189 L12.8791651,12.5490381 L10.9264724,11.4216505 C10.5119795,11.7747767 10.0252492,12.0593266 9.49267527,12.2465232 L9.5,14.5 L6.5,14.5 L6.5,12.2452247 C5.9748148,12.0594394 5.48759669,11.7745748 5.06772677,11.4135735 L5.07352756,11.4216505 L3.12083488,12.5490381 L1.62083488,9.95096189 L3.57352756,8.82357425 C3.52605734,8.55919367 3.5,8.28263984 3.5,8 C3.5,7.71736016 3.52605734,7.44080633 3.57590076,7.17260977 L3.35288568,7.04903811 L1.62083488,6.04903811 L3.12083488,3.45096189 L5.07352756,4.57834954 L5.06772677,4.58642653 C5.48759669,4.2254252 5.9748148,3.94056056 6.50796025,3.75325348 L6.5,1.5 L9.5,1.5 Z M5.5,6.5 L7,8 L5.5,9.5 M8.5,6.5 L10,8 L8.5,9.5" id="Combined-Shape" stroke="#40A02B"></path>
    </g>
</svg>