<?xml version="1.0" encoding="UTF-8"?>
<svg width="16px" height="16px" viewBox="0 0 16 16" version="1.1" xmlns="http://www.w3.org/2000/svg" xmlns:xlink="http://www.w3.org/1999/xlink">
    <title>css_map</title>
    <g id="css_map" stroke="none" stroke-width="1" fill="none" fill-rule="evenodd" stroke-linecap="round" stroke-linejoin="round">
        <polyline id="Path" stroke="#1E66F5" points="10 3.5 15.5 3.5 14.2307692 13.2962963 10 15 5.76923077 13.2962963 5.6017278 12.0034591"></polyline>
        <polyline id="Path" stroke="#8C8FA1" points="9.46153846 5.5 12.5384615 5.5 12 10.9998124 10 12 8 10.9998124 7.95 10.4958597"></polyline>
        <line x1="8.5" y1="8.5" x2="12.1153846" y2="8.5" id="Path" stroke="#8C8FA1"></line>
        <g id="Marker" transform="translate(0.5, 0.5)" stroke="#D20F39">
            <path d="M0,3.56216337 C-0.00119248479,4.33047285 0.242799811,5.07839894 0.695275997,5.69338561 L2.94013403,9.65110132 C2.95321147,9.67662588 2.96628891,9.70199385 2.98228954,9.72532611 L2.98721282,9.73409528 C3.10730759,9.90147633 3.29849422,10.0008435 3.50184856,10 C3.69493312,10 3.86340132,9.91073148 3.97909821,9.77293019 L3.98494459,9.77606204 L4.00709931,9.73691395 C4.04067368,9.69215803 4.0684899,9.64321784 4.08987182,9.59128304 L6.28918959,5.71358603 C6.75130653,5.09507437 7.00103674,4.33919757 7,3.56216337 C7,1.59489335 5.31550266,0 3.38173385,0 C1.44796505,0 0,1.59489335 0,3.56216337 Z" id="Path"></path>
            <circle id="Oval" cx="3.50001175" cy="3.5" r="1.5"></circle>
        </g>
    </g>
</svg>