<?xml version="1.0" encoding="UTF-8"?>
<svg width="16px" height="16px" viewBox="0 0 16 16" version="1.1" xmlns="http://www.w3.org/2000/svg" xmlns:xlink="http://www.w3.org/1999/xlink">
    <title>cucumber</title>
    <g id="cucumber" stroke="none" stroke-width="1" fill="none" fill-rule="evenodd" stroke-linecap="round" stroke-linejoin="round">
        <path d="M14,7.2832467 C13.9924182,11.2628997 10.6449915,14.4928389 6.51106249,14.5 L6.51106249,12.8705705 L6.50362376,12.8635471 C3.29839112,12.0631545 1.36603896,8.91983735 2.19002093,5.83422223 C2.58514136,4.35227698 3.5756533,3.08215676 4.94361856,2.30332081 C6.31158381,1.52448487 7.94492471,1.30074339 9.48426409,1.68132527 C12.1278729,2.33739375 13.9998569,4.65897278 13.9998569,7.29040782 L14,7.2832467 Z M6.88543068,5.12761279 L6.51106249,4.40668112 M9.13221207,9.45334056 L9.50672332,10.1742722 M5.76203999,8.37187419 L5.01301749,8.73240888 M7.25979888,9.45334056 L6.88528763,10.1742722 M8.75755777,5.12761279 L9.13206902,4.40668112 M11.0043392,8.37187419 L10.2553167,8.01133949 M5.76203999,6.56947614 L5.01301749,6.20894145" id="Shape" stroke="#40A02B"></path>
    </g>
</svg>