<?xml version="1.0" encoding="UTF-8" standalone="no"?>
<!-- Created with Inkscape (http://www.inkscape.org/) -->

<svg
   width="100.0px"
   height="100.0px"
   viewBox="0 0 100.0 100.0"
   version="1.1"
   id="SVGRoot"
   sodipodi:docname="cucumber.svg"
   inkscape:version="1.2.1 (9c6d41e410, 2022-07-14)"
   xmlns:inkscape="http://www.inkscape.org/namespaces/inkscape"
   xmlns:sodipodi="http://sodipodi.sourceforge.net/DTD/sodipodi-0.dtd"
   xmlns="http://www.w3.org/2000/svg"
   xmlns:svg="http://www.w3.org/2000/svg">
  <defs
     id="defs22695" />
  <sodipodi:namedview
     id="namedview32486"
     pagecolor="#181825"
     bordercolor="#000000"
     borderopacity="0.24705882"
     inkscape:showpageshadow="2"
     inkscape:pageopacity="0"
     inkscape:pagecheckerboard="0"
     inkscape:deskcolor="#313244"
     inkscape:document-units="px"
     showgrid="true"
     inkscape:zoom="5.9651516"
     inkscape:cx="49.621539"
     inkscape:cy="45.765811"
     inkscape:window-width="1920"
     inkscape:window-height="1017"
     inkscape:window-x="1912"
     inkscape:window-y="-8"
     inkscape:window-maximized="1"
     inkscape:current-layer="SVGRoot"
     showborder="false">
    <inkscape:grid
       type="xygrid"
       id="grid32609" />
  </sodipodi:namedview>
  <path
     fill="none"
     stroke="#23d96c"
     stroke-linecap="round"
     stroke-linejoin="round"
     stroke-width="5.59597"
     d="M 91.940979,44.798192 C 91.888379,73.69579 68.488259,97.149628 39.589545,97.20223 V 85.370107 l -0.05148,-0.05148 C 17.13179,79.506648 3.6242331,56.681797 9.3836071,34.275526 A 41.88585,41.88585 0 0 1 60.374109,4.1210723 c 18.47901,4.76441 31.56575,21.6217157 31.56575,40.7308407 z M 42.20734,29.145139 39.589545,23.909548 m 18.323454,36.6469 2.61779,5.234472 M 34.353953,52.703061 29.118362,55.320857 m 15.705655,5.235591 -2.617796,5.234472 m 13.087858,-36.645781 2.6178,-5.235591 m 13.08786,28.793513 -5.23559,-2.617795 M 34.353953,39.615202 29.118362,36.997407"
     id="path26633"
     style="stroke-width:5;stroke-dasharray:none" />
</svg>
