<?xml version="1.0" encoding="UTF-8"?>
<svg width="16px" height="16px" viewBox="0 0 16 16" version="1.1" xmlns="http://www.w3.org/2000/svg" xmlns:xlink="http://www.w3.org/1999/xlink">
    <title>cucumber</title>
    <g id="cucumber" stroke="none" stroke-width="1" fill="none" fill-rule="evenodd" stroke-linecap="round" stroke-linejoin="round">
        <path d="M14,7.2832467 C13.9924182,11.2628997 10.6449915,14.4928389 6.51106249,14.5 L6.51106249,12.8705705 L6.50362376,12.8635471 C3.29839112,12.0631545 1.36603896,8.91983735 2.19002093,5.83422223 C2.58514136,4.35227698 3.5756533,3.08215676 4.94361856,2.30332081 C6.31158381,1.52448487 7.94492471,1.30074339 9.48426409,1.68132527 C12.1278729,2.33739375 13.9998569,4.65897278 13.9998569,7.29040782 L14,7.2832467 Z" id="Path" stroke="#40A02B"></path>
        <line x1="6.88814284" y1="5.15666321" x2="6.51323238" y2="4.40668112" id="Path" stroke="#40A02B"></line>
        <line x1="9.13817866" y1="9.65669902" x2="9.51323238" y2="10.4066811" id="Path" stroke="#40A02B"></line>
        <line x1="5.76312493" y1="8.53165426" x2="5.01301749" y2="8.90671693" id="Path" stroke="#40A02B"></line>
        <line x1="7.2630533" y1="9.65669902" x2="6.88799958" y2="10.4066811" id="Path" stroke="#40A02B"></line>
        <line x1="8.76298167" y1="5.15666321" x2="9.1380354" y2="4.40668112" id="Path" stroke="#40A02B"></line>
        <line x1="11.0130175" y1="8.53165426" x2="10.26291" y2="8.15659158" id="Path" stroke="#40A02B"></line>
        <line x1="5.76312493" y1="6.65662739" x2="5.01301749" y2="6.28156472" id="Path" stroke="#40A02B"></line>
    </g>
</svg>