<?xml version="1.0" encoding="UTF-8"?>
<svg width="16px" height="16px" viewBox="0 0 16 16" version="1.1" xmlns="http://www.w3.org/2000/svg" xmlns:xlink="http://www.w3.org/1999/xlink">
    <title>d</title>
    <g id="d" stroke="none" stroke-width="1" fill="none" fill-rule="evenodd">
        <path d="M15,3.5 C15.2761424,3.5 15.5,3.27614237 15.5,3 C15.5,2.72385763 15.2761424,2.5 15,2.5 C14.7238576,2.5 14.5,2.72385763 14.5,3 C14.5,3.27614237 14.7238576,3.5 15,3.5 Z M7,2.5 C8.83923156,2.5 10.4676056,3.40278829 11.4661614,4.78940413 C11.7669215,4.60533127 12.12116,4.5 12.5,4.5 C13.6045695,4.5 14.5,5.3954305 14.5,6.5 C14.5,7.6045695 13.6045695,8.5 12.5,8.5 C12.4919668,8.5 12.4839446,8.49995264 12.4759338,8.49985818 C12.2251845,11.3030445 9.86915545,13.5 7,13.5 L1.5,13.5 L1.5,2.5 Z M3.5,4.5 L3.5,11.5 L7,11.5 C8.93299662,11.5 10.5,9.93299662 10.5,8 C10.5,6.06700338 8.93299662,4.5 7,4.5 L3.5,4.5 Z" id="Combined-Shape" stroke="#E64553"></path>
    </g>
</svg>