<svg clip-rule="evenodd" fill-rule="evenodd" stroke-linejoin="round" stroke-miterlimit="2" viewBox="0 0 100 100" xmlns="http://www.w3.org/2000/svg"><g transform="matrix(1.02352 0 0 1.02352 .067577 -2.02325)"><path d="m54.075 36.278c2.683-5.846 9.015-9.995 16.32-9.995 9.704 0 17.689 7.32 17.689 16.215v.006c0 8.895-7.985 16.215-17.689 16.215-3.149 0-6.117-.771-8.69-2.117" fill="none" stroke="#eba0ac" stroke-width="4.89"/><path d="m96.158 23.751v.002c0 2.858-2.566 5.21-5.684 5.21s-5.684-2.352-5.684-5.21v-.002c0-2.858 2.566-5.21 5.684-5.21s5.684 2.352 5.684 5.21z" fill="#eba0ac" fill-rule="nonzero"/><g fill="none" stroke="#f38ba8" stroke-linecap="round" stroke-linejoin="miter" stroke-miterlimit="1.5"><path d="m61.255 54.864c0-7.054-2.802-13.818-7.789-18.805-4.987-4.988-11.752-7.789-18.805-7.789h-30.819v53.189h30.819c7.053 0 13.818-2.802 18.805-7.789 4.987-4.988 7.789-11.752 7.789-18.805z" stroke-width="7.33" transform="matrix(.666067 0 0 .666067 10.869 18.3211)"/><path d="m61.255 54.864c0-7.054-2.802-13.818-7.789-18.805-4.987-4.988-11.752-7.789-18.805-7.789h-30.819v53.189h30.819c7.053 0 13.818-2.802 18.805-7.789 4.987-4.988 7.789-11.752 7.789-18.805z" stroke-width="4.89"/></g></g></svg>