<?xml version="1.0" encoding="UTF-8"?>
<svg width="16px" height="16px" viewBox="0 0 16 16" version="1.1" xmlns="http://www.w3.org/2000/svg" xmlns:xlink="http://www.w3.org/1999/xlink">
    <title>database</title>
    <g id="database" stroke="none" stroke-width="1" fill="none" fill-rule="evenodd">
        <path d="M7.9993755,6.5 C11.5887952,6.5 14.4985949,5.1049071 14.4985949,3.82232334 C14.4985949,2.53973957 11.5887952,1.5 7.9993755,1.5 C4.40995575,1.5 1.50015613,2.53973957 1.50015613,3.82232334 C1.50015613,5.1049071 4.40995575,6.5 7.9993755,6.5 Z M14.4982826,8 C14.4981465,8.82959153 13.2595568,9.78516438 11.2489852,10.2 C9.23815939,10.6148216 6.76074773,10.6148216 4.74992194,10.2 C2.73934849,9.78527031 1.50054039,8.82953912 1.5,8 M14.4982826,12.1776179 C14.4982826,13.0073193 13.2596993,13.7740131 11.2488291,14.1888838 C9.23800326,14.6037054 6.7605916,14.6037054 4.74976581,14.1888838 C2.73877539,13.7740415 1.5,13.0073423 1.5,12.1776179 M1.50156126,3.87907961 L1.50156126,12.1776179 M14.5,3.8745336 L14.5,12.1730718" id="Combined-Shape" stroke="#DF8E1D"></path>
    </g>
</svg>