<?xml version="1.0" encoding="UTF-8"?>
<svg width="16px" height="16px" viewBox="0 0 16 16" version="1.1" xmlns="http://www.w3.org/2000/svg" xmlns:xlink="http://www.w3.org/1999/xlink">
    <title>denizen_script</title>
    <g id="denizen_script" stroke="none" stroke-width="1" fill="none" fill-rule="evenodd">
        <path d="M4.25,1.5 L2.5,3.25 L2.5,14.5 L7,14.5 C11,14.5 12,12.75 13,10.51" id="Line" stroke="#4C4F69" stroke-linecap="round"></path>
        <path d="M4.5,1.5 L4.5,12.5 L8.5,12.5 C11,12.5 13.5,11.5 13.5,8.5 L13.5,5.5 C13.5,2.5 11,1.5 8.5,1.5 L4.5,1.5 Z M6.5,3.5 L6.5,10.5 L8.5,10.5 C10.25,10.5 11.5,9.75 11.5,8 L11.5,6 C11.5,4.25 10.25,3.5 8.5,3.5 L6.5,3.5 Z" id="Combined-Shape" stroke="#DF8E1D" stroke-linecap="square"></path>
    </g>
</svg>