<?xml version="1.0" encoding="UTF-8" standalone="no"?>
<!-- Created with Inkscape (http://www.inkscape.org/) -->

<svg
   width="100.0px"
   height="100.0px"
   viewBox="0 0 100.0 100.0"
   version="1.1"
   id="SVGRoot"
   sodipodi:docname="deno_lock.svg"
   inkscape:version="1.2.1 (9c6d41e410, 2022-07-14)"
   xmlns:inkscape="http://www.inkscape.org/namespaces/inkscape"
   xmlns:sodipodi="http://sodipodi.sourceforge.net/DTD/sodipodi-0.dtd"
   xmlns="http://www.w3.org/2000/svg"
   xmlns:svg="http://www.w3.org/2000/svg">
  <defs
     id="defs8354" />
  <sodipodi:namedview
     id="namedview32486"
     pagecolor="#181825"
     bordercolor="#000000"
     borderopacity="0.24705882"
     inkscape:showpageshadow="2"
     inkscape:pageopacity="0"
     inkscape:pagecheckerboard="0"
     inkscape:deskcolor="#313244"
     inkscape:document-units="px"
     showgrid="true"
     inkscape:zoom="5.939697"
     inkscape:cx="19.277078"
     inkscape:cy="50.844345"
     inkscape:window-width="1920"
     inkscape:window-height="1017"
     inkscape:window-x="1912"
     inkscape:window-y="-8"
     inkscape:window-maximized="1"
     inkscape:current-layer="SVGRoot"
     showborder="false"
     showguides="false">
    <inkscape:grid
       type="xygrid"
       id="grid32609" />
  </sodipodi:namedview>
  <path
     d="m 2.3740287,44.887517 c 0,23.479566 19.0339363,42.513468 42.5134863,42.513468 1.467472,0 2.917578,-0.07435 4.346757,-0.219492 0.714589,-0.07257 1.423947,-0.162838 2.127627,-0.270358 0.17592,-0.02688 0.351486,-0.05484 0.526689,-0.08387 M 87.181509,49.234276 c 0.145141,-1.429179 0.219492,-2.879286 0.219492,-4.346759 0,-23.479566 -19.033937,-42.5134677 -42.513486,-42.5134677 -23.47955,0 -42.5134863,19.0339017 -42.5134863,42.5134677"
     id="path1665"
     style="fill:none;stroke:#ffffff;stroke-width:5;stroke-linecap:round;stroke-linejoin:round;stroke-dasharray:none;stroke-opacity:1"
     sodipodi:nodetypes="csssccssc" />
  <path
     d="M 51.831384,86.635271 44.887515,59.058679 C 32.374378,58.642991 21.268911,51.387356 21.268911,42.525657 c 0,-9.130952 10.576411,-16.533023 23.618604,-16.533023 13.042193,0 18.894882,4.723721 23.618603,14.171163 0.05669,0.113369 0.871527,2.729129 2.445707,7.84669"
     id="path1667"
     style="fill:none;stroke:#ffffff;stroke-width:5;stroke-linecap:round;stroke-linejoin:round;stroke-dasharray:none;stroke-opacity:1"
     sodipodi:nodetypes="ccsssc" />
  <circle
     style="fill:#ffffff;fill-opacity:1;stroke:none;stroke-width:5;stroke-linecap:round;stroke-linejoin:round;stroke-dasharray:none;stroke-opacity:1;paint-order:fill markers stroke"
     id="path6692"
     cx="49.15847"
     cy="38.090168"
     r="2.2437673" />
  <path
     fill="none"
     stroke="currentColor"
     d="m 70.861229,73.821086 v -8.879591 a 8.8795921,8.8795921 0 0 1 17.759183,0 v 8.879591 m -23.678915,0 H 94.540144 A 2.9598638,2.9598638 0 0 1 97.5,76.780952 v 17.75918 A 2.9598638,2.9598638 0 0 1 94.540144,97.5 H 64.941497 a 2.9598638,2.9598638 0 0 1 -2.95986,-2.959868 v -17.75918 a 2.9598638,2.9598638 0 0 1 2.95986,-2.959866 z"
     id="path28745"
     style="stroke:#808080;stroke-width:5;stroke-dasharray:none;stroke-opacity:1" />
</svg>
