<?xml version="1.0" encoding="UTF-8"?>
<svg width="16px" height="16px" viewBox="0 0 16 16" version="1.1" xmlns="http://www.w3.org/2000/svg" xmlns:xlink="http://www.w3.org/1999/xlink">
    <title>deno</title>
    <g id="deno" stroke="none" stroke-width="1" fill="none" fill-rule="evenodd">
        <path d="M1.5,8 C1.5,10.3222265 2.73889296,12.4680522 4.74999997,13.6291653 C6.76110699,14.7902785 9.23889301,14.7902785 11.25,13.6291653 C13.261107,12.4680522 14.5,10.3222265 14.5,8 C14.5,5.67777377 13.2611071,3.5319481 11.25,2.3708349 C9.23889302,1.2097217 6.76110698,1.2097217 4.74999996,2.3708349 C2.73889294,3.5319481 1.5,5.67777377 1.5,8 M9.17277778,13.8036667 L8.11111111,9.55555556 C6.19794444,9.492 4.5,8.38266667 4.5,7.02777778 C4.5,5.63172222 6.11705556,4.5 8.11111111,4.5 C10.1051667,4.5 11,5.22222222 11.7222222,6.66666667 C11.7395556,6.70133333 12.2205556,8.26638889 13.1666667,11.3611111" id="Combined-Shape" stroke="#4C4F69" stroke-linecap="round" stroke-linejoin="round"></path>
        <line x1="8" y1="6.5" x2="9" y2="6.5" id="Line" stroke="#4C4F69"></line>
    </g>
</svg>