<?xml version="1.0" encoding="UTF-8"?>
<svg width="16px" height="16px" viewBox="0 0 16 16" version="1.1" xmlns="http://www.w3.org/2000/svg" xmlns:xlink="http://www.w3.org/1999/xlink">
    <title>deno_lock</title>
    <g id="deno_lock" stroke="none" stroke-width="1" fill="none" fill-rule="evenodd">
        <path d="M14.9982047,11.5 C15.2742654,11.5 15.4980569,11.7237914 15.4980569,11.9998521 L15.4980569,14.9987961 C15.4980569,15.2748569 15.2742654,15.4986483 14.9982047,15.4986483 L9.99985214,15.4986483 C9.72379143,15.4986483 9.5,15.2748569 9.5,14.9987961 L9.5,11.9996833 C9.5,11.7236226 9.72379143,11.4998311 9.99985214,11.4998311 L14.9982047,11.5 Z M10.9995564,11.5 L10.9995564,10 C10.9995564,9.17157288 11.6711293,8.5 12.4995564,8.5 C13.3279836,8.5 13.9995564,9.17157288 13.9995564,10 L13.9995564,11.5" id="lock" stroke="#8C8FA1"></path>
        <path d="M12.5,6.5 C12.5,4.35640649 11.3564063,2.37564436 9.5,1.30384758 C7.64359343,0.232050805 5.35640636,0.232050805 3.5,1.30384758 C1.64359346,2.37564436 0.5,4.35640649 0.5,6.5 C0.5,8.64359354 1.64359348,10.6243557 3.5,11.6961524 C4.72711588,12.4046281 6.14245848,12.6447895 7.4971858,12.4166364 M7.66678736,11.5016169 C7.48157534,10.7605168 7.20375731,9.64886672 6.83333327,8.16666658 C5.06733331,8.10799992 3.5,7.08399994 3.5,5.83333329 C3.5,4.54466665 4.99266664,3.5 6.83333327,3.5 C8.67399991,3.5 9.5,4.16666665 10.1666665,5.5 C10.1774878,5.52164246 10.3840843,6.18946536 10.7868687,7.50326246" id="Combined-Shape" stroke="#4C4F69" stroke-linecap="round" stroke-linejoin="round"></path>
        <line x1="7" y1="5.5" x2="8" y2="5.5" id="Line" stroke="#4C4F69"></line>
    </g>
</svg>