<?xml version="1.0" encoding="UTF-8"?>
<svg width="16px" height="16px" viewBox="0 0 16 16" version="1.1" xmlns="http://www.w3.org/2000/svg" xmlns:xlink="http://www.w3.org/1999/xlink">
    <title>deno_lock</title>
    <g id="deno_lock" stroke="none" stroke-width="1" fill="none" fill-rule="evenodd">
        <g id="deno" transform="translate(0.5, 0.5)">
            <path d="M12,6 C12,3.85640649 10.8564063,1.87564436 9,0.803847584 C7.14359343,-0.267949195 4.85640636,-0.267949195 3,0.803847584 C1.14359346,1.87564436 0,3.85640649 0,6 C0,8.14359354 1.14359348,10.1243557 3,11.1961524 C4.22711588,11.9046281 5.64245848,12.1447895 6.9971858,11.9166364" id="Path" stroke="#4C4F69" stroke-linecap="round" stroke-linejoin="round"></path>
            <path d="M7.16678736,11.0016169 C6.98157534,10.2605168 6.70375731,9.14886672 6.33333327,7.66666658 C4.56733331,7.60799992 3,6.58399994 3,5.33333329 C3,4.04466665 4.49266664,3 6.33333327,3 C8.17399991,3 9,3.66666665 9.66666655,5 C9.67748779,5.02164246 9.88408432,5.68946536 10.2868687,7.00326246" id="Path" stroke="#4C4F69" stroke-linecap="round" stroke-linejoin="round"></path>
            <circle id="Oval" fill="#4C4F69" fill-rule="nonzero" cx="7" cy="5" r="1"></circle>
        </g>
        <g id="Lock" transform="translate(9.5018, 8.5011)" stroke="#8C8FA1">
            <path d="M5.49667857,2.999493 C5.77266266,2.999493 5.99639197,3.22324661 5.99639197,3.49926067 L5.99639197,6.49769784 C5.99639197,6.77371191 5.77266266,6.99746551 5.49667857,6.99746551 L0.4997134,6.99746551 C0.22372931,6.99746551 0,6.77371191 0,6.49769784 L0,3.49909183 C0,3.22307777 0.22372931,2.99932416 0.4997134,2.99932416 L5.49667857,2.999493 Z" id="Path"></path>
            <path d="M1.4991402,2.999493 L1.4991402,1.4997465 C1.4991402,0.671459379 2.17052666,-1.77635684e-15 2.99872384,-1.77635684e-15 C3.82692102,-1.77635684e-15 4.49830748,0.671459379 4.49830748,1.4997465 L4.49830748,2.999493" id="Path"></path>
        </g>
    </g>
</svg>