<?xml version="1.0" encoding="UTF-8"?>
<svg width="16px" height="16px" viewBox="0 0 16 16" version="1.1" xmlns="http://www.w3.org/2000/svg" xmlns:xlink="http://www.w3.org/1999/xlink">
    <title>deno</title>
    <g id="deno" stroke="none" stroke-width="1" fill="none" fill-rule="evenodd">
        <g transform="translate(1.5, 1.5)">
            <path d="M0,6.5 C0,8.82222649 1.23889296,10.9680522 3.24999997,12.1291653 C5.26110699,13.2902785 7.73889301,13.2902785 9.75000003,12.1291653 C11.761107,10.9680522 13,8.82222649 13,6.5 C13,4.17777377 11.7611071,2.0319481 9.75000004,0.870834898 C7.73889302,-0.290278299 5.26110698,-0.290278299 3.24999996,0.870834898 C1.23889294,2.0319481 0,4.17777377 0,6.5" id="Path" stroke="#4C4F69" stroke-linecap="round" stroke-linejoin="round"></path>
            <path d="M7.67277778,12.3036667 L6.61111111,8.05555556 C4.69794444,7.992 3,6.88266667 3,5.52777778 C3,4.13172222 4.61705556,3 6.61111111,3 C8.60516667,3 9.5,3.72222222 10.2222222,5.16666667 C10.2395556,5.20133333 10.7205556,6.76638889 11.6666667,9.86111111" id="Path" stroke="#4C4F69" stroke-linecap="round" stroke-linejoin="round"></path>
            <circle id="Oval" fill="#4C4F69" fill-rule="nonzero" cx="7" cy="5" r="1"></circle>
        </g>
    </g>
</svg>