<?xml version="1.0" encoding="UTF-8"?>
<svg width="16px" height="16px" viewBox="0 0 16 16" version="1.1" xmlns="http://www.w3.org/2000/svg" xmlns:xlink="http://www.w3.org/1999/xlink">
    <title>detox</title>
    <g id="detox" stroke="none" stroke-width="1" fill="none" fill-rule="evenodd" stroke-linecap="round">
        <path d="M5.5,8.5 L10.5,8.5 M8,2.5 C1.5,2.5 0.5,7 0.5,10 C0.5,12.1571974 2.5,13.5 8,13.5 C13.5,13.5 15.5,12.25 15.5,10 C15.5,7 14.5,2.5 8,2.5 Z" id="Combined-Shape" stroke="#04A5E5"></path>
        <path d="M5.5,6.5 L10.5,6.5 C11.6045695,6.5 12.5,7.3954305 12.5,8.5 C12.5,9.6045695 11.6045695,10.5 10.5,10.5 L5.5,10.5 C4.3954305,10.5 3.5,9.6045695 3.5,8.5 C3.5,7.3954305 4.3954305,6.5 5.5,6.5 Z" id="Rectangle" stroke="#4C4F69"></path>
    </g>
</svg>