<svg width="100" height="100" clip-rule="evenodd" fill-rule="evenodd" stroke-linejoin="round" stroke-miterlimit="2" viewBox="0 0 100 100" xmlns="http://www.w3.org/2000/svg"><g fill="none"><path d="m0 0h100v100h-100z" stroke-width="6.25"/><path d="m505.678 28.48 37.68 10.096s-4.576 38.426-2.976 56.899c-24.94 17.067-48.183 58.638-48.183 58.638s.278-46.672-12.409-74.873c10.859-14.069 25.888-50.76 25.888-50.76z" stroke="#fff" stroke-width="17.26" transform="matrix(.579284375 0 0 .579284375 -244.43375 -9.5381875)"/><path d="m47.458 41.902-8.973 33.506" stroke="#fff" stroke-linecap="round" stroke-miterlimit="1.5" stroke-width="10.53" transform="matrix(.94925625 0 0 .94925625 6.092375 .9274625)"/></g><path d="m484.914 157.459c6.407-1.717 13.003 2.091 14.72 8.498 1.716 6.407-2.092 13.003-8.499 14.72s-13.003-2.091-14.719-8.498c-1.717-6.408 2.091-13.003 8.498-14.72z" fill="#fff" transform="matrix(.49913875 0 0 .49913875 -206.538125 8.952875)"/></svg>