<?xml version="1.0" encoding="UTF-8"?>
<svg width="16px" height="16px" viewBox="0 0 16 16" version="1.1" xmlns="http://www.w3.org/2000/svg" xmlns:xlink="http://www.w3.org/1999/xlink">
    <title>dhall</title>
    <g id="dhall" stroke="none" stroke-width="1" fill="none" fill-rule="evenodd" stroke-linecap="square">
        <path d="M3.5,11.5 L5.5,4.5 L11.5,2.5 L13.5,4.5 L11.5,10.5 L4.5,12.5 L7.5,9.5 C8.05228475,9.5 8.5,9.05228475 8.5,8.5 C8.5,7.94771525 8.05228475,7.5 7.5,7.5 C6.94771525,7.5 6.5,7.94771525 6.5,8.5 L3.5,11.5 Z M10.25,1.25 L14.75,5.75 M2,14.5 C2.27614237,14.5 2.5,14.2761424 2.5,14 C2.5,13.7238576 2.27614237,13.5 2,13.5 C1.72385763,13.5 1.5,13.7238576 1.5,14 C1.5,14.2761424 1.72385763,14.5 2,14.5 Z" id="Combined-Shape" stroke="#4C4F69"></path>
    </g>
</svg>