<?xml version="1.0" encoding="UTF-8"?>
<svg width="16px" height="16px" viewBox="0 0 16 16" version="1.1" xmlns="http://www.w3.org/2000/svg" xmlns:xlink="http://www.w3.org/1999/xlink">
    <title>django</title>
    <g id="django" stroke="none" stroke-width="1" fill="none" fill-rule="evenodd" stroke-linecap="round" stroke-linejoin="round">
        <path d="M12.501669,6.5 L12.501669,10.8715221 C12.501669,12.5122354 12.3773628,13.2992383 12.004752,13.9793605 C11.6594578,14.6330962 11.4390468,15.046684 10.5,15.5 L8.5,14.5 C9.43889338,14.0730706 9.80468184,13.7928754 10.094729,13.219189 C10.3985879,12.6321611 10.49527,11.9520389 10.49527,10.1645685 L10.49527,6.5 L12.501669,6.5 Z" id="Path" stroke="#40A02B"></path>
        <polygon id="Path" stroke="#40A02B" points="12.5 4.5 10.5 4.5 10.5 2.5 12.5 2.5"></polygon>
        <path d="M8.49983993,12.2137665 C7.36206581,12.418219 6.52666301,12.5 5.61922892,12.5 C2.91165306,12.5 1.5,11.3417386 1.5,9.12047554 C1.5,6.98084204 3.21809099,5.59101923 5.536858,5.59101923 C5.89701441,5.59101923 6.17057317,5.61827957 6.501757,5.70006058 L6.501757,2.50015145 L8.5,2.50015145 L8.49983993,12.2137665 Z" id="Path" stroke="#40A02B"></path>
        <path d="M3.501302,9.07943359 C3.501302,10.1971074 4.34061081,10.550465 5.478545,10.550465 C5.72345136,10.550465 6.1851395,10.5366831 6.501757,10.495944 L6.501757,7.499444 C6.24276452,7.41796588 5.76666994,7.390706 5.492791,7.390706 C4.36942314,7.39085745 3.501302,7.93495381 3.501302,9.07943359 Z" id="Path" stroke="#40A02B"></path>
    </g>
</svg>