<?xml version="1.0" encoding="UTF-8" standalone="no"?>
<!-- Created with Inkscape (http://www.inkscape.org/) -->

<svg
   width="100.0px"
   height="100.0px"
   viewBox="0 0 100.0 100.0"
   version="1.1"
   id="SVGRoot"
   sodipodi:docname="django.svg"
   inkscape:version="1.2.1 (9c6d41e410, 2022-07-14)"
   xmlns:inkscape="http://www.inkscape.org/namespaces/inkscape"
   xmlns:sodipodi="http://sodipodi.sourceforge.net/DTD/sodipodi-0.dtd"
   xmlns="http://www.w3.org/2000/svg"
   xmlns:svg="http://www.w3.org/2000/svg">
  <defs
     id="defs22695" />
  <sodipodi:namedview
     id="namedview32486"
     pagecolor="#181825"
     bordercolor="#000000"
     borderopacity="0.24705882"
     inkscape:showpageshadow="2"
     inkscape:pageopacity="0"
     inkscape:pagecheckerboard="0"
     inkscape:deskcolor="#313244"
     inkscape:document-units="px"
     showgrid="true"
     inkscape:zoom="0.74564395"
     inkscape:cx="12.070104"
     inkscape:cy="22.799085"
     inkscape:window-width="1920"
     inkscape:window-height="1017"
     inkscape:window-x="1912"
     inkscape:window-y="-8"
     inkscape:window-maximized="1"
     inkscape:current-layer="SVGRoot"
     showborder="false">
    <inkscape:grid
       type="xygrid"
       id="grid32609" />
  </sodipodi:namedview>
  <path
     d="m 85.838057,30.503123 v 32.12168 c 0,11.068207 -0.809427,16.376929 -3.237707,20.96554 -2.251043,4.409979 -5.219405,7.199709 -11.338949,10.257388 L 58.39431,87.729583 c 6.118148,-2.879047 9.087906,-5.398038 10.977499,-9.267934 1.980304,-3.959213 2.609703,-8.547826 2.609703,-20.605486 V 30.503123 Z M 57.891907,6.1519427 V 70.292023 c -7.107602,1.349509 -12.327008,1.889592 -17.995785,1.889592 -16.915619,0 -25.734179,-7.647682 -25.734179,-22.315052 0,-14.12728 9.358643,-23.30451 23.844587,-23.30451 2.249648,0 3.959212,0.18003 6.028832,0.72011 V 6.1533427 H 57.893303 Z M 39.35604,37.719583 c -7.018287,0 -11.066815,4.31927 -11.066815,11.87624 0,7.37974 3.868501,11.42966 10.977498,11.42966 1.529538,0 2.789731,-0.0907 4.768639,-0.36005 V 38.438293 C 42.416509,37.899613 41.067,37.719583 39.35604,37.719583 Z M 85.838057,6.2259127 V 20.443903 H 71.982907 V 6.2259127 h 13.857941 z"
     id="path32443"
     style="fill:none;stroke:#1a875e;stroke-width:5;stroke-linecap:round;stroke-linejoin:round;stroke-dasharray:none;stroke-opacity:1" />
</svg>
