<?xml version="1.0" encoding="UTF-8"?>
<svg width="16px" height="16px" viewBox="0 0 16 16" version="1.1" xmlns="http://www.w3.org/2000/svg" xmlns:xlink="http://www.w3.org/1999/xlink">
    <title>docker_ignore</title>
    <g id="docker_ignore" stroke="none" stroke-width="1" fill="none" fill-rule="evenodd">
        <g id="docker" stroke="#8C8FA1">
            <path d="M0.499993127,8.50375277 L10.992888,8.50375277 L11.75,8 C11.4257868,6.89070924 11.2900066,5.60960301 11.75,4.5 C12.7571032,5.09344323 12.7430488,6.3768176 13.4911963,6.50187627 C14.2562565,6.41303934 14.7247827,6.51046196 15.4898429,7.020845 C15.4898429,7.020845 14.5218145,8.78798465 12.9915346,9.0048467 C11.0622108,12.6510643 8.49461158,14.4963568 6.01075531,14.5002602 C0.000424567619,14.5093823 0.499993127,8.50375277 0.499993127,8.50375277 Z" id="Path" stroke-linecap="round" stroke-linejoin="round"></path>
            <path d="M1.5,9 L1.5,6 M1,6.5 L10,6.5 M3.5,9 L3.5,4 M3,4.5 L8,4.5 M5,2.5 L8,2.5 M5.5,9 L5.5,2 M7.5,9 L7.5,2 M9.5,9 L9.5,6" id="Combined-Shape"></path>
        </g>
    </g>
</svg>