<?xml version="1.0" encoding="UTF-8"?>
<svg width="16px" height="16px" viewBox="0 0 16 16" version="1.1" xmlns="http://www.w3.org/2000/svg" xmlns:xlink="http://www.w3.org/1999/xlink">
    <title>docker</title>
    <g id="docker" stroke="none" stroke-width="1" fill="none" fill-rule="evenodd">
        <g stroke="#1E66F5">
            <path d="M0.5,8.5 L11,8.5 L12,8 C11.6755673,6.89174906 11.5396951,5.60880704 12,4.50024414 C13.0077851,5.0931311 12.7513459,6.37505855 13.5,6.5 C14.2655782,6.41124634 14.7344218,6.50857764 15.5,7.01848226 C15.5,7.01848226 14.5313161,8.78396544 13,9.00062421 C11.0693698,12.643424 8.50003192,14.4869868 6.01449373,14.4908704 C9.31633089e-05,14.5 0.5,8.5 0.5,8.5 Z" id="Path" stroke-linecap="round" stroke-linejoin="round"></path>
            <path d="M1.5,9 L1.5,6 M1,6.5 L10,6.5 M3.5,9 L3.5,4 M3,4.5 L8,4.5 M5,2.5 L8,2.5 M5.5,9 L5.5,2 M7.5,9 L7.5,2 M9.5,9 L9.5,6" id="Combined-Shape"></path>
        </g>
    </g>
</svg>