<?xml version="1.0" encoding="UTF-8"?>
<svg width="16px" height="16px" viewBox="0 0 16 16" version="1.1" xmlns="http://www.w3.org/2000/svg" xmlns:xlink="http://www.w3.org/1999/xlink">
    <title>docusaurus</title>
    <g id="docusaurus" stroke="none" stroke-width="1" fill="none" fill-rule="evenodd">
        <path d="M14.5,4.5 C14.5,4.27777778 14.5,3.94444444 14.5,3.5 C14.5,2.94771525 14.0522847,2.5 13.5,2.5 L3.5,2.5 C2.94771525,2.5 2.5,2.94771525 2.5,3.5 L2.5,12.5 C1.5,12.5 0.833333333,12.1666667 0.5,11.5 C0.5,14.5 1.16666667,14.5 2.5,14.5 L13.5,14.5 L14.5,14.5 C15.0522847,14.5 15.5,14.0522847 15.5,13.5 C15.5,12.9477153 15.0522847,12.5 14.5,12.5 C14.5,10.7710092 14.5,9.43767632 14.5,8.5 C14.5,7.98343235 14.5,7.81676599 14.5,7 M5.25,2.25 L4.5,1.5 L3.5,2.5 L2.5,1.5 L2.5,2.5 L1.5,2.5 L2.5,3.5 L1.5,4.5 L2.5,5.5 L1.5,6.5 L2.5,7.5 L1.5,8.5 L2.25,9.25 M15,9.5 C15.2761424,9.5 15.5,9.27614237 15.5,9 C15.5,8.72385763 15.2761424,8.5 15,8.5 L14.5,8.5 L9.5,8.5 C9.5,8.64923842 9.5,8.81590508 9.5,9 C9.5,9.27614237 9.27614237,9.5 9,9.5 L8.5,9.5 C8.5,10.8333333 8.5,11.8333333 8.5,12.5 L9.5,12.5 C10.0522847,12.5 10.5,12.9477153 10.5,13.5 C10.5,14.0522847 10.0522847,14.5 9.5,14.5" id="Combined-Shape" stroke="#40A02B" stroke-linecap="round" stroke-linejoin="round"></path>
        <path d="M9.5,6.5 L10.5,5.5 L11.5,6.5 L12.5,5.5 L13.5,6.5 L14.5,5.5 M6.5,5.5 C6.5,4.94771525 6.05228475,4.5 5.5,4.5 C4.94771525,4.5 4.5,4.94771525 4.5,5.5" id="Combined-Shape" stroke="#4C4F69" stroke-linecap="round" stroke-linejoin="round"></path>
        <path d="M10,10.5 L13,10.5 M13,12.5 L11,12.5" id="Combined-Shape" stroke="#DF8E1D"></path>
    </g>
</svg>