<?xml version="1.0" encoding="UTF-8"?>
<svg width="16px" height="16px" viewBox="0 0 16 16" version="1.1" xmlns="http://www.w3.org/2000/svg" xmlns:xlink="http://www.w3.org/1999/xlink">
    <title>drawio</title>
    <g id="drawio" stroke="none" stroke-width="1" fill="none" fill-rule="evenodd">
        <path d="M2.25,10.5 L4.75,10.5 C5.16421356,10.5 5.5,10.8357864 5.5,11.25 L5.5,13.75 C5.5,14.1642136 5.16421356,14.5 4.75,14.5 L2.25,14.5 C1.83578644,14.5 1.5,14.1642136 1.5,13.75 L1.5,11.25 C1.5,10.8357864 1.83578644,10.5 2.25,10.5 Z M11.25,10.5 L13.75,10.5 C14.1642136,10.5 14.5,10.8357864 14.5,11.25 L14.5,13.75 C14.5,14.1642136 14.1642136,14.5 13.75,14.5 L11.25,14.5 C10.8357864,14.5 10.5,14.1642136 10.5,13.75 L10.5,11.25 C10.5,10.8357864 10.8357864,10.5 11.25,10.5 Z M6.25,1.5 L9.75,1.5 C10.1642136,1.5 10.5,1.83578644 10.5,2.25 L10.5,4.75 C10.5,5.16421356 10.1642136,5.5 9.75,5.5 L6.25,5.5 C5.83578644,5.5 5.5,5.16421356 5.5,4.75 L5.5,2.25 C5.5,1.83578644 5.83578644,1.5 6.25,1.5 Z M3.5,10.5 L7.5,5.5 M12.5,10.5 L8.5,5.5" id="Combined-Shape" stroke="#FE640B"></path>
    </g>
</svg>