<svg clip-rule="evenodd" fill-rule="evenodd" stroke-miterlimit="1.5" viewBox="0 0 100 100" xmlns="http://www.w3.org/2000/svg"><path d="m30.974 65.959s-4.219 2.034-6.955 3.353c-1.503.725-3.151 1.101-4.82 1.101h-14.501v-41.878h19.822c2.678 0 5.247 1.064 7.141 2.958s2.959 4.463 2.959 7.142v17.088c0 8.71 7.06 15.771 15.77 15.771h.008c8.71 0 15.771-7.061 15.771-15.771v-27.217h19.056c2.673 0 5.236 1.062 7.126 2.952s2.951 4.453 2.951 7.125v.377c0 5.358-4.344 9.702-9.703 9.702h-11.799 10.573c6.036 0 10.929 4.894 10.929 10.93v.017c0 2.899-1.151 5.679-3.201 7.729s-4.83 3.201-7.729 3.201h-16.238" fill="none" stroke="#f38ba8" stroke-width="5"/><g fill="#eba0ac"><path d="m50 46.719c5.069 0 9.184 4.115 9.184 9.184s-4.115 9.184-9.184 9.184-9.184-4.115-9.184-9.184 4.115-9.184 9.184-9.184zm0 5c-2.309 0-4.184 1.875-4.184 4.184s1.875 4.184 4.184 4.184 4.184-1.875 4.184-4.184-1.875-4.184-4.184-4.184z"/><circle cx="58.285996784" cy="44.14001016" r="2.500000544" stroke-width=".812744"/></g></svg>