<?xml version="1.0" encoding="UTF-8"?>
<svg width="16px" height="16px" viewBox="0 0 16 16" version="1.1" xmlns="http://www.w3.org/2000/svg" xmlns:xlink="http://www.w3.org/1999/xlink">
    <title>editorconfig</title>
    <g id="editorconfig" stroke="none" stroke-width="1" fill="none" fill-rule="evenodd" stroke-linecap="round" stroke-linejoin="round">
        <path d="M3.86039875,6.46307892 C4.08825582,6.53649358 4.32035782,6.61333616 4.52384076,6.74331153 C4.77182703,6.90185292 5.0263861,7.08367561 5.18303783,7.33919861 C5.27752183,7.49345509 5.34913797,7.68513306 5.32900877,7.86709857 C5.30627783,8.07105992 5.1997437,8.28459089 5.03980556,8.40456815 C4.83467943,8.55839614 4.54766716,8.542542 4.29502516,8.55168313 C4.00198782,8.56210972 3.70799195,8.50797713 3.42139048,8.4432751 C3.20804835,8.39514137 3.00018354,8.32029841 2.79724834,8.23659998 C2.57897661,8.14661703 2.3587878,8.05320616 2.1620146,7.9199457 C1.97825007,7.79539788 1.77641033,7.66970741 1.6616602,7.47488718 C1.57566606,7.32862919 1.52363139,7.14437839 1.54595153,6.97426777 C1.57018873,6.79073112 1.66919153,6.60705164 1.80612486,6.48893117 C1.98482287,6.33467469 2.2363694,6.29182566 2.46614354,6.25997456 C2.69057727,6.2288376 2.91980368,6.26797304 3.14410048,6.29996698 C3.38619861,6.33438902 3.62692742,6.38766464 3.86026182,6.46293609 L3.86039875,6.46307892 Z M7.9096544,8.16604192 C8.14230413,8.2096051 8.3763232,8.25273978 8.6018524,8.3264401 C8.85107107,8.40785324 9.10973814,8.48498148 9.32718828,8.63595287 C9.50410615,8.75864391 9.70594588,8.89733191 9.77769895,9.10586383 C9.83000748,9.25754937 9.79960828,9.76151432 9.73388028,9.907201 C9.65870388,10.0734552 9.50999428,10.200431 9.36005228,10.297127 C9.18286054,10.4113911 8.97390027,10.4788072 8.76672014,10.503374 C8.57665667,10.5257983 8.38508693,10.4719512 8.19529733,10.446099 C7.95224066,10.4128196 7.70808853,10.3811113 7.47009839,10.31998 C7.19664252,10.2498504 6.91045185,10.1937179 6.66780598,10.044889 C6.50019958,9.94205135 6.34642345,9.80136364 6.23920464,9.63211 C6.17922784,9.53741366 6.14800704,9.42314995 6.12938411,9.311314 C6.10610544,9.17191185 6.08693478,8.70136905 6.12938411,8.56710878 C6.16224811,8.46341414 6.23756144,8.37571648 6.31616118,8.30358729 C6.42324305,8.20517736 6.55209731,8.1246212 6.68985225,8.08577142 C6.87717705,8.03292429 7.07833212,8.06234729 7.27222972,8.07434501 C7.48625652,8.08748538 7.69850319,8.12633516 7.9096544,8.16604192 Z M3.59036622,6.02958964 C3.59036622,6.02958964 3.88230809,5.41684861 4.10783729,5.17589428 C4.29680529,4.97407538 4.54438076,4.83967228 4.7827817,4.70655465 C5.01788748,4.57570224 5.26443696,4.46856942 5.51907224,4.38661527 C5.75918226,4.30945701 6.00568667,4.25590039 6.25536278,4.22664559 C6.59413585,4.18665317 6.93838625,4.17308431 7.27784399,4.20522108 C7.61743866,4.23750067 7.9568964,4.30520213 8.280196,4.41860921 C8.62745894,4.54030044 8.96732747,4.70098427 9.27131948,4.91437241 C9.52355068,5.0914817 9.74661508,5.3151536 9.94626388,5.55425115 C10.194661,5.85233752 10.4070446,6.18527443 10.5861534,6.53306566 C10.7548552,6.8604322 10.9041126,7.20450985 10.9901067,7.56515579 C11.0725406,7.91194722 11.1122512,8.27502127 11.092259,8.6318108 C11.073773,8.96246243 10.9839447,9.28682953 10.8876806,9.602484 C10.7949975,9.90850941 10.6752121,10.2048742 10.5298738,10.4877448 C10.4203271,10.6999903 10.280929,10.8940964 10.1446803,11.0887738 C10.0045975,11.2890215 9.85972202,11.4865555 9.70074241,11.6709492 C9.48192294,11.924901 9.25105334,12.1694261 9.00115001,12.3900986 C8.64033067,12.7086097 8.26171,13.0106953 7.85227933,13.2570772 C7.35165106,13.5580201 6.81295532,13.790119 6.26905611,13.9936519 C5.74254744,14.1907574 5.20645343,14.3864346 4.65159956,14.4592779 C4.25202809,14.5119822 3.83794169,14.5225516 3.44384755,14.4362823 C3.10069261,14.3610108 2.76082407,14.2223228 2.4729902,14.0132196 C2.2265102,13.8341107 2.03151713,13.5815871 1.8588442,13.3250643 C1.77641033,13.2026589 1.71232553,13.0661134 1.662071,12.925997 C1.59935553,12.7518872 1.56101419,12.5682077 1.53335366,12.3846711 C1.50843179,12.2197023 1.50199593,12.051877 1.50021579,11.8850514 C1.49843566,11.7285097 1.50788406,11.5718251 1.52061886,11.4157118 C1.53691393,11.2157497 1.55197659,11.014645 1.592235,10.8183964 C1.63851846,10.5930106 1.71328406,10.3746234 1.7865434,10.1570932 C1.88130127,9.87557511 1.9820842,9.5953425 2.10354407,9.32510799 C2.23363074,9.03559143 2.54310007,8.48241054 2.54310007,8.48241054 M5.0296725,4.47974048 C5.0103649,4.29363289 4.9713389,4.10866795 4.97174648,3.92156055 C4.97243436,3.69888846 4.98955103,3.47307411 5.0440505,3.25782918 C5.0769145,3.1282823 5.1336049,3.00544844 5.1960465,2.88832777 C5.2757417,2.73835619 5.3677609,2.59324084 5.47799224,2.46583641 C5.60164304,2.32300633 5.75117424,2.20631416 5.89741904,2.08876501 C6.01545558,1.99392584 6.13472451,1.89808686 6.26618051,1.82481503 C6.41489011,1.74183075 6.57469131,1.67969967 6.73613572,1.62870933 C6.91538145,1.57214862 7.09914599,1.52458621 7.28564919,1.50801792 C7.41546199,1.49659151 7.54897199,1.49402057 7.67618306,1.52315791 C7.79860146,1.5511526 7.91718573,1.60428539 8.02330906,1.67398647 C8.12811213,1.74262984 8.2209924,1.82931953 8.29799733,1.93036645 C8.3861824,2.04705863 8.46574067,2.17860513 8.50052173,2.32257784 C8.52407427,2.42013078 8.51175027,2.52439674 8.50052173,2.62423496 C8.4793668,2.820093 8.43569054,3.01258366 8.37043507,3.19755489 C8.3303136,3.30910518 8.27006293,3.41208566 8.21131853,3.514352 C8.08807853,3.72831145 7.941286,3.9265596 7.80626973,4.13280623 M10.8760412,6.58191355 C10.8760412,6.58191355 11.2060506,6.08886412 11.428978,5.90518465 C11.6286268,5.74078723 11.8616874,5.60695545 12.1087151,5.5431104 C12.4667958,5.45069934 12.8576035,5.43370256 13.2151365,5.52811324 C13.493385,5.6015279 13.7619113,5.75621288 13.9670374,5.96560177 C14.1747653,6.1775616 14.3145742,6.46293609 14.4082366,6.74988172 C14.4825914,6.97783852 14.5129906,7.22650568 14.4949154,7.46646021 C14.4767033,7.70927134 14.4194651,7.95893831 14.2997854,8.16789871 C14.1108174,8.49755053 13.803539,8.74093298 13.5115971,8.97488865 C13.2562165,9.17956414 12.9770094,9.35824457 12.680001,9.48779145 C12.4362596,9.59419986 12.1752647,9.66061584 11.9134482,9.69903713 C11.6771012,9.73360201 11.1976976,9.71403429 11.1976976,9.71403429" id="Combined-Shape" stroke="#DC8A78"></path>
    </g>
</svg>