<?xml version="1.0" encoding="UTF-8" standalone="no"?>
<!-- Created with Inkscape (http://www.inkscape.org/) -->

<svg
   width="100.0px"
   height="100.0px"
   viewBox="0 0 100.0 100.0"
   version="1.1"
   id="SVGRoot"
   sodipodi:docname="editorconfig.svg"
   inkscape:version="1.2.1 (9c6d41e410, 2022-07-14)"
   xmlns:inkscape="http://www.inkscape.org/namespaces/inkscape"
   xmlns:sodipodi="http://sodipodi.sourceforge.net/DTD/sodipodi-0.dtd"
   xmlns="http://www.w3.org/2000/svg"
   xmlns:svg="http://www.w3.org/2000/svg">
  <defs
     id="defs44872" />
  <sodipodi:namedview
     id="namedview32486"
     pagecolor="#181825"
     bordercolor="#000000"
     borderopacity="0.24705882"
     inkscape:showpageshadow="2"
     inkscape:pageopacity="0"
     inkscape:pagecheckerboard="0"
     inkscape:deskcolor="#313244"
     inkscape:document-units="px"
     showgrid="true"
     inkscape:zoom="1.4912879"
     inkscape:cx="-175.01651"
     inkscape:cy="-30.17526"
     inkscape:window-width="1920"
     inkscape:window-height="1017"
     inkscape:window-x="1912"
     inkscape:window-y="-8"
     inkscape:window-maximized="1"
     inkscape:current-layer="SVGRoot"
     showborder="false">
    <inkscape:grid
       type="xygrid"
       id="grid32609" />
  </sodipodi:namedview>
  <path
     style="fill:none;stroke:#fefefe;stroke-width:5;stroke-linecap:round;stroke-linejoin:round;stroke-dasharray:none;stroke-opacity:1;paint-order:fill markers stroke"
     d="m 19.768623,39.239172 c 1.664853,0.514778 3.359268,1.052829 4.845375,1.962896 1.810972,1.10901 3.670752,2.382883 4.814439,4.172159 0.690416,1.080142 1.212956,2.421846 1.065509,3.695282 -0.165449,1.428919 -0.943518,2.923878 -2.111478,3.763552 -1.498227,1.077112 -3.594923,0.966278 -5.439056,1.029725 -2.140546,0.07365 -4.287062,-0.305921 -6.380511,-0.758508 -1.558242,-0.336877 -3.075893,-0.861245 -4.55837,-1.447645 -1.593486,-0.630308 -3.2012133,-1.283436 -4.6383563,-2.216769 -1.342435,-0.871826 -2.816287,-1.751925 -3.653798,-3.116031 -0.62871,-1.024016 -1.008502,-2.314012 -0.844905,-3.504439 0.176711,-1.285853 0.899739,-2.571631 1.899931,-3.398829 1.304656,-1.079004 3.141502,-1.37901 4.819749,-1.602312 1.6385153,-0.218016 3.3132093,0.056 4.9509873,0.279498 1.768139,0.241285 3.525596,0.614264 5.230484,1.141421 z"
     id="path21797"
     sodipodi:nodetypes="aaaaaaaaaaaaaaa" />
  <path
     style="fill:none;stroke:#fefefe;stroke-width:5;stroke-linecap:round;stroke-linejoin:round;stroke-dasharray:none;stroke-opacity:1;paint-order:fill markers stroke"
     d="m 44.684991,50.520569 c 1.563495,0.0925 3.113102,0.364902 4.654622,0.642017 1.699167,0.305454 3.408377,0.607582 5.055882,1.123529 1.820391,0.570089 3.708234,1.110494 5.296638,2.166806 1.291559,0.858908 2.76544,1.830771 3.290336,3.290336 0.38193,1.062026 0.159891,2.349559 -0.321009,3.370589 -0.548074,1.16365 -1.634413,2.052343 -2.728572,2.728571 -1.295264,0.800518 -2.820637,1.272923 -4.333612,1.444537 -1.388549,0.1575 -2.78754,-0.219404 -4.173109,-0.401261 -1.774679,-0.232926 -3.558635,-0.454888 -5.296639,-0.882772 -1.996031,-0.491407 -4.08638,-0.884152 -5.858403,-1.92605 -1.223919,-0.719628 -2.346763,-1.70474 -3.129831,-2.889076 -0.438664,-0.663448 -0.666776,-1.463372 -0.802521,-2.247059 -0.168926,-0.975254 -0.309709,-2.029255 0,-2.969328 0.239403,-0.726668 0.790066,-1.340194 1.364285,-1.845798 0.781975,-0.688533 1.722827,-1.25268 2.728573,-1.52479 1.368824,-0.370342 2.837797,-0.164009 4.25336,-0.08025 z"
     id="path21853"
     sodipodi:nodetypes="aaaaaaaaaaaaaaaaa" />
  <path
     style="fill:none;stroke:#fefefe;stroke-width:5;stroke-linecap:round;stroke-linejoin:round;stroke-dasharray:none;stroke-opacity:1;paint-order:fill markers stroke"
     d="m 17.796543,36.20539 c 0,0 2.132686,-4.290534 3.779276,-5.977468 1.379239,-1.413033 3.187909,-2.354178 4.928846,-3.285898 1.711919,-0.916191 3.522031,-1.66641 5.376923,-2.240385 1.748971,-0.541198 3.557748,-0.914305 5.376925,-1.120192 2.47402,-0.279999 4.988361,-0.374777 7.46795,-0.149359 2.479589,0.225418 4.958519,0.700343 7.31859,1.493589 2.536552,0.852564 5.018732,1.977129 7.238604,3.471498 1.841913,1.239937 3.471803,2.805325 4.928845,4.48077 1.814342,2.086301 3.365279,4.41681 4.673876,6.852394 1.231245,2.291612 2.321374,4.701137 2.948741,7.22579 0.603322,2.427893 0.892653,4.970473 0.746795,7.467949 -0.135225,2.315398 -0.791134,4.585425 -1.49359,6.795834 -0.679127,2.137004 -1.550359,4.224282 -2.613782,6.198398 -0.800051,1.485197 -1.817601,2.845081 -2.812196,4.207679 -1.023603,1.402339 -2.081338,2.785378 -3.242151,4.076438 -1.598581,1.777948 -3.283776,3.490238 -5.109139,5.034459 -2.635162,2.229298 -5.399394,4.345485 -8.389729,6.069359 -3.656265,2.107767 -7.590117,3.733041 -11.56251,5.158188 -3.844676,1.37934 -7.759661,2.74916 -11.812172,3.26027 -2.917282,0.36794 -5.942097,0.4423 -8.819686,-0.16216 -2.506294,-0.52648 -4.987763,-1.49784 -7.0892453,-2.96156 -1.800641,-1.254173 -3.224701,-3.022325 -4.486077,-4.817926 -0.602026,-0.856997 -1.069023,-1.813539 -1.437032,-2.794074 -0.457418,-1.218765 -0.737521,-2.504588 -0.939899,-3.790536 -0.181658,-1.154291 -0.228305,-2.328706 -0.242158,-3.497123 -0.013,-1.096354 0.0564,-2.193415 0.149357,-3.285897 0.11912,-1.399808 0.228719,-2.808303 0.522758,-4.182051 0.337857,-1.57847 0.883892,-3.10715 1.418909,-4.630131 0.69251,-1.971294 1.428179,-3.933173 2.315065,-5.825 0.950389,-2.027285 3.2112183,-5.89968 3.2112183,-5.89968"
     id="path22581"
     sodipodi:nodetypes="caaaaaaaaaaaaaaaaaaaaaaaaaaaaac" />
  <path
     style="fill:none;stroke:#fefefe;stroke-width:5;stroke-linecap:round;stroke-linejoin:round;stroke-dasharray:none;stroke-opacity:1;paint-order:fill markers stroke"
     d="m 28.30779,25.353749 c -0.140817,-1.302558 -0.426028,-2.597532 -0.422451,-3.907672 0.0043,-1.55895 0.128761,-3.140011 0.528064,-4.646961 0.240351,-0.907074 0.65362,-1.767 1.108934,-2.587513 0.582843,-1.05033 1.254976,-2.065122 2.059448,-2.957157 0.902724,-1.000979 1.995008,-1.8176665 3.062771,-2.6403175 0.862481,-0.664495 1.732966,-1.334877 2.693124,-1.848224 1.086707,-0.581006 2.253014,-1.015872 3.432415,-1.372966 1.308427,-0.39616 2.651161,-0.728516 4.013285,-0.844902 0.947713,-0.08098 1.922461,-0.09815 2.851544,0.105612 0.894059,0.196089 1.760346,0.568109 2.534706,1.056127 0.759321,0.478539 1.451103,1.090473 2.006642,1.795417 0.643453,0.8165 1.224437,1.737904 1.47858,2.7459305 0.172126,0.682721 0.08169,1.412925 0,2.112256 -0.159497,1.365486 -0.469393,2.725451 -0.950516,4.013284 -0.292073,0.781795 -0.732054,1.502413 -1.161741,2.217868 -0.899896,1.498384 -1.971437,2.886749 -2.957155,4.330123"
     id="path23309"
     sodipodi:nodetypes="caaaaaaaaaaaaaaac" />
  <path
     style="fill:none;stroke:#fefefe;stroke-width:5;stroke-linecap:round;stroke-linejoin:round;stroke-dasharray:none;stroke-opacity:1;paint-order:fill markers stroke"
     d="m 71.002524,40.07236 c 0,0 2.410297,-3.451869 4.03891,-4.738207 1.457928,-1.151522 3.160364,-2.088408 4.963801,-2.534706 2.614485,-0.647008 5.468314,-0.766293 8.079374,-0.105611 2.03201,0.514163 3.99371,1.596825 5.49186,3.062769 1.5169,1.484283 2.53738,3.482765 3.2212,5.491863 0.54306,1.595603 0.76576,3.3363 0.63367,5.016606 -0.1336,1.699349 -0.55142,3.44773 -1.42577,4.910993 -1.37908,2.307942 -3.62384,4.012362 -5.7559,5.650283 -1.86487,1.432657 -3.90319,2.683455 -6.07273,3.590834 -1.780384,0.744617 -3.686329,1.210764 -5.597478,1.478578 -1.726101,0.241882 -5.227831,0.105612 -5.227831,0.105612"
     id="path24037"
     sodipodi:nodetypes="caaaaaaaaaac" />
</svg>
