<?xml version="1.0" encoding="UTF-8"?>
<svg width="16px" height="16px" viewBox="0 0 16 16" version="1.1" xmlns="http://www.w3.org/2000/svg" xmlns:xlink="http://www.w3.org/1999/xlink">
    <title>elixir</title>
    <g id="elixir" stroke="none" stroke-width="1" fill="none" fill-rule="evenodd" stroke-linecap="round" stroke-linejoin="round">
        <path d="M8.02889472,14.5 C4.99794454,14.5 3.5,12.490309 3.5,10.0095709 C3.5,7.18741645 5.74743026,2.99381718 8.11955476,1.5340252 C8.1933292,1.48965035 8.2876154,1.48860454 8.36248775,1.53133062 C8.4373601,1.5740567 8.47972098,1.65308049 8.47163261,1.73493925 C8.3386122,2.98357613 8.68558198,4.23570747 9.44996893,5.26552213 C9.75143559,5.69624884 10.0804817,6.06615088 10.4680607,6.53953742 C11.0108474,7.20420515 11.413243,7.57204301 11.9947583,8.62064925 L12.0034135,8.63578661 C12.3303404,9.20112546 12.5010635,9.83429077 12.5,10.4774529 C12.5,12.50985 10.8098696,14.5 8.02889472,14.5 Z" id="Path" stroke="#8839EF"></path>
    </g>
</svg>