<?xml version="1.0" encoding="UTF-8"?>
<svg width="16px" height="16px" viewBox="0 0 16 16" version="1.1" xmlns="http://www.w3.org/2000/svg" xmlns:xlink="http://www.w3.org/1999/xlink">
    <title>env</title>
    <g id="env" stroke="none" stroke-width="1" fill="none" fill-rule="evenodd">
        <path d="M5.5,8.5 L5.5,12 M5.5,5.5 L5.5,4 M5.5,8.5 C6.32842712,8.5 7,7.82842712 7,7 C7,6.17157288 6.32842712,5.5 5.5,5.5 C4.67157288,5.5 4,6.17157288 4,7 C4,7.82842712 4.67157288,8.5 5.5,8.5 Z M10.5,12 L10.5,10.5 M10.5,7.5 L10.5,4 M10.5,10.5 C11.3284271,10.5 12,9.82842712 12,9 C12,8.17157288 11.3284271,7.5 10.5,7.5 C9.67157288,7.5 9,8.17157288 9,9 C9,9.82842712 9.67157288,10.5 10.5,10.5 Z M4,1.5 L12,1.5 C13.3807119,1.5 14.5,2.61928813 14.5,4 L14.5,12 C14.5,13.3807119 13.3807119,14.5 12,14.5 L4,14.5 C2.61928813,14.5 1.5,13.3807119 1.5,12 L1.5,4 C1.5,2.61928813 2.61928813,1.5 4,1.5 Z" id="Combined-Shape" stroke="#DF8E1D"></path>
    </g>
</svg>