<?xml version="1.0" encoding="UTF-8"?>
<svg width="16px" height="16px" viewBox="0 0 16 16" version="1.1" xmlns="http://www.w3.org/2000/svg" xmlns:xlink="http://www.w3.org/1999/xlink">
    <title>exe</title>
    <g id="exe" stroke="none" stroke-width="1" fill="none" fill-rule="evenodd">
        <rect id="Rectangle" stroke="#4C4F69" x="1.5" y="2.5" width="13" height="12" rx="1.5"></rect>
        <line x1="3" y1="4.5" x2="4" y2="4.5" id="Line" stroke="#DF8E1D"></line>
        <line x1="5" y1="4.5" x2="6" y2="4.5" id="Line-Copy" stroke="#40A02B"></line>
        <path d="M7.44166667,6.939 C7.58366667,6.35366667 8.41633333,6.35366667 8.55833333,6.939 C8.60154768,7.11735307 8.72734458,7.26434141 8.89688385,7.33458194 C9.06642313,7.40482246 9.25931369,7.38986709 9.416,7.29433333 C9.93033333,6.981 10.5193333,7.56966667 10.206,8.08433333 C10.1106042,8.2409513 10.0956849,8.43369369 10.1658427,8.60312639 C10.2360004,8.77255909 10.3828096,8.89833383 10.561,8.94166667 C11.1463333,9.08366667 11.1463333,9.91633333 10.561,10.0583333 C10.3826469,10.1015477 10.2356586,10.2273446 10.1654181,10.3968839 C10.0951775,10.5664231 10.1101329,10.7593137 10.2056667,10.916 C10.519,11.4303333 9.93033333,12.0193333 9.41566667,11.706 C9.2590487,11.6106042 9.06630631,11.5956849 8.89687361,11.6658427 C8.72744091,11.7360004 8.60166617,11.8828096 8.55833333,12.061 C8.41633333,12.6463333 7.58366667,12.6463333 7.44166667,12.061 C7.39845232,11.8826469 7.27265542,11.7356586 7.10311615,11.6654181 C6.93357687,11.5951775 6.74068631,11.6101329 6.584,11.7056667 C6.06966667,12.019 5.48066667,11.4303333 5.794,10.9156667 C5.88939584,10.7590487 5.90431513,10.5663063 5.83415734,10.3968736 C5.76399956,10.2274409 5.6171904,10.1016662 5.439,10.0583333 C4.85366667,9.91633333 4.85366667,9.08366667 5.439,8.94166667 C5.61735307,8.89845232 5.76434141,8.77265542 5.83458194,8.60311615 C5.90482246,8.43357687 5.88986709,8.24068631 5.79433333,8.084 C5.481,7.56966667 6.06966667,6.98066667 6.58433333,7.294 C6.91766667,7.49666667 7.34966667,7.31733333 7.44166667,6.939 Z" id="Path" stroke="#1E66F5" stroke-linecap="round" stroke-linejoin="round"></path>
        <line x1="7.5" y1="9.5" x2="8.5" y2="9.5" id="Line-2" stroke="#979797"></line>
    </g>
</svg>