<?xml version="1.0" encoding="UTF-8"?>
<svg width="16px" height="16px" viewBox="0 0 16 16" version="1.1" xmlns="http://www.w3.org/2000/svg" xmlns:xlink="http://www.w3.org/1999/xlink">
    <title>figma</title>
    <g id="figma" stroke="none" stroke-width="1" fill="none" fill-rule="evenodd">
        <path d="M7.5,11.5 L5.5,11.5 C4.3954305,11.5 3.5,12.3954305 3.5,13.5 C3.5,14.6045695 4.3954305,15.5 5.5,15.5 C6.6045695,15.5 7.5,14.6045695 7.5,13.5 L7.5,11.5 Z" id="Path" stroke="#40A02B"></path>
        <path d="M7.5,10.5 L7.5,6.5 L5.5,6.5 C4.3954305,6.5 3.5,7.3954305 3.5,8.5 C3.5,9.6045695 4.3954305,10.5 5.5,10.5 L7.5,10.5 Z" id="Path" stroke="#8839EF"></path>
        <path d="M7.5,5.5 L7.5,1.5 L5.5,1.5 C4.3954305,1.5 3.5,2.3954305 3.5,3.5 C3.5,4.6045695 4.3954305,5.5 5.5,5.5 L7.5,5.5 Z" id="Path" stroke="#D20F39"></path>
        <path d="M10.5,5.5 C11.6045695,5.5 12.5,4.6045695 12.5,3.5 C12.5,2.3954305 11.6045695,1.5 10.5,1.5 L8.5,1.5 L8.5,5.5 L10.5,5.5 Z" id="Path" stroke="#FE640B"></path>
        <circle id="Oval" stroke="#04A5E5" cx="10.5" cy="8.5" r="2"></circle>
    </g>
</svg>