<?xml version="1.0" encoding="UTF-8" standalone="no"?>
<!-- Created with Inkscape (http://www.inkscape.org/) -->

<svg
   width="100.0px"
   height="100.0px"
   viewBox="0 0 100.0 100.0"
   version="1.1"
   id="SVGRoot"
   sodipodi:docname="figma.svg"
   inkscape:version="1.2.1 (9c6d41e, 2022-07-14)"
   xmlns:inkscape="http://www.inkscape.org/namespaces/inkscape"
   xmlns:sodipodi="http://sodipodi.sourceforge.net/DTD/sodipodi-0.dtd"
   xmlns="http://www.w3.org/2000/svg"
   xmlns:svg="http://www.w3.org/2000/svg">
  <defs
     id="defs8354" />
  <sodipodi:namedview
     id="namedview32486"
     pagecolor="#181825"
     bordercolor="#000000"
     borderopacity="0.24705882"
     inkscape:showpageshadow="2"
     inkscape:pageopacity="0"
     inkscape:pagecheckerboard="0"
     inkscape:deskcolor="#313244"
     inkscape:document-units="px"
     showgrid="true"
     inkscape:zoom="2.7990527"
     inkscape:cx="-40.013538"
     inkscape:cy="46.444285"
     inkscape:window-width="1399"
     inkscape:window-height="708"
     inkscape:window-x="0"
     inkscape:window-y="38"
     inkscape:window-maximized="0"
     inkscape:current-layer="SVGRoot"
     showborder="false"
     showguides="false">
    <inkscape:grid
       type="xygrid"
       id="grid32609" />
  </sodipodi:namedview>
  <path
     fill="none"
     stroke="currentColor"
     d="M 47.599094,2.9927968 V 30.689441 m 0,-27.6967143 L 33.628203,2.7833533 C 25.911568,2.6677088 19.653259,9.0367471 19.653259,16.754242 c 0,7.717495 6.257443,13.973159 13.974944,13.970888 L 47.599094,30.68944 M 42.013275,19.807327"
     id="path52102"
     style="stroke:#f24e1e;stroke-width:5.065;stroke-linecap:round;stroke-linejoin:round;stroke-dasharray:none;stroke-opacity:1"
     sodipodi:nodetypes="cccsccc" />
  <path
     fill="none"
     stroke="currentColor"
     d="M 47.699457,3.1924653 V 30.88911 m 0,-27.6966447 -13.970891,-7.01e-5 c -7.717501,-3.88e-5 -13.974944,6.0440204 -13.974944,13.7615158 0,7.717495 6.257443,13.973159 13.974944,13.970888 l 13.970891,-6.9e-5"
     id="path54392"
     style="stroke:#f24e1e;stroke-width:5.065;stroke-linecap:round;stroke-linejoin:round;stroke-dasharray:none;stroke-opacity:1"
     sodipodi:nodetypes="cccsccc" />
  <path
     fill="none"
     stroke="currentColor"
     d="m 47.599094,36.016013 v 27.696644 m 0,-27.696644 -13.970891,-7e-5 c -7.717501,-3.9e-5 -13.974944,6.04402 -13.974944,13.761516 0,7.717494 6.257443,13.973158 13.974944,13.970888 l 13.970891,-7e-5"
     id="path54414"
     style="stroke:#a259ff;stroke-width:5.065;stroke-linecap:round;stroke-linejoin:round;stroke-dasharray:none;stroke-opacity:1"
     sodipodi:nodetypes="cccsccc" />
  <path
     fill="none"
     stroke="currentColor"
     d="M 52.718622,3.0924653 V 30.78911 m 0,-27.6966447 13.97089,-7.01e-5 c 7.717501,-3.88e-5 13.974944,6.0440204 13.974944,13.7615158 0,7.717495 -6.257443,13.973159 -13.974944,13.970888 l -13.97089,-6.9e-5"
     id="path54416"
     style="stroke:#ff7262;stroke-width:5.065;stroke-linecap:round;stroke-linejoin:round;stroke-dasharray:none;stroke-opacity:1"
     sodipodi:nodetypes="cccsccc" />
  <path
     fill="none"
     stroke="currentColor"
     d="M 47.743339,68.810395 V 83.00955 c -3e-6,12.650967 -15.294456,18.98432 -24.238958,10.039799 -8.944502,-8.944502 -2.611165,-24.238953 10.039807,-24.238954 m 14.199151,0 H 33.544188"
     id="path56619"
     style="stroke:#0acf83;stroke-width:5.065;stroke-linecap:round;stroke-linejoin:round;stroke-dasharray:none;stroke-opacity:1"
     sodipodi:nodetypes="cssccc" />
  <path
     fill="none"
     stroke="currentColor"
     d="m 66.531664,35.892395 c 7.659689,-0.0019 13.870114,6.206901 13.870114,13.866585 0,7.659682 -6.210425,13.868536 -13.870114,13.866584 -7.656926,-0.0019 -13.863042,-6.209663 -13.863042,-13.866584 0,-7.656922 6.206116,-13.864633 13.863042,-13.866585 z"
     id="path58073"
     style="stroke:#1abcfe;stroke-width:5.065;stroke-linecap:round;stroke-linejoin:round;stroke-dasharray:none;stroke-opacity:1"
     sodipodi:nodetypes="sssss" />
</svg>
