<?xml version="1.0" encoding="UTF-8"?>
<svg width="16px" height="16px" viewBox="0 0 16 16" version="1.1" xmlns="http://www.w3.org/2000/svg" xmlns:xlink="http://www.w3.org/1999/xlink">
    <title>folder_json__open</title>
    <g id="folder_json__open" stroke="none" stroke-width="1" fill="none" fill-rule="evenodd">
        <g id="folder" stroke="#4C4F69" stroke-linecap="round" stroke-linejoin="round">
            <path d="M1.87487972,8.0004811 L2.56063391,5.25746437 C2.67192566,4.81229737 3.07190876,4.5 3.53077641,4.5 L14.4692236,4.5 C15.0215083,4.5 15.4692236,4.94771525 15.4692236,5.5 C15.4692236,5.58176181 15.4591962,5.66321502 15.4393661,5.74253563 L15.1243253,7.00269892 M6.5,13.5 L2.00434875,13.5 C1.17157288,13.5 0.5,12.8284271 0.5,12 L0.5,3.5 C0.5,2.94771525 0.94771525,2.5 1.5,2.5 L6.5,2.5 C7.05228475,2.5 7.5,2.94771525 7.5,3.5 L7.5,4.5" id="Shape"></path>
        </g>
        <g id="macos" stroke="#DF8E1D">
            <path d="M11,9.5 L10.3163636,9.5 C9.90727273,9.5 9.49818182,9.90909091 9.5,10.3181818 L9.5,11.4090909 C9.5,12.0115834 8.45272727,12.5 8,12.5 C8.45272727,12.5 9.5,12.9884166 9.5,13.5909091 L9.5,14.6818182 C9.49818182,15.0909091 9.90727273,15.5 10.3163636,15.5 L11,15.5 M13,9.5 L13.68,9.5 C14.0890909,9.5 14.4981818,9.90909091 14.4963638,10.3181818 L14.4963638,11.4090909 C14.4963638,12.0115834 15.5472727,12.5 16,12.5 C15.5472727,12.5 14.4963638,12.9884166 14.4963638,13.5909091 L14.4963638,14.6818182 C14.4963638,15.0834798 14.0890909,15.5 13.68,15.5 L13,15.5" id="Combined-Shape"></path>
        </g>
    </g>
</svg>