<?xml version="1.0" encoding="UTF-8"?>
<svg width="16px" height="16px" viewBox="0 0 16 16" version="1.1" xmlns="http://www.w3.org/2000/svg" xmlns:xlink="http://www.w3.org/1999/xlink">
    <title>folder_plugins__open</title>
    <g id="folder_plugins__open" stroke="none" stroke-width="1" fill="none" fill-rule="evenodd" stroke-linecap="round">
        <g id="folder" transform="translate(0.5, 2.5)" stroke="#4C4F69" stroke-linejoin="round">
            <path d="M1.37487972,5.5004811 L2.06063391,2.75746437 C2.17192566,2.31229737 2.57190876,2 3.03077641,2 L13.9692236,2 C14.5215083,2 14.9692236,2.44771525 14.9692236,3 C14.9692236,3.08176181 14.9591962,3.16321502 14.9393661,3.24253563 L14.6243253,4.50269892 M6,11 L1.50434875,11 C0.671572875,11 5.55111512e-17,10.3284271 5.55111512e-17,9.5 L5.55111512e-17,1 C5.55111512e-17,0.44771525 0.44771525,0 1,0 L6,0 C6.55228475,0 7,0.44771525 7,1 L7,2" id="Shape"></path>
        </g>
        <g id="icon" transform="translate(8.5, 8.5)" stroke="#1E66F5">
            <path d="M2.53090495,0.874863376 L6.12513662,4.4689389 L5.22653967,5.36753586 C4.58960405,6.03400517 3.64175499,6.303395 2.74950457,6.07153831 C1.85725415,5.83968162 1.16046476,5.1429225 0.928569308,4.25068216 C0.696673855,3.35844181 0.966022504,2.41058105 1.63246414,1.77361647 L2.53090495,0.874863376 Z" id="Path"></path>
            <line x1="0" y1="6.99984386" x2="1.53128416" y2="5.4685597" id="Path" stroke-linejoin="round"></line>
            <line x1="5" y1="-4.16748658e-18" x2="3.5" y2="1.48999023" id="Path" stroke-linejoin="round"></line>
            <line x1="6.99804688" y1="2" x2="5.5" y2="3.5" id="Path"></line>
        </g>
    </g>
</svg>