<?xml version="1.0" encoding="UTF-8"?>
<svg width="16px" height="16px" viewBox="0 0 16 16" version="1.1" xmlns="http://www.w3.org/2000/svg" xmlns:xlink="http://www.w3.org/1999/xlink">
    <title>folder_shader</title>
    <g id="folder_shader" stroke="none" stroke-width="1" fill="none" fill-rule="evenodd" stroke-linecap="round" stroke-linejoin="round">
        <g id="folder" stroke="#4C4F69">
            <path d="M4.5,4.5 L12,4.5 C12.8284271,4.5 13.5,5.17157288 13.5,6 C13.5,6.43429905 13.5,6.26763238 13.5,6.5 M6.5,13.5 C5.38123915,13.5 4.21457248,13.5 2,13.5 C1.17157288,13.5 0.5,12.8284271 0.5,12 L0.5,3.5 C0.5,2.94771525 0.94771525,2.5 1.5,2.5 L6.5,2.5 C7.05228475,2.5 7.5,2.94771525 7.5,3.5 L7.5,4.5" id="Shape"></path>
        </g>
        <g id="macos" stroke="#8839EF">
            <path d="M10.5,14 C10.5,14.5358984 10.2141016,15.0310889 9.75000001,15.2990381 C9.28589839,15.5669873 8.71410161,15.5669873 8.24999999,15.2990381 C7.78589838,15.0310889 7.5,14.5358984 7.5,14 C7.5,13.1715729 8.17157288,12.5 9,12.5 C9.82842712,12.5 10.5,13.1715729 10.5,14 L10.5,14 Z" id="Path"></path>
            <path d="M11.9673661,8.53284847 C11.1778076,8.36676644 10.3954368,8.84546425 10.17453,9.62980497 C9.95362322,10.4141457 10.3691717,11.237869 11.1267771,11.5174021 C12.3059774,11.9866985 12.5840047,12.4600595 12.43645,13.7381966 C12.3297332,14.546572 12.8584538,15.3010725 13.6480264,15.4671532 C14.437599,15.6332338 15.2199778,15.1545131 15.4408664,14.3701529 C15.6617551,13.5857928 15.246166,12.7620694 14.4885338,12.4825707 C13.3090243,12.0132743 13.0306106,11.5396006 13.1789382,10.2617762 C13.2856391,9.45341248 12.7569245,8.69893051 11.9673661,8.53284847 Z" id="Path"></path>
            <path d="M10.5,14 C10.5,14.5358984 10.2141016,15.0310889 9.75000001,15.2990381 C9.28589839,15.5669873 8.71410161,15.5669873 8.24999999,15.2990381 C7.78589838,15.0310889 7.5,14.5358984 7.5,14 C7.5,13.1715729 8.17157288,12.5 9,12.5 C9.82842712,12.5 10.5,13.1715729 10.5,14 L10.5,14 Z" id="Path"></path>
        </g>
    </g>
</svg>