<?xml version="1.0" encoding="UTF-8"?>
<svg width="16px" height="16px" viewBox="0 0 16 16" version="1.1" xmlns="http://www.w3.org/2000/svg" xmlns:xlink="http://www.w3.org/1999/xlink">
    <title>folder_ios</title>
    <g id="folder_ios" stroke="none" stroke-width="1" fill="none" fill-rule="evenodd">
        <g id="folder" stroke="#4C4F69" stroke-linecap="round" stroke-linejoin="round">
            <path d="M4.5,4.5 L12,4.5 C12.8284271,4.5 13.5,5.17157288 13.5,6 C13.5,6.43429905 13.5,6.26763238 13.5,6.5 M6.5,13.5 C5.38123915,13.5 4.21457248,13.5 2,13.5 C1.17157288,13.5 0.5,12.8284271 0.5,12 L0.5,3.5 C0.5,2.94771525 0.94771525,2.5 1.5,2.5 L6.5,2.5 C7.05228475,2.5 7.5,2.94771525 7.5,3.5 L7.5,4.5" id="Shape"></path>
        </g>
        <g id="icon">
            <path d="M15.4764047,13.4247602 C14.707181,14.8101157 14.0923858,15.5 13.5312639,15.5 C13.2701478,15.5 13.0135516,15.4242397 12.7632643,15.2761897 C12.398465,15.0601911 11.9282994,15.0510459 11.5534483,15.2526574 C11.2509001,15.4156056 10.9617232,15.5 10.6878008,15.5 C9.86170215,15.5 8.5,13.2147476 8.5,11.9602585 C8.5,10.6219676 9.28080591,9.5 10.4688701,9.5 C11.0274495,9.5 11.5100388,9.82565274 11.9155079,9.97488784 C12.0872863,10.0391231 12.2813762,10.0345047 12.449134,9.96219034 C12.7779538,9.81998105 13.2113896,9.5 13.7501947,9.5 C14.4077402,9.5 14.9797851,9.89483795 15.4560654,10.4657913 C15.5286949,10.5526578 15.5092623,10.6760018 15.4126559,10.7413218 C14.8808189,11.0993845 14.6247877,11.5023108 14.6247877,11.9602585 C14.6247877,12.4187988 14.8809131,12.8211326 15.4126559,13.1797031 C15.4971233,13.236729 15.5239819,13.3399759 15.4764047,13.4247602 Z" id="Path" stroke="#8C8FA1" stroke-linecap="round" stroke-linejoin="round"></path>
            <path d="M12.2503363,8.99999939 C12.1123905,9.00005932 12.0004153,8.88846925 12,8.75052404 C11.9999715,8.28624729 12.184392,7.84097791 12.5126853,7.51268466 C12.8409785,7.18439142 13.2862479,6.99997084 13.7505247,6.99999939 C13.8168214,7.00005632 13.8803739,7.02647677 13.927172,7.07343638 C13.9739701,7.120396 14.0001715,7.18403913 14,7.25033572 C13.9991687,8.21618179 13.2161827,8.99883065 12.2503363,8.99924599 L12.2503363,8.99999939 Z" id="Path" fill="#8C8FA1"></path>
        </g>
    </g>
</svg>