<?xml version="1.0" encoding="UTF-8" standalone="no"?>
<!-- Created with Inkscape (http://www.inkscape.org/) -->

<svg
   width="100.0px"
   height="100.0px"
   viewBox="0 0 100.0 100.0"
   version="1.1"
   id="SVGRoot"
   sodipodi:docname="folder_images__open.svg"
   inkscape:version="1.2.1 (9c6d41e410, 2022-07-14)"
   xmlns:inkscape="http://www.inkscape.org/namespaces/inkscape"
   xmlns:sodipodi="http://sodipodi.sourceforge.net/DTD/sodipodi-0.dtd"
   xmlns="http://www.w3.org/2000/svg"
   xmlns:svg="http://www.w3.org/2000/svg">
  <defs
     id="defs9" />
  <sodipodi:namedview
     id="namedview32486"
     pagecolor="#181825"
     bordercolor="#000000"
     borderopacity="0.24705882"
     inkscape:showpageshadow="2"
     inkscape:pageopacity="0"
     inkscape:pagecheckerboard="0"
     inkscape:deskcolor="#313244"
     inkscape:document-units="px"
     showgrid="true"
     inkscape:zoom="4.2179991"
     inkscape:cx="-1.7780942"
     inkscape:cy="24.419161"
     inkscape:window-width="1920"
     inkscape:window-height="1017"
     inkscape:window-x="1912"
     inkscape:window-y="-8"
     inkscape:window-maximized="1"
     inkscape:current-layer="SVGRoot"
     showborder="false">
    <inkscape:grid
       type="xygrid"
       id="grid32609" />
  </sodipodi:namedview>
  <path
     style="display:inline;fill:none;stroke:#ffffff;stroke-width:5;stroke-linecap:round;stroke-linejoin:round;stroke-dasharray:none;stroke-opacity:1;paint-order:fill markers stroke"
     d="m 44.713612,27.878444 v -2.974408 c 0,-7.559955 -7.294688,-7.559955 -7.294688,-7.559955 H 11.229791 c -8.7297083,0 -8.7297083,9.047159 -8.7297083,9.047159 v 48.210205 c 0,7.436021 7.7730283,8.05569 7.7730283,8.05569 H 40 m 54.627007,-37.656568 1.938764,-7.331362 c 1.832899,-8.827338 -7.30989,-9.542894 -7.30989,-9.542894 H 24.025395 c 0,0 -4.885741,1.206318 -6.746049,5.588037 -1.860305,4.381718 -5.750039,15.511281 -5.750039,15.511281"
     id="path5390"
     sodipodi:nodetypes="ccccscscccscsc"
     inkscape:label="folder_open" />
  <path
     style="display:none;fill:none;stroke:#ffffff;stroke-width:5;stroke-linecap:round;stroke-linejoin:round;stroke-dasharray:none;stroke-opacity:1;paint-order:fill markers stroke"
     d="m 24.023123,28.126179 h 54.285891 c 0,0 9.207079,0.247865 9.207079,9.542778 v 7.331208 M 40,82.656331 H 10.272291 c 0,0 -7.7722083,-0.61966 -7.7722083,-8.05559 V 26.39113 c 0,0 0,-9.047049 8.7287883,-9.047049 h 26.186366 c 0,0 7.293919,0 7.293919,7.559862 v 2.974372"
     id="path5390-2"
     sodipodi:nodetypes="ccscccscscsc"
     inkscape:label="folder_close" />
  <circle
     cx="84.015366"
     cy="66.289009"
     r="2.4808495"
     fill="none"
     stroke="currentColor"
     stroke-miterlimit="10"
     stroke-width="6.34645"
     id="circle4"
     style="stroke:#ffd23b;stroke-width:5;stroke-dasharray:none;stroke-opacity:1" />
  <path
     fill="none"
     stroke="currentColor"
     stroke-linecap="round"
     stroke-linejoin="round"
     stroke-width="6.34645"
     d="m 78.201057,83.188038 -9.587996,-9.570026 a 3.384248,3.384248 0 0 0 -4.639592,-0.137483 l -12.84639,11.421835 m 18.613364,8.460622 13.04416,-13.044161 a 3.384248,3.384248 0 0 1 4.559219,-0.211514 l 7.77849,6.487182"
     id="path6"
     style="stroke:#25a34b;stroke-width:5;stroke-dasharray:none;stroke-opacity:1" />
  <rect
     width="43.99522"
     height="37.22673"
     x="51.127071"
     y="56.136261"
     fill="none"
     stroke="currentColor"
     stroke-linejoin="round"
     stroke-width="6.34645"
     rx="5.0763726"
     ry="5.0763726"
     id="rect2"
     style="display:inline;stroke:#29afc9;stroke-width:5;stroke-dasharray:none;stroke-opacity:1" />
</svg>
