<?xml version="1.0" encoding="UTF-8"?>
<svg width="16px" height="16px" viewBox="0 0 16 16" version="1.1" xmlns="http://www.w3.org/2000/svg" xmlns:xlink="http://www.w3.org/1999/xlink">
    <title>folder_functions__open</title>
    <g id="folder_functions__open" stroke="none" stroke-width="1" fill="none" fill-rule="evenodd" stroke-linecap="round" stroke-linejoin="round">
        <g id="folder" stroke="#4C4F69">
            <path d="M1.87487972,8.0004811 L2.56063391,5.25746437 C2.67192566,4.81229737 3.07190876,4.5 3.53077641,4.5 L14.4692236,4.5 C15.0215083,4.5 15.4692236,4.94771525 15.4692236,5.5 C15.4692236,5.58176181 15.4591962,5.66321502 15.4393661,5.74253563 L15.1243253,7.00269892 M6.5,13.5 L2.00434875,13.5 C1.17157288,13.5 0.5,12.8284271 0.5,12 L0.5,3.5 C0.5,2.94771525 0.94771525,2.5 1.5,2.5 L6.5,2.5 C7.05228475,2.5 7.5,2.94771525 7.5,3.5 L7.5,4.5" id="Shape"></path>
        </g>
        <g id="icon" stroke="#1E66F5">
            <path d="M13.5,10.5 L13.8333557,10.5 C14.1667114,10.5 14.1667114,10.9285468 14.5053031,12.0113911 C14.8334228,13.0714532 14.8334228,13.5 15.1666443,13.5 L15.5,13.5" id="Path"></path>
            <path d="M12.388958,13.9443921 C12.9722,13.9443921 13.5557552,13.1666665 13.9446354,12.5832941 C14.3333589,11.9999216 14.9167575,11.222196 15.4999995,11.222196" id="Path"></path>
            <path d="M8.5,14.7221178 C8.5,15.3053337 8.6945184,15.5 9.27776038,15.5 C9.86100235,15.5 10.0556774,13.9443922 10.4445576,11.9999217 C10.8334377,10.0554511 11.0277995,8.5 11.6111981,8.5 C12.1944401,8.5 12.3889585,8.6945097 12.3889585,9.27788218" id="Path"></path>
            <line x1="9.277604" y1="11.500078" x2="11.6111984" y2="11.500078" id="Path"></line>
        </g>
    </g>
</svg>