<?xml version="1.0" encoding="UTF-8"?>
<svg width="16px" height="16px" viewBox="0 0 16 16" version="1.1" xmlns="http://www.w3.org/2000/svg" xmlns:xlink="http://www.w3.org/1999/xlink">
    <title>folder_plugins</title>
    <g id="folder_plugins" stroke="none" stroke-width="1" fill="none" fill-rule="evenodd" stroke-linecap="round">
        <g id="folder" transform="translate(0.5, 2.5)" stroke="#4C4F69" stroke-linejoin="round">
            <path d="M4,2 L11.5,2 C12.3284271,2 13,2.67157288 13,3.5 C13,3.93429905 13,3.76763238 13,4 M6,11 C4.88123915,11 3.71457248,11 1.5,11 C0.671572875,11 0,10.3284271 0,9.5 L0,1 C0,0.44771525 0.44771525,0 1,0 L6,0 C6.55228475,0 7,0.44771525 7,1 L7,2" id="Shape"></path>
        </g>
        <g id="icon" transform="translate(8.5, 8.5)" stroke="#1E66F5">
            <path d="M2.53090495,0.874863376 L6.12513662,4.4689389 L5.22653967,5.36753586 C4.58960405,6.03400517 3.64175499,6.303395 2.74950457,6.07153831 C1.85725415,5.83968162 1.16046476,5.1429225 0.928569308,4.25068216 C0.696673855,3.35844181 0.966022504,2.41058105 1.63246414,1.77361647 L2.53090495,0.874863376 Z" id="Path"></path>
            <line x1="0" y1="6.99984386" x2="1.53128416" y2="5.4685597" id="Path" stroke-linejoin="round"></line>
            <line x1="5" y1="-4.16748658e-18" x2="3.5" y2="1.48999023" id="Path" stroke-linejoin="round"></line>
            <line x1="6.99804688" y1="2" x2="5.5" y2="3.5" id="Path"></line>
        </g>
    </g>
</svg>