<?xml version="1.0" encoding="UTF-8"?>
<svg width="16px" height="16px" viewBox="0 0 16 16" version="1.1" xmlns="http://www.w3.org/2000/svg" xmlns:xlink="http://www.w3.org/1999/xlink">
    <title>folder_public</title>
    <g id="folder_public" stroke="none" stroke-width="1" fill="none" fill-rule="evenodd" stroke-linecap="round" stroke-linejoin="round">
        <g id="folder" stroke="#4C4F69">
            <path d="M4.5,4.5 L12,4.5 C12.8284271,4.5 13.5,5.17157288 13.5,6 C13.5,6.43429905 13.5,6.26763238 13.5,6.5 M6.5,13.5 C5.38123915,13.5 4.21457248,13.5 2,13.5 C1.17157288,13.5 0.5,12.8284271 0.5,12 L0.5,3.5 C0.5,2.94771525 0.94771525,2.5 1.5,2.5 L6.5,2.5 C7.05228475,2.5 7.5,2.94771525 7.5,3.5 L7.5,4.5" id="Shape"></path>
        </g>
        <g id="icon" stroke="#209FB5">
            <path d="M11.9999247,15.4998494 C10.0669697,15.4998494 8.5,14 8.5,11.9999247 C8.5,9.99984936 10.0669697,8.5 11.9999247,8.5 C14,8.5 15.4998494,10 15.4998494,11.9999247 C15.4998494,14 14,15.4998494 11.9999247,15.4998494 Z M11.5,9 C10,11 10,13 11.6429125,15.3391186 M12.5351671,9 C14.0351671,11 14.0351671,13 12.3922546,15.3391186" id="Combined-Shape"></path>
        </g>
    </g>
</svg>