<?xml version="1.0" encoding="UTF-8"?>
<svg width="16px" height="16px" viewBox="0 0 16 16" version="1.1" xmlns="http://www.w3.org/2000/svg" xmlns:xlink="http://www.w3.org/1999/xlink">
    <title>folder_composables</title>
    <g id="folder_composables" stroke="none" stroke-width="1" fill="none" fill-rule="evenodd" stroke-linecap="round">
        <g id="folder" stroke="#4C4F69" stroke-linejoin="round">
            <path d="M4.5,4.5 L12,4.5 C12.8284271,4.5 13.5,5.17157288 13.5,6 C13.5,6.43429905 13.5,6.26763238 13.5,6.5 M6.5,13.5 C5.38123915,13.5 4.21457248,13.5 2,13.5 C1.17157288,13.5 0.5,12.8284271 0.5,12 L0.5,3.5 C0.5,2.94771525 0.94771525,2.5 1.5,2.5 L6.5,2.5 C7.05228475,2.5 7.5,2.94771525 7.5,3.5 L7.5,4.5" id="Shape"></path>
        </g>
        <g id="icon" stroke="#8839EF">
            <path d="M13.0186781,15.3917795 L12.503809,14.5 M13.0167731,13.604922 L12.501904,14.4967015 M14.4995337,12.499067 L14.7763934,13.0527865 C15.0233827,13.546765 14.8231583,14.147438 14.3291798,14.3944272 C14.1903244,14.463855 14.0372113,14.5000001 13.8819662,14.5000001 L12.503809,14.5000001 M11.001801,9.496399 L11.1055733,9.28885446 C11.3525625,8.79487596 11.9532356,8.59465162 12.4472141,8.84164087 C12.6407415,8.93840457 12.797664,9.09532706 12.8944277,9.28885446 L13.5020334,10.504066 M12.383275,10.432971 L13.5045376,10.5002726 M14.1199322,9.568435 L13.501016,10.505826 M10.504597,14.4999998 L10.118034,14.4999998 C9.56574925,14.4999998 9.118034,14.0522845 9.118034,13.4999998 C9.118034,13.3447547 9.15417909,13.1916416 9.22360681,13.0527862 L9.99996339,11.500073 M10.6163747,12.4336741 L9.999982,11.500105 M8.883227,11.5670322 L9.99991789,11.500005" id="Combined-Shape"></path>
        </g>
    </g>
</svg>