<?xml version="1.0" encoding="UTF-8"?>
<svg width="16px" height="16px" viewBox="0 0 16 16" version="1.1" xmlns="http://www.w3.org/2000/svg" xmlns:xlink="http://www.w3.org/1999/xlink">
    <title>folder_github__open</title>
    <g id="folder_github__open" stroke="none" stroke-width="1" fill="none" fill-rule="evenodd" stroke-linecap="round" stroke-linejoin="round">
        <g id="folder" stroke="#4C4F69">
            <path d="M1.87487972,8.0004811 L2.56063391,5.25746437 C2.67192566,4.81229737 3.07190876,4.5 3.53077641,4.5 L14.4692236,4.5 C15.0215083,4.5 15.4692236,4.94771525 15.4692236,5.5 C15.4692236,5.58176181 15.4591962,5.66321502 15.4393661,5.74253563 L15.1243253,7.00269892 M6.5,13.5 L2.00434875,13.5 C1.17157288,13.5 0.5,12.8284271 0.5,12 L0.5,3.5 C0.5,2.94771525 0.94771525,2.5 1.5,2.5 L6.5,2.5 C7.05228475,2.5 7.5,2.94771525 7.5,3.5 L7.5,4.5" id="Shape"></path>
        </g>
        <g id="icon" stroke="#8C8FA1">
            <path d="M10.5,15.433311 C9.13936483,15.433311 9.20187083,14.695404 8.501836,14.5" id="Path"></path>
            <path d="M13.501166,15.5 L13.501166,14.1329978 C13.501166,13.7425201 13.5424368,13.586263 13.295335,13.3518773 C14.4483028,13.2346019 15.4999996,12.8051425 15.4999996,11.0083506 C15.4994677,10.5416375 15.3074882,10.0934369 14.9646993,9.75862383 C15.1255255,9.35318925 15.1871491,8.8951404 15,8.5 C15,8.5 14.4706698,8.39145647 13.4824365,9.01648502 C12.6454419,8.80971954 11.3565676,8.80971954 10.519573,9.01648502 C9.53116562,8.39162164 9,8.5 9,8.5 C8.81285089,8.8951404 8.87630987,9.35318925 9.037136,9.75862383 C8.69434713,10.0934369 8.5023679,10.5416375 8.501836,11.0083506 C8.501836,12.8051425 9.55353319,13.234767 10.706501,13.3518773 C10.4593992,13.586263 10.4593993,13.8204835 10.50067,14.133163 L10.50067,15.5" id="Path"></path>
        </g>
    </g>
</svg>