<?xml version="1.0" encoding="UTF-8"?>
<svg width="16px" height="16px" viewBox="0 0 16 16" version="1.1" xmlns="http://www.w3.org/2000/svg" xmlns:xlink="http://www.w3.org/1999/xlink">
    <title>folder_images</title>
    <g id="folder_images" stroke="none" stroke-width="1" fill="none" fill-rule="evenodd">
        <g id="folder" stroke="#4C4F69" stroke-linecap="round" stroke-linejoin="round">
            <path d="M4.5,4.5 L12,4.5 C12.8284271,4.5 13.5,5.17157288 13.5,6 C13.5,6.43429905 13.5,6.26763238 13.5,6.5 M6.5,13.5 C5.38123915,13.5 4.21457248,13.5 2,13.5 C1.17157288,13.5 0.5,12.8284271 0.5,12 L0.5,3.5 C0.5,2.94771525 0.94771525,2.5 1.5,2.5 L6.5,2.5 C7.05228475,2.5 7.5,2.94771525 7.5,3.5 L7.5,4.5" id="Shape"></path>
        </g>
        <g id="icon">
            <polyline id="Path" stroke="#40A02B" stroke-linecap="round" stroke-linejoin="round" points="14.5 15.5 11 12 8.5 14.5"></polyline>
            <path d="M9.5,8.5 L14.4974843,8.5 C15.049769,8.5 15.4974843,8.94771525 15.4974843,9.5 L15.4974843,14.5 C15.4974843,15.0522847 15.049769,15.5 14.4974843,15.5 L9.5,15.5 C8.94771525,15.5 8.5,15.0522847 8.5,14.5 L8.5,9.5 C8.5,8.94771525 8.94771525,8.5 9.5,8.5 Z" id="Path" stroke="#209FB5" stroke-linejoin="round"></path>
            <line x1="14" y1="10.5" x2="13" y2="10.5" id="Line-4" stroke="#DF8E1D"></line>
        </g>
    </g>
</svg>