<?xml version="1.0" encoding="UTF-8"?>
<svg width="16px" height="16px" viewBox="0 0 16 16" version="1.1" xmlns="http://www.w3.org/2000/svg" xmlns:xlink="http://www.w3.org/1999/xlink">
    <title>folder_robot</title>
    <g id="folder_robot" stroke="none" stroke-width="1" fill="none" fill-rule="evenodd">
        <g id="folder" stroke="#4C4F69" stroke-linecap="round" stroke-linejoin="round">
            <path d="M4.5,4.5 L12,4.5 C12.8284271,4.5 13.5,5.17157288 13.5,6 C13.5,6.43429905 13.5,6.26763238 13.5,6.5 M6.5,13.5 C5.38123915,13.5 4.21457248,13.5 2,13.5 C1.17157288,13.5 0.5,12.8284271 0.5,12 L0.5,3.5 C0.5,2.94771525 0.94771525,2.5 1.5,2.5 L6.5,2.5 C7.05228475,2.5 7.5,2.94771525 7.5,3.5 L7.5,4.5" id="Shape"></path>
        </g>
        <g id="macos" stroke="#8839EF">
            <path d="M12,12.5 L13,12.5 M10,12.5 L11,12.5 M11.5,10 L11.5,9 M15.5,12 L15.5,14 M7.5,12 L7.5,14" id="Combined-Shape"></path>
            <path d="M8.5,14.75 L8.5,11.25 C8.5,10.8357864 8.83578644,10.5 9.25,10.5 L13.75,10.5 C14.1642136,10.5 14.5,10.8357864 14.5,11.25 L14.5,14.75 C14.5,15.1642136 14.1642136,15.5 13.75,15.5 L9.25,15.5 C8.83578644,15.5 8.5,15.1642136 8.5,14.75 Z M11.5,9 C11.7761424,9 12,8.77614237 12,8.5 C12,8.22385763 11.7761424,8 11.5,8 C11.2238576,8 11,8.22385763 11,8.5 C11,8.77614237 11.2238576,9 11.5,9 Z" id="Combined-Shape" stroke-linecap="square"></path>
        </g>
    </g>
</svg>