<?xml version="1.0" encoding="UTF-8"?>
<svg width="16px" height="16px" viewBox="0 0 16 16" version="1.1" xmlns="http://www.w3.org/2000/svg" xmlns:xlink="http://www.w3.org/1999/xlink">
    <title>folder_cypress__open</title>
    <g id="folder_cypress__open" stroke="none" stroke-width="1" fill="none" fill-rule="evenodd" stroke-linecap="round" stroke-linejoin="round">
        <g id="folder" transform="translate(0.5, 2.5)" stroke="#4C4F69">
            <path d="M1.37487972,5.5004811 L2.06063391,2.75746437 C2.17192566,2.31229737 2.57190876,2 3.03077641,2 L13.9692236,2 C14.5215083,2 14.9692236,2.44771525 14.9692236,3 C14.9692236,3.08176181 14.9591962,3.16321502 14.9393661,3.24253563 L14.6243253,4.50269892 M6,11 L1.50434875,11 C0.671572875,11 5.55111512e-17,10.3284271 5.55111512e-17,9.5 L5.55111512e-17,1 C5.55111512e-17,0.44771525 0.44771525,0 1,0 L6,0 C6.55228475,0 7,0.44771525 7,1 L7,2" id="Shape"></path>
        </g>
        <g id="icon" transform="translate(8.5, 9.5)" stroke="#40A02B">
            <path d="M2.50094282,2.65667795 C2.14335895,3.03125125 1.61951641,3.19327251 1.11321084,3.05982976 C0.476147754,2.89203583 0.0218566349,2.29698199 0.000746194617,1.60255504 C-0.0200864767,0.90842428 0.397122488,0.283899125 1.02293593,0.0733051556 C1.54989414,-0.104186896 2.11665302,0.0483924297 2.49868767,0.447078659 M6,3 L4.5,0 M5,6 L7,0" id="Shape"></path>
        </g>
    </g>
</svg>