<?xml version="1.0" encoding="UTF-8"?>
<svg width="16px" height="16px" viewBox="0 0 16 16" version="1.1" xmlns="http://www.w3.org/2000/svg" xmlns:xlink="http://www.w3.org/1999/xlink">
    <title>folder_functions__open</title>
    <g id="folder_functions__open" stroke="none" stroke-width="1" fill="none" fill-rule="evenodd" stroke-linecap="round" stroke-linejoin="round">
        <g id="folder" stroke="#4C4F69">
            <path d="M1.87487972,8.0004811 L2.56063391,5.25746437 C2.67192566,4.81229737 3.07190876,4.5 3.53077641,4.5 L14.4692236,4.5 C15.0215083,4.5 15.4692236,4.94771525 15.4692236,5.5 C15.4692236,5.58176181 15.4591962,5.66321502 15.4393661,5.74253563 L15.1243253,7.00269892 M6.5,13.5 L2.00434875,13.5 C1.17157288,13.5 0.5,12.8284271 0.5,12 L0.5,3.5 C0.5,2.94771525 0.94771525,2.5 1.5,2.5 L6.5,2.5 C7.05228475,2.5 7.5,2.94771525 7.5,3.5 L7.5,4.5" id="Shape"></path>
        </g>
        <g id="icon" stroke="#1E66F5">
            <path d="M7.5,14.75 C7.5,15.3332159 7.91675803,15.5 8.5,15.5 C9.08324197,15.5 9.05567737,13.9443922 9.44455756,11.9999217 C9.83343774,10.0554511 9.91660141,8.5 10.5,8.5 C11.083242,8.5 11.5,8.66662751 11.5,9.25 M8.277604,11.500078 L10.6111984,11.500078 M16,13.5 L15.5,13.5 C14,13.5 13.6816895,10.5 12.5,10.5 L12,10.5 M12,13.5 L12.5,13.5 C14,13.5 14.3183105,10.5 15.5,10.5 L16,10.5" id="Combined-Shape"></path>
        </g>
    </g>
</svg>