<?xml version="1.0" encoding="UTF-8"?>
<svg width="16px" height="16px" viewBox="0 0 16 16" version="1.1" xmlns="http://www.w3.org/2000/svg" xmlns:xlink="http://www.w3.org/1999/xlink">
    <title>folder_husky__open</title>
    <g id="folder_husky__open" stroke="none" stroke-width="1" fill="none" fill-rule="evenodd">
        <g id="folder" stroke="#4C4F69" stroke-linecap="round" stroke-linejoin="round">
            <path d="M1.87487972,8.0004811 L2.56063391,5.25746437 C2.67192566,4.81229737 3.07190876,4.5 3.53077641,4.5 L14.4692236,4.5 C15.0215083,4.5 15.4692236,4.94771525 15.4692236,5.5 C15.4692236,5.58176181 15.4591962,5.66321502 15.4393661,5.74253563 L15.1243253,7.00269892 M6.5,13.5 L2.00434875,13.5 C1.17157288,13.5 0.5,12.8284271 0.5,12 L0.5,3.5 C0.5,2.94771525 0.94771525,2.5 1.5,2.5 L6.5,2.5 C7.05228475,2.5 7.5,2.94771525 7.5,3.5 L7.5,4.5" id="Shape"></path>
        </g>
        <g id="icon">
            <path d="M9.05946607,12.2844743 L11.1776359,11.5097353 C11.8273793,11.2718932 12.537615,11.6726579 12.6517041,12.3413259 L13.0240607,14.5211557 C13.1437915,15.2226886 12.3740038,15.7446328 11.743223,15.3887264 C11.6606586,15.3422926 11.5901031,15.2773943 11.5371418,15.1991692 L11.4279109,15.0374926 C10.9737487,14.3653979 10.2222968,13.9414253 9.39953921,13.8931404 L9.20160724,13.8816144 C9.10646408,13.8760667 9.01387121,13.8488903 8.93095917,13.8021779 C8.30017835,13.4464272 8.37775263,12.5338425 9.05946607,12.2846301 L9.05946607,12.2844743 Z" id="Path" stroke="#DC8A78"></path>
            <path d="M9.22382543,11.0337023 C9.6218161,11.2640222 10.1680056,11.0691467 10.4437788,10.5984358 C10.7195445,10.1277205 10.6204657,9.55941917 10.2224776,9.32909491 C9.82448693,9.09877504 9.27829745,9.29365051 9.00252428,9.7643615 C8.72675849,10.2350768 8.82583731,10.8033781 9.22382543,11.0337023 Z" id="Oval" fill="#DC8A78" fill-rule="nonzero"></path>
            <path d="M11.8436404,10.1218583 C12.2416311,10.3521782 12.7878206,10.1573027 13.0635938,9.68659176 C13.3393595,9.21587648 13.2402807,8.64757517 12.8422926,8.41725091 C12.4443019,8.18693104 11.8981124,8.38180651 11.6223393,8.8525175 C11.3465735,9.32323278 11.4456523,9.89153409 11.8436404,10.1218583 Z" id="Oval" fill="#DC8A78" fill-rule="nonzero"></path>
            <path d="M13.8893194,11.0336613 C14.2873101,11.2639812 14.8334996,11.0691057 15.1092728,10.5983948 C15.3850385,10.1276795 15.2859597,9.55937817 14.8879716,9.32905391 C14.4899809,9.09873404 13.9437914,9.29360951 13.6680183,9.7643205 C13.3922525,10.2350358 13.4913313,10.8033371 13.8893194,11.0336613 Z" id="Oval" fill="#DC8A78" fill-rule="nonzero"></path>
            <path d="M14.2841154,13.5935963 C14.6821061,13.8239162 15.2282956,13.6290407 15.5040688,13.1583298 C15.7798345,12.6876145 15.6807557,12.1193132 15.2827676,11.8889889 C14.8847769,11.658669 14.3385874,11.8535445 14.0628143,12.3242555 C13.7870485,12.7949708 13.8861273,13.3632721 14.2841154,13.5935963 Z" id="Oval" fill="#DC8A78" fill-rule="nonzero"></path>
        </g>
    </g>
</svg>