<?xml version="1.0" encoding="UTF-8"?>
<svg width="16px" height="16px" viewBox="0 0 16 16" version="1.1" xmlns="http://www.w3.org/2000/svg" xmlns:xlink="http://www.w3.org/1999/xlink">
    <title>folder_components</title>
    <g id="folder_components" stroke="none" stroke-width="1" fill="none" fill-rule="evenodd">
        <g id="folder" transform="translate(0.5, 2.5)" stroke="#4C4F69" stroke-linecap="round" stroke-linejoin="round">
            <path d="M4,2 L11.5,2 C12.3284271,2 13,2.67157288 13,3.5 C13,3.93429905 13,3.76763238 13,4 M6,11 C4.88123915,11 3.71457248,11 1.5,11 C0.671572875,11 0,10.3284271 0,9.5 L0,1 C0,0.44771525 0.44771525,0 1,0 L6,0 C6.55228475,0 7,0.44771525 7,1 L7,2" id="Shape"></path>
        </g>
        <g id="icon" transform="translate(8.4645, 8.4645)" stroke="#DF8E1D">
            <path d="M3.8890873,0.353553391 L6.71751442,3.18198052 C6.91277657,3.37724266 6.91277657,3.69382515 6.71751442,3.8890873 L3.8890873,6.71751442 C3.69382515,6.91277657 3.37724266,6.91277657 3.18198052,6.71751442 L0.353553391,3.8890873 C0.158291245,3.69382515 0.158291245,3.37724266 0.353553391,3.18198052 L3.18198052,0.353553391 C3.37724266,0.158291245 3.69382515,0.158291245 3.8890873,0.353553391 Z" id="Path"></path>
            <line x1="2.12132034" y1="2.12132034" x2="4.94974747" y2="4.94974747" id="Path" stroke-linecap="square"></line>
            <line x1="4.94974747" y1="2.12132034" x2="2.12132034" y2="4.94974747" id="Path" stroke-linecap="square"></line>
        </g>
    </g>
</svg>