<?xml version="1.0" encoding="UTF-8"?>
<svg width="16px" height="16px" viewBox="0 0 16 16" version="1.1" xmlns="http://www.w3.org/2000/svg" xmlns:xlink="http://www.w3.org/1999/xlink">
    <title>folder_styles__open</title>
    <g id="folder_styles__open" stroke="none" stroke-width="1" fill="none" fill-rule="evenodd" stroke-linecap="round" stroke-linejoin="round">
        <g id="folder" transform="translate(0.5, 2.5)" stroke="#4C4F69">
            <path d="M1.37487972,5.5004811 L2.06063391,2.75746437 C2.17192566,2.31229737 2.57190876,2 3.03077641,2 L13.9692236,2 C14.5215083,2 14.9692236,2.44771525 14.9692236,3 C14.9692236,3.08176181 14.9591962,3.16321502 14.9393661,3.24253563 L14.6243253,4.50269892 M6,11 L1.50434875,11 C0.671572875,11 5.55111512e-17,10.3284271 5.55111512e-17,9.5 L5.55111512e-17,1 C5.55111512e-17,0.44771525 0.44771525,0 1,0 L6,0 C6.55228475,0 7,0.44771525 7,1 L7,2" id="Shape"></path>
        </g>
        <g id="icon" transform="translate(8.5, 8.5)" stroke="#1E66F5">
            <path d="M-1.77635684e-15,7.00018691 L-1.77635684e-15,5.44456905 C-1.77635684e-15,4.58542503 0.696473838,3.88895119 1.55561786,3.88895119 C2.41476188,3.88895119 3.11123572,4.58542503 3.11123572,5.44456905 C3.11123572,6.30371307 2.41476188,7.00018691 1.55561786,7.00018691 L-1.77635684e-15,7.00018691" id="Path"></path>
            <path d="M7,0 C4.73881279,0.309273516 2.8283953,1.83162512 2.022135,3.96670405 M7,0 C6.69072648,2.26118721 5.16837488,4.1716047 3.03329595,4.977865" id="Path"></path>
            <path d="M2.9555431,2.33333333 C3.71122504,2.68211566 4.31788434,3.28877496 4.66666667,4.0444569" id="Path"></path>
        </g>
    </g>
</svg>