<?xml version="1.0" encoding="UTF-8"?>
<svg width="16px" height="16px" viewBox="0 0 16 16" version="1.1" xmlns="http://www.w3.org/2000/svg" xmlns:xlink="http://www.w3.org/1999/xlink">
    <title>folder_api</title>
    <g id="folder_api" stroke="none" stroke-width="1" fill="none" fill-rule="evenodd">
        <g id="folder" transform="translate(0.5, 2.5)" stroke="#4C4F69" stroke-linecap="round" stroke-linejoin="round">
            <path d="M4,2 L11.5,2 C12.3284271,2 13,2.67157288 13,3.5 C13,3.93429905 13,3.76763238 13,4 M6,11 C4.88123915,11 3.71457248,11 1.5,11 C0.671572875,11 0,10.3284271 0,9.5 L0,1 C0,0.44771525 0.44771525,0 1,0 L6,0 C6.55228475,0 7,0.44771525 7,1 L7,2" id="Shape"></path>
        </g>
        <g id="icon" transform="translate(8, 8)">
            <circle id="Path" fill="#DF8E1D" cx="1" cy="1" r="1"></circle>
            <circle id="Path" fill="#DF8E1D" cx="7" cy="1" r="1"></circle>
            <circle id="Path" fill="#DF8E1D" cx="7" cy="7" r="1"></circle>
            <circle id="Path" fill="#DF8E1D" cx="1" cy="7" r="1"></circle>
            <circle id="Path" stroke="#DF8E1D" cx="4" cy="4" r="1.5"></circle>
            <line x1="5.5" y1="2.5" x2="6.5" y2="1.5" id="Path" stroke="#DF8E1D" stroke-linecap="square"></line>
            <line x1="5.5" y1="5.5" x2="6.5" y2="6.5" id="Path" stroke="#DF8E1D" stroke-linecap="square"></line>
            <line x1="1.5" y1="6.5" x2="2.5" y2="5.5" id="Path" stroke="#DF8E1D" stroke-linecap="square"></line>
            <line x1="1.5" y1="1.5" x2="2.5" y2="2.5" id="Path" stroke="#DF8E1D" stroke-linecap="square"></line>
        </g>
    </g>
</svg>