<?xml version="1.0" encoding="UTF-8"?>
<svg width="16px" height="16px" viewBox="0 0 16 16" version="1.1" xmlns="http://www.w3.org/2000/svg" xmlns:xlink="http://www.w3.org/1999/xlink">
    <title>folder_components__open</title>
    <g id="folder_components__open" stroke="none" stroke-width="1" fill="none" fill-rule="evenodd">
        <g id="folder" transform="translate(0.5, 2.5)" stroke="#4C4F69" stroke-linecap="round" stroke-linejoin="round">
            <path d="M1.37487972,5.5004811 L2.06063391,2.75746437 C2.17192566,2.31229737 2.57190876,2 3.03077641,2 L13.9692236,2 C14.5215083,2 14.9692236,2.44771525 14.9692236,3 C14.9692236,3.08176181 14.9591962,3.16321502 14.9393661,3.24253563 L14.6243253,4.50269892 M6,11 L1.50434875,11 C0.671572875,11 5.55111512e-17,10.3284271 5.55111512e-17,9.5 L5.55111512e-17,1 C5.55111512e-17,0.44771525 0.44771525,0 1,0 L6,0 C6.55228475,0 7,0.44771525 7,1 L7,2" id="Shape"></path>
        </g>
        <g id="icon" transform="translate(8.4645, 8.4645)" stroke="#DF8E1D">
            <path d="M3.8890873,0.353553391 L6.71751442,3.18198052 C6.91277657,3.37724266 6.91277657,3.69382515 6.71751442,3.8890873 L3.8890873,6.71751442 C3.69382515,6.91277657 3.37724266,6.91277657 3.18198052,6.71751442 L0.353553391,3.8890873 C0.158291245,3.69382515 0.158291245,3.37724266 0.353553391,3.18198052 L3.18198052,0.353553391 C3.37724266,0.158291245 3.69382515,0.158291245 3.8890873,0.353553391 Z" id="Path"></path>
            <line x1="2.12132034" y1="2.12132034" x2="4.94974747" y2="4.94974747" id="Path" stroke-linecap="square"></line>
            <line x1="4.94974747" y1="2.12132034" x2="2.12132034" y2="4.94974747" id="Path" stroke-linecap="square"></line>
        </g>
    </g>
</svg>