<?xml version="1.0" encoding="UTF-8"?>
<svg width="16px" height="16px" viewBox="0 0 16 16" version="1.1" xmlns="http://www.w3.org/2000/svg" xmlns:xlink="http://www.w3.org/1999/xlink">
    <title>folder_svelte__open</title>
    <g id="folder_svelte__open" stroke="none" stroke-width="1" fill="none" fill-rule="evenodd" stroke-linecap="round" stroke-linejoin="round">
        <g id="folder" stroke="#4C4F69">
            <path d="M1.87487972,8.0004811 L2.56063391,5.25746437 C2.67192566,4.81229737 3.07190876,4.5 3.53077641,4.5 L14.4692236,4.5 C15.0215083,4.5 15.4692236,4.94771525 15.4692236,5.5 C15.4692236,5.58176181 15.4591962,5.66321502 15.4393661,5.74253563 L15.1243253,7.00269892 M6.5,13.5 L2.00434875,13.5 C1.17157288,13.5 0.5,12.8284271 0.5,12 L0.5,3.5 C0.5,2.94771525 0.94771525,2.5 1.5,2.5 L6.5,2.5 C7.05228475,2.5 7.5,2.94771525 7.5,3.5 L7.5,4.5" id="Shape"></path>
        </g>
        <g id="macos" stroke="#FE640B">
            <path d="M15.0916805,10.7123121 C15.0916805,10.7123121 15.9758681,9.49550757 15.142008,8.32951611 C14.3080604,7.16360935 12.9139464,7.56774293 12.9139464,7.56774293 C12.9139464,7.56774293 10.8226879,8.63871388 9.66410638,9.39938611 C8.76792777,10.0215926 8.23883317,10.792004 9.01063734,12.0900249 C9.78244152,13.3880457 11.9255154,12.8356225 11.9255154,12.8356225 M8.90831946,12.2876879 C8.90831946,12.2876879 8.02413191,13.5045771 8.85799202,14.6704839 C9.69193965,15.8363907 11.0860536,15.4322571 11.0860536,15.4322571 C11.0860536,15.4322571 13.1773121,14.3612861 14.3358936,13.6006139 C15.2319847,12.9784074 15.7610793,12.207996 14.9892751,10.9099751 C14.217471,9.61195428 12.0743971,10.1643775 12.0743971,10.1643775 M10.9213297,10.8577223 L13.5509605,9.28751258 M10.423832,13.7459394 L13.0535503,12.1758143" id="Combined-Shape"></path>
        </g>
    </g>
</svg>