<?xml version="1.0" encoding="UTF-8"?>
<svg width="16px" height="16px" viewBox="0 0 16 16" version="1.1" xmlns="http://www.w3.org/2000/svg" xmlns:xlink="http://www.w3.org/1999/xlink">
    <title>folder_client</title>
    <g id="folder_client" stroke="none" stroke-width="1" fill="none" fill-rule="evenodd">
        <g id="folder" transform="translate(0.5, 2.5)" stroke="#4C4F69" stroke-linecap="round" stroke-linejoin="round">
            <path d="M4,2 L11.5,2 C12.3284271,2 13,2.67157288 13,3.5 C13,3.93429905 13,3.76763238 13,4 M6,11 C4.88123915,11 3.71457248,11 1.5,11 C0.671572875,11 0,10.3284271 0,9.5 L0,1 C0,0.44771525 0.44771525,0 1,0 L6,0 C6.55228475,0 7,0.44771525 7,1 L7,2" id="Shape"></path>
        </g>
        <g id="icon" transform="translate(8.5, 8.5)" stroke="#1E66F5">
            <path d="M0.5,0 L6.5,0 C6.77614237,-5.07265313e-17 7,0.223857625 7,0.5 L7,4.5 C7,4.77614237 6.77614237,5 6.5,5 L0.5,5 C0.223857625,5 -2.05135761e-16,4.77614237 0,4.5 L0,0.5 C-3.38176876e-17,0.223857625 0.223857625,-7.72046149e-17 0.5,0 Z" id="Path"></path>
            <line x1="7" y1="7" x2="4.40448959e-14" y2="7" id="Path" stroke-linecap="round" stroke-linejoin="round"></line>
        </g>
    </g>
</svg>