<?xml version="1.0" encoding="UTF-8"?>
<svg width="16px" height="16px" viewBox="0 0 16 16" version="1.1" xmlns="http://www.w3.org/2000/svg" xmlns:xlink="http://www.w3.org/1999/xlink">
    <title>folder_github__open</title>
    <g id="folder_github__open" stroke="none" stroke-width="1" fill="none" fill-rule="evenodd" stroke-linecap="round" stroke-linejoin="round">
        <g id="folder" transform="translate(0.5, 2.5)" stroke="#4C4F69">
            <path d="M1.37487972,5.5004811 L2.06063391,2.75746437 C2.17192566,2.31229737 2.57190876,2 3.03077641,2 L13.9692236,2 C14.5215083,2 14.9692236,2.44771525 14.9692236,3 C14.9692236,3.08176181 14.9591962,3.16321502 14.9393661,3.24253563 L14.6243253,4.50269892 M6,11 L1.50434875,11 C0.671572875,11 5.55111512e-17,10.3284271 5.55111512e-17,9.5 L5.55111512e-17,1 C5.55111512e-17,0.44771525 0.44771525,0 1,0 L6,0 C6.55228475,0 7,0.44771525 7,1 L7,2" id="Shape"></path>
        </g>
        <g id="icon" transform="translate(8.5, 8.4333)" stroke="#8C8FA1">
            <path d="M2.47067018,6.21887949 C0.700034828,6.76561429 0.700034828,5.24252014 -1.77635684e-15,5.04711613" id="Path"></path>
            <path d="M4.94116623,7 L4.94116623,5.63299781 C4.94116623,5.24252014 4.98243694,5.086263 4.73533509,4.8518773 C5.8883029,4.73460186 7,4.30514249 7,2.50835058 C6.9994681,2.04163749 6.80748861,1.59343687 6.46469974,1.25862383 C6.62552586,0.853189253 6.61075228,0.403872311 6.42360316,0.00873190878 C6.42360316,0.00873190878 5.97067018,-0.108543533 4.98243694,0.516485018 C4.1454423,0.309719542 3.26656824,0.309719542 2.42957361,0.516485018 C1.44116623,-0.108378356 0.988233245,0.00873190878 0.988233245,0.00873190878 C0.801084133,0.403872311 0.786310547,0.853189253 0.947136673,1.25862383 C0.604347802,1.59343687 0.412368305,2.04163749 0.41183641,2.50835058 C0.41183641,4.30514249 1.52353351,4.73476703 2.67650132,4.8518773 C2.42939947,5.086263 2.42939947,5.32048353 2.47067018,5.63316299 L2.47067018,7" id="Path"></path>
        </g>
    </g>
</svg>