<?xml version="1.0" encoding="UTF-8"?>
<svg width="16px" height="16px" viewBox="0 0 16 16" version="1.1" xmlns="http://www.w3.org/2000/svg" xmlns:xlink="http://www.w3.org/1999/xlink">
    <title>folder_library</title>
    <g id="folder_library" stroke="none" stroke-width="1" fill="none" fill-rule="evenodd">
        <g id="folder" stroke="#4C4F69" stroke-linecap="round" stroke-linejoin="round">
            <path d="M4.5,4.5 L12,4.5 C12.8284271,4.5 13.5,5.17157288 13.5,6 C13.5,6.43429905 13.5,6.26763238 13.5,6.5 M6.5,13.5 C5.38123915,13.5 4.21457248,13.5 2,13.5 C1.17157288,13.5 0.5,12.8284271 0.5,12 L0.5,3.5 C0.5,2.94771525 0.94771525,2.5 1.5,2.5 L6.5,2.5 C7.05228475,2.5 7.5,2.94771525 7.5,3.5 L7.5,4.5" id="Shape"></path>
        </g>
        <g id="macos" stroke="#8C8FA1">
            <path d="M8.7,8.5 L10.3,8.5 C10.4104569,8.5 10.5,8.58954305 10.5,8.7 L10.5,15.3 C10.5,15.4104569 10.4104569,15.5 10.3,15.5 L8.7,15.5 C8.58954305,15.5 8.5,15.4104569 8.5,15.3 L8.5,8.7 C8.5,8.58954305 8.58954305,8.5 8.7,8.5 Z M11,10.5 L12,10.5 C12.2761424,10.5 12.5,10.7238576 12.5,11 L12.5,15 C12.5,15.2761424 12.2761424,15.5 12,15.5 L11,15.5 C10.7238576,15.5 10.5,15.2761424 10.5,15 L10.5,11 C10.5,10.7238576 10.7238576,10.5 11,10.5 Z M15.5,16 L13.5,10" id="Combined-Shape"></path>
        </g>
    </g>
</svg>