<?xml version="1.0" encoding="UTF-8" standalone="no"?>
<!-- Created with Inkscape (http://www.inkscape.org/) -->

<svg
   width="100.0px"
   height="100.0px"
   viewBox="0 0 100.0 100.0"
   version="1.1"
   id="SVGRoot"
   sodipodi:docname="folder_nuxt.svg"
   inkscape:version="1.2.1 (9c6d41e410, 2022-07-14)"
   xmlns:inkscape="http://www.inkscape.org/namespaces/inkscape"
   xmlns:sodipodi="http://sodipodi.sourceforge.net/DTD/sodipodi-0.dtd"
   xmlns="http://www.w3.org/2000/svg"
   xmlns:svg="http://www.w3.org/2000/svg">
  <defs
     id="defs9" />
  <sodipodi:namedview
     id="namedview32486"
     pagecolor="#181825"
     bordercolor="#000000"
     borderopacity="0.24705882"
     inkscape:showpageshadow="2"
     inkscape:pageopacity="0"
     inkscape:pagecheckerboard="0"
     inkscape:deskcolor="#313244"
     inkscape:document-units="px"
     showgrid="true"
     inkscape:zoom="8.4359983"
     inkscape:cx="49.727369"
     inkscape:cy="64.95971"
     inkscape:window-width="1920"
     inkscape:window-height="1017"
     inkscape:window-x="1912"
     inkscape:window-y="-8"
     inkscape:window-maximized="1"
     inkscape:current-layer="SVGRoot"
     showborder="false">
    <inkscape:grid
       type="xygrid"
       id="grid32609" />
  </sodipodi:namedview>
  <path
     style="display:none;fill:none;stroke:#ffffff;stroke-width:5;stroke-linecap:round;stroke-linejoin:round;stroke-dasharray:none;stroke-opacity:1;paint-order:fill markers stroke"
     d="m 44.713612,27.878444 v -2.974408 c 0,-7.559955 -7.294688,-7.559955 -7.294688,-7.559955 H 11.229791 c -8.7297083,0 -8.7297083,9.047159 -8.7297083,9.047159 v 48.210205 c 0,7.436021 7.7730283,8.05569 7.7730283,8.05569 H 40 m 54.627007,-37.656568 1.938764,-7.331362 c 1.832899,-8.827338 -7.30989,-9.542894 -7.30989,-9.542894 H 24.025395 c 0,0 -4.885741,1.206318 -6.746049,5.588037 -1.860305,4.381718 -5.750039,15.511281 -5.750039,15.511281"
     id="path5390"
     sodipodi:nodetypes="ccccscscccscsc"
     inkscape:label="folder_open" />
  <path
     style="display:inline;fill:none;stroke:#ffffff;stroke-width:5;stroke-linecap:round;stroke-linejoin:round;stroke-dasharray:none;stroke-opacity:1;paint-order:fill markers stroke"
     d="m 24.023123,28.126179 h 54.285891 c 0,0 9.207079,0.247865 9.207079,9.542778 v 7.331208 M 40,82.656331 H 10.272291 c 0,0 -7.7722083,-0.61966 -7.7722083,-8.05559 V 26.39113 c 0,0 0,-9.047049 8.7287883,-9.047049 h 26.186366 c 0,0 7.293919,0 7.293919,7.559862 v 2.974372"
     id="path5390-2"
     sodipodi:nodetypes="ccscccscscsc"
     inkscape:label="folder_close" />
  <path
     style="fill:none;stroke:#00dc82;stroke-width:5;stroke-linecap:round;stroke-linejoin:round;stroke-dasharray:none;stroke-opacity:1;paint-order:fill markers stroke"
     d="m 79.366687,85.32509 h 17.81811 L 82.864313,61.699592 c 0,0 -11.15007,17.815364 -11.268311,18.016093 -0.118233,0.200728 -0.367868,0.711329 -0.709422,1.204371 -0.341553,0.493045 -0.916803,1.276818 -1.336357,1.748816 -0.419554,0.471999 -0.717627,0.774529 -1.17138,1.072387 -0.453744,0.297857 -0.984097,0.515935 -1.517837,0.692926 -0.53374,0.176992 -1.109606,0.280281 -1.666323,0.362962 -0.556716,0.08268 -1.388603,0.109988 -1.666324,0.131986 -0.138861,0.01099 -7.3662,0.0083 -11.465939,0.0083 -3.166931,0.09495 -2.454348,-1.407542 -1.396119,-3.052363 l 16.161708,-25.860858 9.436999,14.386477"
     id="path34906"
     sodipodi:nodetypes="ccczzzzzzscccc" />
</svg>
