<?xml version="1.0" encoding="UTF-8"?>
<svg width="16px" height="16px" viewBox="0 0 16 16" version="1.1" xmlns="http://www.w3.org/2000/svg" xmlns:xlink="http://www.w3.org/1999/xlink">
    <title>folder_utils</title>
    <g id="folder_utils" stroke="none" stroke-width="1" fill="none" fill-rule="evenodd" stroke-linejoin="round">
        <g id="folder" stroke="#4C4F69" stroke-linecap="round">
            <path d="M4.5,4.5 L12,4.5 C12.8284271,4.5 13.5,5.17157288 13.5,6 C13.5,6.43429905 13.5,6.26763238 13.5,6.5 M6.5,13.5 C5.38123915,13.5 4.21457248,13.5 2,13.5 C1.17157288,13.5 0.5,12.8284271 0.5,12 L0.5,3.5 C0.5,2.94771525 0.94771525,2.5 1.5,2.5 L6.5,2.5 C7.05228475,2.5 7.5,2.94771525 7.5,3.5 L7.5,4.5" id="Shape"></path>
        </g>
        <g id="icon" stroke="#40A02B">
            <path d="M15.75,14.25 L14.2352464,12.7340419 C14.4053274,12.3576494 14.5,11.9398807 14.5,11.5 C14.5,9.84314575 13.1568542,8.5 11.5,8.5 C11.0603051,8.5 10.6427035,8.59459264 10.2664351,8.76453809 L11.5,10 L10,11.5 L8.76418034,10.2672275 C8.59445989,10.6432898 8.5,11.0606137 8.5,11.5 C8.5,13.1568542 9.84314575,14.5 11.5,14.5 C11.9398438,14.5 12.3575793,14.4053433 12.7339471,14.2352893 L14.25,15.75" id="Path"></path>
        </g>
    </g>
</svg>