<?xml version="1.0" encoding="UTF-8"?>
<svg width="16px" height="16px" viewBox="0 0 16 16" version="1.1" xmlns="http://www.w3.org/2000/svg" xmlns:xlink="http://www.w3.org/1999/xlink">
    <title>folder_godot</title>
    <g id="folder_godot" stroke="none" stroke-width="1" fill="none" fill-rule="evenodd">
        <g id="folder" stroke="#4C4F69" stroke-linecap="round" stroke-linejoin="round">
            <path d="M4.5,4.5 L12,4.5 C12.8284271,4.5 13.5,5.17157288 13.5,6 C13.5,6.43429905 13.5,6.26763238 13.5,6.5 M6.5,13.5 C5.38123915,13.5 4.21457248,13.5 2,13.5 C1.17157288,13.5 0.5,12.8284271 0.5,12 L0.5,3.5 C0.5,2.94771525 0.94771525,2.5 1.5,2.5 L6.5,2.5 C7.05228475,2.5 7.5,2.94771525 7.5,3.5 L7.5,4.5" id="Shape"></path>
        </g>
        <g id="macos" stroke="#04A5E5">
            <polyline id="Line-2" stroke-linecap="round" points="8.72580645 12.9285714 9.97580645 13.1746032 10.1008065 13.6666667 11.1008065 13.6666667 11.3508065 13.1746032 12.6008065 13.1746032 12.8508065 13.6666667 13.8508065 13.6666667 13.9758065 13.1746032 15.2258065 12.9285714"></polyline>
            <path d="M8.64516129,13.875 C8.64516129,15 10.0597031,15.5 11.9975935,15.5 C13.9354839,15.5 15.3548387,15 15.3548387,13.875 L15.3548387,11.375 L16,10.75 L15.3548387,9.75 L14.5806452,10.375 L13.8064516,9.75 L14.0645161,9 L12.7741935,8.5 L12.3870968,9.25 L11.6129032,9.25 L11.2258065,8.5 L9.93548387,9 L10.1935484,9.75 L9.41935484,10.375 L8.64516129,9.75 L8,10.75 L8.64516129,11.375 L8.64516129,13.875 Z" id="Path" stroke-linecap="round"></path>
            <line x1="13" y1="11.5" x2="14" y2="11.5" id="Line-3"></line>
            <line x1="10" y1="11.5" x2="11" y2="11.5" id="Line-3"></line>
        </g>
    </g>
</svg>