<?xml version="1.0" encoding="UTF-8"?>
<svg width="16px" height="16px" viewBox="0 0 16 16" version="1.1" xmlns="http://www.w3.org/2000/svg" xmlns:xlink="http://www.w3.org/1999/xlink">
    <title>folder_views__open</title>
    <g id="folder_views__open" stroke="none" stroke-width="1" fill="none" fill-rule="evenodd" stroke-linecap="round" stroke-linejoin="round">
        <g id="folder" transform="translate(0.5, 2.5)" stroke="#4C4F69">
            <path d="M1.37487972,5.5004811 L2.06063391,2.75746437 C2.17192566,2.31229737 2.57190876,2 3.03077641,2 L13.9692236,2 C14.5215083,2 14.9692236,2.44771525 14.9692236,3 C14.9692236,3.08176181 14.9591962,3.16321502 14.9393661,3.24253563 L14.6243253,4.50269892 M6,11 L1.50434875,11 C0.671572875,11 5.55111512e-17,10.3284271 5.55111512e-17,9.5 L5.55111512e-17,1 C5.55111512e-17,0.44771525 0.44771525,0 1,0 L6,0 C6.55228475,0 7,0.44771525 7,1 L7,2" id="Shape"></path>
        </g>
        <g id="icon" transform="translate(9, 8.5)" stroke="#FE640B">
            <path d="M5.69160928,1.77635684e-15 L0.308363642,1.77635684e-15 C0.221818429,1.77635684e-15 0.139248227,0.0363297124 0.0808286853,0.100182916 C0.0224091433,0.164036121 -0.00647840695,0.249505629 0.00122457446,0.335707361 L0.47008374,5.57708478 C0.481499951,5.70485577 0.570848735,5.81220287 0.694425991,5.84661827 L2.99708131,7 L5.30538554,5.84694107 C5.42925601,5.81265377 5.5188542,5.70511022 5.53021198,5.57708478 L5.99874835,0.335545964 C6.00653747,0.249334146 5.97772031,0.163819824 5.91934088,0.0999059019 C5.86073118,0.0362478017 5.77814903,1.77635684e-15 5.69160928,1.77635684e-15 Z" id="Path"></path>
        </g>
    </g>
</svg>