<?xml version="1.0" encoding="UTF-8"?>
<svg width="16px" height="16px" viewBox="0 0 16 16" version="1.1" xmlns="http://www.w3.org/2000/svg" xmlns:xlink="http://www.w3.org/1999/xlink">
    <title>folder_images</title>
    <g id="folder_images" stroke="none" stroke-width="1" fill="none" fill-rule="evenodd">
        <g id="folder" transform="translate(0.5, 2.5)" stroke="#4C4F69" stroke-linecap="round" stroke-linejoin="round">
            <path d="M4,2 L11.5,2 C12.3284271,2 13,2.67157288 13,3.5 C13,3.93429905 13,3.76763238 13,4 M6,11 C4.88123915,11 3.71457248,11 1.5,11 C0.671572875,11 0,10.3284271 0,9.5 L0,1 C0,0.44771525 0.44771525,0 1,0 L6,0 C6.55228475,0 7,0.44771525 7,1 L7,2" id="Shape"></path>
        </g>
        <g id="icon" transform="translate(8.5, 8.5)">
            <polyline id="Path" stroke="#40A02B" stroke-linecap="round" stroke-linejoin="round" points="6 7 2.5 3.5 2.62317945e-14 6"></polyline>
            <circle id="Path" fill="#DF8E1D" cx="5" cy="2" r="1"></circle>
            <path d="M1,0 L5.99748427,0 C6.54976902,-5.91980459e-16 6.99748427,0.44771525 6.99748427,1 L6.99748427,6 C6.99748427,6.55228475 6.54976902,7 5.99748427,7 L1,7 C0.44771525,7 3.38176876e-17,6.55228475 0,6 L0,1 C-6.76353751e-17,0.44771525 0.44771525,6.76353751e-17 1,0 Z" id="Path" stroke="#209FB5" stroke-linejoin="round"></path>
        </g>
    </g>
</svg>