<svg clip-rule="evenodd" fill-rule="evenodd" stroke-linecap="round" stroke-linejoin="round" viewBox="0 0 100 100" xmlns="http://www.w3.org/2000/svg"><g fill="none" stroke-width="5"><path d="m44.714 27.878v-2.974c0-7.56-7.295-7.56-7.295-7.56h-26.189c-8.73 0-8.73 9.047-8.73 9.047v48.21c0 7.436 7.773 8.056 7.773 8.056h29.727m54.627-37.656 1.939-7.332c1.833-8.827-7.31-9.543-7.31-9.543h-65.231s-4.885 1.207-6.746 5.588c-1.86 4.382-5.75 15.512-5.75 15.512" stroke="#fff"/><path d="m49.755 92.019h10.693l28.07-28.07c1.416-1.418 2.212-3.341 2.212-5.344 0-4.148-3.413-7.562-7.561-7.562-2.004 0-3.927.797-5.344 2.213l-28.07 28.069zm25.396-36.09 10.694 10.693" stroke="#43c6d1"/></g></svg>