<?xml version="1.0" encoding="UTF-8"?>
<svg width="16px" height="16px" viewBox="0 0 16 16" version="1.1" xmlns="http://www.w3.org/2000/svg" xmlns:xlink="http://www.w3.org/1999/xlink">
    <title>folder_java</title>
    <g id="folder_java" stroke="none" stroke-width="1" fill="none" fill-rule="evenodd" stroke-linejoin="round">
        <g id="folder" stroke="#4C4F69" stroke-linecap="round">
            <path d="M4.5,4.5 L12,4.5 C12.8284271,4.5 13.5,5.17157288 13.5,6 C13.5,6.43429905 13.5,6.26763238 13.5,6.5 M6.5,13.5 C5.38123915,13.5 4.21457248,13.5 2,13.5 C1.17157288,13.5 0.5,12.8284271 0.5,12 L0.5,3.5 C0.5,2.94771525 0.94771525,2.5 1.5,2.5 L6.5,2.5 C7.05228475,2.5 7.5,2.94771525 7.5,3.5 L7.5,4.5" id="Shape"></path>
        </g>
        <g id="macos" stroke="#D20F39">
            <path d="M13.5,13 C13.5,13.75 13.25,14.25 12.75,14.75 C12.25,15.25 11.75,15.5 11,15.5 L10,15.5 C9.25,15.5 8.75,15.25 8.25,14.75 C7.75,14.25 7.5,13.75 7.5,13 L7.5,11.5 L13.504834,11.5 L13.5,13 Z M13.5,11.5 L14.5714286,11.5 C15.25,11.5 15.5,11.75 15.5,12.5 C15.5,13.25 15.25,13.5 14.5,13.5 L13.5,13.5" id="Combined-Shape" stroke-linecap="round"></path>
            <path d="M8.5,10 L8.5,9.5 C8.5,9 8.66666667,8.66666667 9,8.5 C9.33333333,8.33333333 9.5,8 9.5,7.5 L9.5,7" id="Path"></path>
            <path d="M11.5,10 L11.5,9.5 C11.5,9 11.6666667,8.66666667 12,8.5 C12.3333333,8.33333333 12.5,8 12.5,7.5 L12.5,7" id="Path"></path>
        </g>
    </g>
</svg>