<?xml version="1.0" encoding="UTF-8" standalone="no"?>
<!-- Created with Inkscape (http://www.inkscape.org/) -->

<svg
   width="100.0px"
   height="100.0px"
   viewBox="0 0 100.0 100.0"
   version="1.1"
   id="SVGRoot"
   sodipodi:docname="folder_api__open.svg"
   inkscape:version="1.2.1 (9c6d41e410, 2022-07-14)"
   xmlns:inkscape="http://www.inkscape.org/namespaces/inkscape"
   xmlns:sodipodi="http://sodipodi.sourceforge.net/DTD/sodipodi-0.dtd"
   xmlns="http://www.w3.org/2000/svg"
   xmlns:svg="http://www.w3.org/2000/svg">
  <defs
     id="defs9" />
  <sodipodi:namedview
     id="namedview32486"
     pagecolor="#181825"
     bordercolor="#000000"
     borderopacity="0.24705882"
     inkscape:showpageshadow="2"
     inkscape:pageopacity="0"
     inkscape:pagecheckerboard="0"
     inkscape:deskcolor="#313244"
     inkscape:document-units="px"
     showgrid="true"
     inkscape:zoom="5.9651516"
     inkscape:cx="50.37592"
     inkscape:cy="32.354584"
     inkscape:window-width="1920"
     inkscape:window-height="1017"
     inkscape:window-x="1912"
     inkscape:window-y="-8"
     inkscape:window-maximized="1"
     inkscape:current-layer="SVGRoot"
     showborder="false">
    <inkscape:grid
       type="xygrid"
       id="grid32609" />
  </sodipodi:namedview>
  <path
     style="display:inline;fill:none;stroke:#ffffff;stroke-width:5;stroke-linecap:round;stroke-linejoin:round;stroke-dasharray:none;stroke-opacity:1;paint-order:fill markers stroke"
     d="m 44.713612,27.878444 v -2.974408 c 0,-7.559955 -7.294688,-7.559955 -7.294688,-7.559955 H 11.229791 c -8.7297083,0 -8.7297083,9.047159 -8.7297083,9.047159 v 48.210205 c 0,7.436021 7.7730283,8.05569 7.7730283,8.05569 H 40 m 54.627007,-37.656568 1.938764,-7.331362 c 1.832899,-8.827338 -7.30989,-9.542894 -7.30989,-9.542894 H 24.025395 c 0,0 -4.885741,1.206318 -6.746049,5.588037 -1.860305,4.381718 -5.750039,15.511281 -5.750039,15.511281"
     id="path5390"
     sodipodi:nodetypes="ccccscscccscsc"
     inkscape:label="folder_open" />
  <path
     style="display:none;fill:none;stroke:#ffffff;stroke-width:5;stroke-linecap:round;stroke-linejoin:round;stroke-dasharray:none;stroke-opacity:1;paint-order:fill markers stroke"
     d="m 24.023123,28.126179 h 54.285891 c 0,0 9.207079,0.247865 9.207079,9.542778 v 7.331208 M 40,82.656331 H 10.272291 c 0,0 -7.7722083,-0.61966 -7.7722083,-8.05559 V 26.39113 c 0,0 0,-9.047049 8.7287883,-9.047049 h 26.186366 c 0,0 7.293919,0 7.293919,7.559862 v 2.974372"
     id="path5390-2"
     sodipodi:nodetypes="ccscccscscsc"
     inkscape:label="folder_close" />
  <path
     fill="currentColor"
     d="m 86.28332,80.537071 a 5.868673,5.868673 0 0 0 -3.04077,0.866618 l -4.69798,-4.713183 a 9.1222897,9.1222897 0 0 0 0,-10.551449 l 4.69798,-4.713183 a 5.868673,5.868673 0 0 0 3.04077,0.866618 6.0815265,6.0815265 0 1 0 -6.08153,-6.081527 5.868673,5.868673 0 0 0 0.86662,3.040764 l -4.71318,4.697979 a 9.1222897,9.1222897 0 0 0 -10.551453,0 l -4.713183,-4.697979 a 5.868673,5.868673 0 0 0 0.866618,-3.040764 6.0815265,6.0815265 0 1 0 -6.081526,6.081527 5.868673,5.868673 0 0 0 3.040762,-0.866618 l 4.697979,4.713183 a 9.1222897,9.1222897 0 0 0 0,10.551449 l -4.697979,4.713183 a 5.868673,5.868673 0 0 0 -3.040762,-0.866618 6.0815265,6.0815265 0 1 0 6.081526,6.081526 5.868673,5.868673 0 0 0 -0.866618,-3.040762 l 4.713183,-4.697979 a 9.1222897,9.1222897 0 0 0 10.551453,0 l 4.71318,4.697979 a 5.868673,5.868673 0 0 0 -0.86662,3.040762 6.0815265,6.0815265 0 1 0 6.08153,-6.081526 z m 0,-27.366869 a 3.0407632,3.0407632 0 1 1 -3.04077,3.040763 3.0407632,3.0407632 0 0 1 3.04077,-3.040763 z m -33.448399,3.040763 a 3.0407632,3.0407632 0 1 1 3.040765,3.040764 3.0407632,3.0407632 0 0 1 -3.040765,-3.040764 z m 3.040765,33.448396 a 3.0407632,3.0407632 0 1 1 3.040762,-3.040764 3.0407632,3.0407632 0 0 1 -3.040762,3.040764 z M 71.079501,77.496308 a 6.0815265,6.0815265 0 1 1 6.081529,-6.081527 6.0815265,6.0815265 0 0 1 -6.081529,6.081527 z M 86.28332,89.659361 a 3.0407632,3.0407632 0 1 1 3.04076,-3.040764 3.0407632,3.0407632 0 0 1 -3.04076,3.040764 z"
     id="path15558"
     style="fill:#fbc02d;fill-opacity:1;stroke:#fbc02d;stroke-width:1.35;stroke-dasharray:none;stroke-opacity:1" />
</svg>
