<?xml version="1.0" encoding="UTF-8"?>
<svg width="16px" height="16px" viewBox="0 0 16 16" version="1.1" xmlns="http://www.w3.org/2000/svg" xmlns:xlink="http://www.w3.org/1999/xlink">
    <title>folder_routes</title>
    <g id="folder_routes" stroke="none" stroke-width="1" fill="none" fill-rule="evenodd" stroke-linejoin="round">
        <g id="folder" transform="translate(0.5, 2.5)" stroke="#4C4F69" stroke-linecap="round">
            <path d="M4,2 L11.5,2 C12.3284271,2 13,2.67157288 13,3.5 C13,3.93429905 13,3.76763238 13,4 M6,11 C4.88123915,11 3.71457248,11 1.5,11 C0.671572875,11 0,10.3284271 0,9.5 L0,1 C0,0.44771525 0.44771525,0 1,0 L6,0 C6.55228475,0 7,0.44771525 7,1 L7,2" id="Shape"></path>
        </g>
        <g id="icon" transform="translate(8.5, 8.5)" stroke="#40A02B">
            <line x1="3" y1="3" x2="3" y2="7" id="Path" stroke-linecap="round"></line>
            <line x1="3" y1="4.48418213e-18" x2="3" y2="1" id="Path" stroke-linecap="round"></line>
            <line x1="2" y1="7" x2="4" y2="7" id="Path" stroke-linecap="round"></line>
            <polygon id="Path" points="2.69043819e-17 1 -3.9634962e-14 3 5.75 3 7 2 5.75 1"></polygon>
        </g>
    </g>
</svg>