<?xml version="1.0" encoding="UTF-8"?>
<svg width="16px" height="16px" viewBox="0 0 16 16" version="1.1" xmlns="http://www.w3.org/2000/svg" xmlns:xlink="http://www.w3.org/1999/xlink">
    <title>folder_favorite</title>
    <g id="folder_favorite" stroke="none" stroke-width="1" fill="none" fill-rule="evenodd" stroke-linecap="round" stroke-linejoin="round">
        <g id="folder" stroke="#4C4F69">
            <path d="M4.5,4.5 L12,4.5 C12.8284271,4.5 13.5,5.17157288 13.5,6 C13.5,6.43429905 13.5,6.26763238 13.5,6.5 M6.5,13.5 C5.38123915,13.5 4.21457248,13.5 2,13.5 C1.17157288,13.5 0.5,12.8284271 0.5,12 L0.5,3.5 C0.5,2.94771525 0.94771525,2.5 1.5,2.5 L6.5,2.5 C7.05228475,2.5 7.5,2.94771525 7.5,3.5 L7.5,4.5" id="Shape"></path>
        </g>
        <g id="macos" stroke="#EA76CB" stroke-width="1.25">
            <path d="M12,15.5 C10,13.5 8.75,13 8.49998839,10.5 C8.49998839,9.5 8.75,8.5 10,8.5 C11.25,8.5 11.5790357,9.43360434 12,10 C12.4227284,9.4377948 12.75,8.5 14,8.5 C15.25,8.5 15.4999884,9.5 15.4999884,10.5 C15.25,13 14,13.5 12,15.5 Z" id="Path"></path>
        </g>
    </g>
</svg>