<?xml version="1.0" encoding="UTF-8"?>
<svg width="16px" height="16px" viewBox="0 0 16 16" version="1.1" xmlns="http://www.w3.org/2000/svg" xmlns:xlink="http://www.w3.org/1999/xlink">
    <title>folder_husky__open</title>
    <g id="folder_husky__open" stroke="none" stroke-width="1" fill="none" fill-rule="evenodd">
        <g id="folder" transform="translate(0.5, 2.5)" stroke="#4C4F69" stroke-linecap="round" stroke-linejoin="round">
            <path d="M1.37487972,5.5004811 L2.06063391,2.75746437 C2.17192566,2.31229737 2.57190876,2 3.03077641,2 L13.9692236,2 C14.5215083,2 14.9692236,2.44771525 14.9692236,3 C14.9692236,3.08176181 14.9591962,3.16321502 14.9393661,3.24253563 L14.6243253,4.50269892 M6,11 L1.50434875,11 C0.671572875,11 5.55111512e-17,10.3284271 5.55111512e-17,9.5 L5.55111512e-17,1 C5.55111512e-17,0.44771525 0.44771525,0 1,0 L6,0 C6.55228475,0 7,0.44771525 7,1 L7,2" id="Shape"></path>
        </g>
        <g id="icon" transform="translate(8.5, 7.997)">
            <g id="Group" transform="translate(0, -0)">
                <path d="M0.559466068,4.28750317 L2.6776359,3.5127641 C3.32737933,3.27492201 4.03761503,3.67568671 4.15170408,4.34435475 L4.52406066,6.52418451 C4.64379148,7.22571744 3.8740038,7.74766167 3.24322298,7.3917552 C3.16065862,7.34532142 3.09010307,7.28042316 3.03714179,7.20219801 L2.92791093,7.04052147 C2.47374874,6.36842676 1.7222968,5.94445415 0.899539206,5.89616925 L0.701607237,5.88464317 C0.606464085,5.87909553 0.513871207,5.85191909 0.430959168,5.80520672 C-0.199821654,5.44945601 -0.122247367,4.53687133 0.559466068,4.28765892 L0.559466068,4.28750317 Z" id="Path" stroke="#DC8A78"></path>
                <ellipse id="Oval" fill="#DC8A78" fill-rule="nonzero" transform="translate(1.2232, 2.1844) rotate(30.2111) translate(-1.2232, -2.1844)" cx="1.2231516" cy="2.18442802" rx="1" ry="1"></ellipse>
                <ellipse id="Oval" fill="#DC8A78" fill-rule="nonzero" transform="translate(3.843, 1.2726) rotate(30.2111) translate(-3.843, -1.2726)" cx="3.84296653" cy="1.27258363" rx="1" ry="1"></ellipse>
                <ellipse id="Oval" fill="#DC8A78" fill-rule="nonzero" transform="translate(5.8886, 2.1844) rotate(30.2111) translate(-5.8886, -2.1844)" cx="5.88864541" cy="2.18438716" rx="1" ry="1"></ellipse>
                <ellipse id="Oval" fill="#DC8A78" fill-rule="nonzero" transform="translate(6.2834, 4.7443) rotate(30.2111) translate(-6.2834, -4.7443)" cx="6.28344148" cy="4.74432164" rx="1" ry="1"></ellipse>
            </g>
        </g>
    </g>
</svg>