<?xml version="1.0" encoding="UTF-8"?>
<svg width="16px" height="16px" viewBox="0 0 16 16" version="1.1" xmlns="http://www.w3.org/2000/svg" xmlns:xlink="http://www.w3.org/1999/xlink">
    <title>folder_middleware</title>
    <g id="folder_middleware" stroke="none" stroke-width="1" fill="none" fill-rule="evenodd">
        <g id="folder" stroke="#4C4F69" stroke-linecap="round" stroke-linejoin="round">
            <path d="M4.5,4.5 L12,4.5 C12.8284271,4.5 13.5,5.17157288 13.5,6 C13.5,6.43429905 13.5,6.26763238 13.5,6.5 M6.5,13.5 C5.38123915,13.5 4.21457248,13.5 2,13.5 C1.17157288,13.5 0.5,12.8284271 0.5,12 L0.5,3.5 C0.5,2.94771525 0.94771525,2.5 1.5,2.5 L6.5,2.5 C7.05228475,2.5 7.5,2.94771525 7.5,3.5 L7.5,4.5" id="Shape"></path>
        </g>
        <g id="macos" stroke="#40A02B">
            <path d="M15.5,13.5 L15.5,14.7 C15.5,15.1418278 15.1418278,15.5 14.7,15.5 L10.3,15.5 C9.85817221,15.5 9.5,15.1418278 9.5,14.7 L9.5,13.5 L9,13.5 C8.44771525,13.5 8,13.0522847 8,12.5 C8,11.9477153 8.44771525,11.5 9,11.5 L9.5,11.5 L9.5,10.3 C9.5,9.85817221 9.85817221,9.5 10.3,9.5 L11.5,9.5 L11.5,9 C11.5,8.44771525 11.9477153,8 12.5,8 C13.0522847,8 13.5,8.44771525 13.5,9 L13.5,9.5 L14.7,9.5 C15.1418278,9.5 15.5,9.85817221 15.5,10.3 L15.5,11.5 L15,11.5 C14.4477153,11.5 14,11.9477153 14,12.5 C14,13.0522847 14.4477153,13.5 15,13.5 L15.5,13.5 Z" id="Path"></path>
        </g>
    </g>
</svg>