<?xml version="1.0" encoding="UTF-8"?>
<svg width="16px" height="16px" viewBox="0 0 16 16" version="1.1" xmlns="http://www.w3.org/2000/svg" xmlns:xlink="http://www.w3.org/1999/xlink">
    <title>folder_vscode</title>
    <g id="folder_vscode" stroke="none" stroke-width="1" fill="none" fill-rule="evenodd" stroke-linecap="round" stroke-linejoin="round">
        <g id="folder" transform="translate(0.5, 2.5)" stroke="#4C4F69">
            <path d="M4,2 L11.5,2 C12.3284271,2 13,2.67157288 13,3.5 C13,3.93429905 13,3.76763238 13,4 M6,11 C4.88123915,11 3.71457248,11 1.5,11 C0.671572875,11 0,10.3284271 0,9.5 L0,1 C0,0.44771525 0.44771525,0 1,0 L6,0 C6.55228475,0 7,0.44771525 7,1 L7,2" id="Shape"></path>
        </g>
        <g id="icon" transform="translate(8.5, 8.5)" stroke="#1E66F5">
            <path d="M0,2 L5.05518071,6.93151069 C5.05518071,6.93151069 5.23389836,7.07450556 5.397341,6.94725822 L6.83098584,6.20802904 C7.02616656,6.06431014 6.99867154,5.88674309 6.99867154,5.88674309 L6.99867154,1.05007729 C6.99867154,0.837757054 6.79704137,0.764087544 6.79704137,0.764087544 L5.47524357,0.0773501448 C5.18671554,-0.115059411 4.99764483,0.112103329 4.99764483,0.112103329 L4.57673336,0.517557144 L0.05,5" id="Path"></path>
        </g>
    </g>
</svg>