<?xml version="1.0" encoding="UTF-8"?>
<svg width="16px" height="16px" viewBox="0 0 16 16" version="1.1" xmlns="http://www.w3.org/2000/svg" xmlns:xlink="http://www.w3.org/1999/xlink">
    <title>folder_mocks__open</title>
    <g id="folder_mocks__open" stroke="none" stroke-width="1" fill="none" fill-rule="evenodd" stroke-linecap="round" stroke-linejoin="round">
        <g id="folder" transform="translate(0.5, 2.5)" stroke="#4C4F69">
            <path d="M1.37487972,5.5004811 L2.06063391,2.75746437 C2.17192566,2.31229737 2.57190876,2 3.03077641,2 L13.9692236,2 C14.5215083,2 14.9692236,2.44771525 14.9692236,3 C14.9692236,3.08176181 14.9591962,3.16321502 14.9393661,3.24253563 L14.6243253,4.50269892 M6,11 L1.50434875,11 C0.671572875,11 5.55111512e-17,10.3284271 5.55111512e-17,9.5 L5.55111512e-17,1 C5.55111512e-17,0.44771525 0.44771525,0 1,0 L6,0 C6.55228475,0 7,0.44771525 7,1 L7,2" id="Shape"></path>
        </g>
        <g id="icon" transform="translate(8.5, 8.5)" stroke="#04A5E5">
            <path d="M1.82662475,7 L6.62166421,2.20496055 C6.94795929,1.87866546 7.07539203,1.40308001 6.95595974,0.957352638 C6.83652745,0.511625262 6.48837474,0.163472551 6.04264736,0.0440402603 C5.59691999,-0.0753920301 5.12133454,0.0520407067 4.79503945,0.378335792 L0,5.17337525 L0,7 L1.82662475,7 Z M4.33825515,0.834949275 L6.16505073,2.66157403" id="Path"></path>
        </g>
    </g>
</svg>