<?xml version="1.0" encoding="UTF-8"?>
<svg width="16px" height="16px" viewBox="0 0 16 16" version="1.1" xmlns="http://www.w3.org/2000/svg" xmlns:xlink="http://www.w3.org/1999/xlink">
    <title>folder_redux</title>
    <g id="folder_redux" stroke="none" stroke-width="1" fill="none" fill-rule="evenodd">
        <g id="folder" stroke="#4C4F69" stroke-linecap="round" stroke-linejoin="round">
            <path d="M4.5,4.5 L12,4.5 C12.8284271,4.5 13.5,5.17157288 13.5,6 C13.5,6.43429905 13.5,6.26763238 13.5,6.5 M6.5,13.5 C5.38123915,13.5 4.21457248,13.5 2,13.5 C1.17157288,13.5 0.5,12.8284271 0.5,12 L0.5,3.5 C0.5,2.94771525 0.94771525,2.5 1.5,2.5 L6.5,2.5 C7.05228475,2.5 7.5,2.94771525 7.5,3.5 L7.5,4.5" id="Shape"></path>
        </g>
        <g id="macos" stroke="#8839EF">
            <path d="M13.4695308,10.4962075 C13.3296718,9.35697739 12.7248832,8.5 12,8.5 C11.1715729,8.5 10.5,9.61928813 10.5,11 C10.5,11.8173095 10.7353207,12.5430156 11.0991992,12.99918 M12.8156592,14.9306692 C13.7201118,15.6373312 14.7537364,15.8156557 15.2663063,15.3030858 C15.8520927,14.7172994 15.5355102,13.4509694 14.5591995,12.4746587 C13.9812744,11.8967336 13.3017258,11.5499788 12.721868,11.4847229 M9.05855833,12.8201213 C8.35189629,13.724574 8.17357184,14.7581986 8.68614168,15.2707684 C9.27192812,15.8565548 10.5382581,15.5399723 11.5145688,14.5636616 C12.0924939,13.9857365 12.4392487,13.3061879 12.5045047,12.7263301" id="Combined-Shape"></path>
        </g>
    </g>
</svg>