<?xml version="1.0" encoding="UTF-8"?>
<svg width="16px" height="16px" viewBox="0 0 16 16" version="1.1" xmlns="http://www.w3.org/2000/svg" xmlns:xlink="http://www.w3.org/1999/xlink">
    <title>folder_android</title>
    <g id="folder_android" stroke="none" stroke-width="1" fill="none" fill-rule="evenodd">
        <g id="folder" stroke="#4C4F69" stroke-linecap="round" stroke-linejoin="round">
            <path d="M4.5,4.5 L12,4.5 C12.8284271,4.5 13.5,5.17157288 13.5,6 C13.5,6.43429905 13.5,6.26763238 13.5,6.5 M6.5,13.5 C5.38123915,13.5 4.21457248,13.5 2,13.5 C1.17157288,13.5 0.5,12.8284271 0.5,12 L0.5,3.5 C0.5,2.94771525 0.94771525,2.5 1.5,2.5 L6.5,2.5 C7.05228475,2.5 7.5,2.94771525 7.5,3.5 L7.5,4.5" id="Shape"></path>
        </g>
        <g id="icon">
            <path d="M15.5,14 C15.5,12.0670034 13.9329966,10.5 12,10.5 C10.0670034,10.5 8.50964355,12.0670034 8.50964355,14 L8.5,15.5 L15.5,15.5 L15.5,14 Z" id="Path" stroke="#40A02B"></path>
            <line x1="14.5" y1="11.0268555" x2="15.5" y2="9" id="Line" stroke="#40A02B" stroke-linecap="round" stroke-linejoin="round"></line>
            <line x1="8.5" y1="11.0268555" x2="9.5" y2="9" id="Line" stroke="#40A02B" stroke-linecap="round" stroke-linejoin="round" transform="translate(9, 10.0134) scale(-1, 1) translate(-9, -10.0134)"></line>
            <rect id="Rectangle" fill="#40A02B" x="10" y="13" width="1" height="1"></rect>
            <rect id="Rectangle" fill="#40A02B" x="13" y="13" width="1" height="1"></rect>
        </g>
    </g>
</svg>