<?xml version="1.0" encoding="UTF-8"?>
<svg width="16px" height="16px" viewBox="0 0 16 16" version="1.1" xmlns="http://www.w3.org/2000/svg" xmlns:xlink="http://www.w3.org/1999/xlink">
    <title>folder_sass__open</title>
    <g id="folder_sass__open" stroke="none" stroke-width="1" fill="none" fill-rule="evenodd" stroke-linecap="round" stroke-linejoin="round">
        <g id="folder" transform="translate(0.5, 2.5)" stroke="#4C4F69">
            <path d="M1.37487972,5.5004811 L2.06063391,2.75746437 C2.17192566,2.31229737 2.57190876,2 3.03077641,2 L13.9692236,2 C14.5215083,2 14.9692236,2.44771525 14.9692236,3 C14.9692236,3.08176181 14.9591962,3.16321502 14.9393661,3.24253563 L14.6243253,4.50269892 M6,11 L1.50434875,11 C0.671572875,11 5.55111512e-17,10.3284271 5.55111512e-17,9.5 L5.55111512e-17,1 C5.55111512e-17,0.44771525 0.44771525,0 1,0 L6,0 C6.55228475,0 7,0.44771525 7,1 L7,2" id="Shape"></path>
        </g>
        <g id="icon" transform="translate(9.5, 8.5)" stroke="#EA76CB">
            <path d="M2.32088996,2.6270492 C3.3258001,3.20169616 4.14411282,3.02818735 4.95504881,2.51848503 C5.76581715,2.00862116 6.4263687,1.02298127 5.66187249,0.286618932 C5.27945674,-0.0814006817 3.88777187,-0.142952689 2.59869045,0.387751627 C1.30944137,0.918455943 0.0951330319,2.01395243 0.0106360831,2.60216991 C-0.158022509,3.77876642 1.73108785,4.15340974 1.99681734,4.88040196 C2.26271448,5.60723262 2.14887832,5.94342613 1.88415474,6.40062345 C1.61959882,6.85798233 0.817045456,7.27576052 0.362874356,6.76735064 C-0.0914643967,6.25845609 1.27121656,5.28606361 1.98290217,5.01610717 C2.69425247,4.74615073 3.68072082,4.80463321 3.99724907,5.15181238 C4.31360967,5.49915311 3.96237731,6.1156425 3.98316625,6.1156425" id="Path"></path>
        </g>
    </g>
</svg>