<?xml version="1.0" encoding="UTF-8"?>
<svg width="16px" height="16px" viewBox="0 0 16 16" version="1.1" xmlns="http://www.w3.org/2000/svg" xmlns:xlink="http://www.w3.org/1999/xlink">
    <title>folder_circle_ci__open</title>
    <g id="folder_circle_ci__open" stroke="none" stroke-width="1" fill="none" fill-rule="evenodd">
        <g id="folder" stroke="#4C4F69" stroke-linecap="round" stroke-linejoin="round">
            <path d="M1.87487972,8.0004811 L2.56063391,5.25746437 C2.67192566,4.81229737 3.07190876,4.5 3.53077641,4.5 L14.4692236,4.5 C15.0215083,4.5 15.4692236,4.94771525 15.4692236,5.5 C15.4692236,5.58176181 15.4591962,5.66321502 15.4393661,5.74253563 L15.1243253,7.00269892 M6.5,13.5 L2.00434875,13.5 C1.17157288,13.5 0.5,12.8284271 0.5,12 L0.5,3.5 C0.5,2.94771525 0.94771525,2.5 1.5,2.5 L6.5,2.5 C7.05228475,2.5 7.5,2.94771525 7.5,3.5 L7.5,4.5" id="Shape"></path>
        </g>
        <g id="circle_ci">
            <path d="M8.8359196,13.4981125 C9.39726521,14.6816036 10.6030592,15.5 12,15.5 C13.9329966,15.5 15.5,13.9329966 15.5,12 C15.5,10.0670034 13.9329966,8.5 12,8.5 C10.6047169,8.5 9.4001271,9.31645533 8.83792062,10.497676" id="Path" stroke="#8C8FA1" stroke-linecap="round" stroke-linejoin="round"></path>
            <circle id="Oval" fill="#8C8FA1" cx="12" cy="12" r="1"></circle>
        </g>
    </g>
</svg>