<?xml version="1.0" encoding="UTF-8"?>
<svg width="16px" height="16px" viewBox="0 0 16 16" version="1.1" xmlns="http://www.w3.org/2000/svg" xmlns:xlink="http://www.w3.org/1999/xlink">
    <title>folder_nuxt</title>
    <g id="folder_nuxt" stroke="none" stroke-width="1" fill="none" fill-rule="evenodd" stroke-linecap="round" stroke-linejoin="round">
        <g id="folder" transform="translate(0.5, 2.5)" stroke="#4C4F69">
            <path d="M4,2 L11.5,2 C12.3284271,2 13,2.67157288 13,3.5 C13,3.93429905 13,3.76763238 13,4 M6,11 C4.88123915,11 3.71457248,11 1.5,11 C0.671572875,11 0,10.3284271 0,9.5 L0,1 C0,0.44771525 0.44771525,0 1,0 L6,0 C6.55228475,0 7,0.44771525 7,1 L7,2" id="Shape"></path>
        </g>
        <g id="icon" transform="translate(8.4891, 10)" stroke="#40A02B">
            <path d="M4.37631737,4.5 L7.01086349,4.5 L4.89352706,1 C4.89352706,1 3.24490268,3.69267043 3.22730749,3.72239003 C3.20986017,3.75196177 3.17289549,3.82751756 3.12232782,3.90041189 C3.07190801,3.97330623 2.98688926,4.08922744 2.92478861,4.15901674 C2.86268796,4.22880604 2.81877393,4.27345937 2.75164609,4.31752125 C2.68451824,4.36158314 2.60615314,4.39381634 2.5271966,4.41998733 C2.44824006,4.44615831 2.36307345,4.46138776 2.28086402,4.47366003 C2.19850673,4.4859323 2.0754883,4.48992449 2.03438359,4.49317738 C2.01383123,4.49480382 0.945256481,4.5 0.339035854,4.5 C-0.129232615,4.51404658 -0.0238093693,4.24322754 0.132625124,4 L2.51086349,0 L3.91765971,2.34656493" id="Path"></path>
        </g>
    </g>
</svg>