<?xml version="1.0" encoding="UTF-8"?>
<svg width="16px" height="16px" viewBox="0 0 16 16" version="1.1" xmlns="http://www.w3.org/2000/svg" xmlns:xlink="http://www.w3.org/1999/xlink">
    <title>folder_packages__open</title>
    <g id="folder_packages__open" stroke="none" stroke-width="1" fill="none" fill-rule="evenodd" stroke-linecap="round" stroke-linejoin="round">
        <g id="folder" transform="translate(0.5, 2.5)" stroke="#4C4F69">
            <path d="M1.37487972,5.5004811 L2.06063391,2.75746437 C2.17192566,2.31229737 2.57190876,2 3.03077641,2 L13.9692236,2 C14.5215083,2 14.9692236,2.44771525 14.9692236,3 C14.9692236,3.08176181 14.9591962,3.16321502 14.9393661,3.24253563 L14.6243253,4.50269892 M6,11 L1.50434875,11 C0.671572875,11 5.55111512e-17,10.3284271 5.55111512e-17,9.5 L5.55111512e-17,1 C5.55111512e-17,0.44771525 0.44771525,0 1,0 L6,0 C6.55228475,0 7,0.44771525 7,1 L7,2" id="Shape"></path>
        </g>
        <g id="icon" transform="translate(9.5, 8.5)" stroke="#FE640B">
            <polygon id="Path" points="6.05818592 1.74851916 6.05818592 5.25119878 3.03163154 7 -1.05412007e-13 5.25119878 -1.05412007e-13 1.75867349 3.03656768 0"></polygon>
            <path d="M0.099991941,1.81480437 L1.56447193,2.65733167 L3.02923399,3.49985897 M5.93943668,1.80775275 L3.03205464,3.48631986 L3.03205464,6.90311077" id="Shape"></path>
        </g>
    </g>
</svg>