<?xml version="1.0" encoding="UTF-8"?>
<svg width="16px" height="16px" viewBox="0 0 16 16" version="1.1" xmlns="http://www.w3.org/2000/svg" xmlns:xlink="http://www.w3.org/1999/xlink">
    <title>folder_typescript</title>
    <g id="folder_typescript" stroke="none" stroke-width="1" fill="none" fill-rule="evenodd" stroke-linejoin="round">
        <g id="folder" stroke="#4C4F69" stroke-linecap="round">
            <path d="M4.5,4.5 L12,4.5 C12.8284271,4.5 13.5,5.17157288 13.5,6 C13.5,6.43429905 13.5,6.26763238 13.5,6.5 M6.5,13.5 C5.38123915,13.5 4.21457248,13.5 2,13.5 C1.17157288,13.5 0.5,12.8284271 0.5,12 L0.5,3.5 C0.5,2.94771525 0.94771525,2.5 1.5,2.5 L6.5,2.5 C7.05228475,2.5 7.5,2.94771525 7.5,3.5 L7.5,4.5" id="Shape"></path>
        </g>
        <g id="macos" stroke="#1E66F5">
            <path d="M15.5,10.75 C15.5,10.0596441 14.9627417,9.5 14.3,9.5 L13.7,9.5 C13.0372583,9.5 12.5,10.0596441 12.5,10.75 C12.5,11.4403559 13.0372583,12 13.7,12 L14.3,12 C14.9627417,12 15.5,12.5596441 15.5,13.25 C15.5,13.9403559 14.9627417,14.5 14.3,14.5 L13.7,14.5 C13.0372583,14.5 12.5,13.9403559 12.5,13.25" id="Path" stroke-linecap="round"></path>
            <path d="M9.5,9.5 L9.5,15 M7.5,9.5 L11.5,9.5" id="Combined-Shape"></path>
        </g>
    </g>
</svg>