<?xml version="1.0" encoding="UTF-8"?>
<svg width="16px" height="16px" viewBox="0 0 16 16" version="1.1" xmlns="http://www.w3.org/2000/svg" xmlns:xlink="http://www.w3.org/1999/xlink">
    <title>folder_yarn__open</title>
    <g id="folder_yarn__open" stroke="none" stroke-width="1" fill="none" fill-rule="evenodd" stroke-linecap="round" stroke-linejoin="round">
        <g id="folder" stroke="#4C4F69">
            <path d="M1.87487972,8.0004811 L2.56063391,5.25746437 C2.67192566,4.81229737 3.07190876,4.5 3.53077641,4.5 L14.4692236,4.5 C15.0215083,4.5 15.4692236,4.94771525 15.4692236,5.5 C15.4692236,5.58176181 15.4591962,5.66321502 15.4393661,5.74253563 L15.1243253,7.00269892 M6.5,13.5 L2.00434875,13.5 C1.17157288,13.5 0.5,12.8284271 0.5,12 L0.5,3.5 C0.5,2.94771525 0.94771525,2.5 1.5,2.5 L6.5,2.5 C7.05228475,2.5 7.5,2.94771525 7.5,3.5 L7.5,4.5" id="Shape"></path>
        </g>
        <g id="macos" stroke="#209FB5">
            <path d="M11.6627175,8.74972411 C11.8003675,8.4700063 11.9871441,8.21622751 12.2145008,8 C12.3447225,8.23033281 12.419739,8.48672453 12.4338592,8.74972411 L12.8793504,8.65189619 C12.8793504,8.65189619 13.5442001,9.95584673 12.4339399,11.7487787 C13.1439558,12.2676778 13.4534513,13.16264 13.2117752,13.9980302 C14.3554231,13.6199256 14.7409133,13.248306 15.1199518,13.248306 C15.2210092,13.2465305 15.3184623,13.2851102 15.3899397,13.3551886 C15.4614171,13.425267 15.5007793,13.5208248 15.4989903,13.6199256 C15.4989903,13.6199256 15.5521363,13.8676193 14.8872867,14.1936069 L13.5575874,14.8455822 C12.9607423,15.22696 12.2739393,15.4514703 11.5631191,15.4975575 C10.7852031,15.4975575 10.2334198,15.5497534 10.2334198,15.1715698 C10.2509581,14.9222486 10.3651418,14.6889652 10.552538,14.5195946 L10.2201132,14.5195946 C10.2201132,14.5195946 9.65502321,15.4975575 8.89041387,15.4975575 C8.12588517,15.4975575 8.89041387,14.8455822 8.89041387,14.8455822 C8.22556423,14.8455822 8.45830999,13.5873427 9.22283869,13.215644 C8.9557397,12.7957297 8.91503027,12.2742347 9.1138395,11.8193451 C9.31264873,11.3644556 9.72582402,11.0337224 10.2201132,10.9338096 C9.83454229,10.555626 9.55526351,9.75370593 9.88768833,9.6298591 C10.1873884,9.50567106 10.4258976,9.27178036 10.552538,8.97788382 C10.8719648,8.74884091 11.2764728,8.66571407 11.6627982,8.74972411 L11.6627175,8.74972411 Z" id="Path"></path>
        </g>
    </g>
</svg>