<?xml version="1.0" encoding="UTF-8"?>
<svg width="16px" height="16px" viewBox="0 0 16 16" version="1.1" xmlns="http://www.w3.org/2000/svg" xmlns:xlink="http://www.w3.org/1999/xlink">
    <title>folder_event</title>
    <g id="folder_event" stroke="none" stroke-width="1" fill="none" fill-rule="evenodd" stroke-linejoin="round">
        <g id="folder" stroke="#4C4F69" stroke-linecap="round">
            <path d="M4.5,4.5 L12,4.5 C12.8284271,4.5 13.5,5.17157288 13.5,6 C13.5,6.43429905 13.5,6.26763238 13.5,6.5 M6.5,13.5 C5.38123915,13.5 4.21457248,13.5 2,13.5 C1.17157288,13.5 0.5,12.8284271 0.5,12 L0.5,3.5 C0.5,2.94771525 0.94771525,2.5 1.5,2.5 L6.5,2.5 C7.05228475,2.5 7.5,2.94771525 7.5,3.5 L7.5,4.5" id="Shape"></path>
        </g>
        <g id="macos" stroke="#8C8FA1">
            <path d="M10.5,13.5 L10.5,14 C10.5,14.8284271 11.1715729,15.5 12,15.5 C12.8284271,15.5 13.5,14.8284271 13.5,14 L13.5,13.5 M12,7.5 C12.75,7.5 13,8 13,8.5 C14,9 14.5,9.75 14.5,11 L14.5,12 C14.5,12.5 15.0395358,13.2392514 15.5,13.5 L8.5,13.5 C8.96046424,13.2392514 9.5,12.5 9.5,12 L9.5,11 C9.5,9.75 10,9 11,8.5 C11,8 11.25,7.5 12,7.5 Z" id="Combined-Shape"></path>
        </g>
    </g>
</svg>