<?xml version="1.0" encoding="UTF-8"?>
<svg width="16px" height="16px" viewBox="0 0 16 16" version="1.1" xmlns="http://www.w3.org/2000/svg" xmlns:xlink="http://www.w3.org/1999/xlink">
    <title>folder_styles</title>
    <g id="folder_styles" stroke="none" stroke-width="1" fill="none" fill-rule="evenodd" stroke-linecap="round" stroke-linejoin="round">
        <g id="folder" transform="translate(0.5, 2.5)" stroke="#4C4F69">
            <path d="M4,2 L11.5,2 C12.3284271,2 13,2.67157288 13,3.5 C13,3.93429905 13,3.76763238 13,4 M6,11 C4.88123915,11 3.71457248,11 1.5,11 C0.671572875,11 0,10.3284271 0,9.5 L0,1 C0,0.44771525 0.44771525,0 1,0 L6,0 C6.55228475,0 7,0.44771525 7,1 L7,2" id="Shape"></path>
        </g>
        <g id="icon" transform="translate(8.5, 8.5)" stroke="#1E66F5">
            <path d="M-1.77635684e-15,7.00018691 L-1.77635684e-15,5.44456905 C-1.77635684e-15,4.58542503 0.696473838,3.88895119 1.55561786,3.88895119 C2.41476188,3.88895119 3.11123572,4.58542503 3.11123572,5.44456905 C3.11123572,6.30371307 2.41476188,7.00018691 1.55561786,7.00018691 L-1.77635684e-15,7.00018691" id="Path"></path>
            <path d="M7,0 C4.73881279,0.309273516 2.8283953,1.83162512 2.022135,3.96670405 M7,0 C6.69072648,2.26118721 5.16837488,4.1716047 3.03329595,4.977865" id="Path"></path>
            <path d="M2.9555431,2.33333333 C3.71122504,2.68211566 4.31788434,3.28877496 4.66666667,4.0444569" id="Path"></path>
        </g>
    </g>
</svg>