<?xml version="1.0" encoding="UTF-8"?>
<svg width="16px" height="16px" viewBox="0 0 16 16" version="1.1" xmlns="http://www.w3.org/2000/svg" xmlns:xlink="http://www.w3.org/1999/xlink">
    <title>folder_examples__open</title>
    <g id="folder_examples__open" stroke="none" stroke-width="1" fill="none" fill-rule="evenodd">
        <g id="folder" transform="translate(0.5, 2.5)" stroke="#4C4F69" stroke-linecap="round" stroke-linejoin="round">
            <path d="M1.37487972,5.5004811 L2.06063391,2.75746437 C2.17192566,2.31229737 2.57190876,2 3.03077641,2 L13.9692236,2 C14.5215083,2 14.9692236,2.44771525 14.9692236,3 C14.9692236,3.08176181 14.9591962,3.16321502 14.9393661,3.24253563 L14.6243253,4.50269892 M6,11 L1.50434875,11 C0.671572875,11 5.55111512e-17,10.3284271 5.55111512e-17,9.5 L5.55111512e-17,1 C5.55111512e-17,0.44771525 0.44771525,0 1,0 L6,0 C6.55228475,0 7,0.44771525 7,1 L7,2" id="Shape"></path>
        </g>
        <g id="icon" transform="translate(9.5, 8.5)" stroke="#DF8E1D">
            <path d="M2.5,0 C1.09801333,0 0,1.10120545 0,2.4550993 C0,3.47495881 0.518829373,3.96060619 0.928737583,4.31528055 C1.19278888,4.54383835 1.37039482,4.68133726 1.37039482,4.85085856 L1.37039482,5.22177175 C1.36552244,5.43894719 1.36788005,5.66386263 1.36788005,5.88316278 C1.36788005,6.55123146 1.81519552,7 2.50817302,7 C3.17694581,7 3.63353452,6.55123146 3.63353452,5.88316278 C3.63400604,5.66553204 3.63447756,5.43075189 3.62991953,5.22177175 L3.62991953,4.85085856 C3.62991953,4.59285838 3.82842952,4.43669239 4.12910223,4.1830934 C4.53618132,3.8398014 5,3.41273524 5,2.4550993 C5,1.10120545 3.90198667,0 2.5,0 Z" id="Path"></path>
            <path d="M1.42414812,5.1818576 C2.19539796,5.57523198 2.92326795,5.51680253 3.62426129,5.1818576" id="Path" stroke-linecap="round" stroke-linejoin="round"></path>
        </g>
    </g>
</svg>