<?xml version="1.0" encoding="UTF-8"?>
<svg width="16px" height="16px" viewBox="0 0 16 16" version="1.1" xmlns="http://www.w3.org/2000/svg" xmlns:xlink="http://www.w3.org/1999/xlink">
    <title>folder_github__open</title>
    <g id="folder_github__open" stroke="none" stroke-width="1" fill="none" fill-rule="evenodd" stroke-linecap="round" stroke-linejoin="round">
        <g id="folder" stroke="#4C4F69">
            <path d="M1.87487972,8.0004811 L2.56063391,5.25746437 C2.67192566,4.81229737 3.07190876,4.5 3.53077641,4.5 L14.4692236,4.5 C15.0215083,4.5 15.4692236,4.94771525 15.4692236,5.5 C15.4692236,5.58176181 15.4591962,5.66321502 15.4393661,5.74253563 L15.1243253,7.00269892 M6.5,13.5 L2.00434875,13.5 C1.17157288,13.5 0.5,12.8284271 0.5,12 L0.5,3.5 C0.5,2.94771525 0.94771525,2.5 1.5,2.5 L6.5,2.5 C7.05228475,2.5 7.5,2.94771525 7.5,3.5 L7.5,4.5" id="Shape"></path>
        </g>
        <g id="icon" stroke="#8C8FA1">
            <path d="M10.5,14.5 C9,15 9,13.5 8.25,13.25 M13.3125,15.5 L13.3125,13.9377017 C13.3125,13.4913308 13.35625,13.3127824 13.09375,13.0449599 C14.31875,12.9110486 15.5,12.4200406 15.5,10.3667343 C15.4994673,9.83330504 15.2954894,9.32102476 14.93125,8.93834732 C15.1020793,8.47499931 15.086352,7.96152157 14.8875,7.50996034 C14.8875,7.50996034 14.40625,7.37604906 13.35625,8.09024255 C12.4669166,7.85392831 11.5330834,7.85392831 10.64375,8.09024255 C9.59375,7.37604906 9.1125,7.50996034 9.1125,7.50996034 C8.91364801,7.96152157 8.89792073,8.47499931 9.06875,8.93834732 C8.70451059,9.32102476 8.50053266,9.83330504 8.5,10.3667343 C8.5,12.4200406 9.68125,12.9110486 10.90625,13.0449599 C10.64375,13.3127824 10.64375,13.580605 10.6875,13.9377017 L10.6875,15.5" id="Combined-Shape"></path>
        </g>
    </g>
</svg>