<?xml version="1.0" encoding="UTF-8"?>
<svg width="16px" height="16px" viewBox="0 0 16 16" version="1.1" xmlns="http://www.w3.org/2000/svg" xmlns:xlink="http://www.w3.org/1999/xlink">
    <title>folder_vscode__open</title>
    <g id="folder_vscode__open" stroke="none" stroke-width="1" fill="none" fill-rule="evenodd" stroke-linecap="round" stroke-linejoin="round">
        <g id="folder" stroke="#4C4F69">
            <path d="M1.87487972,8.0004811 L2.56063391,5.25746437 C2.67192566,4.81229737 3.07190876,4.5 3.53077641,4.5 L14.4692236,4.5 C15.0215083,4.5 15.4692236,4.94771525 15.4692236,5.5 C15.4692236,5.58176181 15.4591962,5.66321502 15.4393661,5.74253563 L15.1243253,7.00269892 M6.5,13.5 L2.00434875,13.5 C1.17157288,13.5 0.5,12.8284271 0.5,12 L0.5,3.5 C0.5,2.94771525 0.94771525,2.5 1.5,2.5 L6.5,2.5 C7.05228475,2.5 7.5,2.94771525 7.5,3.5 L7.5,4.5" id="Shape"></path>
        </g>
        <g id="icon" stroke="#1E66F5">
            <path d="M8,10 L13.5551807,15.4315107 C13.5551807,15.4315107 13.7338984,15.5745056 13.897341,15.4472582 L15.3309858,14.708029 C15.5261666,14.5643101 15.4986715,14.3867431 15.4986715,14.3867431 L15.4986715,9.55007729 C15.4986715,9.33775705 15.2970414,9.26408754 15.2970414,9.26408754 L13.9752436,8.57735014 C13.6867155,8.38494059 13.4976448,8.61210333 13.4976448,8.61210333 L13.0767334,9.01755714 L8,14" id="Path"></path>
        </g>
    </g>
</svg>