<?xml version="1.0" encoding="UTF-8"?>
<svg width="16px" height="16px" viewBox="0 0 16 16" version="1.1" xmlns="http://www.w3.org/2000/svg" xmlns:xlink="http://www.w3.org/1999/xlink">
    <title>folder_cloud__open</title>
    <g id="folder_cloud__open" stroke="none" stroke-width="1" fill="none" fill-rule="evenodd" stroke-linecap="round" stroke-linejoin="round">
        <g id="folder" stroke="#4C4F69">
            <path d="M1.87487972,8.0004811 L2.56063391,5.25746437 C2.67192566,4.81229737 3.07190876,4.5 3.53077641,4.5 L14.4692236,4.5 C15.0215083,4.5 15.4692236,4.94771525 15.4692236,5.5 C15.4692236,5.58176181 15.4591962,5.66321502 15.4393661,5.74253563 L15.1243253,7.00269892 M6.5,13.5 L2.00434875,13.5 C1.17157288,13.5 0.5,12.8284271 0.5,12 L0.5,3.5 C0.5,2.94771525 0.94771525,2.5 1.5,2.5 L6.5,2.5 C7.05228475,2.5 7.5,2.94771525 7.5,3.5 L7.5,4.5" id="Shape"></path>
        </g>
        <g id="macos" stroke="#04A5E5">
            <path d="M7.5,12.4296955 C7.5,11.2877291 8.334,10.3616981 9.3628,10.3616981 C9.52,9.54871023 10.0804,8.88521618 10.8328,8.62083364 C11.5848,8.3569125 12.4152,8.53178332 13.0104,9.08223423 C13.6056,9.63130094 13.8752,10.4696658 13.7184,11.2826537 L14.1144,11.2826537 C14.8796,11.2826537 15.5,12.0024386 15.5,12.8910961 C15.5,13.7802151 14.8796,14.5 14.114,14.5 L9.3628,14.5 C8.334,14.4981544 7.5,13.5721234 7.5,12.4296955 Z" id="Path"></path>
        </g>
    </g>
</svg>