<?xml version="1.0" encoding="UTF-8"?>
<svg width="16px" height="16px" viewBox="0 0 16 16" version="1.1" xmlns="http://www.w3.org/2000/svg" xmlns:xlink="http://www.w3.org/1999/xlink">
    <title>folder_nuxt</title>
    <g id="folder_nuxt" stroke="none" stroke-width="1" fill="none" fill-rule="evenodd" stroke-linecap="round" stroke-linejoin="round">
        <g id="folder" stroke="#4C4F69">
            <path d="M4.5,4.5 L12,4.5 C12.8284271,4.5 13.5,5.17157288 13.5,6 C13.5,6.43429905 13.5,6.26763238 13.5,6.5 M6.5,13.5 C5.38123915,13.5 4.21457248,13.5 2,13.5 C1.17157288,13.5 0.5,12.8284271 0.5,12 L0.5,3.5 C0.5,2.94771525 0.94771525,2.5 1.5,2.5 L6.5,2.5 C7.05228475,2.5 7.5,2.94771525 7.5,3.5 L7.5,4.5" id="Shape"></path>
        </g>
        <g id="icon" stroke="#40A02B">
            <path d="M12.8654544,14.5 L15.5000005,14.5 L13.3826641,11 C13.3826641,11 11.7340397,13.6926704 11.7164445,13.72239 C11.6989972,13.7519618 11.6620325,13.8275176 11.6114648,13.9004119 C11.561045,13.9733062 11.4760263,14.0892274 11.4139256,14.1590167 C11.351825,14.228806 11.3079109,14.2734594 11.2407831,14.3175213 C11.1736552,14.3615831 11.0952901,14.3938163 11.0163336,14.4199873 C10.9373771,14.4461583 10.8522105,14.4613878 10.770001,14.47366 C10.6876437,14.4859323 10.5646253,14.4899245 10.5235206,14.4931774 C10.5029682,14.4948038 9.43439348,14.5 8.82817285,14.5 C8.35990439,14.5140466 8.46532763,14.2432275 8.62176212,14 L11.0000005,10 L12.4067967,12.3465649" id="Path"></path>
        </g>
    </g>
</svg>