<?xml version="1.0" encoding="UTF-8"?>
<svg width="16px" height="16px" viewBox="0 0 16 16" version="1.1" xmlns="http://www.w3.org/2000/svg" xmlns:xlink="http://www.w3.org/1999/xlink">
    <title>folder_macos__open</title>
    <g id="folder_macos__open" stroke="none" stroke-width="1" fill="none" fill-rule="evenodd">
        <g id="folder" stroke="#4C4F69" stroke-linecap="round" stroke-linejoin="round">
            <path d="M1.87487972,8.0004811 L2.56063391,5.25746437 C2.67192566,4.81229737 3.07190876,4.5 3.53077641,4.5 L14.4692236,4.5 C15.0215083,4.5 15.4692236,4.94771525 15.4692236,5.5 C15.4692236,5.58176181 15.4591962,5.66321502 15.4393661,5.74253563 L15.1243253,7.00269892 M6.5,13.5 L2.00434875,13.5 C1.17157288,13.5 0.5,12.8284271 0.5,12 L0.5,3.5 C0.5,2.94771525 0.94771525,2.5 1.5,2.5 L6.5,2.5 C7.05228475,2.5 7.5,2.94771525 7.5,3.5 L7.5,4.5" id="Shape"></path>
        </g>
        <g id="macos">
            <rect id="Frame" x="8" y="8" width="8" height="8"></rect>
            <path d="M12,7.5 L10.5,12.5 L12.504733,12.5 L13,15.5 M9,7.5 L14,7.5 C14.8284271,7.5 15.5,8.17157288 15.5,9 L15.5,14 C15.5,14.8284271 14.8284271,15.5 14,15.5 L9,15.5 C8.17157288,15.5 7.5,14.8284271 7.5,14 L7.5,9 C7.5,8.17157288 8.17157288,7.5 9,7.5 Z M13,10.5 L14,10.5 M9,10.5 L10,10.5" id="Combined-Shape" stroke="#1E66F5" stroke-linejoin="round"></path>
        </g>
    </g>
</svg>