<?xml version="1.0" encoding="UTF-8"?>
<svg width="16px" height="16px" viewBox="0 0 16 16" version="1.1" xmlns="http://www.w3.org/2000/svg" xmlns:xlink="http://www.w3.org/1999/xlink">
    <title>folder_cypress</title>
    <g id="folder_cypress" stroke="none" stroke-width="1" fill="none" fill-rule="evenodd" stroke-linecap="round" stroke-linejoin="round">
        <g id="folder" stroke="#4C4F69">
            <path d="M4.5,4.5 L12,4.5 C12.8284271,4.5 13.5,5.17157288 13.5,6 C13.5,6.43429905 13.5,6.26763238 13.5,6.5 M6.5,13.5 C5.38123915,13.5 4.21457248,13.5 2,13.5 C1.17157288,13.5 0.5,12.8284271 0.5,12 L0.5,3.5 C0.5,2.94771525 0.94771525,2.5 1.5,2.5 L6.5,2.5 C7.05228475,2.5 7.5,2.94771525 7.5,3.5 L7.5,4.5" id="Shape"></path>
        </g>
        <g id="icon" stroke="#40A02B">
            <path d="M11.0009428,12.1566779 C10.643359,12.5312512 10.1195164,12.6932725 9.61321084,12.5598298 C8.97614775,12.3920358 8.52185663,11.796982 8.50074619,11.102555 C8.47991352,10.4084243 8.89712249,9.78389913 9.52293593,9.57330516 C10.0498941,9.3958131 10.616653,9.54839243 10.9986877,9.94707866 M14.5,12.5 L13,9.5 M13.5,15.5 L15.5,9.5" id="Combined-Shape"></path>
        </g>
    </g>
</svg>