<?xml version="1.0" encoding="UTF-8"?>
<svg width="16px" height="16px" viewBox="0 0 16 16" version="1.1" xmlns="http://www.w3.org/2000/svg" xmlns:xlink="http://www.w3.org/1999/xlink">
    <title>folder_aws</title>
    <g id="folder_aws" stroke="none" stroke-width="1" fill="none" fill-rule="evenodd" stroke-linecap="round">
        <g id="folder" stroke="#4C4F69" stroke-linejoin="round">
            <path d="M4.5,4.5 L12,4.5 C12.8284271,4.5 13.5,5.17157288 13.5,6 C13.5,6.43429905 13.5,6.26763238 13.5,6.5 M6.5,13.5 C5.38123915,13.5 4.21457248,13.5 2,13.5 C1.17157288,13.5 0.5,12.8284271 0.5,12 L0.5,3.5 C0.5,2.94771525 0.94771525,2.5 1.5,2.5 L6.5,2.5 C7.05228475,2.5 7.5,2.94771525 7.5,3.5 L7.5,4.5" id="Shape"></path>
        </g>
        <g id="macos" stroke="#FE640B">
            <path d="M8.64644124,14.0006714 C9.47040327,14.9209057 10.6675743,15.5 12,15.5 C13.3326874,15.5 14.5300669,14.9206782 15.3540441,14.0001292" id="Path" stroke-linejoin="round"></path>
            <polyline id="Line" points="13.5 13.5 15.5 13.5 15.5 15.5"></polyline>
            <path d="M11,7.5 L12.5,7.5 C13.0522847,7.5 13.5,7.94771525 13.5,8.5 L13.5,10.5 C13.5,11.0522847 13.0522847,11.5 12.5,11.5 L11.5,11.5 C10.9477153,11.5 10.5,11.0522847 10.5,10.5 C10.5,9.94771525 10.9477153,9.5 11.5,9.5 L13.25,9.5 L13.25,9.5" id="Line-2"></path>
        </g>
    </g>
</svg>