<?xml version="1.0" encoding="UTF-8"?>
<svg width="16px" height="16px" viewBox="0 0 16 16" version="1.1" xmlns="http://www.w3.org/2000/svg" xmlns:xlink="http://www.w3.org/1999/xlink">
    <title>folder_templates</title>
    <g id="folder_templates" stroke="none" stroke-width="1" fill="none" fill-rule="evenodd">
        <g id="folder" transform="translate(0.5, 2.5)" stroke="#4C4F69" stroke-linecap="round" stroke-linejoin="round">
            <path d="M4,2 L11.5,2 C12.3284271,2 13,2.67157288 13,3.5 C13,3.93429905 13,3.76763238 13,4 M6,11 C4.88123915,11 3.71457248,11 1.5,11 C0.671572875,11 0,10.3284271 0,9.5 L0,1 C0,0.44771525 0.44771525,0 1,0 L6,0 C6.55228475,0 7,0.44771525 7,1 L7,2" id="Shape"></path>
        </g>
        <g id="icon" transform="translate(8.5, 8.5)" stroke="#E64553">
            <rect id="Path" x="2" y="2" width="5" height="5" rx="1"></rect>
            <path d="M5,1.66671818 L5,0.833359088 C5,0.373107572 4.62689243,0 4.16664091,0 L0.833359088,0 C0.373107572,0 0,0.373107572 0,0.833359088 L0,4.16664091 C0,4.62689243 0.373107572,5 0.833359088,5 L1.66656365,5" id="Path"></path>
        </g>
    </g>
</svg>