<?xml version="1.0" encoding="UTF-8" standalone="no"?>
<!-- Created with Inkscape (http://www.inkscape.org/) -->

<svg
   width="100.0px"
   height="100.0px"
   viewBox="0 0 100.0 100.0"
   version="1.1"
   id="SVGRoot"
   sodipodi:docname="folder_client__open.svg"
   inkscape:version="1.2.1 (9c6d41e410, 2022-07-14)"
   xmlns:inkscape="http://www.inkscape.org/namespaces/inkscape"
   xmlns:sodipodi="http://sodipodi.sourceforge.net/DTD/sodipodi-0.dtd"
   xmlns="http://www.w3.org/2000/svg"
   xmlns:svg="http://www.w3.org/2000/svg">
  <defs
     id="defs9" />
  <sodipodi:namedview
     id="namedview32486"
     pagecolor="#181825"
     bordercolor="#000000"
     borderopacity="0.24705882"
     inkscape:showpageshadow="2"
     inkscape:pageopacity="0"
     inkscape:pagecheckerboard="0"
     inkscape:deskcolor="#313244"
     inkscape:document-units="px"
     showgrid="true"
     inkscape:zoom="5.9651516"
     inkscape:cx="50.37592"
     inkscape:cy="32.354584"
     inkscape:window-width="1920"
     inkscape:window-height="1017"
     inkscape:window-x="1912"
     inkscape:window-y="-8"
     inkscape:window-maximized="1"
     inkscape:current-layer="SVGRoot"
     showborder="false">
    <inkscape:grid
       type="xygrid"
       id="grid32609" />
  </sodipodi:namedview>
  <path
     style="display:inline;fill:none;stroke:#ffffff;stroke-width:5;stroke-linecap:round;stroke-linejoin:round;stroke-dasharray:none;stroke-opacity:1;paint-order:fill markers stroke"
     d="m 44.713612,27.878444 v -2.974408 c 0,-7.559955 -7.294688,-7.559955 -7.294688,-7.559955 H 11.229791 c -8.7297083,0 -8.7297083,9.047159 -8.7297083,9.047159 v 48.210205 c 0,7.436021 7.7730283,8.05569 7.7730283,8.05569 H 40 m 54.627007,-37.656568 1.938764,-7.331362 c 1.832899,-8.827338 -7.30989,-9.542894 -7.30989,-9.542894 H 24.025395 c 0,0 -4.885741,1.206318 -6.746049,5.588037 -1.860305,4.381718 -5.750039,15.511281 -5.750039,15.511281"
     id="path5390"
     sodipodi:nodetypes="ccccscscccscsc"
     inkscape:label="folder_open" />
  <path
     style="display:none;fill:none;stroke:#ffffff;stroke-width:5;stroke-linecap:round;stroke-linejoin:round;stroke-dasharray:none;stroke-opacity:1;paint-order:fill markers stroke"
     d="m 24.023123,28.126179 h 54.285891 c 0,0 9.207079,0.247865 9.207079,9.542778 v 7.331208 M 40,82.656331 H 10.272291 c 0,0 -7.7722083,-0.61966 -7.7722083,-8.05559 V 26.39113 c 0,0 0,-9.047049 8.7287883,-9.047049 h 26.186366 c 0,0 7.293919,0 7.293919,7.559862 v 2.974372"
     id="path5390-2"
     sodipodi:nodetypes="ccscccscscsc"
     inkscape:label="folder_close" />
  <path
     fill="currentColor"
     d="m 50.532713,54.59315 a 4.3311383,4.3311383 0 0 1 4.331138,-4.331138 h 31.761671 a 4.3311383,4.3311383 0 0 1 4.33114,4.331138 v 20.211979 a 4.3311383,4.3311383 0 0 1 -4.33114,4.331138 H 70.744691 v -2.887425 h 15.880831 a 1.4437128,1.4437128 0 0 0 1.44373,-1.443713 V 54.59315 a 1.4437128,1.4437128 0 0 0 -1.44373,-1.443713 H 54.863851 a 1.4437128,1.4437128 0 0 0 -1.443713,1.443713 v 4.331138 h -2.887425 z m 20.211978,30.317968 h 21.655681 a 1.4437128,1.4437128 0 0 0 0,-2.887425 H 70.744691 Z m -14.437127,0 a 1.443713,1.443713 0 0 0 0,2.887426 h 2.887425 a 1.443713,1.443713 0 0 0 0,-2.887426 z M 47.645287,66.142852 a 4.3311383,4.3311383 0 0 1 4.331138,-4.331138 h 11.549703 a 4.3311383,4.3311383 0 0 1 4.331138,4.331138 v 23.099405 a 4.3311383,4.3311383 0 0 1 -4.331138,4.331138 H 51.976425 a 4.3311383,4.3311383 0 0 1 -4.331138,-4.331138 z m 4.331138,-1.443713 a 1.4437128,1.4437128 0 0 0 -1.443712,1.443713 v 23.099405 a 1.4437128,1.4437128 0 0 0 1.443712,1.443712 H 63.526128 A 1.4437128,1.4437128 0 0 0 64.96984,89.242257 V 66.142852 a 1.4437128,1.4437128 0 0 0 -1.443712,-1.443713 z"
     id="path54471"
     style="fill:#039be5;fill-opacity:1;stroke:#039be5;stroke-width:1.5;stroke-dasharray:none;stroke-opacity:1" />
</svg>
