<?xml version="1.0" encoding="UTF-8"?>
<svg width="16px" height="16px" viewBox="0 0 16 16" version="1.1" xmlns="http://www.w3.org/2000/svg" xmlns:xlink="http://www.w3.org/1999/xlink">
    <title>folder_debug</title>
    <g id="folder_debug" stroke="none" stroke-width="1" fill="none" fill-rule="evenodd">
        <g id="folder" stroke="#4C4F69" stroke-linecap="round" stroke-linejoin="round">
            <path d="M4.5,4.5 L12,4.5 C12.8284271,4.5 13.5,5.17157288 13.5,6 C13.5,6.43429905 13.5,6.26763238 13.5,6.5 M6.5,13.5 C5.38123915,13.5 4.21457248,13.5 2,13.5 C1.17157288,13.5 0.5,12.8284271 0.5,12 L0.5,3.5 C0.5,2.94771525 0.94771525,2.5 1.5,2.5 L6.5,2.5 C7.05228475,2.5 7.5,2.94771525 7.5,3.5 L7.5,4.5" id="Shape"></path>
        </g>
        <g id="macos" stroke="#D20F39">
            <path d="M12.5,10.5 L12.5,9.5 C12.5,8.94771525 12.0522847,8.5 11.5,8.5 C10.9477153,8.5 10.5,8.94771525 10.5,9.5 L10.5,10.5 M13.1666667,10.5 C13.4148335,10.8719113 13.4753867,11.5535708 13.5,12 L13.5,13.5 C13.5,14.6505932 12.6505932,15.5 11.5,15.5 C10.3494068,15.5 9.5,14.6505932 9.5,13.5 L9.5,12 C9.52461329,11.5535708 9.58516646,10.8719113 9.83333333,10.5 L13.1666667,10.5 Z" id="Combined-Shape"></path>
            <path d="M7.5,12.5 L9.5,12.5 M13.5,12.5 L15.5,12.5 M11.5,15.5 L11.5,13 M7.75,15.75 L9.5,14.5 M15.25,15.75 L13.5,14.5 M7.75,9.25 L9.5,10.5 M15.25,9.25 L13.5,10.5" id="Combined-Shape" stroke-linejoin="round"></path>
        </g>
    </g>
</svg>