<?xml version="1.0" encoding="UTF-8"?>
<svg width="16px" height="16px" viewBox="0 0 16 16" version="1.1" xmlns="http://www.w3.org/2000/svg" xmlns:xlink="http://www.w3.org/1999/xlink">
    <title>folder_husky</title>
    <g id="folder_husky" stroke="none" stroke-width="1" fill="none" fill-rule="evenodd">
        <g id="folder" stroke="#4C4F69" stroke-linecap="round" stroke-linejoin="round">
            <path d="M4.5,4.5 L12,4.5 C12.8284271,4.5 13.5,5.17157288 13.5,6 C13.5,6.43429905 13.5,6.26763238 13.5,6.5 M6.5,13.5 C5.38123915,13.5 4.21457248,13.5 2,13.5 C1.17157288,13.5 0.5,12.8284271 0.5,12 L0.5,3.5 C0.5,2.94771525 0.94771525,2.5 1.5,2.5 L6.5,2.5 C7.05228475,2.5 7.5,2.94771525 7.5,3.5 L7.5,4.5" id="Shape"></path>
        </g>
        <g id="icon">
            <path d="M9.05946607,12.2844743 L11.1776359,11.5097353 C11.8273793,11.2718932 12.537615,11.6726579 12.6517041,12.3413259 L13.0240607,14.5211557 C13.1437915,15.2226886 12.3740038,15.7446328 11.743223,15.3887264 C11.6606586,15.3422926 11.5901031,15.2773943 11.5371418,15.1991692 L11.4279109,15.0374926 C10.9737487,14.3653979 10.2222968,13.9414253 9.39953921,13.8931404 L9.20160724,13.8816144 C9.10646408,13.8760667 9.01387121,13.8488903 8.93095917,13.8021779 C8.30017835,13.4464272 8.37775263,12.5338425 9.05946607,12.2846301 L9.05946607,12.2844743 Z" id="Path" stroke="#DC8A78" stroke-linejoin="round"></path>
            <path d="M9.22382543,10.801379 C9.6218161,11.0316989 10.1680056,10.8368234 10.4437788,10.3661124 C10.7195445,9.89539715 10.6204657,9.32709584 10.2224776,9.09677158 C9.82448693,8.86645171 9.27829745,9.06132718 9.00252428,9.53203816 C8.72675849,10.0027534 8.82583731,10.5710548 9.22382543,10.801379 Z" id="Oval" fill="#DC8A78" fill-rule="nonzero"></path>
            <path d="M11.8436404,9.80137901 C12.2416311,10.0316989 12.7878206,9.83682342 13.0635938,9.36611243 C13.3393595,8.89539715 13.2402807,8.32709584 12.8422926,8.09677158 C12.4443019,7.86645171 11.8981124,8.06132718 11.6223393,8.53203816 C11.3465735,9.00275344 11.4456523,9.57105476 11.8436404,9.80137901 Z" id="Oval" fill="#DC8A78" fill-rule="nonzero"></path>
            <path d="M13.8893194,10.801379 C14.2873101,11.0316989 14.8334996,10.8368234 15.1092728,10.3661124 C15.3850385,9.89539715 15.2859597,9.32709584 14.8879716,9.09677158 C14.4899809,8.86645171 13.9437914,9.06132718 13.6680183,9.53203816 C13.3922525,10.0027534 13.4913313,10.5710548 13.8893194,10.801379 Z" id="Oval" fill="#DC8A78" fill-rule="nonzero"></path>
            <path d="M14.5774656,13.5935963 C14.9754563,13.8239162 15.5216458,13.6290407 15.7974189,13.1583298 C16.0731847,12.6876145 15.9741059,12.1193132 15.5761178,11.8889889 C15.1781271,11.658669 14.6319376,11.8535445 14.3561644,12.3242555 C14.0803987,12.7949708 14.1794775,13.3632721 14.5774656,13.5935963 Z" id="Oval" fill="#DC8A78" fill-rule="nonzero"></path>
        </g>
    </g>
</svg>