<?xml version="1.0" encoding="UTF-8"?>
<svg width="16px" height="16px" viewBox="0 0 16 16" version="1.1" xmlns="http://www.w3.org/2000/svg" xmlns:xlink="http://www.w3.org/1999/xlink">
    <title>folder_connection</title>
    <g id="folder_connection" stroke="none" stroke-width="1" fill="none" fill-rule="evenodd">
        <g id="folder" stroke="#4C4F69" stroke-linecap="round" stroke-linejoin="round">
            <path d="M4.5,4.5 L12,4.5 C12.8284271,4.5 13.5,5.17157288 13.5,6 C13.5,6.43429905 13.5,6.26763238 13.5,6.5 M6.5,13.5 C5.38123915,13.5 4.21457248,13.5 2,13.5 C1.17157288,13.5 0.5,12.8284271 0.5,12 L0.5,3.5 C0.5,2.94771525 0.94771525,2.5 1.5,2.5 L6.5,2.5 C7.05228475,2.5 7.5,2.94771525 7.5,3.5 L7.5,4.5" id="Shape"></path>
        </g>
        <g id="macos" stroke="#179299">
            <path d="M14.0013006,12.436656 C14.8632542,12.2141826 15.5,11.4314513 15.5,10.5 C15.5,9.3954305 14.6045695,8.5 13.5,8.5 C12.5669762,8.5 11.7831749,9.13889757 11.562222,10.0030669 M10.5,13.5 L13.5,10.5 M10.0027157,11.5623118 C9.13872446,11.7833873 8.5,12.5671026 8.5,13.5 C8.5,14.6045695 9.3954305,15.5 10.5,15.5 C11.4319502,15.5 12.2150211,14.8625719 12.437013,13.9999154" id="Combined-Shape"></path>
        </g>
    </g>
</svg>