<?xml version="1.0" encoding="UTF-8"?>
<svg width="16px" height="16px" viewBox="0 0 16 16" version="1.1" xmlns="http://www.w3.org/2000/svg" xmlns:xlink="http://www.w3.org/1999/xlink">
    <title>folder_client__open</title>
    <g id="folder_client__open" stroke="none" stroke-width="1" fill="none" fill-rule="evenodd">
        <g id="folder" transform="translate(0.5, 2.5)" stroke="#4C4F69" stroke-linecap="round" stroke-linejoin="round">
            <path d="M1.37487972,5.5004811 L2.06063391,2.75746437 C2.17192566,2.31229737 2.57190876,2 3.03077641,2 L13.9692236,2 C14.5215083,2 14.9692236,2.44771525 14.9692236,3 C14.9692236,3.08176181 14.9591962,3.16321502 14.9393661,3.24253563 L14.6243253,4.50269892 M6,11 L1.50434875,11 C0.671572875,11 5.55111512e-17,10.3284271 5.55111512e-17,9.5 L5.55111512e-17,1 C5.55111512e-17,0.44771525 0.44771525,0 1,0 L6,0 C6.55228475,0 7,0.44771525 7,1 L7,2" id="Shape"></path>
        </g>
        <g id="icon" transform="translate(8.5, 8.5)" stroke="#1E66F5">
            <path d="M0.5,0 L6.5,0 C6.77614237,-5.07265313e-17 7,0.223857625 7,0.5 L7,4.5 C7,4.77614237 6.77614237,5 6.5,5 L0.5,5 C0.223857625,5 -2.05135761e-16,4.77614237 0,4.5 L0,0.5 C-3.38176876e-17,0.223857625 0.223857625,-7.72046149e-17 0.5,0 Z" id="Path"></path>
            <line x1="7" y1="7" x2="4.40448959e-14" y2="7" id="Path" stroke-linecap="round" stroke-linejoin="round"></line>
        </g>
    </g>
</svg>