<?xml version="1.0" encoding="UTF-8"?>
<svg width="16px" height="16px" viewBox="0 0 16 16" version="1.1" xmlns="http://www.w3.org/2000/svg" xmlns:xlink="http://www.w3.org/1999/xlink">
    <title>folder_review</title>
    <g id="folder_review" stroke="none" stroke-width="1" fill="none" fill-rule="evenodd" stroke-linecap="round" stroke-linejoin="round">
        <g id="folder" stroke="#4C4F69">
            <path d="M4.5,4.5 L12,4.5 C12.8284271,4.5 13.5,5.17157288 13.5,6 C13.5,6.43429905 13.5,6.26763238 13.5,6.5 M6.5,13.5 C5.38123915,13.5 4.21457248,13.5 2,13.5 C1.17157288,13.5 0.5,12.8284271 0.5,12 L0.5,3.5 C0.5,2.94771525 0.94771525,2.5 1.5,2.5 L6.5,2.5 C7.05228475,2.5 7.5,2.94771525 7.5,3.5 L7.5,4.5" id="Shape"></path>
        </g>
        <g id="macos" stroke="#04A5E5">
            <path d="M10.5,12.5 C10.5,13.0522847 10.9477153,13.5 11.5,13.5 C12.0522847,13.5 12.5,13.0522847 12.5,12.5 C12.5,11.9477153 12.0522847,11.5 11.5,11.5 C10.9477153,11.5 10.5,11.9477153 10.5,12.5" id="Path"></path>
            <path d="M11.5,15.5 C9.5,15.5 8.5,14.5 7.5,12.5 C8.5,10.5 9.5,9.5 11.5,9.5 C13.5,9.5 14.5,10.5 15.5,12.5 C14.5,14.5 13.5,15.5 11.5,15.5 Z" id="Path"></path>
        </g>
    </g>
</svg>