<?xml version="1.0" encoding="UTF-8"?>
<svg width="16px" height="16px" viewBox="0 0 16 16" version="1.1" xmlns="http://www.w3.org/2000/svg" xmlns:xlink="http://www.w3.org/1999/xlink">
    <title>folder_functions__open</title>
    <g id="folder_functions__open" stroke="none" stroke-width="1" fill="none" fill-rule="evenodd" stroke-linecap="round" stroke-linejoin="round">
        <g id="folder" transform="translate(0.5, 2.5)" stroke="#4C4F69">
            <path d="M1.37487972,5.5004811 L2.06063391,2.75746437 C2.17192566,2.31229737 2.57190876,2 3.03077641,2 L13.9692236,2 C14.5215083,2 14.9692236,2.44771525 14.9692236,3 C14.9692236,3.08176181 14.9591962,3.16321502 14.9393661,3.24253563 L14.6243253,4.50269892 M6,11 L1.50434875,11 C0.671572875,11 5.55111512e-17,10.3284271 5.55111512e-17,9.5 L5.55111512e-17,1 C5.55111512e-17,0.44771525 0.44771525,0 1,0 L6,0 C6.55228475,0 7,0.44771525 7,1 L7,2" id="Shape"></path>
        </g>
        <g id="icon" transform="translate(8.5, 8.5)" stroke="#1E66F5">
            <path d="M5,2 L5.33335571,2 C5.66671142,2 5.66671142,2.42854677 6.00530308,3.51139109 C6.33342284,4.57145323 6.33342284,5 6.66664429,5 L7,5" id="Path"></path>
            <path d="M3.8889585,5.44439224 C4.47220047,5.44439224 5.05575568,4.66666667 5.44463587,4.08329418 C5.83335944,3.49992169 6.41675803,2.72219612 7,2.72219612" id="Path"></path>
            <path d="M0,6.22211782 C0,6.80533369 0.194518403,7 0.777760376,7 C1.36100235,7 1.55567737,5.44439224 1.94455756,3.49992169 C2.33343774,1.55545115 2.52779953,0 3.11119812,0 C3.69444009,0 3.8889585,0.194509699 3.8889585,0.777882184" id="Path"></path>
            <line x1="0.777603759" y1="3.00007831" x2="3.11119812" y2="3.00007831" id="Path"></line>
        </g>
    </g>
</svg>