<?xml version="1.0" encoding="UTF-8"?>
<svg width="16px" height="16px" viewBox="0 0 16 16" version="1.1" xmlns="http://www.w3.org/2000/svg" xmlns:xlink="http://www.w3.org/1999/xlink">
    <title>folder_sass</title>
    <g id="folder_sass" stroke="none" stroke-width="1" fill="none" fill-rule="evenodd" stroke-linecap="round" stroke-linejoin="round">
        <g id="folder" transform="translate(0.5, 2.5)" stroke="#4C4F69">
            <path d="M4,2 L11.5,2 C12.3284271,2 13,2.67157288 13,3.5 C13,3.93429905 13,3.76763238 13,4 M6,11 C4.88123915,11 3.71457248,11 1.5,11 C0.671572875,11 0,10.3284271 0,9.5 L0,1 C0,0.44771525 0.44771525,0 1,0 L6,0 C6.55228475,0 7,0.44771525 7,1 L7,2" id="Shape"></path>
        </g>
        <g id="icon" transform="translate(9.5, 8.5)" stroke="#EA76CB">
            <path d="M2.32088996,2.6270492 C3.3258001,3.20169616 4.14411282,3.02818735 4.95504881,2.51848503 C5.76581715,2.00862116 6.4263687,1.02298127 5.66187249,0.286618932 C5.27945674,-0.0814006817 3.88777187,-0.142952689 2.59869045,0.387751627 C1.30944137,0.918455943 0.0951330319,2.01395243 0.0106360831,2.60216991 C-0.158022509,3.77876642 1.73108785,4.15340974 1.99681734,4.88040196 C2.26271448,5.60723262 2.14887832,5.94342613 1.88415474,6.40062345 C1.61959882,6.85798233 0.817045456,7.27576052 0.362874356,6.76735064 C-0.0914643967,6.25845609 1.27121656,5.28606361 1.98290217,5.01610717 C2.69425247,4.74615073 3.68072082,4.80463321 3.99724907,5.15181238 C4.31360967,5.49915311 3.96237731,6.1156425 3.98316625,6.1156425" id="Path"></path>
        </g>
    </g>
</svg>