<?xml version="1.0" encoding="UTF-8"?>
<svg width="16px" height="16px" viewBox="0 0 16 16" version="1.1" xmlns="http://www.w3.org/2000/svg" xmlns:xlink="http://www.w3.org/1999/xlink">
    <title>folder_examples__open</title>
    <g id="folder_examples__open" stroke="none" stroke-width="1" fill="none" fill-rule="evenodd">
        <g id="folder" stroke="#4C4F69" stroke-linecap="round" stroke-linejoin="round">
            <path d="M1.87487972,8.0004811 L2.56063391,5.25746437 C2.67192566,4.81229737 3.07190876,4.5 3.53077641,4.5 L14.4692236,4.5 C15.0215083,4.5 15.4692236,4.94771525 15.4692236,5.5 C15.4692236,5.58176181 15.4591962,5.66321502 15.4393661,5.74253563 L15.1243253,7.00269892 M6.5,13.5 L2.00434875,13.5 C1.17157288,13.5 0.5,12.8284271 0.5,12 L0.5,3.5 C0.5,2.94771525 0.94771525,2.5 1.5,2.5 L6.5,2.5 C7.05228475,2.5 7.5,2.94771525 7.5,3.5 L7.5,4.5" id="Shape"></path>
        </g>
        <g id="icon" stroke="#DF8E1D">
            <path d="M12,8.5 C10.5980133,8.5 9.5,9.60120545 9.5,10.9550993 C9.5,11.9749588 10.0188294,12.4606062 10.4287376,12.8152805 C10.6927889,13.0438383 10.8703948,13.1813373 10.8703948,13.3508586 L10.8703948,13.7217717 C10.8655224,13.9389472 10.86788,14.1638626 10.86788,14.3831628 C10.86788,15.0512315 11.3151955,15.5 12.008173,15.5 C12.6769458,15.5 13.1335345,15.0512315 13.1335345,14.3831628 C13.134006,14.165532 13.1344776,13.9307519 13.1299195,13.7217717 L13.1299195,13.3508586 C13.1299195,13.0928584 13.3284295,12.9366924 13.6291022,12.6830934 C14.0361813,12.3398014 14.5,11.9127352 14.5,10.9550993 C14.5,9.60120545 13.4019867,8.5 12,8.5 Z" id="Path"></path>
            <path d="M10.924148,13.681858 C11.6953978,14.0752324 12.4232678,14.0168029 13.1242612,13.681858" id="Path" stroke-linecap="round" stroke-linejoin="round"></path>
        </g>
    </g>
</svg>