<?xml version="1.0" encoding="UTF-8"?>
<svg width="16px" height="16px" viewBox="0 0 16 16" version="1.1" xmlns="http://www.w3.org/2000/svg" xmlns:xlink="http://www.w3.org/1999/xlink">
    <title>folder_vscode__open</title>
    <g id="folder_vscode__open" stroke="none" stroke-width="1" fill="none" fill-rule="evenodd" stroke-linecap="round" stroke-linejoin="round">
        <g id="folder" transform="translate(0.5, 2.5)" stroke="#4C4F69">
            <path d="M1.37487972,5.5004811 L2.06063391,2.75746437 C2.17192566,2.31229737 2.57190876,2 3.03077641,2 L13.9692236,2 C14.5215083,2 14.9692236,2.44771525 14.9692236,3 C14.9692236,3.08176181 14.9591962,3.16321502 14.9393661,3.24253563 L14.6243253,4.50269892 M6,11 L1.50434875,11 C0.671572875,11 5.55111512e-17,10.3284271 5.55111512e-17,9.5 L5.55111512e-17,1 C5.55111512e-17,0.44771525 0.44771525,0 1,0 L6,0 C6.55228475,0 7,0.44771525 7,1 L7,2" id="Shape"></path>
        </g>
        <g id="icon" transform="translate(8.5, 8.5)" stroke="#1E66F5">
            <path d="M0,2 L5.05518071,6.93151069 C5.05518071,6.93151069 5.23389836,7.07450556 5.397341,6.94725822 L6.83098584,6.20802904 C7.02616656,6.06431014 6.99867154,5.88674309 6.99867154,5.88674309 L6.99867154,1.05007729 C6.99867154,0.837757054 6.79704137,0.764087544 6.79704137,0.764087544 L5.47524357,0.0773501448 C5.18671554,-0.115059411 4.99764483,0.112103329 4.99764483,0.112103329 L4.57673336,0.517557144 L0.05,5" id="Path"></path>
        </g>
    </g>
</svg>