<?xml version="1.0" encoding="UTF-8"?>
<svg width="16px" height="16px" viewBox="0 0 16 16" version="1.1" xmlns="http://www.w3.org/2000/svg" xmlns:xlink="http://www.w3.org/1999/xlink">
    <title>folder_controllers</title>
    <g id="folder_controllers" stroke="none" stroke-width="1" fill="none" fill-rule="evenodd" stroke-linecap="round" stroke-linejoin="round">
        <g id="folder" transform="translate(0.5, 2.5)" stroke="#4C4F69">
            <path d="M4,2 L11.5,2 C12.3284271,2 13,2.67157288 13,3.5 C13,3.93429905 13,3.76763238 13,4 M6,11 C4.88123915,11 3.71457248,11 1.5,11 C0.671572875,11 0,10.3284271 0,9.5 L0,1 C0,0.44771525 0.44771525,0 1,0 L6,0 C6.55228475,0 7,0.44771525 7,1 L7,2" id="Shape"></path>
        </g>
        <g id="icon" transform="translate(8.25, 8.25)" stroke="#FE640B">
            <ellipse id="Path" cx="3.7402613" cy="3.73033955" rx="1" ry="1"></ellipse>
            <polyline id="Path" points="2.74779284 0.75 3.75329505 0.25 4.75 0.75"></polyline>
            <polyline id="Path" points="2.74779284 6.75 3.75329505 7.25 4.75 6.75"></polyline>
            <polyline id="Path" points="0.75 4.75 0.25 3.74016978 0.75 2.75"></polyline>
            <polyline id="Path" points="6.75 4.75 7.25 3.74016978 6.75 2.75"></polyline>
        </g>
    </g>
</svg>