<?xml version="1.0" encoding="UTF-8"?>
<svg width="16px" height="16px" viewBox="0 0 16 16" version="1.1" xmlns="http://www.w3.org/2000/svg" xmlns:xlink="http://www.w3.org/1999/xlink">
    <title>folder_linux</title>
    <g id="folder_linux" stroke="none" stroke-width="1" fill="none" fill-rule="evenodd">
        <g id="folder" stroke="#4C4F69" stroke-linecap="round" stroke-linejoin="round">
            <path d="M4.5,4.5 L12,4.5 C12.8284271,4.5 13.5,5.17157288 13.5,6 C13.5,6.43429905 13.5,6.26763238 13.5,6.5 M6.5,13.5 C5.38123915,13.5 4.21457248,13.5 2,13.5 C1.17157288,13.5 0.5,12.8284271 0.5,12 L0.5,3.5 C0.5,2.94771525 0.94771525,2.5 1.5,2.5 L6.5,2.5 C7.05228475,2.5 7.5,2.94771525 7.5,3.5 L7.5,4.5" id="Shape"></path>
        </g>
        <g id="macos">
            <polygon id="Line-2" stroke="#DF8E1D" stroke-linecap="round" stroke-linejoin="round" points="10.5 13.5 13.5 13.5 12 15"></polygon>
            <path d="M14.5,11.4963483 C15.0522847,11.4963483 15.5,11.048633 15.5,10.4963483 C15.5,9.94406352 15.0522847,9.49634827 14.5,9.49634827 C13.9477153,9.49634827 13.5,9.94406352 13.5,10.4963483 C13.5,11.048633 13.9477153,11.4963483 14.5,11.4963483 Z M9.5,11.4963483 C10.0522847,11.4963483 10.5,11.048633 10.5,10.4963483 C10.5,9.94406352 10.0522847,9.49634827 9.5,9.49634827 C8.94771525,9.49634827 8.5,9.94406352 8.5,10.4963483 C8.5,11.048633 8.94771525,11.4963483 9.5,11.4963483 Z" id="Combined-Shape" stroke="#8C8FA1"></path>
        </g>
    </g>
</svg>