<?xml version="1.0" encoding="UTF-8"?>
<svg width="16px" height="16px" viewBox="0 0 16 16" version="1.1" xmlns="http://www.w3.org/2000/svg" xmlns:xlink="http://www.w3.org/1999/xlink">
    <title>folder_views</title>
    <g id="folder_views" stroke="none" stroke-width="1" fill="none" fill-rule="evenodd" stroke-linecap="round" stroke-linejoin="round">
        <g id="folder" transform="translate(0.5, 2.5)" stroke="#4C4F69">
            <path d="M4,2 L11.5,2 C12.3284271,2 13,2.67157288 13,3.5 C13,3.93429905 13,3.76763238 13,4 M6,11 C4.88123915,11 3.71457248,11 1.5,11 C0.671572875,11 0,10.3284271 0,9.5 L0,1 C0,0.44771525 0.44771525,0 1,0 L6,0 C6.55228475,0 7,0.44771525 7,1 L7,2" id="Shape"></path>
        </g>
        <g id="icon" transform="translate(9, 8.5)" stroke="#FE640B">
            <path d="M5.69160928,1.77635684e-15 L0.308363642,1.77635684e-15 C0.221818429,1.77635684e-15 0.139248227,0.0363297124 0.0808286853,0.100182916 C0.0224091433,0.164036121 -0.00647840695,0.249505629 0.00122457446,0.335707361 L0.47008374,5.57708478 C0.481499951,5.70485577 0.570848735,5.81220287 0.694425991,5.84661827 L2.99708131,7 L5.30538554,5.84694107 C5.42925601,5.81265377 5.5188542,5.70511022 5.53021198,5.57708478 L5.99874835,0.335545964 C6.00653747,0.249334146 5.97772031,0.163819824 5.91934088,0.0999059019 C5.86073118,0.0362478017 5.77814903,1.77635684e-15 5.69160928,1.77635684e-15 Z" id="Path"></path>
        </g>
    </g>
</svg>