<?xml version="1.0" encoding="UTF-8"?>
<svg width="16px" height="16px" viewBox="0 0 16 16" version="1.1" xmlns="http://www.w3.org/2000/svg" xmlns:xlink="http://www.w3.org/1999/xlink">
    <title>folder_components</title>
    <g id="folder_components" stroke="none" stroke-width="1" fill="none" fill-rule="evenodd">
        <g id="folder" stroke="#4C4F69" stroke-linecap="round" stroke-linejoin="round">
            <path d="M4.5,4.5 L12,4.5 C12.8284271,4.5 13.5,5.17157288 13.5,6 C13.5,6.43429905 13.5,6.26763238 13.5,6.5 M6.5,13.5 C5.38123915,13.5 4.21457248,13.5 2,13.5 C1.17157288,13.5 0.5,12.8284271 0.5,12 L0.5,3.5 C0.5,2.94771525 0.94771525,2.5 1.5,2.5 L6.5,2.5 C7.05228475,2.5 7.5,2.94771525 7.5,3.5 L7.5,4.5" id="Shape"></path>
        </g>
        <g id="icon" stroke="#DF8E1D" stroke-linecap="square">
            <path d="M9.5,9.5 L13.5,13.5 M9.5,13.5 L13.5,9.5 M11.8535534,7.6109127 L15.3890873,11.1464466 C15.5843494,11.3417088 15.5843494,11.6582912 15.3890873,11.8535534 L11.8535534,15.3890873 C11.6582912,15.5843494 11.3417088,15.5843494 11.1464466,15.3890873 L7.6109127,11.8535534 C7.41565056,11.6582912 7.41565056,11.3417088 7.6109127,11.1464466 L11.1464466,7.6109127 C11.3417088,7.41565056 11.6582912,7.41565056 11.8535534,7.6109127 Z" id="Combined-Shape"></path>
        </g>
    </g>
</svg>