<?xml version="1.0" encoding="UTF-8"?>
<svg width="16px" height="16px" viewBox="0 0 16 16" version="1.1" xmlns="http://www.w3.org/2000/svg" xmlns:xlink="http://www.w3.org/1999/xlink">
    <title>folder_server</title>
    <g id="folder_server" stroke="none" stroke-width="1" fill="none" fill-rule="evenodd">
        <g id="folder" stroke="#4C4F69" stroke-linecap="round" stroke-linejoin="round">
            <path d="M4.5,4.5 L12,4.5 C12.8284271,4.5 13.5,5.17157288 13.5,6 C13.5,6.43429905 13.5,6.26763238 13.5,6.5 M6.5,13.5 C5.38123915,13.5 4.21457248,13.5 2,13.5 C1.17157288,13.5 0.5,12.8284271 0.5,12 L0.5,3.5 C0.5,2.94771525 0.94771525,2.5 1.5,2.5 L6.5,2.5 C7.05228475,2.5 7.5,2.94771525 7.5,3.5 L7.5,4.5" id="Shape"></path>
        </g>
        <g id="icon" stroke="#DF8E1D">
            <path d="M9,9.5 L15,9.5 C15.2761424,9.5 15.5,9.72385763 15.5,10 L15.5,11 C15.5,11.2761424 15.2761424,11.5 15,11.5 L9,11.5 C8.72385763,11.5 8.5,11.2761424 8.5,11 L8.5,10 C8.5,9.72385763 8.72385763,9.5 9,9.5 Z" id="Path"></path>
            <line x1="10.5" y1="9.5" x2="10.5" y2="11.5" id="Path" stroke-linecap="square"></line>
            <path d="M9,13.5 L15,13.5 C15.2761424,13.5 15.5,13.7238576 15.5,14 L15.5,15 C15.5,15.2761424 15.2761424,15.5 15,15.5 L9,15.5 C8.72385763,15.5 8.5,15.2761424 8.5,15 L8.5,14 C8.5,13.7238576 8.72385763,13.5 9,13.5 Z" id="Path"></path>
            <line x1="10.5" y1="13.5" x2="10.5" y2="15.5" id="Path" stroke-linecap="square"></line>
        </g>
    </g>
</svg>