<?xml version="1.0" encoding="UTF-8"?>
<svg width="16px" height="16px" viewBox="0 0 16 16" version="1.1" xmlns="http://www.w3.org/2000/svg" xmlns:xlink="http://www.w3.org/1999/xlink">
    <title>folder_config</title>
    <g id="folder_config" stroke="none" stroke-width="1" fill="none" fill-rule="evenodd" stroke-linecap="round" stroke-linejoin="round">
        <g id="folder" transform="translate(0.5, 2.5)" stroke="#4C4F69">
            <path d="M4,2 L11.5,2 C12.3284271,2 13,2.67157288 13,3.5 C13,3.93429905 13,3.76763238 13,4 M6,11 C4.88123915,11 3.71457248,11 1.5,11 C0.671572875,11 0,10.3284271 0,9.5 L0,1 C0,0.44771525 0.44771525,0 1,0 L6,0 C6.55228475,0 7,0.44771525 7,1 L7,2" id="Shape"></path>
        </g>
        <g id="icon" transform="translate(7.64, 7.9767)" stroke="#8C8FA1">
            <circle id="Path" cx="4.36" cy="4.52331668" r="1.5"></circle>
            <polygon id="Path" transform="translate(4.3615, 4.5233) rotate(-330) translate(-4.3615, -4.5233)" points="4.37708256 1.05024047 7.39262702 2.77331668 7.37708256 6.2463929 4.34599365 7.9963929 1.33044919 6.27331668 1.34599365 2.80024047"></polygon>
        </g>
    </g>
</svg>