<?xml version="1.0" encoding="UTF-8"?>
<svg width="16px" height="16px" viewBox="0 0 16 16" version="1.1" xmlns="http://www.w3.org/2000/svg" xmlns:xlink="http://www.w3.org/1999/xlink">
    <title>folder_public__open</title>
    <g id="folder_public__open" stroke="none" stroke-width="1" fill="none" fill-rule="evenodd" stroke-linecap="round" stroke-linejoin="round">
        <g id="folder" transform="translate(0.5, 2.5)" stroke="#4C4F69">
            <path d="M1.37487972,5.5004811 L2.06063391,2.75746437 C2.17192566,2.31229737 2.57190876,2 3.03077641,2 L13.9692236,2 C14.5215083,2 14.9692236,2.44771525 14.9692236,3 C14.9692236,3.08176181 14.9591962,3.16321502 14.9393661,3.24253563 L14.6243253,4.50269892 M6,11 L1.50434875,11 C0.671572875,11 5.55111512e-17,10.3284271 5.55111512e-17,9.5 L5.55111512e-17,1 C5.55111512e-17,0.44771525 0.44771525,0 1,0 L6,0 C6.55228475,0 7,0.44771525 7,1 L7,2" id="Shape"></path>
        </g>
        <g id="icon" transform="translate(8, 8.5)" stroke="#209FB5">
            <path d="M3.99992468,6.99984936 C2.06696965,6.99984936 0.5,5.5 0.5,3.49992468 C0.5,1.49984936 2.06696965,0 3.99992468,0 C6,0 7.49984941,1.5 7.49984941,3.49992468 C7.49984941,5.5 6,6.99984936 3.99992468,6.99984936 Z" id="Path"></path>
            <path d="M3.5,0.5 C2,2.5 2,4.5 3.64291248,6.83911855" id="Path"></path>
            <path d="M4.5351671,0.5 C6.0351671,2.5 6.0351671,4.5 4.39225462,6.83911855" id="Path"></path>
        </g>
    </g>
</svg>