<?xml version="1.0" encoding="UTF-8"?>
<svg width="16px" height="16px" viewBox="0 0 16 16" version="1.1" xmlns="http://www.w3.org/2000/svg" xmlns:xlink="http://www.w3.org/1999/xlink">
    <title>folder_next</title>
    <g id="folder_next" stroke="none" stroke-width="1" fill="none" fill-rule="evenodd" stroke-linecap="round" stroke-linejoin="round">
        <g id="folder" transform="translate(0.5, 2.5)" stroke="#4C4F69">
            <path d="M4,2 L11.5,2 C12.3284271,2 13,2.67157288 13,3.5 C13,3.93429905 13,3.76763238 13,4 M6,11 C4.88123915,11 3.71457248,11 1.5,11 C0.671572875,11 0,10.3284271 0,9.5 L0,1 C0,0.44771525 0.44771525,0 1,0 L6,0 C6.55228475,0 7,0.44771525 7,1 L7,2" id="Shape"></path>
        </g>
        <g id="icon" transform="translate(8.5, 8.5)" stroke="#8C8FA1">
            <path d="M6.66251395,5.00141055 C6.87890436,4.54642436 7,4.03735388 7,3.5 C7,1.56700338 5.43299662,0 3.5,0 C1.56700338,0 0,1.56700338 0,3.5 C0,5.43299662 1.56700338,7 3.5,7 C4.21071457,7 4.87195237,6.78816478 5.42401826,6.42418947" id="Path"></path>
            <polyline id="Path" points="5.42 6.42 2 2 2 5"></polyline>
            <line x1="5" y1="2" x2="5" y2="3" id="Path"></line>
        </g>
    </g>
</svg>