<?xml version="1.0" encoding="UTF-8"?>
<svg width="16px" height="16px" viewBox="0 0 16 16" version="1.1" xmlns="http://www.w3.org/2000/svg" xmlns:xlink="http://www.w3.org/1999/xlink">
    <title>folder_github</title>
    <g id="folder_github" stroke="none" stroke-width="1" fill="none" fill-rule="evenodd" stroke-linecap="round" stroke-linejoin="round">
        <g id="folder" stroke="#4C4F69">
            <path d="M4.5,4.5 L12,4.5 C12.8284271,4.5 13.5,5.17157288 13.5,6 C13.5,6.43429905 13.5,6.26763238 13.5,6.5 M6.5,13.5 C5.38123915,13.5 4.21457248,13.5 2,13.5 C1.17157288,13.5 0.5,12.8284271 0.5,12 L0.5,3.5 C0.5,2.94771525 0.94771525,2.5 1.5,2.5 L6.5,2.5 C7.05228475,2.5 7.5,2.94771525 7.5,3.5 L7.5,4.5" id="Shape"></path>
        </g>
        <g id="icon" stroke="#8C8FA1">
            <path d="M10.9706702,14.6521904 C9.20003483,15.1989252 9.20003483,13.675831 8.5,13.480427" id="Path"></path>
            <path d="M13.4411658,15.433311 L13.4411658,14.0663088 C13.4411658,13.6758311 13.4824365,13.519574 13.2353347,13.2851883 C14.3883025,13.1679129 15.4999996,12.7384535 15.4999996,10.9416616 C15.4994677,10.4749485 15.3074882,10.0267479 14.9646993,9.69193483 C15.1255255,9.28650025 15.1107519,8.83718331 14.9236028,8.44204291 C14.9236028,8.44204291 14.4706698,8.32476747 13.4824365,8.94979602 C12.6454419,8.74303054 11.7665678,8.74303054 10.9295732,8.94979602 C9.94116582,8.32493264 9.48823284,8.44204291 9.48823284,8.44204291 C9.30108372,8.83718331 9.28631014,9.28650025 9.44713626,9.69193483 C9.10434739,10.0267479 8.9123679,10.4749485 8.911836,10.9416616 C8.911836,12.7384535 10.0235331,13.168078 11.1765009,13.2851883 C10.9293991,13.519574 10.9293991,13.7537945 10.9706698,14.066474 L10.9706698,15.433311" id="Path"></path>
        </g>
    </g>
</svg>