<?xml version="1.0" encoding="UTF-8"?>
<svg width="16px" height="16px" viewBox="0 0 16 16" version="1.1" xmlns="http://www.w3.org/2000/svg" xmlns:xlink="http://www.w3.org/1999/xlink">
    <title>folder_mocks__open</title>
    <g id="folder_mocks__open" stroke="none" stroke-width="1" fill="none" fill-rule="evenodd" stroke-linecap="round" stroke-linejoin="round">
        <g id="folder" stroke="#4C4F69">
            <path d="M1.87487972,8.0004811 L2.56063391,5.25746437 C2.67192566,4.81229737 3.07190876,4.5 3.53077641,4.5 L14.4692236,4.5 C15.0215083,4.5 15.4692236,4.94771525 15.4692236,5.5 C15.4692236,5.58176181 15.4591962,5.66321502 15.4393661,5.74253563 L15.1243253,7.00269892 M6.5,13.5 L2.00434875,13.5 C1.17157288,13.5 0.5,12.8284271 0.5,12 L0.5,3.5 C0.5,2.94771525 0.94771525,2.5 1.5,2.5 L6.5,2.5 C7.05228475,2.5 7.5,2.94771525 7.5,3.5 L7.5,4.5" id="Shape"></path>
        </g>
        <g id="icon" stroke="#04A5E5">
            <path d="M10.3266248,15.5 L15.1216642,10.7049605 C15.4479593,10.3786655 15.575392,9.90308001 15.4559597,9.45735264 C15.3365274,9.01162526 14.9883747,8.66347255 14.5426474,8.54404026 C14.09692,8.42460797 13.6213345,8.55204071 13.2950395,8.87833579 L8.5,13.6733752 L8.5,15.5 L10.3266248,15.5 Z M12.838255,9.334949 L14.6650506,11.1615738" id="Combined-Shape"></path>
        </g>
    </g>
</svg>