<?xml version="1.0" encoding="UTF-8"?>
<svg width="16px" height="16px" viewBox="0 0 16 16" version="1.1" xmlns="http://www.w3.org/2000/svg" xmlns:xlink="http://www.w3.org/1999/xlink">
    <title>folder_locales</title>
    <g id="folder_locales" stroke="none" stroke-width="1" fill="none" fill-rule="evenodd" stroke-linecap="round" stroke-linejoin="round">
        <g id="folder" transform="translate(0.5, 2.5)" stroke="#4C4F69">
            <path d="M4,2 L11.5,2 C12.3284271,2 13,2.67157288 13,3.5 C13,3.93429905 13,3.76763238 13,4 M6,11 C4.88123915,11 3.71457248,11 1.5,11 C0.671572875,11 0,10.3284271 0,9.5 L0,1 C0,0.44771525 0.44771525,0 1,0 L6,0 C6.55228475,0 7,0.44771525 7,1 L7,2" id="Shape"></path>
        </g>
        <g id="icon" transform="translate(8.5, 8)" stroke="#8839EF">
            <line x1="3.5" y1="6.5" x2="6.5" y2="6.5" id="Path"></line>
            <polyline id="Path" points="3 7.5 5 3.4990767 7 7.5"></polyline>
            <path d="M1,3.4990767 C1,3.4990767 1.55589514,5.23378176 4,5.49953835" id="Path"></path>
            <path d="M3,2 C3,2 3.14787648,5.30080141 0,5.5" id="Path"></path>
            <line x1="0" y1="1.5" x2="4" y2="1.5" id="Path"></line>
            <line x1="2" y1="0.5" x2="2" y2="1.5" id="Path"></line>
        </g>
    </g>
</svg>