<?xml version="1.0" encoding="UTF-8"?>
<svg width="16px" height="16px" viewBox="0 0 16 16" version="1.1" xmlns="http://www.w3.org/2000/svg" xmlns:xlink="http://www.w3.org/1999/xlink">
    <title>folder_constant</title>
    <g id="folder_constant" stroke="none" stroke-width="1" fill="none" fill-rule="evenodd">
        <g id="folder" stroke="#4C4F69" stroke-linecap="round" stroke-linejoin="round">
            <path d="M4.5,4.5 L12,4.5 C12.8284271,4.5 13.5,5.17157288 13.5,6 C13.5,6.43429905 13.5,6.26763238 13.5,6.5 M6.5,13.5 C5.38123915,13.5 4.21457248,13.5 2,13.5 C1.17157288,13.5 0.5,12.8284271 0.5,12 L0.5,3.5 C0.5,2.94771525 0.94771525,2.5 1.5,2.5 L6.5,2.5 C7.05228475,2.5 7.5,2.94771525 7.5,3.5 L7.5,4.5" id="Shape"></path>
        </g>
        <g id="macos" stroke="#8C8FA1" stroke-linecap="square">
            <path d="M9.5,15.75 C10.1666667,14.75 10.5,12.6666667 10.5,9.5 M14.5,9.5 L10,9.5 C9.33333333,9.5 8.83333333,9.91666667 8.5,10.75 M13.5,9.75 L13.25,13.5 C13.25,15 13.75,15.5 14.5,15.5 C15,15.5 15.3333333,15 15.5,14" id="Combined-Shape"></path>
        </g>
    </g>
</svg>