<?xml version="1.0" encoding="UTF-8"?>
<svg width="16px" height="16px" viewBox="0 0 16 16" version="1.1" xmlns="http://www.w3.org/2000/svg" xmlns:xlink="http://www.w3.org/1999/xlink">
    <title>folder_vscode</title>
    <g id="folder_vscode" stroke="none" stroke-width="1" fill="none" fill-rule="evenodd" stroke-linecap="round" stroke-linejoin="round">
        <g id="folder" stroke="#4C4F69">
            <path d="M4.5,4.5 L12,4.5 C12.8284271,4.5 13.5,5.17157288 13.5,6 C13.5,6.43429905 13.5,6.26763238 13.5,6.5 M6.5,13.5 C5.38123915,13.5 4.21457248,13.5 2,13.5 C1.17157288,13.5 0.5,12.8284271 0.5,12 L0.5,3.5 C0.5,2.94771525 0.94771525,2.5 1.5,2.5 L6.5,2.5 C7.05228475,2.5 7.5,2.94771525 7.5,3.5 L7.5,4.5" id="Shape"></path>
        </g>
        <g id="icon" stroke="#1E66F5">
            <path d="M8,10 L13.5551807,15.4315107 C13.5551807,15.4315107 13.7338984,15.5745056 13.897341,15.4472582 L15.3309858,14.708029 C15.5261666,14.5643101 15.4986715,14.3867431 15.4986715,14.3867431 L15.4986715,9.55007729 C15.4986715,9.33775705 15.2970414,9.26408754 15.2970414,9.26408754 L13.9752436,8.57735014 C13.6867155,8.38494059 13.4976448,8.61210333 13.4976448,8.61210333 L13.0767334,9.01755714 L8,14" id="Path"></path>
        </g>
    </g>
</svg>