<?xml version="1.0" encoding="UTF-8"?>
<svg width="16px" height="16px" viewBox="0 0 16 16" version="1.1" xmlns="http://www.w3.org/2000/svg" xmlns:xlink="http://www.w3.org/1999/xlink">
    <title>folder_decorators__open</title>
    <g id="folder_decorators__open" stroke="none" stroke-width="1" fill="none" fill-rule="evenodd">
        <g id="folder" stroke="#4C4F69" stroke-linecap="round" stroke-linejoin="round">
            <path d="M1.87487972,8.0004811 L2.56063391,5.25746437 C2.67192566,4.81229737 3.07190876,4.5 3.53077641,4.5 L14.4692236,4.5 C15.0215083,4.5 15.4692236,4.94771525 15.4692236,5.5 C15.4692236,5.58176181 15.4591962,5.66321502 15.4393661,5.74253563 L15.1243253,7.00269892 M6.5,13.5 L2.00434875,13.5 C1.17157288,13.5 0.5,12.8284271 0.5,12 L0.5,3.5 C0.5,2.94771525 0.94771525,2.5 1.5,2.5 L6.5,2.5 C7.05228475,2.5 7.5,2.94771525 7.5,3.5 L7.5,4.5" id="Shape"></path>
        </g>
        <g id="macos" stroke="#8839EF">
            <path d="M13.5,12 L13.5023256,12.5385131 C13.4992301,12.8978232 13.689334,13.3194454 14,13.5 C14.310666,13.6805546 14.689334,13.6805546 15,13.5 C15.310666,13.3194454 15.5030955,12.8593101 15.5000368,12.5 L15.4999627,11.9999694 C15.4998389,10.3883353 14.3991848,8.98512923 12.8339654,8.60113299 C11.2687461,8.21713675 9.64364826,8.95163234 8.89766411,10.3802233 C8.15167997,11.8088144 8.47768334,13.5621394 9.68730732,14.6271157 C10.8969313,15.6920919 12.6774283,15.7933704 14.0000154,14.8724317" id="Path" stroke-linecap="round"></path>
            <circle id="Oval" cx="12" cy="12" r="1.5"></circle>
        </g>
    </g>
</svg>