<?xml version="1.0" encoding="UTF-8"?>
<svg width="16px" height="16px" viewBox="0 0 16 16" version="1.1" xmlns="http://www.w3.org/2000/svg" xmlns:xlink="http://www.w3.org/1999/xlink">
    <title>folder_python</title>
    <g id="folder_python" stroke="none" stroke-width="1" fill="none" fill-rule="evenodd" stroke-linecap="round" stroke-linejoin="round">
        <g id="folder" stroke="#4C4F69">
            <path d="M4.5,4.5 L12,4.5 C12.8284271,4.5 13.5,5.17157288 13.5,6 C13.5,6.43429905 13.5,6.26763238 13.5,6.5 M6.5,13.5 C5.38123915,13.5 4.21457248,13.5 2,13.5 C1.17157288,13.5 0.5,12.8284271 0.5,12 L0.5,3.5 C0.5,2.94771525 0.94771525,2.5 1.5,2.5 L6.5,2.5 C7.05228475,2.5 7.5,2.94771525 7.5,3.5 L7.5,4.5" id="Shape"></path>
        </g>
        <g id="macos">
            <path d="M12.5,10.5 L10.5,10.5 M13.5,9.5 L13.5,9 C13.5,8.75 13.25,8.5 13,8.5 L11.25,8.5 C10.75,8.5 10.5,8.75 10.5,9.25 L10.5,10.5 L9.25,10.5 C8.75,10.5 8.5,10.75 8.5,11.25 L8.5,12.75 C8.5,13.25 8.75,13.5 9.25,13.5 L10.5,13.5 L10.5,13.25 C10.5,12.75 10.75,12.5 11.25,12.5 L11.5,12.5" id="Combined-Shape" stroke="#1E66F5"></path>
            <path d="M13.5,13.5 L11.5,13.5 M10.5,14.5 L10.5,15 C10.5,15.25 10.75,15.5 11,15.5 L12.75,15.5 C13.25,15.5 13.5,15.25 13.5,14.75 L13.5,13.5 L14.75,13.5 C15.25,13.5 15.5,13.25 15.5,12.75 L15.5,11.25 C15.5,10.75 15.25,10.5 14.75,10.5 L13.5,10.5 L13.5,10.75 C13.5,11.25 13.25,11.5 12.75,11.5 L12.5,11.5" id="Combined-Shape" stroke="#DF8E1D"></path>
        </g>
    </g>
</svg>