<?xml version="1.0" encoding="UTF-8"?>
<svg width="16px" height="16px" viewBox="0 0 16 16" version="1.1" xmlns="http://www.w3.org/2000/svg" xmlns:xlink="http://www.w3.org/1999/xlink">
    <title>folder_sass</title>
    <g id="folder_sass" stroke="none" stroke-width="1" fill="none" fill-rule="evenodd" stroke-linecap="round" stroke-linejoin="round">
        <g id="folder" stroke="#4C4F69">
            <path d="M4.5,4.5 L12,4.5 C12.8284271,4.5 13.5,5.17157288 13.5,6 C13.5,6.43429905 13.5,6.26763238 13.5,6.5 M6.5,13.5 C5.38123915,13.5 4.21457248,13.5 2,13.5 C1.17157288,13.5 0.5,12.8284271 0.5,12 L0.5,3.5 C0.5,2.94771525 0.94771525,2.5 1.5,2.5 L6.5,2.5 C7.05228475,2.5 7.5,2.94771525 7.5,3.5 L7.5,4.5" id="Shape"></path>
        </g>
        <g id="icon" stroke="#EA76CB">
            <path d="M11.82089,11.1270492 C12.8258001,11.7016962 13.6441128,11.5281873 14.4550488,11.018485 C15.2658172,10.5086212 15.9263687,9.52298127 15.1618725,8.78661893 C14.7794567,8.41859932 13.3877719,8.35704731 12.0986904,8.88775163 C10.8094414,9.41845594 9.59513303,10.5139524 9.51063608,11.1021699 C9.34197749,12.2787664 11.2310878,12.6534097 11.4968173,13.380402 C11.7627145,14.1072326 11.6488783,14.4434261 11.3841547,14.9006235 C11.1195988,15.3579823 10.3170455,15.7757605 9.86287436,15.2673506 C9.4085356,14.7584561 10.7712166,13.7860636 11.4829022,13.5161072 C12.1942525,13.2461507 13.1807208,13.3046332 13.4972491,13.6518124 C13.8136097,13.9991531 13.4623773,14.6156425 13.4831662,14.6156425" id="Path"></path>
        </g>
    </g>
</svg>