<?xml version="1.0" encoding="UTF-8"?>
<svg width="16px" height="16px" viewBox="0 0 16 16" version="1.1" xmlns="http://www.w3.org/2000/svg" xmlns:xlink="http://www.w3.org/1999/xlink">
    <title>folder_git__open</title>
    <g id="folder_git__open" stroke="none" stroke-width="1" fill="none" fill-rule="evenodd">
        <g id="folder" stroke="#4C4F69" stroke-linecap="round" stroke-linejoin="round">
            <path d="M1.87487972,8.0004811 L2.56063391,5.25746437 C2.67192566,4.81229737 3.07190876,4.5 3.53077641,4.5 L14.4692236,4.5 C15.0215083,4.5 15.4692236,4.94771525 15.4692236,5.5 C15.4692236,5.58176181 15.4591962,5.66321502 15.4393661,5.74253563 L15.1243253,7.00269892 M6.5,13.5 L2.00434875,13.5 C1.17157288,13.5 0.5,12.8284271 0.5,12 L0.5,3.5 C0.5,2.94771525 0.94771525,2.5 1.5,2.5 L6.5,2.5 C7.05228475,2.5 7.5,2.94771525 7.5,3.5 L7.5,4.5" id="Shape"></path>
        </g>
        <g id="macos">
            <path d="M10.5,10.5 L10.5,13.5 M9.75,8.75 L8,7 M12.75,11.75 L11.25,10.25" id="Combined-Shape" stroke="#8C8FA1"></path>
            <path d="M10.5,15.5 C11.0522847,15.5 11.5,15.0522847 11.5,14.5 C11.5,13.9477153 11.0522847,13.5 10.5,13.5 C9.94771525,13.5 9.5,13.9477153 9.5,14.5 C9.5,15.0522847 9.94771525,15.5 10.5,15.5 Z M10.5,10.5 C11.0522847,10.5 11.5,10.0522847 11.5,9.5 C11.5,8.94771525 11.0522847,8.5 10.5,8.5 C9.94771525,8.5 9.5,8.94771525 9.5,9.5 C9.5,10.0522847 9.94771525,10.5 10.5,10.5 Z M13.5,13.5 C14.0522847,13.5 14.5,13.0522847 14.5,12.5 C14.5,11.9477153 14.0522847,11.5 13.5,11.5 C12.9477153,11.5 12.5,11.9477153 12.5,12.5 C12.5,13.0522847 12.9477153,13.5 13.5,13.5 Z" id="Combined-Shape" stroke="#FE640B"></path>
        </g>
    </g>
</svg>