<?xml version="1.0" encoding="UTF-8" standalone="no"?>
<!-- Created with Inkscape (http://www.inkscape.org/) -->

<svg
   width="100.0px"
   height="100.0px"
   viewBox="0 0 100.0 100.0"
   version="1.1"
   id="SVGRoot"
   sodipodi:docname="folder_sass.svg"
   inkscape:version="1.2.1 (9c6d41e410, 2022-07-14)"
   xmlns:inkscape="http://www.inkscape.org/namespaces/inkscape"
   xmlns:sodipodi="http://sodipodi.sourceforge.net/DTD/sodipodi-0.dtd"
   xmlns="http://www.w3.org/2000/svg"
   xmlns:svg="http://www.w3.org/2000/svg">
  <defs
     id="defs9" />
  <sodipodi:namedview
     id="namedview32486"
     pagecolor="#181825"
     bordercolor="#000000"
     borderopacity="0.24705882"
     inkscape:showpageshadow="2"
     inkscape:pageopacity="0"
     inkscape:pagecheckerboard="0"
     inkscape:deskcolor="#313244"
     inkscape:document-units="px"
     showgrid="true"
     inkscape:zoom="8.4359983"
     inkscape:cx="49.016131"
     inkscape:cy="55.358001"
     inkscape:window-width="1920"
     inkscape:window-height="1017"
     inkscape:window-x="1912"
     inkscape:window-y="-8"
     inkscape:window-maximized="1"
     inkscape:current-layer="SVGRoot"
     showborder="false">
    <inkscape:grid
       type="xygrid"
       id="grid32609" />
  </sodipodi:namedview>
  <path
     style="display:none;fill:none;stroke:#ffffff;stroke-width:5;stroke-linecap:round;stroke-linejoin:round;stroke-dasharray:none;stroke-opacity:1;paint-order:fill markers stroke"
     d="m 44.713612,27.878444 v -2.974408 c 0,-7.559955 -7.294688,-7.559955 -7.294688,-7.559955 H 11.229791 c -8.7297083,0 -8.7297083,9.047159 -8.7297083,9.047159 v 48.210205 c 0,7.436021 7.7730283,8.05569 7.7730283,8.05569 H 40 m 54.627007,-37.656568 1.938764,-7.331362 c 1.832899,-8.827338 -7.30989,-9.542894 -7.30989,-9.542894 H 24.025395 c 0,0 -4.885741,1.206318 -6.746049,5.588037 -1.860305,4.381718 -5.750039,15.511281 -5.750039,15.511281"
     id="path5390"
     sodipodi:nodetypes="ccccscscccscsc"
     inkscape:label="folder_open" />
  <path
     style="display:inline;fill:none;stroke:#ffffff;stroke-width:5;stroke-linecap:round;stroke-linejoin:round;stroke-dasharray:none;stroke-opacity:1;paint-order:fill markers stroke"
     d="m 24.023123,28.126179 h 54.285891 c 0,0 9.207079,0.247865 9.207079,9.542778 v 7.331208 M 40,82.656331 H 10.272291 c 0,0 -7.7722083,-0.61966 -7.7722083,-8.05559 V 26.39113 c 0,0 0,-9.047049 8.7287883,-9.047049 h 26.186366 c 0,0 7.293919,0 7.293919,7.559862 v 2.974372"
     id="path5390-2"
     sodipodi:nodetypes="ccscccscscsc"
     inkscape:label="folder_close" />
  <path
     stroke="#cf649a"
     d="m 60.992937,67.273855 c 5.994324,3.557237 10.87556,2.483507 15.712394,-0.672091 4.835825,-3.155598 8.775528,-9.25689 4.2152,-13.815199 -2.280668,-2.277642 -10.581898,-2.65809 -18.270577,0.626678 -7.689687,3.284769 -14.933333,10.066226 -15.436897,13.707222 -1.006118,7.283002 10.261999,9.602018 11.847367,14.101797 1.585367,4.498771 0.906213,6.579629 -0.67209,9.410281 -1.578304,2.830653 -6.365689,5.416084 -9.074236,2.268559 -2.709555,-3.148533 5.418102,-9.168085 9.662567,-10.838221 4.243456,-1.672154 10.127783,-1.309871 12.014884,0.839609 1.887103,2.149479 -0.207883,5.965058 -0.08376,5.965058"
     id="path11108"
     style="fill:none;stroke-width:5;stroke-linecap:round;stroke-linejoin:round;stroke-dasharray:none" />
</svg>
