<?xml version="1.0" encoding="UTF-8"?>
<svg width="16px" height="16px" viewBox="0 0 16 16" version="1.1" xmlns="http://www.w3.org/2000/svg" xmlns:xlink="http://www.w3.org/1999/xlink">
    <title>folder_github</title>
    <g id="folder_github" stroke="none" stroke-width="1" fill="none" fill-rule="evenodd" stroke-linecap="round" stroke-linejoin="round">
        <g id="folder" transform="translate(0.5, 2.5)" stroke="#4C4F69">
            <path d="M4,2 L11.5,2 C12.3284271,2 13,2.67157288 13,3.5 C13,3.93429905 13,3.76763238 13,4 M6,11 C4.88123915,11 3.71457248,11 1.5,11 C0.671572875,11 0,10.3284271 0,9.5 L0,1 C0,0.44771525 0.44771525,0 1,0 L6,0 C6.55228475,0 7,0.44771525 7,1 L7,2" id="Shape"></path>
        </g>
        <g id="icon" transform="translate(8.5, 8.4333)" stroke="#8C8FA1">
            <path d="M2.47067018,6.21887949 C0.700034828,6.76561429 0.700034828,5.24252014 -1.77635684e-15,5.04711613" id="Path"></path>
            <path d="M4.94116623,7 L4.94116623,5.63299781 C4.94116623,5.24252014 4.98243694,5.086263 4.73533509,4.8518773 C5.8883029,4.73460186 7,4.30514249 7,2.50835058 C6.9994681,2.04163749 6.80748861,1.59343687 6.46469974,1.25862383 C6.62552586,0.853189253 6.61075228,0.403872311 6.42360316,0.00873190878 C6.42360316,0.00873190878 5.97067018,-0.108543533 4.98243694,0.516485018 C4.1454423,0.309719542 3.26656824,0.309719542 2.42957361,0.516485018 C1.44116623,-0.108378356 0.988233245,0.00873190878 0.988233245,0.00873190878 C0.801084133,0.403872311 0.786310547,0.853189253 0.947136673,1.25862383 C0.604347802,1.59343687 0.412368305,2.04163749 0.41183641,2.50835058 C0.41183641,4.30514249 1.52353351,4.73476703 2.67650132,4.8518773 C2.42939947,5.086263 2.42939947,5.32048353 2.47067018,5.63316299 L2.47067018,7" id="Path"></path>
        </g>
    </g>
</svg>