<?xml version="1.0" encoding="UTF-8"?>
<svg width="16px" height="16px" viewBox="0 0 16 16" version="1.1" xmlns="http://www.w3.org/2000/svg" xmlns:xlink="http://www.w3.org/1999/xlink">
    <title>folder_api__open</title>
    <g id="folder_api__open" stroke="none" stroke-width="1" fill="none" fill-rule="evenodd">
        <g id="folder" stroke="#4C4F69" stroke-linecap="round" stroke-linejoin="round">
            <path d="M1.87487972,8.0004811 L2.56063391,5.25746437 C2.67192566,4.81229737 3.07190876,4.5 3.53077641,4.5 L14.4692236,4.5 C15.0215083,4.5 15.4692236,4.94771525 15.4692236,5.5 C15.4692236,5.58176181 15.4591962,5.66321502 15.4393661,5.74253563 L15.1243253,7.00269892 M6.5,13.5 L2.00434875,13.5 C1.17157288,13.5 0.5,12.8284271 0.5,12 L0.5,3.5 C0.5,2.94771525 0.94771525,2.5 1.5,2.5 L6.5,2.5 C7.05228475,2.5 7.5,2.94771525 7.5,3.5 L7.5,4.5" id="Shape"></path>
        </g>
        <g id="icon" stroke="#DF8E1D">
            <path d="M12,13.5 C12.8284271,13.5 13.5,12.8284271 13.5,12 C13.5,11.1715729 12.8284271,10.5 12,10.5 C11.1715729,10.5 10.5,11.1715729 10.5,12 C10.5,12.8284271 11.1715729,13.5 12,13.5 Z M9,9.5 C9.27614237,9.5 9.5,9.27614237 9.5,9 C9.5,8.72385763 9.27614237,8.5 9,8.5 C8.72385763,8.5 8.5,8.72385763 8.5,9 C8.5,9.27614237 8.72385763,9.5 9,9.5 Z M15,9.5 C15.2761424,9.5 15.5,9.27614237 15.5,9 C15.5,8.72385763 15.2761424,8.5 15,8.5 C14.7238576,8.5 14.5,8.72385763 14.5,9 C14.5,9.27614237 14.7238576,9.5 15,9.5 Z M15,15.5 C15.2761424,15.5 15.5,15.2761424 15.5,15 C15.5,14.7238576 15.2761424,14.5 15,14.5 C14.7238576,14.5 14.5,14.7238576 14.5,15 C14.5,15.2761424 14.7238576,15.5 15,15.5 Z M9,15.5 C9.27614237,15.5 9.5,15.2761424 9.5,15 C9.5,14.7238576 9.27614237,14.5 9,14.5 C8.72385763,14.5 8.5,14.7238576 8.5,15 C8.5,15.2761424 8.72385763,15.5 9,15.5 Z M13,11 L14.5,9.5 M13,13 L14.5,14.5 M9.5,14.5 L11,13 M9.5,9.5 L11,11" id="Combined-Shape"></path>
        </g>
    </g>
</svg>