<?xml version="1.0" encoding="UTF-8"?>
<svg width="16px" height="16px" viewBox="0 0 16 16" version="1.1" xmlns="http://www.w3.org/2000/svg" xmlns:xlink="http://www.w3.org/1999/xlink">
    <title>folder_cypress</title>
    <g id="folder_cypress" stroke="none" stroke-width="1" fill="none" fill-rule="evenodd" stroke-linecap="round" stroke-linejoin="round">
        <g id="folder" transform="translate(0.5, 2.5)" stroke="#4C4F69">
            <path d="M4,2 L11.5,2 C12.3284271,2 13,2.67157288 13,3.5 C13,3.93429905 13,3.76763238 13,4 M6,11 C4.88123915,11 3.71457248,11 1.5,11 C0.671572875,11 0,10.3284271 0,9.5 L0,1 C0,0.44771525 0.44771525,0 1,0 L6,0 C6.55228475,0 7,0.44771525 7,1 L7,2" id="Shape"></path>
        </g>
        <g id="icon" transform="translate(8.5, 9.5)" stroke="#40A02B">
            <path d="M2.50094282,2.65667795 C2.14335895,3.03125125 1.61951641,3.19327251 1.11321084,3.05982976 C0.476147754,2.89203583 0.0218566349,2.29698199 0.000746194617,1.60255504 C-0.0200864767,0.90842428 0.397122488,0.283899125 1.02293593,0.0733051556 C1.54989414,-0.104186896 2.11665302,0.0483924297 2.49868767,0.447078659 M6,3 L4.5,0 M5,6 L7,0" id="Shape"></path>
        </g>
    </g>
</svg>