<?xml version="1.0" encoding="UTF-8"?>
<svg width="16px" height="16px" viewBox="0 0 16 16" version="1.1" xmlns="http://www.w3.org/2000/svg" xmlns:xlink="http://www.w3.org/1999/xlink">
    <title>folder_ios</title>
    <g id="folder_ios" stroke="none" stroke-width="1" fill="none" fill-rule="evenodd">
        <g id="folder" stroke="#4C4F69" stroke-linecap="round" stroke-linejoin="round">
            <path d="M4.5,4.5 L12,4.5 C12.8284271,4.5 13.5,5.17157288 13.5,6 C13.5,6.43429905 13.5,6.26763238 13.5,6.5 M6.5,13.5 C5.38123915,13.5 4.21457248,13.5 2,13.5 C1.17157288,13.5 0.5,12.8284271 0.5,12 L0.5,3.5 C0.5,2.94771525 0.94771525,2.5 1.5,2.5 L6.5,2.5 C7.05228475,2.5 7.5,2.94771525 7.5,3.5 L7.5,4.5" id="Shape"></path>
        </g>
        <g id="icon">
            <path d="M15.2280901,13.4247602 C14.5138109,14.8101157 13.9429297,15.5 13.4218879,15.5 C13.179423,15.5 12.941155,15.4242397 12.7087454,15.2761897 C12.3700032,15.0601911 11.9334209,15.0510459 11.5853448,15.2526574 C11.3044073,15.4156056 11.0358858,15.5 10.7815293,15.5 C10.0144377,15.5 8.75,13.2147476 8.75,11.9602585 C8.75,10.6219676 9.47503406,9.5 10.5782365,9.5 C11.0969174,9.5 11.545036,9.82565274 11.9215431,9.97488784 C12.0810516,10.0391231 12.2612779,10.0345047 12.417053,9.96219034 C12.7223857,9.81998105 13.1248618,9.5 13.6251808,9.5 C14.2357588,9.5 14.7669433,9.89483795 15.2092036,10.4657913 C15.2766453,10.5526578 15.2586007,10.6760018 15.1688947,10.7413218 C14.6750462,11.0993845 14.4373028,11.5023108 14.4373028,11.9602585 C14.4373028,12.4187988 14.6751336,12.8211326 15.1688947,13.1797031 C15.2473288,13.236729 15.2722689,13.3399759 15.2280901,13.4247602 Z" id="Path" stroke="#4C4F69" stroke-linecap="round" stroke-linejoin="round"></path>
            <path d="M11.9377522,9.5 C11.8342928,9.50004434 11.7503115,9.41635182 11.75,9.31289296 C11.7499786,8.96468553 11.888294,8.63073363 12.1345138,8.3845138 C12.3807336,8.13829397 12.7146855,7.99997859 13.062893,8 C13.1126155,8.0000427 13.1602799,8.01985803 13.1953784,8.05507772 C13.230477,8.09029742 13.250128,8.13802975 13.25,8.18775217 C13.2493759,8.91213643 12.6621366,9.49912283 11.9377522,9.49943434 L11.9377522,9.5 Z" id="Path" fill="#4C4F69"></path>
        </g>
    </g>
</svg>