<?xml version="1.0" encoding="UTF-8"?>
<svg width="16px" height="16px" viewBox="0 0 16 16" version="1.1" xmlns="http://www.w3.org/2000/svg" xmlns:xlink="http://www.w3.org/1999/xlink">
    <title>folder_macos</title>
    <g id="folder_macos" stroke="none" stroke-width="1" fill="none" fill-rule="evenodd">
        <g id="folder" stroke="#4C4F69" stroke-linecap="round" stroke-linejoin="round">
            <path d="M4.5,4.5 L12,4.5 C12.8284271,4.5 13.5,5.17157288 13.5,6 C13.5,6.43429905 13.5,6.26763238 13.5,6.5 M6.5,13.5 C5.38123915,13.5 4.21457248,13.5 2,13.5 C1.17157288,13.5 0.5,12.8284271 0.5,12 L0.5,3.5 C0.5,2.94771525 0.94771525,2.5 1.5,2.5 L6.5,2.5 C7.05228475,2.5 7.5,2.94771525 7.5,3.5 L7.5,4.5" id="Shape"></path>
        </g>
        <g id="macos">
            <rect id="Frame" x="8" y="8" width="8" height="8"></rect>
            <polyline id="Line" stroke="#1E66F5" stroke-linecap="round" stroke-linejoin="round" points="12 7.5 10.5 12.5 12.504733 12.5 13 15.5"></polyline>
            <rect id="Rectangle" fill="#1E66F5" x="13" y="10" width="1" height="1"></rect>
            <rect id="Rectangle" fill="#1E66F5" x="9" y="10" width="1" height="1"></rect>
            <rect id="Rectangle" stroke="#1E66F5" x="7.5" y="7.5" width="8" height="8" rx="1.5"></rect>
        </g>
    </g>
</svg>