<?xml version="1.0" encoding="UTF-8"?>
<svg width="16px" height="16px" viewBox="0 0 16 16" version="1.1" xmlns="http://www.w3.org/2000/svg" xmlns:xlink="http://www.w3.org/1999/xlink">
    <title>folder_utils</title>
    <g id="folder_utils" stroke="none" stroke-width="1" fill="none" fill-rule="evenodd" stroke-linecap="round" stroke-linejoin="round">
        <g id="folder" transform="translate(0.5, 2.5)" stroke="#4C4F69">
            <path d="M4,2 L11.5,2 C12.3284271,2 13,2.67157288 13,3.5 C13,3.93429905 13,3.76763238 13,4 M6,11 C4.88123915,11 3.71457248,11 1.5,11 C0.671572875,11 0,10.3284271 0,9.5 L0,1 C0,0.44771525 0.44771525,0 1,0 L6,0 C6.55228475,0 7,0.44771525 7,1 L7,2" id="Shape"></path>
        </g>
        <g id="icon" transform="translate(8.5, 8.5)" stroke="#40A02B">
            <path d="M7,5.5 L5.73524641,4.23404194 C5.90532739,3.85764942 6,3.4398807 6,3 C6,1.34314575 4.65685425,0 3,0 C2.56030512,0 2.14270354,0.0945926387 1.76643508,0.264538088 L3,1.5 L1.5,3 L0.264180341,1.76722746 C0.0944598943,2.14328979 0,2.56061375 0,3 C0,4.65685425 1.34314575,6 3,6 C3.43984376,6 3.85757926,5.90534329 4.23394713,5.73528925 L5.5,7" id="Path"></path>
        </g>
    </g>
</svg>