<?xml version="1.0" encoding="UTF-8"?>
<svg width="16px" height="16px" viewBox="0 0 16 16" version="1.1" xmlns="http://www.w3.org/2000/svg" xmlns:xlink="http://www.w3.org/1999/xlink">
    <title>folder_fastlane__open</title>
    <g id="folder_fastlane__open" stroke="none" stroke-width="1" fill="none" fill-rule="evenodd" stroke-linejoin="round">
        <g id="folder" stroke="#4C4F69" stroke-linecap="round">
            <path d="M1.87487972,8.0004811 L2.56063391,5.25746437 C2.67192566,4.81229737 3.07190876,4.5 3.53077641,4.5 L14.4692236,4.5 C15.0215083,4.5 15.4692236,4.94771525 15.4692236,5.5 C15.4692236,5.58176181 15.4591962,5.66321502 15.4393661,5.74253563 L15.1243253,7.00269892 M6.5,13.5 L2.00434875,13.5 C1.17157288,13.5 0.5,12.8284271 0.5,12 L0.5,3.5 C0.5,2.94771525 0.94771525,2.5 1.5,2.5 L6.5,2.5 C7.05228475,2.5 7.5,2.94771525 7.5,3.5 L7.5,4.5" id="Shape"></path>
        </g>
        <g id="icon">
            <line x1="9.75" y1="15.5" x2="8.5" y2="11.5" id="Path" stroke="#209FB5"></line>
            <line x1="14.25" y1="15.5" x2="9.75" y2="15.5" id="Path" stroke="#8839EF" stroke-linecap="round"></line>
            <line x1="15.5" y1="11.5" x2="14.25" y2="15.5" id="Path" stroke="#40A02B" stroke-linecap="round"></line>
            <polyline id="Path" stroke="#1E66F5" stroke-linecap="round" points="8.5 11.5 12 8.5 15.5 11.5"></polyline>
            <line x1="8.5" y1="11.5" x2="12" y2="8.5" id="Path" stroke="#D20F39" stroke-linecap="round"></line>
        </g>
    </g>
</svg>