<?xml version="1.0" encoding="UTF-8"?>
<svg width="16px" height="16px" viewBox="0 0 16 16" version="1.1" xmlns="http://www.w3.org/2000/svg" xmlns:xlink="http://www.w3.org/1999/xlink">
    <title>folder_mocks</title>
    <g id="folder_mocks" stroke="none" stroke-width="1" fill="none" fill-rule="evenodd" stroke-linecap="round" stroke-linejoin="round">
        <g id="folder" transform="translate(0.5, 2.5)" stroke="#4C4F69">
            <path d="M4,2 L11.5,2 C12.3284271,2 13,2.67157288 13,3.5 C13,3.93429905 13,3.76763238 13,4 M6,11 C4.88123915,11 3.71457248,11 1.5,11 C0.671572875,11 0,10.3284271 0,9.5 L0,1 C0,0.44771525 0.44771525,0 1,0 L6,0 C6.55228475,0 7,0.44771525 7,1 L7,2" id="Shape"></path>
        </g>
        <g id="icon" transform="translate(8.5, 8.5)" stroke="#04A5E5">
            <path d="M1.82662475,7 L6.62166421,2.20496055 C6.94795929,1.87866546 7.07539203,1.40308001 6.95595974,0.957352638 C6.83652745,0.511625262 6.48837474,0.163472551 6.04264736,0.0440402603 C5.59691999,-0.0753920301 5.12133454,0.0520407067 4.79503945,0.378335792 L0,5.17337525 L0,7 L1.82662475,7 Z M4.33825515,0.834949275 L6.16505073,2.66157403" id="Path"></path>
        </g>
    </g>
</svg>