<?xml version="1.0" encoding="UTF-8"?>
<svg width="16px" height="16px" viewBox="0 0 16 16" version="1.1" xmlns="http://www.w3.org/2000/svg" xmlns:xlink="http://www.w3.org/1999/xlink">
    <title>folder_utils__open</title>
    <g id="folder_utils__open" stroke="none" stroke-width="1" fill="none" fill-rule="evenodd" stroke-linecap="round" stroke-linejoin="round">
        <g id="folder" transform="translate(0.5, 2.5)" stroke="#4C4F69">
            <path d="M1.37487972,5.5004811 L2.06063391,2.75746437 C2.17192566,2.31229737 2.57190876,2 3.03077641,2 L13.9692236,2 C14.5215083,2 14.9692236,2.44771525 14.9692236,3 C14.9692236,3.08176181 14.9591962,3.16321502 14.9393661,3.24253563 L14.6243253,4.50269892 M6,11 L1.50434875,11 C0.671572875,11 5.55111512e-17,10.3284271 5.55111512e-17,9.5 L5.55111512e-17,1 C5.55111512e-17,0.44771525 0.44771525,0 1,0 L6,0 C6.55228475,0 7,0.44771525 7,1 L7,2" id="Shape"></path>
        </g>
        <g id="icon" transform="translate(8.5, 8.5)" stroke="#40A02B">
            <path d="M7,5.5 L5.73524641,4.23404194 C5.90532739,3.85764942 6,3.4398807 6,3 C6,1.34314575 4.65685425,0 3,0 C2.56030512,0 2.14270354,0.0945926387 1.76643508,0.264538088 L3,1.5 L1.5,3 L0.264180341,1.76722746 C0.0944598943,2.14328979 0,2.56061375 0,3 C0,4.65685425 1.34314575,6 3,6 C3.43984376,6 3.85757926,5.90534329 4.23394713,5.73528925 L5.5,7" id="Path"></path>
        </g>
    </g>
</svg>