<?xml version="1.0" encoding="UTF-8"?>
<svg width="16px" height="16px" viewBox="0 0 16 16" version="1.1" xmlns="http://www.w3.org/2000/svg" xmlns:xlink="http://www.w3.org/1999/xlink">
    <title>folder_plugins__open</title>
    <g id="folder_plugins__open" stroke="none" stroke-width="1" fill="none" fill-rule="evenodd" stroke-linejoin="round">
        <g id="folder" stroke="#4C4F69" stroke-linecap="round">
            <path d="M1.87487972,8.0004811 L2.56063391,5.25746437 C2.67192566,4.81229737 3.07190876,4.5 3.53077641,4.5 L14.4692236,4.5 C15.0215083,4.5 15.4692236,4.94771525 15.4692236,5.5 C15.4692236,5.58176181 15.4591962,5.66321502 15.4393661,5.74253563 L15.1243253,7.00269892 M6.5,13.5 L2.00434875,13.5 C1.17157288,13.5 0.5,12.8284271 0.5,12 L0.5,3.5 C0.5,2.94771525 0.94771525,2.5 1.5,2.5 L6.5,2.5 C7.05228475,2.5 7.5,2.94771525 7.5,3.5 L7.5,4.5" id="Shape"></path>
        </g>
        <g id="icon" stroke="#1E66F5">
            <path d="M8,15.9998442 L10.0312842,13.96856 M14,8 L12,9.98999023 M15.9980469,10 L14,12 M11.0309047,9.374863 L14.6251363,12.9689385 L13.7265394,13.8675355 C13.0896038,14.5340048 12.1417547,14.8033946 11.2495043,14.5715379 C10.3572539,14.3396812 9.66046448,13.6429221 9.42856903,12.7506818 C9.19667358,11.8584414 9.46602223,10.9105807 10.1324639,10.2736161 L11.0309047,9.374863 Z" id="Combined-Shape"></path>
        </g>
    </g>
</svg>