<?xml version="1.0" encoding="UTF-8"?>
<svg width="16px" height="16px" viewBox="0 0 16 16" version="1.1" xmlns="http://www.w3.org/2000/svg" xmlns:xlink="http://www.w3.org/1999/xlink">
    <title>folder_functions</title>
    <g id="folder_functions" stroke="none" stroke-width="1" fill="none" fill-rule="evenodd" stroke-linecap="round" stroke-linejoin="round">
        <g id="folder" transform="translate(0.5, 2.5)" stroke="#4C4F69">
            <path d="M4,2 L11.5,2 C12.3284271,2 13,2.67157288 13,3.5 C13,3.93429905 13,3.76763238 13,4 M6,11 C4.88123915,11 3.71457248,11 1.5,11 C0.671572875,11 0,10.3284271 0,9.5 L0,1 C0,0.44771525 0.44771525,0 1,0 L6,0 C6.55228475,0 7,0.44771525 7,1 L7,2" id="Shape"></path>
        </g>
        <g id="icon" transform="translate(8.5, 8.5)" stroke="#1E66F5">
            <path d="M5,2 L5.33335571,2 C5.66671142,2 5.66671142,2.42854677 6.00530308,3.51139109 C6.33342284,4.57145323 6.33342284,5 6.66664429,5 L7,5" id="Path"></path>
            <path d="M3.8889585,5.44439224 C4.47220047,5.44439224 5.05575568,4.66666667 5.44463587,4.08329418 C5.83335944,3.49992169 6.41675803,2.72219612 7,2.72219612" id="Path"></path>
            <path d="M0,6.22211782 C0,6.80533369 0.194518403,7 0.777760376,7 C1.36100235,7 1.55567737,5.44439224 1.94455756,3.49992169 C2.33343774,1.55545115 2.52779953,0 3.11119812,0 C3.69444009,0 3.8889585,0.194509699 3.8889585,0.777882184" id="Path"></path>
            <line x1="0.777603759" y1="3.00007831" x2="3.11119812" y2="3.00007831" id="Path"></line>
        </g>
    </g>
</svg>