<?xml version="1.0" encoding="UTF-8"?>
<svg width="16px" height="16px" viewBox="0 0 16 16" version="1.1" xmlns="http://www.w3.org/2000/svg" xmlns:xlink="http://www.w3.org/1999/xlink">
    <title>folder_locales__open</title>
    <g id="folder_locales__open" stroke="none" stroke-width="1" fill="none" fill-rule="evenodd" stroke-linecap="round" stroke-linejoin="round">
        <g id="folder" transform="translate(0.5, 2.5)" stroke="#4C4F69">
            <path d="M1.37487972,5.5004811 L2.06063391,2.75746437 C2.17192566,2.31229737 2.57190876,2 3.03077641,2 L13.9692236,2 C14.5215083,2 14.9692236,2.44771525 14.9692236,3 C14.9692236,3.08176181 14.9591962,3.16321502 14.9393661,3.24253563 L14.6243253,4.50269892 M6,11 L1.50434875,11 C0.671572875,11 5.55111512e-17,10.3284271 5.55111512e-17,9.5 L5.55111512e-17,1 C5.55111512e-17,0.44771525 0.44771525,0 1,0 L6,0 C6.55228475,0 7,0.44771525 7,1 L7,2" id="Shape"></path>
        </g>
        <g id="icon" transform="translate(8.5, 8)" stroke="#8839EF">
            <line x1="3.5" y1="6.5" x2="6.5" y2="6.5" id="Path"></line>
            <polyline id="Path" points="3 7.5 5 3.4990767 7 7.5"></polyline>
            <path d="M1,3.4990767 C1,3.4990767 1.55589514,5.23378176 4,5.49953835" id="Path"></path>
            <path d="M3,2 C3,2 3.14787648,5.30080141 0,5.5" id="Path"></path>
            <line x1="0" y1="1.5" x2="4" y2="1.5" id="Path"></line>
            <line x1="2" y1="0.5" x2="2" y2="1.5" id="Path"></line>
        </g>
    </g>
</svg>