<?xml version="1.0" encoding="UTF-8"?>
<svg width="16px" height="16px" viewBox="0 0 16 16" version="1.1" xmlns="http://www.w3.org/2000/svg" xmlns:xlink="http://www.w3.org/1999/xlink">
    <title>folder_playground__open</title>
    <g id="folder_playground__open" stroke="none" stroke-width="1" fill="none" fill-rule="evenodd" stroke-linecap="round" stroke-linejoin="round">
        <g id="folder" transform="translate(0.5, 2.5)" stroke="#4C4F69">
            <path d="M1.37487972,5.5004811 L2.06063391,2.75746437 C2.17192566,2.31229737 2.57190876,2 3.03077641,2 L13.9692236,2 C14.5215083,2 14.9692236,2.44771525 14.9692236,3 C14.9692236,3.08176181 14.9591962,3.16321502 14.9393661,3.24253563 L14.6243253,4.50269892 M6,11 L1.50434875,11 C0.671572875,11 5.55111512e-17,10.3284271 5.55111512e-17,9.5 L5.55111512e-17,1 C5.55111512e-17,0.44771525 0.44771525,0 1,0 L6,0 C6.55228475,0 7,0.44771525 7,1 L7,2" id="Shape"></path>
        </g>
        <g id="icon" transform="translate(8.5, 8.5)" stroke="#40A02B">
            <path d="M0,0.780634117 L0,6.22756802 C0.00183778209,6.48524082 0.129434833,6.72527735 0.340745188,6.86858043 C0.552055543,7.01188351 0.819665611,7.03986221 1.05539213,6.94329697 L6.25713505,4.18123193 C6.50159841,4.04422876 6.65333822,3.78346033 6.65333822,3.50034749 C6.65333822,3.21723466 6.50159841,2.95646622 6.25713505,2.81946305 L1.05539213,0.057114721 C0.825211702,-0.0375621819 0.564055852,-0.0135108274 0.354485015,0.121665316 C0.144914177,0.25684146 0.0128341443,0.486432791 0,0.73785752" id="Path"></path>
        </g>
    </g>
</svg>