<?xml version="1.0" encoding="UTF-8"?>
<svg width="16px" height="16px" viewBox="0 0 16 16" version="1.1" xmlns="http://www.w3.org/2000/svg" xmlns:xlink="http://www.w3.org/1999/xlink">
    <title>folder_composables__open</title>
    <g id="folder_composables__open" stroke="none" stroke-width="1" fill="none" fill-rule="evenodd" stroke-linecap="round">
        <g id="folder" transform="translate(0.5, 2.5)" stroke="#4C4F69" stroke-linejoin="round">
            <path d="M1.37487972,5.5004811 L2.06063391,2.75746437 C2.17192566,2.31229737 2.57190876,2 3.03077641,2 L13.9692236,2 C14.5215083,2 14.9692236,2.44771525 14.9692236,3 C14.9692236,3.08176181 14.9591962,3.16321502 14.9393661,3.24253563 L14.6243253,4.50269892 M6,11 L1.50434875,11 C0.671572875,11 5.55111512e-17,10.3284271 5.55111512e-17,9.5 L5.55111512e-17,1 C5.55111512e-17,0.44771525 0.44771525,0 1,0 L6,0 C6.55228475,0 7,0.44771525 7,1 L7,2" id="Shape"></path>
        </g>
        <g id="Group" transform="translate(8.8832, 8.7358)" stroke="#8839EF">
            <line x1="4.13545051" y1="6.65593055" x2="3.62058139" y2="5.76415108" id="Path"></line>
            <line x1="4.13354613" y1="4.86907312" x2="3.61867701" y2="5.76085259" id="Path"></line>
            <path d="M5.6163061,3.76321803 L5.89316583,4.31693748 C6.14015508,4.81091598 5.93993073,5.41158902 5.44595223,5.65857827 C5.3070968,5.72800599 5.15398373,5.76415108 4.99873864,5.76415108 L3.62058139,5.76415108" id="Path"></path>
            <path d="M2.11857316,0.760550005 L2.22234544,0.553005461 C2.46933468,0.0590269637 3.07000773,-0.141197383 3.56398622,0.105791866 C3.75751363,0.202555567 3.91443612,0.359478059 4.01119982,0.553005461 L4.61880557,1.76821696" id="Path"></path>
            <line x1="3.50004768" y1="1.69712179" x2="4.62131026" y2="1.76442344" id="Path"></line>
            <line x1="5.23670532" y1="0.832586492" x2="4.6177891" y2="1.76997754" id="Path"></line>
            <path d="M1.62136957,5.76415108 L1.23480662,5.76415108 C0.682521866,5.76415108 0.234806616,5.31643583 0.234806616,4.76415108 C0.234806616,4.60890598 0.270951708,4.45579292 0.340379425,4.31693748 L1.11673601,2.76422432" id="Path"></path>
            <line x1="1.73314706" y1="3.69782509" x2="1.11675432" y2="2.76425604" id="Path"></line>
            <line x1="0" y1="2.83118323" x2="1.11669089" y2="2.76415599" id="Path"></line>
        </g>
    </g>
</svg>