<?xml version="1.0" encoding="UTF-8"?>
<svg width="16px" height="16px" viewBox="0 0 16 16" version="1.1" xmlns="http://www.w3.org/2000/svg" xmlns:xlink="http://www.w3.org/1999/xlink">
    <title>folder_pdf__open</title>
    <g id="folder_pdf__open" stroke="none" stroke-width="1" fill="none" fill-rule="evenodd" stroke-linecap="round" stroke-linejoin="round">
        <g id="folder" stroke="#4C4F69">
            <path d="M1.87487972,8.0004811 L2.56063391,5.25746437 C2.67192566,4.81229737 3.07190876,4.5 3.53077641,4.5 L14.4692236,4.5 C15.0215083,4.5 15.4692236,4.94771525 15.4692236,5.5 C15.4692236,5.58176181 15.4591962,5.66321502 15.4393661,5.74253563 L15.1243253,7.00269892 M6.5,13.5 L2.00434875,13.5 C1.17157288,13.5 0.5,12.8284271 0.5,12 L0.5,3.5 C0.5,2.94771525 0.94771525,2.5 1.5,2.5 L6.5,2.5 C7.05228475,2.5 7.5,2.94771525 7.5,3.5 L7.5,4.5" id="Shape"></path>
        </g>
        <g id="macos" stroke="#D20F39">
            <path d="M9.20370079,15.4136304 C10.1763523,14.7392625 10.8236233,13.7125577 11.3079814,12.4559496 C11.7922651,11.1993415 12.3089978,10.1223028 12.0824493,8.88179246 C12.0469559,8.68725892 11.774667,8.49045808 11.635738,8.50035858 C11.0829921,8.53988502 11.1216041,9.15885539 11.1744729,9.53318509 C11.3039716,10.4499263 12.0184424,11.5172156 12.7030632,12.523137 C13.3876839,13.5289827 13.9561716,13.6870129 14.7425201,13.7399163 C15.0075322,13.7577524 15.4114733,13.6640377 15.4768909,13.4253675 C15.8912275,11.914445 10.6192024,13.137346 8.86643968,14.5469963 C8.64724224,14.7233159 8.40064512,15.0875184 8.54120771,15.3333683 C8.65295979,15.529111 9.01034369,15.5477784 9.20370079,15.4136304 L9.20370079,15.4136304 Z" id="Path"></path>
        </g>
    </g>
</svg>