<?xml version="1.0" encoding="UTF-8"?>
<svg width="16px" height="16px" viewBox="0 0 16 16" version="1.1" xmlns="http://www.w3.org/2000/svg" xmlns:xlink="http://www.w3.org/1999/xlink">
    <title>folder_playground</title>
    <g id="folder_playground" stroke="none" stroke-width="1" fill="none" fill-rule="evenodd" stroke-linecap="round" stroke-linejoin="round">
        <g id="folder" transform="translate(0.5, 2.5)" stroke="#4C4F69">
            <path d="M4,2 L11.5,2 C12.3284271,2 13,2.67157288 13,3.5 C13,3.93429905 13,3.76763238 13,4 M6,11 C4.88123915,11 3.71457248,11 1.5,11 C0.671572875,11 0,10.3284271 0,9.5 L0,1 C0,0.44771525 0.44771525,0 1,0 L6,0 C6.55228475,0 7,0.44771525 7,1 L7,2" id="Shape"></path>
        </g>
        <g id="icon" transform="translate(8.5, 8.5)" stroke="#40A02B">
            <path d="M0,0.780634117 L0,6.22756802 C0.00183778209,6.48524082 0.129434833,6.72527735 0.340745188,6.86858043 C0.552055543,7.01188351 0.819665611,7.03986221 1.05539213,6.94329697 L6.25713505,4.18123193 C6.50159841,4.04422876 6.65333822,3.78346033 6.65333822,3.50034749 C6.65333822,3.21723466 6.50159841,2.95646622 6.25713505,2.81946305 L1.05539213,0.057114721 C0.825211702,-0.0375621819 0.564055852,-0.0135108274 0.354485015,0.121665316 C0.144914177,0.25684146 0.0128341443,0.486432791 0,0.73785752" id="Path"></path>
        </g>
    </g>
</svg>