<?xml version="1.0" encoding="UTF-8"?>
<svg width="16px" height="16px" viewBox="0 0 16 16" version="1.1" xmlns="http://www.w3.org/2000/svg" xmlns:xlink="http://www.w3.org/1999/xlink">
    <title>folder_playground</title>
    <g id="folder_playground" stroke="none" stroke-width="1" fill="none" fill-rule="evenodd" stroke-linecap="round" stroke-linejoin="round">
        <g id="folder" stroke="#4C4F69">
            <path d="M4.5,4.5 L12,4.5 C12.8284271,4.5 13.5,5.17157288 13.5,6 C13.5,6.43429905 13.5,6.26763238 13.5,6.5 M6.5,13.5 C5.38123915,13.5 4.21457248,13.5 2,13.5 C1.17157288,13.5 0.5,12.8284271 0.5,12 L0.5,3.5 C0.5,2.94771525 0.94771525,2.5 1.5,2.5 L6.5,2.5 C7.05228475,2.5 7.5,2.94771525 7.5,3.5 L7.5,4.5" id="Shape"></path>
        </g>
        <g id="icon" stroke="#40A02B">
            <path d="M8.5,9.28063412 L8.5,14.727568 C8.50183778,14.9852408 8.62943483,15.2252774 8.84074519,15.3685804 C9.05205554,15.5118835 9.31966561,15.5398622 9.55539213,15.443297 L14.757135,12.6812319 C15.0015984,12.5442288 15.1533382,12.2834603 15.1533382,12.0003475 C15.1533382,11.7172347 15.0015984,11.4564662 14.757135,11.319463 L9.55539213,8.55711472 C9.3252117,8.46243782 9.06405585,8.48648917 8.85448501,8.62166532 C8.64491418,8.75684146 8.51283414,8.98643279 8.5,9.23785752" id="Path"></path>
        </g>
    </g>
</svg>