<?xml version="1.0" encoding="UTF-8"?>
<svg width="16px" height="16px" viewBox="0 0 16 16" version="1.1" xmlns="http://www.w3.org/2000/svg" xmlns:xlink="http://www.w3.org/1999/xlink">
    <title>folder_packages</title>
    <g id="folder_packages" stroke="none" stroke-width="1" fill="none" fill-rule="evenodd" stroke-linecap="round" stroke-linejoin="round">
        <g id="folder" transform="translate(0.5, 2.5)" stroke="#4C4F69">
            <path d="M4,2 L11.5,2 C12.3284271,2 13,2.67157288 13,3.5 C13,3.93429905 13,3.76763238 13,4 M6,11 C4.88123915,11 3.71457248,11 1.5,11 C0.671572875,11 0,10.3284271 0,9.5 L0,1 C0,0.44771525 0.44771525,0 1,0 L6,0 C6.55228475,0 7,0.44771525 7,1 L7,2" id="Shape"></path>
        </g>
        <g id="icon" transform="translate(9.5, 8.5)" stroke="#FE640B">
            <polygon id="Path" points="6.05818592 1.74851916 6.05818592 5.25119878 3.03163154 7 -1.05412007e-13 5.25119878 -1.05412007e-13 1.75867349 3.03656768 0"></polygon>
            <path d="M0.099991941,1.81480437 L1.56447193,2.65733167 L3.02923399,3.49985897 M5.93943668,1.80775275 L3.03205464,3.48631986 L3.03205464,6.90311077" id="Shape"></path>
        </g>
    </g>
</svg>