<?xml version="1.0" encoding="UTF-8"?>
<svg width="16px" height="16px" viewBox="0 0 16 16" version="1.1" xmlns="http://www.w3.org/2000/svg" xmlns:xlink="http://www.w3.org/1999/xlink">
    <title>folder_wordpress</title>
    <g id="folder_wordpress" stroke="none" stroke-width="1" fill="none" fill-rule="evenodd" stroke-linecap="round" stroke-linejoin="round">
        <g id="folder" stroke="#4C4F69">
            <path d="M4.5,4.5 L12,4.5 C12.8284271,4.5 13.5,5.17157288 13.5,6 C13.5,6.43429905 13.5,6.26763238 13.5,6.5 M6.5,13.5 C5.38123915,13.5 4.21457248,13.5 2,13.5 C1.17157288,13.5 0.5,12.8284271 0.5,12 L0.5,3.5 C0.5,2.94771525 0.94771525,2.5 1.5,2.5 L6.5,2.5 C7.05228475,2.5 7.5,2.94771525 7.5,3.5 L7.5,4.5" id="Shape"></path>
        </g>
        <g id="macos" stroke="#1E66F5">
            <path d="M8.5,9.5 L10.5,14.5 L12,11.5 M11.5,9.5 L13.5,14.5 L14.4980375,13.0029438 C15.1660125,12.0009813 15.5,11.1666667 15.5,10.5 C15.5,9.83333333 15,9 14,8 M7.75,9.5 L9.25,9.5 M10.75,9.5 L12.25,9.5" id="Combined-Shape"></path>
        </g>
    </g>
</svg>