<?xml version="1.0" encoding="utf-8" standalone="no" ?>
<svg
xmlns="http://www.w3.org/2000/svg"
x=".000000"
y=".000000"
width="100.000000"
height="100.000000"
>
<title>Fortran Logo</title>
<desc>Fortran Logo Generator</desc>
<pattern
id="diagonalFill"
width="1.000000"
height="1.000000"
patternUnits="userSpaceOnUse"
patternTransform="rotate(45)"
>
<rect
x=".000000"
y=".000000"
width=".000000"
height="1.000000"
fill="#CA9EE6"
/>
</pattern>
<path
fill="url(#diagonalFill)"
stroke="#CA9EE6"
stroke-width="5.000000"
d="
M    42.455841    56.495907
L    42.606422    55.140686
L    43.058159    54.086628
L    43.811062    53.333725
L    44.865120    52.881989
L    46.220341    52.731407
L    47.461102    52.731407
L    48.345184    52.761646
L    49.183926    52.852367
L    49.977333    53.003571
L    50.725399    53.215256
L    51.428131    53.487419
L    52.085526    53.820065
L    52.697582    54.213192
L    53.264301    54.666801
L    53.785683    55.180889
L    54.261726    55.755459
L    54.692429    56.390511
L    55.077797    57.086040
L    55.417831    57.842052
L    55.712524    58.658546
L    55.961880    59.535522
L    56.165901    60.472977
L    56.324581    61.470913
L    56.437923    62.529335
L    56.505928    63.648232
L    56.528599    64.827606
L    56.528599    64.965111
L    56.679180    66.320328
L    57.130920    67.374390
L    57.883820    68.127289
L    58.937881    68.579033
L    60.293098    68.729614
L    61.831600    68.729614
L    63.186821    68.579033
L    64.240883    68.127289
L    64.993782    67.374390
L    65.445518    66.320328
L    65.596100    64.965111
L    65.596100    33.318016
L    65.445518    31.962795
L    64.993782    30.908735
L    64.240883    30.155834
L    63.186821    29.704094
L    61.831600    29.553516
L    60.293098    29.553516
L    58.937881    29.704096
L    57.883820    30.155838
L    57.130920    30.908735
L    56.679180    31.962795
L    56.528599    33.318016
L    56.528599    31.270397
L    56.505928    32.449776
L    56.437923    33.568672
L    56.324581    34.627094
L    56.165901    35.625031
L    55.961880    36.562485
L    55.712524    37.439461
L    55.417831    38.255955
L    55.077797    39.011967
L    54.692429    39.707497
L    54.261726    40.342548
L    53.785683    40.917118
L    53.264301    41.431206
L    52.697582    41.884815
L    52.085526    42.277943
L    51.428131    42.610588
L    50.725399    42.882751
L    49.977333    43.094437
L    49.183926    43.245640
L    48.345184    43.336361
L    47.461102    43.366600
L    46.220341    43.366600
L    44.865120    43.216019
L    43.811062    42.764282
L    43.058159    42.011379
L    42.606422    40.957321
L    42.455841    39.602100
L    42.455841    23.719101
L    42.606422    22.363880
L    43.058159    21.309822
L    43.811062    20.556919
L    44.865120    20.105179
L    46.220341    19.954601
L    64.145294    19.954601
L    65.418373    20.003721
L    66.626167    20.151075
L    67.768669    20.396669
L    68.845886    20.740499
L    69.857819    21.182568
L    70.804474    21.722876
L    71.685829    22.361420
L    72.501907    23.098202
L    73.252701    23.933220
L    73.938202    24.866478
L    74.558418    25.897970
L    75.113350    27.027700
L    75.602989    28.255671
L    76.027351    29.581875
L    76.386421    31.006317
L    76.680214    32.528999
L    76.908714    34.149918
L    77.071930    35.869076
L    77.169861    37.686470
L    77.202499    39.602100
L    77.202499    39.602100
L    77.353081    40.957321
L    77.804817    42.011379
L    78.557724    42.764278
L    79.611786    43.216019
L    80.966995    43.366600
L    82.505501    43.366600
L    83.860718    43.216019
L    84.914780    42.764282
L    85.667679    42.011379
L    86.119431    40.957321
L    86.270004    39.602100
L    86.270004    14.744499
L    86.119423    13.389278
L    85.667679    12.335220
L    84.914780    11.582317
L    83.860725    11.130577
L    82.505501    10.980000
L    25.336399    10.980000
L    17.494499    10.980000
L    16.139275    11.130577
L    15.085217    11.582317
L    14.332321    12.335220
L    13.880577    13.389278
L    13.730000    14.744499
L    13.730000    16.190098
L    13.880573    17.545319
L    14.332317    18.599379
L    15.085220    19.352280
L    16.139278    19.804020
L    17.494499    19.954599
L    20.983999    19.954599
L    21.408360    19.964355
L    21.810959    19.993620
L    22.191788    20.042395
L    22.550861    20.110678
L    22.888174    20.198475
L    23.203722    20.305779
L    23.497511    20.432596
L    23.769533    20.578918
L    24.019800    20.744757
L    24.248299    20.930099
L    24.455038    21.134954
L    24.640015    21.359320
L    24.803230    21.603195
L    24.944683    21.866579
L    25.064373    22.149475
L    25.162302    22.451880
L    25.238470    22.773796
L    25.292875    23.115221
L    25.325518    23.476154
L    25.336399    23.856600
L    25.336399    76.143402
L    25.325518    76.523849
L    25.292875    76.884781
L    25.238470    77.226204
L    25.162302    77.548119
L    25.064373    77.850525
L    24.944683    78.133423
L    24.803230    78.396805
L    24.640015    78.640678
L    24.455038    78.865044
L    24.248299    79.069901
L    24.019800    79.255241
L    23.769533    79.421082
L    23.497511    79.567406
L    23.203722    79.694221
L    22.888174    79.801529
L    22.550861    79.889320
L    22.191788    79.957603
L    21.810959    80.006378
L    21.408360    80.035645
L    20.983999    80.045403
L    17.494499    80.045403
L    16.139278    80.195984
L    15.085220    80.647720
L    14.332317    81.400620
L    13.880573    82.454681
L    13.730000    83.809906
L    13.730000    85.255501
L    13.880577    86.610718
L    14.332321    87.664780
L    15.085217    88.417679
L    16.139275    88.869423
L    17.494499    89.020004
L    25.336399    89.020004
L    42.455841    89.020004
L    51.546383    89.020004
L    52.901608    88.869423
L    53.955662    88.417679
L    54.708561    87.664780
L    55.160305    86.610718
L    55.310879    85.255501
L    55.310879    83.809906
L    55.160305    82.454681
L    54.708561    81.400620
L    53.955662    80.647720
L    52.901600    80.195984
L    51.546383    80.045403
L    46.808243    80.045403
L    46.383881    80.035645
L    45.981281    80.006378
L    45.600452    79.957603
L    45.241379    79.889320
L    44.904068    79.801529
L    44.588516    79.694221
L    44.294731    79.567406
L    44.022705    79.421082
L    43.772438    79.255241
L    43.543941    79.069901
L    43.337204    78.865044
L    43.152225    78.640678
L    42.989010    78.396805
L    42.847557    78.133423
L    42.727867    77.850525
L    42.629936    77.548119
L    42.553772    77.226204
L    42.499367    76.884781
L    42.466721    76.523849
L    42.455841    76.143402 z
"
/>
</svg>
