<?xml version="1.0" encoding="UTF-8" standalone="no"?>
<!-- Created with Inkscape (http://www.inkscape.org/) -->

<svg
   width="100.0px"
   height="100.0px"
   viewBox="0 0 100.0 100.0"
   version="1.1"
   id="SVGRoot"
   sodipodi:docname="fortran.svg"
   inkscape:version="1.2.1 (9c6d41e, 2022-07-14)"
   xmlns:inkscape="http://www.inkscape.org/namespaces/inkscape"
   xmlns:sodipodi="http://sodipodi.sourceforge.net/DTD/sodipodi-0.dtd"
   xmlns:xlink="http://www.w3.org/1999/xlink"
   xmlns="http://www.w3.org/2000/svg"
   xmlns:svg="http://www.w3.org/2000/svg">
  <defs
     id="defs44872">
    <pattern
       inkscape:collect="always"
       xlink:href="#diagonalFill"
       id="pattern1832"
       patternTransform="matrix(0.86031093,0.86031093,-0.86031093,0.86031093,-10.83317,-10.833171)" />
    <pattern
       id="diagonalFill"
       width="1.000000"
       height="1.000000"
       patternUnits="userSpaceOnUse"
       patternTransform="rotate(45)">
      <rect
         x=".000000"
         y=".000000"
         width=".000000"
         height="1.000000"
         fill="#CA9EE6"
         id="rect6" />
    </pattern>
  </defs>
  <sodipodi:namedview
     id="namedview32486"
     pagecolor="#181825"
     bordercolor="#000000"
     borderopacity="0.24705882"
     inkscape:showpageshadow="2"
     inkscape:pageopacity="0"
     inkscape:pagecheckerboard="0"
     inkscape:deskcolor="#313244"
     inkscape:document-units="px"
     showgrid="true"
     inkscape:zoom="3.276916"
     inkscape:cx="50.809969"
     inkscape:cy="82.547127"
     inkscape:window-width="1512"
     inkscape:window-height="945"
     inkscape:window-x="0"
     inkscape:window-y="37"
     inkscape:window-maximized="0"
     inkscape:current-layer="SVGRoot"
     showborder="false">
    <inkscape:grid
       type="xygrid"
       id="grid32609" />
  </sodipodi:namedview>
  <path
     fill="url(#diagonalFill)"
     stroke="#ca9ee6"
     stroke-width="5.05159"
     d="m 40.8213,57.90333 0.18321,-1.648848 0.54961,-1.282433 0.916031,-0.91603 1.28243,-0.549611 1.64885,-0.183207 h 1.50959 l 1.07563,0.03679 1.02046,0.110377 0.96531,0.183965 0.91014,0.257549 0.85499,0.331131 0.79983,0.404718 0.74467,0.478303 0.68951,0.55189 0.63435,0.625471 0.579179,0.699059 0.52402,0.772644 0.46886,0.846225 0.413701,0.919812 0.358549,0.993398 0.303381,1.066985 0.24823,1.140568 0.19306,1.214152 0.1379,1.287743 0.0827,1.361321 0.0276,1.434901 V 68.2075 l 0.1832,1.648843 0.54962,1.282439 0.91602,0.916024 1.28244,0.549621 1.64884,0.183207 h 1.87184 l 1.64885,-0.183207 1.28244,-0.549621 0.91602,-0.916024 0.54961,-1.282439 0.1832,-1.648843 V 29.703638 l -0.1832,-1.648848 -0.54961,-1.282436 -0.91602,-0.916026 -1.28244,-0.549616 -1.64885,-0.183203 h -1.87184 l -1.64884,0.183205 -1.28244,0.549619 -0.91602,0.916021 c -0.551659,0.929931 -0.505277,1.92155 -0.73282,2.931284 0.399423,-2.647795 0.275358,-1.993414 -0.1103,0.304965 l -0.137901,1.287743 -0.19306,1.214153 -0.24823,1.140566 -0.30338,1.066984 -0.35855,0.993399 -0.4137,0.919812 -0.46886,0.846226 -0.52402,0.772644 -0.57918,0.699058 -0.63435,0.625472 -0.68951,0.551889 -0.74467,0.478304 -0.79983,0.404717 -0.85499,0.331132 -0.91014,0.25755 -0.96531,0.183963 -1.02046,0.110378 -1.07563,0.03679 H 45.40143 L 43.75258,41.746181 42.47015,41.19657 41.55412,40.28054 41.00451,38.998106 40.8213,37.349258 V 18.024991 l 0.18321,-1.648848 0.54961,-1.282435 0.91603,-0.916029 1.28243,-0.549616 1.64885,-0.183203 h 21.80863 l 1.548911,0.05976 1.46948,0.179279 1.39004,0.298806 1.31061,0.418325 1.231179,0.537849 1.15177,0.657373 1.07231,0.776893 0.99289,0.896416 0.91346,1.015936 0.83402,1.135461 0.7546,1.254978 0.67516,1.374501 0.59573,1.494028 0.51631,1.613544 0.43686,1.733066 0.35745,1.852591 0.27801,1.972113 0.19858,2.091637 0.11914,2.211156 0.0397,2.330677 v 0 l 0.18321,1.648848 0.54961,1.282434 0.91604,0.916025 1.28243,0.549616 1.64884,0.18321 h 1.87185 l 1.64883,-0.183207 1.282451,-0.549611 0.91602,-0.91603 0.54963,-1.282434 0.1832,-1.648848 V 7.1059209 L 93.945171,5.4570729 93.395551,4.1746398 92.479531,3.2586103 91.197091,2.7089947 89.54825,2.5257928 H 19.9927 10.451748 l -1.6488505,0.1832019 -1.282435,0.5496156 -0.91602,0.9160295 -0.549621,1.2824331 -0.183202,1.648848 v 1.7588079 l 0.183198,1.6488462 0.54962,1.282436 0.91603,0.916028 1.282432,0.549616 1.6488495,0.183203 h 4.245548 l 0.516304,0.01187 0.489826,0.0356 0.463341,0.05935 0.436871,0.08308 0.410396,0.106819 0.383917,0.130554 0.35744,0.154293 0.330962,0.178024 0.304489,0.201771 0.278008,0.225499 0.251532,0.249239 0.225054,0.272978 0.198577,0.296713 0.1721,0.320451 0.145623,0.344189 0.119147,0.367925 0.09267,0.391664 0.0662,0.415399 0.03972,0.439133 0.01323,0.462875 v 63.615437 l -0.01323,0.462876 -0.03972,0.439134 -0.0662,0.415397 -0.09267,0.391661 -0.119147,0.367927 -0.145623,0.344191 -0.1721,0.320448 -0.198577,0.296712 -0.225054,0.272978 -0.251532,0.249242 -0.278008,0.225497 -0.304489,0.201772 -0.330962,0.178027 -0.35744,0.154292 -0.383917,0.130557 -0.410396,0.106812 -0.436871,0.08308 -0.463341,0.05935 -0.489826,0.0356 -0.516304,0.01187 h -4.245548 l -1.6488495,0.183206 -1.282432,0.54961 -0.91603,0.916027 -0.54962,1.282437 -0.183198,1.648852 v 1.758799 l 0.183202,1.648848 0.549621,1.282436 0.91602,0.916024 1.282434,0.549623 1.6488515,0.183201 h 9.540952 20.828601 11.06012 l 1.64886,-0.183201 1.28243,-0.549623 0.91602,-0.916024 0.54963,-1.282436 0.1832,-1.648848 v -1.758802 l -0.1832,-1.648852 -0.54963,-1.282437 -0.91602,-0.916027 -1.28244,-0.54961 -1.64885,-0.183206 h -5.76472 l -0.5163,-0.01187 -0.48983,-0.0356 -0.46334,-0.05935 -0.43687,-0.08308 -0.41039,-0.106812 -0.38392,-0.130557 -0.35744,-0.154292 -0.33096,-0.178027 -0.30449,-0.201772 -0.27801,-0.225497 -0.25153,-0.249242 -0.22506,-0.272978 -0.19858,-0.296711 -0.17209,-0.320448 -0.14563,-0.344191 -0.11915,-0.367927 -0.0926,-0.391661 -0.0662,-0.415397 -0.0397,-0.439134 -0.0132,-0.462876 z"
     id="path9"
     style="fill:url(#pattern1832);stroke-width:5;stroke-linecap:round;stroke-linejoin:round;stroke-dasharray:none"
     sodipodi:nodetypes="ccccccccccccccccccccccccccccccccccccccccccccccccccccccccccccccccccccccccccccccccccccccccccccccccccccccccccccccccccccccccccccccccccccccccccccccccccccccccccccccccccccccccccccccccccccccccccccccccccccccccccccccccccccccccccccccc" />
</svg>
