<?xml version="1.0" encoding="UTF-8"?>
<svg width="16px" height="16px" viewBox="0 0 16 16" version="1.1" xmlns="http://www.w3.org/2000/svg" xmlns:xlink="http://www.w3.org/1999/xlink">
    <title>foxpro</title>
    <g id="foxpro" stroke="none" stroke-width="1" fill="none" fill-rule="evenodd" stroke-linejoin="round">
        <path d="M2,9 C2,10 2.5,9.75 2.5,10.75 C2.16666667,11.25 1.66666667,11.5 1,11.5 L0.75,12 C1.25,12.75 2,13 3,13 C3.66666667,13 4.16666667,12.8333333 4.5,12.5 C5.83333333,13.1666667 6.5,14.1666667 6.5,15.5 C9.75,15.5 12,12.75 12,9 C14,8.33333333 15.1666667,6.83333333 15.5,4.5 C13.6666667,4.33333333 12,4.83333333 10.5,6 C9.25,4.5 8.25,4.25 6.5,4.5 C6.25,3.25 5.25,2.5 4.5,2 C4.5,1.66666667 4.25,1.16666667 3.75,0.5 C2.91666667,1.83333333 2.5,3 2.5,4 C2.5,5 2.83333333,6.16666667 3.5,7.5 C2.5,7.83333333 2,8.33333333 2,9 Z" id="Line-93" stroke="#DF8E1D" stroke-linecap="square"></path>
        <path d="M1,12 C1.27614237,12 1.5,11.7761424 1.5,11.5 C1.5,11.2238576 1.27614237,11 1,11 C0.723857625,11 0.5,11.2238576 0.5,11.5 C0.5,11.7761424 0.723857625,12 1,12 Z M8,10.25 C7.5,10.25 7,10.3333333 6.5,10.5 L8.5,9.5 C8.33333333,9.66666667 8.16666667,9.91666667 8,10.25 Z" id="Combined-Shape" stroke="#4C4F69" stroke-linecap="round"></path>
        <line x1="4.5" y1="8" x2="4.5" y2="10" id="Line-2" stroke="#4C4F69"></line>
    </g>
</svg>