<?xml version="1.0" encoding="UTF-8"?>
<svg width="16px" height="16px" viewBox="0 0 16 16" version="1.1" xmlns="http://www.w3.org/2000/svg" xmlns:xlink="http://www.w3.org/1999/xlink">
    <title>git</title>
    <g id="git" stroke="none" stroke-width="1" fill="none" fill-rule="evenodd">
        <circle id="Oval" stroke="#4C4F69" cx="7.5" cy="10.5" r="1"></circle>
        <circle id="Oval" stroke="#4C4F69" cx="7.5" cy="4.5" r="1"></circle>
        <circle id="Oval" stroke="#4C4F69" cx="10.5" cy="7.5" r="1"></circle>
        <path d="M7.5,5.5 L7.5,9.5 M6.5,3.5 L5.5,2.5 M9.5,6.5 L8.5,5.5" id="Combined-Shape" stroke="#4C4F69" stroke-linecap="square"></path>
        <path d="M3.84314575,2.34314575 L12.1568542,2.34314575 C12.9852814,2.34314575 13.6568542,3.01471863 13.6568542,3.84314575 L13.6568542,12.1568542 C13.6568542,12.9852814 12.9852814,13.6568542 12.1568542,13.6568542 L3.84314575,13.6568542 C3.01471863,13.6568542 2.34314575,12.9852814 2.34314575,12.1568542 L2.34314575,3.84314575 C2.34314575,3.01471863 3.01471863,2.34314575 3.84314575,2.34314575 Z" id="Path" stroke="#FE640B" stroke-linecap="round" stroke-linejoin="round" transform="translate(8, 8) rotate(45) translate(-8, -8)"></path>
    </g>
</svg>