<?xml version="1.0" encoding="UTF-8"?>
<svg width="16px" height="16px" viewBox="0 0 16 16" version="1.1" xmlns="http://www.w3.org/2000/svg" xmlns:xlink="http://www.w3.org/1999/xlink">
    <title>gitbook</title>
    <g id="gitbook" stroke="none" stroke-width="1" fill="none" fill-rule="evenodd" stroke-linecap="square" stroke-linejoin="round">
        <path d="M7.5,12 L13.5,9 M1.5,6.5 L6.5,9.5 L14.5,5.5 L8.5,2.5 L1,6.5 C0.666666667,6.83333333 0.5,7.25 0.5,7.75 C0.5,8.5 0.5,8.75 1,9.25 L5.5,12 M14.5,9.5 C15.0522847,9.5 15.5,9.05228475 15.5,8.5 C15.5,7.94771525 15.0522847,7.5 14.5,7.5 C13.9477153,7.5 13.5,7.94771525 13.5,8.5 C13.5,9.05228475 13.9477153,9.5 14.5,9.5 Z M6.5,13.5 C7.05228475,13.5 7.5,13.0522847 7.5,12.5 C7.5,11.9477153 7.05228475,11.5 6.5,11.5 C5.94771525,11.5 5.5,11.9477153 5.5,12.5 C5.5,13.0522847 5.94771525,13.5 6.5,13.5 Z" id="Combined-Shape" stroke="#04A5E5"></path>
    </g>
</svg>