<?xml version="1.0" encoding="UTF-8" standalone="no"?>
<!-- Created with Inkscape (http://www.inkscape.org/) -->

<svg
   width="100.0px"
   height="100.0px"
   viewBox="0 0 100.0 100.0"
   version="1.1"
   id="SVGRoot"
   sodipodi:docname="gitpod.svg"
   inkscape:version="1.2.1 (9c6d41e410, 2022-07-14)"
   xmlns:inkscape="http://www.inkscape.org/namespaces/inkscape"
   xmlns:sodipodi="http://sodipodi.sourceforge.net/DTD/sodipodi-0.dtd"
   xmlns="http://www.w3.org/2000/svg"
   xmlns:svg="http://www.w3.org/2000/svg">
  <defs
     id="defs8354" />
  <sodipodi:namedview
     id="namedview32486"
     pagecolor="#181825"
     bordercolor="#000000"
     borderopacity="0.24705882"
     inkscape:showpageshadow="2"
     inkscape:pageopacity="0"
     inkscape:pagecheckerboard="0"
     inkscape:deskcolor="#313244"
     inkscape:document-units="px"
     showgrid="true"
     inkscape:zoom="2.1089996"
     inkscape:cx="21.811289"
     inkscape:cy="35.087726"
     inkscape:window-width="1920"
     inkscape:window-height="1017"
     inkscape:window-x="1912"
     inkscape:window-y="-8"
     inkscape:window-maximized="1"
     inkscape:current-layer="SVGRoot"
     showborder="false"
     showguides="false">
    <inkscape:grid
       type="xygrid"
       id="grid32609" />
  </sodipodi:namedview>
  <path
     fill="url(#svgIDa)"
     fill-rule="evenodd"
     d="m 58.047741,7.5179481 a 9.353455,9.353455 0 0 1 -3.45027,12.7194799 l -27.62908,15.87999 a 2.3585802,2.3585802 0 0 0 -1.179292,2.0486 v 24.93356 a 2.3585802,2.3585802 0 0 0 1.179292,2.04858 l 21.87415,12.57124 a 2.3215168,2.3215168 0 0 0 2.32151,0 l 21.87078,-12.56449 a 2.3585802,2.3585802 0 0 0 1.17929,-2.0486 v -15.49924 l -19.66045,11.14598 a 9.235526,9.235526 0 0 1 -12.62514,-3.53787 9.353455,9.353455 0 0 1 3.51765,-12.69928 l 28.13112,-15.96421 a 12.857631,12.857631 0 0 1 19.1719,11.26054 v 27.18095 a 17.763479,17.763479 0 0 1 -8.88848,15.4049 l -25.10878,14.43114 a 17.554575,17.554575 0 0 1 -17.50404,0 L 16.13914,80.394708 A 17.763479,17.763479 0 0 1 7.2506622,64.989808 V 36.275788 A 17.760108,17.760108 0 0 1 16.13914,20.870878 L 45.402371,4.0508281 a 9.2422649,9.2422649 0 0 1 12.64537,3.46712 z"
     id="path12239"
     style="fill:none;stroke:#ffae33;stroke-width:5;stroke-linecap:round;stroke-linejoin:round;stroke-dasharray:none;stroke-opacity:1" />
</svg>
