<?xml version="1.0" encoding="UTF-8"?>
<svg width="16px" height="16px" viewBox="0 0 16 16" version="1.1" xmlns="http://www.w3.org/2000/svg" xmlns:xlink="http://www.w3.org/1999/xlink">
    <title>gitpod</title>
    <g id="gitpod" stroke="none" stroke-width="1" fill="none" fill-rule="evenodd" stroke-linecap="round" stroke-linejoin="round">
        <path d="M8.69920093,3.26880103 L4.678008,5.79361722 C4.56682035,5.86077959 4.4984488,5.98496768 4.498739,6.11923583 L4.498739,10.0835788 C4.49848013,10.2178798 4.56691382,10.3420756 4.67816,10.4091974 L7.82399044,12.4080633 C7.9331903,12.4739502 8.06770294,12.4739502 8.1769028,12.4080633 L11.322277,10.4104694 C11.4335704,10.3433192 11.5020114,10.2190495 11.501698,10.0846918 L11.501698,7.5 L8.69235859,9.39243425 C8.36677825,9.58554691 7.98094224,9.63475802 7.62051509,9.5291416 C7.26008795,9.42352517 6.95489779,9.17182177 6.77270391,8.82991538 C6.39024339,8.11751264 6.62902688,7.21589334 7.30747028,6.8106984 L11.5848411,4.27268576 C12.1915757,3.91504431 12.9344536,3.92192924 13.5350304,4.29075994 C14.1356072,4.65959064 14.5031814,5.33466483 14.5000407,6.06295215 L14.5000407,10.3845535 C14.5009603,11.3949942 13.9856093,12.3289974 13.1485423,12.8338478 L9.33052023,15.1284414 C8.50665681,15.6238529 7.49302001,15.6238529 6.66915659,15.1284414 L2.85143858,12.8333708 C2.01437166,12.3285204 1.49902058,11.3945172 1.49998511,10.3840765 L1.49998511,5.81873819 C1.49892615,4.80827109 2.01430255,3.87422197 2.85143858,3.3694439 L7.30093205,0.695014857 C7.62554407,0.500186508 8.01107335,0.448816957 8.37203814,0.552296153 C8.73300293,0.65577535 9.03957514,0.905552358 9.22377983,1.24624519 C9.6099947,1.95674751 9.37574006,2.85986397 8.69920093,3.26880103 Z" id="Path" stroke="#FE640B"></path>
    </g>
</svg>