<?xml version="1.0" encoding="UTF-8"?>
<svg width="16px" height="16px" viewBox="0 0 16 16" version="1.1" xmlns="http://www.w3.org/2000/svg" xmlns:xlink="http://www.w3.org/1999/xlink">
    <title>go</title>
    <g id="go" stroke="none" stroke-width="1" fill="none" fill-rule="evenodd" stroke-linecap="round" stroke-linejoin="round">
        <path d="M15.4803851,8.06423566 L10.6283587,8.54207652 M15.4803851,8.06423566 C15.5582255,8.93839483 15.4035081,9.81759255 15.0319239,10.612664 C14.3009793,12.1767063 12.7789802,13.3191343 10.9356627,13.4803845 C8.18495403,13.7209934 5.75995388,11.6863707 5.51934497,8.93566205 C5.27856721,6.18495341 7.3133588,3.75995326 10.0640674,3.51934435 C11.5224107,3.39169499 12.8890694,3.90364321 13.8874697,4.82285369 L12.193583,6.66144348 C11.676857,6.18429714 10.9826352,5.94759578 10.2820507,6.00968881 C8.90661193,6.12990884 7.88913171,7.34240892 8.00952059,8.71767881 C8.05851242,9.28763716 8.30232756,9.82332688 8.69994153,10.2346125 C8.95287638,10.496834 9.69344529,11.0636579 10.4826425,11.0469419 C11.2718398,11.030226 12.0579977,10.8038003 12.5540742,10.2376518 C12.5540742,10.2376518 13.3476615,9.28450276 13.2277792,8.36377265" id="Shape" stroke="#209FB5"></path>
        <line x1="2.5" y1="8.5" x2="0.5" y2="8.50640794" id="Path" stroke="#209FB5"></line>
        <line x1="2" y1="10.5064079" x2="3.5" y2="10.5064079" id="Path" stroke="#209FB5"></line>
        <line x1="1.5" y1="6.51922381" x2="3.5" y2="6.5" id="Path" stroke="#209FB5"></line>
    </g>
</svg>