<?xml version="1.0" encoding="UTF-8" standalone="no"?>
<!-- Created with Inkscape (http://www.inkscape.org/) -->

<svg
   width="100.0px"
   height="100.0px"
   viewBox="0 0 100.0 100.0"
   version="1.1"
   id="SVGRoot"
   sodipodi:docname="go.svg"
   inkscape:version="1.2.1 (9c6d41e410, 2022-07-14)"
   xmlns:inkscape="http://www.inkscape.org/namespaces/inkscape"
   xmlns:sodipodi="http://sodipodi.sourceforge.net/DTD/sodipodi-0.dtd"
   xmlns="http://www.w3.org/2000/svg"
   xmlns:svg="http://www.w3.org/2000/svg">
  <defs
     id="defs44872" />
  <sodipodi:namedview
     id="namedview32486"
     pagecolor="#181825"
     bordercolor="#000000"
     borderopacity="0.24705882"
     inkscape:showpageshadow="2"
     inkscape:pageopacity="0"
     inkscape:pagecheckerboard="0"
     inkscape:deskcolor="#313244"
     inkscape:document-units="px"
     showgrid="true"
     inkscape:zoom="2.1089996"
     inkscape:cx="188.00383"
     inkscape:cy="44.570895"
     inkscape:window-width="1920"
     inkscape:window-height="1017"
     inkscape:window-x="1912"
     inkscape:window-y="-8"
     inkscape:window-maximized="1"
     inkscape:current-layer="SVGRoot"
     showborder="false">
    <inkscape:grid
       type="xygrid"
       id="grid32609" />
  </sodipodi:namedview>
  <path
     d="M 97.385862,47.41939 68.649615,50.250737 M 97.385862,47.41939 C 97.855916,52.792096 96.860295,57.954984 94.73003,62.513251 90.401228,71.776198 81.3875,78.542044 70.469285,79.497375 54.178529,80.922346 39.816892,68.871553 38.391631,52.580715 36.966369,36.289874 49.017367,21.928144 65.308127,20.502884 c 8.636608,-0.755623 16.731205,2.276555 22.643717,7.720201 L 77.920272,39.111569 c -2.956051,-2.721843 -7.003545,-4.237909 -11.32165,-3.860095 -8.145586,0.71261 -14.171188,7.893489 -13.458495,16.03891 0.307204,3.512303 1.817303,6.630385 4.088627,8.984034 1.498174,1.552462 5.884022,4.90974 10.558287,4.810742 4.674264,-0.099 9.330426,-1.440228 12.268445,-4.793216 0,0 4.700339,-5.645181 3.989101,-11.098004"
     stroke="#2eb4ff"
     stroke-width="3.34721"
     stroke-linejoin="round"
     id="path51721"
     style="fill:none;stroke:#00b4e0;stroke-width:4.9998;stroke-linecap:round;stroke-dasharray:none;stroke-opacity:1"
     sodipodi:nodetypes="cccsccccccscccc" />
  <path
     d="M 24.837756,50.616267 H 2.4998986 M 20.802989,66.346491 h 9.25051 M 11.582771,34.88604 l 18.470728,0"
     stroke="#2eb4ff"
     stroke-width="3.34721"
     stroke-linecap="round"
     stroke-linejoin="round"
     id="path51723"
     style="fill:none;stroke:#00b4e0;stroke-width:4.9998;stroke-linecap:round;stroke-dasharray:none;stroke-opacity:1"
     sodipodi:nodetypes="cccccc" />
</svg>
