<?xml version="1.0" encoding="UTF-8"?>
<svg width="16px" height="16px" viewBox="0 0 16 16" version="1.1" xmlns="http://www.w3.org/2000/svg" xmlns:xlink="http://www.w3.org/1999/xlink">
    <title>go_mod</title>
    <g id="go_mod" stroke="none" stroke-width="1" fill="none" fill-rule="evenodd">
        <line x1="2.5" y1="8.51281588" x2="0.5" y2="8.51922381" id="Path" stroke="#209FB5" stroke-linecap="round" stroke-linejoin="round"></line>
        <line x1="2" y1="10.5160198" x2="3.5" y2="10.5160198" id="Path" stroke="#209FB5" stroke-linecap="round" stroke-linejoin="round"></line>
        <line x1="1.5" y1="6.51601984" x2="2.5" y2="6.51601984" id="Path" stroke="#209FB5" stroke-linecap="round" stroke-linejoin="round"></line>
        <path d="M9.22901468,4.33089731 C9.38787709,4.01407894 9.4357194,3.64005953 9.33677403,3.27079038 C9.12236131,2.47059122 8.29985588,1.99571749 7.49965672,2.21013021 C6.69945757,2.42454293 6.22458383,3.24704836 6.43899655,4.04724751 C6.53816881,4.41736343 6.76743264,4.71788126 7.0644096,4.91278677" id="Path" stroke="#209FB5"></path>
        <path d="M9.23162777,4.33424042 C9.76424321,4.19152654 10.6905032,3.94333593 12.0104076,3.58966859 L12.7558065,6.37153497" id="Path" stroke="#209FB5" stroke-linecap="round" stroke-linejoin="round"></path>
        <path d="M13.3342987,8.53049722 L14.08096,11.3170752 L6.35355339,13.3876276 L4.28300103,5.66022095 C5.0481188,5.45520826 5.97543483,5.20673469 7.0649491,4.91480022" id="Path" stroke="#209FB5" stroke-linecap="round" stroke-linejoin="round"></path>
        <path d="M13.3384792,8.53505368 C13.655564,8.69441831 14.0300825,8.74251734 14.3998382,8.64344159 C15.2000374,8.42902888 15.6749111,7.60652344 15.4604984,6.80632429 C15.2460857,6.00612513 14.4235802,5.5312514 13.6233811,5.74566411 C13.253872,5.84467377 12.953733,6.07334876 12.7588014,6.36961694" id="Path" stroke="#209FB5"></path>
    </g>
</svg>