<?xml version="1.0" encoding="UTF-8" standalone="no"?>
<!-- Created with Inkscape (http://www.inkscape.org/) -->

<svg
   width="100.0px"
   height="100.0px"
   viewBox="0 0 100.0 100.0"
   version="1.1"
   id="SVGRoot"
   sodipodi:docname="go_mod.svg"
   inkscape:version="1.2.1 (9c6d41e410, 2022-07-14)"
   xmlns:inkscape="http://www.inkscape.org/namespaces/inkscape"
   xmlns:sodipodi="http://sodipodi.sourceforge.net/DTD/sodipodi-0.dtd"
   xmlns="http://www.w3.org/2000/svg"
   xmlns:svg="http://www.w3.org/2000/svg">
  <defs
     id="defs44872" />
  <sodipodi:namedview
     id="namedview32486"
     pagecolor="#181825"
     bordercolor="#000000"
     borderopacity="0.24705882"
     inkscape:showpageshadow="2"
     inkscape:pageopacity="0"
     inkscape:pagecheckerboard="0"
     inkscape:deskcolor="#313244"
     inkscape:document-units="px"
     showgrid="true"
     inkscape:zoom="4.2179991"
     inkscape:cx="-13.513516"
     inkscape:cy="50.497876"
     inkscape:window-width="1920"
     inkscape:window-height="1017"
     inkscape:window-x="1912"
     inkscape:window-y="-8"
     inkscape:window-maximized="1"
     inkscape:current-layer="SVGRoot"
     showborder="false">
    <inkscape:grid
       type="xygrid"
       id="grid32609" />
  </sodipodi:namedview>
  <path
     d="M 24.837757,50.000002 H 2.4999001 M 20.80299,65.730226 H 30.0535 M 11.582772,34.269775 H 30.0535"
     stroke="#2eb4ff"
     stroke-width="3.34721"
     stroke-linecap="round"
     stroke-linejoin="round"
     id="path51723-4"
     style="fill:none;stroke:#00b4e0;stroke-width:4.9998;stroke-linecap:round;stroke-dasharray:none;stroke-opacity:1"
     sodipodi:nodetypes="cccccc" />
  <path
     fill="currentColor"
     d="m 62.481696,82.181278 c 1.213254,0.257455 2.454733,0.02907 3.495684,-0.644962 L 97.620642,60.972533 c 2.142942,-1.400097 2.755518,-4.286839 1.368766,-6.431946 L 91.45579,42.95082 c -0.465143,-0.715649 -1.341409,-1.048581 -2.166093,-0.818557 -0.82171,0.229594 -1.400036,0.966734 -1.429127,1.819485 -0.01855,0.568073 -0.06774,1.016595 -0.151784,1.412664 -0.888304,4.186108 -5.033421,6.94024 -9.221445,6.051529 -4.19185,-0.889522 -6.514883,-5.016153 -5.626578,-9.202263 0.889522,-4.191849 4.673637,-6.950533 8.865487,-6.061011 0.392299,0.08325 0.81991,0.220985 1.346765,0.433774 0.79708,0.329129 1.699603,0.09069 2.243123,-0.56697 0.543914,-0.659511 0.5967,-1.596225 0.131616,-2.311862 L 78.424399,22.898063 C 77.062194,20.812159 74.07513,20.182296 71.99253,21.529217 l -7.913416,5.146129 c -0.46386,-4.524037 -3.788042,-8.442213 -8.467873,-9.435286 -5.802245,-1.231252 -11.525488,2.48982 -12.757123,8.293864 -0.993072,4.679832 1.235513,9.308374 5.183609,11.568044 l -7.68562,4.991501 c -2.146767,1.399285 -2.759342,4.286026 -1.367323,6.434311 l 20.561522,31.639784 c 0.680466,1.043317 1.722119,1.756314 2.935315,2.013759 z m 28.140721,-33.333841 5.083981,7.820233 c 0.218949,0.339436 0.120666,0.802597 -0.221799,1.026899 L 63.851263,78.253461 c -0.443418,0.284871 -0.732309,0.227647 -1.02688,-0.221893 L 42.26759,46.397773 c -0.220509,-0.341766 -0.12305,-0.801043 0.219504,-1.025246 l 11.155534,-7.244909 c 0.698244,-0.453797 1.033899,-1.300488 0.834297,-2.107756 -0.199598,-0.807288 -0.879617,-1.40563 -1.718831,-1.479661 l -0.299751,-0.02461 c -0.165416,-0.0121 -0.331905,-0.01943 -0.500305,-0.05518 -3.692388,-0.783535 -6.058911,-4.422499 -5.275794,-8.112916 0.783953,-3.69436 4.425163,-6.062325 8.11755,-5.27879 3.690475,0.783129 6.056197,4.425863 5.27226,8.120144 -0.03249,0.153094 -0.08809,0.2973 -0.140999,0.442978 l -0.113627,0.332857 a 1.956445,1.956445 0 0 0 0.668492,2.159676 c 0.65354,0.50165 1.561667,0.538372 2.256236,0.08775 l 11.378135,-7.398652 c 0.443418,-0.284873 0.732247,-0.227643 1.026878,0.221891 l 4.57547,7.040387 c -5.241994,0.176521 -9.552742,3.970348 -10.689365,9.326655 -1.336415,6.297823 2.341224,12.503746 8.642875,13.840973 5.354591,1.135287 10.658761,-1.68083 12.946149,-6.395977 z"
     id="path59853"
     style="display:none;fill:#000000;fill-opacity:1;stroke:none;stroke-width:0.0611332;stroke-opacity:1" />
  <path
     id="rect61072"
     style="fill:none;stroke:#00b4e0;stroke-width:4.56461;stroke-linecap:round;stroke-linejoin:round;paint-order:fill markers stroke"
     transform="rotate(57.743262)"
     d="m 58.942419,-35.069851 -0.02361,-11.891487 c 0,-2.77 2.230004,-5.00479 5,-5 l 9.018772,0.0156 m 13.22667,0.03347 11.065555,-0.04907 c 2.769973,-0.01228 5.000004,2.23 5.000004,5 v 32.698826 c 0,2.77 -2.230004,4.9999998 -5.000004,4.9999998 H 63.918804 c -2.77,0 -5,-2.2299998 -5,-4.9999998 l -0.147255,-10.918219"
     sodipodi:nodetypes="ccsccssssscc" />
  <path
     style="fill:none;fill-opacity:1;stroke:#00b4e0;stroke-width:5;stroke-linecap:round;stroke-linejoin:round;stroke-dasharray:none;stroke-opacity:1;paint-order:fill markers stroke"
     id="path61126"
     sodipodi:type="arc"
     sodipodi:cx="53.225807"
     sodipodi:cy="27.912115"
     sodipodi:rx="8.2981968"
     sodipodi:ry="8.2143764"
     sodipodi:start="1.6536416"
     sodipodi:end="0.37493924"
     sodipodi:arc-type="arc"
     d="m 52.539127,36.098319 a 8.2981968,8.2143764 0 0 1 -7.379885,-6.258926 8.2981968,8.2143764 0 0 1 3.68327,-8.902154 8.2981968,8.2143764 0 0 1 9.694884,0.663768 8.2981968,8.2143764 0 0 1 2.410131,9.319344"
     sodipodi:open="true" />
  <path
     style="display:none;fill:none;fill-opacity:1;stroke:#00b4e0;stroke-width:5;stroke-linecap:round;stroke-linejoin:round;stroke-dasharray:none;stroke-opacity:1;paint-order:fill markers stroke"
     id="path61129"
     sodipodi:type="arc"
     sodipodi:cx="80.369858"
     sodipodi:cy="43.385498"
     sodipodi:rx="9.3646297"
     sodipodi:ry="9.3646297"
     sodipodi:start="0.19275977"
     sodipodi:end="4.9815586"
     sodipodi:arc-type="arc"
     d="m 89.561048,45.179464 a 9.3646297,9.3646297 0 0 1 -7.506935,7.41796 9.3646297,9.3646297 0 0 1 -9.646053,-4.281807 9.3646297,9.3646297 0 0 1 0.465967,-10.54339 9.3646297,9.3646297 0 0 1 9.986177,-3.414158"
     sodipodi:open="true" />
  <path
     style="fill:none;fill-opacity:1;stroke:#00b4e0;stroke-width:5;stroke-linecap:round;stroke-linejoin:round;stroke-dasharray:none;stroke-opacity:1;paint-order:fill markers stroke"
     id="path61866"
     sodipodi:type="arc"
     sodipodi:cx="81.745613"
     sodipodi:cy="42.538734"
     sodipodi:rx="8.2981968"
     sodipodi:ry="8.2143764"
     sodipodi:start="0.32543506"
     sodipodi:end="4.841263"
     sodipodi:arc-type="arc"
     d="m 89.608252,45.165043 a 8.2981968,8.2143764 0 0 1 -9.99526,5.312163 8.2981968,8.2143764 0 0 1 -6.009278,-9.525262 8.2981968,8.2143764 0 0 1 9.208363,-6.559466"
     sodipodi:open="true" />
</svg>
