<?xml version="1.0" encoding="UTF-8" standalone="no"?>
<!-- Created with Inkscape (http://www.inkscape.org/) -->

<svg
   width="100.0px"
   height="100.0px"
   viewBox="0 0 100.0 100.0"
   version="1.1"
   id="SVGRoot"
   sodipodi:docname="go_mod.svg"
   inkscape:version="1.2.1 (9c6d41e410, 2022-07-14)"
   xmlns:inkscape="http://www.inkscape.org/namespaces/inkscape"
   xmlns:sodipodi="http://sodipodi.sourceforge.net/DTD/sodipodi-0.dtd"
   xmlns="http://www.w3.org/2000/svg"
   xmlns:svg="http://www.w3.org/2000/svg">
  <defs
     id="defs44872" />
  <sodipodi:namedview
     id="namedview32486"
     pagecolor="#181825"
     bordercolor="#000000"
     borderopacity="0.24705882"
     inkscape:showpageshadow="2"
     inkscape:pageopacity="0"
     inkscape:pagecheckerboard="0"
     inkscape:deskcolor="#313244"
     inkscape:document-units="px"
     showgrid="true"
     inkscape:zoom="4.2179991"
     inkscape:cx="-13.513516"
     inkscape:cy="50.497876"
     inkscape:window-width="1920"
     inkscape:window-height="1017"
     inkscape:window-x="1912"
     inkscape:window-y="-8"
     inkscape:window-maximized="1"
     inkscape:current-layer="SVGRoot"
     showborder="false">
    <inkscape:grid
       type="xygrid"
       id="grid32609" />
  </sodipodi:namedview>
  <path
     d="M 24.837757,50.000002 H 2.4999001 M 20.80299,65.730226 H 30.0535 M 11.582772,34.269775 H 30.0535"
     stroke="#2eb4ff"
     stroke-width="3.34721"
     stroke-linecap="round"
     stroke-linejoin="round"
     id="path51723-4"
     style="fill:none;stroke:#00b4e0;stroke-width:4.9998;stroke-linecap:round;stroke-dasharray:none;stroke-opacity:1"
     sodipodi:nodetypes="cccccc" />
  <path
     id="path61866"
     style="fill:none;stroke:#00b4e0;stroke-width:5;stroke-linecap:round;stroke-linejoin:round;paint-order:fill markers stroke"
     d="m 89.608252,45.165043 a 8.2981968,8.2143764 0 0 1 -9.99526,5.312163 8.2981968,8.2143764 0 0 1 -6.009278,-9.525262 8.2981968,8.2143764 0 0 1 9.208363,-6.559466 m -30.27295,1.705841 a 8.2981968,8.2143764 0 0 1 -7.379885,-6.258926 8.2981968,8.2143764 0 0 1 3.68327,-8.902154 8.2981968,8.2143764 0 0 1 9.694884,0.663768 8.2981968,8.2143764 0 0 1 2.410131,9.319344 m 0.168213,0.207924 10.043614,-6.366619 c 2.342493,-1.478388 5.422561,-0.78529 6.896895,1.559756 l 4.800253,7.635186 m 7.030954,11.203196 5.947338,9.331564 c 1.488758,2.335915 0.782739,5.418511 -1.559753,6.896899 l -27.652255,17.45182 c -2.342492,1.478387 -5.41851,0.782733 -6.896897,-1.559759 L 41.947342,49.110367 c -1.478388,-2.342492 -0.782737,-5.418507 1.559755,-6.896895 l 9.154564,-5.951734" />
</svg>
