<?xml version="1.0" encoding="UTF-8"?>
<svg width="16px" height="16px" viewBox="0 0 16 16" version="1.1" xmlns="http://www.w3.org/2000/svg" xmlns:xlink="http://www.w3.org/1999/xlink">
    <title>godot_assets</title>
    <g id="godot_assets" stroke="none" stroke-width="1" fill="none" fill-rule="evenodd" stroke-linecap="round">
        <path d="M1.5,11 L4,11.5 L4.25,12.5 L6.25,12.5 L6.75,11.5 L9.25,11.5 L9.75,12.5 L11.75,12.5 L12,11.5 L14.5,11 M1.5,12.25 C1.5,14.5 4.24067478,15.5 7.99533739,15.5 C11.75,15.5 14.5,14.5 14.5,12.25 L14.5,7.25 L15.75,6 L14.5,4 L13,5.25 L11.5,4 L12,2.5 L9.5,1.5 L8.75,3 L7.25,3 L6.5,1.5 L4,2.5 L4.5,4 L3,5.25 L1.5,4 L0.25,6 L1.5,7.25 L1.5,12.25 Z M8,7.5 L8,9.5 M4.5,9.5 C5.05228475,9.5 5.5,9.05228475 5.5,8.5 C5.5,7.94771525 5.05228475,7.5 4.5,7.5 C3.94771525,7.5 3.5,7.94771525 3.5,8.5 C3.5,9.05228475 3.94771525,9.5 4.5,9.5 Z M11.5,9.5 C12.0522847,9.5 12.5,9.05228475 12.5,8.5 C12.5,7.94771525 12.0522847,7.5 11.5,7.5 C10.9477153,7.5 10.5,7.94771525 10.5,8.5 C10.5,9.05228475 10.9477153,9.5 11.5,9.5 Z" id="Combined-Shape" stroke="#40A02B"></path>
    </g>
</svg>