<svg clip-rule="evenodd" fill-rule="evenodd" height="100" stroke-linecap="round" width="100" xmlns="http://www.w3.org/2000/svg"><path d="m8.914 66.488 16.697 1.712.679 7.22 14.978 1.109 1.289-7.022h14.889l1.288 7.022 14.979-1.109.678-7.22 16.692-1.711" fill="none" stroke="#fff" stroke-width="5"/><path d="m49.941 14.18c.024-.002.049-.002.075-.002h.042c1.021.012 2.041.057 3.059.154 1.128-2.402 2.379-4.811 3.723-7.069l.908-1.527 1.734.385c4.22.938 8.389 2.251 12.301 4.219l1.391.7-.041 1.557c-.074 2.839-.24 5.577-.553 8.33 1.095.665 2.193 1.326 3.215 2.143.923.709 1.855 1.402 2.748 2.149 2.084-1.311 4.254-2.547 6.475-3.665l1.647-.829 1.255 1.351c3.042 3.274 5.883 6.811 8.205 10.765l.75 1.276-.778 1.259c-1.59 2.569-3.242 4.99-5.011 7.296-.001 4.938-.004 28.404-.004 28.678 0 6.26-3.103 11.261-8.492 14.964-7.326 5.035-19.142 7.613-32.559 7.66h-.065c-13.413-.047-25.231-2.625-32.558-7.66-5.391-3.703-8.494-8.704-8.494-14.964v-28.681c-1.77-2.305-3.423-4.727-5.011-7.296l-.779-1.259.75-1.276c2.323-3.954 5.163-7.49 8.204-10.764l1.255-1.351 1.648.829c2.221 1.118 4.391 2.354 6.475 3.665.897-.749 1.832-1.445 2.751-2.151 1.014-.812 2.114-1.475 3.213-2.142-.313-2.752-.48-5.491-.554-8.329l-.04-1.557 1.391-.7c3.881-1.953 12.196-4.192 12.196-4.192l1.793-.479.95 1.594c1.345 2.259 2.596 4.668 3.724 7.071 1.018-.097 2.038-.142 3.061-.154z" fill="none" stroke="#5b89bc" stroke-linecap="butt" stroke-width="5"/><g fill="#fff"><path d="m50.285 60.654c-1.367 0-2.475-1.124-2.475-2.509v-7.896c0-1.384 1.108-2.509 2.475-2.509 1.368 0 2.478 1.125 2.478 2.509v7.896c0 1.385-1.11 2.509-2.478 2.509" fill-rule="nonzero"/><path d="m60.183 51.248c0-5.563 4.51-10.071 10.076-10.071 5.562 0 10.074 4.508 10.074 10.071 0 5.567-4.512 10.077-10.074 10.077-5.565 0-10.076-4.51-10.076-10.077zm9.249-3.734c-2.348 0-4.25 1.906-4.25 4.254 0 2.347 1.902 4.25 4.25 4.25 2.35 0 4.253-1.902 4.253-4.25 0-2.349-1.903-4.254-4.253-4.254z"/><path d="m40.39 51.248c0-5.563-4.51-10.071-10.076-10.071-5.563 0-10.074 4.508-10.074 10.071 0 5.567 4.512 10.077 10.074 10.077 5.565 0 10.076-4.51 10.076-10.077zm-9.249-3.734c2.348 0 4.25 1.906 4.25 4.254 0 2.347-1.902 4.25-4.25 4.25-2.35 0-4.253-1.902-4.253-4.25 0-2.349 1.903-4.254 4.253-4.254z"/></g></svg>