<?xml version="1.0" encoding="UTF-8" standalone="no"?>
<!-- Created with Inkscape (http://www.inkscape.org/) -->

<svg
   width="100.0px"
   height="100.0px"
   viewBox="0 0 100.0 100.0"
   version="1.1"
   id="SVGRoot"
   sodipodi:docname="gradle.svg"
   inkscape:version="1.2.1 (9c6d41e, 2022-07-14)"
   xmlns:inkscape="http://www.inkscape.org/namespaces/inkscape"
   xmlns:sodipodi="http://sodipodi.sourceforge.net/DTD/sodipodi-0.dtd"
   xmlns="http://www.w3.org/2000/svg"
   xmlns:svg="http://www.w3.org/2000/svg">
  <defs
     id="defs8354" />
  <sodipodi:namedview
     id="namedview32486"
     pagecolor="#181825"
     bordercolor="#000000"
     borderopacity="0.24705882"
     inkscape:showpageshadow="2"
     inkscape:pageopacity="0"
     inkscape:pagecheckerboard="0"
     inkscape:deskcolor="#313244"
     inkscape:document-units="px"
     showgrid="true"
     inkscape:zoom="0.54392678"
     inkscape:cx="-225.21413"
     inkscape:cy="-157.19027"
     inkscape:window-width="1414"
     inkscape:window-height="685"
     inkscape:window-x="0"
     inkscape:window-y="38"
     inkscape:window-maximized="0"
     inkscape:current-layer="SVGRoot"
     showborder="false"
     showguides="false">
    <inkscape:grid
       type="xygrid"
       id="grid32609" />
  </sodipodi:namedview>
  <path
     d="m 45.0866,42.592081 -10.69818,7.625168 c -1.33726,1.016734 -4.73776,2.173214 -7.64154,-1.3344 C 23.8431,45.375291 21.33412,40.177436 20.44255,38.016946 M 71.72679,17.645334 c 3.43844,-1.715667 25.78551,-9.2491505 25.78551,13.8902 0,15.586501 -10.08998,20.864178 -17.4652,27.26005 -4.77648,4.141657 -8.59722,7.05329 -8.59722,24.591193 h -9.55185 c 0,-8.578167 -16.81137,-14.678457 -20.059,0.762355 h -8.40574 c 0,-8.578167 -16.81143,-14.678122 -20.05911,0.762915 H 3.8222102 C 1.1476502,74.427433 0.72733018,50.369776 20.44255,38.016946 c -0.95518,-1.652122 -1.75757,-5.413835 2.67457,-7.243935 5.54014,-2.28751 23.87997,-8.959568 41.26473,0.762523 17.38447,9.722147 32.140714,1.50684 32.945114,-1.015656"
     stroke="#00f3c8"
     stroke-width="4.50661"
     stroke-linecap="round"
     stroke-linejoin="round"
     id="path28112"
     style="fill:none;stroke:#2bb5c6;stroke-width:4.975;stroke-dasharray:none;stroke-opacity:1"
     sodipodi:nodetypes="cccccsccccccccccc" />
</svg>
