<?xml version="1.0" encoding="UTF-8"?>
<svg width="16px" height="16px" viewBox="0 0 16 16" version="1.1" xmlns="http://www.w3.org/2000/svg" xmlns:xlink="http://www.w3.org/1999/xlink">
    <title>gradle</title>
    <g id="gradle" stroke="none" stroke-width="1" fill="none" fill-rule="evenodd" stroke-linecap="round" stroke-linejoin="round">
        <path d="M7.5,7.5 L5.53448952,8.28127472 C5.3234147,8.43424903 4.78664998,8.60813133 4.32818977,8.08061816 C3.86972956,7.55295457 3.47362878,6.77108588 3.33296485,6.4461847" id="Path" stroke="#209FB5"></path>
        <path d="M11.4292712,2.981885 C11.972035,2.5 15.5,1.59067606 15.5,5.07118 C15.5,7.41573313 13.9070718,8.6096355 12.742766,9.57155359 C11.9887694,10.1945817 11.3855406,10.8619829 11.3855406,13.5 L9.87754752,13.5 C9.87754752,12.2097211 7.22356177,11.1774078 6.7107936,13.5 L5.38372179,13.5 C5.38372179,12.2097211 2.72973604,11.1774078 2.21696787,13.5 L0.708974772,13.5 C0.286825114,11.9228755 0.220361013,8.30428856 3.33280698,6.4461847 C3.18203924,6.19769546 3.05542592,5.4318255 3.75511451,5.156562 C4.62972524,4.81255783 7.52509724,3.80882442 10.2697015,5.271331 C13.0141479,6.73368717 15.3437067,6.19785905 15.4707937,5.81850683" id="Path" stroke="#209FB5"></path>
    </g>
</svg>