<?xml version="1.0" encoding="UTF-8"?>
<svg width="16px" height="16px" viewBox="0 0 16 16" version="1.1" xmlns="http://www.w3.org/2000/svg" xmlns:xlink="http://www.w3.org/1999/xlink">
    <title>groovy</title>
    <g id="groovy" stroke="none" stroke-width="1" fill="none" fill-rule="evenodd" stroke-linecap="round" stroke-linejoin="round">
        <path d="M11.6832087,5.38161177 C12.0745341,5.56507259 12.2169143,6.06339184 13.2134288,8.63418477 C14.2097965,11.2045645 12.2881044,12.69966 12.2881044,12.69966 C12.2881044,12.69966 5.56247528,15.1650869 5.56247528,14.3257399 C5.38472022,13.4077471 3.64107667,12.2536794 3.64107667,12.2536794 C3.64107667,12.2536794 3.1185267,11.6245135 3.69876266,11.4995893 C9.58625681,10.2305143 10.6619571,10.8901427 11,9.5" id="Path" stroke="#209FB5"></path>
        <path d="M7.37745571,10.627324 C2.62048961,10.8807534 2.47634802,8.08366458 2.50203516,8.00433017 C3.59322518,4.60341835 9.2397005,0.913817433 10.7935527,1.5782431 C14.0809204,3.03986939 9.21447094,8.95816233 7,8.5 C2.9814457,7.66858235 8.5,4.5 8.5,4.5" id="Path" stroke="#209FB5"></path>
    </g>
</svg>