<?xml version="1.0" encoding="UTF-8" standalone="no"?>
<!-- Created with Inkscape (http://www.inkscape.org/) -->

<svg
   width="100.0px"
   height="100.0px"
   viewBox="0 0 100.0 100.0"
   version="1.1"
   id="SVGRoot"
   sodipodi:docname="groovy.svg"
   inkscape:version="1.2.1 (9c6d41e410, 2022-07-14)"
   xmlns:inkscape="http://www.inkscape.org/namespaces/inkscape"
   xmlns:sodipodi="http://sodipodi.sourceforge.net/DTD/sodipodi-0.dtd"
   xmlns="http://www.w3.org/2000/svg"
   xmlns:svg="http://www.w3.org/2000/svg">
  <defs
     id="defs44872" />
  <sodipodi:namedview
     id="namedview32486"
     pagecolor="#181825"
     bordercolor="#000000"
     borderopacity="0.24705882"
     inkscape:showpageshadow="2"
     inkscape:pageopacity="0"
     inkscape:pagecheckerboard="0"
     inkscape:deskcolor="#313244"
     inkscape:document-units="px"
     showgrid="true"
     inkscape:zoom="1.0544998"
     inkscape:cx="0.94831693"
     inkscape:cy="26.552874"
     inkscape:window-width="1920"
     inkscape:window-height="1017"
     inkscape:window-x="1912"
     inkscape:window-y="-8"
     inkscape:window-maximized="1"
     inkscape:current-layer="SVGRoot"
     showborder="false">
    <inkscape:grid
       type="xygrid"
       id="grid32609" />
  </sodipodi:namedview>
  <path
     fill="none"
     stroke="#4298b8"
     stroke-linecap="round"
     stroke-linejoin="round"
     stroke-width="5.53046"
     d="m 75.104326,31.023542 c 2.66568,1.33284 3.63572,4.95087 10.42491,23.615055 6.78808,18.661976 -6.30472,29.517159 -6.30472,29.517159 0,0 -45.81874,17.900984 -45.81874,11.80642 -1.21227,-6.665307 -13.0917,-15.04395 -13.0917,-15.04395 0,0 -3.5594,-4.568158 0.39377,-5.475153 40.1102,-9.213743 47.24559,-13.378177 49.54848,-23.471262 M 45.768566,69.109593 C 13.362296,70.950129 12.381186,50.642289 12.554846,50.066015 19.988886,25.373632 58.456536,-1.4147983 69.042936,3.4099717 91.439076,14.021812 57.848186,61.349255 42.617306,58.827366 6.3319764,52.819077 56.921286,14.455402 56.921286,14.455402 c 14.62695,-8.9505003 -1.29413,27.803819 -7.51589,28.756164"
     paint-order="fill markers stroke"
     id="path69499"
     style="stroke-width:5;stroke-dasharray:none" />
</svg>
