<?xml version="1.0" encoding="UTF-8" standalone="no"?>
<!-- Created with Inkscape (http://www.inkscape.org/) -->

<svg
   width="100.0px"
   height="100.0px"
   viewBox="0 0 100.0 100.0"
   version="1.1"
   id="SVGRoot"
   sodipodi:docname="h.svg"
   inkscape:version="1.2.1 (9c6d41e, 2022-07-14)"
   xmlns:inkscape="http://www.inkscape.org/namespaces/inkscape"
   xmlns:sodipodi="http://sodipodi.sourceforge.net/DTD/sodipodi-0.dtd"
   xmlns="http://www.w3.org/2000/svg"
   xmlns:svg="http://www.w3.org/2000/svg">
  <sodipodi:namedview
     id="namedview32486"
     pagecolor="#181825"
     bordercolor="#000000"
     borderopacity="0.24705882"
     inkscape:showpageshadow="2"
     inkscape:pageopacity="0"
     inkscape:pagecheckerboard="0"
     inkscape:deskcolor="#313244"
     inkscape:document-units="px"
     showgrid="true"
     inkscape:zoom="4.9303806"
     inkscape:cx="45.02695"
     inkscape:cy="50.300376"
     inkscape:window-width="1432"
     inkscape:window-height="760"
     inkscape:window-x="0"
     inkscape:window-y="38"
     inkscape:window-maximized="0"
     inkscape:current-layer="SVGRoot"
     showborder="false">
    <inkscape:grid
       type="xygrid"
       id="grid32609" />
  </sodipodi:namedview>
  <path
     d="M 27.132754,23.58382 H 39.328271 V 43.55083 H 59.028716 V 23.58382 H 71.224233 V 75.878445 H 59.028716 V 55.911367 H 39.328271 V 75.878445 H 27.132754 Z"
     fill="#d6e0e3"
     id="path126529"
     style="display:none;stroke-width:0.67742" />
  <path
     d="m 52.746598,3.445654 36.197237,20.898502 c 0.570388,0.329429 1.066937,0.751936 1.474742,1.242184 0.810194,0.97291 1.272194,2.211301 1.272194,3.515266 v 20.898529 20.898598 c 0,1.014098 -0.279096,1.987549 -0.784451,2.828227 -0.472162,0.786484 -1.140775,1.45442 -1.962485,1.929291 L 52.746598,96.554644 c -0.84989,0.490452 -1.797736,0.735678 -2.746666,0.735678 -0.948996,0 -1.896774,-0.245226 -2.746732,-0.735678 L 11.055915,75.656251 C 10.234225,75.18138 9.5655445,74.513444 9.0932745,73.72696 8.5884005,72.886282 8.3092285,71.912831 8.3092285,70.898733 V 50.000135 29.101606 c 0,-1.96262 1.047034,-3.77614 2.7466935,-4.75745 L 47.253199,3.445654 c 0.849959,-0.490702 1.797737,-0.735976 2.746733,-0.735976 0.948929,0 1.896776,0.245274 2.746666,0.735976 z"
     stroke="#b339ec"
     stroke-width="5.41936"
     id="path126531"
     style="fill:none;stroke-width:5;stroke-dasharray:none;stroke:#808080;stroke-opacity:1" />
  <path
     id="path128556"
     style="fill:none;fill-opacity:1;stroke:#ffffff;stroke-width:5;stroke-linecap:round;stroke-linejoin:round;stroke-dasharray:none;stroke-opacity:1"
     d="M 34.2379,50.296002 H 65.466099 M 66.058102,26.319849 V 73.680151 M 33.941898,26.319849 v 47.360302" />
</svg>
