<svg clip-rule="evenodd" fill-rule="evenodd" stroke-linecap="square" stroke-linejoin="round" stroke-miterlimit="1.5" viewBox="0 0 100 100" xmlns="http://www.w3.org/2000/svg"><g fill="none"><path d="m0 0h100v100h-100z"/><path d="m53.979 58.763s11.039 6.655 16.202 7.685c5.164 1.031 9.679 4.984 16.067-1.658 6.885-7.159 7.45-7.914 1.785-12.028-5.666-4.114-13.929-13.268-14.413-16.267" stroke="#808080" stroke-width="10"/><g stroke-miterlimit="2" stroke-width="10.98" transform="matrix(.911137 0 0 .911137 4.79671 4.36656)"><path d="m45.117 31.214c.721 1.545 2.113 2.671 3.774 3.054 1.66.383 3.405-.02 4.729-1.092 9.107-7.371 26.311-21.296 26.311-21.296l7.55 9.327s-13.204 10.688-23.662 19.152c-8.124 6.576-13.842 15.658-16.259 25.826-3.173 13.344-7.219 30.361-7.219 30.361l-11.675-2.776s3.97-16.697 7.127-29.972c2.468-10.38 1.354-21.289-3.16-30.956-5.467-11.708-12.156-26.035-12.156-26.035l10.873-5.077s8.945 19.158 13.767 29.484z" stroke="#f9e2af" stroke-linecap="butt"/><path d="m81.648 25.929-7.55-9.328z" stroke="#808080"/><path d="m34.272 7.989-10.873 5.077z" stroke="#808080"/></g></g></svg>