<?xml version="1.0" encoding="UTF-8"?>
<svg width="16px" height="16px" viewBox="0 0 16 16" version="1.1" xmlns="http://www.w3.org/2000/svg" xmlns:xlink="http://www.w3.org/1999/xlink">
    <title>haml</title>
    <g id="haml" stroke="none" stroke-width="1" fill="none" fill-rule="evenodd">
        <path d="M7.25,9.25 C7.25,9.25 9.40288,10.46688 10.22896,10.63168 C11.0552,10.79664 11.7776,11.42912 12.79968,10.3664 C13.90128,9.22096 13.99168,9.10016 13.08528,8.44192 C12.17872,7.78368 10.5,6.5 10.5,5.75" id="Path" stroke="#4C4F69"></path>
        <path d="M6.84478454,5.24917183 C6.94982164,5.47435352 7.15271383,5.63861195 7.39482665,5.69447757 C7.63693947,5.75034318 7.89128985,5.69158986 8.08437229,5.5351969 L11.920053,2.43061491 L13.0207101,3.79032736 L9.57120699,6.58235188 C8.38685395,7.54100558 7.55336403,8.86493145 7.20093094,10.3473281 L6.1485278,14.7734276 L4.44651828,14.3687356 L5.48550944,9.99934556 C5.84527713,8.48615934 5.68293144,6.89578806 5.02483706,5.48650558 L3.2527062,1.6910608 L4.83779824,0.950923552 L6.84478454,5.24917183 Z" id="Path" stroke="#DC8A78" stroke-width="0.91114" stroke-linejoin="round"></path>
        <path d="M12.1703614,4.47871185 L11.0697043,3.11885362 L12.1703614,4.47871185 Z M5.26377441,1.86337559 L3.67868238,2.60351284 L5.26377441,1.86337559 Z" id="Combined-Shape" stroke="#4C4F69" stroke-linejoin="round"></path>
    </g>
</svg>