<?xml version="1.0" encoding="UTF-8"?>
<svg width="16px" height="16px" viewBox="0 0 16 16" version="1.1" xmlns="http://www.w3.org/2000/svg" xmlns:xlink="http://www.w3.org/1999/xlink">
    <title>handlebars</title>
    <g id="handlebars" stroke="none" stroke-width="1" fill="none" fill-rule="evenodd" stroke-linecap="round" stroke-linejoin="round">
        <path d="M8.00413755,6.14517971 C7.72049772,5.78173645 7.28958997,5.55002131 6.81780857,5.50724644 C6.34602717,5.46447157 5.87734318,5.61462368 5.52747808,5.92062913 C4.55335805,6.75205679 3.74341021,8.43762456 2.20591697,8.43762456 C1.82005763,8.37969563 1.50018162,8.12053917 1.37669093,7.76580398 C1.25320023,7.41106879 1.34672394,7.02001328 1.61913578,6.75205679 C0.445415245,6.75205679 0.104892361,8.67353137 1.03235459,9.56128594 C2.36807681,10.5658831 4.17417059,10.7819943 5.72707858,10.1230409 C6.62548037,9.76439888 7.41041941,9.1872711 8.00413755,8.44882938 L8.00413755,6.14517971 Z" id="Path" stroke="#FE640B"></path>
        <path d="M8.00255593,6.14517971 C8.28619596,5.78168778 8.71713676,5.54993916 9.18895909,5.50716331 C9.66078142,5.46438746 10.1295026,5.6145719 10.4793736,5.92062913 C11.4416314,6.75205679 12.2631251,8.43762456 13.7889144,8.43762456 C14.1747737,8.37969563 14.4946497,8.12053917 14.6181404,7.76580398 C14.7416311,7.41106879 14.6481074,7.02001328 14.3756955,6.75205679 C15.5495742,6.75205679 15.901643,8.67353137 14.9626349,9.56128594 C13.6268776,10.5659422 11.8207043,10.7820556 10.2677527,10.1230409 C9.36824945,9.77165441 8.58531839,9.19298848 8.00255593,8.44882938 L8.00255593,6.14517971 Z" id="Path" stroke="#FE640B"></path>
    </g>
</svg>