<?xml version="1.0" encoding="UTF-8"?>
<svg width="16px" height="16px" viewBox="0 0 16 16" version="1.1" xmlns="http://www.w3.org/2000/svg" xmlns:xlink="http://www.w3.org/1999/xlink">
    <title>haxe</title>
    <g id="haxe" stroke="none" stroke-width="1" fill="none" fill-rule="evenodd" stroke-linecap="round" stroke-linejoin="round">
        <polygon id="Path" stroke="#FE640B" points="1.50013688 1.5 5 1.5 8.00006844 3.25 11 1.5 14.5 1.5 14.5 5 12.75 7.99993156 14.5 11 14.5 14.4998631 11 14.4998631 8.00006844 12.75 5 14.4998631 1.5 14.4998631 1.5 11 3.25 7.99993156 1.5 5"></polygon>
        <path d="M4.96449386,4.464489 L11.0356057,4.4644059 C11.3117481,4.46439528 11.5356088,4.68824984 11.5356126,4.96439222 C11.5356126,4.9643945 11.5356126,4.96439678 11.5356057,4.96439906 L11.5356057,11.0355637 C11.5356126,11.311706 11.3117549,11.5355637 11.0356126,11.5355637 C11.0356103,11.5355637 11.035608,11.5355637 11.0356057,11.5355568 L4.96449386,11.5354737 C4.68835416,11.5354631 4.4645007,11.3116066 4.46449386,11.0354669 L4.46449386,4.96449584 C4.4645007,4.68835614 4.68835416,4.46449962 4.96449386,4.464489 Z" id="Rectangle" stroke="#FE640B" transform="translate(8, 8) rotate(135) translate(-8, -8)"></path>
    </g>
</svg>