<?xml version="1.0" encoding="UTF-8" standalone="no"?>
<!-- Created with Inkscape (http://www.inkscape.org/) -->

<svg
   width="100.0px"
   height="100.0px"
   viewBox="0 0 100.0 100.0"
   version="1.1"
   id="SVGRoot"
   sodipodi:docname="heroku.svg"
   inkscape:version="1.2.1 (9c6d41e, 2022-07-14)"
   xmlns:inkscape="http://www.inkscape.org/namespaces/inkscape"
   xmlns:sodipodi="http://sodipodi.sourceforge.net/DTD/sodipodi-0.dtd"
   xmlns="http://www.w3.org/2000/svg"
   xmlns:svg="http://www.w3.org/2000/svg">
  <defs
     id="defs8354" />
  <sodipodi:namedview
     id="namedview32486"
     pagecolor="#181825"
     bordercolor="#000000"
     borderopacity="0.24705882"
     inkscape:showpageshadow="2"
     inkscape:pageopacity="0"
     inkscape:pagecheckerboard="0"
     inkscape:deskcolor="#313244"
     inkscape:document-units="px"
     showgrid="true"
     inkscape:zoom="3.8731708"
     inkscape:cx="86.621535"
     inkscape:cy="56.671913"
     inkscape:window-width="1468"
     inkscape:window-height="763"
     inkscape:window-x="0"
     inkscape:window-y="38"
     inkscape:window-maximized="0"
     inkscape:current-layer="SVGRoot"
     showborder="false"
     showguides="false">
    <inkscape:grid
       type="xygrid"
       id="grid32609" />
  </sodipodi:namedview>
  <rect
     style="fill:none;stroke:#430098;stroke-width:5;stroke-linecap:round;stroke-linejoin:round;stroke-dasharray:none;stroke-opacity:1"
     id="rect16880"
     width="85.712753"
     height="95"
     x="7.1436234"
     y="2.5"
     rx="6"
     ry="6" />
  <path
     style="fill:none;stroke:#430098;stroke-width:5;stroke-linecap:round;stroke-linejoin:round;stroke-dasharray:none;stroke-opacity:1"
     d="m 32.375548,17.6895 1.62e-4,33.965797 c 0,0 4.544784,-3.20301 7.066743,-4.33123 2.172485,-0.971879 4.516656,-1.530133 6.838784,-2.051635 2.474538,-0.55573 4.987921,-1.054559 7.522662,-1.139797 1.828963,-0.0615 3.69823,0.002 5.471027,0.455919 1.449976,0.371295 2.869473,0.976305 4.10327,1.823676 0.974396,0.669214 1.829903,1.539006 2.507554,2.507554 0.539264,0.770755 0.953204,1.648315 1.190747,2.558503 0.455036,1.743553 0.337428,3.589982 0.40497,5.390669 0.317874,8.474555 0,25.441544 0,25.441544"
     id="path16936"
     sodipodi:nodetypes="ccaaaaaaaac" />
  <path
     style="fill:none;stroke:#430098;stroke-width:5;stroke-linecap:round;stroke-linejoin:round;stroke-dasharray:none;stroke-opacity:1"
     d="M 32.375548,70.792503 V 82.3105"
     id="path16938"
     sodipodi:nodetypes="cc" />
  <path
     style="fill:none;stroke:#430098;stroke-width:5;stroke-linecap:round;stroke-linejoin:round;stroke-dasharray:none;stroke-opacity:1"
     d="m 66.344089,17.6895 c 0,0 -0.334668,2.263154 -0.681577,3.347885 -0.511198,1.598435 -1.218931,3.139696 -2.044731,4.600645 -0.682324,1.207122 -2.385519,3.407885 -2.385519,3.407885"
     id="path16940"
     sodipodi:nodetypes="caac" />
</svg>
