<?xml version="1.0" encoding="UTF-8"?>
<svg width="16px" height="16px" viewBox="0 0 16 16" version="1.1" xmlns="http://www.w3.org/2000/svg" xmlns:xlink="http://www.w3.org/1999/xlink">
    <title>hjson</title>
    <g id="hjson" stroke="none" stroke-width="1" fill="none" fill-rule="evenodd">
        <path d="M10.9823619,6.06814835 L9.98236191,6.06814835 C9.48236191,6.06814835 8.98236191,6.56814835 8.98236191,7.06814835 L8.98236191,10.5681483 C8.98236191,12.0681483 7.81236191,12.0681483 6.98236191,12.0681483 C7.81236191,12.0681483 8.98236191,12.0681483 8.98236191,13.5681483 L8.98236191,17.0681483 C8.98236191,17.5681483 9.48236191,18.0681483 9.98236191,18.0681483 L10.9823619,18.0681483" id="Path" stroke="#40A02B" transform="translate(8.9824, 12.0681) rotate(-105) translate(-8.9824, -12.0681)"></path>
        <line x1="8.5" y1="10.5" x2="7.3353143" y2="6.15333378" id="Line-96" stroke="#4C4F69"></line>
        <path d="M9,4.5 C9.27614237,4.5 9.5,4.27614237 9.5,4 C9.5,3.72385763 9.27614237,3.5 9,3.5 C8.72385763,3.5 8.5,3.72385763 8.5,4 C8.5,4.27614237 8.72385763,4.5 9,4.5 Z M5.5,4.5 L3.5,3.25 L5.5,3.5 L5.5,4.5 Z" id="Combined-Shape" stroke="#4C4F69" stroke-linejoin="round"></path>
    </g>
</svg>