<?xml version="1.0" encoding="UTF-8"?>
<svg width="16px" height="16px" viewBox="0 0 16 16" version="1.1" xmlns="http://www.w3.org/2000/svg" xmlns:xlink="http://www.w3.org/1999/xlink">
    <title>htaccess</title>
    <g id="htaccess" stroke="none" stroke-width="1" fill="none" fill-rule="evenodd" stroke-linecap="round">
        <path d="M9.5,10.5 L8,10.5 M11.5,8.5 L9.5,8.5" id="Combined-Shape" stroke="#DF8E1D"></path>
        <path d="M6.5,14.5 C6.65916185,13.848448 6.88209593,13.1368046 7.11538462,12.5 C7.31987012,11.941819 7.46412685,11.6131695 7.68632367,11.1464211 C7.84180708,10.8201503 8.0094731,10.4977571 8.1890915,10.1796842 C10.1965158,6.62842105 13.0140996,4.94284211 14.5,4.5 C13.9206447,7.20894737 11.6537109,12.5484211 7.11538462,12.5" id="Path" stroke="#D20F39" stroke-linejoin="round"></path>
        <path d="M13.5,10 C13.5,10.5555556 13.5,11.3888889 13.5,12.5 C13.5,13.6045695 12.6045695,14.5 11.5,14.5 C9.94444444,14.5 8.77777778,14.5 8,14.5 M5,14.5 C4.89203602,14.5 4.72536935,14.5 4.5,14.5 C3.3954305,14.5 2.5,13.6045695 2.5,12.5 L2.5,3.5 C2.5,2.3954305 3.3954305,1.5 4.5,1.5 L8.51049805,1.5 M9.5,6.5 C8.94771525,6.5 8.5,6.05228475 8.5,5.5 L8.5,1.5 L11.5,4.5" id="Combined-Shape" stroke="#4C4F69" stroke-linejoin="round"></path>
    </g>
</svg>