<?xml version="1.0" encoding="UTF-8" standalone="no"?>
<!-- Created with Inkscape (http://www.inkscape.org/) -->

<svg
   width="100.0px"
   height="100.0px"
   viewBox="0 0 100.0 100.0"
   version="1.1"
   id="SVGRoot"
   sodipodi:docname="http.svg"
   inkscape:version="1.2.1 (9c6d41e410, 2022-07-14)"
   xmlns:inkscape="http://www.inkscape.org/namespaces/inkscape"
   xmlns:sodipodi="http://sodipodi.sourceforge.net/DTD/sodipodi-0.dtd"
   xmlns="http://www.w3.org/2000/svg"
   xmlns:svg="http://www.w3.org/2000/svg">
  <defs
     id="defs8354" />
  <sodipodi:namedview
     id="namedview32486"
     pagecolor="#181825"
     bordercolor="#000000"
     borderopacity="0.24705882"
     inkscape:showpageshadow="2"
     inkscape:pageopacity="0"
     inkscape:pagecheckerboard="0"
     inkscape:deskcolor="#313244"
     inkscape:document-units="px"
     showgrid="true"
     inkscape:zoom="3.445"
     inkscape:cx="32.656023"
     inkscape:cy="59.216255"
     inkscape:window-width="1920"
     inkscape:window-height="1017"
     inkscape:window-x="1912"
     inkscape:window-y="-8"
     inkscape:window-maximized="1"
     inkscape:current-layer="SVGRoot"
     showborder="false"
     showguides="false">
    <inkscape:grid
       type="xygrid"
       id="grid32609" />
  </sodipodi:namedview>
  <path
     fill="none"
     stroke="currentColor"
     stroke-miterlimit="10"
     stroke-width="7.14286"
     d="m 50.000001,2.502741 c -26.230821,0 -47.4972624,21.266441 -47.4972624,47.497268 0,26.23081 21.2664414,47.49725 47.4972624,47.49725 26.230819,0 47.49726,-21.26644 47.49726,-47.49725 0,-26.230827 -21.266441,-47.497268 -47.49726,-47.497268 z"
     id="path5169"
     style="stroke-width:5;stroke-dasharray:none;stroke:#93ccea;stroke-opacity:1" />
  <path
     fill="none"
     stroke="currentColor"
     stroke-miterlimit="10"
     stroke-width="7.14286"
     d="m 50.000001,2.502741 c -13.260415,0 -25.728447,21.266441 -25.728447,47.497268 0,26.23081 12.468032,47.49725 25.728447,47.49725 13.260412,0 25.728444,-21.26644 25.728444,-47.49725 0,-26.230827 -12.468032,-47.497268 -25.728444,-47.497268 z"
     id="path5171"
     style="stroke-width:5;stroke-dasharray:none;stroke:#93ccea;stroke-opacity:1" />
  <path
     fill="none"
     stroke="currentColor"
     stroke-linecap="round"
     stroke-linejoin="round"
     stroke-width="7.14286"
     d="m 18.334398,18.3344 c 8.732188,6.199762 19.725064,9.896785 31.665603,9.896785 11.940537,0 22.933412,-3.697023 31.665601,-9.896785 m 0,63.331199 c -8.732189,-6.19975 -19.725064,-9.89678 -31.665601,-9.89678 -11.940539,0 -22.933415,3.69703 -31.665603,9.89678"
     id="path5173"
     style="stroke-width:5;stroke-dasharray:none;stroke:#93ccea;stroke-opacity:1" />
  <path
     fill="none"
     stroke="currentColor"
     stroke-miterlimit="10"
     stroke-width="7.14286"
     d="m 50.000001,2.502741 v 94.994518 m 47.49726,-47.49725 H 2.5027386"
     id="path5175"
     style="stroke-width:5;stroke-dasharray:none;stroke:#93ccea;stroke-opacity:1" />
</svg>
