<?xml version="1.0" encoding="UTF-8"?>
<svg width="16px" height="16px" viewBox="0 0 16 16" version="1.1" xmlns="http://www.w3.org/2000/svg" xmlns:xlink="http://www.w3.org/1999/xlink">
    <title>husky</title>
    <g id="husky" stroke="none" stroke-width="1" fill="none" fill-rule="evenodd">
        <path d="M9.63321521,3.53734825 L10.1055042,2.69823311 C11.0499272,1.01984385 8.59628678,-0.433742679 7.65170881,1.24464658 L7.17957478,2.0839207 C6.23515177,3.76230996 8.6887922,5.21589649 9.63321521,3.53734825 L9.63321521,3.53734825 Z" id="Path" stroke="#4C4F69"></path>
        <path d="M13.7226676,5.95993947 L14.1949565,5.12066535 C15.1393796,3.44243508 12.6857391,1.98884854 11.7411612,3.66723781 L11.2690271,4.50635294 C10.3246041,6.1847422 12.7782446,7.63832873 13.7226676,5.95993947 Z" id="Path" stroke="#4C4F69"></path>
        <path d="M14.0514724,11.1897031 L14.287462,10.7699866 C15.231885,9.09175628 12.7782446,7.63832873 11.8338215,9.31655901 L11.5976771,9.73627556 C10.653254,11.4145058 13.1068945,12.8680924 14.0514724,11.1897031 Z" id="Path" stroke="#4C4F69"></path>
        <path d="M5.29057381,5.44054024 C6.23499682,3.76230996 3.7813564,2.30872343 2.83693339,3.98711269 L2.6007889,4.40682925 C1.65636588,6.08505952 4.11016126,7.53848707 5.05442932,5.86009781 L5.29057381,5.44054024 Z" id="Path" stroke="#4C4F69"></path>
        <path d="M2.57212306,9.02196251 L6.63182493,7.46233395 C7.87685182,6.98379349 9.23809155,7.790317 9.45672664,9.13595371 L10.1702735,13.5229456 C10.400065,14.9345605 8.92447184,15.9849647 7.71570335,15.2689029 C7.55693425,15.17494 7.42169948,15.0442961 7.32073465,14.8873423 L7.11139658,14.5617441 C6.24086556,13.2093146 4.80064295,12.3562261 3.22384467,12.2590264 L2.84452596,12.2356558 C2.66187015,12.2244853 2.48425727,12.1698363 2.32575184,12.0760364 C1.11698336,11.3599745 1.26589074,9.52355558 2.57212306,9.02196251 Z" id="Path" stroke="#4C4F69"></path>
    </g>
</svg>