<?xml version="1.0" encoding="UTF-8"?>
<svg width="16px" height="16px" viewBox="0 0 16 16" version="1.1" xmlns="http://www.w3.org/2000/svg" xmlns:xlink="http://www.w3.org/1999/xlink">
    <title>javascript_react</title>
    <g id="javascript_react" stroke="none" stroke-width="1" fill="none" fill-rule="evenodd">
        <path d="M8,9.04791432 C8.5917035,9.04791432 9.07142857,8.57918633 9.07142857,8.00104687 C9.07142857,7.42290741 8.5917035,6.95417942 8,6.95417942 C7.4082965,6.95417942 6.92857143,7.42290741 6.92857143,8.00104687 C6.92857143,8.57918633 7.4082965,9.04791432 8,9.04791432 Z" id="Path" fill="#04A5E5" fill-rule="nonzero"></path>
        <path d="M8,10.7979607 C12.1421667,10.7979607 15.5,9.54527991 15.5,7.99996765 C15.5,6.45473681 12.1421667,5.20202343 8,5.20202343 C3.85786667,5.20202343 0.5,6.45473681 0.5,7.99996765 C0.5,9.54527991 3.85786667,10.7979607 8,10.7979607 Z" id="Path" stroke="#04A5E5"></path>
        <path d="M5.520025,9.39896419 C7.59108333,12.9038649 10.3803333,15.1188749 11.75,14.3461781 C13.1196667,13.5735627 12.5510833,10.1059533 10.48,6.60097111 C8.40891667,3.09607034 5.61965833,0.881117339 4.25,1.65374904 C2.88035,2.42638889 3.44895833,5.89403899 5.520025,9.39896419 Z" id="Path" stroke="#04A5E5"></path>
        <path d="M5.520025,6.60097111 C3.44895833,10.1059533 2.88035,13.5735627 4.25,14.3462595 C5.61965833,15.1188749 8.40891667,12.9038649 10.48,9.39896419 C12.5510833,5.89404714 13.1196667,2.42638889 11.75,1.65375719 C10.3803333,0.881117339 7.59108333,3.09607849 5.520025,6.60097111 Z" id="Path" stroke="#04A5E5"></path>
    </g>
</svg>