<?xml version="1.0" encoding="UTF-8"?>
<svg width="16px" height="16px" viewBox="0 0 16 16" version="1.1" xmlns="http://www.w3.org/2000/svg" xmlns:xlink="http://www.w3.org/1999/xlink">
    <title>java_jar</title>
    <g id="java_jar" stroke="none" stroke-width="1" fill="none" fill-rule="evenodd" stroke-linecap="round" stroke-linejoin="round">
        <g id="Java" stroke="#8C8FA1">
            <path d="M11.501096,10 C11.501096,11.1493069 11.1546593,12.418004 10.3420024,13.2307125 C9.52934542,14.0434209 8.39930688,14.5 7.25,14.5 L5.75,14.5 C4.60069312,14.5 3.58187324,14.0434922 2.76919055,13.2308095 C1.95650786,12.4181268 1.5,11.1493069 1.5,10 L1.5,7.5 L11.500959,7.5 L11.501096,10 Z" id="Path"></path>
            <path d="M11.500959,7.5 L12.5,7.5 C13.4971766,7.5 14.5,8 14.5,9 C14.5,10 13.4971766,10.5 12.5,10.507471 L11.500959,10.507471" id="Path"></path>
            <path d="M3.5,5.503288 C3.57406392,4.16885867 4.0925799,3.501644 5.05554794,3.501644 C6.01851598,3.501644 6.5,2.83442933 6.5,1.5" id="Path"></path>
            <path d="M7.5,5.503288 C7.57406392,4.16885867 8.0925799,3.501644 9.05554794,3.501644 C10.018516,3.501644 10.5,2.83442933 10.5,1.5" id="Path"></path>
        </g>
    </g>
</svg>