<?xml version="1.0" encoding="UTF-8" standalone="no"?>
<!-- Created with Inkscape (http://www.inkscape.org/) -->

<svg
   width="100.0px"
   height="100.0px"
   viewBox="0 0 100.0 100.0"
   version="1.1"
   id="SVGRoot"
   sodipodi:docname="jsx.svg"
   inkscape:version="1.2.1 (9c6d41e410, 2022-07-14)"
   xmlns:inkscape="http://www.inkscape.org/namespaces/inkscape"
   xmlns:sodipodi="http://sodipodi.sourceforge.net/DTD/sodipodi-0.dtd"
   xmlns="http://www.w3.org/2000/svg"
   xmlns:svg="http://www.w3.org/2000/svg">
  <defs
     id="defs44872" />
  <sodipodi:namedview
     id="namedview32486"
     pagecolor="#181825"
     bordercolor="#000000"
     borderopacity="0.24705882"
     inkscape:showpageshadow="2"
     inkscape:pageopacity="0"
     inkscape:pagecheckerboard="0"
     inkscape:deskcolor="#313244"
     inkscape:document-units="px"
     showgrid="true"
     inkscape:zoom="5.6568544"
     inkscape:cx="43.752231"
     inkscape:cy="46.845823"
     inkscape:window-width="1920"
     inkscape:window-height="1017"
     inkscape:window-x="1912"
     inkscape:window-y="-8"
     inkscape:window-maximized="1"
     inkscape:current-layer="SVGRoot"
     showborder="false">
    <inkscape:grid
       type="xygrid"
       id="grid32609" />
  </sodipodi:namedview>
  <path
     style="fill:none;stroke:#f7df1e;stroke-width:5;stroke-linecap:round;stroke-linejoin:round;stroke-dasharray:none;stroke-opacity:1;paint-order:fill markers stroke"
     d="m 16.666667,3.0619713 66.666668,-0.048889 c 6.547289,-0.00478 13.888886,7.3416027 13.888886,13.8888887 v 66.666667 c 0,6.437318 -7.451565,13.418282 -13.888886,13.418282 H 16.666668 c -6.437323,0 -13.8888889,-6.980964 -13.8888889,-13.418282 V 16.901971 c 0,-6.535772 7.3531209,-13.8352063 13.8888879,-13.8399997 z"
     id="path12607"
     sodipodi:nodetypes="sssssssss" />
  <path
     style="fill:none;stroke:#f7df1e;stroke-width:5;stroke-linecap:round;stroke-linejoin:round;stroke-dasharray:none;stroke-opacity:1;paint-order:fill markers stroke"
     d="m 57.21002,57.430452 c 0,0 -0.0017,-0.06528 -0.654144,-0.654145 -0.652397,-0.588861 -1.333037,-1.003124 -2.016944,-1.308288 -0.683907,-0.305163 -1.313612,-0.433808 -2.016944,-0.54512 -0.703332,-0.111311 -1.03974,-0.05919 -1.853408,-0.01363 -0.813668,0.04556 -1.792863,0.154266 -2.466668,0.490608 -0.673805,0.336342 -1.43526,0.733694 -1.867036,1.144752 -0.431776,0.411058 -0.713189,0.810324 -1.008472,1.321916 -0.295284,0.511592 -0.556753,1.129724 -0.708656,1.689872 -0.151904,0.560148 -0.21512,0.920904 -0.218048,1.63536 -0.003,0.714456 0.08404,1.844606 0.327072,2.616576 0.243024,0.771971 0.627203,1.397048 1.035728,1.962432 0.408524,0.565383 0.900012,1.088748 1.3628,1.417312 0.462787,0.328563 0.688427,0.494657 1.3628,0.81768 0.674373,0.323023 1.744384,0.6814 2.671088,1.144752 0.926704,0.463352 1.990746,0.959997 2.834624,1.417312 0.843878,0.457315 1.630039,0.870055 2.234992,1.308288 0.604953,0.438233 0.986899,0.779207 1.417312,1.253776 0.430414,0.474569 0.853178,1.019306 1.144752,1.580848 0.291575,0.561543 0.482985,0.957093 0.618905,1.725111 0.06796,0.384009 0.09774,0.919604 0.10246,1.445728 0.0047,0.526122 -0.01564,1.042774 -0.04794,1.388897 -0.06462,0.692244 -0.121621,0.758578 -0.291833,1.32756 -0.170212,0.568983 -0.576181,1.480935 -1.010409,2.071457 -0.434229,0.590521 -0.884102,0.978521 -1.497143,1.3628 -0.613041,0.384278 -1.318819,0.722008 -1.962432,0.926704 -0.643614,0.204695 -1.107123,0.253888 -1.853408,0.327072 -0.746285,0.07319 -1.710552,0.141577 -2.616577,0.05451 -0.906024,-0.08706 -1.988631,-0.331352 -2.780112,-0.599632 -0.791481,-0.26828 -1.38437,-0.527949 -1.962432,-0.926704 -0.578066,-0.398755 -0.819871,-0.578232 -1.144756,-0.95396 -0.432128,-0.499754 -1.035728,-1.689872 -1.035728,-1.689872"
     id="path1167"
     sodipodi:nodetypes="czzzzzzzzzzzzzzzzzzssszzzzzzzzac" />
  <path
     style="fill:none;stroke:#f7df1e;stroke-width:5;stroke-linecap:round;stroke-linejoin:round;stroke-dasharray:none;stroke-opacity:1;paint-order:fill markers stroke"
     d="m 32.823577,55.185038 c 0,0 0.05585,15.512143 0,23.474397 -0.0044,0.617921 -0.0069,1.24191 -0.115638,1.850198 -0.07083,0.396147 -0.191255,0.785267 -0.346912,1.156374 -0.113436,0.270449 -0.263461,0.525487 -0.424004,0.770917 -0.230715,0.352708 -0.473222,0.703843 -0.770916,1.002191 -0.252321,0.252875 -0.547214,0.462574 -0.848007,0.655278 -0.537141,0.344121 -1.101706,0.654749 -1.696016,0.886554 -0.508138,0.198195 -1.041349,0.340735 -1.580378,0.424004 -0.571973,0.08836 -1.157183,0.117037 -1.734562,0.07709 -0.423623,-0.02931 -0.846288,-0.108334 -1.252739,-0.231275 -0.561967,-0.169981 -1.117449,-0.388497 -1.618923,-0.693824 -0.362531,-0.22073 -0.680798,-0.511345 -0.982918,-0.809463 -0.311491,-0.307365 -0.577797,-0.657972 -0.848008,-1.00219 -0.107909,-0.137465 -0.308366,-0.424004 -0.308366,-0.424004"
     id="path1169"
     sodipodi:nodetypes="csaaaaaaaaaaaac" />
  <path
     id="path9839"
     style="fill:#9099a3;fill-opacity:1;stroke:#f7df1e;stroke-width:5;stroke-linecap:round;stroke-linejoin:round;stroke-dasharray:none;stroke-opacity:1;paint-order:fill markers stroke"
     d="M 68.348907,85.636974 84.742403,55.73234 m 0,29.904634 L 68.348907,55.73234" />
</svg>
