<?xml version="1.0" encoding="UTF-8"?>
<svg width="16px" height="16px" viewBox="0 0 16 16" version="1.1" xmlns="http://www.w3.org/2000/svg" xmlns:xlink="http://www.w3.org/1999/xlink">
    <title>javascript_config</title>
    <g id="javascript_config" stroke="none" stroke-width="1" fill="none" fill-rule="evenodd" stroke-linecap="round" stroke-linejoin="round">
        <g id="config" transform="translate(7.64, 7.9767)" stroke="#8C8FA1">
            <circle id="Path" cx="4.36" cy="4.52331668" r="1.5"></circle>
            <polygon id="Path" transform="translate(4.3615, 4.5233) rotate(-330) translate(-4.3615, -4.5233)" points="4.37708256 1.05024047 7.39262702 2.77331668 7.37708256 6.2463929 4.34599365 7.9963929 1.33044919 6.27331668 1.34599365 2.80024047"></polygon>
        </g>
        <path d="M6.5,11.5 L2.5,11.5 C1.3954305,11.5 0.5,10.6045695 0.5,9.5 L0.5,2.5 C0.5,1.3954305 1.3954305,0.5 2.5,0.5 L9.5,0.5 C10.6045695,0.5 11.5,1.3954305 11.5,2.5 L11.5,7 L11.5,7" id="Path" stroke="#DF8E1D"></path>
        <g id="js_small" transform="translate(2.5, 4.5)" stroke="#DF8E1D">
            <path d="M7,0.5 C6.66666667,0.166666667 6.16666667,0 5.5,0 C4.5,0 4,0.496419271 4,1 C4,1.50358073 4.5,2 5.5,2 C6.5,2 7.00024414,2.5 7,3 C6.99975586,3.5 6.5,4 5.5,4 C4.83333333,4 4.33333333,3.83333333 4,3.5" id="Path"></path>
            <path d="M2,0 L2,3 C2,3.55228475 1.55228475,4 1,4 C0.44771525,4 4.4408921e-16,3.55228475 4.4408921e-16,3" id="Path"></path>
        </g>
    </g>
</svg>