<?xml version="1.0" encoding="UTF-8" standalone="no"?>
<!-- Created with Inkscape (http://www.inkscape.org/) -->

<svg
   width="100.0px"
   height="100.0px"
   viewBox="0 0 100.0 100.0"
   version="1.1"
   id="SVGRoot"
   sodipodi:docname="javascript_config.svg"
   inkscape:version="1.2.1 (9c6d41e410, 2022-07-14)"
   xmlns:inkscape="http://www.inkscape.org/namespaces/inkscape"
   xmlns:sodipodi="http://sodipodi.sourceforge.net/DTD/sodipodi-0.dtd"
   xmlns="http://www.w3.org/2000/svg"
   xmlns:svg="http://www.w3.org/2000/svg">
  <defs
     id="defs44872" />
  <sodipodi:namedview
     id="namedview32486"
     pagecolor="#181825"
     bordercolor="#000000"
     borderopacity="0.24705882"
     inkscape:showpageshadow="2"
     inkscape:pageopacity="0"
     inkscape:pagecheckerboard="0"
     inkscape:deskcolor="#313244"
     inkscape:document-units="px"
     showgrid="true"
     inkscape:zoom="4.0000001"
     inkscape:cx="41.124999"
     inkscape:cy="59.624998"
     inkscape:window-width="1419"
     inkscape:window-height="1040"
     inkscape:window-x="2016"
     inkscape:window-y="0"
     inkscape:window-maximized="0"
     inkscape:current-layer="SVGRoot"
     showborder="false">
    <inkscape:grid
       type="xygrid"
       id="grid32609" />
  </sodipodi:namedview>
  <path
     style="fill:none;stroke:#f7df1e;stroke-width:5;stroke-linecap:round;stroke-linejoin:round;stroke-dasharray:none;stroke-opacity:1;paint-order:fill markers stroke"
     d="m 44.598669,73.711122 c -10.524667,0 -21.049334,0 -31.574001,0 C 8.1466179,73.711122 2.5,68.421115 2.5,63.543069 V 13.024668 C 2.5,8.0720165 8.0720186,2.5406803 13.024667,2.537048 L 63.543069,2.500002 c 4.961378,-0.00362 10.524663,5.5632906 10.524663,10.524667 v 25.2592 6.3148"
     id="path12607"
     sodipodi:nodetypes="ccssssscc" />
  <path
     style="fill:none;stroke:#f7df1e;stroke-width:5;stroke-linecap:round;stroke-linejoin:round;stroke-dasharray:none;stroke-opacity:1;paint-order:fill markers stroke"
     d="m 53.319127,27.028277 c 0,0 -0.0015,-0.05672 -0.568332,-0.568333 -0.566814,-0.511613 -1.158166,-0.871532 -1.752357,-1.136664 -0.59419,-0.265131 -1.14129,-0.3769 -1.752357,-0.47361 -0.611067,-0.09671 -0.903345,-0.05142 -1.610273,-0.01184 -0.70693,0.03958 -1.557673,0.134029 -2.143086,0.426249 -0.585413,0.29222 -1.246979,0.637447 -1.622114,0.994581 -0.375135,0.357134 -0.619631,0.704024 -0.876179,1.148505 -0.256547,0.444479 -0.483716,0.981524 -0.615693,1.46819 -0.131977,0.486666 -0.1869,0.800098 -0.189443,1.42083 -0.0026,0.620733 0.07302,1.602627 0.284165,2.273328 0.211144,0.670702 0.544926,1.21378 0.89986,1.704995 0.354932,0.491216 0.781946,0.945924 1.184025,1.231386 0.402077,0.285463 0.598116,0.429767 1.184025,0.710415 0.585906,0.280648 1.515552,0.592013 2.320688,0.994582 0.805137,0.402567 1.729596,0.834063 2.462772,1.231386 0.733177,0.397322 1.416207,0.755919 1.941801,1.136664 0.525595,0.380744 0.857435,0.676988 1.231386,1.089303 0.373951,0.412314 0.741256,0.88559 0.994581,1.373468 0.253326,0.487879 0.419626,0.83154 0.537716,1.498809 0.05905,0.333632 0.08493,0.798966 0.08902,1.256072 0.0041,0.457106 -0.01358,0.905982 -0.04165,1.206699 -0.05615,0.601434 -0.105667,0.659067 -0.25355,1.153408 -0.147883,0.494343 -0.500596,1.286663 -0.877862,1.799719 -0.377266,0.513055 -0.768123,0.850157 -1.300743,1.184025 -0.532622,0.333868 -1.145814,0.627294 -1.704997,0.805137 -0.559182,0.177843 -0.961888,0.220583 -1.610274,0.284166 -0.648386,0.06358 -1.486157,0.123004 -2.273328,0.04736 -0.78717,-0.07565 -1.727758,-0.287885 -2.415411,-0.520971 C 44.153864,50.523049 43.638751,50.297444 43.136521,49.950998 42.634291,49.604553 42.424205,49.44862 42.14194,49.122181 41.766498,48.687985 41.242081,47.65399 41.242081,47.65399"
     id="path1167"
     sodipodi:nodetypes="czzzzzzzzzzzzzzzzzzssszzzzzzzzac" />
  <path
     style="fill:none;stroke:#f7df1e;stroke-width:5;stroke-linecap:round;stroke-linejoin:round;stroke-dasharray:none;stroke-opacity:1;paint-order:fill markers stroke"
     d="m 32.13175,25.077421 c 0,0 0.04853,13.477226 0,20.394975 -0.0038,0.536861 -0.006,1.078993 -0.100469,1.607485 -0.06154,0.344179 -0.166165,0.682254 -0.301402,1.004679 -0.09856,0.23497 -0.2289,0.456551 -0.368382,0.669786 -0.20045,0.306439 -0.411145,0.611512 -0.669787,0.87072 -0.21922,0.219703 -0.475429,0.401893 -0.736763,0.569319 -0.466678,0.298978 -0.957181,0.568857 -1.473529,0.770253 -0.441479,0.172196 -0.904743,0.296037 -1.373061,0.368383 -0.49694,0.07677 -1.00538,0.101683 -1.507018,0.06697 -0.368051,-0.02546 -0.735271,-0.09412 -1.088401,-0.200937 -0.488248,-0.147681 -0.970862,-0.337532 -1.40655,-0.602806 -0.314975,-0.191774 -0.59149,-0.444266 -0.853976,-0.703275 -0.27063,-0.267044 -0.502001,-0.571658 -0.736766,-0.870721 -0.09375,-0.119433 -0.267914,-0.368383 -0.267914,-0.368383"
     id="path1169"
     sodipodi:nodetypes="csaaaaaaaaaaaac" />
  <path
     style="fill:none;stroke:#808080;stroke-width:5.00775;stroke-linecap:round;stroke-linejoin:round;stroke-dasharray:none;stroke-opacity:1;paint-order:fill markers stroke"
     d="m 76.250545,55.004365 c -2.83422,0 -3.84035,4.32967 -6.63944,5.31154 -2.79908,0.98186 -7.1043,-2.1909 -9.29518,0 -2.19092,2.1909 0.98185,6.49611 0,9.29519 -0.98188,2.79909 -5.311556,3.80522 -5.311556,6.63943 0,2.83421 4.329676,3.84034 5.311556,6.63943 0.98185,2.79908 -2.19002,7.1034 0,9.29519 2.18999,2.19179 6.4969,-0.9742 9.29518,0.007 2.79829,0.98177 3.806,5.30496 6.63944,5.30398 2.8334,-9e-4 3.84033,-4.32968 6.63941,-5.31154 2.79909,-0.98187 7.10341,2.19 9.2952,0 2.19178,-2.19001 -0.97421,-6.49692 0.007,-9.2952 0.98178,-2.79828 5.30496,-3.80601 5.30397,-6.63942 -9e-4,-2.83342 -4.32966,-3.84034 -5.31154,-6.63943 -0.98187,-2.79908 2.19089,-7.1043 0,-9.29519 -2.1909,-2.1909 -6.4961,0.98186 -9.2952,0 -2.79909,-0.98187 -3.80522,-5.31154 -6.63942,-5.31154 z"
     id="path3626"
     sodipodi:nodetypes="zzzzzzzzzzzzzzzzz" />
  <circle
     style="fill:none;stroke:#808080;stroke-width:5.00775;stroke-linecap:round;stroke-linejoin:round;stroke-dasharray:none;stroke-opacity:1;paint-order:fill markers stroke"
     id="path3680"
     cx="76.250526"
     cy="76.250526"
     r="7.9673114" />
</svg>
