<?xml version="1.0" encoding="UTF-8" standalone="no"?>
<!-- Created with Inkscape (http://www.inkscape.org/) -->

<svg
   width="100.0px"
   height="100.0px"
   viewBox="0 0 100.0 100.0"
   version="1.1"
   id="SVGRoot"
   sodipodi:docname="javascript_map.svg"
   inkscape:version="1.2.1 (9c6d41e410, 2022-07-14)"
   xmlns:inkscape="http://www.inkscape.org/namespaces/inkscape"
   xmlns:sodipodi="http://sodipodi.sourceforge.net/DTD/sodipodi-0.dtd"
   xmlns="http://www.w3.org/2000/svg"
   xmlns:svg="http://www.w3.org/2000/svg">
  <defs
     id="defs44872" />
  <sodipodi:namedview
     id="namedview32486"
     pagecolor="#181825"
     bordercolor="#000000"
     borderopacity="0.24705882"
     inkscape:showpageshadow="2"
     inkscape:pageopacity="0"
     inkscape:pagecheckerboard="0"
     inkscape:deskcolor="#313244"
     inkscape:document-units="px"
     showgrid="true"
     inkscape:zoom="2.0000001"
     inkscape:cx="-9.7499997"
     inkscape:cy="-7.2499998"
     inkscape:window-width="1419"
     inkscape:window-height="1040"
     inkscape:window-x="2016"
     inkscape:window-y="0"
     inkscape:window-maximized="0"
     inkscape:current-layer="SVGRoot"
     showborder="false">
    <inkscape:grid
       type="xygrid"
       id="grid32609" />
  </sodipodi:namedview>
  <path
     style="fill:none;stroke:#f7df1e;stroke-width:5;stroke-linecap:round;stroke-linejoin:round;stroke-dasharray:none;stroke-opacity:1;paint-order:fill markers stroke"
     d="M 13.72631,2.5395191 67.6126,2.5000021 c 5.29214,-0.00386 11.22631,5.9341763 11.22631,11.2263119 v 53.886293 c 0,5.203248 -6.02306,10.845922 -11.22631,10.845922 H 13.72631 C 8.52306,78.458529 2.5,72.815855 2.5,67.612607 V 13.726314 C 2.5,8.4434854 8.44349,2.5433936 13.72631,2.5395191 Z"
     id="path12607"
     sodipodi:nodetypes="sssssssss" />
  <path
     style="fill:none;stroke:#f7df1e;stroke-width:5;stroke-linecap:round;stroke-linejoin:round;stroke-dasharray:none;stroke-opacity:1;paint-order:fill markers stroke"
     d="m 67.29265,42.904148 c 0,0 -0.002,-0.0605 -0.60622,-0.606221 -0.6046,-0.545721 -1.23538,-0.929635 -1.86918,-1.212441 -0.6338,-0.282807 -1.21738,-0.402027 -1.86918,-0.505184 -0.65181,-0.103157 -0.96357,-0.05485 -1.71763,-0.01263 -0.75405,0.04222 -1.66151,0.142965 -2.28595,0.454666 -0.62445,0.311701 -1.33012,0.679943 -1.73026,1.060886 -0.40014,0.380943 -0.66094,0.750959 -0.93459,1.225071 -0.27365,0.474113 -0.51596,1.04696 -0.65674,1.566071 -0.14077,0.51911 -0.19936,0.853437 -0.20207,1.515552 -0.003,0.662114 0.0779,1.709468 0.30311,2.424883 0.22522,0.715415 0.58125,1.294698 0.95985,1.818661 0.37859,0.523963 0.83407,1.008986 1.26296,1.313479 0.42888,0.304492 0.63799,0.458417 1.26296,0.757776 0.62497,0.299358 1.61659,0.63148 2.4754,1.060886 0.85881,0.429406 1.8449,0.889667 2.62696,1.313478 0.78205,0.423812 1.51062,0.806315 2.07125,1.212442 0.56063,0.406128 0.9146,0.722121 1.31348,1.161923 0.39888,0.439802 0.79067,0.94463 1.06089,1.465034 0.27021,0.520403 0.4476,0.886975 0.57356,1.598728 0.063,0.355876 0.0906,0.852232 0.0949,1.339812 0.004,0.487578 -0.0145,0.966379 -0.0444,1.287144 -0.0599,0.641531 -0.11271,0.703005 -0.27045,1.230303 -0.15775,0.527298 -0.53397,1.37244 -0.93639,1.919699 -0.40242,0.547259 -0.81933,0.906835 -1.38746,1.26296 -0.56813,0.356126 -1.2222,0.669114 -1.81866,0.858813 -0.59646,0.189699 -1.02602,0.235288 -1.71763,0.30311 -0.69161,0.06782 -1.58523,0.131205 -2.42488,0.05052 -0.83965,-0.08068 -1.84294,-0.307077 -2.57644,-0.555703 -0.7335,-0.248625 -1.28295,-0.489271 -1.81866,-0.858812 -0.53572,-0.369542 -0.75981,-0.535871 -1.06089,-0.884072 -0.40047,-0.463142 -0.95985,-1.566071 -0.95985,-1.566071"
     id="path1167"
     sodipodi:nodetypes="czzzzzzzzzzzzzzzzzzssszzzzzzzzac" />
  <path
     style="fill:none;stroke:#f7df1e;stroke-width:5;stroke-linecap:round;stroke-linejoin:round;stroke-dasharray:none;stroke-opacity:1;paint-order:fill markers stroke"
     d="m 44.69278,40.823236 c 0,0 0.0517,14.375707 0,21.754639 -0.004,0.572652 -0.006,1.150926 -0.10716,1.714651 -0.0656,0.367125 -0.17725,0.727738 -0.3215,1.071657 -0.10513,0.250635 -0.24416,0.486989 -0.39294,0.714439 -0.21381,0.326868 -0.43855,0.652279 -0.71444,0.928769 -0.23383,0.234349 -0.50712,0.428685 -0.78588,0.607272 -0.49779,0.31891 -1.02099,0.606781 -1.57176,0.821604 -0.47092,0.183675 -0.96506,0.315772 -1.4646,0.392941 -0.53007,0.08188 -1.07241,0.108462 -1.60749,0.07144 -0.39259,-0.02716 -0.78429,-0.100398 -1.16096,-0.214331 -0.5208,-0.157528 -1.03558,-0.360036 -1.50032,-0.642995 -0.33597,-0.204559 -0.63092,-0.473882 -0.91091,-0.75016 -0.28867,-0.284848 -0.53546,-0.609768 -0.78588,-0.928769 -0.1,-0.127394 -0.28577,-0.392941 -0.28577,-0.392941"
     id="path1169"
     sodipodi:nodetypes="csaaaaaaaaaaaac" />
  <path
     style="fill:none;stroke:#f7df1e;stroke-width:5;stroke-linecap:round;stroke-linejoin:round;stroke-dasharray:none;stroke-opacity:1;paint-order:fill markers stroke"
     d="M 79.233223,21.58099 86.27369,21.54147 C 91.565748,21.511764 97.5,27.475649 97.5,32.767785 V 86.654078 C 97.5,91.857326 91.47694,97.5 86.27369,97.5 H 32.3874 c -5.20325,0 -11.22631,-5.642674 -11.22631,-10.845922 l 0,-7.924353"
     id="path17371"
     sodipodi:nodetypes="cssssssc" />
</svg>
