<?xml version="1.0" encoding="UTF-8" standalone="no"?>
<!-- Created with Inkscape (http://www.inkscape.org/) -->

<svg
   width="100.0px"
   height="100.0px"
   viewBox="0 0 100.0 100.0"
   version="1.1"
   id="SVGRoot"
   sodipodi:docname="java_class.svg"
   inkscape:version="1.2.1 (9c6d41e, 2022-07-14)"
   xmlns:inkscape="http://www.inkscape.org/namespaces/inkscape"
   xmlns:sodipodi="http://sodipodi.sourceforge.net/DTD/sodipodi-0.dtd"
   xmlns="http://www.w3.org/2000/svg"
   xmlns:svg="http://www.w3.org/2000/svg">
  <sodipodi:namedview
     id="namedview32486"
     pagecolor="#181825"
     bordercolor="#000000"
     borderopacity="0.24705882"
     inkscape:showpageshadow="2"
     inkscape:pageopacity="0"
     inkscape:pagecheckerboard="0"
     inkscape:deskcolor="#313244"
     inkscape:document-units="px"
     showgrid="true"
     inkscape:zoom="3.865077"
     inkscape:cx="49.287505"
     inkscape:cy="57.437407"
     inkscape:window-width="1432"
     inkscape:window-height="760"
     inkscape:window-x="0"
     inkscape:window-y="38"
     inkscape:window-maximized="0"
     inkscape:current-layer="SVGRoot"
     showborder="false">
    <inkscape:grid
       type="xygrid"
       id="grid32609" />
  </sodipodi:namedview>
  <path
     d="M 76.318936,47.894734 V 65.789481 A 31.578953,31.578953 0 0 1 44.739984,97.368431 H 34.213669 A 31.578953,31.578953 0 0 1 2.6347147,65.789481 V 47.894734 a 3.1578953,3.1578953 0 0 1 3.157895,-3.157896 H 73.161046 a 3.1578953,3.1578953 0 0 1 3.15789,3.157896 z M 50.003146,34.210523 c 0,-5.263162 3.757895,-10.526319 11.278948,-10.526319 v 0 A 15.036845,15.036845 0 0 0 76.318936,8.64736 V 5.26315 M 28.950511,34.210523 V 31.578942 A 15.789477,15.789477 0 0 1 44.739984,15.789465 v 0 A 10.526318,10.526318 0 0 0 55.266303,5.26315 V 2.631569"
     id="path84214"
     style="fill:none;stroke:#0074bd;stroke-width:5;stroke-linecap:round;stroke-linejoin:round;stroke-dasharray:none;stroke-opacity:1" />
  <path
     d="m 71.055776,44.736838 h 13.1579 a 13.157898,13.157898 0 0 1 0,26.315793 h -7.89474"
     id="path84216"
     style="fill:none;stroke:#0074bd;stroke-width:5;stroke-linecap:round;stroke-linejoin:round;stroke-dasharray:none;stroke-opacity:1" />
</svg>
