<?xml version="1.0" encoding="UTF-8"?>
<svg width="16px" height="16px" viewBox="0 0 16 16" version="1.1" xmlns="http://www.w3.org/2000/svg" xmlns:xlink="http://www.w3.org/1999/xlink">
    <title>javascript</title>
    <g id="javascript" stroke="none" stroke-width="1" fill="none" fill-rule="evenodd">
        <path d="M7.49505914,7.5 C7.49505914,7.5 7.50617608,9.67299807 7.49505914,11.2489599 C7.49419062,11.3711837 7.49366952,11.4947885 7.47195674,11.6151134 C7.45788685,11.6934885 7.43374224,11.7704826 7.40282324,11.844024 C7.38024195,11.8975401 7.35036516,11.9479488 7.31840395,11.9966311 C7.27254655,12.0663746 7.22425733,12.1359455 7.16485116,12.1949858 C7.1144775,12.2450492 7.05593984,12.286481 6.99601257,12.3246328 C6.88901198,12.3928226 6.77662663,12.4541072 6.65816169,12.5002 C6.55662752,12.5394584 6.45108705,12.5675912 6.34341321,12.5840994 C6.22922542,12.6018336 6.11341098,12.6069286 5.99809314,12.5992911 C5.91343075,12.5933623 5.82970427,12.5780173 5.748483,12.5535435 C5.63661875,12.5198801 5.52614412,12.476722 5.42609162,12.4163007 C5.35400519,12.372452 5.29060387,12.3149654 5.23032919,12.2559251 C5.16831748,12.1951585 5.11533829,12.1257602 5.0614906,12.0575704 C5.03995152,12.0304671 5,11.973671 5,11.973671" id="Path" stroke="#DF8E1D" stroke-linecap="round"></path>
        <path d="M12.5,8.75 C12.5,8.05964406 11.9627417,7.5 11.3,7.5 L10.7,7.5 C10.0372583,7.5 9.5,8.05964406 9.5,8.75 C9.5,9.44035594 10.0372583,10 10.7,10 L11.3,10 C11.9627417,10 12.5,10.5596441 12.5,11.25 C12.5,11.9403559 11.9627417,12.5 11.3,12.5 L10.7,12.5 C10.0372583,12.5 9.5,11.9403559 9.5,11.25" id="Path" stroke="#DF8E1D" stroke-linecap="round" stroke-linejoin="round"></path>
        <rect id="Path" stroke="#DF8E1D" x="1.5" y="1.5" width="13" height="13" rx="2.5"></rect>
    </g>
</svg>