<?xml version="1.0" encoding="UTF-8" standalone="no"?>
<!-- Created with Inkscape (http://www.inkscape.org/) -->

<svg
   width="100.0px"
   height="100.0px"
   viewBox="0 0 100.0 100.0"
   version="1.1"
   id="SVGRoot"
   sodipodi:docname="javascript.svg"
   inkscape:version="1.2.1 (9c6d41e410, 2022-07-14)"
   xmlns:inkscape="http://www.inkscape.org/namespaces/inkscape"
   xmlns:sodipodi="http://sodipodi.sourceforge.net/DTD/sodipodi-0.dtd"
   xmlns="http://www.w3.org/2000/svg"
   xmlns:svg="http://www.w3.org/2000/svg">
  <defs
     id="defs44872" />
  <sodipodi:namedview
     id="namedview32486"
     pagecolor="#181825"
     bordercolor="#000000"
     borderopacity="0.24705882"
     inkscape:showpageshadow="2"
     inkscape:pageopacity="0"
     inkscape:pagecheckerboard="0"
     inkscape:deskcolor="#313244"
     inkscape:document-units="px"
     showgrid="true"
     inkscape:zoom="1.4142136"
     inkscape:cx="-83.438598"
     inkscape:cy="100.76271"
     inkscape:window-width="1419"
     inkscape:window-height="1040"
     inkscape:window-x="2016"
     inkscape:window-y="0"
     inkscape:window-maximized="0"
     inkscape:current-layer="SVGRoot"
     showborder="false">
    <inkscape:grid
       type="xygrid"
       id="grid32609" />
  </sodipodi:namedview>
  <path
     style="fill:none;stroke:#f7df1e;stroke-width:5;stroke-linecap:round;stroke-linejoin:round;stroke-dasharray:none;stroke-opacity:1;paint-order:fill markers stroke"
     d="m 16.666667,3.0619713 66.666668,-0.048889 c 6.547289,-0.00478 13.888886,7.3416027 13.888886,13.8888887 v 66.666667 c 0,6.437318 -7.451565,13.418282 -13.888886,13.418282 H 16.666668 c -6.437323,0 -13.8888889,-6.980964 -13.8888889,-13.418282 V 16.901971 c 0,-6.535772 7.3531209,-13.8352063 13.8888879,-13.8399997 z"
     id="path12607"
     sodipodi:nodetypes="sssssssss" />
  <path
     style="fill:none;stroke:#f7df1e;stroke-width:5;stroke-linecap:round;stroke-linejoin:round;stroke-dasharray:none;paint-order:fill markers stroke;stroke-opacity:1"
     d="m 82.937499,53 c 0,0 -0.002,-0.07485 -0.75,-0.75 -0.747997,-0.675151 -1.528376,-1.150119 -2.3125,-1.5 -0.784124,-0.349881 -1.506104,-0.497377 -2.3125,-0.625 -0.806396,-0.127623 -1.1921,-0.06786 -2.125,-0.01563 -0.9329,0.05224 -2.055583,0.176872 -2.828125,0.5625 -0.772542,0.385628 -1.645578,0.841207 -2.140625,1.3125 -0.495047,0.471293 -0.817697,0.929066 -1.15625,1.515625 -0.338553,0.586559 -0.638337,1.29527 -0.8125,1.9375 -0.174163,0.64223 -0.246643,1.05585 -0.25,1.875 -0.0034,0.81915 0.09636,2.114908 0.375,3 0.278636,0.885092 0.719112,1.601766 1.1875,2.249999 0.468388,0.648233 1.031897,1.24829 1.5625,1.625 0.530603,0.37671 0.789307,0.567142 1.5625,0.9375 0.773193,0.370358 2,0.78125 3.0625,1.3125 1.0625,0.53125 2.282463,1.100672 3.25,1.625 0.967537,0.524328 1.868899,0.99755 2.5625,1.5 0.693601,0.50245 1.131515,0.893389 1.625,1.4375 0.493485,0.544111 0.978199,1.168671 1.3125,1.8125 0.334301,0.643829 0.553759,1.097342 0.709597,1.977903 0.07792,0.44028 0.112067,1.054359 0.117474,1.657579 0.0054,0.603219 -0.01793,1.195579 -0.05497,1.592421 -0.07409,0.793684 -0.139443,0.869738 -0.334597,1.522097 -0.195154,0.652359 -0.660612,1.697946 -1.158471,2.375 -0.497859,0.677054 -1.013655,1.121911 -1.716529,1.5625 -0.702874,0.440589 -1.512074,0.827809 -2.25,1.0625 -0.737926,0.234691 -1.269357,0.291092 -2.125,0.375 -0.855643,0.08391 -1.96121,0.162323 -3,0.0625 -1.03879,-0.09982 -2.280038,-0.379907 -3.1875,-0.6875 -0.907462,-0.307593 -1.587231,-0.605313 -2.25,-1.0625 -0.662769,-0.457187 -0.940008,-0.662964 -1.3125,-1.09375 -0.495451,-0.572986 -1.1875,-1.9375 -1.1875,-1.9375"
     id="path1167"
     sodipodi:nodetypes="czzzzzzzzzzzzzzzzzzssszzzzzzzzac" />
  <path
     style="fill:none;stroke:#f7df1e;stroke-width:5;stroke-linecap:round;stroke-linejoin:round;stroke-dasharray:none;paint-order:fill markers stroke;stroke-opacity:1"
     d="m 54.977552,50.425552 c 0,0 0.06403,17.785237 0,26.914252 -0.005,0.708469 -0.0079,1.423895 -0.132583,2.12132 -0.08121,0.454197 -0.219281,0.900337 -0.397747,1.325825 -0.130059,0.310079 -0.302068,0.602489 -0.486136,0.883884 -0.264524,0.404393 -0.542567,0.806982 -0.883884,1.149048 -0.289295,0.289931 -0.6274,0.530358 -0.972271,0.751301 -0.615851,0.394547 -1.263146,0.750693 -1.944544,1.016466 -0.582599,0.227238 -1.193945,0.390665 -1.811961,0.486136 -0.655788,0.101306 -1.326753,0.134187 -1.988738,0.08839 -0.4857,-0.0336 -0.970301,-0.124209 -1.436311,-0.265165 -0.644316,-0.194889 -1.281197,-0.445426 -1.856155,-0.795495 -0.415655,-0.253075 -0.78056,-0.586275 -1.126951,-0.928078 -0.357136,-0.352406 -0.662465,-0.754389 -0.972272,-1.149048 -0.123722,-0.157609 -0.353553,-0.486136 -0.353553,-0.486136"
     id="path1169"
     sodipodi:nodetypes="csaaaaaaaaaaaac" />
</svg>
