<?xml version="1.0" encoding="UTF-8"?>
<svg width="16px" height="16px" viewBox="0 0 16 16" version="1.1" xmlns="http://www.w3.org/2000/svg" xmlns:xlink="http://www.w3.org/1999/xlink">
    <title>jenkins</title>
    <g id="jenkins" stroke="none" stroke-width="1" fill="none" fill-rule="evenodd">
        <path d="M12.5,11.5 C13.8333333,10.5 14.5,8.66666667 14.5,6 C13.8333333,2.33333333 12,0.5 9,0.5 C5.5,0.5 4.25,1.75 3.5,3 C2.16666667,3.66666667 1.75,4.75 2.25,6.25 C2.08333333,7.08333333 2.08333333,7.83333333 2.25,8.5 C2.41666667,9.16666667 3,9.58333333 4,9.75 L4.5,12 M7.25,0.75 C6.41666667,0.916666667 5.66666667,1.66666667 5,3 C4.33333333,4.33333333 4.16666667,5.66666667 4.5,7 C4,5.66666667 3.33333333,5.33333333 2.5,6" id="Combined-Shape" stroke="#8C8FA1" stroke-linecap="square" stroke-linejoin="round"></path>
        <path d="M8,5.5 L6,5.5 M9.5,4 C9.5,4.5 9.83333333,5.41666667 10.5,6.75 L10.5,7.5 L9,7.5 M11,9.5 C11,9.5 10.6666667,9.5 10,9.5 L8.5,9.5 C7.66666667,9.5 7,9.16666667 6.5,8.5 M13,5.5 L12,5.5" id="Combined-Shape" stroke="#4C4F69"></path>
        <path d="M14,15.5 L14.5,15.5 L15.25,13.5 L12.25,11.25 M5,11.75 L1,14 L1.5,15.5 L6,15.5" id="Combined-Shape" stroke="#1E66F5" stroke-linejoin="round"></path>
        <polygon id="Line-8" stroke="#D20F39" stroke-linejoin="round" points="10 14 12.5 12.5 12.5 15.5 7.5 12.5 7.5 15.5"></polygon>
    </g>
</svg>