<?xml version="1.0" encoding="UTF-8"?>
<svg width="16px" height="16px" viewBox="0 0 16 16" version="1.1" xmlns="http://www.w3.org/2000/svg" xmlns:xlink="http://www.w3.org/1999/xlink">
    <title>json</title>
    <g id="json" stroke="none" stroke-width="1" fill="none" fill-rule="evenodd">
        <circle id="Oval" fill="#DF8E1D" cx="5" cy="10" r="1"></circle>
        <circle id="Oval" fill="#DF8E1D" cx="8" cy="10" r="1"></circle>
        <circle id="Oval" fill="#DF8E1D" cx="11" cy="10" r="1"></circle>
        <path d="M4,2.5 C3.26362033,2.5 2.503333,3.26362033 2.503333,4 L2.503333,6 C2.503333,7.1045695 1.40637967,8 0.67,8 C1.40637967,8 2.503333,8.8954305 2.503333,10 L2.503333,12 C2.503333,12.7363797 3.26362033,13.5 4,13.5" id="Path" stroke="#DF8E1D" stroke-linecap="round" stroke-linejoin="round"></path>
        <path d="M12,2.5 C12.7363797,2.5 13.496667,3.26362033 13.496667,4 L13.496667,6 C13.496667,7.1045695 14.5936203,8 15.33,8 C14.5936203,8 13.496667,8.8954305 13.496667,10 L13.496667,12 C13.496667,12.7363797 12.7363797,13.5 12,13.5" id="Path" stroke="#DF8E1D" stroke-linecap="round" stroke-linejoin="round"></path>
    </g>
</svg>