<?xml version="1.0" encoding="UTF-8"?>
<svg width="16px" height="16px" viewBox="0 0 16 16" version="1.1" xmlns="http://www.w3.org/2000/svg" xmlns:xlink="http://www.w3.org/1999/xlink">
    <title>json</title>
    <g id="json" stroke="none" stroke-width="1" fill="none" fill-rule="evenodd">
        <circle id="Oval" fill="#DF8E1D" cx="5.5" cy="10.5" r="1"></circle>
        <circle id="Oval" fill="#DF8E1D" cx="7.5" cy="10.5" r="1"></circle>
        <circle id="Oval" fill="#DF8E1D" cx="9.5" cy="10.5" r="1"></circle>
        <path d="M3.91666667,2.66666667 C3.180287,2.66666667 2.58333333,3.26362033 2.58333333,4 L2.58333333,6 C2.58333333,7.1045695 1.98637967,8 1.25,8 C1.98637967,8 2.58333333,8.8954305 2.58333333,10 L2.58333333,12 C2.58333333,12.7363797 3.180287,13.3333333 3.91666667,13.3333333" id="Path" stroke="#DF8E1D" stroke-linecap="round" stroke-linejoin="round"></path>
        <path d="M11.25,2.66666667 C11.9863797,2.66666667 12.5833333,3.26362033 12.5833333,4 L12.5833333,6 C12.5833333,7.1045695 13.180287,8 13.9166667,8 C13.180287,8 12.5833333,8.8954305 12.5833333,10 L12.5833333,12 C12.5833333,12.7363797 11.9863797,13.3333333 11.25,13.3333333" id="Path" stroke="#DF8E1D" stroke-linecap="round" stroke-linejoin="round"></path>
    </g>
</svg>