<?xml version="1.0" encoding="UTF-8"?>
<svg width="16px" height="16px" viewBox="0 0 16 16" version="1.1" xmlns="http://www.w3.org/2000/svg" xmlns:xlink="http://www.w3.org/1999/xlink">
    <title>json</title>
    <g id="json" stroke="none" stroke-width="1" fill="none" fill-rule="evenodd" stroke-linecap="round" stroke-linejoin="round">
        <path d="M4.5,2.5 L4,2.5 C3.25,2.5 2.5,3.25 2.503333,4 L2.503333,6 C2.503333,7.1045695 1.5,8 0.67,8 C1.5,8 2.503333,8.8954305 2.503333,10 L2.503333,12 C2.5,12.75 3.25,13.5 4,13.5 L4.5,13.5 M11.5,2.5 L12,2.5 C12.75,2.5 13.5,3.25 13.496667,4 L13.496667,6 C13.496667,7.1045695 14.5,8 15.33,8 C14.5,8 13.496667,8.8954305 13.496667,10 L13.496667,12 C13.496667,12.7363797 12.75,13.5 12,13.5 L11.5,13.5 M5,10.5 C5.27614237,10.5 5.5,10.2761424 5.5,10 C5.5,9.72385763 5.27614237,9.5 5,9.5 C4.72385763,9.5 4.5,9.72385763 4.5,10 C4.5,10.2761424 4.72385763,10.5 5,10.5 Z M8,10.5 C8.27614237,10.5 8.5,10.2761424 8.5,10 C8.5,9.72385763 8.27614237,9.5 8,9.5 C7.72385763,9.5 7.5,9.72385763 7.5,10 C7.5,10.2761424 7.72385763,10.5 8,10.5 Z M11,10.5 C11.2761424,10.5 11.5,10.2761424 11.5,10 C11.5,9.72385763 11.2761424,9.5 11,9.5 C10.7238576,9.5 10.5,9.72385763 10.5,10 C10.5,10.2761424 10.7238576,10.5 11,10.5 Z" id="Combined-Shape" stroke="#DF8E1D"></path>
    </g>
</svg>