<?xml version="1.0" encoding="UTF-8"?>
<svg width="16px" height="16px" viewBox="0 0 16 16" version="1.1" xmlns="http://www.w3.org/2000/svg" xmlns:xlink="http://www.w3.org/1999/xlink">
    <title>julia</title>
    <g id="julia" stroke="none" stroke-width="1" fill="none" fill-rule="evenodd">
        <path d="M10.5,5.00005968 C10.5011936,6.38032086 9.38166609,7.5 8,7.5 C6.61833276,7.5 5.5,6.38032086 5.5,5.00005968 C5.5,3.61967914 6.61833276,2.5 8,2.5 C9.38166609,2.5 10.5013131,3.61967914 10.5,5.00005968 Z" id="Path" stroke="#40A02B"></path>
        <path d="M6.5,11.0000597 C6.50011948,12.3807254 5.38083063,13.5 4,13.5 C2.61916937,13.5 1.49988052,12.3806059 1.5,11.0000597 C1.49988052,9.61939407 2.61916937,8.5 4,8.5 C5.38083063,8.5 6.50011948,9.6192746 6.5,10.9999403 L6.5,11.0000597 Z" id="Path" stroke="#D20F39"></path>
        <path d="M14.5,10.9999403 C14.5,12.3807379 13.3807111,13.5 12,13.5 C10.6192889,13.5 9.5,12.3807379 9.5,10.9999403 C9.5,9.61926211 10.6192889,8.5 12,8.5 C13.3807111,8.5 14.5,9.61926211 14.5,10.9999403 Z" id="Path" stroke="#8839EF"></path>
    </g>
</svg>