<?xml version="1.0" encoding="UTF-8"?>
<svg width="16px" height="16px" viewBox="0 0 16 16" version="1.1" xmlns="http://www.w3.org/2000/svg" xmlns:xlink="http://www.w3.org/1999/xlink">
    <title>latex</title>
    <g id="latex" stroke="none" stroke-width="1" fill="none" fill-rule="evenodd" stroke-linecap="round" stroke-linejoin="round">
        <path d="M13,12.4984957 L14.5,12.4984957 M14,8.5 L11,12.5 M11,8.5 L14,12.5 M10.5,12.4984957 L11.5,12.5 M13.5,8.5 L14.5985918,8.51482123 M10.5,8.5 L11.924321,8.5" id="X" stroke="#4C4F69"></path>
        <path d="M7.5,12.4984957 L9,12.4984957 M7.5,10.5 L7.5,14.5 M6.637827,14.5 L10.2958281,14.5 L10.5,14 M6.75,10.5 L10.0015993,10.5 L10.5,11" id="E" stroke="#4C4F69"></path>
        <path d="M2,13.5 L5,13.5 M3.5,8.5 L3.5,13.5 M1.5,10 L1.75,8.5 L5.25,8.5 L5.5,10" id="T" stroke="#4C4F69"></path>
        <path d="M9.5,6.5 L11.5,1.5 L13.5,6.50488281 M10.5,4.5 L12.5,4.5 M9,6.5 L10,6.5 M13,6.5 L14,6.5" id="A" stroke="#4C4F69"></path>
        <path d="M4.5,1.5 L4.5,6.5 M3.5,1.5 L5.5,1.5 M3.5,6.5 L7,6.5 L7.54248,5.50976562" id="L" stroke="#4C4F69"></path>
    </g>
</svg>