<?xml version="1.0" encoding="UTF-8"?>
<svg width="16px" height="16px" viewBox="0 0 16 16" version="1.1" xmlns="http://www.w3.org/2000/svg" xmlns:xlink="http://www.w3.org/1999/xlink">
    <title>lerna</title>
    <g id="lerna" stroke="none" stroke-width="1" fill="none" fill-rule="evenodd" stroke-linecap="round" stroke-linejoin="round">
        <path d="M1,10.3052477 C1.19646522,10.3572917 1.39307783,10.4018148 1.59691234,10.446338 C2.01917255,10.5355347 2.3686242,10.6098402 2.383068,10.6172106 C2.39043729,10.6322522 2.24482015,10.8699096 2.05557683,11.1447197 C1.36389545,12.1478444 1.2256476,12.6308303 1.61872543,12.6308303 C1.74252947,12.6308303 2.00458136,12.5787864 2.21563777,12.5044808 C2.45587657,12.4301753 2.89272797,12.3856522 3.36598365,12.3856522 C4.34153002,12.3856522 5.31707638,12.6308303 6.54730535,13.1879714 C7.71946432,13.7154805 8.10517286,13.84183 9.45935325,14.1166401 C10.0782261,14.2505104 10.616921,14.3916007 10.6533253,14.421383 C10.6897296,14.4585358 10.6023298,14.5847349 10.4494908,14.703714 C10.2966518,14.8225427 11.1920203,14.8672162 11.53425,14.829913 C12.5753831,14.6961932 13.3179125,14.220728 13.3323563,13.6709573 C13.3615387,12.9725756 13.244367,11.8692739 13.1133411,11.7874475 C12.5258614,12.396783 11.9946831,12.3776801 11.3594505,12.4226545 C10.6096991,12.4598073 9.88898275,12.2815643 9.30651422,11.939819 C8.81866734,11.6499672 8.09795096,11.3898979 7.71946432,10.7956041 C7.41363886,10.3127685 7.0933696,9.51766926 7.15158698,9.40621097 C7.17340007,9.37642859 7.27539102,9.38394939 7.38445648,9.42110216 C7.66846885,9.53241004 8.08350716,9.70343309 9.37210088,9.53241004 C10.4932644,9.38394939 11.5560631,9.50277807 11.8400755,9.65138914 C12.5684559,9.82978258 12.458064,9.98877235 12.8442147,10.2064244 C13.4759101,8.76333275 13.4549813,9.21743882 14.1914679,8.72272042 C14.6429105,8.40323672 15.0141753,8.1060146 14.9995841,8.05397064 C14.9922148,8.00944749 14.7375322,7.70485498 14.439076,7.37048009 C13.9658203,6.85034138 13.8347944,6.76129507 13.4053123,6.6125336 C11.912884,6.11480687 10.3256868,5.0375271 9.50312682,3.98250889 C8.59301974,2.80851159 8.33833714,2.54107185 7.68306004,2.10275947 C6.94775247,1.60488233 5.99401919,1.18146113 5.2806721,1.04022046 C4.55258643,0.899130201 4.75642094,1.13678757 5.0694683,1.63466471 C6.1834099,2.93486108 6.15422752,2.97938423 6.15422752,3.84126822 C6.03779277,4.51001799 5.42614185,4.6065851 4.75642094,4.76256655 C4.45796477,4.82198089 4.03570456,4.8070897 3.83909195,4.8070897 C3.54800507,4.8070897 2.91454106,4.45060365 2.56508942,4.079076 C2.383068,3.88579137 2.04820755,3.46989098 1.82978185,3.15025687 C1.60428163,2.83077317 1.37848664,2.57070381 1.31289997,2.57070381" id="Path" stroke="#8839EF"></path>
        <path d="M8.0033293,5.78795279 C9.27010993,6.21874437 9.34306589,6.41939938 9.75795681,7.16245469 C9.85257847,7.32580653 9.91801775,7.4670472 9.91079585,7.47441759 C9.90342656,7.48193839 9.7869918,7.51157035 9.65596586,7.54135273 C9.32832731,7.60813746 8.81144544,7.60813746 8.50576737,7.54135273 C7.95248121,7.42252405 7.92801518,7.31843614 7.69765123,7.11778112 C7.56942561,7.00617241 7.45593858,6.86357799 7.39919506,6.70173032 C7.32402832,6.48693619 7.4442951,6.23062724 7.36279077,6.01823977 C7.29484594,5.84135049 6.96779693,5.76569121 7.00611723,5.57992739 C7.31135314,5.48140487 7.79020949,5.71470017 8.0033293,5.78795279 Z" id="Path" stroke="#8839EF"></path>
    </g>
</svg>