<?xml version="1.0" encoding="UTF-8" standalone="no"?>
<!-- Created with Inkscape (http://www.inkscape.org/) -->

<svg
   width="100.0px"
   height="100.0px"
   viewBox="0 0 100.0 100.0"
   version="1.1"
   id="SVGRoot"
   sodipodi:docname="lerna.svg"
   inkscape:version="1.2.1 (9c6d41e410, 2022-07-14)"
   xmlns:inkscape="http://www.inkscape.org/namespaces/inkscape"
   xmlns:sodipodi="http://sodipodi.sourceforge.net/DTD/sodipodi-0.dtd"
   xmlns="http://www.w3.org/2000/svg"
   xmlns:svg="http://www.w3.org/2000/svg">
  <defs
     id="defs8354" />
  <sodipodi:namedview
     id="namedview32486"
     pagecolor="#181825"
     bordercolor="#000000"
     borderopacity="0.24705882"
     inkscape:showpageshadow="2"
     inkscape:pageopacity="0"
     inkscape:pagecheckerboard="0"
     inkscape:deskcolor="#313244"
     inkscape:document-units="px"
     showgrid="true"
     inkscape:zoom="1.8040752"
     inkscape:cx="-15.243267"
     inkscape:cy="55.984362"
     inkscape:window-width="1920"
     inkscape:window-height="1017"
     inkscape:window-x="1912"
     inkscape:window-y="-8"
     inkscape:window-maximized="1"
     inkscape:current-layer="SVGRoot"
     showborder="false"
     showguides="false">
    <inkscape:grid
       type="xygrid"
       id="grid32609" />
  </sodipodi:namedview>
  <path
     d="m 2.4993103,65.329803 c 1.3336676,0.345765 2.6673363,0.642133 4.0503994,0.938502 2.8649168,0.592747 5.2358823,1.086692 5.3346723,1.136088 0.0494,0.09877 -0.938508,1.679439 -2.2227805,3.507057 -4.6925356,6.668338 -5.6310428,9.879026 -2.9637065,9.879026 0.8397173,0 2.6179415,-0.345765 4.050399,-0.839719 1.630039,-0.493955 4.593746,-0.790323 7.804429,-0.790323 6.618946,0 13.237892,1.630042 21.585666,5.334674 7.952614,3.507057 10.570556,4.346766 19.758048,6.174384 4.198585,0.889116 7.853824,1.827628 8.100799,2.025204 0.246976,0.246972 -0.345766,1.086692 -1.383063,1.877014 -1.037298,0.790323 -1.877015,1.630043 -1.877015,1.827618 0,0.197586 1.086693,0.197586 2.519152,-0.04939 1.333667,-0.197576 4.396165,-0.69153 6.717735,-0.938502 7.063502,-0.889116 12.101804,-4.050398 12.200595,-7.705644 0.19758,-4.643134 -0.59796,-11.978101 -1.487073,-12.521442 -3.985298,4.05089 -7.58913,3.923312 -11.899004,4.223062 -5.087698,0.246982 -9.977814,-0.938502 -13.929424,-3.210678 -3.309473,-1.926411 -8.19959,-3.655236 -10.768136,-7.606851 -2.074594,-3.210678 -4.24798,-8.495956 -3.852819,-9.236882 0.148186,-0.197586 0.839718,-0.14819 1.580644,0.09877 1.92641,0.740937 4.741932,1.877015 13.484867,0.740937 7.606848,-0.987909 14.818536,-0.197586 16.744945,0.790313 4.942331,1.186287 4.193638,2.243231 6.813315,3.690565 4.28584,-9.594297 4.144119,-6.575567 9.141309,-9.864949 3.062497,-2.123997 5.581648,-4.099794 5.482858,-4.445559 -0.0494,-0.296379 -1.778225,-2.321572 -3.803425,-4.544352 -3.210683,-3.457654 -4.099794,-4.050391 -7.014106,-5.0383 C 76.542592,37.470955 65.774456,30.308663 60.192808,23.294559 54.018418,15.490123 52.289589,13.711902 47.844028,10.797592 42.855121,7.488122 36.384361,4.6725954 31.543639,3.7340932 26.604127,2.795581 27.98719,4.3762268 30.111181,7.6856978 c 7.557453,8.6441452 7.359872,8.9405132 7.359872,14.6703492 -0.790322,4.445559 -4.939512,5.087703 -9.483863,6.124998 -2.025199,0.395161 -4.890116,0.296368 -6.223784,0.296368 -1.975805,0 -6.273181,-2.370968 -8.644147,-4.84072 C 11.884382,22.652416 9.6122075,19.886296 8.1303535,17.762299 6.5991051,15.638312 5.0678567,13.909487 4.6232998,13.909487 M 50.017413,35.297572 c 8.594751,2.864913 9.088702,4.198587 11.904224,9.13809 0.642136,1.086702 1.086692,2.025204 1.037297,2.0746 -0.0494,0.04939 -0.839717,0.246972 -1.728829,0.444558 -2.222781,0.444558 -5.729834,0.444558 -7.804428,0 -3.75403,-0.790323 -3.920271,-1.481618 -5.482859,-2.815526 -0.869136,-0.74194 -1.640733,-1.68999 -2.0252,-2.766121 -0.510387,-1.428584 0.306805,-3.132021 -0.246975,-4.544351 -0.460969,-1.175631 -2.679946,-1.678514 -2.420361,-2.91432 2.072121,-0.654701 5.32076,0.896415 6.767131,1.38307 z"
     fill="#448aff"
     id="path12795"
     style="fill:none;stroke:#c084fc;stroke-width:4.99863;stroke-linecap:round;stroke-linejoin:round;stroke-dasharray:none;stroke-opacity:1"
     sodipodi:nodetypes="ccccscscccssccccccccccccccccccccccscccccsccaaacc" />
</svg>
