<?xml version="1.0" encoding="UTF-8"?>
<svg width="16px" height="16px" viewBox="0 0 16 16" version="1.1" xmlns="http://www.w3.org/2000/svg" xmlns:xlink="http://www.w3.org/1999/xlink">
    <title>less</title>
    <g id="less" stroke="none" stroke-width="1" fill="none" fill-rule="evenodd" stroke-linecap="round">
        <path d="M4,2.5 C3.26362033,2.5 2.503333,3.26362033 2.503333,4 L2.503333,6 C2.503333,7.1045695 1.40637967,8 0.67,8 C1.40637967,8 2.503333,8.8954305 2.503333,10 L2.503333,12 C2.503333,12.7363797 3.26362033,13.5 4,13.5" id="Path" stroke="#1E66F5" stroke-linejoin="round"></path>
        <path d="M5.5,5.5 L5.5,10.5 C5.5,11.0522847 5.94771525,11.5 6.5,11.5 L7,11.5 L7,11.5" id="Line" stroke="#1E66F5"></path>
        <path d="M11.5,7.5 C11.5,6.80964406 10.9127417,6.5 10.25,6.5 L9.75,6.5 C9.0872583,6.5 8.5,7.05964406 8.5,7.75 C8.5,8.44035594 9.0872583,9 9.75,9 L10.25,9 C10.9127417,9 11.5,9.55964406 11.5,10.25 C11.5,10.9403559 10.9127417,11.5 10.25,11.5 L9.75,11.5 C9.0872583,11.5 8.5,11.1903559 8.5,10.5" id="Path" stroke="#1E66F5" stroke-linejoin="round"></path>
        <path d="M12,2.5 C12.7363797,2.5 13.496667,3.26362033 13.496667,4 L13.496667,6 C13.496667,7.1045695 14.5936203,8 15.33,8 C14.5936203,8 13.496667,8.8954305 13.496667,10 L13.496667,12 C13.496667,12.7363797 12.7363797,13.5 12,13.5" id="Path" stroke="#1E66F5" stroke-linejoin="round"></path>
    </g>
</svg>