<?xml version="1.0" encoding="UTF-8"?>
<svg width="16px" height="16px" viewBox="0 0 16 16" version="1.1" xmlns="http://www.w3.org/2000/svg" xmlns:xlink="http://www.w3.org/1999/xlink">
    <title>lib</title>
    <g id="lib" stroke="none" stroke-width="1" fill="none" fill-rule="evenodd" stroke-linecap="round" stroke-linejoin="round">
        <path d="M2.5,1.5 L4.5,1.5 C5.05228475,1.5 5.5,1.94771525 5.5,2.5 L5.5,13.5 C5.5,14.0522847 5.05228475,14.5 4.5,14.5 L2.5,14.5 C1.94771525,14.5 1.5,14.0522847 1.5,13.5 L1.5,2.5 C1.5,1.94771525 1.94771525,1.5 2.5,1.5 Z" id="Rectangle" stroke="#4C4F69"></path>
        <path d="M6.5,4.5 L7.5,4.5 C8.05228475,4.5 8.5,4.94771525 8.5,5.5 L8.5,13.5 C8.5,14.0522847 8.05228475,14.5 7.5,14.5 L6.5,14.5 C5.94771525,14.5 5.5,14.0522847 5.5,13.5 L5.5,5.5 C5.5,4.94771525 5.94771525,4.5 6.5,4.5 Z" id="Rectangle" stroke="#4C4F69"></path>
        <path d="M11.242984,4.4678577 L13.242984,4.4678577 C13.5191263,4.4678577 13.742984,4.69171532 13.742984,4.9678577 L13.742984,13.9678577 C13.742984,14.2440001 13.5191263,14.4678577 13.242984,14.4678577 L11.242984,14.4678577 C10.9668416,14.4678577 10.742984,14.2440001 10.742984,13.9678577 L10.742984,4.9678577 C10.742984,4.69171532 10.9668416,4.4678577 11.242984,4.4678577 Z" id="Rectangle" stroke="#4C4F69" transform="translate(12.243, 9.4679) rotate(-15) translate(-12.243, -9.4679)"></path>
    </g>
</svg>