<?xml version="1.0" encoding="UTF-8"?>
<svg width="16px" height="16px" viewBox="0 0 16 16" version="1.1" xmlns="http://www.w3.org/2000/svg" xmlns:xlink="http://www.w3.org/1999/xlink">
    <title>lighthouse</title>
    <g id="lighthouse" stroke="none" stroke-width="1" fill="none" fill-rule="evenodd">
        <path d="M10.4995065,3.88238866 C10.7649437,3.64460594 11.1155846,3.5 11.5,3.5 C12.2108994,3.5 12.806293,3.99453931 12.9609201,4.65835739 C13.1155437,4.55813779 13.3009825,4.5 13.5,4.5 C14.0522847,4.5 14.5,4.94771525 14.5,5.5 C14.5,6.05228475 14.0522847,6.5 13.5,6.5 L11.5,6.5" id="Path" stroke="#04A5E5" stroke-linejoin="round"></path>
        <path d="M5.14204266,9.50456111 L4.25,14.5 L11.75,14.5 L10.5,7.5 L11.5,7.5 L11.5,5.5 L10.5,5.5 L10.5,2.75 L8,1.5 L5.5,2.75 L5.5,5.5 L4.5,5.5 L4.5,7 M9,10.5 L8.75,8.5 L7.25,9.5 L7,11.5 L9,10.5 Z M7.5,5.5 L7.5,4.5 L8,4 L8.5,4.5 L8.5,5.5 L7.5,5.5 Z" id="Combined-Shape" stroke="#FE640B"></path>
        <path d="M3,6.5 C3.7108994,6.5 4.30629296,6.99453931 4.46092011,7.65835739 C4.61554373,7.55813779 4.80098246,7.5 5,7.5 C5.55228475,7.5 6,7.94771525 6,8.5 C6,9.05228475 5.55228475,9.5 5,9.5 L3,9.5 C2.17157288,9.5 1.5,8.82842712 1.5,8 C1.5,7.55598829 1.69291827,7.15703506 1.99950648,6.88238866 C2.26494369,6.64460594 2.61558458,6.5 3,6.5 Z" id="Path" stroke="#04A5E5" stroke-linejoin="round"></path>
    </g>
</svg>