<?xml version="1.0" encoding="UTF-8" standalone="no"?>
<!-- Created with Inkscape (http://www.inkscape.org/) -->

<svg
   width="100.0px"
   height="100.0px"
   viewBox="0 0 100.0 100.0"
   version="1.1"
   id="SVGRoot"
   sodipodi:docname="stagedlint.svg"
   inkscape:version="1.2.1 (9c6d41e410, 2022-07-14)"
   xmlns:inkscape="http://www.inkscape.org/namespaces/inkscape"
   xmlns:sodipodi="http://sodipodi.sourceforge.net/DTD/sodipodi-0.dtd"
   xmlns="http://www.w3.org/2000/svg"
   xmlns:svg="http://www.w3.org/2000/svg">
  <defs
     id="defs8354" />
  <sodipodi:namedview
     id="namedview32486"
     pagecolor="#181825"
     bordercolor="#000000"
     borderopacity="0.24705882"
     inkscape:showpageshadow="2"
     inkscape:pageopacity="0"
     inkscape:pagecheckerboard="0"
     inkscape:deskcolor="#313244"
     inkscape:document-units="px"
     showgrid="true"
     inkscape:zoom="4.8719657"
     inkscape:cx="32.53307"
     inkscape:cy="32.430442"
     inkscape:window-width="1920"
     inkscape:window-height="1017"
     inkscape:window-x="1912"
     inkscape:window-y="-8"
     inkscape:window-maximized="1"
     inkscape:current-layer="SVGRoot"
     showborder="false"
     showguides="false">
    <inkscape:grid
       type="xygrid"
       id="grid32609" />
  </sodipodi:namedview>
  <path
     id="path8310-2"
     style="fill:none;fill-opacity:1;stroke:#934f06;stroke-width:5;stroke-linecap:round;stroke-linejoin:round;stroke-dasharray:none;stroke-opacity:1;paint-order:fill markers stroke"
     d="m 25.796423,51.473823 c -0.09114,0.09873 0.935105,1.515545 2.772716,2.612003 0.918806,0.548229 2.040454,1.016369 3.326692,1.199618 m 3.263821,-21.395749 c -0.182277,0.197467 4.104972,5.667244 10.413643,3.301887 M 20.909404,67.903006 c -0.167674,-0.47363 -0.318056,-0.967014 -0.442783,-1.47613 -0.99782,-4.072933 -0.353774,-9.152758 6.213715,-13.180334 -4.862119,-8.92598 4.862119,-18.650217 8.272859,-18.940493 1.741655,-0.07257 -1.233671,-20.464442 20.754717,-17.198839 m 2.521326,11.050085 C 57.064828,27.112866 51.180232,24.222657 55.71454,17.962351 m 15.668263,32.417718 c 0,0 0.70755,-2.449203 0.09525,-5.451742 -0.153075,-0.750635 -0.388641,-1.535853 -0.738375,-2.326033 M 38.418365,73.565846 h 1.578375 3.156749 6.313498 25.253991 c 4.433296,0.492588 14.785968,-12.026232 -3.120465,-23.512337 -4.078385,4.656464 -8.15433,8.804034 -15.20977,7.723208"
     sodipodi:nodetypes="csccccsccccccscccccccc" />
  <circle
     style="fill:none;fill-opacity:1;stroke:#f80000;stroke-width:5;stroke-linecap:round;stroke-linejoin:round;stroke-dasharray:none;stroke-opacity:1;paint-order:fill markers stroke"
     id="path6367"
     cx="50"
     cy="50"
     r="47.5" />
  <path
     style="fill:none;fill-opacity:1;stroke:#f80000;stroke-width:5;stroke-linecap:round;stroke-linejoin:round;stroke-dasharray:none;stroke-opacity:1;paint-order:fill markers stroke"
     d="M 16.420477,83.949688 83.949688,16.420477"
     id="path6370" />
</svg>
