<?xml version="1.0" encoding="UTF-8"?>
<svg width="16px" height="16px" viewBox="0 0 16 16" version="1.1" xmlns="http://www.w3.org/2000/svg" xmlns:xlink="http://www.w3.org/1999/xlink">
    <title>lintstaged</title>
    <g id="lintstaged" stroke="none" stroke-width="1" fill="none" fill-rule="evenodd" stroke-linecap="round" stroke-linejoin="round">
        <path d="M4.277874,8.20170526 C4.26555821,8.21525263 4.40595805,8.40902105 4.657337,8.55913684 C4.79670235,8.64352631 4.95146435,8.69934657 5.112611,8.72334737" id="Path" stroke="#FE640B"></path>
        <path d="M5.559263,5.79547368 C5.53422089,5.82243158 6.121,6.57095789 6.9842,6.24732632" id="Path" stroke="#FE640B"></path>
        <path d="M3.609263,10.4498842 C3.58575065,10.3836071 3.5655643,10.3161968 3.548779,10.2479053 C3.41221058,9.69054737 3.50033689,8.99538947 4.398979,8.44432632 C3.73365268,7.22287368 5.06430558,5.89222105 5.531074,5.8524 C5.76945295,5.84241053 5.36234779,3.05206316 8.371232,3.49885263" id="Path" stroke="#FE640B"></path>
        <path d="M8.716211,5.01095789 C8.55692679,4.86809474 7.75161005,4.47262105 8.372189,3.61585263" id="Path" stroke="#FE640B"></path>
        <path d="M10.9260947,8.332 C10.9260947,8.332 11.0228421,7.996737 10.9390947,7.585937 C10.9169827,7.47651399 10.8831234,7.36979732 10.8381053,7.267642" id="Path" stroke="#FE640B"></path>
        <path d="M6.41509474,11.504821 L11.3828737,11.504821 C11.9894947,11.5721473 13.4062211,9.85915742 10.9559263,8.287389 C10.3977474,8.92452584 9.83997895,9.49214732 8.87455789,9.344221" id="Path" stroke="#FE640B"></path>
        <circle id="Oval" stroke="#D20F39" cx="8" cy="8" r="6.5"></circle>
        <line x1="3.40484211" y1="12.6457895" x2="12.6457895" y2="3.40484211" id="Path" stroke="#D20F39"></line>
    </g>
</svg>