<svg clip-rule="evenodd" fill-rule="evenodd" stroke-linejoin="round" stroke-miterlimit="2" viewBox="0 0 100 100" xmlns="http://www.w3.org/2000/svg"><g fill="none" stroke="#89b4fa" stroke-width="1.55"><path d="m29.993 9.137h-.753c-1.044 0-2.082-.155-2.99-.671-2.41-1.392-5.39-1.392-7.8 0-1.635.954-3.662.957-5.3.009-1.168-.716-2.517-1.082-3.887-1.055-1.388-.037-2.757.331-3.94 1.059-.743.456-1.597.698-2.469.7h-.834" transform="matrix(3.21739 0 0 3.21739 -1.49912 1.88945)"/><path d="m29.993 9.137h-.753c-1.044 0-2.082-.155-2.99-.671-2.41-1.392-5.39-1.392-7.8 0-1.635.954-3.662.957-5.3.009-1.168-.716-2.517-1.082-3.887-1.055-1.388-.037-2.757.331-3.94 1.059-.743.456-1.597.698-2.469.7h-.834" transform="matrix(3.21739 0 0 3.21739 -1.49912 23.294)"/><path d="m29.993 9.137h-.753c-1.044 0-2.082-.155-2.99-.671-2.41-1.392-5.39-1.392-7.8 0-1.635.954-3.662.957-5.3.009-1.168-.716-2.517-1.082-3.887-1.055-1.388-.037-2.757.331-3.94 1.059-.743.456-1.597.698-2.469.7h-.834" transform="matrix(3.21739 0 0 3.21739 -1.49912 44.6986)"/></g></svg>