<?xml version="1.0" encoding="UTF-8"?>
<svg width="16px" height="16px" viewBox="0 0 16 16" version="1.1" xmlns="http://www.w3.org/2000/svg" xmlns:xlink="http://www.w3.org/1999/xlink">
    <title>lisp</title>
    <g id="lisp" stroke="none" stroke-width="1" fill="none" fill-rule="evenodd" stroke-linecap="round" stroke-linejoin="round">
        <path d="M9.5,10.5 C11.5,8.83333333 11.8333333,6.66666667 10.5,4 C11.1666667,6.33333333 12.1666667,8.5 13.5,10.5 M6.5,5.5 C4.5,7.16666667 4.16666667,9.33333333 5.5,12 C4.83333333,9.66666667 3.83333333,7.5 2.5,5.5 M8,15.5 C12.1421356,15.5 15.5,12.1421356 15.5,8 C15.5,3.85786438 12.1421356,0.5 8,0.5 C3.85786438,0.5 0.5,3.85786438 0.5,8 C0.5,12.1421356 3.85786438,15.5 8,15.5 Z M11.5,14.5 C7.83333333,13.5 6.66666667,11.3333333 8,8 C9.33333333,4.66666667 8.16666667,2.5 4.5,1.5" id="Combined-Shape" stroke="#D20F39"></path>
    </g>
</svg>