<?xml version="1.0" encoding="UTF-8"?>
<svg width="16px" height="16px" viewBox="0 0 16 16" version="1.1" xmlns="http://www.w3.org/2000/svg" xmlns:xlink="http://www.w3.org/1999/xlink">
    <title>livescript</title>
    <g id="livescript" stroke="none" stroke-width="1" fill="none" fill-rule="evenodd" stroke-linecap="square" stroke-linejoin="round">
        <path d="M5.5,1.5 L5.5,10.5 L14.5,10.5 L14.5,12.5 L5.5,12.5 L5.5,14.5 L3.5,14.5 L3.5,12.5 L1.5,12.5 L1.5,10.5 L3.5,10.5 L3.5,1.5 L5.5,1.5 Z M6,10 L13.5,2.5 M13.5,1.5 L13.5,2.5 L14.5,2.5 M7.5,8.5 L7.5,1.5 M7.5,8.5 L14.5,8.5 M9.5,6.5 L9.5,1.5 M9.5,6.5 L14.5,6.5 M11.5,4.5 L11.5,1.5 M11.5,4.5 L14.5,4.5" id="Combined-Shape" stroke="#209FB5"></path>
    </g>
</svg>