<?xml version="1.0" encoding="UTF-8" standalone="no"?>
<!-- Created with Inkscape (http://www.inkscape.org/) -->

<svg
   width="100.0px"
   height="100.0px"
   viewBox="0 0 100.0 100.0"
   version="1.1"
   id="SVGRoot"
   sodipodi:docname="makefile.svg"
   inkscape:version="1.2.1 (9c6d41e410, 2022-07-14)"
   xmlns:inkscape="http://www.inkscape.org/namespaces/inkscape"
   xmlns:sodipodi="http://sodipodi.sourceforge.net/DTD/sodipodi-0.dtd"
   xmlns="http://www.w3.org/2000/svg"
   xmlns:svg="http://www.w3.org/2000/svg">
  <defs
     id="defs44872" />
  <sodipodi:namedview
     id="namedview32486"
     pagecolor="#181825"
     bordercolor="#000000"
     borderopacity="0.24705882"
     inkscape:showpageshadow="2"
     inkscape:pageopacity="0"
     inkscape:pagecheckerboard="0"
     inkscape:deskcolor="#313244"
     inkscape:document-units="px"
     showgrid="true"
     inkscape:zoom="4.0000001"
     inkscape:cx="38.249999"
     inkscape:cy="59.624998"
     inkscape:window-width="1419"
     inkscape:window-height="1040"
     inkscape:window-x="2016"
     inkscape:window-y="0"
     inkscape:window-maximized="0"
     inkscape:current-layer="SVGRoot"
     showborder="false">
    <inkscape:grid
       type="xygrid"
       id="grid32609" />
  </sodipodi:namedview>
  <path
     d="M 62.643675,49.808451 20.671229,93.496049 c -4.098485,4.265965 -10.7153198,4.265965 -14.8138052,0 v 0 C 1.7631,89.23972 1.7631,82.333225 5.8574238,78.076897 L 47.829871,34.389298"
     id="path5474"
     style="display:inline;fill:none;stroke:#a36b00;stroke-width:5;stroke-linecap:round;stroke-linejoin:round;stroke-dasharray:none;stroke-opacity:1"
     sodipodi:nodetypes="cssscc" />
  <path
     id="path5476"
     style="fill:none;stroke:#ffffff;stroke-width:5;stroke-linecap:round;stroke-linejoin:round;stroke-dasharray:none;stroke-opacity:1"
     d="m 91.82687,48.266535 -6.172418,-6.424648 c -2.962761,-3.083829 -4.59228,-7.195603 -4.59228,-11.564364 V 25.857366 L 67.63099,11.77454 A 27.454918,28.57683 0 0 0 48.175527,3.3454034 H 33.016066 l 4.542901,4.214568 A 30.516438,31.763454 0 0 1 47.829871,31.305467 v 8.017959 l 9.87587,10.279436 H 69.90244 l 11.159732,9.81686 m -5.379062,5.818666 21.534468,-22.46318" />
</svg>
