<?xml version="1.0" encoding="UTF-8"?>
<svg width="16px" height="16px" viewBox="0 0 16 16" version="1.1" xmlns="http://www.w3.org/2000/svg" xmlns:xlink="http://www.w3.org/1999/xlink">
    <title>makefile</title>
    <g id="makefile" stroke="none" stroke-width="1" fill="none" fill-rule="evenodd" stroke-linecap="round" stroke-linejoin="round">
        <path d="M9.24030138,8.47051199 L3.96203413,14.0544421 C3.39789111,14.6485193 2.48697496,14.6485193 1.92269428,14.0544421 C1.35910191,13.4617574 1.35910191,12.4998982 1.92269428,11.9070743 L7.20096152,6.32342276" id="Path" stroke="#FE640B"></path>
        <path d="M13.7441475,8.03224868 L12.8788141,7.09799011 C12.4635998,6.649546 12.2351058,6.05162051 12.2351058,5.41647009 L12.2351058,4.77375836 L10.3523433,2.72580541 C9.63048721,1.94178442 8.6490329,1.50064771 7.62513434,1.5 L5.5,1.5 L6.13697958,2.11304811 C7.0518468,2.98892517 7.49920738,4.24563086 7.5,5.56580606 L7.5,6.73170259 L8.9611934,8.2265163 L10.6708331,8.2265163 L12.235246,9.65400523 M11.5,10.5 L14.5,7.5" id="Shape" stroke="#4C4F69"></path>
    </g>
</svg>