<?xml version="1.0" encoding="UTF-8"?>
<svg width="16px" height="16px" viewBox="0 0 16 16" version="1.1" xmlns="http://www.w3.org/2000/svg" xmlns:xlink="http://www.w3.org/1999/xlink">
    <title>mathematica</title>
    <g id="mathematica" stroke="none" stroke-width="1" fill="none" fill-rule="evenodd" stroke-linecap="square" stroke-linejoin="round">
        <path d="M9.5,13 L13,14.5 L12,11 L15.5,10.5 L13,8 L15.5,5.5 L12,5 L13,1.5 L9.5,3 L8,0.5 L6.5,3 L3,1.5 L4,5 L0.5,5.5 L3,8 L0.5,10.5 L4,11 L3,14.5 L6.5,13 L8,15.5 L9.5,13 Z M4,11 L5.5,8.75 L3,8 M6.5,6 L5.5,8.75 L8,10.5 L10.5,8.75 L9.5,6 L6.5,6 Z M13,8 L10.5,8.75 L12,11 M6.5,13 L8,10.5 L9.5,13 M4,5 L6.5,6 L6.5,3 M9.5,3 L9.5,6 L12,5" id="Combined-Shape" stroke="#D20F39"></path>
    </g>
</svg>