<?xml version="1.0" encoding="UTF-8" standalone="no"?>
<!-- Created with Inkscape (http://www.inkscape.org/) -->

<svg
   width="100.0px"
   height="100.0px"
   viewBox="0 0 100.0 100.0"
   version="1.1"
   id="SVGRoot"
   sodipodi:docname="maven.svg"
   inkscape:version="1.2.1 (9c6d41e, 2022-07-14)"
   xmlns:inkscape="http://www.inkscape.org/namespaces/inkscape"
   xmlns:sodipodi="http://sodipodi.sourceforge.net/DTD/sodipodi-0.dtd"
   xmlns="http://www.w3.org/2000/svg"
   xmlns:svg="http://www.w3.org/2000/svg">
  <defs
     id="defs8354" />
  <sodipodi:namedview
     id="namedview32486"
     pagecolor="#181825"
     bordercolor="#000000"
     borderopacity="0.24705882"
     inkscape:showpageshadow="2"
     inkscape:pageopacity="0"
     inkscape:pagecheckerboard="0"
     inkscape:deskcolor="#313244"
     inkscape:document-units="px"
     showgrid="true"
     inkscape:zoom="4.4392304"
     inkscape:cx="25.116966"
     inkscape:cy="49.896036"
     inkscape:window-width="1414"
     inkscape:window-height="685"
     inkscape:window-x="0"
     inkscape:window-y="38"
     inkscape:window-maximized="0"
     inkscape:current-layer="SVGRoot"
     showborder="false"
     showguides="false">
    <inkscape:grid
       type="xygrid"
       id="grid32609" />
  </sodipodi:namedview>
  <path
     d="m 19.290006,97.500024 c 1.291025,-6.503062 2.813147,-12.620385 4.521549,-18.368613 m 0,0 C 58.655384,79.590626 76.261989,28.235018 80.710064,2.4998413 69.302121,6.7065414 47.67055,22.720301 32.25796,56.45765 m -8.446405,22.673761 c 1.410249,-4.744843 2.947415,-9.23884 4.586299,-13.489453 m 0,0 13.56591,-1.722057 m -13.56591,1.722057 c 1.232763,-3.197287 2.522986,-6.257383 3.860106,-9.184308 m 0,0 11.427863,-1.722058"
     stroke="#ffd600"
     stroke-width="4.61096"
     stroke-linecap="round"
     stroke-linejoin="round"
     id="path9860"
     style="fill:none;stroke-width:4.99995;stroke-dasharray:none;stroke:#7f277b;stroke-opacity:1" />
  <path
     d="m 41.963707,63.919901 -13.565911,1.722057 c 1.232707,-3.197287 2.522987,-6.257383 3.860049,-9.184308 m 0,0 C 47.670493,22.720301 69.302064,6.7065414 80.710064,2.4998413 77.718277,19.810769 68.772244,48.714015 52.631281,65.641958 M 32.257845,56.45765 43.685767,54.735592"
     stroke="#ffa800"
     stroke-width="4.61096"
     stroke-linecap="round"
     stroke-linejoin="round"
     id="path9862"
     style="fill:none;stroke-width:4.99995;stroke-dasharray:none;stroke:#be1f41;stroke-opacity:1" />
  <path
     d="M 39.59232,42.394179 C 53.957267,18.162531 71.021021,6.0726519 80.710064,2.4998413 78.857705,13.218503 74.72247,28.381508 68.009774,42.394179"
     stroke="#ff4d35"
     stroke-width="4.61096"
     stroke-linecap="round"
     stroke-linejoin="round"
     id="path9864"
     style="fill:none;stroke-width:4.99995;stroke-dasharray:none;stroke:#e66f27;stroke-opacity:1" />
  <path
     d="M 50.812272,26.321641 C 62.093931,12.607 73.464277,5.1717574 80.710064,2.4998413 79.557434,9.1690839 77.521388,17.558892 74.530173,26.321641"
     stroke="#ff47b5"
     stroke-width="4.61096"
     stroke-linecap="round"
     stroke-linejoin="round"
     id="path9866"
     style="fill:none;stroke-width:4.99995;stroke-dasharray:none;stroke:#f5b324;stroke-opacity:1" />
</svg>
