<?xml version="1.0" encoding="UTF-8"?>
<svg width="16px" height="16px" viewBox="0 0 16 16" version="1.1" xmlns="http://www.w3.org/2000/svg" xmlns:xlink="http://www.w3.org/1999/xlink">
    <title>mercurial</title>
    <g id="mercurial" stroke="none" stroke-width="1" fill="none" fill-rule="evenodd">
        <path d="M14.4892546,8.4732826 C14.4227953,9.57148746 14.1569579,10.6010545 13.6252833,11.4247082 C11.2992067,15.4743386 8.30853672,14.8565984 8.24207739,13.3465667 C8.24207739,13.1406533 8.24207739,12.9347399 8.30853672,12.7288264 C8.44145539,12.0424484 8.97313004,11.2187948 9.17250804,10.4637789 C9.37188603,9.64012527 9.03958937,8.95374723 7.44456541,8.4732826 C4.85265146,7.71826676 3.98868015,5.45321923 4.78619213,3.73727414 C5.25140746,2.70770708 6.31475677,1.74677783 8.10915873,1.54086441 C12.0967186,1.06039979 14.6886326,4.9041168 14.4892546,8.4732826 Z M6.39705858,11.5686232 C6.44665368,11.7124155 6.44665368,11.808277 6.49624877,11.9041385 C6.54584387,12.6230998 6.099488,13.2461996 5.40515664,13.4379227 C4.61163509,13.6775764 3.76851845,13.1982689 3.57013806,12.4313768 C3.52054296,12.2396538 3.47094786,12.0479308 3.52054296,11.8562077 C3.57013806,11.2331079 3.96689883,10.7058696 4.61163509,10.5620773 C5.40515664,10.3224236 6.19867819,10.8017311 6.39705858,11.5686232 Z M2.42307692,6.99490164 C2.93589744,6.93564962 3.34615385,7.29116174 3.44871795,7.88368195 C3.5,7.94293397 3.5,8.00218599 3.5,8.06143801 L3.5,8.29844609 C3.5,8.8909663 3.14102564,9.36498247 2.57692308,9.48348651 C2.06410256,9.54273853 1.55128205,9.06872236 1.5,8.41695014 L1.5,8.12069003 C1.55128205,7.52816983 1.91025641,7.05415366 2.42307692,6.99490164 Z" id="Combined-Shape" stroke="#4C4F69" fill-rule="nonzero"></path>
    </g>
</svg>