<?xml version="1.0" encoding="UTF-8" standalone="no"?>
<!-- Created with Inkscape (http://www.inkscape.org/) -->

<svg
   width="100.0px"
   height="100.0px"
   viewBox="0 0 100.0 100.0"
   version="1.1"
   id="SVGRoot"
   sodipodi:docname="meson.svg"
   inkscape:version="1.2.1 (9c6d41e410, 2022-07-14)"
   xmlns:inkscape="http://www.inkscape.org/namespaces/inkscape"
   xmlns:sodipodi="http://sodipodi.sourceforge.net/DTD/sodipodi-0.dtd"
   xmlns="http://www.w3.org/2000/svg"
   xmlns:svg="http://www.w3.org/2000/svg">
  <defs
     id="defs8354" />
  <sodipodi:namedview
     id="namedview32486"
     pagecolor="#181825"
     bordercolor="#000000"
     borderopacity="0.24705882"
     inkscape:showpageshadow="2"
     inkscape:pageopacity="0"
     inkscape:pagecheckerboard="0"
     inkscape:deskcolor="#313244"
     inkscape:document-units="px"
     showgrid="true"
     inkscape:zoom="3.445"
     inkscape:cx="5.6603774"
     inkscape:cy="23.802612"
     inkscape:window-width="1920"
     inkscape:window-height="1017"
     inkscape:window-x="-8"
     inkscape:window-y="-8"
     inkscape:window-maximized="1"
     inkscape:current-layer="SVGRoot"
     showborder="false"
     showguides="false">
    <inkscape:grid
       type="xygrid"
       id="grid32609" />
  </sodipodi:namedview>
  <path
     fill="currentColor"
     d="M 97.267357,84.508744 C 97.228957,51.029092 79.360802,19.985184 50.379854,3.2625287 l -0.0047,-3.7e-4 C 21.081956,19.802761 2.8991853,50.793677 2.7326419,84.454091 33.381611,101.16437 69.377139,100.47327 97.267247,84.508921 Z M 66.151624,39.100745 c 4.343422,2.951621 3.699035,10.056671 2.999441,14.922435 -0.889955,5.359669 -6.026581,14.172806 -12.702719,19.922982 0.864106,1.238181 1.362629,2.763108 1.355798,4.38995 C 53.667148,80.427139 49.564676,78.068757 44.599949,73.817101 39.63522,69.565443 34.280168,61.045512 32.503027,52.290169 c -1.576069,0.166735 -3.189066,-0.184638 -4.573481,-1.057976 0.361338,-4.909338 5.572003,-7.827725 10.189983,-9.549102 4.617794,-1.721381 16.515859,-2.301513 24.903959,0.680389 a 7.1462253,7.1462253 0 0 1 3.128319,-3.257751 v -0.005 z"
     id="path2"
     style="fill:none;stroke:#39207c;stroke-width:5;stroke-linecap:round;stroke-linejoin:round;stroke-dasharray:none;stroke-opacity:1" />
</svg>
