<?xml version="1.0" encoding="UTF-8"?>
<svg width="16px" height="16px" viewBox="0 0 16 16" version="1.1" xmlns="http://www.w3.org/2000/svg" xmlns:xlink="http://www.w3.org/1999/xlink">
    <title>meson</title>
    <g id="meson" stroke="none" stroke-width="1" fill="none" fill-rule="evenodd" stroke-linecap="round" stroke-linejoin="round">
        <path d="M8,1.5 C4,3.75 1.5,8 1.5,12.74 C5,15 11,15 14.5,12.75 C14.5,8 12,3.75 8,1.5 Z" id="Path" stroke="#8839EF"></path>
        <path d="M10.4336193,8.55133603 C10.3163052,9.28842533 9.63904707,10.5003597 8.75905962,11.2910805 C8.87685988,11.4682824 8.93928805,11.6791358 8.93779883,11.8947786 C8.39248606,12.1823259 7.85165495,11.8580616 7.19733235,11.2733408 C6.54287793,10.68862 5.83701622,9.51711554 5.60278349,8.31301965 C5.39188716,8.33666977 5.17950981,8.28540868 5,8.16752703 C5.04745289,7.49232022 5.73446526,7.09104661 6.34318036,6.85438043 C6.95176365,6.61771426 8.5200816,6.5379546 9.6257339,6.94789176 C9.71318734,6.75600258 9.85789954,6.59885326 10.0381786,6.5 C10.610645,6.90512408 10.525757,7.88217996 10.4336193,8.55133603 Z" id="Path" stroke="#8839EF"></path>
    </g>
</svg>