<?xml version="1.0" encoding="UTF-8"?>
<svg width="16px" height="16px" viewBox="0 0 16 16" version="1.1" xmlns="http://www.w3.org/2000/svg" xmlns:xlink="http://www.w3.org/1999/xlink">
    <title>mint</title>
    <g id="mint" stroke="none" stroke-width="1" fill="none" fill-rule="evenodd">
        <path d="M5.5,13.5 C8.5,13.25 13.5,10.5 14.75,5.25 C13.2764877,5.63540089 12.3148653,5.66780792 11.2663296,5.50314087" id="Path" stroke="#179299" fill-rule="nonzero"></path>
        <path d="M1.5,10.25 C3.06084964,8.77399659 3,7.75 7,6.5 C3.25,7.75 3.00487012,9.18033086 2.25,10.25 C1.49512988,11.3196025 2.46783254,13.1675586 4.25721077,13.4410259 C6.04658899,13.7145598 7.05102916,12.9859582 7.77613628,12.2978899 C10.1231438,10.0708181 8.97059633,6.28427425 13.5,3 C6.00820227,1.38032959 3.06647278,4.04839896 2.5,4.5 C-0.546681893,6.92867228 0.545022519,11.1662688 1.5,10.25 Z" id="Path" stroke="#40A02B" fill-rule="nonzero"></path>
    </g>
</svg>