<?xml version="1.0" encoding="UTF-8"?>
<svg width="16px" height="16px" viewBox="0 0 16 16" version="1.1" xmlns="http://www.w3.org/2000/svg" xmlns:xlink="http://www.w3.org/1999/xlink">
    <title>mjml</title>
    <g id="mjml" stroke="none" stroke-width="1" fill="none" fill-rule="evenodd">
        <path d="M13.5,4.5 C14.0522847,4.5 14.5,4.05228475 14.5,3.5 C14.5,2.94771525 14.0522847,2.5 13.5,2.5 C12.9477153,2.5 12.5,2.94771525 12.5,3.5 C12.5,4.05228475 12.9477153,4.5 13.5,4.5 Z M2.5,2.5 L9.5,2.5 C10.0522847,2.5 10.5,2.94771525 10.5,3.5 C10.5,4.05228475 10.0522847,4.5 9.5,4.5 L2.5,4.5 C1.94771525,4.5 1.5,4.05228475 1.5,3.5 C1.5,2.94771525 1.94771525,2.5 2.5,2.5 Z M13.5,14.5 C14.0522847,14.5 14.5,14.0522847 14.5,13.5 C14.5,12.9477153 14.0522847,12.5 13.5,12.5 C12.9477153,12.5 12.5,12.9477153 12.5,13.5 C12.5,14.0522847 12.9477153,14.5 13.5,14.5 Z M2.5,12.5 L9.5,12.5 C10.0522847,12.5 10.5,12.9477153 10.5,13.5 C10.5,14.0522847 10.0522847,14.5 9.5,14.5 L2.5,14.5 C1.94771525,14.5 1.5,14.0522847 1.5,13.5 C1.5,12.9477153 1.94771525,12.5 2.5,12.5 Z M2.5,9.5 C3.05228475,9.5 3.5,9.05228475 3.5,8.5 C3.5,7.94771525 3.05228475,7.5 2.5,7.5 C1.94771525,7.5 1.5,7.94771525 1.5,8.5 C1.5,9.05228475 1.94771525,9.5 2.5,9.5 Z M6.5,7.5 L13.5,7.5 C14.0522847,7.5 14.5,7.94771525 14.5,8.5 C14.5,9.05228475 14.0522847,9.5 13.5,9.5 L6.5,9.5 C5.94771525,9.5 5.5,9.05228475 5.5,8.5 C5.5,7.94771525 5.94771525,7.5 6.5,7.5 Z" id="Combined-Shape" stroke="#FE640B"></path>
    </g>
</svg>