<?xml version="1.0" encoding="UTF-8"?>
<svg width="16px" height="16px" viewBox="0 0 16 16" version="1.1" xmlns="http://www.w3.org/2000/svg" xmlns:xlink="http://www.w3.org/1999/xlink">
    <title>native_script</title>
    <g id="native_script" stroke="none" stroke-width="1" fill="none" fill-rule="evenodd" stroke-linecap="round" stroke-linejoin="round">
        <path d="M4.5,10.75 C4.5,11.25 4.75,11.5 5.25,11.5 L6.5,11.5 L6.5,8 L9.5,11.5 L10.75,11.5 C11.25,11.5 11.5,11.25 11.5,10.75 L11.5,9.25 C11.5,8.75 11.9166667,8.33333333 12.75,8 C11.9166667,7.66666667 11.5,7.25 11.5,6.75 L11.5,5.25 C11.5,4.75 11.25,4.5 10.75,4.5 L9.5,4.5 L9.5,8 L6.5,4.5 L5.25,4.5 C4.75,4.5 4.5,4.75 4.5,5.25 C4.5,5.97084921 4.5,6.34967346 4.5,6.75 C4.5,7.25 4.08333333,7.66666667 3.25,8 C4.08333333,8.33333333 4.5,8.75 4.5,9.25 L4.5,10.75 Z M4,1.5 L12,1.5 C13.3807119,1.5 14.5,2.61928813 14.5,4 L14.5,12 C14.5,13.3807119 13.3807119,14.5 12,14.5 L4,14.5 C2.61928813,14.5 1.5,13.3807119 1.5,12 L1.5,4 C1.5,2.61928813 2.61928813,1.5 4,1.5 Z" id="Combined-Shape" stroke="#04A5E5"></path>
    </g>
</svg>