<?xml version="1.0" encoding="UTF-8"?>
<svg width="16px" height="16px" viewBox="0 0 16 16" version="1.1" xmlns="http://www.w3.org/2000/svg" xmlns:xlink="http://www.w3.org/1999/xlink">
    <title>nest</title>
    <g id="nest" stroke="none" stroke-width="1" fill="none" fill-rule="evenodd" stroke-linecap="square" stroke-linejoin="round">
        <path d="M11.494408,15.5 L12,12.0263034 C10.5,16 8.33683224,15.2837841 7.51924914,15.5 C7.28793409,15.561173 9.19379764,15.02297 10,13.5 C9.09597377,13.8333333 8.43572348,14 8.01924914,14 C9.4363429,12.7675027 9.93468141,11.600836 9.51426466,10.5 C9.18484508,12.8288574 4.90783699,14.611653 3.99453319,12.5558265 C3.38566399,11.1852755 3.70706282,10.3284995 4.95872967,9.98549848 C4.95872967,11.045215 5.47248645,11.5750732 6.5,11.5750732 L6.5,10.5 L8.4720459,11.4116211 C8.15734863,8.13720703 6,6.83333333 2,7.5 C1,6.35026042 0.5,5.51692708 0.5,5 C0.5,4.22460937 0.753295898,4 1.5,4 C2.2467041,4 2.5,3.9765625 3.52928979,2.9473509 C5.08666992,1.46362305 7.10192871,1.09875488 9.51426466,2.56842262 C9.28690007,1.93809074 9.63682476,1.24861654 10.5640387,0.5 C12.0406333,1.22843424 12.6859538,2.22843424 12.5,3.5 C12.3140462,4.77156576 11.4807129,5.43823242 10,5.5 C10.4858914,5.87106789 11.1525581,5.87106789 12,5.5 C12.8474419,5.12893211 13.3405502,4.46226545 13.4793247,3.5 C14.8264416,5.16666667 15.5,6.83333333 15.5,8.5 C15.5,10.1666667 15.1517247,11.5186088 14.4551742,12.5558265 L13.9551742,10.5 C12.9793247,14 12.3954201,14.7987531 11.494408,15.5 Z" id="Line" stroke="#D20F39"></path>
    </g>
</svg>