<?xml version="1.0" encoding="UTF-8"?>
<svg width="16px" height="16px" viewBox="0 0 16 16" version="1.1" xmlns="http://www.w3.org/2000/svg" xmlns:xlink="http://www.w3.org/1999/xlink">
    <title>nextflow</title>
    <g id="nextflow" stroke="none" stroke-width="1" fill="none" fill-rule="evenodd" stroke-linecap="round" stroke-linejoin="round">
        <path d="M14.5,2.35940214 C12.1039736,2.87978791 10.2950114,3.97678033 8.03969424,6.14676844 C4.69812374,2.23352226 1.88749789,2.01151842 1.5,2 L1.5,4.47399214 C1.66178824,4.49401225 3.70508339,4.80418685 6.3157324,7.95159521 C4.86757707,9.30226712 3.21958179,10.3311089 1.5,10.9673645 L1.5,13.5480391 C3.94598635,12.8240241 6.07277628,11.5232654 7.83136792,9.93029527 C9.54944407,12.1548588 12.1147869,13.5266478 14.5,14 L14.5,11.448807 C13.0497915,11.0792577 11.178961,10.1952189 9.56518489,8.12683975 C11.3846867,6.11385867 12.7659093,5.20061249 14.5,4.79390255 L14.5,2.35940214 Z" id="Path" stroke="#40A02B"></path>
    </g>
</svg>