<svg clip-rule="evenodd" fill-rule="evenodd" height="100" stroke-linecap="round" stroke-linejoin="round" width="100" xmlns="http://www.w3.org/2000/svg"><g fill="none" stroke-width="5"><path d="m2.584 49.998h21.757m8.211-13.804-18.978 32.611" stroke="#7ebae4"/><g stroke="#5277c3"><path d="m97.416 50.281h-9.949"/><path d="m76.671 48.236 9.755-16.763"/><path d="m26.303 9.126 10.878 18.842m16.06.209-37.731-.13"/></g><path d="m73.687 8.95-10.878 18.843m7.849 14.012-18.754-32.741" stroke="#7ebae4"/><path d="m46.554 71.999 8.321.13" stroke="#7ebae4"/><path d="m26.518 90.918 10.879-18.843m-7.849-14.012 18.753 32.741" stroke="#5277c3"/><path d="m70.329 73.289v-8.88c.002-4.87 4.009-8.876 8.879-8.876s8.878 4.006 8.88 8.876v8.88m-23.679 0h29.599c1.623 0 2.96 1.336 2.96 2.959v17.76c0 1.623-1.337 2.96-2.96 2.96h-29.599c-1.624 0-2.96-1.337-2.96-2.96v-17.76c0-1.623 1.336-2.959 2.96-2.959z" stroke="#808080" stroke-linecap="butt" stroke-linejoin="miter"/></g></svg>