<?xml version="1.0" encoding="UTF-8"?>
<svg width="16px" height="16px" viewBox="0 0 16 16" version="1.1" xmlns="http://www.w3.org/2000/svg" xmlns:xlink="http://www.w3.org/1999/xlink">
    <title>npm_lock</title>
    <g id="npm_lock" stroke="none" stroke-width="1" fill="none" fill-rule="evenodd">
        <g id="Lock" transform="translate(9.5018, 8.5011)" stroke="#8C8FA1">
            <path d="M5.49667857,2.999493 C5.77266266,2.999493 5.99639197,3.22324661 5.99639197,3.49926067 L5.99639197,6.49769784 C5.99639197,6.77371191 5.77266266,6.99746551 5.49667857,6.99746551 L0.4997134,6.99746551 C0.22372931,6.99746551 0,6.77371191 0,6.49769784 L0,3.49909183 C0,3.22307777 0.22372931,2.99932416 0.4997134,2.99932416 L5.49667857,2.999493 Z" id="Path"></path>
            <path d="M1.4991402,2.999493 L1.4991402,1.4997465 C1.4991402,0.671459379 2.17052666,-1.77635684e-15 2.99872384,-1.77635684e-15 C3.82692102,-1.77635684e-15 4.49830748,0.671459379 4.49830748,1.4997465 L4.49830748,2.999493" id="Path"></path>
        </g>
        <polyline id="Path" stroke="#4C4F69" stroke-linecap="round" stroke-linejoin="round" points="9.5 9 9.5 5.49731445 7.49719238 5.5 7.5 11.5 3.5 11.5 3.5 3.5 11.5 3.5 11.5 6.5"></polyline>
        <path d="M7.53955078,13.5 L3,13.5 C2.17157288,13.5 1.5,12.8284271 1.5,12 L1.5,3 C1.5,2.17157288 2.17157288,1.5 3,1.5 L12,1.5 C12.8284271,1.5 13.5,2.17157288 13.5,3 L13.5,6.50085449" id="Path" stroke="#D20F39" stroke-linecap="round" stroke-linejoin="round"></path>
    </g>
</svg>