<?xml version="1.0" encoding="UTF-8"?>
<svg width="16px" height="16px" viewBox="0 0 16 16" version="1.1" xmlns="http://www.w3.org/2000/svg" xmlns:xlink="http://www.w3.org/1999/xlink">
    <title>npm_lock</title>
    <g id="npm_lock" stroke="none" stroke-width="1" fill="none" fill-rule="evenodd">
        <path d="M15.0001479,11.5011828 C15.2762086,11.5011828 15.5,11.7249743 15.5,12.001035 L15.5,14.999979 C15.5,15.2760397 15.2762086,15.4998311 15.0001479,15.4998311 L10.0017953,15.4998311 C9.72573457,15.4998311 9.50194314,15.2760397 9.50194314,14.999979 L9.50194314,12.0008661 C9.50194314,11.7248054 9.72573457,11.501014 10.0017953,11.501014 L15.0001479,11.5011828 Z" id="Path" stroke="#8C8FA1"></path>
        <path d="M11.0014996,11.5011828 L11.0014996,10.0011828 C11.0014996,9.17275572 11.6730724,8.50118285 12.5014996,8.50118285 C13.3299267,8.50118285 14.0014996,9.17275572 14.0014996,10.0011828 L14.0014996,11.5011828" id="Path" stroke="#8C8FA1"></path>
        <polyline id="Path" stroke="#4C4F69" stroke-linecap="round" stroke-linejoin="round" points="9.5 9 9.5 5.49731445 7.49719238 5.5 7.5 11.5 3.5 11.5 3.5 3.5 11.5 3.5 11.5 6.5"></polyline>
        <path d="M7.53955078,13.5 L3,13.5 C2.17157288,13.5 1.5,12.8284271 1.5,12 L1.5,3 C1.5,2.17157288 2.17157288,1.5 3,1.5 L12,1.5 C12.8284271,1.5 13.5,2.17157288 13.5,3 L13.5,6.50085449" id="Path" stroke="#D20F39" stroke-linecap="round" stroke-linejoin="round"></path>
    </g>
</svg>