<?xml version="1.0" encoding="UTF-8" standalone="no"?>
<!-- Created with Inkscape (http://www.inkscape.org/) -->

<svg
   width="100.0px"
   height="100.0px"
   viewBox="0 0 100.0 100.0"
   version="1.1"
   id="SVGRoot"
   sodipodi:docname="npm_lock.svg"
   inkscape:version="1.2.1 (9c6d41e410, 2022-07-14)"
   xmlns:inkscape="http://www.inkscape.org/namespaces/inkscape"
   xmlns:sodipodi="http://sodipodi.sourceforge.net/DTD/sodipodi-0.dtd"
   xmlns="http://www.w3.org/2000/svg"
   xmlns:svg="http://www.w3.org/2000/svg">
  <defs
     id="defs44872" />
  <sodipodi:namedview
     id="namedview32486"
     pagecolor="#181825"
     bordercolor="#000000"
     borderopacity="0.24705882"
     inkscape:showpageshadow="2"
     inkscape:pageopacity="0"
     inkscape:pagecheckerboard="0"
     inkscape:deskcolor="#313244"
     inkscape:document-units="px"
     showgrid="true"
     inkscape:zoom="4.0000002"
     inkscape:cx="16.249999"
     inkscape:cy="19.749999"
     inkscape:window-width="1920"
     inkscape:window-height="1017"
     inkscape:window-x="-8"
     inkscape:window-y="-8"
     inkscape:window-maximized="1"
     inkscape:current-layer="SVGRoot"
     showborder="false">
    <inkscape:grid
       type="xygrid"
       id="grid32609" />
  </sodipodi:namedview>
  <path
     fill="none"
     stroke="currentColor"
     d="m 70.735012,73.694869 v -8.879591 a 8.8795921,8.8795921 0 0 1 17.759183,0 v 8.879591 m -23.678915,0 h 29.598647 a 2.9598638,2.9598638 0 0 1 2.959856,2.959866 v 17.75918 a 2.9598638,2.9598638 0 0 1 -2.959856,2.959868 H 64.81528 a 2.9598638,2.9598638 0 0 1 -2.959859,-2.959868 v -17.75918 a 2.9598638,2.9598638 0 0 1 2.959859,-2.959866 z"
     id="path28745"
     style="stroke:#808080;stroke-width:5;stroke-dasharray:none;stroke-opacity:1" />
  <path
     fill="currentColor"
     d="M 87.872604,47.360547 V 8.8882758 c 0,-3.4702387 -2.791816,-6.2620589 -6.262065,-6.2620589 H 8.8882758 c -3.4702387,0 -6.2620589,2.7918202 -6.2620589,6.2620589 V 81.610545 c 0,3.470237 2.7918202,6.262058 6.2620589,6.262058 H 51.610541"
     id="path24724"
     style="fill:none;stroke:#960000;stroke-width:5;stroke-linecap:round;stroke-linejoin:round;stroke-dasharray:none;stroke-opacity:1"
     sodipodi:nodetypes="cssssssc" />
  <path
     d="M 57.518468,66.731945 57.554018,32.98079 H 45.278544 l -0.02841,36.847749 H 20.645895 l 0.06031,-49.183615 49.148086,0.06748 -0.03192,28.894542"
     style="display:inline;fill:none;stroke:#ffffff;stroke-width:5;stroke-linecap:round;stroke-linejoin:round;stroke-dasharray:none;stroke-opacity:1"
     id="path25242"
     sodipodi:nodetypes="cccccccc" />
</svg>
