<?xml version="1.0" encoding="UTF-8"?>
<svg width="16px" height="16px" viewBox="0 0 16 16" version="1.1" xmlns="http://www.w3.org/2000/svg" xmlns:xlink="http://www.w3.org/1999/xlink">
    <title>npm_ignore</title>
    <g id="npm_ignore" stroke="none" stroke-width="1" fill="none" fill-rule="evenodd" stroke-linecap="round" stroke-linejoin="round">
        <path d="M2.45496072,1.5 C2.20150263,1.49938957 1.95824889,1.59980399 1.77902644,1.77902644 C1.59980399,1.95824889 1.49938957,2.20150263 1.5,2.45496072 L1.5,13.5450393 C1.49938957,13.7984974 1.59980399,14.0417511 1.77902644,14.2209736 C1.95824889,14.400196 2.20150263,14.5006104 2.45496072,14.5 L13.5450393,14.5 C13.7984974,14.5006104 14.0417511,14.400196 14.2209736,14.2209736 C14.400196,14.0417511 14.5006104,13.7984974 14.5,13.5450393 L14.5,2.45496072 C14.5006104,2.20150263 14.400196,1.95824889 14.2209736,1.77902644 C14.0417511,1.59980399 13.7984974,1.49938957 13.5450393,1.5 L2.45496072,1.5 Z" id="Path" stroke="#8C8FA1"></path>
        <polygon id="Path" stroke="#8C8FA1" points="4.5 4.5 11.5 4.5 11.5 11.5 9.5 11.5 9.5 6.49857796 7.5 6.49857796 7.5 11.5 4.5 11.5"></polygon>
    </g>
</svg>