<?xml version="1.0" encoding="UTF-8"?>
<svg width="16px" height="16px" viewBox="0 0 16 16" version="1.1" xmlns="http://www.w3.org/2000/svg" xmlns:xlink="http://www.w3.org/1999/xlink">
    <title>nuget</title>
    <g id="nuget" stroke="none" stroke-width="1" fill="none" fill-rule="evenodd">
        <path d="M5.5,3.5 L12.5,3.5 C13.6045695,3.5 14.5,4.3954305 14.5,5.5 L14.5,12.5 C14.5,13.6045695 13.6045695,14.5 12.5,14.5 L5.5,14.5 C4.3954305,14.5 3.5,13.6045695 3.5,12.5 L3.5,5.5 C3.5,4.3954305 4.3954305,3.5 5.5,3.5 Z M2,2.5 C2.27614237,2.5 2.5,2.27614237 2.5,2 C2.5,1.72385763 2.27614237,1.5 2,1.5 C1.72385763,1.5 1.5,1.72385763 1.5,2 C1.5,2.27614237 1.72385763,2.5 2,2.5 Z M6.5,7.5 C7.05228475,7.5 7.5,7.05228475 7.5,6.5 C7.5,5.94771525 7.05228475,5.5 6.5,5.5 C5.94771525,5.5 5.5,5.94771525 5.5,6.5 C5.5,7.05228475 5.94771525,7.5 6.5,7.5 Z M10.5,12.5 C11.6045695,12.5 12.5,11.6045695 12.5,10.5 C12.5,9.3954305 11.6045695,8.5 10.5,8.5 C9.3954305,8.5 8.5,9.3954305 8.5,10.5 C8.5,11.6045695 9.3954305,12.5 10.5,12.5 Z" id="Combined-Shape" stroke="#1E66F5"></path>
    </g>
</svg>