<?xml version="1.0" encoding="UTF-8" standalone="no"?>
<!-- Created with Inkscape (http://www.inkscape.org/) -->

<svg
   width="100.0px"
   height="100.0px"
   viewBox="0 0 100.0 100.0"
   version="1.1"
   id="SVGRoot"
   sodipodi:docname="nunjucks.svg"
   inkscape:version="1.2.1 (9c6d41e410, 2022-07-14)"
   xmlns:inkscape="http://www.inkscape.org/namespaces/inkscape"
   xmlns:sodipodi="http://sodipodi.sourceforge.net/DTD/sodipodi-0.dtd"
   xmlns="http://www.w3.org/2000/svg"
   xmlns:svg="http://www.w3.org/2000/svg">
  <defs
     id="defs8354" />
  <sodipodi:namedview
     id="namedview32486"
     pagecolor="#181825"
     bordercolor="#000000"
     borderopacity="0.24705882"
     inkscape:showpageshadow="2"
     inkscape:pageopacity="0"
     inkscape:pagecheckerboard="0"
     inkscape:deskcolor="#313244"
     inkscape:document-units="px"
     showgrid="true"
     inkscape:zoom="4.8719657"
     inkscape:cx="17.549385"
     inkscape:cy="39.409144"
     inkscape:window-width="1920"
     inkscape:window-height="1017"
     inkscape:window-x="1912"
     inkscape:window-y="-8"
     inkscape:window-maximized="1"
     inkscape:current-layer="SVGRoot"
     showborder="false"
     showguides="false">
    <inkscape:grid
       type="xygrid"
       id="grid32609" />
  </sodipodi:namedview>
  <path
     fill="currentColor"
     d="M 30.100824,41.775005 V 4.0992395 H 46.020163 V 95.900761 H 30.100824 C 26.386313,82.634642 22.6718,69.368524 18.426644,56.102411 v 39.79835 H 2.507304 V 4.0992395 h 15.91934 C 22.6718,16.304063 26.386313,29.039535 30.100824,41.775005 Z M 97.492696,25.325024 v 61.554773 c 0,1.06129 -0.53065,3.714515 -2.65323,5.837093 -2.12258,2.12258 -4.24516,2.65322 -4.7758,3.18387 H 63.000791 c -1.061291,0 -3.714514,-0.53065 -5.306448,-2.65322 -2.122578,-2.12258 -2.653222,-4.775811 -3.183866,-6.367743 V 66.715305 c 5.306446,-1.061291 10.612891,-2.653226 15.91934,-3.714512 v 16.449981 h 11.143532 v -54.12575 z"
     id="path235"
     style="fill:none;stroke:#1c4913;stroke-width:5;stroke-linecap:round;stroke-linejoin:round;stroke-dasharray:none;stroke-opacity:1"
     sodipodi:nodetypes="ccccccccccccsscscccccccc" />
</svg>
