<?xml version="1.0" encoding="UTF-8" standalone="no"?>
<!-- Created with Inkscape (http://www.inkscape.org/) -->

<svg
   width="100.0px"
   height="100.0px"
   viewBox="0 0 100.0 100.0"
   version="1.1"
   id="SVGRoot"
   sodipodi:docname="nuxt_ignore.svg"
   inkscape:version="1.2.1 (9c6d41e410, 2022-07-14)"
   xmlns:inkscape="http://www.inkscape.org/namespaces/inkscape"
   xmlns:sodipodi="http://sodipodi.sourceforge.net/DTD/sodipodi-0.dtd"
   xmlns="http://www.w3.org/2000/svg"
   xmlns:svg="http://www.w3.org/2000/svg">
  <defs
     id="defs8354" />
  <sodipodi:namedview
     id="namedview32486"
     pagecolor="#181825"
     bordercolor="#000000"
     borderopacity="0.24705882"
     inkscape:showpageshadow="2"
     inkscape:pageopacity="0"
     inkscape:pagecheckerboard="0"
     inkscape:deskcolor="#313244"
     inkscape:document-units="px"
     showgrid="true"
     inkscape:zoom="5.6568543"
     inkscape:cx="40.835416"
     inkscape:cy="40.305086"
     inkscape:window-width="1920"
     inkscape:window-height="1017"
     inkscape:window-x="1912"
     inkscape:window-y="-8"
     inkscape:window-maximized="1"
     inkscape:current-layer="SVGRoot"
     showborder="false"
     showguides="false">
    <inkscape:grid
       type="xygrid"
       id="grid32609" />
  </sodipodi:namedview>
  <path
     fill="#00dc82"
     d="M 56.100788,82.622855 H 93.27502 c 1.18086,0 2.34061,-0.301173 3.36328,-0.87383 A 6.6261725,6.6261725 0 0 0 99.10001,79.360353 6.3765631,6.3765631 0 0 0 100,76.097853 c 0,-1.145312 -0.31211,-2.269922 -0.90312,-3.261719 L 74.132038,30.892771 A 6.6273443,6.6273443 0 0 0 71.67071,28.50488 6.8851569,6.8851569 0 0 0 68.308208,27.630663 c -1.180861,0 -2.340229,0.301561 -3.362892,0.874217 a 6.6265632,6.6265632 0 0 0 -2.460938,2.387891 L 56.100788,41.624414 43.620327,20.638474 A 6.6300788,6.6300788 0 0 0 41.15781,18.250973 6.8898443,6.8898443 0 0 0 37.794528,17.377145 c -1.180471,0 -2.340618,0.301563 -3.363281,0.873828 A 6.6300788,6.6300788 0 0 0 31.96914,20.638474 L 0.902344,72.836134 A 6.3679693,6.3679693 0 0 0 0,76.097853 c 0,1.145312 0.309771,2.270703 0.900006,3.2625 a 6.6265632,6.6265632 0 0 0 2.461717,2.388672 6.8859382,6.8859382 0 0 0 3.363282,0.87383 H 30.05976 c 9.245722,0 16.063689,-3.939063 20.755487,-11.624221 L 62.205472,51.864649 68.30626,41.624414 86.61642,72.38301 H 62.205472 Z M 29.678909,72.372853 13.394535,72.368956 37.805479,31.359968 49.985542,51.864657 41.830466,65.569346 c -3.115609,4.986328 -6.655073,6.803125 -12.151167,6.803125 z"
     id="path34342"
     style="display:none;stroke-width:0.390625" />
  <path
     style="fill:none;stroke:#808080;stroke-width:5;stroke-linecap:round;stroke-linejoin:round;stroke-dasharray:none;stroke-opacity:1;paint-order:fill markers stroke"
     d="M 61.801175,79.327586 H 97.469991 L 68.802831,32.033379 c 0,0 -22.320532,35.663311 -22.557223,36.065136 -0.236691,0.401824 -0.736423,1.423959 -1.420147,2.410947 -0.683724,0.986989 -1.835285,2.555968 -2.675161,3.500829 -0.839876,0.944861 -1.436573,1.550474 -2.344895,2.146734 -0.908322,0.59626 -1.969998,1.032814 -3.038454,1.387121 -1.068456,0.354307 -2.221243,0.561074 -3.335695,0.726587 -1.114452,0.165513 -2.779746,0.220177 -3.335695,0.264213 -0.277975,0.02201 -14.745871,0.01652 -22.9528486,0.01652 -6.33965247,0.190075 -4.9131845,-2.81766 -2.7947907,-6.110307 L 36.700897,20.672201 55.592159,49.471467"
     id="path34906"
     sodipodi:nodetypes="ccczzzzzzscccc" />
</svg>
