<?xml version="1.0" encoding="UTF-8"?>
<svg width="16px" height="16px" viewBox="0 0 16 16" version="1.1" xmlns="http://www.w3.org/2000/svg" xmlns:xlink="http://www.w3.org/1999/xlink">
    <title>nx</title>
    <g id="nx" stroke="none" stroke-width="1" fill="none" fill-rule="evenodd" stroke-linecap="round" stroke-linejoin="round">
        <path d="M0.5,3.5 L0.5,13.5 L2.5,13.5 L2.5,7.59393015 L6.5,13.4996609 L8.5,13.4996609 L9.55,12 L10.5,13.4996609 L12.5,13.4996609 L10.5,10 C10.5,10 10.4386751,8.98931841 11.3369471,8.45608681 C12.2353772,7.92302475 12.9043401,8.45608681 12.9043401,8.45608681 C12.9043401,8.45608681 13.3057495,8.78416412 13.4013608,9.07138013 C13.4969721,9.35842659 13.8792592,9.41997287 14.1085683,9.5428959 C14.3378773,9.66598847 14.5289419,9.76839607 14.5864667,10.1376738 C14.6436754,10.506782 15.0833293,10.7734825 15.427372,10.363174 C15.7714146,9.95303493 14.8922648,6.91810783 12.8087288,6.54899966 C10.7253509,6.17989149 9.32120826,7.86080027 9.32120826,7.86080027 L8.5,6.3228213 L8.5,3.5 L6.5,3.5 L6.5,9.5 L2.5,3.5 L0.5,3.5 Z" id="Path" stroke="#209FB5"></path>
        <line x1="6.667458" y1="5.53577484" x2="8.5" y2="5.5" id="Path" stroke="#209FB5"></line>
        <polyline id="Path" stroke="#209FB5" points="6.5 13.5 8.5 10 6.5 6.5"></polyline>
    </g>
</svg>