<?xml version="1.0" encoding="UTF-8"?>
<svg width="16px" height="16px" viewBox="0 0 16 16" version="1.1" xmlns="http://www.w3.org/2000/svg" xmlns:xlink="http://www.w3.org/1999/xlink">
    <title>ocaml</title>
    <g id="ocaml" stroke="none" stroke-width="1" fill="none" fill-rule="evenodd">
        <path d="M1.5,8 L1.5,3 C1.5,2.17157288 2.17157288,1.5 3,1.5 L13,1.5 C13.8284271,1.5 14.5,2.17157288 14.5,3 L14.5,13 C14.5,13.8284271 13.8284271,14.5 13,14.5 L9,14.5 L9,14.5" id="Path" stroke="#FE640B"></path>
        <path d="M1.50013683,8 C2.19531742,6.61496989 2.57457479,5.84945679 2.63790894,5.70346069 C2.70124308,5.5574646 2.82185872,5.47773722 2.99975586,5.46427854 C3.18001512,5.46796776 3.32769985,5.509243 3.44281006,5.58810425 C3.61547537,5.70639612 3.66775513,6.11505127 3.72494507,6.22631836 C3.78213501,6.33758545 4.36425948,7.45822144 4.57095337,7.45822144 C4.77764726,7.45822144 5.28375244,5.98773193 5.28375244,5.98773193 C5.28375244,5.98773193 5.64706421,5.5 5.99737549,5.5 C6.34768677,5.5 6.55474854,5.82403564 6.67486572,5.98773193 C6.79498291,6.15142822 6.91364759,7.75 7.13360596,8 C7.35356432,8.25 8.45080566,8.86663818 8.79754639,8.73370361 C9.14428711,8.60076904 9.33383179,8.33685303 9.42840576,7.99917603 C9.52297974,7.66149902 9.29431152,7.2489624 9.42840576,7.00842285 C9.5625,6.7678833 9.89096069,6.42428589 10.4521179,6.4513855 C11.0132751,6.47848511 12.5,7.01312256 12.5,7.5 C12.5,8 12,8.25 11,8.25 C10.5177991,9.58214667 11.2822876,10.4659424 8,10.5 L9.00854492,14.5" id="Line" stroke="#FE640B" stroke-linecap="round" stroke-linejoin="round"></path>
        <polygon id="Line-2" stroke="#FE640B" stroke-linecap="round" stroke-linejoin="round" points="4.5 14.5 6 10.5 7.00006841 14.5"></polygon>
        <path d="M2.5,14.5 L4,10.5 L2.5,10 C1.83333333,11.0244141 1.5,11.5366211 1.5,11.5366211 C1.5,11.5366211 1.5,12.3609823 1.5,14.0097046 L2.5,14.5 Z" id="Line-11" stroke="#FE640B" stroke-linecap="round" stroke-linejoin="round"></path>
    </g>
</svg>