<?xml version="1.0" encoding="UTF-8" standalone="no"?>
<!-- Created with Inkscape (http://www.inkscape.org/) -->

<svg
   width="100.0px"
   height="100.0px"
   viewBox="0 0 100.0 100.0"
   version="1.1"
   id="SVGRoot"
   sodipodi:docname="ocaml.svg"
   inkscape:version="1.2.1 (9c6d41e410, 2022-07-14)"
   xmlns:inkscape="http://www.inkscape.org/namespaces/inkscape"
   xmlns:sodipodi="http://sodipodi.sourceforge.net/DTD/sodipodi-0.dtd"
   xmlns="http://www.w3.org/2000/svg"
   xmlns:svg="http://www.w3.org/2000/svg">
  <defs
     id="defs8354" />
  <sodipodi:namedview
     id="namedview32486"
     pagecolor="#181825"
     bordercolor="#000000"
     borderopacity="0.24705882"
     inkscape:showpageshadow="2"
     inkscape:pageopacity="0"
     inkscape:pagecheckerboard="0"
     inkscape:deskcolor="#313244"
     inkscape:document-units="px"
     showgrid="true"
     inkscape:zoom="1.7225"
     inkscape:cx="110.01451"
     inkscape:cy="34.25254"
     inkscape:window-width="1920"
     inkscape:window-height="1017"
     inkscape:window-x="1912"
     inkscape:window-y="-8"
     inkscape:window-maximized="1"
     inkscape:current-layer="SVGRoot"
     showborder="false"
     showguides="false">
    <inkscape:grid
       type="xygrid"
       id="grid32609" />
  </sodipodi:namedview>
  <path
     fill="currentColor"
     d="M 45.274695,91.332636 C 44.932314,90.668671 43.596142,87.977433 42.944921,86.2222 40.82386,80.50531 40.428346,74.17698 37.840148,68.655842 37.352305,67.615176 36.31687,65.736629 35.910616,65.798273 c -2.308512,1.026081 -3.918705,4.527156 -5.049361,6.257843 -0.934542,1.430496 -1.815122,2.899079 -2.614289,4.409384 -1.639481,3.098374 -3.087086,6.410079 -3.808308,9.482832 -0.286805,1.221927 -0.738691,3.645338 -0.824626,4.468055 l 5.221005,-0.108039 c 4.890652,0.342386 8.632035,1.372491 16.185995,0.984058 M 85.459281,8.6362254 H 14.467946 C 7.8616668,8.6184005 2.4949457,13.985864 2.4949457,20.592145 v 26.072339 c 1.746821,-0.603069 4.1427575,-4.270501 4.9522959,-5.149854 1.3286834,-1.531438 1.604223,-3.542658 2.2719069,-4.736913 1.5314375,-2.817046 1.8069785,-4.810443 5.2738825,-4.810443 1.607194,0 2.274879,0.383232 3.342132,1.868625 0.739726,0.98927 2.072122,2.938847 2.675191,4.2096 0.745666,1.470537 1.873822,3.403032 2.416733,3.806315 0.382488,0.260688 0.721899,0.536227 1.064282,0.66397 0.525086,0.200529 1.007096,-0.200527 1.412608,-0.467155 0.461957,-0.400314 0.664712,-1.128897 1.128899,-2.19318 0.664712,-1.549265 1.346507,-3.281231 1.731966,-3.945201 0.678824,-1.085079 0.945452,-2.416733 1.671065,-3.020545 1.085079,-0.925399 2.555617,-1.006353 2.938849,-1.067254 2.213232,-0.464184 3.220328,1.067254 4.290554,2.010479 0.722643,0.663969 1.665867,1.934722 2.410791,3.602817 0.525828,1.331654 1.19277,2.614289 1.535152,3.342131 0.260687,0.727842 0.940253,1.935466 1.328682,3.403034 0.403285,1.270752 1.343539,2.277848 1.746821,2.941818 0,0 0.603069,1.607194 4.067003,3.078474 1.047552,0.446445 2.123314,0.823557 3.22033,1.128898 1.53441,0.545139 3.394497,0.954967 4.874313,0.277769 1.329841,-0.608567 2.058616,-2.151554 2.674448,-3.478046 0.614236,-1.323054 0.719921,-2.832729 0.92837,-4.276442 0.09311,-0.644908 -0.06557,-1.33213 0.142598,-1.949577 0.220118,-0.652889 0.581362,-1.312761 1.128155,-1.731967 1.824842,-1.399037 4.261531,-2.053118 6.55949,-2.135251 1.561334,-0.05581 3.015387,0.830778 4.549011,1.128898 1.72375,0.335079 3.536394,0.226485 5.215959,0.738982 1.369526,0.417893 3.026199,0.714104 3.864988,1.874564 0.801179,1.108426 1.231459,2.885742 0.542171,4.067003 -0.363968,0.623747 -1.315412,0.611337 -2.010486,0.807311 -0.89031,0.251023 -1.839295,0.236688 -2.736095,0.463441 -1.958438,0.495186 -4.27283,0.55897 -5.738061,1.949577 -1.231797,1.169061 -1.051977,3.253892 -1.888673,4.731717 -1.40895,2.488579 -1.674037,4.230395 -5.195905,6.82686 -0.949166,0.678825 -2.759116,2.271165 -6.623362,2.874976 -1.749792,0.263657 -3.476736,0.228359 -5.216697,0.200529 -0.964223,-0.01542 -1.906372,-0.170293 -2.885872,-0.203526 -0.609265,-0.02067 -1.393199,-0.05808 -1.781952,0.411492 -0.439535,0.530917 -0.155259,1.380927 -0.08098,2.066161 0.923355,8.517173 3.52054,18.689769 6.486707,24.869178 v 0.05788 c 1.731966,-0.26143 3.54266,-0.926143 5.819765,-1.250705 4.20663,-0.617918 10.026399,-0.342376 13.769584,-0.678815 9.50353,-0.867472 14.63556,3.881325 23.133489,1.931746 V 20.580261 C 97.458255,13.973982 92.088577,8.6213715 85.468194,8.6213715 Z M 19.203684,71.353195 c 0.736022,-1.48315 1.443289,-2.698776 1.171295,-4.090869 C 20.193832,66.3352 19.392635,65.584839 18.626772,65.03182 17.246613,64.035224 15.44829,63.803135 13.820207,63.305759 12.570114,62.923857 11.281418,62.003347 10.019016,62.342346 8.7709857,62.677486 8.0162488,64.013258 7.243743,65.049179 6.7004529,65.777725 6.466633,66.697962 5.9759612,67.462936 5.0502445,68.906159 3.6428655,70.023882 2.8343569,71.535887 2.667313,71.848278 2.6338302,72.20059 2.4949457,72.542976 v 16.103885 c 0.8035965,0.139627 1.643688,0.381301 2.471692,0.542161 2.3712538,0.460674 4.7296816,1.17019 7.1449313,1.210597 0.203073,0.0034 0.440025,0.03846 0.603812,-0.08163 1.632762,-1.197259 1.870942,-3.601861 2.585873,-5.496119 1.6505,-4.373109 1.725559,-9.047029 3.90243,-13.46867 z"
     id="path2"
     style="fill:none;stroke:#e96a0b;stroke-width:4.98989;stroke-linecap:round;stroke-linejoin:round;stroke-dasharray:none;stroke-opacity:1"
     sodipodi:nodetypes="caacssscccccscccsccccccccccccccccaaaaaaaaaaaaaaccasaacccccccccaaaaaaaccaaaac" />
</svg>
