<?xml version="1.0" encoding="UTF-8"?>
<svg width="16px" height="16px" viewBox="0 0 16 16" version="1.1" xmlns="http://www.w3.org/2000/svg" xmlns:xlink="http://www.w3.org/1999/xlink">
    <title>package_json</title>
    <g id="package_json" stroke="none" stroke-width="1" fill="none" fill-rule="evenodd" stroke-linejoin="round">
        <path d="M11.5,7.00020657 L11.5,6.83293568 C11.5,6.09694377 10.9029871,5.5 10.1670796,5.5 L9.00017207,5.5 C8.17175993,5.49972474 7.5,6.17142406 7.5,7.00006889 C7.5,7.82857606 8.17175993,8.50027537 9.00017207,8.5 L10.0001032,8.5 C10.8282401,8.50027537 11.4994494,9.17183702 11.4994494,9.99993117 C11.4994494,10.8283007 10.8282401,11.4997246 10.0001032,11.5 L9.00017207,11.5 C8.17189758,11.5001377 7.50041297,10.828576 7.50041297,10.0000688 M5.5,5 L5.5,10 C5.49988511,10.8208351 5.23423412,11.6330251 4.5,12 L3.25,12.5 M1.5,11.5 L1.5,4.5 L8,0.5 L14.5,4.5 L14.5,11.5 L8,15.5 L1.5,11.5 Z" id="Combined-Shape" stroke="#40A02B"></path>
    </g>
</svg>