<?xml version="1.0" encoding="UTF-8" standalone="no"?>
<!-- Created with Inkscape (http://www.inkscape.org/) -->

<svg
   width="100.0px"
   height="100.0px"
   viewBox="0 0 100.0 100.0"
   version="1.1"
   id="SVGRoot"
   sodipodi:docname="package_json.svg"
   inkscape:version="1.2.1 (9c6d41e410, 2022-07-14)"
   xmlns:inkscape="http://www.inkscape.org/namespaces/inkscape"
   xmlns:sodipodi="http://sodipodi.sourceforge.net/DTD/sodipodi-0.dtd"
   xmlns="http://www.w3.org/2000/svg"
   xmlns:svg="http://www.w3.org/2000/svg">
  <defs
     id="defs8354" />
  <sodipodi:namedview
     id="namedview32486"
     pagecolor="#181825"
     bordercolor="#000000"
     borderopacity="0.24705882"
     inkscape:showpageshadow="2"
     inkscape:pageopacity="0"
     inkscape:pagecheckerboard="0"
     inkscape:deskcolor="#313244"
     inkscape:document-units="px"
     showgrid="true"
     inkscape:zoom="1.4142136"
     inkscape:cx="-222.73864"
     inkscape:cy="-32.526912"
     inkscape:window-width="1920"
     inkscape:window-height="1017"
     inkscape:window-x="1912"
     inkscape:window-y="-8"
     inkscape:window-maximized="1"
     inkscape:current-layer="SVGRoot"
     showborder="false"
     showguides="false">
    <inkscape:grid
       type="xygrid"
       id="grid32609" />
  </sodipodi:namedview>
  <path
     fill="none"
     stroke="currentColor"
     d="m 77.054609,39.104518 v -1.213032 c 0,-5.346049 -4.336401,-9.682451 -9.68244,-9.682451 h -8.476684 c -6.018702,-0.0018 -10.898779,4.876784 -10.898779,10.895482 0,6.018699 4.880077,10.897306 10.898779,10.895483 h 7.263648 c 6.016124,0.0018 10.892177,4.879363 10.892177,10.895482 0,6.01612 -4.876053,10.89366 -10.892177,10.895483 h -7.263647 c -6.017409,0 -10.895482,-4.878074 -10.895481,-10.895483 M 35.472678,28.077207 v 34.73588 c 0,5.503605 -3.111002,10.533391 -8.033576,12.994678 l -6.493706,3.246853 M 6.4180695,71.790965 V 28.209035 L 50.000005,2.7862421 93.58193,28.209035 v 43.58193 L 50.000005,97.213758 Z"
     id="path31276"
     style="stroke:#539e43;stroke-width:5;stroke-linecap:round;stroke-linejoin:round;stroke-dasharray:none;stroke-opacity:1"
     sodipodi:nodetypes="csscsccscsccsscccccccc" />
</svg>
