<?xml version="1.0" encoding="UTF-8" standalone="no"?>
<!-- Created with Inkscape (http://www.inkscape.org/) -->

<svg
   width="100.0px"
   height="100.0px"
   viewBox="0 0 100.0 100.0"
   version="1.1"
   id="SVGRoot"
   sodipodi:docname="panda.svg"
   inkscape:version="1.2.1 (9c6d41e410, 2022-07-14)"
   xmlns:inkscape="http://www.inkscape.org/namespaces/inkscape"
   xmlns:sodipodi="http://sodipodi.sourceforge.net/DTD/sodipodi-0.dtd"
   xmlns="http://www.w3.org/2000/svg"
   xmlns:svg="http://www.w3.org/2000/svg">
  <defs
     id="defs8354" />
  <sodipodi:namedview
     id="namedview32486"
     pagecolor="#181825"
     bordercolor="#000000"
     borderopacity="0.24705882"
     inkscape:showpageshadow="2"
     inkscape:pageopacity="0"
     inkscape:pagecheckerboard="0"
     inkscape:deskcolor="#313244"
     inkscape:document-units="px"
     showgrid="true"
     inkscape:zoom="3.445"
     inkscape:cx="5.6603774"
     inkscape:cy="23.802612"
     inkscape:window-width="1920"
     inkscape:window-height="1017"
     inkscape:window-x="1912"
     inkscape:window-y="-8"
     inkscape:window-maximized="1"
     inkscape:current-layer="SVGRoot"
     showborder="false"
     showguides="false">
    <inkscape:grid
       type="xygrid"
       id="grid32609" />
  </sodipodi:namedview>
  <path
     d="M 70.638983,5.0038737 C 61.938497,2.4514442 53.063961,2.1045251 44.020254,2.9305666 38.959213,3.4676583 34.093692,4.4936503 29.400693,6.2940061 19.25672,10.185486 11.640167,16.925264 7.0986284,27.072778 3.8426678,34.347747 2.6659473,42.075884 2.5432971,50.00497 c -0.1297487,8.379722 0.8986716,16.643683 2.5324746,24.836126 1.480956,7.426616 3.453181,14.707661 6.2698403,21.735542 0.26772,0.667724 0.600634,0.893042 1.315128,0.891776 8.908399,-0.01963 17.816859,-0.01963 26.725318,-0.01963 2.637293,0 5.274514,0 7.911806,-6.33e-4 0.201899,0 0.403798,-0.01139 0.636076,-0.02405 0.118356,-0.007 0.244936,-0.01392 0.383545,-0.02025 -0.05063,-0.129748 -0.101263,-0.249368 -0.146204,-0.361395 -0.088,-0.220254 -0.165191,-0.412026 -0.250627,-0.59937 -0.644187,-1.407601 -1.30172,-2.808872 -1.959253,-4.210145 -1.426213,-3.04052 -2.852416,-6.080407 -4.142298,-9.179788 -3.912107,-9.39941 -6.908003,-19.077302 -7.822249,-29.321716 -0.40317,-4.520147 -0.347475,-9.014472 0.880637,-13.418922 1.403682,-5.034517 4.415841,-8.588709 9.409602,-10.074602 4.585649,-1.3645 9.235105,-1.355513 13.795823,0.150696 4.070391,1.344248 6.7242,4.183817 7.852688,8.435418 0.867098,3.265205 0.867098,6.565599 0.211398,9.857387 -0.505071,2.534505 -1.5221,4.847301 -3.35211,6.697436 -3.282664,3.318686 -7.382432,4.08179 -11.781504,3.827485 -0.782664,-0.04557 -1.562979,-0.132912 -2.366969,-0.223166 -0.376589,-0.04241 -0.758422,-0.08519 -1.148114,-0.124557 0.01266,0.127153 0.01904,0.244305 0.02532,0.354052 0.01266,0.215888 0.01894,0.403103 0.06461,0.581838 0.187337,0.769497 0.365824,1.541779 0.544938,2.314189 0.43038,1.860514 0.860759,3.721598 1.414112,5.543125 1.086597,3.577232 2.35014,7.068387 3.78249,10.47663 10.210615,-0.813294 19.615529,-3.405712 29.597228,-9.525359 0.149991,-0.0962 0.286069,-0.183546 0.422147,-0.270255 4.287996,-2.726151 7.75827,-6.26256 10.151315,-10.828973 3.875338,-7.394844 4.631036,-15.302981 3.479763,-23.465613 C 95.791601,25.614413 92.090325,18.543559 85.718147,12.99714 81.298498,9.1502884 76.187717,6.6309477 70.641494,5.0038707 Z"
     fill="currentColor"
     id="path2"
     style="fill:none;stroke:#f6e458;stroke-width:5;stroke-linecap:round;stroke-linejoin:round;stroke-dasharray:none;stroke-opacity:1" />
</svg>
