<?xml version="1.0" encoding="UTF-8"?>
<svg width="16px" height="16px" viewBox="0 0 16 16" version="1.1" xmlns="http://www.w3.org/2000/svg" xmlns:xlink="http://www.w3.org/1999/xlink">
    <title>panda</title>
    <g id="panda" stroke="none" stroke-width="1" fill="none" fill-rule="evenodd" stroke-linecap="round" stroke-linejoin="round">
        <path d="M7.18073769,1.55475772 C6.48788191,1.62828807 5.82159016,1.76877621 5.17885003,2.01524665 C3.79012605,2.54803358 2.74700839,3.47092843 2.12535518,4.86047398 C1.67951755,5.85662533 1.51835327,6.91480507 1.50151112,8.00050734 C1.48371048,9.14796415 1.62460941,10.2795373 1.8483498,11.4012517 C2.05100327,12.4182161 2.32116225,13.415189 2.70688849,14.3775191 C2.74344827,14.4688501 2.7890453,14.4997958 2.88694883,14.4995255 C4.10670364,14.4967834 5.32659537,14.4967834 6.54635017,14.4967834 L7.62972467,14.4967834 C7.65738413,14.4967834 7.68504359,14.4952772 7.71681089,14.4934971 C7.73296839,14.4925386 7.75035825,14.4915801 7.76925432,14.4907586 C7.76240792,14.4729579 7.75556152,14.4565266 7.74926283,14.4411906 C7.73721316,14.4110665 7.72666971,14.3847763 7.71503082,14.3591707 C7.62671225,14.1663761 7.53675054,13.9745399 7.4466519,13.7827038 C7.25139255,13.3664426 7.05613319,12.9501814 6.87949604,12.5257046 C6.34383363,11.2385812 5.93359728,9.91352871 5.80844507,8.51070115 C5.75326308,7.89178649 5.76079412,7.27643197 5.92894173,6.67340097 C6.12118867,5.98396839 6.53361587,5.49718928 7.2174344,5.29385117 C7.8453863,5.10694442 8.48196466,5.10817677 9.10649337,5.31439037 C9.66379041,5.49855856 10.0271974,5.88729721 10.1817891,6.46951515 C10.3005057,6.91658513 10.3005057,7.36858453 10.2106809,7.81921464 C10.1415323,8.16632717 10.0022765,8.48304169 9.7516982,8.73635852 C9.30216351,9.19082262 8.74075862,9.2952987 8.13841226,9.26038206 C8.03012262,9.25310165 7.92204759,9.24291968 7.81430364,9.22984711 C7.7628187,9.22409613 7.7105122,9.21820823 7.65711027,9.21286803 C7.65889034,9.23025789 7.65984883,9.24627847 7.6606704,9.26134055 C7.66231354,9.290917 7.66327203,9.31652254 7.66943379,9.34103266 C7.69517626,9.44633031 7.71954945,9.55203874 7.74405956,9.6578841 C7.80293861,9.91257022 7.86181766,10.1673933 7.93767578,10.4168761 C8.08559237,10.9036074 8.25848777,11.3823947 8.45567449,11.8513341 C9.85370957,11.7400116 11.1415176,11.3850941 12.5083331,10.5470947 L12.5661167,10.5101241 C13.1532641,10.1368583 13.6284043,9.65254391 13.9560731,9.02719364 C14.4868061,8.01474786 14.5903236,6.93192107 14.4325826,5.81417764 C14.2699121,4.660696 13.7630045,3.6926149 12.8904992,2.9332121 C12.2852774,2.40631308 11.5855752,2.06139139 10.8260354,1.83860951 C9.63435088,1.48903227 8.4191147,1.44151825 7.18073769,1.55475772 Z" id="Path" stroke="#DF8E1D"></path>
    </g>
</svg>