<?xml version="1.0" encoding="UTF-8"?>
<svg width="16px" height="16px" viewBox="0 0 16 16" version="1.1" xmlns="http://www.w3.org/2000/svg" xmlns:xlink="http://www.w3.org/1999/xlink">
    <title>pawn</title>
    <g id="pawn" stroke="none" stroke-width="1" fill="none" fill-rule="evenodd" stroke-linecap="round" stroke-linejoin="round">
        <path d="M7.11111111,6.7 C7.11111111,9.3 4.44444444,10.3833333 4.44444444,14.5 L11.5555556,14.5 C11.5555556,10.3833333 8.88888889,9.3 8.88888889,6.7 M10.4038008,10.339673 C11.3733442,10.4987686 12,10.750195 12,11.0333333 C12,11.5119801 10.209139,11.9 8,11.9 C5.790861,11.9 4,11.5119801 4,11.0333333 C4,10.750195 4.62665579,10.4987686 5.5958555,10.3406119 M8,5.83333333 C9.22729944,5.83333333 10.2222222,4.86328362 10.2222222,3.66666667 C10.2222222,2.47004971 9.22729944,1.5 8,1.5 C6.77270056,1.5 5.77777778,2.47004971 5.77777778,3.66666667 C5.77777778,4.86328362 6.77270056,5.83333333 8,5.83333333 Z M9.55398808,5.21547384 C9.96651897,5.37131592 10.2222222,5.5906787 10.2222222,5.83333333 C10.2222222,6.31198012 9.22729944,6.7 8,6.7 C6.77270056,6.7 5.77777778,6.31198012 5.77777778,5.83333333 C5.77777778,5.5906787 6.03348103,5.37131592 6.4455333,5.21399315" id="Combined-Shape" stroke="#FE640B"></path>
    </g>
</svg>