<?xml version="1.0" encoding="UTF-8"?>
<svg width="16px" height="16px" viewBox="0 0 16 16" version="1.1" xmlns="http://www.w3.org/2000/svg" xmlns:xlink="http://www.w3.org/1999/xlink">
    <title>pawn</title>
    <g id="pawn" stroke="none" stroke-width="1" fill="none" fill-rule="evenodd" stroke-linecap="round" stroke-linejoin="round">
        <path d="M7.5,6.5 C7.5,9.5 4.5,10.75 4.5,15.5 L12.5,15.5 C12.5,10.75 9.5,9.5 9.5,6.5 M10.5796918,9.63608702 C12.303814,9.87266587 13.5,10.3944253 13.5,11 C13.5,11.4369212 12.8773134,11.8302115 11.8836471,12.1043589 M5.11775216,12.1041759 C4.12268658,11.8302115 3.5,11.4369212 3.5,11 C3.5,10.3944253 4.69618599,9.87266587 6.41838198,9.63577449 M5.11775216,12.1041759 C6.00673367,12.3500104 7.19498024,12.5 8.5,12.5 C9.80501976,12.5 10.9932663,12.3500104 11.8836471,12.1043589 M8.5,6.5 C10.1568542,6.5 11.5,5.15685425 11.5,3.5 C11.5,1.84314575 10.1568542,0.5 8.5,0.5 C6.84314575,0.5 5.5,1.84314575 5.5,3.5 C5.5,5.15685425 6.84314575,6.5 8.5,6.5 Z M10.4841555,5.75018783 C11.1072603,5.93328833 11.5,6.20135596 11.5,6.5 C11.5,7.05228475 10.1568542,7.5 8.5,7.5 C6.84314575,7.5 5.5,7.05228475 5.5,6.5 C5.5,6.20135596 5.89273965,5.93328833 6.51544973,5.75005354" id="Combined-Shape" stroke="#FE640B"></path>
    </g>
</svg>