<?xml version="1.0" encoding="UTF-8"?>
<svg width="16px" height="16px" viewBox="0 0 16 16" version="1.1" xmlns="http://www.w3.org/2000/svg" xmlns:xlink="http://www.w3.org/1999/xlink">
    <title>pdf</title>
    <g id="pdf" stroke="none" stroke-width="1" fill="none" fill-rule="evenodd" stroke-linecap="round" stroke-linejoin="round">
        <path d="M2.80687289,14.3395992 C4.61322569,13.0872018 5.81530046,11.1804643 6.71482252,8.84676352 C7.61420667,6.51306275 8.57385314,4.51284806 8.15312008,2.20904314 C8.08720385,1.84776656 7.58152436,1.48227929 7.32351335,1.50066594 C6.29698535,1.57407217 6.36869338,2.72358858 6.46687822,3.41877231 C6.70737591,5.12129173 8.03425023,7.10340048 9.30568873,8.97154008 C10.5771272,10.8395393 11.63289,11.1330239 13.0932516,11.2312732 C13.5854169,11.2643972 14.3355932,11.0903557 14.4570831,10.6471111 C15.2265654,7.84111211 5.43566162,10.1122141 2.18053084,12.7301359 C1.77344988,13.0575867 1.3154838,13.7339627 1.57652861,14.1905411 C1.78406819,14.5540633 2.44778115,14.5887313 2.80687289,14.3395992 L2.80687289,14.3395992 Z" id="Path" stroke="#D20F39"></path>
    </g>
</svg>