<?xml version="1.0" encoding="UTF-8" standalone="no"?>
<!-- Created with Inkscape (http://www.inkscape.org/) -->

<svg
   width="100.0px"
   height="100.0px"
   viewBox="0 0 100.0 100.0"
   version="1.1"
   id="SVGRoot"
   sodipodi:docname="pdf.svg"
   inkscape:version="1.2.1 (9c6d41e410, 2022-07-14)"
   xmlns:inkscape="http://www.inkscape.org/namespaces/inkscape"
   xmlns:sodipodi="http://sodipodi.sourceforge.net/DTD/sodipodi-0.dtd"
   xmlns="http://www.w3.org/2000/svg"
   xmlns:svg="http://www.w3.org/2000/svg">
  <defs
     id="defs44872" />
  <sodipodi:namedview
     id="namedview32486"
     pagecolor="#181825"
     bordercolor="#000000"
     borderopacity="0.24705882"
     inkscape:showpageshadow="2"
     inkscape:pageopacity="0"
     inkscape:pagecheckerboard="0"
     inkscape:deskcolor="#313244"
     inkscape:document-units="px"
     showgrid="true"
     inkscape:zoom="4.0000001"
     inkscape:cx="39.499999"
     inkscape:cy="60.499998"
     inkscape:window-width="1270"
     inkscape:window-height="843"
     inkscape:window-x="562"
     inkscape:window-y="197"
     inkscape:window-maximized="0"
     inkscape:current-layer="SVGRoot"
     showborder="false"
     showguides="false">
    <inkscape:grid
       type="xygrid"
       id="grid32609" />
  </sodipodi:namedview>
  <path
     style="fill:none;stroke:#ea2d2e;stroke-width:5;stroke-linecap:round;stroke-linejoin:round;stroke-dasharray:none;stroke-opacity:1;paint-order:fill markers stroke"
     d="M 12.362937,95.168326 C 25.461535,86.244884 34.179304,72.659542 40.7017,56.032999 47.224097,39.406456 54.182957,25.154801 51.132094,8.7405655 c -0.478308,-2.573389 -4.144993,-5.177405 -6.016392,-5.046092 -7.444014,0.522338 -6.923435,8.7124275 -6.211591,13.6650615 1.743599,12.131022 11.365671,26.252672 20.585528,39.562004 9.219857,13.309332 16.876673,15.40127 27.466019,16.100511 3.569199,0.235683 9.00936,-1.00416 9.890774,-4.162356 5.579398,-19.991545 -65.420444,-3.810806 -89.02503,14.841373 -2.9527229,2.333221 -6.2735414,7.152306 -4.3811354,10.405196 1.5061667,2.588977 6.3183314,2.836274 8.9226704,1.062063 z"
     id="path5077"
     sodipodi:nodetypes="ssssssasaas" />
</svg>
