<?xml version="1.0" encoding="UTF-8"?>
<svg width="16px" height="16px" viewBox="0 0 16 16" version="1.1" xmlns="http://www.w3.org/2000/svg" xmlns:xlink="http://www.w3.org/1999/xlink">
    <title>pdf</title>
    <g id="pdf" stroke="none" stroke-width="1" fill="none" fill-rule="evenodd" stroke-linecap="round" stroke-linejoin="round">
        <path d="M2.00793025,15.3149222 C4.09218349,13.8698482 5.47919284,11.6697665 6.5171029,8.97703483 C7.55485385,6.28430317 8.66213824,3.97636315 8.17667701,1.3181267 C8.10061983,0.901269104 7.51714349,0.479553026 7.21943849,0.500768389 C6.0349831,0.585467893 6.11772313,1.91183298 6.23101333,2.71396805 C6.50851067,4.67841353 8.0395195,6.96546209 9.50656392,9.12100779 C10.9736083,11.2763915 12.1917962,11.6150276 13.8768288,11.7283921 C14.4447118,11.7666122 15.3102998,11.565795 15.4504806,11.054359 C16.3383447,7.81666781 5.04114802,10.4371701 1.28522789,13.4578491 C0.815519095,13.8356769 0.287096696,14.6161108 0.588302237,15.142932 C0.827770984,15.5623808 1.59359363,15.6023823 2.00793025,15.3149222 L2.00793025,15.3149222 Z" id="Path" stroke="#D20F39"></path>
    </g>
</svg>