<?xml version="1.0" encoding="UTF-8"?>
<svg width="16px" height="16px" viewBox="0 0 16 16" version="1.1" xmlns="http://www.w3.org/2000/svg" xmlns:xlink="http://www.w3.org/1999/xlink">
    <title>perl</title>
    <g id="perl" stroke="none" stroke-width="1" fill="none" fill-rule="evenodd" stroke-linejoin="round">
        <path d="M12.5,15 L12.5,11.1558132 C11.5,10.5 11.5,9.80827818 11.5,8.50170898 L11.5,8 M8.5,9.5 L8.52244252,12.0259458 L9.75,15 M5.5,9.5 L5.5,15 M14.5,15 L14.5,9.229874 C14.5,9.229874 14.6724917,7.5 13.5,7.5 C13.5,6 13,1.49995883 11,1.49995883 C9,1.49995883 8.75,4.25 8.75,4.25 C7.43725339,4.8299057 6.72949526,5.8290943 6.5,7.11730165 L6.5,3.61279118 C6.5,2.98656976 5.65087078,2.29553374 5.00482687,2.29553374 C4.07771099,2.29553374 3.66751889,2.88981094 3.5,3.5 L2.25186751,3.5 C1.83124331,3.60989706 1.5,4.08959887 1.5,4.5 C1.5,5.00289554 1.78370161,5.5 2.25,5.5 L3.47244954,5.5 L3.48816255,8.50170898 C3.5,9.25175267 4,9.5 5.00482687,9.5 L10,9.5" id="Combined-Shape" stroke="#1E66F5"></path>
    </g>
</svg>