<?xml version="1.0" encoding="UTF-8"?>
<svg width="16px" height="16px" viewBox="0 0 16 16" version="1.1" xmlns="http://www.w3.org/2000/svg" xmlns:xlink="http://www.w3.org/1999/xlink">
    <title>php</title>
    <g id="php" stroke="none" stroke-width="1" fill="none" fill-rule="evenodd">
        <path d="M0.5,12.5 L0.5,13.24 C0.5,14 1.27360724,14.5 2,14.5 C2.9375516,14.5 3.5,14 3.5,13.2445661 L3.5,6.00089968 C3.5,4.28551107 4.99401107,2.52263547 7.14960413,2.5 C9.49387886,2.5 11,4.0579782 11,5.5 C11.1657296,8.48962302 9.57820404,9.63684469 7.49621582,10.5 L7.49621582,14.5 L15.4979764,14.5 L15.4979764,9 C15.5394484,8.36478228 14.9387379,7.15595371 14.1308258,6.5 C13.1942239,5.80827275 12.0584852,5.50253264 11,5.5" id="Path" stroke="#1E66F5" stroke-linecap="round" stroke-linejoin="round"></path>
        <line x1="11.5" y1="14.5" x2="11.5" y2="11.5" id="Path" stroke="#1E66F5" stroke-linecap="round" stroke-linejoin="round"></line>
        <circle id="Oval" fill="#1E66F5" fill-rule="nonzero" cx="6" cy="6" r="1"></circle>
    </g>
</svg>