<?xml version="1.0" encoding="UTF-8"?>
<svg width="16px" height="16px" viewBox="0 0 16 16" version="1.1" xmlns="http://www.w3.org/2000/svg" xmlns:xlink="http://www.w3.org/1999/xlink">
    <title>phpunit</title>
    <g id="phpunit" stroke="none" stroke-width="1" fill="none" fill-rule="evenodd">
        <path d="M12.0163805,2.00808323 C12.8448076,2.00808323 13.5163805,2.67965611 13.5163805,3.50808323 L13.5173518,4.5086301 C13.0993552,4.19434403 12.5796196,4.00808323 12.0163805,4.00808323 C10.6356686,4.00808323 9.51638047,5.12737136 9.51638047,6.50808323 C9.51638047,7.88879511 10.6356686,9.00808323 12.0163805,9.00808323 C12.5796196,9.00808323 13.0993552,8.82182243 13.5173518,8.50753636 L13.5163805,11.5080832 C13.5163805,12.3365104 12.8448076,13.0080832 12.0163805,13.0080832 L4.01638047,13.0080832 C3.18795335,13.0080832 2.51638047,12.3365104 2.51638047,11.5080832 L2.51638047,3.50808323 C2.51638047,2.67965611 3.18795335,2.00808323 4.01638047,2.00808323 L12.0163805,2.00808323 Z M11.8235927,6.33579756 L12.7798974,6.04342586" id="Combined-Shape" stroke="#8839EF" transform="translate(8.0169, 7.5081) rotate(-343) translate(-8.0169, -7.5081)"></path>
    </g>
</svg>