<?xml version="1.0" encoding="UTF-8"?>
<svg width="16px" height="16px" viewBox="0 0 16 16" version="1.1" xmlns="http://www.w3.org/2000/svg" xmlns:xlink="http://www.w3.org/1999/xlink">
    <title>playwright</title>
    <g id="playwright" stroke="none" stroke-width="1" fill="none" fill-rule="evenodd" stroke-linecap="round" stroke-linejoin="round">
        <path d="M5,9.5 C3.98028213,9.8497697 3.5,10.5 3.5,10.5" id="Path" stroke="#D20F39"></path>
        <path d="M5.97044657,12.3634018 C5.93487871,12.3742079 5.89931085,12.3845373 5.86342542,12.3942311 C2.89128604,13.1957933 1.31931361,9.74910768 0.843593473,7.96021286 C0.623358548,7.13417793 0.527611137,6.27837471 0.501887952,5.875051 C0.47251271,5.41785544 0.78674841,5.54927733 1.38743242,5.653366 C1.81122983,5.72726101 2.82697808,5.81672963 4.08360331,5.477925 C4.60759412,5.33696829 5.350232,5.08683793 5.82833392,4.829874" id="Path" stroke="#D20F39"></path>
        <path d="M2.5,7.5 C2.5,7.5 2.85978321,8.05901875 3.67989161,7.81404385 C4.5,7.56906895 4.5,7 4.5,7" id="Path" stroke="#D20F39"></path>
        <path d="M15.0493019,7.56906895 C14.4265467,9.89588763 12.3769487,14.3799638 8.52799808,13.3482941 C4.67920619,12.3148764 5.14428773,7.4061821 5.76688409,5.07999908 C6.05476146,4.00526374 6.35137201,3.23850373 6.58367461,2.76621134 C6.84646394,2.2319425 7.11306411,2.5852083 7.71946438,3.09389199 C8.14754899,3.45271979 9.22792277,4.21566587 10.85547,4.65220261 C12.4833348,5.08873935 13.8007747,4.96907711 14.349536,4.87261632 C15.1288532,4.73547354 15.5367721,4.56321077 15.4973934,5.15770802 C15.4624607,5.68196528 15.3365441,6.49496927 15.0493019,7.56906895 Z" id="Path" stroke="#40A02B"></path>
        <path d="M9.5,7.5 C9.5,7.5 9.5,6.68093582 8.77766993,6.42224666 C8.05533986,6.1635575 7.5,6.5 7.5,6.5" id="Path" stroke="#40A02B"></path>
        <path d="M7.5,9.5 C7.5,9.5 8.00331802,10.9965739 9.21396996,11.3313697 C10.4246219,11.6661655 11.5,10.5 11.5,10.5" id="Path" stroke="#40A02B"></path>
        <path d="M13,9 C13,9 13.1822468,8.13282756 12.4189601,7.7654769 C11.6556733,7.39812623 11,8 11,8" id="Path" stroke="#40A02B"></path>
    </g>
</svg>