<?xml version="1.0" encoding="UTF-8"?>
<svg width="16px" height="16px" viewBox="0 0 16 16" version="1.1" xmlns="http://www.w3.org/2000/svg" xmlns:xlink="http://www.w3.org/1999/xlink">
    <title>plop</title>
    <g id="plop" stroke="none" stroke-width="1" fill="none" fill-rule="evenodd" stroke-linecap="round" stroke-linejoin="round">
        <path d="M3.50840044,10.6178694 C3.70647402,13.2127217 5.43902837,15.4985262 8.04066003,15.5 L8.08988368,15.5 C10.6915153,15.4985262 12.4242171,13.2127217 12.6219959,10.617722 C12.6277436,10.5449182 12.6303963,10.4700511 12.6305437,10.3932681 L12.6305437,10.3903205 C12.6299542,9.24447076 12.0180483,7.65457656 10.8216485,5.77214064 C10.1990535,4.79357926 9.57210902,3.81779193 8.94083373,2.84480762 C8.7343597,2.5263277 8.52744355,2.20814253 8.32023264,1.89010474 L8.14618138,1.62364861 L8.10020001,1.55335018 L8.06527186,1.5 L8.0303437,1.55335018 L7.98436233,1.62364861 L7.81045845,1.89025212 C6.96939428,3.17955462 6.1355269,4.47353758 5.30889521,5.77214064 C4.11220064,7.65560819 3.5,9.24594452 3.5,10.3917943 C3.5,10.4691668 3.50294752,10.544476 3.50854782,10.6178694 L3.50840044,10.6178694 Z" id="Path" stroke="#179299"></path>
    </g>
</svg>