<?xml version="1.0" encoding="UTF-8"?>
<svg width="16px" height="16px" viewBox="0 0 16 16" version="1.1" xmlns="http://www.w3.org/2000/svg" xmlns:xlink="http://www.w3.org/1999/xlink">
    <title>pnpm_lock</title>
    <g id="pnpm_lock" stroke="none" stroke-width="1" fill="none" fill-rule="evenodd">
        <line x1="3.5" y1="0.5" x2="3.5" y2="3.5" id="Line-6" stroke="#DF8E1D" stroke-linecap="square"></line>
        <line x1="6.5" y1="6.5" x2="6.5" y2="9.5" id="Line-2" stroke="#4C4F69" stroke-linecap="square"></line>
        <line x1="3.5" y1="4.5" x2="3.5" y2="8.5" id="Line-3" stroke="#4C4F69" stroke-linecap="square"></line>
        <line x1="6.5" y1="0.5" x2="6.5" y2="6.5" id="Line-5" stroke="#DF8E1D" stroke-linecap="square"></line>
        <polyline id="Line-4" stroke="#DF8E1D" stroke-linecap="square" points="9.5 6 9.5 0.5 0.5 0.5 0.5 3.5 9.5 3.5"></polyline>
        <polyline id="Path" stroke="#4C4F69" stroke-linecap="round" points="9.5 7.5 9.5 6.5 0.5 6.5 0.5 9.5 7.50174074 9.5"></polyline>
        <g id="Lock" transform="translate(9.5, 8.5)" stroke="#8C8FA1">
            <path d="M5.49820472,3 C5.77426543,3 5.99805686,3.22379143 5.99805686,3.49985214 L5.99805686,6.49879614 C5.99805686,6.77485686 5.77426543,6.99864829 5.49820472,6.99864829 L0.499852144,6.99864829 C0.223791428,6.99864829 0,6.77485686 0,6.49879614 L0,3.49968328 C0,3.22362256 0.223791428,2.99983113 0.499852144,2.99983113 L5.49820472,3 Z" id="Path"></path>
            <path d="M1.49955643,3 L1.49955643,1.5 C1.49955643,0.671572875 2.17112931,0 2.99955643,0 C3.82798356,0 4.49955643,0.671572875 4.49955643,1.5 L4.49955643,3" id="Path"></path>
        </g>
    </g>
</svg>