<?xml version="1.0" encoding="UTF-8"?>
<svg width="16px" height="16px" viewBox="0 0 16 16" version="1.1" xmlns="http://www.w3.org/2000/svg" xmlns:xlink="http://www.w3.org/1999/xlink">
    <title>posthtml</title>
    <g id="posthtml" stroke="none" stroke-width="1" fill="none" fill-rule="evenodd">
        <path d="M3.5,5.5 C1.84314575,5.5 0.5,6.84314575 0.5,8.5 C0.5,10.1568542 1.84314575,11.5 3.5,11.5 C4.08398702,11.5 4.62900102,11.3286495 5.08996484,11.04 C5.55092866,10.7513505 10.4440654,6.24386573 10.9062865,5.95699932 C11.3685076,5.67013291 11.9146781,5.5 12.5,5.5 C14.1568542,5.5 15.5,6.84314575 15.5,8.5 C15.5,10.1568542 14.1568542,11.5 12.5,11.5 M3.5,5.5 C6,5.5 6,6.5 8,6.5 C10,6.5 10,5.5 12.5,5.5 M3.5,11.5 C6,11.5 6,10.5 8,10.5 C10,10.5 10,11.5 12.5,11.5" id="Combined-Shape" stroke="#DF8E1D"></path>
    </g>
</svg>