<?xml version="1.0" encoding="UTF-8"?>
<svg width="16px" height="16px" viewBox="0 0 16 16" version="1.1" xmlns="http://www.w3.org/2000/svg" xmlns:xlink="http://www.w3.org/1999/xlink">
    <title>premake</title>
    <g id="premake" stroke="none" stroke-width="1" fill="none" fill-rule="evenodd" stroke-linecap="round" stroke-linejoin="round">
        <path d="M11.0473981,4.38882098 L10.3277666,4.19960955 L10.2661322,3.29566925 L9.46411662,3.19053433 L9.29965577,4.15764988 L8.60046662,4.32580289 L8.14812244,3.40080417 L7.09956926,3.71620893 L7.49012534,4.68316733 L7.12001159,5.14582384 L6.21532322,4.76724383 L5.72194068,5.35593652 L6.91451238,6.91174476 M11.5409344,3.77922702 C11.5409344,3.77922702 10.5334195,5.52424669 9.77259599,6.04976414 C9.01177244,6.57543874 8.35392905,7.18503269 5.8658055,6.89068635 C3.37783564,6.59634 1.97961103,6.93280318 1.67113167,7.2691092 C1.3626523,7.60541522 1.42428669,8.34135967 2.24689834,8.78280061 C3.06920258,9.22439871 4.1927622,9.58537765 4.1927622,9.58537765" id="Shape" stroke="#40A02B"></path>
        <path d="M11.8646302,10.7019451 L12.4004344,10.1754847 L13.184928,10.5971245 L13.6939881,9.95484282 L12.9758937,9.30344634 L13.2035259,8.60694713 L14.2110408,8.69966702 L14.5,7.62191622 L13.4898723,7.45329175 L13.2997432,6.88817191 L14.0902312,6.30042213 L13.8598323,5.56164895 L11.9385607,5.78087647 M12.1125511,11.4517189 C12.1125511,11.4517189 11.1903407,9.65798203 11.1531449,8.71993967 C11.1157954,7.78189731 10.9544086,6.88911482 12.5072571,4.87992206 C14.0604131,2.8707293 14.5156776,1.4777309 14.3979421,1.03267545 C14.2802065,0.587620004 13.6355815,0.254299875 12.8358714,0.737543343 C12.0361613,1.22078681 11.2854821,2.18303063 11.2854821,2.18303063" id="Shape" stroke="#DF8E1D"></path>
        <path d="M6.11910594,8.41459266 L6.29832215,9.15195147 L5.54979474,9.63723792 L5.84044471,10.4085416 L6.75082004,10.0967514 L7.2279102,10.6458417 L6.64691767,11.4924214 L7.41665592,12.2858836 L8.06312538,11.4746632 L8.63704763,11.5878129 L8.7415648,12.5816443 L9.48256083,12.7457114 L10.2544509,10.9334305 M5.35981941,8.26058336 C5.35981941,8.26058336 7.34026616,8.33758801 8.1541168,8.7719571 C8.96812115,9.20664049 9.80548816,9.5086873 10.7347688,11.8867166 C11.6642031,14.2647459 12.6182298,15.3626122 13.0542816,15.4801622 C13.4903334,15.5978693 14.0942274,15.1925734 14.0831609,14.2427446 C14.0720944,13.293073 13.7290321,12.1306171 13.7290321,12.1306171" id="Shape" stroke="#1E66F5"></path>
    </g>
</svg>