<?xml version="1.0" encoding="UTF-8"?>
<svg width="16px" height="16px" viewBox="0 0 16 16" version="1.1" xmlns="http://www.w3.org/2000/svg" xmlns:xlink="http://www.w3.org/1999/xlink">
    <title>prolog</title>
    <g id="prolog" stroke="none" stroke-width="1" fill="none" fill-rule="evenodd">
        <path d="M4.5,13.5 C4.16666667,13.8333333 4,14.1666667 4,14.5 C4,14.8333333 4.16666667,15.1666667 4.5,15.5 C4.66666667,14.8333333 5,14.5 5.5,14.5 C6,14.5 6.33333333,14.8333333 6.5,15.5 C6.83333333,15.1666667 7,14.6666667 7,14 L9,14 C9,14.6666667 9.16666667,15.1666667 9.5,15.5 C9.66666667,14.8333333 10,14.5 10.5,14.5 C11,14.5 11.3333333,14.8333333 11.5,15.5 C11.8333333,15.1666667 12,14.8333333 12,14.5 C12,14.1666667 11.8333333,13.8333333 11.5,13.5 L12.5,12.5 L13.75,13.75 C13.75,11 14.75,11 14.75,8 C14.75,5.83333333 14.0833333,4.08333333 12.75,2.75 C12.5833333,2.08333333 12.6666667,1.33333333 13,0.5 C11.8333333,0.5 11,0.916666667 10.5,1.75 C9.83333333,0.916666667 9,0.5 8,0.5 C7,0.5 6.16666667,0.916666667 5.5,1.75 C5,0.916666667 4.16666667,0.5 3,0.5 C3.5,1.33333333 3.58333333,2.08333333 3.25,2.75 C1.91666667,4.08333333 1.25,5.83333333 1.25,8 C1.25,11 2.25,11 2.25,13.75 L3.5,12.5 L4.5,13.5 Z M10.5,8.5 C11.6045695,8.5 12.5,7.6045695 12.5,6.5 C12.5,5.3954305 11.6045695,4.5 10.5,4.5 C9.3954305,4.5 8.5,5.3954305 8.5,6.5 C8.5,7.6045695 9.3954305,8.5 10.5,8.5 Z M5.5,8.5 C6.6045695,8.5 7.5,7.6045695 7.5,6.5 C7.5,5.3954305 6.6045695,4.5 5.5,4.5 C4.3954305,4.5 3.5,5.3954305 3.5,6.5 C3.5,7.6045695 4.3954305,8.5 5.5,8.5 Z M7,8 L8,10.5 L9,8" id="Combined-Shape" stroke="#FE640B" stroke-linecap="round" stroke-linejoin="round"></path>
        <path d="M10,6.5 L11,6.5 M5,6.5 L6,6.5" id="Combined-Shape" stroke="#FE640B"></path>
    </g>
</svg>