<?xml version="1.0" encoding="UTF-8"?>
<svg width="16px" height="16px" viewBox="0 0 16 16" version="1.1" xmlns="http://www.w3.org/2000/svg" xmlns:xlink="http://www.w3.org/1999/xlink">
    <title>properties</title>
    <g id="properties" stroke="none" stroke-width="1" fill="none" fill-rule="evenodd" stroke-linecap="round" stroke-linejoin="round">
        <path d="M8,1.5 C7.13290132,1.5 6.82516333,2.82470728 5.96881894,3.125 C5.11247455,3.4254306 3.79535042,2.45478746 3.125,3.125 C2.45478746,3.79535042 3.4254306,5.11247455 3.125,5.96881894 C2.82470728,6.82502545 1.5,7.13276345 1.5,8 C1.5,8.86723655 2.82470728,9.17483667 3.125,10.0311811 C3.4254306,10.8875255 2.45492534,12.2043738 3.125,12.875 C3.79507466,13.5454883 5.11261242,12.5769133 5.96881894,12.8773439 C6.82488758,13.1776366 7.13317707,14.5001379 8,14.5 C8.86682293,14.4997242 9.17483667,13.1752927 10.0311811,12.875 C10.8875255,12.5745694 12.2043738,13.5450747 12.875,12.875 C13.5454883,12.2049253 12.5769133,10.8873876 12.8773439,10.0311811 C13.1776366,9.17511242 14.5001379,8.86682293 14.5,8 C14.4997242,7.13317707 13.1752927,6.82516333 12.875,5.96881894 C12.5745694,5.11247455 13.5452125,3.79535042 12.875,3.125 C12.2046496,2.45478746 10.8875255,3.4254306 10.0311811,3.125 C9.17497455,2.82470728 8.86723655,1.5 8,1.5 Z M8,10.5 C9.38071187,10.5 10.5,9.38071187 10.5,8 C10.5,6.61928813 9.38071187,5.5 8,5.5 C6.61928813,5.5 5.5,6.61928813 5.5,8 C5.5,9.38071187 6.61928813,10.5 8,10.5 Z" id="Combined-Shape" stroke="#4C4F69"></path>
    </g>
</svg>