<?xml version="1.0" encoding="UTF-8"?>
<svg width="16px" height="16px" viewBox="0 0 16 16" version="1.1" xmlns="http://www.w3.org/2000/svg" xmlns:xlink="http://www.w3.org/1999/xlink">
    <title>pug</title>
    <g id="pug" stroke="none" stroke-width="1" fill="none" fill-rule="evenodd">
        <path d="M3.5,4.5 C4.16666667,4 4.66666667,3.66666667 5,3.5 C5.5,3.25 10.5,3.25 11,3.5 C11.3333333,3.66666667 11.8333333,4 12.5,4.5 M3.5,4.5 C1.66666667,4.83333333 0.666666667,5.16666667 0.5,5.5 C0.25,6 0.5,8.5 1,9 C1.33333333,9.33333333 1.83333333,9.33333333 2.5,9 L4,5.5 L3.5,4.5 Z M12.5,4.5 C14.3333333,4.83333333 15.3333333,5.16666667 15.5,5.5 C15.75,6 15.5,8.5 15,9 C14.6666667,9.33333333 14.1666667,9.33333333 13.5,9 L12,5.5 L12.5,4.5 Z M2.5,9 C2.16666667,10.6666667 2.16666667,11.6666667 2.5,12 C2.83333333,12.3333333 3.66666667,12.6666667 5,13 M13.5,9 C13.8333333,10.6666667 13.8333333,11.6666667 13.5,12 C13.1666667,12.3333333 12.3333333,12.6666667 11,13 M9,9.5 C8.25,9 7.75,9 7,9.5 C6.5,9.83333333 5.83333333,11 5,13 C4.5,13.5 4.41666667,13.9166667 4.75,14.25 C5.25,14.75 7,14 8,14 C9,14 10.75,14.75 11.25,14.25 C11.5833333,13.9166667 11.5,13.5 11,13 C10.1666667,11 9.5,9.83333333 9,9.5 Z M6.75,9.75 C6.91666667,10.5833333 7.33333333,11 8,11 C8.66666667,11 9.08333333,10.5833333 9.25,9.75" id="Combined-Shape" stroke="#DC8A78" stroke-linecap="round" stroke-linejoin="round"></path>
        <path d="M10.5,8 L10.5,7 M5.5,8 L5.5,7" id="Combined-Shape" stroke="#DC8A78"></path>
    </g>
</svg>