<?xml version="1.0" encoding="UTF-8" standalone="no"?>
<!-- Created with Inkscape (http://www.inkscape.org/) -->

<svg
   width="100.0px"
   height="100.0px"
   viewBox="0 0 100.0 100.0"
   version="1.1"
   id="SVGRoot"
   sodipodi:docname="python_compiled.svg"
   inkscape:version="1.2.1 (9c6d41e410, 2022-07-14)"
   xmlns:inkscape="http://www.inkscape.org/namespaces/inkscape"
   xmlns:sodipodi="http://sodipodi.sourceforge.net/DTD/sodipodi-0.dtd"
   xmlns="http://www.w3.org/2000/svg"
   xmlns:svg="http://www.w3.org/2000/svg">
  <defs
     id="defs45925" />
  <sodipodi:namedview
     id="namedview32486"
     pagecolor="#181825"
     bordercolor="#000000"
     borderopacity="0.24705882"
     inkscape:showpageshadow="2"
     inkscape:pageopacity="0"
     inkscape:pagecheckerboard="0"
     inkscape:deskcolor="#313244"
     inkscape:document-units="px"
     showgrid="true"
     inkscape:zoom="4.9303806"
     inkscape:cx="46.142482"
     inkscape:cy="50.300376"
     inkscape:window-width="1920"
     inkscape:window-height="1017"
     inkscape:window-x="1912"
     inkscape:window-y="-8"
     inkscape:window-maximized="1"
     inkscape:current-layer="SVGRoot"
     showborder="false">
    <inkscape:grid
       type="xygrid"
       id="grid32609" />
  </sodipodi:namedview>
  <path
     d="M 27.132754,23.58382 H 39.328271 V 43.55083 H 59.028716 V 23.58382 H 71.224233 V 75.878445 H 59.028716 V 55.911367 H 39.328271 V 75.878445 H 27.132754 Z"
     fill="#d6e0e3"
     id="path126529"
     style="display:none;stroke-width:0.67742" />
  <path
     fill="none"
     stroke="#ffe873"
     stroke-linecap="round"
     stroke-linejoin="round"
     stroke-width="5.55062"
     d="m 48.084481,71.924956 h 22.61989 m -45.239783,0 v 14.920071 c 0,5.731572 4.765763,10.379663 10.644982,10.379663 h 23.948709 c 5.879218,0 10.644982,-4.648091 10.644982,-10.379663 V 71.922735 m 1.000222,-25.041074 c 2.825266,-2.829707 2.825266,-8.339254 2.825266,-19.068606 h 11.476466 c 5.878108,0 10.643874,4.646981 10.643874,10.379663 v 23.352575 c 0,5.732682 -4.765766,10.379663 -10.643874,10.379663 H 70.704371"
     id="path141446"
     style="stroke-width:5;stroke-dasharray:none;stroke:#ffffff;stroke-opacity:1" />
  <path
     fill="none"
     stroke="#4b8bbe"
     stroke-linecap="round"
     stroke-linejoin="round"
     stroke-width="5.55062"
     d="M 51.916628,27.910746 H 29.296737 m 45.239783,0 v -14.82238 c 0,-5.6949384 -4.765764,-10.3130556 -10.644982,-10.3130556 H 39.942829 c -5.879218,0 -10.644982,4.6181172 -10.644982,10.3130556 v 14.82238 M 28.297626,52.789742 C 25.472358,55.601687 25.472358,61.0746 25.472358,71.735124 H 13.995894 c -5.8792182,0 -10.6449829,-4.617007 -10.6449829,-10.311945 V 38.221581 c 0,-5.694938 4.7657647,-10.310835 10.6449829,-10.310835 h 15.300844"
     id="path141448"
     style="stroke-width:5;stroke-dasharray:none;stroke:#808080;stroke-opacity:1" />
  <circle
     cx="50.238125"
     cy="84.391655"
     fill="#ffe873"
     id="circle141450"
     style="stroke-width:1.11012;fill:#ffffff;fill-opacity:1"
     r="5" />
  <circle
     cx="50.238125"
     cy="15.550622"
     fill="#4b8bbe"
     id="circle141452"
     style="stroke-width:1.11012;fill:#808080;fill-opacity:1"
     r="5" />
  <path
     fill="none"
     stroke="#ffe873"
     stroke-linecap="round"
     stroke-linejoin="round"
     stroke-width="5.55062"
     d="m 71.694602,46.87833 c 2.824156,-2.830817 2.824156,-8.339254 2.824156,-19.068605 h 11.476466"
     id="path141454"
     style="stroke-width:5;stroke-dasharray:none;stroke:#ffffff;stroke-opacity:1" />
</svg>
