<?xml version="1.0" encoding="UTF-8"?>
<svg width="16px" height="16px" viewBox="0 0 16 16" version="1.1" xmlns="http://www.w3.org/2000/svg" xmlns:xlink="http://www.w3.org/1999/xlink">
    <title>quasar</title>
    <g id="quasar" stroke="none" stroke-width="1" fill="none" fill-rule="evenodd" stroke-linejoin="round">
        <path d="M7,6 L8.5,3.5 L7.5,3.5 L7.5,5 L6.25,5.25 L7,6 Z M10.2320508,8.1339746 L11.6471143,10.6830127 L12.1471143,9.8169873 L10.8480762,9.0669873 L11.2565699,7.85945554 L10.2320508,8.1339746 Z M6.76794919,9.8660254 L3.85288568,9.8169873 L4.35288568,10.6830127 L5.65192379,9.9330127 L6.49343014,10.8905445 L6.76794919,9.8660254 Z M8,15 C11.8659932,15 15,11.8659932 15,8 C15,4.13400675 11.8659932,1 8,1 C4.13400675,1 1,4.13400675 1,8 C1,11.8659932 4.13400675,15 8,15 Z" id="Combined-Shape" stroke="#04A5E5"></path>
        <path d="M9.23205081,6.1339746 L12.1471143,6.1830127 L11.6471143,5.3169873 L10.3480762,6.0669873 L9.50656986,5.10945554 L9.23205081,6.1339746 Z M9,10 L7.5,12.5 L8.5,12.5 L8.5,11 L9.75,10.75 L9,10 Z M5.76794919,7.8660254 L4.35288568,5.3169873 L3.85288568,6.1830127 L5.15192379,6.9330127 L4.74343014,8.14054446 L5.76794919,7.8660254 Z" id="Combined-Shape" stroke="#4C4F69" stroke-linecap="round"></path>
    </g>
</svg>