<?xml version="1.0" encoding="UTF-8"?>
<svg width="16px" height="16px" viewBox="0 0 16 16" version="1.1" xmlns="http://www.w3.org/2000/svg" xmlns:xlink="http://www.w3.org/1999/xlink">
    <title>r</title>
    <g id="r" stroke="none" stroke-width="1" fill="none" fill-rule="evenodd">
        <path d="M13.5038378,9.49992344 C14.134909,8.79578808 14.5,7.96206298 14.5,7.06840632 C14.5,4.54534518 11.5898509,2.5 8,2.5 C4.41014913,2.5 1.5,4.54534518 1.5,7.06840632 C1.5,8.96827298 3.15008355,10.5972699 5.49794138,11.286084" id="Path" stroke="#8C8FA1" stroke-linecap="round" stroke-linejoin="round"></path>
        <path d="M10.498999,9.497382 C10.9089275,9.49086839 11.3598352,9.83979046 11.5078,10.190785 L12.75,14 M7.5,14 L7.5,5.5 L10.554868,5.5 C11.5,5.5 12.5002441,6.50390625 12.5002441,7.5 C12.5002441,8.49609375 11.5,9.5 10.554868,9.5 L7.5,9.5 L7.5,14 Z" id="Combined-Shape" stroke="#1E66F5"></path>
    </g>
</svg>