<?xml version="1.0" encoding="UTF-8"?>
<svg width="16px" height="16px" viewBox="0 0 16 16" version="1.1" xmlns="http://www.w3.org/2000/svg" xmlns:xlink="http://www.w3.org/1999/xlink">
    <title>racket</title>
    <g id="racket" stroke="none" stroke-width="1" fill="none" fill-rule="evenodd" stroke-linecap="round" stroke-linejoin="round">
        <path d="M13.1144669,12.0117977 C14.0141168,10.8682836 14.5022165,9.45498788 14.5,8 C14.5,4.41022321 11.5897731,1.5 7.99999622,1.5 C7.2417935,1.49917791 6.48931504,1.63126805 5.77672383,1.89027731 C8.41558545,3.27457124 11.9061518,7.79076861 13.1144669,12.0117977 L13.1144669,12.0117977 Z" id="Path" stroke="#1E66F5"></path>
        <path d="M7.06905992,5.64631723 C6.05506051,4.55390734 4.91954538,3.68632889 3.71697766,3.11104502 C2.3579995,4.30239169 1.5,6.05082225 1.5,8.00000007 C1.5,9.63882016 2.1066207,11.1358719 3.10748327,12.279187 C3.9899775,9.62842017 5.64877653,7.07357955 7.06905992,5.64631723 Z" id="Path" stroke="#D20F39"></path>
        <path d="M8.26683817,7.12010584 C6.85941793,8.63672601 5.4571977,11.2914613 4.94978747,13.7407967 C5.88867523,14.2407039 6.93631617,14.5014626 7.99999622,14.5000031 C9.09306166,14.5015777 10.1687119,14.2262154 11.1265628,13.6996073 C10.5917842,11.2289245 9.5824374,8.96610477 8.26670132,7.12024268 L8.26683817,7.12010584 Z" id="Path" stroke="#D20F39"></path>
    </g>
</svg>