<?xml version="1.0" encoding="UTF-8"?>
<svg width="16px" height="16px" viewBox="0 0 16 16" version="1.1" xmlns="http://www.w3.org/2000/svg" xmlns:xlink="http://www.w3.org/1999/xlink">
    <title>razor</title>
    <g id="razor" stroke="none" stroke-width="1" fill="none" fill-rule="evenodd" stroke-linecap="round">
        <path d="M10.495681,7.99990944 L10.5,9 C10.4942512,9.66728672 10.8926288,10.2148491 11.469577,10.550163 C12.0465252,10.885477 12.9990188,10.885477 13.5759669,10.550163 C14.1529151,10.2148491 14.505612,9.59577613 14.4998632,8.9284894 L14.4998632,7.99990944 C14.4996333,5.00689017 12.4555719,2.40094961 9.54875113,1.68781744 C6.64193037,0.974685268 3.62390715,2.33874141 2.23851523,4.9918252 C0.853123307,7.644909 1.45855499,10.9010671 3.70498784,12.8788699 C5.95142069,14.8566727 9.25804077,15.0447603 11.7142611,13.3344545 M10.5,8 C10.5,9.38071187 9.38071187,10.5 8,10.5 C6.61928813,10.5 5.5,9.38071187 5.5,8 C5.5,6.61928811 6.61928814,5.5 8,5.5 C9.38071186,5.5 10.5,6.61928811 10.5,8 L10.5,8 Z" id="Combined-Shape" stroke="#8839EF"></path>
    </g>
</svg>