<?xml version="1.0" encoding="UTF-8"?>
<svg width="16px" height="16px" viewBox="0 0 16 16" version="1.1" xmlns="http://www.w3.org/2000/svg" xmlns:xlink="http://www.w3.org/1999/xlink">
    <title>reactnative_config</title>
    <g id="reactnative_config" stroke="none" stroke-width="1" fill="none" fill-rule="evenodd" stroke-linecap="round" stroke-linejoin="round">
        <path d="M11.4955779,7.88473596 C12.7308375,7.44333022 13.5,6.82183359 13.5,6.1333053 C13.5,4.79410523 10.5898778,3.7084203 7,3.7084203 C3.41015111,3.7084203 0.5,4.79410523 0.5,6.1333053 C0.5,7.47257592 3.41015111,8.55823259 7,8.55823259 C7.69934583,8.55823259 8.37289418,8.5170307 9.00415532,8.44077844 M10.3726043,7.49762993 C10.0803432,6.67879646 9.66952216,5.80117924 9.14933333,4.92084163 C7.35439444,1.88326096 4.93703722,-0.0363649731 3.75,0.633249171 C2.56297,1.30287037 3.05576389,4.30816713 4.85068833,7.34576896 C5.61278045,8.63547538 6.48707921,9.72365579 7.33177579,10.4976859 M4.85068833,4.92084163 C3.05576389,7.95849283 2.56297,10.9637543 3.75,11.6334249 C4.93703722,12.3030249 7.35439444,10.3833496 9.14933333,7.34576896 C10.9442722,4.30817418 11.4370444,1.30287037 10.25,0.633256228 C9.06295556,-0.0363649731 6.64560556,1.88326802 4.85068833,4.92084163 Z M7,6.5 C7.27614237,6.5 7.5,6.27614237 7.5,6 C7.5,5.72385763 7.27614237,5.5 7,5.5 C6.72385763,5.5 6.5,5.72385763 6.5,6 C6.5,6.27614237 6.72385763,6.5 7,6.5 Z" id="Combined-Shape" stroke="#04A5E5"></path>
        <g id="config" transform="translate(8, 9)" stroke="#8C8FA1">
            <path d="M3.5,4.5 C4.05228475,4.5 4.5,4.05228475 4.5,3.5 C4.5,2.94771525 4.05228475,2.5 3.5,2.5 C2.94771525,2.5 2.5,2.94771525 2.5,3.5 C2.5,4.05228475 2.94771525,4.5 3.5,4.5 Z M5.25153811,0.5 L7.00153811,3.5 L5.25153811,6.5 L1.75153811,6.5 L0.00153810568,3.5 L1.75153811,0.5 L5.25153811,0.5 Z" id="Combined-Shape"></path>
        </g>
    </g>
</svg>