<?xml version="1.0" encoding="UTF-8"?>
<svg width="16px" height="16px" viewBox="0 0 16 16" version="1.1" xmlns="http://www.w3.org/2000/svg" xmlns:xlink="http://www.w3.org/1999/xlink">
    <title>reactnative_config</title>
    <g id="reactnative_config" stroke="none" stroke-width="1" fill="none" fill-rule="evenodd">
        <path d="M7,7.04152574 C7.5128097,7.04152574 7.92857143,6.63529482 7.92857143,6.13424062 C7.92857143,5.63318642 7.5128097,5.22695549 7,5.22695549 C6.4871903,5.22695549 6.07142857,5.63318642 6.07142857,6.13424062 C6.07142857,6.63529482 6.4871903,7.04152574 7,7.04152574 Z" id="Path" fill="#04A5E5" fill-rule="nonzero"></path>
        <path d="M11.4955779,7.88473596 C12.7308375,7.44333022 13.5,6.82183359 13.5,6.1333053 C13.5,4.79410523 10.5898778,3.7084203 7,3.7084203 C3.41015111,3.7084203 0.5,4.79410523 0.5,6.1333053 C0.5,7.47257592 3.41015111,8.55823259 7,8.55823259 C7.69934583,8.55823259 8.37289418,8.5170307 9.00415532,8.44077844" id="Path" stroke="#04A5E5" stroke-linecap="round" stroke-linejoin="round"></path>
        <path d="M10.3726043,7.49762993 C10.0803432,6.67879646 9.66952216,5.80117924 9.14933333,4.92084163 C7.35439444,1.88326096 4.93703722,-0.0363649731 3.75,0.633249171 C2.56297,1.30287037 3.05576389,4.30816713 4.85068833,7.34576896 C5.61278045,8.63547538 6.48707921,9.72365579 7.33177579,10.4976859" id="Path" stroke="#04A5E5" stroke-linecap="round" stroke-linejoin="round"></path>
        <path d="M4.85068833,4.92084163 C3.05576389,7.95849283 2.56297,10.9637543 3.75,11.6334249 C4.93703722,12.3030249 7.35439444,10.3833496 9.14933333,7.34576896 C10.9442722,4.30817418 11.4370444,1.30287037 10.25,0.633256228 C9.06295556,-0.0363649731 6.64560556,1.88326802 4.85068833,4.92084163 Z" id="Path" stroke="#04A5E5"></path>
        <path d="M11.9984619,14 C12.826889,14 13.4984619,13.3284271 13.4984619,12.5 C13.4984619,11.6715729 12.826889,11 11.9984619,11 C11.1700348,11 10.4984619,11.6715729 10.4984619,12.5 C10.4984619,13.3284271 11.1700348,14 11.9984619,14 Z M13.75,9.5 L15.5,12.5 L13.75,15.5 L10.25,15.5 L8.5,12.5 L10.25,9.5 L13.75,9.5 Z" id="config" stroke="#8C8FA1" stroke-linecap="round" stroke-linejoin="round"></path>
    </g>
</svg>