<?xml version="1.0" encoding="UTF-8"?>
<svg width="16px" height="16px" viewBox="0 0 16 16" version="1.1" xmlns="http://www.w3.org/2000/svg" xmlns:xlink="http://www.w3.org/1999/xlink">
    <title>readme</title>
    <g id="readme" stroke="none" stroke-width="1" fill="none" fill-rule="evenodd">
        <path d="M8,14.5 C11.5898509,14.5 14.5,11.5898509 14.5,8 C14.5,4.41014913 11.5898509,1.5 8,1.5 C4.41014913,1.5 1.5,4.41014913 1.5,8 C1.5,11.5898509 4.41014913,14.5 8,14.5 Z M7.6,4.5 L8.4,4.5 C8.45522847,4.5 8.5,4.54477153 8.5,4.6 L8.5,5.4 C8.5,5.45522847 8.45522847,5.5 8.4,5.5 L7.6,5.5 C7.54477153,5.5 7.5,5.45522847 7.5,5.4 L7.5,4.6 C7.5,4.54477153 7.54477153,4.5 7.6,4.5 Z M7.6,7.5 L8.4,7.5 C8.45522847,7.5 8.5,7.54477153 8.5,7.6 L8.5,11.4 C8.5,11.4552285 8.45522847,11.5 8.4,11.5 L7.6,11.5 C7.54477153,11.5 7.5,11.4552285 7.5,11.4 L7.5,7.6 C7.5,7.54477153 7.54477153,7.5 7.6,7.5 Z" id="Combined-Shape" stroke="#179299"></path>
    </g>
</svg>