<?xml version="1.0" encoding="UTF-8" standalone="no"?>
<!-- Created with Inkscape (http://www.inkscape.org/) -->

<svg
   width="100.0px"
   height="100.0px"
   viewBox="0 0 100.0 100.0"
   version="1.1"
   id="SVGRoot"
   sodipodi:docname="redwood.svg"
   inkscape:version="1.2.1 (9c6d41e, 2022-07-14)"
   xmlns:inkscape="http://www.inkscape.org/namespaces/inkscape"
   xmlns:sodipodi="http://sodipodi.sourceforge.net/DTD/sodipodi-0.dtd"
   xmlns="http://www.w3.org/2000/svg"
   xmlns:svg="http://www.w3.org/2000/svg">
  <defs
     id="defs8354" />
  <sodipodi:namedview
     id="namedview32486"
     pagecolor="#181825"
     bordercolor="#000000"
     borderopacity="0.24705882"
     inkscape:showpageshadow="2"
     inkscape:pageopacity="0"
     inkscape:pagecheckerboard="0"
     inkscape:deskcolor="#313244"
     inkscape:document-units="px"
     showgrid="true"
     inkscape:zoom="2.669579"
     inkscape:cx="50.382476"
     inkscape:cy="82.971884"
     inkscape:window-width="1414"
     inkscape:window-height="685"
     inkscape:window-x="0"
     inkscape:window-y="38"
     inkscape:window-maximized="0"
     inkscape:current-layer="SVGRoot"
     showborder="false"
     showguides="false">
    <inkscape:grid
       type="xygrid"
       id="grid32609" />
  </sodipodi:namedview>
  <path
     d="M 27.882617,17.326402 V 12.949051 L 50,2.4747343 72.117237,12.949051 v 4.377351 m -44.23462,0 L 50,33.428707 M 27.882617,17.326402 10.627981,33.428707 M 50,33.428707 27.882617,48.436702 M 50,33.428707 72.117237,17.326402 M 50,33.428707 72.117237,48.436702 m -44.23462,0 L 50,68.759945 M 27.882617,48.436702 10.627981,33.428707 M 27.882617,48.436702 9.2753565,59.848829 M 50,68.759945 27.882617,80.485148 M 50,68.759945 72.117237,48.436702 M 50,68.759945 72.117237,80.485148 m -44.23462,0 L 50,97.525304 72.117237,80.485148 m -44.23462,0 H 19.569039 L 9.2753565,59.848829 M 10.627981,33.428707 5.9221395,53.126832 9.2753565,59.848829 M 72.117237,17.326402 89.372118,33.428707 M 72.117237,48.436702 89.372118,33.428707 M 72.117237,48.436702 90.724496,59.848829 M 72.117237,80.485148 h 8.313724 L 90.724496,59.848829 m -1.352378,-26.420122 4.705743,19.698125 -3.353365,6.721997"
     stroke="#ffa800"
     stroke-width="3.9801"
     stroke-linejoin="round"
     id="path40928"
     style="fill:none;stroke:#bf4722;stroke-width:4.94952;stroke-linecap:round;stroke-dasharray:none;stroke-opacity:1" />
</svg>
