<?xml version="1.0" encoding="UTF-8"?>
<svg width="16px" height="16px" viewBox="0 0 16 16" version="1.1" xmlns="http://www.w3.org/2000/svg" xmlns:xlink="http://www.w3.org/1999/xlink">
    <title>redwood</title>
    <g id="redwood" stroke="none" stroke-width="1" fill="none" fill-rule="evenodd" stroke-linecap="round" stroke-linejoin="round">
        <path d="M4.73849766,3.18741715 L4.73849766,2.54287217 L8,1 L11.2615023,2.54272488 L11.2615023,3.18741715 M4.73849766,3.18741715 L8,5.55938979 M4.73849766,3.18741715 L2.19397432,5.55938979 M8,5.55938979 L4.73849766,7.76978432 M8,5.5592425 L11.2615023,3.18741715 M8,5.55938979 L11.2615023,7.76993161 M4.73849766,7.76993161 L8,10.7631773 M4.73849766,7.76978432 L2.19397432,5.5592425 M4.73849766,7.76978432 L1.99445302,9.45066807 M8,10.76303 L4.73849766,12.4903104 M8,10.7631773 L11.2615023,7.76978432 M8,10.7631773 L11.2615023,12.4901631 M4.73849766,12.4901631 L8,15 L11.2615023,12.4901631 M4.73849766,12.4901631 L3.51246654,12.4901631 L1.99445302,9.45081536 M2.19397432,5.55938979 L1.5,8.46057864 L1.99445302,9.45066807 M11.2615023,3.18741715 L13.8060257,5.55938979 M11.2615023,7.76978432 L13.8060257,5.5592425 M11.2615023,7.76978432 L14.0053995,9.45066807 M11.2615023,12.4901631 L12.4875335,12.4901631 L14.0053995,9.45081536 M13.8060257,5.55938979 L14.5,8.46072593 L14.0053995,9.45081536" id="Shape" stroke="#FE640B"></path>
    </g>
</svg>