<?xml version="1.0" encoding="UTF-8" standalone="no"?>
<!-- Created with Inkscape (http://www.inkscape.org/) -->

<svg
   width="100.0px"
   height="100.0px"
   viewBox="0 0 100.0 100.0"
   version="1.1"
   id="SVGRoot"
   sodipodi:docname="renovate.svg"
   inkscape:version="1.2.1 (9c6d41e410, 2022-07-14)"
   xmlns:inkscape="http://www.inkscape.org/namespaces/inkscape"
   xmlns:sodipodi="http://sodipodi.sourceforge.net/DTD/sodipodi-0.dtd"
   xmlns="http://www.w3.org/2000/svg"
   xmlns:svg="http://www.w3.org/2000/svg">
  <defs
     id="defs8354" />
  <sodipodi:namedview
     id="namedview32486"
     pagecolor="#181825"
     bordercolor="#000000"
     borderopacity="0.24705882"
     inkscape:showpageshadow="2"
     inkscape:pageopacity="0"
     inkscape:pagecheckerboard="0"
     inkscape:deskcolor="#313244"
     inkscape:document-units="px"
     showgrid="true"
     inkscape:zoom="1.7225"
     inkscape:cx="-142.5254"
     inkscape:cy="26.124819"
     inkscape:window-width="1920"
     inkscape:window-height="1017"
     inkscape:window-x="1912"
     inkscape:window-y="-8"
     inkscape:window-maximized="1"
     inkscape:current-layer="SVGRoot"
     showborder="false"
     showguides="false">
    <inkscape:grid
       type="xygrid"
       id="grid32609" />
  </sodipodi:namedview>
  <path
     style="fill:none;fill-opacity:1;stroke:#ffffff;stroke-width:5;stroke-linecap:round;stroke-linejoin:round;stroke-dasharray:none;stroke-opacity:1;paint-order:fill markers stroke"
     d="m 71.160671,71.417945 c -1.365247,-2.157825 -2.242283,-3.717336 -1.706164,-5.979919 0.342981,-1.362956 1.180868,-2.615887 2.168134,-3.616182 8.740448,-8.855798 16.533411,-16.493706 23.590189,-25.757106 0.628792,-0.825409 0.933403,-1.873939 1.172403,-2.883669 0.203498,-0.859755 0.232339,-1.759144 0.208353,-2.64233 -0.02271,-0.836254 -0.06306,-1.695642 -0.332785,-2.487528 -1.643213,-4.824166 -4.576175,-9.171544 -7.644519,-13.240695 -0.56478,-0.748997 -1.231959,-1.426932 -1.956194,-2.023136 -0.899988,-0.740886 -1.863022,-1.442966 -2.934284,-1.902632 -0.786219,-0.33736 -1.642101,-0.543163 -2.495843,-0.598618 -1.099584,-0.07143 -2.230438,0.03672 -3.28726,0.34867 -1.118082,0.330027 -1.93847,0.896259 -3.120675,1.578804"
     id="path8857"
     sodipodi:nodetypes="ccssaaaaaaaac" />
  <rect
     style="fill:none;fill-opacity:1;stroke:#3cb6b0;stroke-width:5;stroke-linecap:round;stroke-linejoin:round;stroke-dasharray:none;stroke-opacity:1;paint-order:fill markers stroke"
     id="rect8331"
     width="76.308662"
     height="26.073265"
     x="-18.300247"
     y="33.654831"
     rx="6.5838408"
     ry="6.5838408"
     transform="rotate(-30)" />
  <path
     id="rect9639"
     style="fill:none;stroke:#ffffff;stroke-width:5;stroke-linecap:round;stroke-linejoin:round;stroke-dasharray:none;paint-order:fill markers stroke"
     d="M 76.929825,97.438571 67.761788,81.559065 c -1.419138,-2.458019 -0.582783,-5.579339 1.875235,-6.998477 l 5.212373,-3.009365 c 2.458018,-1.419137 5.579338,-0.582782 6.998477,1.875238 l 9.168037,15.879505"
     sodipodi:nodetypes="cssssc" />
</svg>
