<?xml version="1.0" encoding="UTF-8"?>
<svg width="16px" height="16px" viewBox="0 0 16 16" version="1.1" xmlns="http://www.w3.org/2000/svg" xmlns:xlink="http://www.w3.org/1999/xlink">
    <title>renovate</title>
    <g id="renovate" stroke="none" stroke-width="1" fill="none" fill-rule="evenodd" stroke-linecap="round" stroke-linejoin="round">
        <path d="M11.2751671,11.0399044 C11.0753175,10.7322149 10.9469159,10.5099314 11.0255381,10.187271 C11.0756103,9.99293336 11.1983019,9.81427958 11.342955,9.67169876 C12.6225786,8.40900297 13.7635518,7.31997063 14.7967673,5.99924445 C14.8888592,5.88147269 14.9333679,5.73204799 14.9683599,5.58804135 C14.9982275,5.46542184 15.0024734,5.3370991 14.9989596,5.21134281 C14.9955921,5.09200266 14.9897357,4.96952573 14.950205,4.85660172 C14.7096534,4.16879182 14.2802328,3.54899298 13.8309004,2.9688316 C13.7474015,2.8620255 13.6512805,2.76516428 13.5445224,2.68024801 C13.4127534,2.5747382 13.2717606,2.47450388 13.1149554,2.40905928 C12.9989689,2.36069757 12.8754077,2.33182038 12.749516,2.32365337 C12.5873469,2.3127701 12.4244731,2.32961108 12.2682663,2.37341407 C12.1045799,2.42046575 11.9843773,2.50116649 11.8113206,2.5985492" id="Path" stroke="#4C4F69"></path>
        <path d="M3.09207565,3.29386619 L10.4489513,3.37773097 C11.4892818,3.38959023 12.3297876,4.2299682 12.341805,5.27029692 C12.3534721,6.28030154 11.5441597,7.10853014 10.5341551,7.12019728 C10.5201647,7.12035889 10.506173,7.12035995 10.4921827,7.12020047 L3.13530702,7.03633568 C2.09497649,7.02447643 1.25447075,6.18409846 1.24245332,5.14376974 C1.23078619,4.13376512 2.04009863,3.30553651 3.05010326,3.29386938 C3.06409358,3.29370777 3.0780853,3.29370671 3.09207565,3.29386619 Z" id="Rectangle" stroke="#179299" transform="translate(6.7921, 5.207) rotate(-30) translate(-6.7921, -5.207)"></path>
        <path d="M12.119953,14.75 L10.7776659,12.4858165 C10.6777701,12.3181482 10.6505733,12.1186342 10.7020892,11.9313917 C10.7536051,11.7441492 10.8795897,11.5846042 11.0521847,11.4880359 L11.8152737,11.0588676 C11.987458,10.9615391 12.1923658,10.9350281 12.3846723,10.9851988 C12.5769788,11.0353694 12.7408353,11.1580869 12.8399974,11.3262067 L14.1822845,13.5903902" id="Path" stroke="#4C4F69"></path>
    </g>
</svg>