<?xml version="1.0" encoding="UTF-8"?>
<svg width="16px" height="16px" viewBox="0 0 16 16" version="1.1" xmlns="http://www.w3.org/2000/svg" xmlns:xlink="http://www.w3.org/1999/xlink">
    <title>replit</title>
    <g id="replit" stroke="none" stroke-width="1" fill="none" fill-rule="evenodd">
        <path d="M3.25,1.5 L6.75,1.5 C7.16421356,1.5 7.5,1.83578644 7.5,2.25 L7.5,4.75 C7.5,5.16421356 7.16421356,5.5 6.75,5.5 L3.25,5.5 C2.83578644,5.5 2.5,5.16421356 2.5,4.75 L2.5,2.25 C2.5,1.83578644 2.83578644,1.5 3.25,1.5 Z M3.25,11.5 L6.75,11.5 C7.16421356,11.5 7.5,11.8357864 7.5,12.25 L7.5,14.75 C7.5,15.1642136 7.16421356,15.5 6.75,15.5 L3.25,15.5 C2.83578644,15.5 2.5,15.1642136 2.5,14.75 L2.5,12.25 C2.5,11.8357864 2.83578644,11.5 3.25,11.5 Z M9.25,6.5 L12.75,6.5 C13.1642136,6.5 13.5,6.83578644 13.5,7.25 L13.5,9.75 C13.5,10.1642136 13.1642136,10.5 12.75,10.5 L9.25,10.5 C8.83578644,10.5 8.5,10.1642136 8.5,9.75 L8.5,7.25 C8.5,6.83578644 8.83578644,6.5 9.25,6.5 Z" id="Combined-Shape" stroke="#FE640B"></path>
    </g>
</svg>