<?xml version="1.0" encoding="UTF-8"?>
<svg width="16px" height="16px" viewBox="0 0 16 16" version="1.1" xmlns="http://www.w3.org/2000/svg" xmlns:xlink="http://www.w3.org/1999/xlink">
    <title>riot</title>
    <g id="riot" stroke="none" stroke-width="1" fill="none" fill-rule="evenodd" stroke-linecap="round" stroke-linejoin="round">
        <path d="M1.5,1.5 L1.5,12.5 C1.5,13.8333333 2.16666667,14.5 3.5,14.5 L3.5,3.5 L10,3.5 C11.6666667,3.5 12.5,4.5 12.5,6.5 L14.5,6.5 C14.5,3.33333333 13.1666667,1.66666667 10.5,1.5 L1.5,1.5 Z M6.5,7.5 C6.5,8.83333333 7.33333333,9.5 9,9.5 L12.5,9.5 L12.5,14.5 C13.6666667,14.5 14.3333333,13.8333333 14.5,12.5 L14.5,10 C14.5,8.5 13.5,7.66666667 11.5,7.5 L6.5,7.5 Z" id="Combined-Shape" stroke="#D20F39"></path>
    </g>
</svg>