<?xml version="1.0" encoding="UTF-8"?>
<svg width="16px" height="16px" viewBox="0 0 16 16" version="1.1" xmlns="http://www.w3.org/2000/svg" xmlns:xlink="http://www.w3.org/1999/xlink">
    <title>robots</title>
    <g id="robots" stroke="none" stroke-width="1" fill="none" fill-rule="evenodd">
        <path d="M3.5,5.5 L12.5000739,5.5 C13.0523586,5.5 13.5000739,5.94771525 13.5000739,6.5 L13.5000739,13.5 C13.5000739,14.0522847 13.0523586,14.5 12.5000739,14.5 L3.5,14.5 C2.94771525,14.5 2.5,14.0522847 2.5,13.5 L2.5,6.5 C2.5,5.94771525 2.94771525,5.5 3.5,5.5 Z" id="Path" stroke="#8839EF"></path>
        <circle id="Path" fill="#8839EF" cx="6" cy="9" r="1"></circle>
        <circle id="Path" fill="#8839EF" cx="10" cy="9" r="1"></circle>
        <line x1="8" y1="5.5" x2="8" y2="3.5" id="Path" stroke="#8839EF" stroke-linecap="square"></line>
        <line x1="0.5" y1="8.5" x2="0.5" y2="11.5" id="Path" stroke="#8839EF" fill="#000000" fill-rule="nonzero" stroke-linecap="round" stroke-linejoin="round"></line>
        <line x1="15.5" y1="8.5" x2="15.5" y2="11.5" id="Path" stroke="#8839EF" fill="#000000" fill-rule="nonzero" stroke-linecap="round" stroke-linejoin="round"></line>
        <circle id="Path" stroke="#8839EF" cx="8" cy="2.5" r="1"></circle>
        <line x1="6.5" y1="12.5" x2="9.5" y2="12.5" id="Path" stroke="#8839EF" stroke-linecap="round" stroke-linejoin="round"></line>
    </g>
</svg>