<?xml version="1.0" encoding="UTF-8"?>
<svg width="16px" height="16px" viewBox="0 0 16 16" version="1.1" xmlns="http://www.w3.org/2000/svg" xmlns:xlink="http://www.w3.org/1999/xlink">
    <title>rollup</title>
    <g id="rollup" stroke="none" stroke-width="1" fill="none" fill-rule="evenodd" stroke-linecap="round" stroke-linejoin="round">
        <path d="M4.36741508,14.5 L13.5,14.5 L11.5,9.5 C12.8638137,8.42383427 13.5,7.37050458 13.5,5.5 C13.5,3.09442089 11.2503896,1.5303569 9.5,1.5038288 L2.5,1.5038288 L2.5,12.7957746" id="Path" stroke="#D20F39"></path>
        <path d="M11.4642677,6.19123479 C8.21495178,9.51859702 7.09274795,10.4483112 4.25106438,14.5 C3.22847403,14.3728292 2.58517075,13.8873923 2.5179519,12.9466019 C2.15580698,12.6037878 7.3865942,4.72712977 7.93824768,3.78975797 C8.54294737,2.79809928 10.4870298,1.57247368 11.7178906,2.39525503 C10.540346,2.00581157 9.14184301,2.94878983 9.31029506,3.89286203 L9.77704763,5.77717763 C10.1209706,6.36325721 10.4397877,6.57069602 10.962556,6.51299056 C11.5236579,6.34548065 11.6335296,5.97859975 11.5945211,5.51668262 L11.233456,4.52037468" id="Path" stroke="#DF8E1D"></path>
    </g>
</svg>