<?xml version="1.0" encoding="UTF-8" standalone="no"?>
<!-- Created with Inkscape (http://www.inkscape.org/) -->

<svg
   width="100.0px"
   height="100.0px"
   viewBox="0 0 100.0 100.0"
   version="1.1"
   id="SVGRoot"
   sodipodi:docname="rollup.svg"
   inkscape:version="1.2.1 (9c6d41e, 2022-07-14)"
   xmlns:inkscape="http://www.inkscape.org/namespaces/inkscape"
   xmlns:sodipodi="http://sodipodi.sourceforge.net/DTD/sodipodi-0.dtd"
   xmlns="http://www.w3.org/2000/svg"
   xmlns:svg="http://www.w3.org/2000/svg">
  <sodipodi:namedview
     id="namedview32486"
     pagecolor="#181825"
     bordercolor="#000000"
     borderopacity="0.24705882"
     inkscape:showpageshadow="2"
     inkscape:pageopacity="0"
     inkscape:pagecheckerboard="0"
     inkscape:deskcolor="#313244"
     inkscape:document-units="px"
     showgrid="true"
     inkscape:zoom="6.7567136"
     inkscape:cx="45.36229"
     inkscape:cy="39.368251"
     inkscape:window-width="1432"
     inkscape:window-height="760"
     inkscape:window-x="0"
     inkscape:window-y="38"
     inkscape:window-maximized="0"
     inkscape:current-layer="SVGRoot"
     showborder="false">
    <inkscape:grid
       type="xygrid"
       id="grid32609" />
  </sodipodi:namedview>
  <path
     style="display:inline;fill:none;fill-opacity:1;stroke:#ff3333;stroke-width:4.99966;stroke-linecap:round;stroke-linejoin:round;stroke-dasharray:none;stroke-opacity:1"
     d="M 23.505017,97.36258 H 91.165286 L 75.313846,62.826484 C 85.417832,54.955757 90.544341,45.470762 90.544341,31.791721 90.544341,14.199677 73.652461,2.6902831 60.683765,2.4964762 H 10.209424 L 9.7829268,85.073511"
     id="path102175"
     sodipodi:nodetypes="ccccccc" />
  <path
     id="path102239"
     style="fill:none;fill-opacity:1;stroke:#fbb040;stroke-width:5;stroke-linecap:round;stroke-linejoin:round;stroke-dasharray:none;stroke-opacity:1"
     d="M 76.083439,36.774763 C 52.009413,61.10771 43.696185,67.907004 22.642922,97.537455 15.066941,96.607623 10.300538,93.057254 9.8034711,86.176096 7.1188608,83.671207 45.872103,26.06915 49.959608,19.213639 54.440474,11.962227 68.842994,2.9993621 77.962195,9.0163585 69.237683,6.1684548 58.877081,13.064374 60.124527,19.967593 l 3.458605,13.780115 c 2.547406,4.286481 4.909549,5.803247 8.782984,5.381626 4.156859,-1.22573 4.971066,-3.907929 4.681959,-7.286231 l -2.675406,-7.286228"
     sodipodi:nodetypes="cccccccccc" />
  <path
     d="M 90.49155,31.763671 C 90.49155,14.171627 73.59967,2.6622328 60.630974,2.4684258"
     style="display:inline;fill:none;fill-opacity:1;stroke:#ff3333;stroke-width:4.99966;stroke-linecap:round;stroke-linejoin:round;stroke-dasharray:none;stroke-opacity:1"
     id="path106008" />
</svg>
