<?xml version="1.0" encoding="UTF-8"?>
<svg width="16px" height="16px" viewBox="0 0 16 16" version="1.1" xmlns="http://www.w3.org/2000/svg" xmlns:xlink="http://www.w3.org/1999/xlink">
    <title>salesforce</title>
    <g id="salesforce" stroke="none" stroke-width="1" fill="none" fill-rule="evenodd" stroke-linecap="round" stroke-linejoin="round">
        <path d="M8.62779392,2.84614044 C9.61993032,2.84614044 10.4797819,3.4234834 10.9427789,4.28372441 C11.3537612,4.0912815 11.7989128,3.99192736 12.2490918,3.99216622 C14.0349373,3.99216622 15.4845588,5.52212507 15.4845588,7.41003656 C15.4845588,9.29794804 14.0349373,10.8279069 12.2490918,10.8279069 C12.0308218,10.8279069 11.8180636,10.8049286 11.609715,10.7615125 C11.2045926,11.5178317 10.4301751,12.031667 9.54827603,12.031667 C9.18922464,12.0324107 8.83477042,11.9470966 8.51204468,11.7822548 C8.10141044,12.792605 7.14510119,13.5027368 6.03170368,13.5027368 C4.86869934,13.5027368 3.88207481,12.7348707 3.50175585,11.6552394 C3.33248476,11.6926581 3.1599469,11.7114659 2.9869473,11.7113571 C1.60346821,11.7113571 0.484558824,10.5220306 0.484558824,9.0613529 C0.484558824,8.07986986 0.98834364,7.22540228 1.73575306,6.76352791 C1.57718993,6.38092317 1.4955717,5.96820634 1.49598677,5.55110769 C1.49598677,3.86526623 2.80229969,2.50273684 4.41176541,2.50273684 C5.35429499,2.50273684 6.19761093,2.97327136 6.72675034,3.7036102 C7.21014124,3.17291655 7.88369162,2.84614044 8.62779392,2.84614044 Z" id="Path" stroke="#04A5E5" fill-rule="nonzero"></path>
    </g>
</svg>