<?xml version="1.0" encoding="UTF-8"?>
<svg width="16px" height="16px" viewBox="0 0 16 16" version="1.1" xmlns="http://www.w3.org/2000/svg" xmlns:xlink="http://www.w3.org/1999/xlink">
    <title>sass</title>
    <g id="sass" stroke="none" stroke-width="1" fill="none" fill-rule="evenodd" stroke-linecap="round" stroke-linejoin="round">
        <path d="M6.75493783,6.37874251 C8.59704262,7.44605494 10.0977101,7.12386034 11.5841978,6.17714818 C13.0706856,5.23029898 14.281721,3.39964162 12.880031,2.032336 C12.1790456,1.34861467 9.62753184,1.23472964 7.26428591,2.2200887 C4.90089959,3.20558481 2.67425666,5.24016627 2.51954288,6.33269513 C2.20997493,8.51775284 5.67348572,9.21367125 6.1609324,10.5635721 C6.64823868,11.9134729 6.43947335,12.5377163 5.95427298,13.3869889 C5.4690726,14.2363986 3.99788778,15.0122147 3.16521317,14.0676953 C2.33239818,13.1233129 4.83056238,11.3170497 6.13509997,10.8155992 C7.43949716,10.3142858 9.24818826,10.4229631 9.82815434,11.0677634 C10.40798,11.7125638 9.76427524,12.8575812 9.80232191,12.8575812" id="Path" stroke="#EA76CB"></path>
    </g>
</svg>