<?xml version="1.0" encoding="UTF-8" standalone="no"?>
<!-- Created with Inkscape (http://www.inkscape.org/) -->

<svg
   width="100.0px"
   height="100.0px"
   viewBox="0 0 100.0 100.0"
   version="1.1"
   id="SVGRoot"
   sodipodi:docname="scala.svg"
   inkscape:version="1.2.1 (9c6d41e, 2022-07-14)"
   xmlns:inkscape="http://www.inkscape.org/namespaces/inkscape"
   xmlns:sodipodi="http://sodipodi.sourceforge.net/DTD/sodipodi-0.dtd"
   xmlns="http://www.w3.org/2000/svg"
   xmlns:svg="http://www.w3.org/2000/svg">
  <defs
     id="defs8354">
    <clipPath
       id="skillIconsWebassembly0">
      <rect
         width="256"
         height="256"
         fill="#ffffff"
         rx="60"
         id="rect59196"
         x="0"
         y="0" />
    </clipPath>
    <clipPath
       id="clipPath59704">
      <rect
         width="256"
         height="256"
         fill="#ffffff"
         rx="60"
         id="rect59702"
         x="0"
         y="0" />
    </clipPath>
    <mask
       id="mask0_205_98"
       maskUnits="userSpaceOnUse"
       x="0"
       y="0"
       width="187"
       height="257">
      <path
         d="M 4.61302,12.6849 C 4.40676,12.7038 4.20234,12.7296 4,12.762 V 4.45725 H 94.1534 Z M 181.766,71.7027 c 0.206,-0.019 0.411,-0.0448 0.613,-0.0772 v 11.0961 c -0.44,-0.0255 -0.889,-0.0184 -1.345,0.0235 L 4.61302,98.9559 C 4.40676,98.9749 4.20234,99.0007 4,99.0331 V 87.9369 c 0.43996,0.0255 0.88912,0.0185 1.34502,-0.0234 z M 4.61302,185.227 C 4.40676,185.246 4.20234,185.272 4,185.304 v -11.096 c 0.43996,0.025 0.88912,0.018 1.34502,-0.023 L 181.766,157.974 c 0.206,-0.019 0.411,-0.045 0.613,-0.077 v 11.096 c -0.44,-0.026 -0.889,-0.019 -1.345,0.023 z M 181.766,244.245 c 0.206,-0.019 0.411,-0.045 0.613,-0.077 v 8.304 H 92.2257 Z"
         fill="#c4c4c4"
         stroke="#ff4d35"
         stroke-width="8"
         id="path66421" />
    </mask>
  </defs>
  <sodipodi:namedview
     id="namedview32486"
     pagecolor="#181825"
     bordercolor="#000000"
     borderopacity="0.24705882"
     inkscape:showpageshadow="2"
     inkscape:pageopacity="0"
     inkscape:pagecheckerboard="0"
     inkscape:deskcolor="#313244"
     inkscape:document-units="px"
     showgrid="true"
     inkscape:zoom="1.7021899"
     inkscape:cx="-22.324183"
     inkscape:cy="0.5874785"
     inkscape:window-width="1309"
     inkscape:window-height="686"
     inkscape:window-x="0"
     inkscape:window-y="38"
     inkscape:window-maximized="0"
     inkscape:current-layer="SVGRoot"
     showborder="false"
     showguides="false">
    <inkscape:grid
       type="xygrid"
       id="grid32609" />
  </sodipodi:namedview>
  <path
     d="M 16.35392,8.7054021 83.926515,2.496345 c 0.103796,-0.00951 0.153203,0.022595 0.175808,0.043179 0.02256,0.020584 0.05895,0.066962 0.05895,0.171034 v 21.932494 c 0,0.265855 -0.250496,0.540364 -0.515153,0.564687 l -67.572566,6.209046 c -0.103634,0.0095 -0.153158,-0.0226 -0.175718,-0.04317 -0.02256,-0.02057 -0.05907,-0.06695 -0.05907,-0.171018 V 9.2700868 c 0,-0.2658537 0.250433,-0.5403637 0.515171,-0.5646847 z m 0,33.0433229 67.572595,-6.208931 c 0.103796,-0.0095 0.153203,0.0226 0.175808,0.04321 0.02256,0.02056 0.05895,0.06696 0.05895,0.171018 v 21.932512 c 0,0.265816 -0.250496,0.540443 -0.515153,0.564574 l -67.572606,6.209121 c -0.103633,0.0096 -0.153161,-0.0226 -0.175717,-0.04327 -0.02256,-0.0203 -0.05907,-0.06665 -0.05907,-0.170823 V 42.313677 c 0,-0.265814 0.250433,-0.540439 0.515172,-0.564952 z m 0,33.043439 67.572595,-6.208742 c 0.103796,-0.0096 0.153203,0.0226 0.175808,0.04289 0.02256,0.02067 0.05895,0.06703 0.05895,0.171208 v 21.932433 c 0,0.265814 -0.250496,0.540442 -0.515153,0.564573 l -67.572606,6.20913 c -0.103633,0.0096 -0.153157,-0.0226 -0.175717,-0.04327 -0.02256,-0.0203 -0.05907,-0.06665 -0.05907,-0.170829 V 75.357129 c 0,-0.265815 0.250433,-0.540441 0.515172,-0.564951 z"
     stroke="#ff4d35"
     stroke-width="3.12451"
     id="path66419"
     style="display:inline;fill:none;stroke-width:4.99977;stroke-linecap:round;stroke-linejoin:round;stroke-dasharray:none" />
</svg>
