<?xml version="1.0" encoding="UTF-8"?>
<svg width="16px" height="16px" viewBox="0 0 16 16" version="1.1" xmlns="http://www.w3.org/2000/svg" xmlns:xlink="http://www.w3.org/1999/xlink">
    <title>semantic_release</title>
    <g id="semantic_release" stroke="none" stroke-width="1" fill="none" fill-rule="evenodd" stroke-linecap="round" stroke-linejoin="round">
        <path d="M1.5,11.5 L1.5,4.5 L8,0.5 L14.5,4.5 L14.5,11.5 L8,15.5 L1.5,11.5 Z M8,9.5 C8.82842712,9.5 9.5,8.82842712 9.5,8 C9.5,7.17157288 8.82842712,6.5 8,6.5 C7.17157288,6.5 6.5,7.17157288 6.5,8 C6.5,8.82842712 7.17157288,9.5 8,9.5 Z M1.75,7 C2.25,8 3,8.5 4,8.5 M4.0089746,12.9126588 C5.125,12.9796461 5.9330127,12.580127 6.4330127,11.7141016 M10.2589746,13.9126588 C10.875,12.9796461 10.9330127,12.080127 10.4330127,11.2141016 M14.25,9 C13.75,8 13,7.5 12,7.5 M11.9910254,3.08734123 C10.875,3.02035393 10.0669873,3.41987298 9.5669873,4.28589838 M5.7410254,2.08734123 C5.125,3.02035393 5.0669873,3.91987298 5.5669873,4.78589838" id="Combined-Shape" stroke="#4C4F69"></path>
    </g>
</svg>