<?xml version="1.0" encoding="UTF-8"?>
<svg width="16px" height="16px" viewBox="0 0 16 16" version="1.1" xmlns="http://www.w3.org/2000/svg" xmlns:xlink="http://www.w3.org/1999/xlink">
    <title>semgrep_ignore</title>
    <g id="semgrep_ignore" stroke="none" stroke-width="1" fill="none" fill-rule="evenodd">
        <path d="M3,10.5 C4.38071187,10.5 5.5,9.38071187 5.5,8 C5.5,6.61928813 4.38071187,5.5 3,5.5 C1.61928813,5.5 0.5,6.61928813 0.5,8 C0.5,9.38071187 1.61928813,10.5 3,10.5 Z M8,10.5 C9.38071187,10.5 10.5,9.38071187 10.5,8 C10.5,6.61928813 9.38071187,5.5 8,5.5 C6.61928813,5.5 5.5,6.61928813 5.5,8 C5.5,9.38071187 6.61928813,10.5 8,10.5 Z M13,10.5 C14.3807119,10.5 15.5,9.38071187 15.5,8 C15.5,6.61928813 14.3807119,5.5 13,5.5 C11.6192881,5.5 10.5,6.61928813 10.5,8 C10.5,9.38071187 11.6192881,10.5 13,10.5 Z" id="Combined-Shape" stroke="#8C8FA1"></path>
    </g>
</svg>