<?xml version="1.0" encoding="UTF-8" standalone="no"?>
<!-- Created with Inkscape (http://www.inkscape.org/) -->

<svg
   width="100.0px"
   height="100.0px"
   viewBox="0 0 100.0 100.0"
   version="1.1"
   id="SVGRoot"
   sodipodi:docname="sentry.svg"
   inkscape:version="1.2.1 (9c6d41e410, 2022-07-14)"
   xmlns:inkscape="http://www.inkscape.org/namespaces/inkscape"
   xmlns:sodipodi="http://sodipodi.sourceforge.net/DTD/sodipodi-0.dtd"
   xmlns="http://www.w3.org/2000/svg"
   xmlns:svg="http://www.w3.org/2000/svg">
  <defs
     id="defs8354" />
  <sodipodi:namedview
     id="namedview32486"
     pagecolor="#181825"
     bordercolor="#000000"
     borderopacity="0.24705882"
     inkscape:showpageshadow="2"
     inkscape:pageopacity="0"
     inkscape:pagecheckerboard="0"
     inkscape:deskcolor="#313244"
     inkscape:document-units="px"
     showgrid="true"
     inkscape:zoom="4.8719657"
     inkscape:cx="36.843445"
     inkscape:cy="58.497949"
     inkscape:window-width="1920"
     inkscape:window-height="1017"
     inkscape:window-x="1912"
     inkscape:window-y="-8"
     inkscape:window-maximized="1"
     inkscape:current-layer="SVGRoot"
     showborder="false"
     showguides="false">
    <inkscape:grid
       type="xygrid"
       id="grid32609" />
  </sodipodi:namedview>
  <path
     d="m 2.5560875,80.067053 c -0.03409,1.906599 0.5276691,3.7801 1.6144751,5.384366 1.832738,2.733096 4.9467629,4.529342 8.3572794,4.697134 H 28.936389 C 28.934039,78.921262 21.034414,69.001413 9.6260095,66.005665 12.57005,61.136734 16.168323,55.251964 20.389172,48.336369 c 17.92296,6.88827 29.651032,23.47064 29.65146,41.812184 h 21.104241 c 3.498032,0 12.330153,0 15.828184,0 3.495569,-0.0234 6.75213,-1.760277 8.696048,-4.5158 1.943919,-2.755525 2.322862,-6.245269 1.011894,-9.318741 L 59.220977,15.014397 C 57.36255,11.828659 53.826622,9.8514465 49.987871,9.8514465 c -3.838751,0 -7.374679,1.9772125 -9.233105,5.1629505 l -9.707951,15.892865 c 23.647302,10.258303 40.098058,32.955004 40.098058,59.241291"
     id="Path"
     stroke="#d20f39"
     style="fill:none;stroke-width:5;stroke-linecap:round;stroke-linejoin:round;stroke-dasharray:none;stroke:#e1567c;stroke-opacity:1" />
</svg>
