<?xml version="1.0" encoding="UTF-8"?>
<svg width="16px" height="16px" viewBox="0 0 16 16" version="1.1" xmlns="http://www.w3.org/2000/svg" xmlns:xlink="http://www.w3.org/1999/xlink">
    <title>sentry</title>
    <g id="sentry" stroke="none" stroke-width="1" fill="none" fill-rule="evenodd" stroke-linecap="round" stroke-linejoin="round">
        <path d="M1.50020061,12.1189236 C1.49553069,12.3801105 1.57248689,12.6367636 1.72136948,12.8565336 C1.97243873,13.230944 2.39903279,13.4770153 2.86624362,13.5 L5.11407102,13.5 C5.11374214,11.9619595 4.03156948,10.6030279 2.46871788,10.1926373 C2.87202581,9.525635 3.36495774,8.71947392 3.94317701,7.77209754 C6.39846559,8.71572963 8.00510879,10.9873702 8.00516735,13.5 L10.8962637,13.5 C11.3754629,13.5 12.5853867,13.5 13.0645859,13.5 C13.5434489,13.4968139 13.9895689,13.2588578 14.2558685,12.881375 C14.522168,12.5038921 14.5740801,12.0258276 14.3944902,11.6047902 L9.26279425,3.20727896 C9.00820599,2.77086088 8.52381487,2.5 7.99793961,2.5 C7.47206435,2.5 6.98767323,2.77086088 6.73308496,3.20727896 L5.40318065,5.38446229 C8.64265409,6.7897601 10.8962637,9.89901006 10.8962637,13.5" id="Path" stroke="#D20F39"></path>
    </g>
</svg>