<?xml version="1.0" encoding="UTF-8"?>
<svg width="16px" height="16px" viewBox="0 0 16 16" version="1.1" xmlns="http://www.w3.org/2000/svg" xmlns:xlink="http://www.w3.org/1999/xlink">
    <title>shader</title>
    <g id="shader" stroke="none" stroke-width="1" fill="none" fill-rule="evenodd" stroke-linecap="round" stroke-linejoin="round">
        <path d="M6.41177767,12 C6.41177767,12.8931639 5.94368792,13.7184815 5.18383326,14.1650635 C4.42397861,14.6116455 3.48779906,14.6116455 2.72794441,14.1650635 C1.96808975,13.7184815 1.5,12.8931639 1.5,12 C1.5,10.6192881 2.5995389,9.5 3.95588883,9.5 C5.31223877,9.5 6.41177767,10.6192881 6.41177767,12 L6.41177767,12 Z" id="Path" stroke="#8839EF"></path>
        <path d="M10.1894566,4.77187001 C10.3876156,3.27062319 9.40571702,1.86944237 7.93939411,1.5610043 C6.47307121,1.25256624 5.02009692,2.14157646 4.60984144,3.59820922 C4.19958597,5.05484198 4.97131884,6.58461381 6.37830028,7.10374672 C8.56824379,7.97529726 9.08458011,8.8543962 8.81055008,11.2280795 C8.61236158,12.729348 9.5942714,14.1305633 11.0606205,14.4389988 C12.5269697,14.7474342 13.9799587,13.8583815 14.3901805,12.4017126 C14.8004024,10.9450437 14.0285941,9.41527182 12.6215628,8.89620275 C10.4310451,8.02465222 9.91399107,7.14497263 10.1894566,4.77187001 L10.1894566,4.77187001 Z" id="Path" stroke="#8839EF"></path>
    </g>
</svg>