<?xml version="1.0" encoding="UTF-8"?>
<svg width="16px" height="16px" viewBox="0 0 16 16" version="1.1" xmlns="http://www.w3.org/2000/svg" xmlns:xlink="http://www.w3.org/1999/xlink">
    <title>sketch</title>
    <g id="sketch" stroke="none" stroke-width="1" fill="none" fill-rule="evenodd" stroke-linecap="round" stroke-linejoin="round">
        <path d="M0.705287306,6.89851088 L7.37235457,14.2231177 C7.70570794,14.5898064 8.28157587,14.5898064 8.61492923,14.2231177 L15.2819965,6.8976775 C15.5428455,6.61099361 15.5728473,6.18180115 15.3545009,5.86178192 L12.4068237,1.863188 C12.2519974,1.6364983 11.9954648,1.50059545 11.7209492,1.499833 L4.28216889,1.499833 C4.00765325,1.50059545 3.75112071,1.6364983 3.59629435,1.863188 L0.646117084,5.86011515 C0.426937248,6.18096777 0.45693905,6.61099361 0.718621441,6.89851088 L0.705287306,6.89851088 Z" id="Path" stroke="#FE640B"></path>
        <line x1="2.5" y1="6.5" x2="13.5" y2="6.5" id="Line-25" stroke="#FE640B"></line>
        <line x1="12" y1="6.5" x2="9" y2="3" id="Line-3" stroke="#FE640B"></line>
        <line x1="7" y1="6.5" x2="4" y2="3" id="Line-3" stroke="#FE640B" transform="translate(5.5, 4.75) scale(-1, 1) translate(-5.5, -4.75)"></line>
        <line x1="7" y1="11.5" x2="4" y2="6.5" id="Line" stroke="#FE640B"></line>
        <line x1="12" y1="6.5" x2="9" y2="11.5" id="Line-26" stroke="#FE640B"></line>
        <line x1="12" y1="6.5" x2="11.5" y2="3.5" id="Line-27" stroke="#FE640B"></line>
        <line x1="4" y1="6.5" x2="4.5" y2="3.5" id="Line-4" stroke="#FE640B"></line>
    </g>
</svg>