<?xml version="1.0" encoding="UTF-8"?>
<svg width="16px" height="16px" viewBox="0 0 16 16" version="1.1" xmlns="http://www.w3.org/2000/svg" xmlns:xlink="http://www.w3.org/1999/xlink">
    <title>sonar_cloud</title>
    <g id="sonar_cloud" stroke="none" stroke-width="1" fill="none" fill-rule="evenodd" stroke-linecap="round" stroke-linejoin="round">
        <path d="M8.00239176,7.37923333 C7.31722556,6.82912441 6.44704834,6.5 5.5,6.5 C3.290861,6.5 1.5,8.290861 1.5,10.5 C1.5,12.709139 3.290861,14.5 5.5,14.5 C6.44651406,14.5 7.3162437,14.1712468 8.00123196,13.6216975" id="Path" stroke="#FE640B" fill-rule="nonzero"></path>
        <path d="M8.00239176,7.37923333 C7.31722556,6.82912441 6.44704834,6.5 5.5,6.5 C3.290861,6.5 1.5,8.290861 1.5,10.5 C1.5,12.709139 3.290861,14.5 5.5,14.5 C6.44651406,14.5 7.3162437,14.1712468 8.00123196,13.6216975" id="Path" stroke="#FE640B" fill-rule="nonzero"></path>
        <path d="M6.5,10.5 C6.5,12.709139 8.290861,14.5 10.5,14.5 C12.709139,14.5 14.5,12.709139 14.5,10.5 C14.5,8.81722032 13.460869,7.3771427 11.9892752,6.78643538" id="Path" stroke="#FE640B" fill-rule="nonzero"></path>
        <path d="M9.49205595,10.2124472 C10.9621779,9.62104272 12,8.18171954 12,6.5 C12,4.290861 10.209139,2.5 8,2.5 C5.790861,2.5 4,4.290861 4,6.5 C4,6.59738468 4.00348014,6.69395653 4.01032285,6.78959797" id="Path" stroke="#FE640B" fill-rule="nonzero"></path>
    </g>
</svg>