<?xml version="1.0" encoding="UTF-8"?>
<svg width="16px" height="16px" viewBox="0 0 16 16" version="1.1" xmlns="http://www.w3.org/2000/svg" xmlns:xlink="http://www.w3.org/1999/xlink">
    <title>stylelint_ignore</title>
    <g id="stylelint_ignore" stroke="none" stroke-width="1" fill="none" fill-rule="evenodd">
        <polyline id="Path" stroke="#8C8FA1" stroke-linecap="round" stroke-linejoin="round" points="11.500879 3.48131431 12 1.5 13.5 1.5 15.5 3.5 14 4.5 15 6 8.00007895 15.5 10.716442 6.18438175"></polyline>
        <polyline id="Path" stroke="#8C8FA1" stroke-linecap="round" stroke-linejoin="round" points="6.5 3.5 4.5 2.5 4.5 6.5 6.5 5.5"></polyline>
        <polyline id="Path" stroke="#8C8FA1" stroke-linecap="round" stroke-linejoin="round" transform="translate(10.5, 4.5) scale(-1, 1) translate(-10.5, -4.5)" points="11.5 3.5 9.5 2.5 9.5 6.5 11.5 5.5"></polyline>
        <polyline id="Path" stroke="#8C8FA1" stroke-linecap="round" stroke-linejoin="round" points="4.49794668 3.47716621 4 1.5 2.5 1.5 0.5 3.5 2 4.5 1 6 8.00007895 15.5 5.2772517 6.16543126"></polyline>
        <circle id="Oval" fill="#8C8FA1" cx="8" cy="8" r="1"></circle>
        <polygon id="Rectangle" stroke="#8C8FA1" stroke-linejoin="round" points="6.5 3.5 9.5 3.5 9.5 5.5 6.5 5.5"></polygon>
    </g>
</svg>