<?xml version="1.0" encoding="UTF-8"?>
<svg width="16px" height="16px" viewBox="0 0 16 16" version="1.1" xmlns="http://www.w3.org/2000/svg" xmlns:xlink="http://www.w3.org/1999/xlink">
    <title>svelte</title>
    <g id="svelte" stroke="none" stroke-width="1" fill="none" fill-rule="evenodd" stroke-linecap="round" stroke-linejoin="round">
        <path d="M12.8583551,6.72000722 C12.8583551,6.72000722 14.2477927,4.7426998 12.9374411,2.84796368 C11.626952,0.953365188 9.43620146,1.61008227 9.43620146,1.61008227 C9.43620146,1.61008227 6.14993815,3.35041005 4.32931003,4.58650242 C2.92102936,5.597588 2.08959498,6.84950654 3.30243011,8.95879042 C4.51526525,11.0680743 7.88295274,10.1703866 7.88295274,10.1703866" id="Path" stroke="#FE640B"></path>
        <path d="M3.14164487,9.27999278 C3.14164487,9.27999278 1.75220729,11.2574378 3.06255889,13.1520363 C4.37304802,15.0466348 6.56379854,14.3899177 6.56379854,14.3899177 C6.56379854,14.3899177 9.85006185,12.6495899 11.67069,11.4134976 C13.0788331,10.402412 13.9102675,9.15049346 12.6974323,7.04120958 C11.4845972,4.9319257 8.11690971,5.82961336 8.11690971,5.82961336" id="Path" stroke="#FE640B"></path>
        <line x1="6.30494667" y1="6.95629876" x2="10.4372237" y2="4.40470794" id="Path" stroke="#FE640B"></line>
        <line x1="5.52316453" y1="11.6496515" x2="9.6555791" y2="9.0981983" id="Path" stroke="#FE640B"></line>
    </g>
</svg>