<?xml version="1.0" encoding="UTF-8" standalone="no"?>
<!-- Created with Inkscape (http://www.inkscape.org/) -->

<svg
   width="100.0px"
   height="100.0px"
   viewBox="0 0 100.0 100.0"
   version="1.1"
   id="SVGRoot"
   sodipodi:docname="svelte.svg"
   inkscape:version="1.2.1 (9c6d41e, 2022-07-14)"
   xmlns:inkscape="http://www.inkscape.org/namespaces/inkscape"
   xmlns:sodipodi="http://sodipodi.sourceforge.net/DTD/sodipodi-0.dtd"
   xmlns="http://www.w3.org/2000/svg"
   xmlns:svg="http://www.w3.org/2000/svg">
  <sodipodi:namedview
     id="namedview32486"
     pagecolor="#181825"
     bordercolor="#000000"
     borderopacity="0.24705882"
     inkscape:showpageshadow="2"
     inkscape:pageopacity="0"
     inkscape:pagecheckerboard="0"
     inkscape:deskcolor="#313244"
     inkscape:document-units="px"
     showgrid="true"
     inkscape:zoom="4.9254873"
     inkscape:cx="49.436733"
     inkscape:cy="47.50799"
     inkscape:window-width="1432"
     inkscape:window-height="760"
     inkscape:window-x="0"
     inkscape:window-y="38"
     inkscape:window-maximized="0"
     inkscape:current-layer="SVGRoot"
     showborder="false">
    <inkscape:grid
       type="xygrid"
       id="grid32609" />
  </sodipodi:namedview>
  <path
     style="fill:none;stroke:#ff3e00;stroke-width:5;stroke-linecap:round;stroke-linejoin:round;stroke-dasharray:none;stroke-opacity:1;paint-order:fill markers stroke"
     d="m 85.323336,40.698505 c 0,0 10.101899,-14.367142 0.574183,-28.135051 C 76.369796,-1.2044546 60.44199,3.5678931 60.44199,3.5678931 c 0,0 -23.893181,12.6465899 -37.130606,21.6276249 -10.237152,7.347741 -16.2826612,16.444594 -7.464397,31.771554 8.818259,15.32696 33.302715,8.804166 33.302715,8.804166"
     id="path23821"
     sodipodi:nodetypes="czcczc" />
  <path
     style="fill:none;stroke:#ff3e00;stroke-width:5;stroke-linecap:round;stroke-linejoin:round;stroke-dasharray:none;stroke-opacity:1;paint-order:fill markers stroke"
     d="m 14.676665,59.301494 c 0,0 -10.1019004,14.367142 -0.574184,28.13505 9.527723,13.767916 25.455529,8.995562 25.455529,8.995562 0,0 23.893181,-12.64659 37.130606,-21.627625 C 86.925768,67.45674 92.971273,58.359887 84.153014,43.032927 75.334754,27.705967 50.850298,34.228761 50.850298,34.228761"
     id="path24240"
     sodipodi:nodetypes="czcczc" />
  <path
     style="fill:none;stroke:#ff3e00;stroke-width:5;stroke-linecap:round;stroke-linejoin:round;stroke-dasharray:none;stroke-opacity:1;paint-order:fill markers stroke"
     d="M 37.675849,42.415825 67.720748,23.874706"
     id="path24242"
     sodipodi:nodetypes="cc" />
  <path
     style="fill:none;stroke:#ff3e00;stroke-width:5;stroke-linecap:round;stroke-linejoin:round;stroke-dasharray:none;stroke-opacity:1;paint-order:fill markers stroke"
     d="M 31.991704,76.520657 62.036614,57.979539"
     id="path24244"
     sodipodi:nodetypes="cc" />
</svg>
