<?xml version="1.0" encoding="UTF-8"?>
<svg width="16px" height="16px" viewBox="0 0 16 16" version="1.1" xmlns="http://www.w3.org/2000/svg" xmlns:xlink="http://www.w3.org/1999/xlink">
    <title>svelte_config</title>
    <g id="svelte_config" stroke="none" stroke-width="1" fill="none" fill-rule="evenodd" stroke-linecap="round" stroke-linejoin="round">
        <path d="M11.9984619,14 C12.826889,14 13.4984619,13.3284271 13.4984619,12.5 C13.4984619,11.6715729 12.826889,11 11.9984619,11 C11.1700348,11 10.4984619,11.6715729 10.4984619,12.5 C10.4984619,13.3284271 11.1700348,14 11.9984619,14 Z M13.75,9.5 L15.5,12.5 L13.75,15.5 L10.25,15.5 L8.5,12.5 L10.25,9.5 L13.75,9.5 Z" id="config" stroke="#8C8FA1"></path>
        <path d="M9.91668648,5.3184682 C9.91668648,5.3184682 11.1798116,3.49326135 9.98858283,1.74427417 C8.79722907,-0.00458598076 6.80563769,0.6016144 6.80563769,0.6016144 C6.80563769,0.6016144 3.81812559,2.20807082 2.16300912,3.34907916 C0.882753964,4.28238893 0.126904523,5.43800604 1.22948192,7.38503731 C2.33205932,9.33206859 5.3935934,8.50343382 5.3935934,8.50343382" id="Path" stroke="#FE640B"></path>
        <path d="M1.08331352,7.6815318 C1.08331352,7.6815318 -0.179811552,9.50686568 1.01141717,11.2557258 C2.20277093,13.004586 4.19436231,12.3983856 4.19436231,12.3983856 C4.19436231,12.3983856 5.94664822,11.4561397 7.51070321,10.5023543 M10.2973436,7.49844116 C10.3354057,6.96159124 10.1830739,6.34371199 9.77039304,5.61496269 C8.66781565,3.66793141 5.60628156,4.49656618 5.60628156,4.49656618" id="Shape" stroke="#FE640B"></path>
        <line x1="3.95904243" y1="5.53658347" x2="7.71565791" y2="3.18126887" id="Path" stroke="#FE640B"></line>
        <line x1="3.24833139" y1="9.86890907" x2="7.00507191" y2="7.51372151" id="Path" stroke="#FE640B"></line>
    </g>
</svg>