<?xml version="1.0" encoding="UTF-8"?>
<svg width="16px" height="16px" viewBox="0 0 16 16" version="1.1" xmlns="http://www.w3.org/2000/svg" xmlns:xlink="http://www.w3.org/1999/xlink">
    <title>svg</title>
    <g id="svg" stroke="none" stroke-width="1" fill="none" fill-rule="evenodd" stroke-linecap="round">
        <path d="M4.53589838,10 L11.4641016,6 M4.53589838,10 C4.12168482,9.28256106 3.20429921,9.03674833 2.48686028,9.45096189 C1.76942134,9.86517546 1.52360861,10.7825611 1.93782217,11.5 C2.35203574,12.2174389 3.26942134,12.4632517 3.98686028,12.0490381 C4.70429921,11.6348245 4.95011195,10.7174389 4.53589838,10 Z M8,4 L8,12 M8,4 C8.82842712,4 9.5,3.32842712 9.5,2.5 C9.5,1.67157288 8.82842712,1 8,1 C7.17157288,1 6.5,1.67157288 6.5,2.5 C6.5,3.32842712 7.17157288,4 8,4 Z M4.53589838,6 L11.4641016,10 M4.53589838,6 C4.95011195,5.28256106 4.70429921,4.36517546 3.98686028,3.95096189 C3.26942134,3.53674833 2.35203574,3.78256106 1.93782217,4.5 C1.52360861,5.21743894 1.76942134,6.13482454 2.48686028,6.54903811 C3.20429921,6.96325167 4.12168482,6.71743894 4.53589838,6 Z M8,12 C7.17157288,12 6.5,12.6715729 6.5,13.5 C6.5,14.3284271 7.17157288,15 8,15 C8.82842712,15 9.5,14.3284271 9.5,13.5 C9.5,12.6715729 8.82842712,12 8,12 Z M11.4641016,10 C11.0498881,10.7174389 11.2957008,11.6348245 12.0131397,12.0490381 C12.7305787,12.4632517 13.6479643,12.2174389 14.0621778,11.5 C14.4763914,10.7825611 14.2305787,9.86517546 13.5131397,9.45096189 C12.7957008,9.03674833 11.8783152,9.28256106 11.4641016,10 Z M11.4641016,6 C11.8783152,6.71743894 12.7957008,6.96325167 13.5131397,6.54903811 C14.2305787,6.13482454 14.4763914,5.21743894 14.0621778,4.5 C13.6479643,3.78256106 12.7305787,3.53674833 12.0131397,3.95096189 C11.2957008,4.36517546 11.0498881,5.28256106 11.4641016,6 Z" id="Combined-Shape" stroke="#FE640B"></path>
    </g>
</svg>