<?xml version="1.0" encoding="UTF-8"?>
<svg width="16px" height="16px" viewBox="0 0 16 16" version="1.1" xmlns="http://www.w3.org/2000/svg" xmlns:xlink="http://www.w3.org/1999/xlink">
    <title>swift</title>
    <g id="swift" stroke="none" stroke-width="1" fill="none" fill-rule="evenodd" stroke-linecap="round" stroke-linejoin="round">
        <path d="M14.3426045,10.1933614 C14.6771813,9.11550873 15.430888,5.13077261 9.89496062,1.57575518 C9.70132784,1.45128898 9.44642814,1.48286889 9.28902407,1.65082556 C9.13355041,1.8153605 9.12647467,2.0704273 9.2725876,2.24332847 C9.2950297,2.27019576 11.3350477,4.7558948 10.6097887,7.59466172 C9.35492796,6.73143129 4.36677734,2.77735549 4.36677734,2.77735549 L7.24979628,7.50094227 L1.89625042,4.05086534 C1.89625042,4.05086534 5.68074617,8.69716913 7.99670711,10.4446497 C6.87555064,10.8475011 4.43947708,11.2734268 1.22188128,9.27386774 C1.03872741,9.1595827 0.801689727,9.18232122 0.643602243,9.3293408 C0.487964894,9.4725587 0.454723924,9.70557592 0.564106654,9.88660014 C0.671417796,10.0659789 3.25083628,14.2509554 8.70410722,14.2509554 C10.2002995,14.2509554 11.0741188,13.8250297 11.7775679,13.4828668 C12.2096572,13.273776 12.5508719,13.1071988 12.9235371,13.1071988 C13.8506168,13.1071988 14.458924,14.0274827 14.4641395,14.0357009 C14.5593999,14.182079 14.7274186,14.2642364 14.9014442,14.249533 C15.0743874,14.237789 15.226439,14.1308169 15.2959193,13.9720096 C15.9657052,12.4163931 14.81215,10.7700601 14.3426045,10.1927293 L14.3426045,10.1933614 Z" id="Path" stroke="#FE640B"></path>
    </g>
</svg>