<?xml version="1.0" encoding="UTF-8" standalone="no"?>
<!-- Created with Inkscape (http://www.inkscape.org/) -->

<svg
   width="100.0px"
   height="100.0px"
   viewBox="0 0 100.0 100.0"
   version="1.1"
   id="SVGRoot"
   sodipodi:docname="swift.svg"
   inkscape:version="1.2.1 (9c6d41e410, 2022-07-14)"
   xmlns:inkscape="http://www.inkscape.org/namespaces/inkscape"
   xmlns:sodipodi="http://sodipodi.sourceforge.net/DTD/sodipodi-0.dtd"
   xmlns="http://www.w3.org/2000/svg"
   xmlns:svg="http://www.w3.org/2000/svg">
  <defs
     id="defs8354" />
  <sodipodi:namedview
     id="namedview32486"
     pagecolor="#181825"
     bordercolor="#000000"
     borderopacity="0.24705882"
     inkscape:showpageshadow="2"
     inkscape:pageopacity="0"
     inkscape:pagecheckerboard="0"
     inkscape:deskcolor="#313244"
     inkscape:document-units="px"
     showgrid="true"
     inkscape:zoom="4.8719657"
     inkscape:cx="29.45423"
     inkscape:cy="33.867233"
     inkscape:window-width="1920"
     inkscape:window-height="1017"
     inkscape:window-x="1912"
     inkscape:window-y="-8"
     inkscape:window-maximized="1"
     inkscape:current-layer="SVGRoot"
     showborder="false"
     showguides="false">
    <inkscape:grid
       type="xygrid"
       id="grid32609" />
  </sodipodi:namedview>
  <path
     fill="none"
     stroke="currentColor"
     stroke-linecap="round"
     stroke-linejoin="round"
     stroke-width="6.97793"
     d="M 90.131026,64.662339 C 92.247581,57.842883 97.016933,32.6294 61.989479,10.135159 a 3.0182147,3.0182147 0 0 0 -3.83445,0.474565 2.814153,2.814153 0 0 0 -0.104278,3.749038 c 0.14237,0.170842 13.050435,15.897826 8.461432,33.860002 C 58.572743,42.756555 27.009624,17.737643 27.009624,17.737643 L 45.251809,47.625561 11.377545,25.795706 c 0,0 23.946398,29.39912 38.600903,40.456416 C 42.88372,68.800521 27.46997,71.496033 7.1112518,58.844209 a 3.0229602,3.0229602 0 0 0 -3.6588647,0.351177 2.814153,2.814153 0 0 0 -0.5030589,3.525995 c 0.6786342,1.134204 16.9988038,27.614767 51.5042248,27.614767 9.46752,0 14.996148,-2.695514 19.447555,-4.859516 2.73348,-1.324029 4.892748,-2.377556 7.251298,-2.377556 5.865589,0 9.714311,5.822877 9.747516,5.875078 a 2.9992322,2.9992322 0 0 0 2.766686,1.352502 2.9422847,2.9422847 0 0 0 2.496218,-1.755879 C 100.40065,78.72836 93.101902,68.311722 90.131128,64.657595 Z"
     id="path2"
     style="stroke-width:5;stroke-dasharray:none;stroke:#f05138;stroke-opacity:1" />
</svg>
