<?xml version="1.0" encoding="UTF-8"?>
<svg width="16px" height="16px" viewBox="0 0 16 16" version="1.1" xmlns="http://www.w3.org/2000/svg" xmlns:xlink="http://www.w3.org/1999/xlink">
    <title>tailwind</title>
    <g id="tailwind" stroke="none" stroke-width="1" fill="none" fill-rule="evenodd" stroke-linecap="round" stroke-linejoin="round">
        <path d="M8,2.5 C5.99971409,2.5 4.75042887,3.61122093 4.25007942,5.83333333 C4.99996823,4.72227713 5.87534151,4.3055281 6.87492852,4.58341569 C7.4461211,4.74220861 7.85323083,5.20227977 8.30433954,5.71110891 C9.04040917,6.53999473 9.89116208,7.5 11.7499206,7.5 C13.7503653,7.5 14.9996505,6.3889438 15.5,4.16666667 C14.7499523,5.27772287 13.8745791,5.6944719 12.8749921,5.41674903 C12.3039583,5.25779139 11.8968486,4.79788496 11.4457399,4.28889109 C10.7096702,3.46000527 9.85891734,2.5 8,2.5 Z" id="Path" stroke="#209FB5"></path>
        <path d="M4.25007942,8.5 C2.24963467,8.5 1.00034945,9.6110562 0.5,11.8333333 C1.25004765,10.7222771 2.12542093,10.3055281 3.12500794,10.583251 C3.69604168,10.7422086 4.10315141,11.202115 4.55426012,11.7111089 C5.29032975,12.5399947 6.14108266,13.5 8,13.5 C10.0002859,13.5 11.2495711,12.3887791 11.7499206,10.1666667 C11.0000318,11.2777229 10.1246585,11.6944719 9.12507148,11.4165843 C8.5538789,11.2577914 8.14676917,10.7977202 7.69566046,10.2888911 C6.95959083,9.46000527 6.10883792,8.5 4.25007942,8.5 Z" id="Path" stroke="#209FB5"></path>
    </g>
</svg>