<?xml version="1.0" encoding="UTF-8" standalone="no"?>
<!-- Created with Inkscape (http://www.inkscape.org/) -->

<svg
   width="100.0px"
   height="100.0px"
   viewBox="0 0 100.0 100.0"
   version="1.1"
   id="SVGRoot"
   sodipodi:docname="tauri.svg"
   inkscape:version="1.2.1 (9c6d41e, 2022-07-14)"
   xmlns:inkscape="http://www.inkscape.org/namespaces/inkscape"
   xmlns:sodipodi="http://sodipodi.sourceforge.net/DTD/sodipodi-0.dtd"
   xmlns="http://www.w3.org/2000/svg"
   xmlns:svg="http://www.w3.org/2000/svg">
  <defs
     id="defs8354">
    <clipPath
       id="skillIconsWebassembly0">
      <rect
         width="256"
         height="256"
         fill="#ffffff"
         rx="60"
         id="rect59196"
         x="0"
         y="0" />
    </clipPath>
    <clipPath
       id="clipPath59704">
      <rect
         width="256"
         height="256"
         fill="#ffffff"
         rx="60"
         id="rect59702"
         x="0"
         y="0" />
    </clipPath>
    <mask
       id="mask0_205_98"
       maskUnits="userSpaceOnUse"
       x="0"
       y="0"
       width="187"
       height="257">
      <path
         d="M 4.61302,12.6849 C 4.40676,12.7038 4.20234,12.7296 4,12.762 V 4.45725 H 94.1534 Z M 181.766,71.7027 c 0.206,-0.019 0.411,-0.0448 0.613,-0.0772 v 11.0961 c -0.44,-0.0255 -0.889,-0.0184 -1.345,0.0235 L 4.61302,98.9559 C 4.40676,98.9749 4.20234,99.0007 4,99.0331 V 87.9369 c 0.43996,0.0255 0.88912,0.0185 1.34502,-0.0234 z M 4.61302,185.227 C 4.40676,185.246 4.20234,185.272 4,185.304 v -11.096 c 0.43996,0.025 0.88912,0.018 1.34502,-0.023 L 181.766,157.974 c 0.206,-0.019 0.411,-0.045 0.613,-0.077 v 11.096 c -0.44,-0.026 -0.889,-0.019 -1.345,0.023 z M 181.766,244.245 c 0.206,-0.019 0.411,-0.045 0.613,-0.077 v 8.304 H 92.2257 Z"
         fill="#c4c4c4"
         stroke="#ff4d35"
         stroke-width="8"
         id="path66421" />
    </mask>
  </defs>
  <sodipodi:namedview
     id="namedview32486"
     pagecolor="#181825"
     bordercolor="#000000"
     borderopacity="0.24705882"
     inkscape:showpageshadow="2"
     inkscape:pageopacity="0"
     inkscape:pagecheckerboard="0"
     inkscape:deskcolor="#313244"
     inkscape:document-units="px"
     showgrid="true"
     inkscape:zoom="0.95429406"
     inkscape:cx="-30.388956"
     inkscape:cy="-27.245271"
     inkscape:window-width="1309"
     inkscape:window-height="686"
     inkscape:window-x="0"
     inkscape:window-y="38"
     inkscape:window-maximized="0"
     inkscape:current-layer="SVGRoot"
     showborder="false"
     showguides="false">
    <inkscape:grid
       type="xygrid"
       id="grid32609" />
  </sodipodi:namedview>
  <circle
     cx="42.01939"
     cy="63.611748"
     fill="#24c8db"
     id="circle68041"
     style="fill:none;stroke:#24c8db;stroke-width:5;stroke-dasharray:none;stroke-opacity:1"
     r="2.5" />
  <path
     style="fill:none;stroke:#ffc131;stroke-width:5;stroke-linecap:round;stroke-linejoin:round;stroke-dasharray:none;stroke-opacity:1"
     id="path69711"
     sodipodi:type="arc"
     sodipodi:cx="58.085278"
     sodipodi:cy="36.501438"
     sodipodi:rx="34"
     sodipodi:ry="34"
     sodipodi:start="3.6170513"
     sodipodi:end="1.2595087"
     sodipodi:open="true"
     sodipodi:arc-type="arc"
     d="M 27.85646,20.938065 A 34,34 0 0 1 65.279616,3.2713088 34,34 0 0 1 92.044404,34.834785 34,34 0 0 1 68.498955,68.867397" />
  <path
     style="fill:none;stroke:#24c8db;stroke-width:5;stroke-linecap:round;stroke-linejoin:round;stroke-dasharray:none;stroke-opacity:1"
     id="path69713"
     sodipodi:type="arc"
     sodipodi:cx="41.875435"
     sodipodi:cy="63.498413"
     sodipodi:rx="34"
     sodipodi:ry="34"
     sodipodi:start="0.47943681"
     sodipodi:end="4.3810965"
     sodipodi:open="true"
     sodipodi:arc-type="arc"
     d="M 72.0421,79.181918 A 34,34 0 0 1 34.814612,96.757168 34,34 0 0 1 7.9387747,65.572803 34,34 0 0 1 30.816408,31.34724" />
  <circle
     cx="57.990917"
     cy="36.151928"
     fill="#24c8db"
     id="circle70095"
     style="fill:none;stroke:#ffc131;stroke-width:5;stroke-dasharray:none;stroke-opacity:1"
     r="2.5" />
</svg>
