<?xml version="1.0" encoding="UTF-8"?>
<svg width="16px" height="16px" viewBox="0 0 16 16" version="1.1" xmlns="http://www.w3.org/2000/svg" xmlns:xlink="http://www.w3.org/1999/xlink">
    <title>tldraw</title>
    <g id="tldraw" stroke="none" stroke-width="1" fill="none" fill-rule="evenodd" stroke-linejoin="round">
        <path d="M4,1.5 L12,1.5 C13.3807119,1.5 14.5,2.61928813 14.5,4 L14.5,12 C14.5,13.3807119 13.3807119,14.5 12,14.5 L4,14.5 C2.61928813,14.5 1.5,13.3807119 1.5,12 L1.5,4 C1.5,2.61928813 2.61928813,1.5 4,1.5 Z M8,6.5 C8.82842712,6.5 9.5,5.82842712 9.5,5 C9.5,4.17157288 8.82842712,3.5 8,3.5 C7.17157288,3.5 6.5,4.17157288 6.5,5 C6.5,5.82842712 7.17157288,6.5 8,6.5 Z M7.5,13.5 C8.83333333,12.1666667 9.5,11 9.5,10 C9.5,9.17157288 8.82842712,8.5 8,8.5 C7.17157288,8.5 6.5,9.17157288 6.5,10 C6.5,10.8284271 7.17157288,11.5 8,11.5 L8.5,11.5 L7.5,13.5 Z" id="Combined-Shape" stroke="#4C4F69"></path>
    </g>
</svg>