<?xml version="1.0" encoding="UTF-8" standalone="no"?>
<!-- Created with Inkscape (http://www.inkscape.org/) -->

<svg
   width="100.0px"
   height="100.0px"
   viewBox="0 0 100.0 100.0"
   version="1.1"
   id="SVGRoot"
   sodipodi:docname="tsx.svg"
   inkscape:version="1.2.1 (9c6d41e410, 2022-07-14)"
   xmlns:inkscape="http://www.inkscape.org/namespaces/inkscape"
   xmlns:sodipodi="http://sodipodi.sourceforge.net/DTD/sodipodi-0.dtd"
   xmlns="http://www.w3.org/2000/svg"
   xmlns:svg="http://www.w3.org/2000/svg">
  <defs
     id="defs44872" />
  <sodipodi:namedview
     id="namedview32486"
     pagecolor="#181825"
     bordercolor="#000000"
     borderopacity="0.24705882"
     inkscape:showpageshadow="2"
     inkscape:pageopacity="0"
     inkscape:pagecheckerboard="0"
     inkscape:deskcolor="#313244"
     inkscape:document-units="px"
     showgrid="true"
     inkscape:zoom="5.6568543"
     inkscape:cx="47.110989"
     inkscape:cy="80.698561"
     inkscape:window-width="1419"
     inkscape:window-height="1040"
     inkscape:window-x="334"
     inkscape:window-y="61"
     inkscape:window-maximized="0"
     inkscape:current-layer="SVGRoot"
     showborder="false">
    <inkscape:grid
       type="xygrid"
       id="grid32609" />
  </sodipodi:namedview>
  <path
     style="fill:none;stroke:#358ef1;stroke-width:5;stroke-linecap:round;stroke-linejoin:round;stroke-dasharray:none;stroke-opacity:1;paint-order:fill markers stroke"
     d="m 16.666667,3.0619713 66.666668,-0.048889 c 6.547289,-0.00478 13.888886,7.3416027 13.888886,13.8888887 v 66.666667 c 0,6.437318 -7.451565,13.418282 -13.888886,13.418282 H 16.666668 c -6.437323,0 -13.8888889,-6.980964 -13.8888889,-13.418282 V 16.901971 c 0,-6.535772 7.3531209,-13.8352063 13.8888879,-13.8399997 z"
     id="path12607"
     sodipodi:nodetypes="sssssssss" />
  <path
     style="fill:none;stroke:#358ef1;stroke-width:5.00006;stroke-linecap:round;stroke-linejoin:round;stroke-dasharray:none;stroke-opacity:1;paint-order:fill markers stroke"
     d="m 56.771041,57.470916 c 0,0 -0.0017,-0.06538 -0.655112,-0.655113 -0.653365,-0.589735 -1.335013,-1.004612 -2.019934,-1.310227 -0.68492,-0.305616 -1.315557,-0.434452 -2.019932,-0.545928 -0.704374,-0.111477 -1.04128,-0.05927 -1.856154,-0.01365 -0.814873,0.04563 -1.79552,0.154495 -2.470323,0.491335 -0.674803,0.33684 -1.437386,0.73478 -1.869803,1.146449 -0.432415,0.411666 -0.714245,0.811523 -1.009964,1.323875 -0.295722,0.512349 -0.557579,1.131397 -0.709708,1.692375 -0.152128,0.560977 -0.215437,0.922268 -0.21837,1.637782 -0.003,0.715515 0.08417,1.84734 0.327556,2.620454 0.243385,0.773114 0.628133,1.399117 1.037263,1.965339 0.409129,0.56622 0.901346,1.090361 1.36482,1.419411 0.463473,0.32905 0.689446,0.49539 1.364818,0.818892 0.675373,0.323502 1.74697,0.682409 2.675045,1.146447 0.928077,0.464039 1.993697,0.961421 2.838825,1.419413 0.845128,0.457991 1.632454,0.871344 2.238303,1.310225 0.60585,0.438884 0.988361,0.780362 1.419412,1.255635 0.431051,0.475273 0.854443,1.020816 1.146448,1.58319 0.292007,0.562375 0.483701,0.958511 0.619822,1.727667 0.06806,0.384578 0.09789,0.920966 0.102613,1.447869 0.0047,0.526903 -0.01566,1.04432 -0.04802,1.390955 -0.06472,0.69327 -0.121802,0.759703 -0.292266,1.329528 -0.170463,0.569826 -0.577033,1.483129 -1.011906,2.074525 -0.434871,0.591395 -0.885411,0.979971 -1.49936,1.364819 -0.61395,0.384847 -1.320774,0.723079 -1.96534,0.928077 -0.644567,0.204999 -1.108763,0.254265 -1.856155,0.327557 -0.747389,0.07329 -1.713086,0.141786 -2.620452,0.05459 -0.907365,-0.08719 -1.991575,-0.331839 -2.784229,-0.600518 -0.792654,-0.268677 -1.386421,-0.528731 -1.96534,-0.928075 -0.578918,-0.399347 -0.821082,-0.57909 -1.146448,-0.955375 -0.432769,-0.500494 -1.037262,-1.692375 -1.037262,-1.692375"
     id="path1167"
     sodipodi:nodetypes="czzzzzzzzzzzzzzzzzzssszzzzzzzzac" />
  <path
     id="path5247"
     style="fill:none;stroke:#358ef1;stroke-width:5.00006;stroke-linecap:round;stroke-linejoin:round;stroke-dasharray:none;stroke-opacity:1;paint-order:fill markers stroke"
     d="M 24.977191,55.347111 V 85.530973 M 15.018831,54.922529 H 34.858352" />
  <path
     id="path9839"
     style="fill:#9099a3;fill-opacity:1;stroke:#358ef1;stroke-width:5;stroke-linecap:round;stroke-linejoin:round;stroke-dasharray:none;stroke-opacity:1;paint-order:fill markers stroke"
     d="M 68.681402,85.516536 85.35594,55.099248 m 0,30.417288 -16.674538,-30.417288" />
</svg>
