<?xml version="1.0" encoding="UTF-8"?>
<svg width="16px" height="16px" viewBox="0 0 16 16" version="1.1" xmlns="http://www.w3.org/2000/svg" xmlns:xlink="http://www.w3.org/1999/xlink">
    <title>typescript_config</title>
    <g id="typescript_config" stroke="none" stroke-width="1" fill="none" fill-rule="evenodd" stroke-linecap="round" stroke-linejoin="round">
        <g id="config" transform="translate(7.64, 7.9767)" stroke="#8C8FA1">
            <circle id="Path" cx="4.36" cy="4.52331668" r="1.5"></circle>
            <polygon id="Path" transform="translate(4.3615, 4.5233) rotate(-330) translate(-4.3615, -4.5233)" points="4.37708256 1.05024047 7.39262702 2.77331668 7.37708256 6.2463929 4.34599365 7.9963929 1.33044919 6.27331668 1.34599365 2.80024047"></polygon>
        </g>
        <path d="M6.5,11.5 L2.5,11.5 C1.3954305,11.5 0.5,10.6045695 0.5,9.5 L0.5,2.5 C0.5,1.3954305 1.3954305,0.5 2.5,0.5 L9.5,0.5 C10.6045695,0.5 11.5,1.3954305 11.5,2.5 L11.5,7 L11.5,7" id="Path" stroke="#1E66F5"></path>
        <g id="ts_small" transform="translate(2.5, 4)" stroke="#1E66F5">
            <path d="M7,1 C6.66666667,0.666666667 6.16666667,0.5 5.5,0.5 C4.5,0.5 4,0.996419271 4,1.5 C4,2.00358073 4.5,2.5 5.5,2.5 C6.5,2.5 7.00024414,3 7,3.5 C6.99975586,4 6.5,4.5 5.5,4.5 C4.83333333,4.5 4.33333333,4.33333333 4,4" id="Path"></path>
            <line x1="1" y1="0.5" x2="1" y2="4.5" id="Path"></line>
            <line x1="2.27831642e-13" y1="0.5" x2="2" y2="0.5" id="Path"></line>
        </g>
    </g>
</svg>