<?xml version="1.0" encoding="UTF-8"?>
<svg width="16px" height="16px" viewBox="0 0 16 16" version="1.1" xmlns="http://www.w3.org/2000/svg" xmlns:xlink="http://www.w3.org/1999/xlink">
    <title>typescript_def</title>
    <g id="typescript_def" stroke="none" stroke-width="1" fill="none" fill-rule="evenodd" stroke-linejoin="round">
        <path d="M12.5,4.5 L13.5,4.5 C14.6045695,4.5 15.5,5.3954305 15.5,6.5 L15.5,13.5 C15.5,14.6045695 14.6045695,15.5 13.5,15.5 L6.5,15.5 C5.3954305,15.5 4.5,14.6045695 4.5,13.5 L4.5,10" id="Path" stroke="#1E66F5" stroke-linecap="round"></path>
        <path d="M13.5,9 C13.1666667,8.66666667 12.6666667,8.5 12,8.5 C11,8.5 10.5,8.99641927 10.5,9.5 C10.5,10.0035807 11,10.5 12,10.5 C13,10.5 13.5002441,11 13.5,11.5 C13.4997559,12 13,12.5 12,12.5 C11.3333333,12.5 10.8333333,12.3333333 10.5,12" id="Path" stroke="#1E66F5" stroke-linecap="round"></path>
        <path d="M7.5,8.5 L7.5,13 M6,8.5 L9,8.5" id="Combined-Shape" stroke="#1E66F5"></path>
        <path d="M2.03836733,7.88230653 L0.511467178,3.01942135 C0.464485635,2.87020324 0.566131238,2.70547236 0.738396895,2.65139926 L7.53491238,0.517137091 C7.63877409,0.484634137 7.7506138,0.498817244 7.83246215,0.555845155 L10.4666789,2.39964911 C10.5650742,2.46849627 10.6023048,2.58683658 10.5609374,2.69956273 L9.45362087,5.71849622 C9.41934502,5.81186834 9.33601927,5.88765932 9.23156659,5.92031002 L2.43505111,8.05457219 C2.26278545,8.10864529 2.08520113,8.03152464 2.03836733,7.88230653 Z M7.16739945,4.64588136 C7.81407371,4.8191572 8.4787746,4.43539196 8.65205044,3.78871771 C8.82532628,3.14204346 8.44156105,2.47734257 7.79488679,2.30406672 C7.14821254,2.13079088 6.48351165,2.51455612 6.31023581,3.16123037 C6.13695996,3.80790462 6.5207252,4.47260551 7.16739945,4.64588136 Z" id="Combined-Shape" stroke="#209FB5" stroke-linecap="round"></path>
    </g>
</svg>