<?xml version="1.0" encoding="UTF-8" standalone="no"?>
<!-- Created with Inkscape (http://www.inkscape.org/) -->

<svg
   width="100.0px"
   height="100.0px"
   viewBox="0 0 100.0 100.0"
   version="1.1"
   id="SVGRoot"
   sodipodi:docname="typescript.svg"
   inkscape:version="1.2.1 (9c6d41e410, 2022-07-14)"
   xmlns:inkscape="http://www.inkscape.org/namespaces/inkscape"
   xmlns:sodipodi="http://sodipodi.sourceforge.net/DTD/sodipodi-0.dtd"
   xmlns="http://www.w3.org/2000/svg"
   xmlns:svg="http://www.w3.org/2000/svg">
  <defs
     id="defs44872" />
  <sodipodi:namedview
     id="namedview32486"
     pagecolor="#181825"
     bordercolor="#000000"
     borderopacity="0.24705882"
     inkscape:showpageshadow="2"
     inkscape:pageopacity="0"
     inkscape:pagecheckerboard="0"
     inkscape:deskcolor="#313244"
     inkscape:document-units="px"
     showgrid="true"
     inkscape:zoom="2.8284272"
     inkscape:cx="51.088464"
     inkscape:cy="62.755726"
     inkscape:window-width="1419"
     inkscape:window-height="1040"
     inkscape:window-x="2016"
     inkscape:window-y="35"
     inkscape:window-maximized="0"
     inkscape:current-layer="SVGRoot"
     showborder="false">
    <inkscape:grid
       type="xygrid"
       id="grid32609" />
  </sodipodi:namedview>
  <path
     style="fill:none;stroke:#358ef1;stroke-width:5;stroke-linecap:round;stroke-linejoin:round;stroke-dasharray:none;stroke-opacity:1;paint-order:fill markers stroke"
     d="m 16.666667,3.0619713 66.666668,-0.048889 c 6.547289,-0.00478 13.888886,7.3416027 13.888886,13.8888887 v 66.666667 c 0,6.437318 -7.451565,13.418282 -13.888886,13.418282 H 16.666668 c -6.437323,0 -13.8888889,-6.980964 -13.8888889,-13.418282 V 16.901971 c 0,-6.535772 7.3531209,-13.8352063 13.8888879,-13.8399997 z"
     id="path12607"
     sodipodi:nodetypes="sssssssss" />
  <path
     style="fill:none;stroke:#358ef1;stroke-width:5;stroke-linecap:round;stroke-linejoin:round;stroke-dasharray:none;stroke-opacity:1;paint-order:fill markers stroke"
     d="m 82.939708,53.387591 c 0,0 -0.002,-0.07486 -0.750089,-0.75009 -0.748087,-0.675232 -1.52856,-1.150257 -2.312778,-1.50018 -0.784218,-0.349923 -1.506284,-0.497437 -2.312777,-0.625075 -0.806492,-0.127638 -1.192243,-0.06787 -2.125254,-0.01563 -0.933012,0.05225 -2.05583,0.176893 -2.828464,0.562568 -0.772635,0.385674 -1.645775,0.841307 -2.140882,1.312657 -0.495106,0.471349 -0.817795,0.929177 -1.156388,1.515807 -0.338594,0.586629 -0.638414,1.295425 -0.812598,1.937732 -0.174184,0.642307 -0.246672,1.055976 -0.25003,1.875224 -0.0034,0.819249 0.09637,2.115162 0.375045,3.00036 0.27867,0.885198 0.719198,1.601958 1.187643,2.250269 0.468444,0.64831 1.03202,1.248439 1.562687,1.625194 0.530666,0.376755 0.789401,0.56721 1.562687,0.937613 0.773286,0.370402 2.00024,0.781343 3.062867,1.312657 1.062627,0.531314 2.282737,1.100804 3.25039,1.625195 0.967652,0.52439 1.869122,0.997669 2.562807,1.500179 0.693684,0.502511 1.13165,0.893496 1.625194,1.437673 0.493544,0.544176 0.978317,1.168811 1.312658,1.812717 0.334341,0.643906 0.553825,1.097473 0.709682,1.97814 0.07793,0.440333 0.11208,1.054485 0.117488,1.657777 0.0054,0.603292 -0.01793,1.195723 -0.05498,1.592612 -0.0741,0.793779 -0.13946,0.869843 -0.334637,1.52228 -0.195177,0.652437 -0.660691,1.698149 -1.15861,2.375284 -0.497918,0.677135 -1.013776,1.122046 -1.716734,1.562688 -0.702959,0.440641 -1.512256,0.827908 -2.25027,1.062627 -0.738015,0.234719 -1.269509,0.291127 -2.125255,0.375045 -0.855745,0.08392 -1.961445,0.162342 -3.000359,0.06251 -1.038915,-0.09983 -2.280311,-0.379952 -3.187882,-0.687582 -0.907571,-0.30763 -1.587421,-0.605386 -2.25027,-1.062627 -0.662848,-0.457242 -0.94012,-0.663044 -1.312657,-1.093881 C 67.692432,81.974279 67.0003,80.609601 67.0003,80.609601"
     id="path1167"
     sodipodi:nodetypes="czzzzzzzzzzzzzzzzzzssszzzzzzzzac" />
  <path
     id="path5247"
     style="fill:none;stroke:#358ef1;stroke-width:5;stroke-linecap:round;stroke-linejoin:round;stroke-dasharray:none;stroke-opacity:1;paint-order:fill markers stroke"
     d="M 46.536465,50.955882 V 85.515725 M 35.134368,50.469746 h 22.715805" />
</svg>
