<?xml version="1.0" encoding="UTF-8" standalone="no"?>
<!-- Created with Inkscape (http://www.inkscape.org/) -->

<svg
   width="100.0px"
   height="100.0px"
   viewBox="0 0 100.0 100.0"
   version="1.1"
   id="SVGRoot"
   sodipodi:docname="typescript_config.svg"
   inkscape:version="1.2.1 (9c6d41e410, 2022-07-14)"
   xmlns:inkscape="http://www.inkscape.org/namespaces/inkscape"
   xmlns:sodipodi="http://sodipodi.sourceforge.net/DTD/sodipodi-0.dtd"
   xmlns="http://www.w3.org/2000/svg"
   xmlns:svg="http://www.w3.org/2000/svg">
  <defs
     id="defs44872" />
  <sodipodi:namedview
     id="namedview32486"
     pagecolor="#181825"
     bordercolor="#000000"
     borderopacity="0.24705882"
     inkscape:showpageshadow="2"
     inkscape:pageopacity="0"
     inkscape:pagecheckerboard="0"
     inkscape:deskcolor="#313244"
     inkscape:document-units="px"
     showgrid="true"
     inkscape:zoom="1.4142136"
     inkscape:cx="-109.9551"
     inkscape:cy="71.06423"
     inkscape:window-width="1419"
     inkscape:window-height="1040"
     inkscape:window-x="251"
     inkscape:window-y="116"
     inkscape:window-maximized="0"
     inkscape:current-layer="SVGRoot"
     showborder="false">
    <inkscape:grid
       type="xygrid"
       id="grid32609" />
  </sodipodi:namedview>
  <path
     style="fill:none;stroke:#358ef1;stroke-width:5;stroke-linecap:round;stroke-linejoin:round;stroke-dasharray:none;stroke-opacity:1;paint-order:fill markers stroke"
     d="m 44.598666,73.71112 c -10.524666,0 -21.049333,0 -31.573999,0 C 8.1466177,73.71112 2.5,68.421113 2.5,63.543068 v -50.5184 C 2.5,8.0720174 8.0720185,2.5406813 13.024666,2.537049 l 50.5184,-0.037047 c 4.961379,-0.00362 10.524665,5.5632903 10.524665,10.524666 0,10.524667 0,21.049333 0,31.574"
     id="path12607"
     sodipodi:nodetypes="ccsssscc" />
  <path
     style="fill:none;stroke:#358ef1;stroke-width:5;stroke-linecap:round;stroke-linejoin:round;stroke-dasharray:none;stroke-opacity:1;paint-order:fill markers stroke"
     d="m 55.396178,27.049024 c 0,0 -0.0015,-0.05673 -0.568399,-0.5684 -0.566883,-0.511675 -1.158306,-0.871637 -1.752568,-1.136801 -0.594262,-0.265163 -1.141426,-0.376946 -1.752567,-0.473667 -0.61114,-0.09672 -0.903453,-0.05143 -1.610466,-0.01184 -0.707014,0.03959 -1.557859,0.134046 -2.143342,0.426301 -0.585485,0.292254 -1.247129,0.637522 -1.622309,0.9947 -0.37518,0.357177 -0.619706,0.704108 -0.876284,1.148642 -0.256578,0.444533 -0.483774,0.981642 -0.615767,1.468367 -0.131992,0.486725 -0.186922,0.800193 -0.189467,1.421 -0.0026,0.620807 0.07303,1.602819 0.284201,2.2736 0.211169,0.670782 0.544991,1.213926 0.899967,1.7052 0.354976,0.491274 0.78204,0.946037 1.184167,1.231533 0.402126,0.285496 0.598189,0.429818 1.184166,0.710501 0.585978,0.280682 1.515734,0.592083 2.320967,0.9947 0.805234,0.402617 1.729804,0.834163 2.463068,1.231534 0.733263,0.39737 1.416376,0.756009 1.942034,1.136799 0.525657,0.380791 0.857537,0.67707 1.231533,1.089434 0.373995,0.412364 0.741345,0.885697 0.9947,1.373634 0.253356,0.487936 0.419676,0.831638 0.53778,1.498987 0.05905,0.333673 0.08493,0.799063 0.08903,1.256223 0.0041,0.45716 -0.01359,0.90609 -0.04166,1.206843 -0.05615,0.601507 -0.105679,0.659147 -0.25358,1.153548 -0.1479,0.494401 -0.500655,1.286816 -0.877966,1.799933 -0.377311,0.513116 -0.768216,0.850259 -1.3009,1.184167 -0.532686,0.333907 -1.145952,0.627369 -1.705201,0.805234 -0.55925,0.177864 -0.962003,0.220609 -1.610467,0.2842 -0.648463,0.06359 -1.486336,0.123018 -2.2736,0.04737 -0.787265,-0.07565 -1.727965,-0.287918 -2.415701,-0.521033 -0.687735,-0.233115 -1.202909,-0.458747 -1.7052,-0.805233 -0.50229,-0.346487 -0.7124,-0.502439 -0.9947,-0.828917 -0.375489,-0.434253 -0.89997,-1.468373 -0.89997,-1.468373"
     id="path1167"
     sodipodi:nodetypes="czzzzzzzzzzzzzzzzzzssszzzzzzzzac" />
  <path
     id="path5247"
     style="fill:none;stroke:#358ef1;stroke-width:5;stroke-linecap:round;stroke-linejoin:round;stroke-dasharray:none;stroke-opacity:1;paint-order:fill markers stroke"
     d="M 27.810674,25.206333 V 51.394952 M 19.170439,24.837951 h 17.213492" />
  <path
     style="fill:none;stroke:#808080;stroke-width:5.00775;stroke-linecap:round;stroke-linejoin:round;stroke-dasharray:none;stroke-opacity:1;paint-order:fill markers stroke"
     d="m 76.250545,55.004365 c -2.83422,0 -3.84035,4.32967 -6.63944,5.31154 -2.79908,0.98186 -7.1043,-2.1909 -9.29518,0 -2.190916,2.1909 0.98185,6.49611 0,9.29519 -0.981876,2.79909 -5.311552,3.80522 -5.311552,6.63943 0,2.83421 4.329676,3.84034 5.311552,6.63943 0.98185,2.79908 -2.190016,7.1034 0,9.29519 2.18999,2.19179 6.4969,-0.9742 9.29518,0.007 2.79829,0.98177 3.806,5.30496 6.63944,5.30398 2.8334,-9e-4 3.84033,-4.32968 6.63941,-5.31154 2.79909,-0.98187 7.10341,2.19 9.2952,0 2.19178,-2.19001 -0.97421,-6.49692 0.007,-9.2952 0.98178,-2.79828 5.30496,-3.80601 5.30397,-6.63942 -9e-4,-2.83342 -4.32966,-3.84034 -5.31154,-6.63943 -0.98187,-2.79908 2.19089,-7.1043 0,-9.29519 -2.1909,-2.1909 -6.4961,0.98186 -9.2952,0 -2.79909,-0.98187 -3.80522,-5.31154 -6.63942,-5.31154 z"
     id="path3626"
     sodipodi:nodetypes="zzzzzzzzzzzzzzzzz" />
  <circle
     style="fill:none;stroke:#808080;stroke-width:5.00775;stroke-linecap:round;stroke-linejoin:round;stroke-dasharray:none;stroke-opacity:1;paint-order:fill markers stroke"
     id="path3680"
     cx="76.250534"
     cy="76.250526"
     r="7.9673114" />
</svg>
