<?xml version="1.0" encoding="UTF-8"?>
<svg width="16px" height="16px" viewBox="0 0 16 16" version="1.1" xmlns="http://www.w3.org/2000/svg" xmlns:xlink="http://www.w3.org/1999/xlink">
    <title>typescript_react</title>
    <g id="typescript_react" stroke="none" stroke-width="1" fill="none" fill-rule="evenodd">
        <path d="M8,9.515 C8.5917035,9.515 9.07142857,9.03527493 9.07142857,8.44357143 C9.07142857,7.85186793 8.5917035,7.37214286 8,7.37214286 C7.4082965,7.37214286 6.92857143,7.85186793 6.92857143,8.44357143 C6.92857143,9.03527493 7.4082965,9.515 8,9.515 Z" id="Path" fill="#1E66F5" fill-rule="nonzero"></path>
        <path d="M8,11.3061051 C12.1421667,11.3061051 15.5,10.0240346 15.5,8.44246689 C15.5,6.86098256 12.1421667,5.57887859 8,5.57887859 C3.85786667,5.57887859 0.5,6.86098256 0.5,8.44246689 C0.5,10.0240346 3.85786667,11.3061051 8,11.3061051 Z" id="Path" stroke="#1E66F5"></path>
        <path d="M5.520025,9.87428604 C7.59108333,13.4614171 10.3803333,15.7283947 11.75,14.9375692 C13.1196667,14.146827 12.5510833,10.5978622 10.48,7.01064774 C8.40891667,3.42351661 5.61965833,1.1565974 4.25,1.94735623 C2.88035,2.7381234 3.44895833,6.28712991 5.520025,9.87428604 Z" id="Path" stroke="#1E66F5"></path>
        <path d="M5.520025,7.01064774 C3.44895833,10.5978622 2.88035,14.146827 4.25,14.9376525 C5.61965833,15.7283947 8.40891667,13.4614171 10.48,9.87428604 C12.5510833,6.28713824 13.1196667,2.7381234 11.75,1.94736457 C10.3803333,1.1565974 7.59108333,3.42352494 5.520025,7.01064774 Z" id="Path" stroke="#1E66F5"></path>
    </g>
</svg>