<?xml version="1.0" encoding="UTF-8"?>
<svg width="16px" height="16px" viewBox="0 0 16 16" version="1.1" xmlns="http://www.w3.org/2000/svg" xmlns:xlink="http://www.w3.org/1999/xlink">
    <title>typescript_config</title>
    <g id="typescript_config" stroke="none" stroke-width="1" fill="none" fill-rule="evenodd" stroke-linejoin="round">
        <g id="config" transform="translate(8, 9)" stroke="#8C8FA1" stroke-linecap="round">
            <path d="M3.5,4.5 C4.05228475,4.5 4.5,4.05228475 4.5,3.5 C4.5,2.94771525 4.05228475,2.5 3.5,2.5 C2.94771525,2.5 2.5,2.94771525 2.5,3.5 C2.5,4.05228475 2.94771525,4.5 3.5,4.5 Z M5.25153811,0.5 L7.00153811,3.5 L5.25153811,6.5 L1.75153811,6.5 L0.00153810568,3.5 L1.75153811,0.5 L5.25153811,0.5 Z" id="Combined-Shape"></path>
        </g>
        <path d="M6.5,11.5 L2.5,11.5 C1.3954305,11.5 0.5,10.6045695 0.5,9.5 L0.5,2.5 C0.5,1.3954305 1.3954305,0.5 2.5,0.5 L9.5,0.5 C10.6045695,0.5 11.5,1.3954305 11.5,2.5 L11.5,7 L11.5,7" id="Path" stroke="#1E66F5" stroke-linecap="round"></path>
        <path d="M9.5,5 C9.16666667,4.66666667 8.66666667,4.5 8,4.5 C7,4.5 6.5,4.99641927 6.5,5.5 C6.5,6.00358073 7,6.5 8,6.5 C9,6.5 9.50024414,7 9.5,7.5 C9.49975586,8 9,8.5 8,8.5 C7.33333333,8.5 6.83333333,8.33333333 6.5,8" id="Path" stroke="#1E66F5" stroke-linecap="round"></path>
        <path d="M3.5,4.5 L3.5,9 M2,4.5 L5,4.5" id="Combined-Shape" stroke="#1E66F5"></path>
    </g>
</svg>