<?xml version="1.0" encoding="UTF-8"?>
<svg width="16px" height="16px" viewBox="0 0 16 16" version="1.1" xmlns="http://www.w3.org/2000/svg" xmlns:xlink="http://www.w3.org/1999/xlink">
    <title>typescript_config</title>
    <g id="typescript_config" stroke="none" stroke-width="1" fill="none" fill-rule="evenodd" stroke-linecap="round" stroke-linejoin="round">
        <path d="M11.9984619,14 C12.826889,14 13.4984619,13.3284271 13.4984619,12.5 C13.4984619,11.6715729 12.826889,11 11.9984619,11 C11.1700348,11 10.4984619,11.6715729 10.4984619,12.5 C10.4984619,13.3284271 11.1700348,14 11.9984619,14 Z M13.75,9.5 L15.5,12.5 L13.75,15.5 L10.25,15.5 L8.5,12.5 L10.25,9.5 L13.75,9.5 Z" id="config" stroke="#8C8FA1"></path>
        <path d="M6.5,11.5 L2.5,11.5 C1.3954305,11.5 0.5,10.6045695 0.5,9.5 L0.5,2.5 C0.5,1.3954305 1.3954305,0.5 2.5,0.5 L9.5,0.5 C10.6045695,0.5 11.5,1.3954305 11.5,2.5 L11.5,7 L11.5,7" id="Path" stroke="#1E66F5"></path>
        <path d="M9.5,5 C9.16666667,4.66666667 8.66666667,4.5 8,4.5 C7,4.5 6.5,4.99641927 6.5,5.5 C6.5,6.00358073 7,6.5 8,6.5 C9,6.5 9.50024414,7 9.5,7.5 C9.49975586,8 9,8.5 8,8.5 C7.33333333,8.5 6.83333333,8.33333333 6.5,8 M3.5,4.5 L3.5,8.5 M2.5,4.5 L4.5,4.5" id="ts" stroke="#1E66F5"></path>
    </g>
</svg>