<?xml version="1.0" encoding="UTF-8"?>
<svg width="16px" height="16px" viewBox="0 0 16 16" version="1.1" xmlns="http://www.w3.org/2000/svg" xmlns:xlink="http://www.w3.org/1999/xlink">
    <title>typescript_def</title>
    <g id="typescript_def" stroke="none" stroke-width="1" fill="none" fill-rule="evenodd" stroke-linecap="round" stroke-linejoin="round">
        <path d="M12.5,4.5 L13.5,4.5 C14.6045695,4.5 15.5,5.3954305 15.5,6.5 L15.5,13.5 C15.5,14.6045695 14.6045695,15.5 13.5,15.5 L6.5,15.5 C5.3954305,15.5 4.5,14.6045695 4.5,13.5 L4.5,10" id="Path" stroke="#1E66F5"></path>
        <g id="ts_small" transform="translate(6.5, 8)" stroke="#1E66F5">
            <path d="M7,1 C6.66666667,0.666666667 6.16666667,0.5 5.5,0.5 C4.5,0.5 4,0.996419271 4,1.5 C4,2.00358073 4.5,2.5 5.5,2.5 C6.5,2.5 7.00024414,3 7,3.5 C6.99975586,4 6.5,4.5 5.5,4.5 C4.83333333,4.5 4.33333333,4.33333333 4,4" id="Path"></path>
            <line x1="1" y1="0.5" x2="1" y2="4.5" id="Path"></line>
            <line x1="2.27387553e-13" y1="0.5" x2="2" y2="0.5" id="Path"></line>
        </g>
        <path d="M2.03836733,7.88230653 L0.511467178,3.01942135 C0.464485635,2.87020324 0.566131238,2.70547236 0.738396895,2.65139926 L7.53491238,0.517137091 C7.63877409,0.484634137 7.7506138,0.498817244 7.83246215,0.555845155 L10.4666789,2.39964911 C10.5650742,2.46849627 10.6023048,2.58683658 10.5609374,2.69956273 L9.45362087,5.71849622 C9.41934502,5.81186834 9.33601927,5.88765932 9.23156659,5.92031002 L2.43505111,8.05457219 C2.26278545,8.10864529 2.08520113,8.03152464 2.03836733,7.88230653 Z" id="Path" stroke="#209FB5"></path>
        <circle id="Path" stroke="#209FB5" transform="translate(7.4811, 3.475) rotate(15) translate(-7.4811, -3.475)" cx="7.48114312" cy="3.47497404" r="1.21221245"></circle>
    </g>
</svg>