<?xml version="1.0" encoding="UTF-8" standalone="no"?>
<!-- Created with Inkscape (http://www.inkscape.org/) -->

<svg
   width="100.0px"
   height="100.0px"
   viewBox="0 0 100.0 100.0"
   version="1.1"
   id="SVGRoot"
   sodipodi:docname="unocss.svg"
   inkscape:version="1.2.1 (9c6d41e410, 2022-07-14)"
   xmlns:inkscape="http://www.inkscape.org/namespaces/inkscape"
   xmlns:sodipodi="http://sodipodi.sourceforge.net/DTD/sodipodi-0.dtd"
   xmlns="http://www.w3.org/2000/svg"
   xmlns:svg="http://www.w3.org/2000/svg">
  <defs
     id="defs8354" />
  <sodipodi:namedview
     id="namedview32486"
     pagecolor="#181825"
     bordercolor="#000000"
     borderopacity="0.24705882"
     inkscape:showpageshadow="2"
     inkscape:pageopacity="0"
     inkscape:pagecheckerboard="0"
     inkscape:deskcolor="#313244"
     inkscape:document-units="px"
     showgrid="true"
     inkscape:zoom="3.445"
     inkscape:cx="7.5471698"
     inkscape:cy="23.802612"
     inkscape:window-width="1920"
     inkscape:window-height="1017"
     inkscape:window-x="1912"
     inkscape:window-y="-8"
     inkscape:window-maximized="1"
     inkscape:current-layer="SVGRoot"
     showborder="false"
     showguides="false">
    <inkscape:grid
       type="xygrid"
       id="grid32609" />
  </sodipodi:namedview>
  <path
     d="m 55.525712,76.25304 c 0,-11.506227 9.327625,-20.833843 20.833852,-20.833843 11.506216,0 20.833847,9.327616 20.833847,20.833843 0,11.506228 -9.327631,20.833841 -20.833847,20.833841 -11.506227,0 -20.833852,-9.327613 -20.833852,-20.833841 z"
     style="display:inline;fill:none;stroke:#808080;stroke-width:5;stroke-dasharray:none;stroke-opacity:1"
     id="path1804" />
  <path
     d="m 55.53061,23.743151 c 0.0022,-11.506228 9.331445,-20.8321378 20.837662,-20.830032 11.506216,0.00213 20.832149,9.33143 20.830039,20.837658 v 18.750468 c 0,1.150622 -0.93276,2.083385 -2.08338,2.083386 H 57.613989 c -1.150608,2e-6 -2.083379,-0.932752 -2.083379,-2.083368 z"
     style="display:inline;fill:none;stroke:#ffffff;stroke-width:5;stroke-dasharray:none;stroke-opacity:1"
     id="path1716" />
  <path
     d="m 44.46938,76.222665 c 0.0034,11.508937 -9.324923,20.840786 -20.833851,20.840786 -11.508929,0 -20.8376723,-9.331849 -20.8338396,-20.840786 V 57.468456 c 0,-1.150622 0.9327601,-2.083386 2.0833911,-2.083385 H 42.386001 c 1.150619,0 2.083379,0.932764 2.083379,2.083385 z"
     style="display:inline;fill:none;stroke:#ffffff;stroke-width:5;stroke-dasharray:none;stroke-opacity:1"
     id="path1771" />
</svg>
