<?xml version="1.0" encoding="UTF-8"?>
<svg width="16px" height="16px" viewBox="0 0 16 16" version="1.1" xmlns="http://www.w3.org/2000/svg" xmlns:xlink="http://www.w3.org/1999/xlink">
    <title>unocss</title>
    <g id="unocss" stroke="none" stroke-width="1" fill="none" fill-rule="evenodd">
        <path d="M9.49931132,12.5 C9.49931132,10.843189 10.8423886,9.5 12.4993833,9.5 C14.1562341,9.5 15.4993113,10.843189 15.4993113,12.5 C15.4993113,14.156811 14.1562341,15.5 12.4993833,15.5 C10.8423886,15.5 9.49931132,14.156811 9.49931132,12.5 Z" id="Path" stroke="#8C8FA1"></path>
        <path d="M6.49999981,12.5 C6.50041315,14.25 5.25,15.5 3.49999981,15.5 C1.75,15.5 0.499999809,14.25 0.499999809,12.5 L0.499999809,9.5 L6.49999981,9.5 L6.49999981,12.5 Z" id="Path" stroke="#4C4F69" stroke-linejoin="round"></path>
        <path d="M9.49999981,3.5 C9.49958657,1.75 10.7499997,0.5 12.4999998,0.5 C14.2499997,0.5 15.4999998,1.75 15.4999998,3.5 L15.4999998,6.5 L9.49999981,6.5 L9.49999981,3.5 Z" id="Path" stroke="#4C4F69" stroke-linejoin="round"></path>
    </g>
</svg>