<?xml version="1.0" encoding="UTF-8"?>
<svg width="16px" height="16px" viewBox="0 0 16 16" version="1.1" xmlns="http://www.w3.org/2000/svg" xmlns:xlink="http://www.w3.org/1999/xlink">
    <title>vim</title>
    <g id="vim" stroke="none" stroke-width="1" fill="none" fill-rule="evenodd" stroke-linecap="round" stroke-linejoin="round">
        <path d="M10.1213203,2.34314575 L12.1568542,2.34314575 C12.9852814,2.34314575 13.6568542,3.01471863 13.6568542,3.84314575 L13.6568542,12.1568542 C13.6568542,12.9852814 12.9852814,13.6568542 12.1568542,13.6568542 L11.5355339,13.6568542 L11.5355339,13.6568542 M4.46446609,13.6568542 L3.84314575,13.6568542 C3.01471863,13.6568542 2.34314575,12.9852814 2.34314575,12.1568542 L2.34314575,11.5355339 L2.34314575,11.5355339 M2.34314575,4.46446609 L2.34314575,3.84314575 C2.34314575,3.01471863 3.01471863,2.34314575 3.84314575,2.34314575 L4.46446609,2.34314575 L4.46446609,2.34314575" id="Shape" stroke="#8C8FA1" transform="translate(8, 8) rotate(45) translate(-8, -8)"></path>
        <line x1="1.5" y1="2.5" x2="5.5" y2="2.5" id="Line-35" stroke="#40A02B"></line>
        <polyline id="Line" stroke="#40A02B" points="2.5 2.5 2.5 13.5 5.5 13.5 13.5 2.5 11 2.5 4.5 11.5 4.5 2.5"></polyline>
        <line x1="14.5" y1="2.5" x2="9" y2="2.5" id="Line-2" stroke="#40A02B"></line>
    </g>
</svg>