<?xml version="1.0" encoding="UTF-8" standalone="no"?>
<!-- Created with Inkscape (http://www.inkscape.org/) -->

<svg
   width="100.0px"
   height="100.0px"
   viewBox="0 0 100.0 100.0"
   version="1.1"
   id="SVGRoot"
   sodipodi:docname="visual_studio.svg"
   inkscape:version="1.2.1 (9c6d41e410, 2022-07-14)"
   xmlns:inkscape="http://www.inkscape.org/namespaces/inkscape"
   xmlns:sodipodi="http://sodipodi.sourceforge.net/DTD/sodipodi-0.dtd"
   xmlns="http://www.w3.org/2000/svg"
   xmlns:svg="http://www.w3.org/2000/svg">
  <defs
     id="defs44872" />
  <sodipodi:namedview
     id="namedview32486"
     pagecolor="#181825"
     bordercolor="#000000"
     borderopacity="0.24705882"
     inkscape:showpageshadow="2"
     inkscape:pageopacity="0"
     inkscape:pagecheckerboard="0"
     inkscape:deskcolor="#313244"
     inkscape:document-units="px"
     showgrid="true"
     inkscape:zoom="11.313709"
     inkscape:cx="65.805122"
     inkscape:cy="35.708891"
     inkscape:window-width="1920"
     inkscape:window-height="1017"
     inkscape:window-x="1912"
     inkscape:window-y="-8"
     inkscape:window-maximized="1"
     inkscape:current-layer="SVGRoot"
     showborder="false">
    <inkscape:grid
       type="xygrid"
       id="grid32609" />
  </sodipodi:namedview>
  <path
     d="m 3.6570653,35.728938 c 0,0 -2.2981768,-1.680347 0.4604221,-3.915559 l 6.4341056,-5.816274 c 0,0 1.837753,-1.955808 3.785694,-0.251845 l 59.347237,45.420443 v 21.77757 c 0,0 -0.02746,3.42366 -4.368107,3.04588 L 3.653131,35.725 Z M 69.312481,96.016693 c 1.629187,1.68429 3.604673,1.13335 3.604673,1.13335 l 21.864152,-10.88879 c 2.79795,-1.92826 2.404427,-4.32088 2.404427,-4.32088 V 16.910654 c 0,-2.856977 -2.892395,-3.844723 -2.892395,-3.844723 L 75.341256,3.829942 c -4.139862,-2.585448 -6.851237,0.468293 -6.851237,0.468293 0,0 3.486613,-2.538224 5.194505,2.266695 v 85.984823 c 0,0.59029 -0.125937,1.16877 -0.373848,1.69215 -0.499774,1.01922 -1.581963,1.96762 -4.179216,1.5741 z M 18.957249,49.765912 3.6570653,63.822553 c 0,0 -1.5740921,1.18057 0,3.2938 l 7.1030957,6.53248 c 0,0 1.688214,1.82989 4.179216,-0.2558 l 16.21709,-12.42746 z m 26.854023,0.114134 27.808209,-21.589148 0.06504,-21.725952 c 0,0 -1.200248,-4.730151 -5.194507,-2.266693 L 31.156467,38.641012 Z"
     style="fill:none;stroke:#b079f1;stroke-width:5;stroke-linecap:round;stroke-linejoin:round;stroke-dasharray:none;stroke-opacity:1"
     id="path4302"
     sodipodi:nodetypes="cccccccccccccsccccscccccccccccccccc" />
</svg>
