<?xml version="1.0" encoding="UTF-8" standalone="no"?>
<!-- Created with Inkscape (http://www.inkscape.org/) -->

<svg
   width="100.0px"
   height="100.0px"
   viewBox="0 0 100.0 100.0"
   version="1.1"
   id="SVGRoot"
   sodipodi:docname="vitest.svg"
   inkscape:version="1.2.1 (9c6d41e410, 2022-07-14)"
   xmlns:inkscape="http://www.inkscape.org/namespaces/inkscape"
   xmlns:sodipodi="http://sodipodi.sourceforge.net/DTD/sodipodi-0.dtd"
   xmlns="http://www.w3.org/2000/svg"
   xmlns:svg="http://www.w3.org/2000/svg">
  <sodipodi:namedview
     id="namedview32486"
     pagecolor="#181825"
     bordercolor="#000000"
     borderopacity="0.24705882"
     inkscape:showpageshadow="2"
     inkscape:pageopacity="0"
     inkscape:pagecheckerboard="0"
     inkscape:deskcolor="#313244"
     inkscape:document-units="px"
     showgrid="true"
     inkscape:zoom="2.9825758"
     inkscape:cx="64.373888"
     inkscape:cy="70.073659"
     inkscape:window-width="1920"
     inkscape:window-height="1017"
     inkscape:window-x="1912"
     inkscape:window-y="-8"
     inkscape:window-maximized="1"
     inkscape:current-layer="SVGRoot"
     showborder="false">
    <inkscape:grid
       type="xygrid"
       id="grid32609" />
  </sodipodi:namedview>
  <path
     fill="#fcc72b"
     d="m 76.303609,33.437812 -25.314115,36.56054 a 2.2415553,2.2415553 0 0 1 -1.08213,0.811598 2.1256129,2.1256129 0 0 1 -1.39131,0 2.1642603,2.1642603 0 0 1 -1.120779,-0.811598 2.2802027,2.2802027 0 0 1 -0.347827,-1.352663 L 48.052283,48.548985 31.704388,45.070711 a 2.1256129,2.1256129 0 0 1 -0.927539,-0.463771 1.9323751,1.9323751 0 0 1 -0.618361,-0.850244 1.9323751,1.9323751 0 0 1 0,-1.043483 1.7777851,1.7777851 0 0 1 0.386476,-0.966186 L 55.820432,5.1864851 a 2.2415553,2.2415553 0 0 1 1.120779,-0.8502441 2.0483178,2.0483178 0 0 1 1.352661,0 2.2415553,2.2415553 0 0 1 1.120778,0.8502441 2.0096703,2.0096703 0 0 1 0.347826,1.3140157 l -1.004834,20.1739982 16.347896,3.478275 a 2.2415553,2.2415553 0 0 1 0.966187,0.463771 2.666678,2.666678 0 0 1 0.61836,0.850244 2.3961454,2.3961454 0 0 1 -0.231885,2.048317 z"
     id="path39978"
     style="display:inline;fill:none;stroke:#fcc72b;stroke-width:5;stroke-dasharray:none;stroke-opacity:1" />
  <path
     style="fill:none;stroke:#729b1b;stroke-width:5;stroke-linecap:round;stroke-linejoin:round;stroke-dasharray:none;stroke-opacity:1;paint-order:fill markers stroke"
     d="M 97.486921,47.944078 49.652365,95.778632 2.5130788,48.639347"
     id="path41417" />
</svg>
