<?xml version="1.0" encoding="UTF-8"?>
<svg width="16px" height="16px" viewBox="0 0 16 16" version="1.1" xmlns="http://www.w3.org/2000/svg" xmlns:xlink="http://www.w3.org/1999/xlink">
    <title>vs_codium</title>
    <g id="vs_codium" stroke="none" stroke-width="1" fill="none" fill-rule="evenodd" stroke-linecap="round">
        <path d="M1.62890625,7.61474609 C1.54801432,10.0615234 2.33837891,11.5232747 4,12 C5.66162109,12.4767253 6.82828776,13.3100586 7.5,14.5" id="Line" stroke="#1E66F5" stroke-linejoin="round"></path>
        <path d="M3.5,3.5 C4.68712357,4.25769701 5.28068535,5.03182518 5.28068535,5.82238451 C5.28068535,6.60540126 4.19722712,8.52912036 4.56163672,10.0043945 C5.0098877,11.8190918 7.5,12.0008545 7.5,14.5" id="Line-2" stroke="#1E66F5" stroke-linejoin="round"></path>
        <path d="M7.5,7.5 C7.03065898,7.5764974 6.54093177,7.74316406 6.03081836,8 C5.26564824,8.38525391 4.56163672,9.54386993 4.56163672,10.0043945" id="Line-3" stroke="#1E66F5" stroke-linejoin="round"></path>
        <path d="M7.5,1.5 C8.90454639,3.5177087 9.60681959,5.35995486 9.60681959,7.02673847 C9.60681959,8.19695989 9.31247989,9.3359817 8.72171085,10.3020886 C8.15132507,11.234862 7.5,11.4603433 7.5,14.5" id="Line-4" stroke="#1E66F5"></path>
        <path d="M12.5,2.5 C11.5,2.5 10.9875911,2.99906343 10.4866545,3.5 C10.1526968,3.83395771 9.82381195,4.50062438 9.5,5.5" id="Line-5" stroke="#1E66F5"></path>
        <path d="M13.5,6.5 C13.7294433,7.96075257 13.3961099,9.12888408 12.5,10.0043945 C11.6012248,10.882509 10.8690573,10.4507987 9.5,11.5 C9.01752411,11.869754 8.35085744,12.869754 7.5,14.5" id="Line-6" stroke="#1E66F5" stroke-linejoin="round"></path>
        <line x1="12" y1="10.5" x2="14.5" y2="10.5" id="Line-7" stroke="#1E66F5" stroke-linejoin="round"></line>
    </g>
</svg>