<?xml version="1.0" encoding="UTF-8" standalone="no"?>
<!-- Created with Inkscape (http://www.inkscape.org/) -->

<svg
   width="100.0px"
   height="100.0px"
   viewBox="0 0 100.0 100.0"
   version="1.1"
   id="SVGRoot"
   sodipodi:docname="vs_codium.svg"
   inkscape:version="1.2.1 (9c6d41e, 2022-07-14)"
   xmlns:inkscape="http://www.inkscape.org/namespaces/inkscape"
   xmlns:sodipodi="http://sodipodi.sourceforge.net/DTD/sodipodi-0.dtd"
   xmlns="http://www.w3.org/2000/svg"
   xmlns:svg="http://www.w3.org/2000/svg">
  <defs
     id="defs8354" />
  <sodipodi:namedview
     id="namedview32486"
     pagecolor="#181825"
     bordercolor="#000000"
     borderopacity="0.24705882"
     inkscape:showpageshadow="2"
     inkscape:pageopacity="0"
     inkscape:pagecheckerboard="0"
     inkscape:deskcolor="#313244"
     inkscape:document-units="px"
     showgrid="true"
     inkscape:zoom="4.3867449"
     inkscape:cx="85.598777"
     inkscape:cy="55.05221"
     inkscape:window-width="1468"
     inkscape:window-height="763"
     inkscape:window-x="0"
     inkscape:window-y="38"
     inkscape:window-maximized="0"
     inkscape:current-layer="SVGRoot"
     showborder="false"
     showguides="false">
    <inkscape:grid
       type="xygrid"
       id="grid32609" />
  </sodipodi:namedview>
  <path
     style="fill:none;stroke:#175bff;stroke-width:5;stroke-linecap:round;stroke-linejoin:round;stroke-dasharray:none;stroke-opacity:1"
     d="m 5.6499589,46.813945 c 0,0 4.9504801,3.925234 7.0624491,6.255312 1.617359,1.784389 2.988562,3.792586 4.237469,5.851743 0.779958,1.285969 1.603212,2.589956 2.017842,4.035685 0.391161,1.363898 0.265715,2.825301 0.403569,4.237469 0.13135,1.345542 -0.01618,2.750559 0.403568,4.035685 0.411882,1.261042 1.133657,2.441348 2.017843,3.430332 0.8966,1.002869 2.04687,1.778546 3.228548,2.421411 1.196358,0.650851 2.501233,1.131638 3.8339,1.41249 1.055107,0.222357 2.153805,0.114492 3.228548,0.201784 2.021251,0.164169 4.098552,0.0664 6.053528,0.605353 2.29161,0.631762 4.64174,1.492136 6.457095,3.026764 0.812177,0.686581 1.32565,1.67952 1.816059,2.623195 0.62803,1.208494 1.048422,2.521523 1.412489,3.8339 0.384369,1.385559 0.461598,2.841721 0.807137,4.23747 0.183104,0.739619 0.296503,1.521136 0.669285,2.185663 0.425834,0.7591 0.982091,1.512344 1.732147,1.953912 0.534391,0.314603 1.198896,0.464061 1.816058,0.403568 1.250284,-0.12255 2.413278,-0.807304 3.450312,-1.51638 0.785216,-0.536894 1.438324,-1.263535 2.017842,-2.017842 0.899653,-1.170999 1.529669,-2.528308 2.219627,-3.833901 0.871489,-1.649102 1.564548,-3.387857 2.421411,-5.044606 0.954383,-1.845303 1.845714,-3.739049 3.026764,-5.448175 0.651168,-0.942321 1.444051,-1.7803 2.219626,-2.623195 0.96612,-1.049979 1.904431,-2.145734 3.026764,-3.026764 1.733067,-1.360455 3.631043,-2.548098 5.649959,-3.430332 1.3461,-0.588224 2.818452,-0.830724 4.237469,-1.210705 1.875214,-0.50214 3.751255,-1.008142 5.649959,-1.41249 1.135646,-0.241847 3.430332,-0.605353 3.430332,-0.605353"
     id="path6135"
     sodipodi:nodetypes="caaaaaaaaaaaaaaaaaaaaaaaaaaac" />
  <path
     style="fill:none;stroke:#175bff;stroke-width:5;stroke-linecap:round;stroke-linejoin:round;stroke-dasharray:none;stroke-opacity:1"
     d="m 19.252483,63.765107 c 0,0 0.457381,-2.599875 0.873995,-3.847223 0.396514,-1.187167 1.047155,-2.274156 1.535615,-3.426543 0.446325,-1.05298 0.940857,-2.091606 1.274241,-3.185602 0.295462,-0.969555 0.480263,-1.971864 0.63712,-2.973228 0.1101,-0.702871 0.24089,-1.412864 0.212374,-2.123735 -0.03172,-0.790833 -0.228319,-1.569401 -0.424747,-2.336108 -0.05556,-0.216857 -0.212374,-0.63712 -0.212374,-0.63712"
     id="path6238"
     sodipodi:nodetypes="caaaaaac" />
  <path
     style="fill:none;stroke:#175bff;stroke-width:5;stroke-linecap:round;stroke-linejoin:round;stroke-dasharray:none;stroke-opacity:1"
     d="m 16.352757,55.854221 c 0,0 -0.550081,-8.212927 -0.849494,-12.317661 -0.06715,-0.920558 -0.212374,-2.760855 -0.212374,-2.760855"
     id="path6240"
     sodipodi:nodetypes="cac" />
  <path
     style="fill:none;stroke:#175bff;stroke-width:5;stroke-linecap:round;stroke-linejoin:round;stroke-dasharray:none;stroke-opacity:1"
     d="m 73.12935,72.492984 c 0,0 6.595214,-6.14207 9.555674,-9.528813 1.636739,-1.872416 3.159099,-3.854834 4.514413,-5.940016 0.98519,-1.515738 1.805352,-3.134983 2.613607,-4.752013 1.20447,-2.409717 2.502551,-4.800714 3.326409,-7.36562 0.247003,-0.768991 0.475201,-2.376007 0.475201,-2.376007"
     id="path7017"
     sodipodi:nodetypes="caaaac" />
  <path
     style="fill:none;stroke:#175bff;stroke-width:5;stroke-linecap:round;stroke-linejoin:round;stroke-dasharray:none;stroke-opacity:1"
     d="m 78.92197,40.118834 c 0,0 0.821207,2.007496 1.258428,2.999798 0.435848,0.989185 0.918841,1.957054 1.360196,2.943794 0.522299,1.167706 1.054715,2.331993 1.523903,3.522033 0.548989,1.392443 1.110761,2.786313 1.509071,4.229101 0.220086,0.797212 0.448633,1.607294 0.483125,2.433608 0.04172,0.999518 -0.04555,2.025199 -0.337037,2.982179 -0.410573,1.347941 -1.208436,2.552211 -1.947516,3.751909 -0.623354,1.011848 -2.087494,2.890333 -2.087494,2.890333"
     id="path9923"
     sodipodi:nodetypes="caaaaaaac" />
  <path
     style="fill:none;stroke:#175bff;stroke-width:5;stroke-linecap:round;stroke-linejoin:round;stroke-dasharray:none;stroke-opacity:1"
     d="m 50.447513,96.271164 c 0,0 2.41671,-3.556769 3.082574,-5.572345 1.357022,-4.107712 0.420865,-8.73716 1.719128,-12.86382 0.607361,-1.930557 1.902798,-3.57363 2.786173,-5.394505 0.937943,-1.933354 1.87311,-3.87216 2.667612,-5.868747 0.764754,-1.921831 1.318001,-3.921509 2.01553,-5.868747 0.476537,-1.330312 0.966507,-2.656073 1.482006,-3.971778 0.872799,-2.227641 1.882473,-4.400839 2.726893,-6.639391 0.663865,-1.759901 1.224145,-3.557154 1.837689,-5.335224 0.5524,-1.600873 1.127534,-3.19404 1.659847,-4.801703 0.390907,-1.180596 1.126325,-3.556816 1.126325,-3.556816"
     id="path13555"
     sodipodi:nodetypes="caaaaaaaaac" />
  <path
     style="fill:none;stroke:#175bff;stroke-width:5;stroke-linecap:round;stroke-linejoin:round;stroke-dasharray:none;stroke-opacity:1"
     d="m 63.054865,59.605054 c 0,0 0.548777,-4.87443 0.55837,-7.322247 0.0089,-2.260074 -0.243449,-4.515031 -0.462542,-6.764478 -0.246577,-2.531629 -0.35017,-5.100569 -0.958281,-7.570416 -0.480868,-1.953048 -1.086598,-3.92125 -2.108217,-5.653856 -1.196649,-2.029447 -2.977502,-3.65788 -4.599747,-5.366372 -1.244594,-1.310763 -2.634971,-2.47526 -3.928951,-3.737294 -1.0672,-1.040853 -2.147024,-2.070789 -3.162326,-3.162326 -1.064235,-1.144144 -3.066497,-3.545638 -3.066497,-3.545638"
     id="path14388"
     sodipodi:nodetypes="caaaaaaac" />
  <path
     style="fill:none;stroke:#175bff;stroke-width:5;stroke-linecap:round;stroke-linejoin:round;stroke-dasharray:none;stroke-opacity:1"
     d="m 62.391464,38.78992 c 0,0 -0.333794,-2.130312 -0.297812,-3.201472 0.02616,-0.778849 0.195637,-1.549029 0.372265,-2.308037 0.364757,-1.56744 0.888766,-3.095085 1.414603,-4.616075 0.495447,-1.433087 1.117731,-2.819534 1.637962,-4.243811 0.522387,-1.430178 1.052922,-2.859467 1.489057,-4.318263 0.432762,-1.447513 0.89054,-2.898934 1.116792,-4.392717 0.215848,-1.425091 0.280733,-2.87806 0.223356,-4.318263 C 68.29487,10.065578 68.103029,8.7429039 67.826516,7.4452821 67.48121,5.8248222 66.411914,2.6803016 66.411914,2.6803016"
     id="path15116"
     sodipodi:nodetypes="caaaaaaaac" />
  <path
     style="fill:none;stroke:#175bff;stroke-width:5;stroke-linecap:round;stroke-linejoin:round;stroke-dasharray:none;stroke-opacity:1"
     d="m 60.765999,31.022641 c 0,0 -1.8736,-7.525846 -3.118256,-11.193736 C 56.890734,17.598067 56.005467,15.407331 55.00922,13.272573 54.076388,11.273701 51.890965,7.4358393 51.890965,7.4358393"
     id="path15171"
     sodipodi:nodetypes="caac" />
  <path
     style="fill:none;stroke:#175bff;stroke-width:5;stroke-linecap:round;stroke-linejoin:round;stroke-dasharray:none;stroke-opacity:1"
     d="m 45.509598,83.343728 c 0,0 -2.573083,-3.902093 -3.746217,-5.921912 -0.841694,-1.449169 -1.663531,-2.915087 -2.358729,-4.43996 -0.801675,-1.758424 -1.578971,-3.545065 -2.081232,-5.411203 -0.304324,-1.130708 -0.53273,-2.297985 -0.554995,-3.468719 -0.02923,-1.53713 0.248458,-3.072172 0.554995,-4.57871 0.499069,-2.452781 1.551926,-4.768502 2.081232,-7.214936 0.405259,-1.873091 0.617816,-3.784331 0.832493,-5.6887 0.327419,-2.90449 0.801063,-5.820257 0.693744,-8.741172 -0.08934,-2.431633 -0.522871,-4.853558 -1.109991,-7.214937 -0.543502,-2.185948 -1.287244,-4.332133 -2.21998,-6.382443 -0.772019,-1.697028 -1.589319,-3.417412 -2.774976,-4.856208 -1.126158,-1.366594 -2.582712,-2.439485 -4.023714,-3.468719 -1.306618,-0.93325 -4.158631,-2.430978 -4.158631,-2.430978"
     id="path15173"
     sodipodi:nodetypes="caaaaaaaaaaaac" />
  <path
     style="fill:none;stroke:#175bff;stroke-width:5;stroke-linecap:round;stroke-linejoin:round;stroke-dasharray:none;stroke-opacity:1"
     d="m 40.151441,47.28391 c 0,0 0.41972,-3.598713 0.159032,-5.370635 C 40.089149,40.408917 39.586362,38.925845 38.867951,37.58571 38.067624,36.092767 36.957166,34.759363 35.742487,33.578704 34.125686,32.007186 32.153068,30.845949 30.29296,29.571699 26.765401,27.155177 19.474045,22.67965 19.474045,22.67965"
     id="path15175"
     sodipodi:nodetypes="caaaac" />
  <path
     style="fill:none;stroke:#175bff;stroke-width:5;stroke-linecap:round;stroke-linejoin:round;stroke-dasharray:none;stroke-opacity:1"
     d="m 39.810935,73.840198 c 0,0 -1.169466,-2.297619 -1.321525,-3.551598 -0.08674,-0.715335 -2.73e-4,-1.470946 0.247785,-2.147478 0.410072,-1.118398 1.152981,-2.118315 1.982288,-2.973431 1.388146,-1.431346 3.336481,-2.198399 4.873122,-3.469002 1.350624,-1.116791 2.76841,-2.216977 3.799384,-3.634193 1.079327,-1.483685 1.817541,-3.214309 2.395264,-4.955718 0.732792,-2.208826 1.100269,-4.538744 1.321525,-6.85541 0.12826,-1.342946 0,-4.04717 0,-4.04717"
     id="path15903"
     sodipodi:nodetypes="caaaaaaac" />
</svg>
