<?xml version="1.0" encoding="UTF-8" standalone="no"?>
<!-- Created with Inkscape (http://www.inkscape.org/) -->

<svg
   width="100.0px"
   height="100.0px"
   viewBox="0 0 100.0 100.0"
   version="1.1"
   id="SVGRoot"
   sodipodi:docname="vue_config.svg"
   inkscape:version="1.2.1 (9c6d41e410, 2022-07-14)"
   xmlns:inkscape="http://www.inkscape.org/namespaces/inkscape"
   xmlns:sodipodi="http://sodipodi.sourceforge.net/DTD/sodipodi-0.dtd"
   xmlns="http://www.w3.org/2000/svg"
   xmlns:svg="http://www.w3.org/2000/svg">
  <defs
     id="defs4355" />
  <sodipodi:namedview
     id="namedview32486"
     pagecolor="#181825"
     bordercolor="#000000"
     borderopacity="0.24705882"
     inkscape:showpageshadow="2"
     inkscape:pageopacity="0"
     inkscape:pagecheckerboard="0"
     inkscape:deskcolor="#313244"
     inkscape:document-units="px"
     showgrid="true"
     inkscape:zoom="2.9825758"
     inkscape:cx="25.14605"
     inkscape:cy="35.20447"
     inkscape:window-width="1920"
     inkscape:window-height="1017"
     inkscape:window-x="-8"
     inkscape:window-y="-8"
     inkscape:window-maximized="1"
     inkscape:current-layer="SVGRoot"
     showborder="false">
    <inkscape:grid
       type="xygrid"
       id="grid32609" />
  </sodipodi:namedview>
  <path
     style="fill:none;stroke:#41b883;stroke-width:5;stroke-linecap:round;stroke-linejoin:round;stroke-dasharray:none;stroke-opacity:1;paint-order:fill markers stroke"
     d="m 46.425881,82.389415 -1.334344,2.5479 L 2.3153308,3.4045241 H 35.555694 L 45.052941,22.588897 54.550186,3.4045241 h 33.24036 L 66.441041,44.17092 63.772353,49.266719"
     id="path2368"
     sodipodi:nodetypes="ccccccccc" />
  <path
     style="fill:none;stroke:#41b883;stroke-width:5;stroke-linecap:round;stroke-linejoin:round;stroke-dasharray:none;stroke-opacity:1;paint-order:fill markers stroke"
     d="M 69.780479,4.8592297 45.052941,52.173691 20.325403,4.8592297"
     id="path2466"
     sodipodi:nodetypes="ccc" />
  <path
     style="fill:none;stroke:#808080;stroke-width:5.00775;stroke-linecap:round;stroke-linejoin:round;stroke-dasharray:none;stroke-opacity:1;paint-order:fill markers stroke"
     d="m 76.250041,55.003865 c -2.834213,0 -3.840347,4.329672 -6.639438,5.311541 -2.799076,0.981862 -7.104299,-2.190899 -9.295183,0 -2.190917,2.190898 0.981857,6.496108 0,9.295193 -0.981874,2.799088 -5.311552,3.805219 -5.311552,6.639426 0,2.834206 4.329678,3.840342 5.311552,6.639428 0.981857,2.799084 -2.190016,7.103406 0,9.295194 2.189999,2.19179 6.496902,-0.974206 9.295183,0.0075 2.798295,0.981772 3.806005,5.30496 6.639438,5.303978 2.833405,-9e-4 3.840334,-4.329676 6.63941,-5.311543 2.799091,-0.981867 7.103414,2.190007 9.295199,0 2.191786,-2.190007 -0.974205,-6.496914 0.0075,-9.295195 0.981783,-2.798286 5.304965,-3.806008 5.303975,-6.639426 -9.01e-4,-2.833419 -4.329664,-3.840337 -5.311537,-6.639427 -0.981872,-2.799084 2.190887,-7.104296 0,-9.295194 -2.1909,-2.190896 -6.496108,0.981864 -9.295199,0 -2.799091,-0.981866 -3.805224,-5.311538 -6.639423,-5.311538 z"
     id="path3626"
     sodipodi:nodetypes="zzzzzzzzzzzzzzzzz" />
  <circle
     style="fill:none;stroke:#808080;stroke-width:5.00775;stroke-linecap:round;stroke-linejoin:round;stroke-dasharray:none;stroke-opacity:1;paint-order:fill markers stroke"
     id="path3680"
     cx="76.250023"
     cy="76.250023"
     r="7.9673114" />
</svg>
