<?xml version="1.0" encoding="UTF-8"?>
<svg width="16px" height="16px" viewBox="0 0 16 16" version="1.1" xmlns="http://www.w3.org/2000/svg" xmlns:xlink="http://www.w3.org/1999/xlink">
    <title>web_assembly</title>
    <g id="web_assembly" stroke="none" stroke-width="1" fill="none" fill-rule="evenodd" stroke-linejoin="round">
        <polyline id="Path" stroke="#8839EF" points="9 13 11 8.5 13 13"></polyline>
        <line x1="10" y1="11.5" x2="12" y2="11.5" id="Path" stroke="#8839EF" stroke-linecap="round"></line>
        <polyline id="Path" stroke="#8839EF" stroke-linecap="round" points="3.50299408 8.5 4.5 12.5 6 8.5 7.5 12.5 8.50221636 8.5"></polyline>
        <path d="M10.5,1.5 L12.5,1.5 C13.6045695,1.5 14.5,2.3954305 14.5,3.5 L14.5,12.5 C14.5,13.6045695 13.6045695,14.5 12.5,14.5 L3.5,14.5 C2.3954305,14.5 1.5,13.6045695 1.5,12.5 L1.5,3.5 C1.5,2.3954305 2.3954305,1.5 3.5,1.5 L5.5,1.5 L5.5,1.5" id="Path" stroke="#8839EF" stroke-linecap="round"></path>
        <path d="M5.5,1 C5.5,2.38071187 6.61928813,3.5 8,3.5 C9.38071187,3.5 10.5,2.38071187 10.5,1" id="Path" stroke="#8839EF"></path>
    </g>
</svg>