<?xml version="1.0" encoding="UTF-8"?>
<svg width="16px" height="16px" viewBox="0 0 16 16" version="1.1" xmlns="http://www.w3.org/2000/svg" xmlns:xlink="http://www.w3.org/1999/xlink">
    <title>xcode_project</title>
    <g id="xcode_project" stroke="none" stroke-width="1" fill="none" fill-rule="evenodd">
        <path d="M6.68868107,15.4822842 L5.13545044,14.567469 L8.68521835,8.29230299 L9.27649773,7.24590786 C9.27649773,7.24590786 8.98089855,5.32829645 6.39256428,3.80350163 L6.83593235,3.01951421 L12.6040372,5.02329422 L12.1606691,5.80728164 L13.1953545,6.41800082 L13.6392977,5.6338593 L15.4509382,6.70095374 L13.380493,10.3620271 L11.5686956,9.29434711 L12.0126388,8.51020558 L10.9773783,7.89964051 L10.2378738,9.20727235 L6.68868107,15.4822842 Z" id="Combined-Shape" stroke="#1E66F5" stroke-linecap="round" stroke-linejoin="round"></path>
        <path d="M14.5,11 L14.5,12 C14.5,13.3807119 13.3807119,14.5 12,14.5 L9,14.5 M4,14.5 C2.61928813,14.5 1.5,13.3807119 1.5,12 L1.5,4 C1.5,2.61928813 2.61928813,1.5 4,1.5 L12,1.5 C13.3807119,1.5 14.5,2.61928813 14.5,4" id="Shape" stroke="#1E66F5"></path>
    </g>
</svg>