<?xml version="1.0" encoding="UTF-8"?>
<svg width="16px" height="16px" viewBox="0 0 16 16" version="1.1" xmlns="http://www.w3.org/2000/svg" xmlns:xlink="http://www.w3.org/1999/xlink">
    <title>xib</title>
    <g id="xib" stroke="none" stroke-width="1" fill="none" fill-rule="evenodd" stroke-linejoin="round">
        <path d="M8.03186395,5.96941461 C7.81330021,5.73739663 7.58663209,5.50377328 7.35269591,5.2698371 C4.61902586,2.53616706 1.9280747,0.794963368 1.34228827,1.38074981 C0.756501829,1.96653624 2.49770552,4.6574874 5.23137556,7.39115745 C5.46651932,7.62630121 5.701347,7.85410168 5.93454597,8.07370951 M8.09232219,9.91159795 C9.64102612,11.0821977 10.8685985,11.6534294 11.2417832,11.2802447 C11.6151883,10.9068397 11.0430611,9.67803727 9.87106159,8.12803923 M12.5,1.5 L14.5,3.5 L3.5,14.5 L1.5,14.5 L1.5,12.5 L12.5,1.5 Z M10.5,3.5 L12.5,5.5 M3,11 L5,13 M11,11 C12,10 13.75,10.75 14.25,11.25 C14.4166667,11.75 14.5,12.8333333 14.5,14.5 C12.8333333,14.5 11.75,14.4166667 11.25,14.25 C10.75,13.75 10,12 11,11 Z" id="Combined-Shape" stroke="#DF8E1D"></path>
    </g>
</svg>