<?xml version="1.0" encoding="UTF-8"?>
<svg width="16px" height="16px" viewBox="0 0 16 16" version="1.1" xmlns="http://www.w3.org/2000/svg" xmlns:xlink="http://www.w3.org/1999/xlink">
    <title>xmake</title>
    <g id="xmake" stroke="none" stroke-width="1" fill="none" fill-rule="evenodd" stroke-linejoin="round">
        <path d="M14.0359511,10.41656 C14.1543214,10.1211705 14.2516364,9.8150718 14.3260398,9.50012023 C14.4398013,9.01856425 14.5,8.51631221 14.5,8 C14.5,6.71158638 14.1252077,5.51010192 13.4786606,4.49935897 C13.2630864,4.16235331 13.0173009,3.84655265 12.7451234,3.55580502 L8.9854719,6.17534869 L14.0359511,10.41656 Z" id="Path" stroke="#209FB5"></path>
        <path d="M7.35421623,7.31881172 L2.20041994,10.9381976 C3.27329617,13.0517074 5.46751465,14.5 8,14.5 C10.0122048,14.5 11.8108545,13.585662 13.003142,12.149793 L7.35421623,7.31881172 Z" id="Path" stroke="#179299"></path>
        <path d="M3.03526023,3.8043874 C2.0774731,4.93660948 1.5,6.40086671 1.5,8 C1.5,8.16826878 1.50639395,8.33504418 1.51895216,8.50009648 C1.53023584,8.64839783 1.54649607,8.79530809 1.5675662,8.94066063 L5.72,5.9974929 L3.03526023,3.8043874 Z" id="Path" stroke="#40A02B"></path>
    </g>
</svg>