<?xml version="1.0" encoding="UTF-8"?>
<svg width="16px" height="16px" viewBox="0 0 16 16" version="1.1" xmlns="http://www.w3.org/2000/svg" xmlns:xlink="http://www.w3.org/1999/xlink">
    <title>yarn_lock</title>
    <g id="yarn_lock" stroke="none" stroke-width="1" fill="none" fill-rule="evenodd">
        <path d="M14.9982047,11.5 C15.2742654,11.5 15.4980569,11.7237914 15.4980569,11.9998521 L15.4980569,14.9987961 C15.4980569,15.2748569 15.2742654,15.4986483 14.9982047,15.4986483 L9.99985214,15.4986483 C9.72379143,15.4986483 9.5,15.2748569 9.5,14.9987961 L9.5,11.9996833 C9.5,11.7236226 9.72379143,11.4998311 9.99985214,11.4998311 L14.9982047,11.5 Z M10.9995564,11.5 L10.9995564,10 C10.9995564,9.17157288 11.6711293,8.5 12.4995564,8.5 C13.3279836,8.5 13.9995564,9.17157288 13.9995564,10 L13.9995564,11.5" id="lock" stroke="#8C8FA1"></path>
        <path d="M7.50445285,13.182908 C6.95647445,13.3527105 6.38752316,13.4582831 5.80940645,13.4957663 C4.46101869,13.4957663 3.50459436,13.5862393 3.50459436,12.930721 C3.53499399,12.4985643 3.73291246,12.0942064 4.05773248,11.8006306 L3.48152946,11.8006306 C3.48152946,11.8006306 2.50204024,13.4957663 1.17671737,13.4957663 C-0.14846571,13.4957663 1.17671737,12.3656758 1.17671737,12.3656758 C0.0243113249,12.3656758 0.427737313,10.1847273 1.75292039,9.54044962 C1.28994882,8.81259814 1.21938581,7.90867346 1.56398847,7.12019825 C1.90859113,6.33172303 2.62476163,5.75845222 3.48152946,5.58527005 C2.81320664,4.92975177 2.32912342,3.53975694 2.90532644,3.3250891 C3.42480649,3.10982984 3.83822256,2.70441929 4.05773248,2.19499863 C4.61140566,1.79799091 5.31255284,1.65390438 5.98218348,1.7995218 C6.22063701,1.31467758 6.54438304,0.874794346 6.93846802,0.5 C7.1641857,0.899243545 7.29421432,1.34365584 7.31868933,1.7995218 L8.09087407,1.62995339 C8.09087407,1.62995339 9.24328011,3.89013434 7.31882912,6.99788314 C8.1566246,7.61016702 8.67269686,8.52452842 8.7846666,9.50275275" id="Path" stroke="#209FB5" stroke-linecap="round" stroke-linejoin="round"></path>
    </g>
</svg>