<svg width="100" height="100" clip-rule="evenodd" fill-rule="evenodd" viewBox="0 0 100 100" xmlns="http://www.w3.org/2000/svg"><g fill="none" stroke-width="5"><path d="m70.735 73.695v-8.88c.002-4.87 4.01-8.876 8.88-8.876s8.877 4.006 8.879 8.876v8.88m-23.679 0h29.599c1.624 0 2.96 1.336 2.96 2.96v17.759c0 1.624-1.336 2.96-2.96 2.96h-29.599c-1.623 0-2.96-1.336-2.96-2.96v-17.759c0-1.624 1.337-2.96 2.96-2.96z" stroke="#808080"/><g stroke="#4d8bb8" stroke-linecap="round" stroke-linejoin="round" stroke-miterlimit="1.5"><path d="m54.542 94.503c-5.611 1.986-16.537 4.168-29.385-.687 0 0-15.323 4.247-14.195-6.503 0 0-10.684-12.422.938-22.28 0 0-1.241-16.91 11.549-24.936 0 0-8.286-12.228 0-19.036s12.645-9.145 18.736-8.634c0 0 7.247-20.251 14.643 0 0 0 9.061-7.776 7.844 17.247-.323 6.646-4.717 16.289-7.844 20.326 0 0 4.307 3.066 6.922 11.547"/><path d="m27.469 94.285c-1.525-1.407.321-8.703.321-8.703s-1.252 4.723-3.116 7.525"/></g></g></svg>