<?xml version="1.0" encoding="UTF-8"?>
<svg width="16px" height="16px" viewBox="0 0 16 16" version="1.1" xmlns="http://www.w3.org/2000/svg" xmlns:xlink="http://www.w3.org/1999/xlink">
    <title>yarn</title>
    <g id="yarn" stroke="none" stroke-width="1" fill="none" fill-rule="evenodd" stroke-linecap="round" stroke-linejoin="round">
        <path d="M7.82543503,1.99944823 C8.10073501,1.44001259 8.47428813,0.932455015 8.92900157,0.5 C9.18944504,0.960665629 9.33947806,1.47344905 9.36771846,1.99944823 L10.2587008,1.80379238 C10.2587008,1.80379238 11.5884001,4.41169347 9.36787975,7.99755747 C10.7879116,9.03535566 11.4069027,10.8252799 10.9235505,12.4960603 C13.2108462,11.7398512 13.9818266,10.9966121 14.7399036,10.9966121 C14.9420183,10.9930611 15.1369245,11.0702204 15.2798794,11.2103772 C15.4228343,11.350534 15.5015587,11.5416496 15.4979805,11.7398512 C15.4979805,11.7398512 15.6042726,12.2352386 14.2745733,12.8872138 L11.6151748,14.1911644 C10.4214846,14.9539201 9.04787865,15.4029406 7.62623821,15.4951149 C6.07040618,15.4951149 4.96683964,15.5995069 4.96683964,14.8431397 C5.00191615,14.3444972 5.23028361,13.8779304 5.60507594,13.5391891 L4.9402263,13.5391891 C4.9402263,13.5391891 3.81004643,15.4951149 2.28082774,15.4951149 C0.751770335,15.4951149 2.28082774,14.1911644 2.28082774,14.1911644 C0.951128452,14.1911644 1.41661998,11.6746854 2.94567738,10.931288 C2.41147941,10.0914594 2.33006055,9.04846938 2.727679,8.13869029 C3.12529746,7.22891119 3.95164803,6.56744486 4.9402263,6.36761928 C4.16908459,5.61125205 3.61052702,4.00741186 4.27537666,3.75971819 C4.87477672,3.51134212 5.35179526,3.04356072 5.60507594,2.45576765 C6.24392961,1.99768182 7.05294559,1.83142813 7.82559633,1.99944823 L7.82543503,1.99944823 Z" id="Path" stroke="#209FB5"></path>
    </g>
</svg>