<?xml version="1.0" encoding="UTF-8"?>
<svg width="16px" height="16px" viewBox="0 0 16 16" version="1.1" xmlns="http://www.w3.org/2000/svg" xmlns:xlink="http://www.w3.org/1999/xlink">
    <title>zip</title>
    <g id="zip" stroke="none" stroke-width="1" fill="none" fill-rule="evenodd" stroke-linejoin="round">
        <path d="M4.5,14.5 L3.5,14.5 C2.3954305,14.5 1.5,13.6045695 1.5,12.5 L1.5,3.5 C1.5,2.3954305 2.3954305,1.5 3.5,1.5 L12.5,1.5 C13.6045695,1.5 14.5,2.3954305 14.5,3.5 L14.5,12.5 C14.5,13.6045695 13.6045695,14.5 12.5,14.5 L11.4968262,14.5 L11.4968262,14.5" id="Path" stroke="#DF8E1D" stroke-linecap="round"></path>
        <polygon id="Line-23" stroke="#DF8E1D" stroke-linecap="square" points="6.5 14.5 6.5 12.5 8 11 9.5 12.5 9.5 14.5"></polygon>
        <path d="M8.5,9.5 L9.5,9.5 M6.5,6.5 L7.5,6.5 M8.5,5.5 L9.5,5.5 M6.5,4.5 L7.5,4.5 M8.5,3.5 L9.5,3.5 M6.5,2.5 L7.5,2.5 M8.5,7.5 L9.5,7.5 M6.5,8.5 L7.5,8.5" stroke="#DF8E1D" stroke-linecap="round"></path>
    </g>
</svg>