<?xml version="1.0" encoding="UTF-8" standalone="no"?>
<!-- Created with Inkscape (http://www.inkscape.org/) -->

<svg
   width="100.0px"
   height="100.0px"
   viewBox="0 0 100.0 100.0"
   version="1.1"
   id="SVGRoot"
   sodipodi:docname="zip.svg"
   inkscape:version="1.2.1 (9c6d41e410, 2022-07-14)"
   xmlns:inkscape="http://www.inkscape.org/namespaces/inkscape"
   xmlns:sodipodi="http://sodipodi.sourceforge.net/DTD/sodipodi-0.dtd"
   xmlns="http://www.w3.org/2000/svg"
   xmlns:svg="http://www.w3.org/2000/svg">
  <defs
     id="defs8354" />
  <sodipodi:namedview
     id="namedview32486"
     pagecolor="#181825"
     bordercolor="#000000"
     borderopacity="0.24705882"
     inkscape:showpageshadow="2"
     inkscape:pageopacity="0"
     inkscape:pagecheckerboard="0"
     inkscape:deskcolor="#313244"
     inkscape:document-units="px"
     showgrid="true"
     inkscape:zoom="1.7225"
     inkscape:cx="17.12627"
     inkscape:cy="102.75762"
     inkscape:window-width="1920"
     inkscape:window-height="1017"
     inkscape:window-x="1912"
     inkscape:window-y="-8"
     inkscape:window-maximized="1"
     inkscape:current-layer="SVGRoot"
     showborder="false"
     showguides="false">
    <inkscape:grid
       type="xygrid"
       id="grid32609" />
  </sodipodi:namedview>
  <path
     d="m 24.452554,97.445259 h -7.29927 c -8.0625507,0 -14.5985394,-6.535986 -14.5985394,-14.598546 V 17.153287 c 0,-8.0625488 6.5359887,-14.5985463 14.5985394,-14.5985463 h 65.693431 c 8.062555,0 14.59854,6.5359975 14.59854,14.5985463 v 65.693426 c 0,8.06256 -6.535985,14.598546 -14.59854,14.598546 h -7.322438 v 0"
     id="Path"
     stroke="#df8e1d"
     stroke-linecap="round"
     stroke-linejoin="round"
     style="fill:none;stroke-width:5;stroke-dasharray:none;stroke:#e3ae3c;stroke-opacity:1" />
  <polygon
     id="Line-23"
     stroke="#df8e1d"
     stroke-linecap="square"
     stroke-linejoin="round"
     points="6.5,12.5 8,11 9.5,12.5 9.5,14.5 6.5,14.5 "
     transform="matrix(7.3590777,0,0,6.7304379,-8.8726216,0.01781382)"
     inkscape:label="Path3"
     style="fill:none;stroke-width:0.710455;stroke-dasharray:none;stroke:#ffffff;stroke-opacity:1" />
  <path
     d="m 35.40146,12.321358 h 10.890638 m 7.267488,7.299273 H 64.59854 m -29.19708,7.299262 h 10.890638 m 7.267488,7.299273 H 64.59854 M 35.40146,41.51844 h 10.890638 m 7.267488,7.299273 H 64.59854 m -29.19708,7.299262 h 10.890638 m 7.267488,7.299273 H 64.59854"
     id="="
     stroke="#df8e1d"
     inkscape:label="Path2"
     style="fill:none;stroke-width:5;stroke-linecap:round;stroke-linejoin:round;stroke-dasharray:none;stroke:#ffffff;stroke-opacity:1"
     sodipodi:nodetypes="cccccccccccccccc" />
</svg>
