<svg xmlns="http://www.w3.org/2000/svg" width="16" height="16" viewBox="0 0 16 16">
	<g fill="none" stroke="#1e66f5" stroke-linecap="round" stroke-linejoin="round">
		<path d="M 14.5,4.3888889 V 11.611111 A 2.8888889,2.8888889 0 0 1 11.611111,14.5 H 4.3888889 A 2.8888889,2.8888889 0 0 1 1.5,11.611111 V 4.3888889 A 2.8888889,2.8888889 0 0 1 4.3888889,1.5 H 11.611111 A 2.8888889,2.8888889 0 0 1 14.5,4.3888889" />
		<path d="M 4.5000016,11 V 8 m 0,0 V 5.0000002 H 5.900001 a 1.3999993,1.5 0 0 1 1.3999995,1.5 v 0 A 1.3999993,1.5 0 0 1 5.900001,8 Z M 11.499999,7.2499996 c -0.214201,-0.4597493 -0.6531,-0.7499994 -1.1326,-0.7499994 h -0.2674 A 1.0499995,1.125 0 0 0 9.0499999,7.6250005 v 0 a 1.0499995,1.125 0 0 0 1.0499991,1.1249998 h 0.35 a 1.0499995,1.125 0 0 1 1.05,1.1249998 v 0 A 1.0499995,1.125 0 0 1 10.449999,11 h -0.2674 A 1.2662994,1.35675 0 0 1 9.0499999,10.25 v 0" />
	</g>
</svg>
