<svg xmlns="http://www.w3.org/2000/svg" width="16" height="16" viewBox="0 0 16 16">
	<g fill="none" stroke="#40a02b" stroke-linecap="round" stroke-linejoin="round">
		<path d="M2 15.5c-.7 0-1.5-.8-1.5-1.5V5c0-.7.8-1.5 1.5-1.5h9c.7 0 1.5.8 1.5 1.5v9c0 .7-.8 1.5-1.5 1.5z" />
		<path d="m1.2 3.8 3.04-2.5S5.17.5 5.7.5h8.4c.66 0 1.4.73 1.4 1.4v7.73a2.7 2.7 0 01-.7 1.75l-2.68 3.51" />
		<path d="M6 8.75c0-.69-.54-1.25-1.2-1.25h-.6c-.66 0-1.2.56-1.2 1.25S3.54 10 4.2 10h.6c.66 0 1.2.56 1.2 1.25s-.54 1.25-1.2 1.25h-.6c-.66 0-1.2-.56-1.2-1.25M4.5 6.5v1m0 5v1" />
	</g>
</svg>
