<svg xmlns="http://www.w3.org/2000/svg" width="16" height="16">
  <path fill="none" stroke="#4c4f69" stroke-linecap="round" stroke-linejoin="round" d="M3.5 1.5h9a2 2 0 0 1 2 2v9a2 2 0 0 1-2 2h-9a2 2 0 0 1-2-2v-9c0-1.1.9-2 2-2z"/>
  <path fill="none" stroke="#4c4f69" stroke-linecap="round" stroke-linejoin="round" d="M10.5 9.5h1v3.05M6 9.5h1c.28 0 .5.22.5.5v2a.5.5 0 0 1-.5.5H6a.5.5 0 0 1-.5-.5v-2c0-.28.22-.5.5-.5Zm4-6h1c.28 0 .5.22.5.5v2a.5.5 0 0 1-.5.5h-1a.5.5 0 0 1-.5-.5V4c0-.28.22-.5.5-.5ZM5.5 3.5h1v3.05"/>
</svg>
