<svg xmlns="http://www.w3.org/2000/svg" width="16" height="16">
  <path fill="none" stroke="#04a5e5" stroke-linecap="round" stroke-linejoin="round" d="M10.77 3.5c.13-.28.27-.53.45-.75.67-.83 1.75-1.25 3.25-1.25-.5 2.17-1 3.5-1.5 4s-1.33.83-2.5 1c-.03-.45-.05-.79-.05-1"/>
  <path fill="none" stroke="#df8e1d" stroke-linecap="round" stroke-linejoin="round" d="M6.47 4.5a1 1 0 0 1-1 1 1 1 0 0 1-1-1 1 1 0 0 1 1-1 1 1 0 0 1 1 1zM8.47 10c.67.17 1.17.08 1.5-.25.67.17 1.17-.08 1.5-.75.83-.17 1.17-.67 1-1.5"/>
  <path fill="none" stroke="#40a02b" stroke-linecap="round" stroke-linejoin="round" d="m8.47 6.5 7 1c.17 1-.08 2.17-.75 2.5 0 .67-.58 1-1.75 1-.33.33-.67.5-1 .5-.33 0-.67-.17-1-.5-.33.33-.67.58-1 .75-.33.17-.75.08-1.25-.25"/>
  <path fill="none" stroke="#df8e1d" stroke-linecap="round" stroke-linejoin="round" d="m8.72 11.5.75 2c.17.5 0 .83-.5 1-.43.14-.75-.25-1.25-.25s-.56.65-.75.75c-.67.33-1.17.17-1.5-.5l-.5-1.5c-.33.33-.75.5-1.25.5-.55 0-2.03-1.2-2.79-3.5"/>
  <path fill="none" stroke="#e64553" stroke-linecap="round" stroke-linejoin="round" d="M.93 10a9.54 9.54 0 0 1-.46-3c0-4.25 3.5-5.5 5.5-5.5 1.33 0 2.5.67 3.5 2l2.5 1-3.5 2M.97 10c1.33.33 2.33.17 3-.5 2.33.33 3.83-.67 4.5-3"/>
</svg>
