<svg xmlns="http://www.w3.org/2000/svg" width="16" height="16">
  <path fill="none" stroke="#8c8fa1" stroke-linecap="round" stroke-linejoin="round" d="M15 11.51c.28 0 .5.23.5.5v3a.5.5 0 0 1-.5.5h-5a.5.5 0 0 1-.5-.5v-3c0-.27.22-.5.5-.5zm-4 0v-1.5a1.5 1.5 0 1 1 3 0v1.5"/>
  <path fill="none" stroke="#dc8a78" stroke-linecap="round" stroke-linejoin="round" d="M14.5 7.01c0-3.69-4.2-5.57-7-6.5-2.8.93-7 2.81-7 6.5 0 4.85 5.13 5.5 7 5.5"/>
  <path fill="none" stroke="#e64553" stroke-linecap="round" stroke-linejoin="round" d="M5.5 8.51h4c-.67.67-1.33 1-2 1-.67 0-1.33-.33-2-1z"/>
  <path fill="none" stroke="#4c4f69" stroke-linecap="round" stroke-linejoin="round" d="M5 6.51a.5.5 0 1 0 0-1 .5.5 0 0 0 0 1zm5 0a.5.5 0 1 0 0-1 .5.5 0 0 0 0 1z"/>
</svg>
