<svg xmlns="http://www.w3.org/2000/svg" width="16" height="16">
  <path fill="none" stroke="#40a02b" stroke-linecap="round" stroke-linejoin="round" d="M7.5 11.5h3v-4h-5v2M9.5 7.5V6a1.5 1.5 0 0 0-3 0v1.5"/>
  <path fill="none" stroke="#04a5e5" stroke-linecap="round" stroke-linejoin="round" d="M14.05 5.76c.9 2.5.22 5.3-1.75 7.07A6.45 6.45 0 0 1 5.5 14M2.72 11.8A6.52 6.52 0 0 1 4 2.85a6.45 6.45 0 0 1 8.65.64M14.5 4.5a1 1 0 0 1-1 1 1 1 0 0 1-1-1 1 1 0 0 1 1-1 1 1 0 0 1 1 1zM5.5 13A1.5 1.5 0 0 1 4 14.5 1.5 1.5 0 0 1 2.5 13 1.5 1.5 0 0 1 4 11.5 1.5 1.5 0 0 1 5.5 13zM5.5 11.5l2-2M12.5 5.5l-1 1"/>
</svg>
