<svg xmlns="http://www.w3.org/2000/svg" width="16" height="16" viewBox="0 0 16 16">
	<path fill="none" stroke="#4c4f69" stroke-linecap="round" stroke-linejoin="round" d="m 15.4712,10.050637 -5.433601,5.433968 c -0.015,0.01505 -0.04554,0.01505 -0.09055,0.01505 L 2.536327,13.517264 c -0.015,0 -0.04501,-0.01505 -0.06055,-0.06072 L 0.50026325,6.0396501 a 0.21432208,0.21495127 0 0 1 0.015,-0.090817 L 5.9483283,0.5154023 c 0.015,-0.0150465 0.04501,-0.0150465 0.09055,-0.0150465 l 7.4101857,1.997972 c 0.015,0 0.04501,0.015046 0.06055,0.060724 l 1.977121,7.4158186 c 0.03001,0.03063 0.01608,0.060724 -0.01554,0.07577 M 8.2121063,4.1480782 0.93801425,6.1154197 q -0.0225,0 0,0.04514 L 6.2655263,11.50371 c 0.015,0.01505 0.015,0 0.04501,0 l 1.962119,-7.2803988 c -0.03054,-0.075233 -0.06055,-0.075233 -0.06055,-0.075233" />
</svg>
