<svg xmlns="http://www.w3.org/2000/svg" width="16" height="16" viewBox="0 0 16 16">
	<g fill="none" stroke="#8839ef" stroke-linecap="round" stroke-linejoin="round">
		<path d="m4 1.5h8c1.38 0 2.5 1.12 2.5 2.5v8c0 1.38-1.12 2.5-2.5 2.5h-8c-1.38 0-2.5-1.12-2.5-2.5v-8c0-1.38 1.12-2.5 2.5-2.5z" />
		<path stroke-width=".814" d="m 10.240861,11.529149 c 0,0.58011 0.437448,1.039154 0.96002,1.035371 l 0.451635,-0.0032 c 0.522572,-0.0036 0.949379,-0.451477 0.949379,-1.032848 0,-0.581372 -0.426807,-1.065638 -0.949379,-1.065638 l -0.451635,3.4e-5 c -0.522572,3.9e-5 -0.949379,-0.4855273 -0.949379,-1.0656374 0,-0.5801104 0.426807,-1.0378931 0.949379,-1.0378931 l 0.451635,2.825e-4 c 0.522572,3.267e-4 0.951743,0.4577827 0.951743,1.0378931 M 6.8003972,11.529149 c 0,0.58011 0.4374474,1.039154 0.9600196,1.035371 l 0.46464,-0.0032 c 0.5225722,-0.0035 0.9363738,-0.451477 0.9363738,-1.031587 0,-0.580111 -0.4090724,-1.065638 -0.9316446,-1.065638 l -0.4693692,3.4e-5 c -0.5225722,3.8e-5 -0.949379,-0.4855272 -0.949379,-1.0656373 0,-0.5801104 0.4268068,-1.0378931 0.949379,-1.0378931 h 0.4516348 c 0.5225722,0 0.9635665,0.4577827 0.9635665,1.0378931 M 3.4072246,11.529149 c 0,0.58011 0.4374474,1.051765 0.9600196,1.051765 H 4.818879 c 0.5225722,0 0.949379,-0.456521 0.949379,-1.037893 m 0.01129,-2.1312747 c 0,-0.5801103 -0.4374474,-1.037893 -0.9600196,-1.037893 L 4.3678939,8.3741358 C 3.8453217,8.3744624 3.4078743,8.8420074 3.4078743,9.4233788 v 2.1186642" />
	</g>
</svg>
