<svg xmlns="http://www.w3.org/2000/svg" width="16" height="16" viewBox="0 0 16 16">
	<g fill="none" fill-rule="evenodd" stroke-linecap="round" stroke-linejoin="round">
		<path stroke="#40a02b" d="m 14.5,4.5 v -1 c 0,-0.5522847 -0.447715,-1 -1,-1 h -10 c -0.5522847,0 -1,0.4477153 -1,1 v 9 c -1,0 -1.66666667,-0.333333 -2,-1 0,3 0.6666667,3 2,3 h 11 1 c 0.552285,0 1,-0.447715 1,-1 0,-0.552285 -0.447715,-1 -1,-1 V 8.5 7 Z M 5.25,2.25 4.5,1.5 l -1,1 -1,-1 v 1 h -1 l 1,1 -1,1 1,1 -1,1 1,1 -1,1 0.75,0.75 M 15,9.5 C 15.276142,9.5 15.5,9.2761424 15.5,9 15.5,8.7238576 15.276142,8.5 15,8.5 h -0.5 -5 V 9 C 9.5,9.2761424 9.2761424,9.5 9,9.5 H 8.5 v 3 h 1 c 0.552285,0 1,0.447715 1,1 0,0.552285 -0.447715,1 -1,1" />
		<path stroke="#4c4f69" d="m 9.5,6.5 1,-1 1,1 1,-1 1,1 1,-1 m -8,0 c 0,-0.5522848 -0.4477153,-1 -1,-1 -0.5522848,0 -1,0.4477152 -1,1" />
		<path stroke="#df8e1d" d="m 10.413284,10.5 h 2.311193 m -0.0098,2 h -0.878229" />
	</g>
</svg>
