<svg xmlns="http://www.w3.org/2000/svg" width="16" height="16" viewBox="0 0 16 16">
	<path fill="none" stroke="#fe640b" stroke-linecap="round" stroke-linejoin="round" d="M2.25 10.5h3.5c.41 0 .75.34.75.75v2.5c0 .41-.34.75-.75.75h-3.5a.75.75 0 01-.75-.75v-2.5c0-.41.34-.75.75-.75m8 0h3.5c.41 0 .75.34.75.75v2.5c0 .41-.34.75-.75.75h-3.5a.75.75 0 01-.75-.75v-2.5c0-.41.34-.75.75-.75m-4-9h3.5c.41 0 .75.34.75.75v2.5c0 .41-.34.75-.75.75h-3.5a.75.75 0 01-.75-.75v-2.5c0-.41.34-.75.75-.75M4 10.5l3.5-5m4.5 5-3.5-5" />
</svg>
