<svg xmlns="http://www.w3.org/2000/svg" width="16" height="16" viewBox="0 0 16 16">
	<g fill="none" fill-rule="evenodd" stroke-miterlimit="1.5">
		<path stroke="#e64553" stroke-linecap="round" stroke-linejoin="round" d="M 4.1214252,9.7374026 3.3667669,10.102795 C 3.1433055,10.209683 2.8984157,10.265178 2.6503364,10.265147 H 0.49495072 V 4.0898661 H 3.441234 c 0.8291088,0 1.5012341,0.6667977 1.501234,1.4893341 v 2.5197754 c 0,1.2843678 1.0493775,2.3255744 2.344006,2.3255744 h 0.00116 c 1.2946288,0 2.3441552,-1.0412066 2.3441552,-2.3255744 V 4.0855901 h 2.8324268 c 0.827221,4e-7 1.497815,0.6652791 1.497815,1.4859418 v 0.055589 c 0,0.7900843 -0.645678,1.4306455 -1.442224,1.4306455 h -1.641619 1.45939 c 0.448587,0 0.8547,0.1804158 1.148666,0.4720893" />
		<ellipse cx="7.259" cy="8.092" stroke="#e64553" stroke-linecap="round" stroke-linejoin="round" rx="1.122" ry="1.113" />
		<path stroke="#e64553" stroke-linecap="round" stroke-linejoin="round" d="m 8.3499911,6.1421849 v 0" />
		<path stroke="#8c8fa1" d="m 15,11.5 c 0.27,0 0.5,0.22 0.5,0.5 v 3 A 0.5,0.5 0 0 1 15,15.5 H 10 A 0.5,0.5 0 0 1 9.5,15 v -3 c 0,-0.28 0.22,-0.5 0.5,-0.5 z m -4,0 V 10 a 1.5,1.5 0 0 1 3,0 v 1.5" />
	</g>
</svg>
