<svg xmlns="http://www.w3.org/2000/svg" width="16" height="16" viewBox="0 0 16 16">
	<g fill="none" stroke-linecap="round" stroke-linejoin="round">
		<path stroke="#df8e1d" d="M 4.5,7.5000001 V 11 m 0,-6.4999999 v -1.5 m 0,4.5 c 1.9999991,0 1.9999991,-3 0,-3 -1.9999991,0 -1.9999991,3 0,3 m 5.0000001,-1 v -3.5 M 10.906249,7.4492189 C 10.843749,7.2734376 10.749999,7.1093751 10.625,6.9687501 10.375,6.6875001 10,6.5000001 9.5000001,6.5000001 c -0.9999996,0 -1.4999993,0.75 -1.4999993,1.5 0,0.1875 0.03125,0.375 0.09375,0.5507813 M 3.0000001,0.5 H 11 c 1.380712,0 2.5,1.1192882 2.5,2.5000001 V 7 M 6.0750308,13.5 H 3.0000001 C 1.6192882,13.5 0.5,12.380712 0.5,11 V 3.0000001 C 0.49999994,1.6192881 1.6192881,0.49999994 3.0000001,0.5" />
		<path stroke="#8c8fa1" d="M3.5,4.5 C4.05228475,4.5 4.5,4.05228475 4.5,3.5 C4.5,2.94771525 4.05228475,2.5 3.5,2.5 C2.94771525,2.5 2.5,2.94771525 2.5,3.5 C2.5,4.05228475 2.94771525,4.5 3.5,4.5 Z M5.25153811,0.5 L7.00153811,3.5 L5.25153811,6.5 L1.75153811,6.5 L0.00153810568,3.5 L1.75153811,0.5 L5.25153811,0.5 Z" transform="translate(8 9)" />
	</g>
</svg>
