<svg xmlns="http://www.w3.org/2000/svg" width="16" height="16">
  <path fill="none" stroke="#209fb5" stroke-linecap="round" stroke-linejoin="round" d="M4.5 13.5 3.05 8.42m-.06-3.86a2 2 0 1 0 .06 3.86L4.5 13.5"/>
  <path fill="none" stroke="#d20f39" stroke-linecap="round" stroke-linejoin="round" d="m2.5 6.5 3.88-2.82A2 2 0 1 1 10 2.3"/>
  <path fill="none" stroke="#1e66f5" stroke-linecap="round" stroke-linejoin="round" d="M14.3 8.33a2 2 0 1 0-2.43-3L8.01 2.5"/>
  <path fill="none" stroke="#40a02b" stroke-linecap="round" stroke-linejoin="round" d="M10.06 14.89a2 2 0 1 0 2-3.3L13.5 6.5"/>
  <path fill="none" stroke="#8839ef" stroke-linecap="round" stroke-linejoin="round" d="M11.5 13.5h-5a2 2 0 1 1-3.73-1"/>
  <path fill="none" stroke="#8839ef" stroke-linecap="round" stroke-linejoin="round" d="M12 13.5a.5.5 0 0 1-.5.5.5.5 0 0 1-.5-.5.5.5 0 0 1 .5-.5.5.5 0 0 1 .5.5Z"/>
  <path fill="none" stroke="#209fb5" stroke-linecap="round" stroke-linejoin="round" d="M5 13.5a.5.5 0 0 1-.5.5.5.5 0 0 1-.5-.5.5.5 0 0 1 .5-.5.5.5 0 0 1 .5.5Z"/>
  <path fill="none" stroke="#d20f39" stroke-linecap="round" stroke-linejoin="round" d="M3 6.5a.5.5 0 0 1-.5.5.5.5 0 0 1-.5-.5.5.5 0 0 1 .5-.5.5.5 0 0 1 .5.5Z"/>
  <path fill="none" stroke="#1e66f5" stroke-linecap="round" stroke-linejoin="round" d="M8.5 2.5A.5.5 0 0 1 8 3a.5.5 0 0 1-.5-.5A.5.5 0 0 1 8 2a.5.5 0 0 1 .5.5Z"/>
  <path fill="none" stroke="#40a02b" stroke-linecap="round" stroke-linejoin="round" d="M14 6.5a.5.5 0 0 1-.5.5.5.5 0 0 1-.5-.5.5.5 0 0 1 .5-.5.5.5 0 0 1 .5.5Z"/>
</svg>
