<svg xmlns="http://www.w3.org/2000/svg" width="16" height="16">
  <path fill="none" stroke="#40a02b" stroke-linecap="round" stroke-linejoin="round" d="M7.5 11.5h-2a2 2 0 1 0 2 2v-2Z"/>
  <path fill="none" stroke="#8839ef" stroke-linecap="round" stroke-linejoin="round" d="M7.5 10.5v-4h-2a2 2 0 1 0 0 4h2Z"/>
  <path fill="none" stroke="#d20f39" stroke-linecap="round" stroke-linejoin="round" d="M7.5 5.5v-4h-2a2 2 0 1 0 0 4h2Z"/>
  <path fill="none" stroke="#fe640b" stroke-linecap="round" stroke-linejoin="round" d="M10.5 5.5a2 2 0 1 0 0-4h-2v4h2Z"/>
  <path fill="none" stroke="#04a5e5" stroke-linecap="round" stroke-linejoin="round" d="M12.5 8.5a2 2 0 0 1-2 2 2 2 0 0 1-2-2 2 2 0 0 1 2-2 2 2 0 0 1 2 2z"/>
</svg>
