<svg xmlns="http://www.w3.org/2000/svg" width="16" height="16" viewBox="0 0 16 16">
	<g fill="none">
		<path stroke="url(#a)" stroke-linecap="round" stroke-linejoin="round" d="M4.5 4.5H12c.83 0 1.5.67 1.5 1.5v.5m-7.5 7H2A1.5 1.5 0 0 1 .5 12V3.5a1 1 0 0 1 1-1h5a1 1 0 0 1 1 1v1" />
		<circle cx="11.5" cy="11.5" r="2" stroke="#4c4f69" />
		<path stroke="url(#b)" stroke-linecap="round" stroke-linejoin="round" d="M12.51 7.63a4 4 0 0 1 .01 7.74" />
		<path stroke="#e64553" stroke-linecap="round" stroke-linejoin="round" d="M10.52 15.38a4 4 0 0 1-1.46-.7M7.83 13.1a4 4 0 0 1-.33-1.6" />
		<defs>
			<radialGradient id="b" cx="0" cy="0" r="1" gradientTransform="matrix(0 8.03571 -8.85135 0 11.5 7.64)" gradientUnits="userSpaceOnUse">
				<stop stop-color="#1e66f5" />
				<stop offset="1" stop-color="#e64553" />
			</radialGradient>
			<linearGradient id="a" x1="7" x2="7" y1="1" y2="13" gradientUnits="userSpaceOnUse">
				<stop stop-color="#1e66f5" />
				<stop offset="1" stop-color="#e64553" />
			</linearGradient>
		</defs>
	</g>
</svg>
