<svg xmlns="http://www.w3.org/2000/svg" width="16" height="16" viewBox="0 0 16 16">
	<path fill="none" stroke="#4c4f69" stroke-linecap="round" stroke-linejoin="round" d="m1.87 8 .7-2.74a1 1 0 01.96-.76h10.94a1 1 0 01.97 1.24l-.219.875M6 13.5H2A1.5 1.5 0 01.5 12V3.5a1 1 0 011-1h5a1 1 0 011 1v1" />
	<path fill="none" stroke="#04a5e5" stroke-linecap="round" stroke-linejoin="round" d="M9.0384616 8.5000001H14.961539A.53846154.53846154 0 0 1 15.5 9.0384616V14.423077A1.0769231 1.0769231 0 0 1 14.423077 15.5H9.5769231A1.0769231 1.0769231 0 0 1 8.5000001 14.423077V9.0384616A.53846154.53846154 0 0 1 9.0384616 8.5000001ZM8.5000001 12H15.5M12 10v0m0 3.5v0" />
</svg>
