<svg xmlns="http://www.w3.org/2000/svg" width="16" height="16" viewBox="0 0 16 16">
	<path fill="none" stroke="#4c4f69" stroke-linecap="round" stroke-linejoin="round" d="M 4.5,4.5 H 12 c 0.828427,0 1.5,0.6715729 1.5,1.5 V 6.5 M 6,13.5 H 2 C 1.1715729,13.5 0.5,12.828427 0.5,12 V 3.5 c 0,-0.5522847 0.44771525,-1 1,-1 h 5 c 0.5522847,0 1,0.4477153 1,1 v 1" />
	<g fill="none" stroke-linecap="round" stroke-linejoin="round" transform="matrix(.55947 0 0 .56345 7.328 7.407)">
		<path stroke="#4c4f69" d="M 11.28,11.04 C 11.08,10.74 10.95,10.51 11.03,10.19 11.08,9.99 11.2,9.81 11.34,9.67 12.62,8.41 13.76,7.32 14.8,6 14.89,5.88 14.93,5.73 14.97,5.59 15,5.47 15,5.34 15,5.21 15,5.09 14.99,4.97 14.95,4.86 A 6.9,6.9 0 0 0 13.55,2.68 C 13.41,2.58 13.27,2.48 13.11,2.41 A 1.1,1.1 0 0 0 12.75,2.32 c -0.16,0 -0.33,0.01 -0.48,0.05 C 12.1,2.42 11.98,2.5 11.81,2.6 m 0.31,12.15 -1.34,-2.26 a 0.7,0.7 0 0 1 -0.08,-0.56 0.73,0.73 0 0 1 0.35,-0.44 l 0.77,-0.43 a 0.77,0.77 0 0 1 1.02,0.27 l 1.34,2.26" />
		<path stroke="#179299" d="M 2.63,5.4 9.04,1.8 C 9.95,1.28 11.1,1.6 11.63,2.49 A 1.83,1.83 0 0 1 10.95,5 L 4.54,8.62 C 3.64,9.13 2.48,8.82 1.95,7.92 A 1.83,1.83 0 0 1 2.63,5.4" />
	</g>
</svg>
