<svg xmlns="http://www.w3.org/2000/svg" width="16" height="16" viewBox="0 0 16 16">
	<g fill="none" stroke-linecap="round" stroke-linejoin="round">
		<path stroke="#4c4f69" d="M 4.5,4.5 H 12 c 0.828427,0 1.5,0.6715729 1.5,1.5 V 6.5 M 6,13.5 H 2 C 1.1715729,13.5 0.5,12.828427 0.5,12 V 3.5 c 0,-0.5522847 0.44771525,-1 1,-1 h 5 c 0.5522847,0 1,0.4477153 1,1 v 1" />
		<path stroke="#04a5e5" d="M10.3266248,15.5 L15.1216642,10.7049605 C15.4479593,10.3786655 15.575392,9.90308001 15.4559597,9.45735264 C15.3365274,9.01162526 14.9883747,8.66347255 14.5426474,8.54404026 C14.09692,8.42460797 13.6213345,8.55204071 13.2950395,8.87833579 L8.5,13.6733752 L8.5,15.5 L10.3266248,15.5 Z M12.838255,9.334949 L14.6650506,11.1615738" />
	</g>
</svg>
