<svg xmlns="http://www.w3.org/2000/svg" width="16" height="16" viewBox="0 0 16 16">
	<g fill="none" stroke-linecap="round" stroke-linejoin="round">
		<path stroke="#4c4f69" d="M 1.8748797,8.0004811 2.5606339,5.2574644 C 2.6719257,4.8122974 3.0719088,4.5 3.5307764,4.5 H 14.469224 c 0.552284,0 1,0.4477152 1,1 0,0.081762 -0.01003,0.163215 -0.02986,0.2425356 L 15.124325,7.0026989 M 6,13.5 H 2.0043488 C 1.1715729,13.5 0.5,12.828427 0.5,12 V 3.5 c 0,-0.5522847 0.44771525,-1 1,-1 h 5 c 0.5522847,0 1,0.4477153 1,1 v 1" />
		<path stroke="#fe640b" d="M14.6916093,8.499999 L9.30836364,8.499999 C9.22181843,8.499999 9.13924823,8.53632871 9.08082869,8.60018192 C9.02240914,8.66403512 8.99352159,8.74950463 9.00122457,8.83570636 L9.47008374,14.0770838 C9.48149995,14.2048548 9.57084873,14.3122019 9.69442599,14.3466173 L11.9970813,15.499999 L14.3053855,14.3469401 C14.429256,14.3126528 14.5188542,14.2051092 14.530212,14.0770838 L14.9987484,8.83554496 C15.0065375,8.74933315 14.9777203,8.66381882 14.9193409,8.5999049 C14.8607312,8.5362468 14.778149,8.499999 14.6916093,8.499999 Z" />
	</g>
</svg>
