<svg xmlns="http://www.w3.org/2000/svg" width="16" height="16" viewBox="0 0 16 16">
	<path fill="none" stroke="#4c4f69" stroke-linecap="round" stroke-linejoin="round" d="M 1.8748797,8.0004811 2.5606339,5.2574644 C 2.6719257,4.8122974 3.0719088,4.5 3.5307764,4.5 H 14.469224 c 0.552284,0 1,0.4477152 1,1 0,0.081762 -0.01003,0.163215 -0.02986,0.2425356 L 15.124325,7.0026989 M 6,13.5 H 2.0043488 C 1.1715729,13.5 0.5,12.828427 0.5,12 V 3.5 c 0,-0.5522847 0.44771525,-1 1,-1 h 5 c 0.5522847,0 1,0.4477153 1,1 v 1" />
	<g fill="none" stroke-linecap="round" stroke-linejoin="round" stroke-width="2.143" transform="translate(7.767 8.057)scale(.46666)">
		<path stroke="#209fb5" d="M 0.5,7.5 H 4 M 5.39,5.5 2.05,11" />
		<path stroke="#1e66f5" d="M 4,1.5 5.5,4 M 9,4.5 H 2.55" />
		<path stroke="#209fb5" d="m 12,1.5 -1.5,3 M 11.51,7.1 8.5,1.5" />
		<path stroke="#1e66f5" d="M 15.5,8.52 12,8.5 m -1.38,2 L 14,5" />
		<path stroke="#209fb5" d="M 12.5,14.5 10,11.5 M 7.03,11.52 13.51,11.5" />
		<path stroke="#1e66f5" d="m 4,14.5 1.5,-3 M 4.53,9 7.5,14.5" />
	</g>
</svg>
