<svg xmlns="http://www.w3.org/2000/svg" width="16" height="16" viewBox="0 0 16 16">
	<g fill="none" stroke-linecap="round" stroke-linejoin="round">
		<path stroke="#4c4f69" d="M 4.5,4.5 H 12 c 0.828427,0 1.5,0.6715729 1.5,1.5 V 6.5 M 6,13.5 H 2 C 1.1715729,13.5 0.5,12.828427 0.5,12 V 3.5 c 0,-0.5522847 0.44771525,-1 1,-1 h 5 c 0.5522847,0 1,0.4477153 1,1 v 1" />
		<path stroke="#e64553" d="M11.5,10.5 L14.5,10.5 C15.0522847,10.5 15.5,10.9477153 15.5,11.5 L15.5,14.5 C15.5,15.0522847 15.0522847,15.5 14.5,15.5 L11.5,15.5 C10.9477153,15.5 10.5,15.0522847 10.5,14.5 L10.5,11.5 C10.5,10.9477153 10.9477153,10.5 11.5,10.5 Z M13.5,10.1667182 L13.5,9.33335909 C13.5,8.87310757 13.1268924,8.5 12.6666409,8.5 L9.33335909,8.5 C8.87310757,8.5 8.5,8.87310757 8.5,9.33335909 L8.5,12.6666409 C8.5,13.1268924 8.87310757,13.5 9.33335909,13.5 L10.1665636,13.5" />
	</g>
</svg>
