<svg xmlns="http://www.w3.org/2000/svg" width="16" height="16" viewBox="0 0 16 16">
	<path fill="none" stroke="#4c4f69" stroke-linecap="round" stroke-linejoin="round" d="m1.87 8 .7-2.74a1 1 0 01.96-.76h10.94a1 1 0 01.97 1.24l-.219.875M6 13.5H2A1.5 1.5 0 01.5 12V3.5a1 1 0 011-1h5a1 1 0 011 1v1" />
	<path fill="none" stroke="#8c8fa1" stroke-linecap="round" stroke-linejoin="round" d="m 8.2587316,7.8563755 h 1.170517 A 0.5852588,0.58460205 0 0 1 10.014509,8.4409776 V 14.8716 A 0.5852588,0.58460205 0 0 1 9.4292486,15.456202 H 8.2587316 A 0.5852588,0.58460205 0 0 1 7.6734726,14.8716 V 8.4409776 a 0.5852588,0.58460205 0 0 1 0.585259,-0.5846021 m 2.3410354,1.7538062 h 0.585259 a 0.5852588,0.58460205 0 0 1 0.585258,0.5846013 V 14.8716 a 0.5852588,0.58460205 0 0 1 -0.585258,0.584602 H 10.599767 A 0.5852588,0.58460205 0 0 1 10.014509,14.8716 v -4.676817 a 0.5852588,0.58460205 0 0 1 0.585258,-0.5846013 m 2.0367,0.2338408 1.12955,-0.3039931 a 0.29262941,0.29230102 0 0 1 0.36286,0.2046107 l 1.363653,5.0860379 a 0.29262941,0.29230102 0 0 1 -0.210693,0.350761 l -1.129549,0.309839 A 0.29262941,0.29230102 0 0 1 13.79528,15.280821 l -1.363654,-5.086038 a 0.29262941,0.29230102 0 0 1 0.204841,-0.3507605" />
</svg>
