<svg width="16" height="16" viewBox="0 0 16 16" fill="none" xmlns="http://www.w3.org/2000/svg">
<path d="M4.5 4.5H12C12.8284 4.5 13.5 5.17157 13.5 6V6.5M6 13.5H2C1.17157 13.5 0.5 12.8284 0.5 12V3.5C0.5 2.94772 0.947715 2.5 1.5 2.5H6.5C7.05228 2.5 7.5 2.94772 7.5 3.5V4.5" stroke="#4C4F69" stroke-linecap="round" stroke-linejoin="round"/>
<path d="M8.18389 12C9.9436 11.6345 11.1077 9.92896 11.5002 8.71069C11.8928 9.92896 13.0569 11.6345 14.8166 12M8.18335 12C9.94306 12.3655 11.1072 14.071 11.4997 15.2893C11.8922 14.071 13.0563 12.3655 14.816 12" stroke="#04A5E5" stroke-linecap="round" stroke-linejoin="round"/>
</svg>
