<svg xmlns="http://www.w3.org/2000/svg" width="16" height="16" viewBox="0 0 16 16">
	<g fill="none">
		<path stroke="#4c4f69" stroke-linecap="round" stroke-linejoin="round" d="M4.5 4.5H12c.8 0 1.5.7 1.5 1.5v.5m-7.5 7H2c-.8 0-1.5-.7-1.5-1.5V3.5c0-.6.4-1 1-1h5c.6 0 1 .4 1 1v1" />
		<circle cx="11.5" cy="11.5" r="2" stroke="#4c4f69" />
		<path stroke="#1e66f5" stroke-linecap="round" stroke-linejoin="round" d="M12.5 7.6a4 4 0 0 1 3 3.7" />
		<path stroke="#8839ef" stroke-linecap="round" stroke-linejoin="round" d="M15.5 11.5a4 4 0 0 1-.7 2.3" />
		<path stroke="#e64553" stroke-linecap="round" stroke-linejoin="round" d="M10.5 15.4a4 4 0 0 1-1.4-.7m-1.3-1.6a4 4 0 0 1-.3-1.6m7.2 2.5a4 4 0 0 1-2.2 1.4" />
	</g>
</svg>
