<svg xmlns="http://www.w3.org/2000/svg" width="16" height="16" viewBox="0 0 16 16">
	<g fill="none" stroke-linecap="round" stroke-linejoin="round">
		<path stroke="#4c4f69" d="M 4.5,4.5 H 12 c 0.828427,0 1.5,0.6715729 1.5,1.5 V 6.5 M 6,13.5 H 2 C 1.1715729,13.5 0.5,12.828427 0.5,12 V 3.5 c 0,-0.5522847 0.44771525,-1 1,-1 h 5 c 0.5522847,0 1,0.4477153 1,1 v 1" />
		<path stroke="#209fb5" d="M 8.500151,12.000076 H 15.5 M 12.000076,15.5 c -1.932955,0 -3.499925,-1.499849 -3.499925,-3.499924 0,-2.000076 1.56697,-3.499925 3.499925,-3.499925 2.000075,0 3.499924,1.5 3.499924,3.499925 C 15.5,14.000151 14.000151,15.5 12.000076,15.5 Z M 11.55623,9.000151 c -1.37927,2.010618 -1.447783,4.009525 0.08683,6.339119 m 0.81135,-6.339119 c 1.360556,1.979117 1.449569,3.98033 -0.062,6.339119" />
	</g>
</svg>
