<svg xmlns="http://www.w3.org/2000/svg" width="16" height="16" viewBox="0 0 16 16">
	<g fill="none" stroke-linecap="round" stroke-linejoin="round">
		<path stroke="#4c4f69" d="M 4.5,4.5 H 12 c 0.828427,0 1.5,0.6715729 1.5,1.5 V 6.5 M 6,13.5 H 2 C 1.1715729,13.5 0.5,12.828427 0.5,12 V 3.5 c 0,-0.5522847 0.44771525,-1 1,-1 h 5 c 0.5522847,0 1,0.4477153 1,1 v 1" />
		<path stroke="#1e66f5" d="m 7,14.75 c 0,0.583216 0.416758,0.75 1,0.75 0.583242,0 0.5556774,-1.555608 0.9445576,-3.500078 C 9.3334377,10.055451 9.4166014,8.5 10,8.5 c 0.583242,0 1,0.1666275 1,0.75 m -3.222396,2.250078 h 2.333594 M 15.5,13.5 H 15 c -1.5,0 -1.818311,-3 -3,-3 h -0.5 m 0,3 H 12 c 1.5,0 1.818311,-3 3,-3 h 0.5" />
	</g>
</svg>
