<svg xmlns="http://www.w3.org/2000/svg" width="16" height="16" viewBox="0 0 16 16">
	<g fill="none" stroke-linecap="round" stroke-linejoin="round">
		<path stroke="#4c4f69" d="M 1.8748797,8.0004811 2.5606339,5.2574644 C 2.6719257,4.8122974 3.0719088,4.5 3.5307764,4.5 H 14.469224 c 0.552284,0 1,0.4477152 1,1 0,0.081762 -0.01003,0.163215 -0.02986,0.2425356 L 15.124325,7.0026989 M 6,13.5 H 2.0043488 C 1.1715729,13.5 0.5,12.828427 0.5,12 V 3.5 c 0,-0.5522847 0.44771525,-1 1,-1 h 5 c 0.5522847,0 1,0.4477153 1,1 v 1" />
		<path stroke="#df8e1d" d="M11.500049 7.4999995c-1.6824116 0-3.0000492 1.2585199-3.0000492 2.8058265 0 1.165555.6226052 1.720581 1.1145034 2.125923.316866.261209.8870468.418351.8870468.612089v.4239c-.0058.248201-.0031.505247-.0031.755876 0 .763508.331556 1.276386 1.011323 1.276386.679767 0 .992377-.512878.992377-1.276386.000566-.24872.0011-.517041-.0043-.755876v-.4239c0-.294858.596295-.473333.957107-.763161C13.943408 11.888344 14.5 11.40027 14.5 10.305826 14.5 8.7585194 13.182363 7.4999995 11.499952 7.4999995ZM10.50155 13.456366h1.9963" />
	</g>
</svg>
