<svg xmlns="http://www.w3.org/2000/svg" width="16" height="16" viewBox="0 0 16 16">
	<g fill="none" stroke-linecap="round" stroke-linejoin="round">
		<path stroke="#4c4f69" d="m1.87 8 .7-2.74a1 1 0 01.96-.76h10.94a1 1 0 01.97 1.24l-.219.875M6 13.5H2A1.5 1.5 0 01.5 12V3.5a1 1 0 011-1h5a1 1 0 011 1v1" />
		<path stroke="#40a02b" d="M 12,8 8.5,9.1666667 v 2.1250003 c 0,2.122027 1.1945801,3.641662 3.5,4.208333 2.361176,-0.580343 3.5,-2.08709 3.5,-4.208333 V 9.1666667 Z m -1.501892,3.5 1.503784,1.5 1.500916,-2.5" />
	</g>
</svg>
