<svg xmlns="http://www.w3.org/2000/svg" width="16" height="16" viewBox="0 0 16 16">
	<g fill="none" stroke-linecap="round" stroke-linejoin="round" transform="translate(0 .004)">
		<path stroke="#8839ef" stroke-width=".65" d="m11.95 15.67-0.01332-1.323 3.738 1.99e-4v1.326l-3.724-0.0027m-2.084-2.734-2.818-2.737 1.974 0.0027 2.339 2.255c0.27 0.2689 0.27 0.6996 0 0.9593l-2.3 2.257h-2.013z" />
		<path stroke="#4c4f69" d="m1.873 8 0.7015-2.74a1.002 1 0 0 1 0.962-0.76h10.96a1.002 1 0 0 1 0.972 1.24l-0.2195 0.875m-9.24 6.885h-4.008a1.503 1.5 0 0 1-1.503-1.5v-8.5a1.002 1 0 0 1 1.002-1h5.01a1.002 1 0 0 1 1.002 1v1" />
	</g>
</svg>
