<svg xmlns="http://www.w3.org/2000/svg" width="16" height="16" viewBox="0 0 16 16">
	<g fill="none" stroke-linecap="round" stroke-linejoin="round">
		<path stroke="#4C4F69" d="M 4.5,4.5 H 12 c 0.828427,0 1.5,0.6715729 1.5,1.5 V 6.5 M 6,13.5 H 2 C 1.1715729,13.5 0.5,12.828427 0.5,12 V 3.5 c 0,-0.5522847 0.44771525,-1 1,-1 h 5 c 0.5522847,0 1,0.4477153 1,1 v 1" />
		<path stroke="#4c4f69" d="m 10,13 c 0,0.54914 0.528595,1 1,1 0.471405,0 1,-0.528595 1,-1 0,-0.471405 -1,-1 -1,-1 0,0 -1,-0.528595 -1,-1 0,-0.471405 0.528595,-1 1,-1 0.471405,0 0.902399,0.538196 1,1" />
		<path stroke="#EA76CB" d="m 12,8.2528972 v 0.750585 M 8.5,8.5 V 15 l 5,0.500002 L 13.514549,8 Z" />
	</g>
</svg>
