<svg xmlns="http://www.w3.org/2000/svg" width="16" height="16" viewBox="0 0 16 16">
	<g fill="none" stroke-linecap="round" stroke-linejoin="round">
		<path stroke="#4c4f69" d="M 1.8748797,8.0004811 2.5606339,5.2574644 C 2.6719257,4.8122974 3.0719088,4.5 3.5307764,4.5 H 14.469224 c 0.552284,0 1,0.4477152 1,1 0,0.081762 -0.01003,0.163215 -0.02986,0.2425356 L 15.124325,7.0026989 M 6,13.5 H 2.0043488 C 1.1715729,13.5 0.5,12.828427 0.5,12 V 3.5 c 0,-0.5522847 0.44771525,-1 1,-1 h 5 c 0.5522847,0 1,0.4477153 1,1 v 1" />
		<path stroke="#8839ef" d="m 8.5,15.5 3.056776,0.0083" />
		<path stroke="#d20f39" d="M10 8.5v4M9 8.5h2m-2 4h2" />
		<path stroke="#1e66f5" d="m 14.500033,8.5 v 3 c 0,0 0,1 -1,1 -1,0 -1,-1 -1,-1" />
	</g>
</svg>
