<svg xmlns="http://www.w3.org/2000/svg" width="16" height="16" viewBox="0 0 16 16">
	<g fill="none" stroke-linecap="round" stroke-linejoin="round">
		<path stroke="#4c4f69" d="m4.5 4.5h7.5c0.83 0 1.5 0.67 1.5 1.5v0.5m-7.5 7h-4c-0.83 0-1.5-0.67-1.5-1.5v-8.5c0-0.55 0.45-1 1-1h5c0.55 0 1 0.45 1 1v1" />
		<path stroke="#fe640b" d="m1.5 7v4l6.5 3.5 6.5-3.5v-8l-3.5-1.5-6.5 3v1zm6.5-4 3.5 1.5v8m-10-5.5 6.5 3.5 6.5-3.5m-10-2.5 3.5 2 6.5-3.5m-10 2.5v7m3.5-6v7.5" transform="matrix(.57 0 0 .57 7.4 7.4)" />
	</g>
</svg>
