<svg xmlns="http://www.w3.org/2000/svg" width="16" height="16" viewBox="0 0 16 16">
	<g fill="none" stroke-linecap="round" stroke-linejoin="round">
		<path stroke="#4c4f69" d="M 4.5,4.5 H 12 c 0.828427,0 1.5,0.6715729 1.5,1.5 V 6.5 M 6,13.5 H 2 C 1.1715729,13.5 0.5,12.828427 0.5,12 V 3.5 c 0,-0.5522847 0.44771525,-1 1,-1 h 5 c 0.5522847,0 1,0.4477153 1,1 v 1" />
		<path stroke="#40a02b" stroke-width="1.615" d="m 10.076921,7.1964273 c 0,-1.1771706 -1.1630771,-2.1325551 -2.5846154,-2.1325551 H 6.1999978 c -1.4215383,0 -2.5846151,0.9553845 -2.5846151,2.1325551 0,1.1771702 1.1630768,2.1325548 2.5846151,2.1325548 h 1.2923078 c 1.4215383,0 2.5846154,0.9553839 2.5846154,2.1325539 0,1.177171 -1.1630771,2.132556 -2.5846154,2.132556 H 6.1999978 c -1.4215383,0 -2.5846151,-0.955385 -2.5846151,-2.132556 m 3.230769,-8.1037077 v 1.7060439 m 0,8.5302198 v 1.706043" transform="translate(7.262 5.421)scale(.61905)" />
	</g>
</svg>
