<svg xmlns="http://www.w3.org/2000/svg" width="16" height="16" viewBox="0 0 16 16">
	<path fill="none" stroke="#4c4f69" stroke-linecap="round" stroke-linejoin="round" d="M 1.8748797,8.0004811 2.5606339,5.2574644 C 2.6719257,4.8122974 3.0719088,4.5 3.5307764,4.5 H 14.469224 c 0.552284,0 1,0.4477152 1,1 0,0.081762 -0.01003,0.163215 -0.02986,0.2425356 L 15.124325,7.0026989 M 6,13.5 H 2.0043488 C 1.1715729,13.5 0.5,12.828427 0.5,12 V 3.5 c 0,-0.5522847 0.44771525,-1 1,-1 h 5 c 0.5522847,0 1,0.4477153 1,1 v 1" />
	<g fill="none" stroke="#209fb5" stroke-linecap="round" stroke-linejoin="round" stroke-width="1.855" transform="matrix(.53379 0 0 .54472 7.231 7.141)">
		<path d="M 7.5,7.5 5.53,8.28 C 5.33,8.43 4.79,8.61 4.33,8.08 a 7.3,7.3 0 0 1 -1,-1.63" />
		<path d="m 11.43,2.98 c 0.54,-0.48 4.07,-1.39 4.07,2.1 0,2.34 -1.6,3.53 -2.76,4.5 -0.75,0.61 -1.35,1.28 -1.35,3.92 H 9.88 c 0,-1.29 -2.66,-2.32 -3.17,0 H 5.38 c 0,-1.29 -2.65,-2.32 -3.16,0 H 0.7 C 0.29,11.92 0.22,8.3 3.33,6.45 3.18,6.2 3.06,5.43 3.76,5.15 4.63,4.81 7.53,3.81 10.27,5.27 c 2.74,1.46 5.01,1.12 5.14,0.74" />
	</g>
</svg>
