<svg xmlns="http://www.w3.org/2000/svg" width="16" height="16" viewBox="0 0 16 16">
	<g fill="none" stroke-linecap="round" stroke-linejoin="round">
		<path stroke="#fe640b" stroke-width=".65" d="m14.48 8.724a0.6766 0.7031 0 0 1-0.6766 0.7031 0.6766 0.7031 0 0 1-0.6766-0.7031 0.6766 0.7031 0 0 1 0.6766-0.7031 0.6766 0.7031 0 0 1 0.6766 0.7031zm-3.834 5.546v-3.593c0-1.079 0.8414-1.953 1.879-1.953h0.6012" />
		<path stroke="#d20f39" stroke-width=".65" d="m11.33 14.97a0.6766 0.7027 0 0 1-0.6766 0.7027 0.6766 0.7027 0 0 1-0.6766-0.7027 0.6766 0.7027 0 0 1 0.6766-0.7027 0.6766 0.7027 0 0 1 0.6766 0.7027zm3.157-3.591a0.6766 0.7027 0 0 1-0.6766 0.7027 0.6766 0.7027 0 0 1-0.6766-0.7027 0.6766 0.7027 0 0 1 0.6766-0.7027 0.6766 0.7027 0 0 1 0.6766 0.7027zm-3.834 2.89v-0.937c0-1.078 0.8414-1.952 1.879-1.952h0.6012" />
		<path stroke="#4c4f69" d="m1.873 8 0.7015-2.74a1.002 1 0 0 1 0.962-0.76h10.96a1.002 1 0 0 1 0.972 1.24l-0.2195 0.875m-9.24 6.885h-4.008a1.503 1.5 0 0 1-1.503-1.5v-8.5a1.002 1 0 0 1 1.002-1h5.01a1.002 1 0 0 1 1.002 1v1" />
	</g>
</svg>
