<svg xmlns="http://www.w3.org/2000/svg" width="16" height="16">
  <g fill="none" stroke-linecap="round" stroke-linejoin="round">
    <path stroke="#4c4f69" d="M8.5 10.5a1 1 0 0 1-1 1 1 1 0 0 1-1-1 1 1 0 0 1 1-1 1 1 0 0 1 1 1zm0-6a1 1 0 0 1-1 1 1 1 0 0 1-1-1 1 1 0 0 1 1-1 1 1 0 0 1 1 1zm3 3a1 1 0 0 1-1 1 1 1 0 0 1-1-1 1 1 0 0 1 1-1 1 1 0 0 1 1 1z"/>
    <path stroke="#4C4F69" d="M7.5 5.5v4m-1-6-1-1m4 4-1-1"/>
    <path stroke="#FE640B" d="m9.06 1.06 5.88 5.88a1.5 1.5 0 0 1 0 2.12l-5.88 5.88a1.5 1.5 0 0 1-2.12 0L1.06 9.06a1.5 1.5 0 0 1 0-2.12l5.88-5.88a1.5 1.5 0 0 1 2.12 0Z"/>
  </g>
</svg>
