<svg xmlns="http://www.w3.org/2000/svg" width="16" height="16" viewBox="0 0 16 16">
	<path fill="none" stroke="#fe640b" stroke-linecap="round" stroke-linejoin="round" d="M8.7 3.27 4.68 5.79a.38.38 0 00-.18.33v3.96c0 .14.07.26.18.33l3.14 2c.11.06.25.06.36 0l3.14-2a.4.4 0 00.18-.33V7.5L8.7 9.4c-.33.19-.72.23-1.08.13s-.67-.36-.85-.7a1.52 1.52 0 01.54-2.02l4.27-2.54c.61-.35 1.35-.35 1.96.02.6.37.96 1.04.96 1.77v4.32c0 1.01-.51 1.95-1.35 2.45l-3.82 2.3c-.82.5-1.84.5-2.66 0l-3.82-2.3a2.85 2.85 0 01-1.35-2.45V5.82c0-1.01.51-1.95 1.35-2.45L7.3.7c.33-.2.71-.25 1.07-.15s.67.36.85.7c.39.7.16 1.61-.52 2.02" />
</svg>
