<svg xmlns="http://www.w3.org/2000/svg" width="16" height="16" viewBox="0 0 16 16">
	<path fill="none" stroke="#4c4f69" stroke-linecap="round" stroke-linejoin="round" d="M 9.6393175,10.514759 C 9.5768019,10.282628 9.4858979,10.126095 9.2885768,10.126075 H 6.6501191 c -0.1973998,0 -0.2729278,0.156764 -0.3358874,0.388684 L 5.477827,11.832292 h 5.044349 z M 9.6227514,10.126075 C 9.5479573,9.6387519 9.0045158,9.079211 8.6206038,8.7063795 7.6998777,7.8127585 7.7850863,7.0483072 7.9356214,6.8410482 l 0.9197793,0.6523082 c 0.2187181,0.1551173 0.4929988,0.1186598 0.6802486,-0.090419 v 0 C 9.7420412,7.1725053 9.7889619,6.7936221 9.6478406,6.4969865 L 8.9548108,5.0391275 9.2213243,4.2922904 C 8.541113,3.6434413 7.2115047,3.7008285 6.4541968,4.3398861 5.6077767,5.0599505 5.7279507,5.7083434 6.3474279,10.125487" />
	<path fill="none" stroke="#4c4f69" d="m 13.565174,10.460818 c 0.05398,-0.122357 0.104273,-0.246964 0.150353,-0.37251 l 1.512554,-0.8507761 c 0.117303,-0.066092 0.196279,-0.1839313 0.212826,-0.317551 0.08197,-0.6563108 0.07618,-1.320615 -0.01722,-1.9753959 -0.01787,-0.134242 -0.09875,-0.2518893 -0.217678,-0.3166595 L 13.674248,5.8029957 C 13.626391,5.6784321 13.574244,5.5556954 13.517799,5.4347831 l 0.469082,-1.676155 C 14.022811,3.6280577 13.994281,3.488175 13.910041,3.3821268 13.503843,2.8615205 13.030423,2.397057 12.502154,2.0008727 12.393956,1.920449 12.253979,1.8962262 12.125046,1.9356088 L 10.459009,2.4353859 C 10.336458,2.3813496 10.212225,2.3312073 10.0865,2.2850342 L 9.239675,0.77025725 C 9.1735831,0.65295461 9.0557447,0.57397761 8.922125,0.55743226 8.2658161,0.47546053 7.6015137,0.48125293 6.9467337,0.57465664 6.8124927,0.59252913 6.694845,0.67340319 6.6300748,0.79233574 L 5.8077675,2.3251598 C 5.6830284,2.373451 5.5602911,2.425601 5.4395554,2.4816096 L 3.7611611,2.0162 C 3.6305899,1.9802663 3.4907094,2.0088136 3.3846605,2.0930378 2.8640546,2.4992407 2.3995914,2.9726624 2.0034072,3.5009329 1.9243754,3.6079122 1.9000719,3.7457568 1.9377635,3.8733132 L 2.4375364,5.5393527 C 2.3835,5.661905 2.3333576,5.7861371 2.2871844,5.9118631 L 0.77108568,6.7619717 c -0.11730255,0.066091 -0.19627923,0.1839307 -0.21282526,0.3175511 -0.0812418,0.6552895 -0.0750058,1.3184714 0.0185442,1.972117 0.0178727,0.1342405 0.0987462,0.2518882 0.21767824,0.3166587 L 2.3262428,10.193229 c 0.048291,0.124739 0.1004409,0.247476 0.1564491,0.368212 l -0.464353,1.675776 c -0.035933,0.130571 -0.00739,0.270452 0.076837,0.376501 0.4062011,0.520606 0.8796209,0.985069 1.4078893,1.381255 0.1076664,0.08085 0.2473207,0.105772 0.3763142,0.06723 L 5.537534,13.563064 c 0.1223571,0.05398 0.246964,0.104273 0.3725093,0.150352 l 0.8527271,1.517159 c 0.047351,0.08392 0.1218574,0.149227 0.2112595,0.185175 0.034136,0.01363 0.069826,0.02296 0.1062903,0.02765 0.6552883,0.08124 1.3184683,0.07501 1.9721124,-0.01855 0.1342421,-0.01788 0.2518879,-0.09875 0.3166587,-0.217679 l 0.8249307,-1.53177 c 0.124563,-0.04786 0.2473,-0.100005 0.368212,-0.15645 l 1.676151,0.46908 c 0.130571,0.03593 0.270452,0.0074 0.3765,-0.07684 0.520696,-0.406103 0.985171,-0.879537 1.381254,-1.407894 0.08085,-0.107667 0.105773,-0.247323 0.06724,-0.376316 z" />
</svg>
