<svg xmlns="http://www.w3.org/2000/svg" width="16" height="16">
  <g fill="none" stroke="#d20f39" stroke-linecap="round" stroke-linejoin="round">
    <path d="M7.5 6 5.56 1.5h9.94l-2 4.5"/>
    <path d="m12.5 6-2-2.5-2 2.5m1 1.5h2m2 1.5c1 1-.5 2.75-3 4s-4.5 1.5-6 1.5c-2 0-3-1-3-2.9 0-.9.5-1.6 1.5-2.1"/>
    <path d="M7.5 9c0 1.5-2 2.5-3 2.5S3 11.25 3 9.5"/>
    <path d="M4.5 8.5a1 1 0 0 1-1 1 1 1 0 0 1-1-1 1 1 0 0 1 1-1 1 1 0 0 1 1 1zm5-1A1.5 1.5 0 0 1 8 9a1.5 1.5 0 0 1-1.5-1.5A1.5 1.5 0 0 1 8 6a1.5 1.5 0 0 1 1.5 1.5Zm5 0A1.5 1.5 0 0 1 13 9a1.5 1.5 0 0 1-1.5-1.5A1.5 1.5 0 0 1 13 6a1.5 1.5 0 0 1 1.5 1.5Z"/>
  </g>
</svg>
