<svg xmlns="http://www.w3.org/2000/svg" width="16" height="16" viewBox="0 0 16 16">
	<g fill="none" stroke-linecap="round">
		<path stroke="#df8e1d" d="M10.2 4s-1.3-.7-2.5-.7c-1.3 0-1.9.7-1.9 2 0 1.4 2.5 2 2.5 2s1.9.7 1.9 2c0 1.4-.6 2-1.9 2-1.2 0-2.5-.6-2.5-.6M8.3 2v11.3" />
		<path stroke="#fe640b" d="M4 2s-.7 0-1.3.7C2 3.3 2 6 2 6.7 2 7.3.8 7.3.8 8c0 .7 1.3.7 1.3 1.3 0 .7 0 3.4.6 4 .6.7 1.2.7 1.2.7m8.1 0s.7 0 1.3-.7c.6-.6.6-3.3.6-4 0-.6 1.3-.6 1.3-1.3 0-.7-1.3-.7-1.3-1.3 0-.7 0-3.4-.6-4-.6-.7-1.2-.7-1.2-.7" />
	</g>
</svg>
