<svg xmlns="http://www.w3.org/2000/svg" width="16" height="16" viewBox="0 0 16 16">
	<path fill="none" stroke="#1e66f5" stroke-linecap="round" stroke-linejoin="round" d="m 15.5,4.4906724 c -0.593505,0 -1.183476,-0.08458 -1.699767,-0.366122 -1.372107,-0.7591033 -3.061952,-0.7591033 -4.434059,0 C 8.4355723,4.6447544 7.2857496,4.6467007 6.35324,4.1296504 5.6891552,3.739153 4.9223071,3.5394432 4.143544,3.5541804 3.3542846,3.5340733 2.5759897,3.7347906 1.9036328,4.1318394 1.481248,4.3804797 0.99556626,4.5125601 0.5,4.5135554 m 15,3.9422318 c -0.593505,0 -1.183476,-0.08441 -1.699767,-0.365952 -1.372107,-0.7591033 -3.061952,-0.7591033 -4.434059,0 C 8.4355723,8.6100392 7.2857496,8.6119855 6.35324,8.0949352 5.6891552,7.7044379 4.9223071,7.504728 4.143544,7.5194652 3.3543024,7.4993071 2.5760087,7.6999651 1.9036328,8.0969542 1.481248,8.3455945 0.99556626,8.477675 0.5,8.4786702 m 15,3.9845418 c -0.593505,0 -1.183476,-0.08458 -1.699767,-0.365952 -1.372107,-0.759103 -3.061952,-0.759103 -4.434059,0 C 8.4355349,12.617402 7.2857122,12.619272 6.35324,12.10216 5.6891349,11.711727 4.9222881,11.512082 4.143544,11.526874 3.3543023,11.506716 2.5760086,11.707375 1.9036328,12.104364 1.4812496,12.35301 0.99556776,12.485095 0.5,12.486095" />
</svg>
