<svg xmlns="http://www.w3.org/2000/svg" width="16" height="16" viewBox="0 0 16 16">
	<path fill="none" stroke="#df8e1d" stroke-linecap="round" stroke-linejoin="round" d="m 8.5,9.5 h 7 v 2 h -7 z m 2,0 v 2 m -2,2 h 7 v 2 h -7 z m 2,0 v 2" />
	<g fill="none" stroke-linecap="round" stroke-linejoin="round" stroke-width="1.084" transform="translate(.307 .038)scale(.92302)">
		<path stroke="#4c4f69" d="M 9.417035,6.13369 A 1.300005,1.300005 0 0 1 8.11703,7.433695 1.300005,1.300005 0 0 1 6.817025,6.13369 1.300005,1.300005 0 0 1 8.11703,4.833685 1.300005,1.300005 0 0 1 9.417035,6.13369" />
		<path stroke="#1e66f5" d="m 6.38369,2.233675 c -3.1112182,0 -5.63335256,2.522139 -5.63335256,5.633355 0,3.111216 2.52213436,5.633355 5.63335256,5.633355 0.038976,0 0.2865514,0.0015 0.3253379,6.53e-4 M 11.950776,7.0002624 C 11.92447,6.8299203 11.890533,6.6620976 11.849324,6.4971546 11.237422,4.0479631 9.0224441,2.233675 6.383693,2.233675 m 6.06669,-1.73334 c -1.733339,0 -1.733339,2.60001 0,2.60001 1.733339,0 1.733339,-2.60001 0,-2.60001" />
	</g>
</svg>
