<svg xmlns="http://www.w3.org/2000/svg" width="16" height="16" viewBox="0 0 16 16">
	<g fill="none" stroke-linecap="round" stroke-linejoin="round">
		<path stroke="#7287fd" d="m 8.9952027,7.4272116 c -0.6160456,0.3544264 -1.3747156,0.3544264 -1.9907591,0 L 5.3460642,6.4728396 4.6825855,6.09267 4.0190993,5.7091901 1.6305617,4.3339623 C 1.4613735,4.6281843 1.3651658,4.9719916 1.3651658,5.3290238 v 5.3422002 c 0,0.704145 0.3715553,1.355413 0.9819585,1.70916 0.00332,0.0032 0.00999,0.0066 0.013279,0.0099 l 1.6587059,0.955415 V 9.3377313 c 0,-0.2548802 0.2770041,-0.4139312 0.4982804,-0.2859945 l 0.1652069,0.095582 0.6634785,0.3801482 1.6583806,0.954375 c 0.6160425,0.354425 1.3747125,0.354425 1.990757,0 L 10.156329,9.8137749 c 0.307835,-0.1772147 0.497612,-0.5044914 0.497612,-0.8588556 v -2.48204 L 8.9955849,7.4272512 Z" />
		<path stroke="#7287fd" d="m 10.653618,6.4728396 -1.6584153,0.954372 c -0.6160456,0.3544264 -1.3747156,0.3544264 -1.9907591,0 L 5.3460695,6.4728396 4.6825855,6.09267 4.0190993,5.7091901 1.6305617,4.3339623 C 1.7997511,4.0430492 2.0419253,3.7984186 2.3404923,3.6232112 c 0.00655,-0.00664 0.013258,-0.00996 0.019908,-0.013232 L 7.0044479,0.93886782 c 0.6170372,-0.35372514 1.3734081,-0.35372514 1.9904466,0 L 10.650264,1.8909479 7.1699638,3.8956031 c -0.2209391,0.1272796 -0.2209391,0.4452976 0,0.5725728 z" />
		<path stroke="#8839ef" d="M 14.3691,4.3339623 11.980562,5.7091901 9.8236032,4.4678482 c -0.2209423,-0.127272 -0.2213143,-0.4449602 0,-0.5722398 l 0.8270288,-0.4770307 1.330241,-0.7636486 1.658728,0.9553891 c 0.0032,0.00331 0.01,0.00664 0.01326,0.00996 0.301924,0.1752043 0.544074,0.4231408 0.716559,0.7140579 z" />
		<path stroke="#8839ef" d="m 14.3691,4.3339623 -2.388538,1.3752278 v 4.0106358 c 0,0.3537491 -0.189091,0.6803391 -0.495932,0.8578651 L 8.9945784,12.009468 C 8.3788477,12.363524 7.6201756,12.363524 7.0044436,12.009207 L 5.8436762,11.34114 c -0.2212687,-0.127316 -0.497612,0.03172 -0.497612,0.286242 v 2.482042 l 1.6586888,0.95208 c 0.3085208,0.178512 0.6502556,0.264487 0.9952253,0.264487 0.3450311,0 0.6867037,-0.08597 0.9952244,-0.264487 L 13.639601,12.39041 c 0.0067,-0.0033 0.01326,-0.0066 0.01991,-0.01327 0.607089,-0.353683 0.975323,-1.001669 0.975323,-1.70581 V 5.3290249 c 0,-0.3570313 -0.09654,-0.7008395 -0.265724,-0.9950616 z" />
	</g>
</svg>
