<svg xmlns="http://www.w3.org/2000/svg" width="16" height="16" viewBox="0 0 16 16">
	<path fill="none" stroke="#04a5e5" stroke-linecap="round" stroke-linejoin="round" d="M 8.1935784,0.50244956 C 4.8005018,0.41648532 0.5,3.0469603 0.5,8 c 0,1.0355339 0.20986695,2.022051 0.5893872,2.919338 0.09488,0.224322 0.2003637,0.443067 0.3158223,0.655607 0.086719,0.159635 0.179266,0.316048 0.2763497,0.467479 z M 3.6583438,14.11629 c 0.2983645,0.212177 0.7828735,0.52386 1.4223177,0.794323 C 5.9779491,15.290133 6.9644661,15.5 8,15.5 12.142136,15.5 15.5,12.142136 15.5,8 15.5,5.9289322 14.660535,4.0539317 13.303301,2.6966991 12.963993,2.3573908 12.592324,2.0504431 12.193321,1.7808823 11.812036,1.5232917 11.436216,1.3206293 11.086524,1.1625257 Z" />
</svg>
