<svg xmlns="http://www.w3.org/2000/svg" width="16" height="16" viewBox="0 0 16 16">
	<g fill="none" stroke-linecap="round" stroke-linejoin="round">
		<path stroke="#1e66f5" d="M8.5 5.5h-3m6 0V3c0-.8-.7-1.5-1.5-1.5H7c-.8 0-1.5.7-1.5 1.5v2.5H3c-.8 0-1.5.7-1.5 1.5v2c0 .8.7 1.5 1.48 1.5" />
		<path stroke="#df8e1d" d="M10.5 10.5h-3m-3 0V13c0 .8.7 1.5 1.5 1.5h3c.8 0 1.5-.7 1.5-1.5v-2.5H13c.8 0 1.5-.7 1.5-1.5V7c0-.8-.7-1.5-1.48-1.5H11.5c0 1.5 0 2-1 2h-2" />
		<path stroke="#1e66f5" d="M2.98 10.5H4.5c0-1.5 0-2 1-2h2M7.5 3.5v0" />
		<path stroke="#df8e1d" d="m 8.5,12.5 v 0" />
	</g>
</svg>
