<svg xmlns="http://www.w3.org/2000/svg" width="16" height="16">
  <g fill="none" stroke="#8839ef" stroke-linecap="round" stroke-linejoin="round">
    <path d="M3.5 5.5h9a1 1 0 0 1 1 1v7a1 1 0 0 1-1 1h-9a1 1 0 0 1-1-1v-7a1 1 0 0 1 1-1Z"/>
    <path d="M6.5 9a.5.5 0 0 1-.5.5.5.5 0 0 1-.5-.5.5.5 0 0 1 .5-.5.5.5 0 0 1 .5.5Zm4 0a.5.5 0 0 1-.5.5.5.5 0 0 1-.5-.5.5.5 0 0 1 .5-.5.5.5 0 0 1 .5.5ZM8 5.5v-2M.5 8.5v3m15-3v3M9 2.5a1 1 0 0 1-1 1 1 1 0 0 1-1-1 1 1 0 0 1 1-1 1 1 0 0 1 1 1zM6.5 12.5h3"/>
  </g>
</svg>
