<svg xmlns="http://www.w3.org/2000/svg" width="16" height="16" viewBox="0 0 16 16">
	<path fill="none" stroke="#d20f39" stroke-linecap="round" stroke-linejoin="round" d="m 2.1483688,11.379194 c -1.23624452,1.038445 -1.64832592,4.120816 -1.64832592,4.120816 0,0 3.08236942,-0.412082 4.12081492,-1.648327 0.5851557,-0.692297 0.5769141,-1.755467 -0.074175,-2.398314 -0.6633626,-0.633153 -1.697093,-0.665123 -2.3983143,-0.07418 M 7.2583185,11.21432 4.7858295,8.7418305 C 5.2244036,7.6040202 5.7766414,6.5133502 6.4341556,5.4863907 8.3867229,2.3644232 11.817739,0.4773642 15.499949,0.50020309 15.499949,2.741927 14.857101,6.6814274 10.554971,9.5659987 9.5138227,10.224035 8.4094364,10.776229 7.2583187,11.214325" />
	<path fill="none" stroke="#d20f39" stroke-linecap="round" stroke-linejoin="round" d="M 4.7858297,8.7418355 H 0.66501478 c 0,0 0.45328962,-2.4972147 1.64832602,-3.296653 1.335144,-0.8900963 4.1208148,0 4.1208148,0 m 0.8241631,5.7691425 v 4.120816 c 0,0 2.497214,-0.45329 3.2966523,-1.648326 0.890096,-1.335144 0,-4.1208163 0,-4.1208163" />
</svg>
