<svg xmlns="http://www.w3.org/2000/svg" width="16" height="16">
  <g fill="none" stroke="#fe640b" stroke-linecap="round" stroke-linejoin="round">
    <path d="M15.5 9.5c-5 2.67-10 2.67-15 0l1-1-1-2 2-.5V4.5h2l.5-2 1.5 1 1.5-2 1.5 2 1.5-1 .5 2h2V6l2 .5-1 2 1 1Z"/>
    <path d="M6.5 7.5a1 1 0 0 1-1 1 1 1 0 0 1-1-1 1 1 0 0 1 1-1 1 1 0 0 1 1 1zm5 0a1 1 0 0 1-1 1 1 1 0 0 1-1-1 1 1 0 0 1 1-1 1 1 0 0 1 1 1zM4 11.02c-.67.37-1.5.98-1.5 2.23s1.22 1.22 2 1.25v-2M12 11c.67.37 1.5 1 1.5 2.25s-1.22 1.22-2 1.25v-2"/>
  </g>
</svg>
