<svg xmlns="http://www.w3.org/2000/svg" width="16" height="16" viewBox="0 0 16 16">
	<path fill="none" stroke="#fe640b" stroke-linecap="round" stroke-linejoin="round" d="m 2.1647733,11.218991 4.1585783,0 M 2.5054845,4.7875861 h 7.1428691 c 2.1987534,-9.264e-4 2.1987534,3.2147755 0,3.2157019 H 4.7032904 m 0,-3.2157019 V 11.218991 M 7.9999992,8.003288 h 1.0989029 c 1.2138149,-10e-8 2.1978059,0.9598129 2.1978059,2.143802 0,0.591995 0.491996,1.071901 1.098903,1.071901 h 1.216958 M 7.9999992,0.4999831 9.4769248,1.6897927 11.337368,1.2428102 l 0.802198,1.6978908 1.874729,0.3848124 -0.03297,1.8683229 1.518684,1.1394302 -0.862638,1.6700215 0.861539,1.6700216 -1.518684,1.1394314 0.03296,1.868324 -1.875828,0.384811 -0.801099,1.697891 L 9.4758259,14.315713 7.9999992,15.506594 6.5230737,14.316784 4.662631,14.763767 3.8604319,13.065876 1.9857038,12.681065 2.0186708,10.812741 0.49998679,9.6733096 1.3626258,8.003288 0.49998679,6.3332665 2.0186708,5.1949084 1.9857038,3.3265853 3.8604319,2.9417729 4.662631,1.2438821 6.5230737,1.6908648 Z" />
</svg>
