<svg xmlns="http://www.w3.org/2000/svg" width="16" height="16" viewBox="0 0 16 16">
	<g fill="none">
		<path stroke="#40a02b" d="M5.5 6C3.01472 6 1 8.01472 1 10.5C1 12.9853 3.01472 15 5.5 15C7.98528 15 10 12.9853 10 10.5" />
		<path stroke="#ea76cb" d="M10 11C12.7614 11 15 8.76142 15 6C15 3.23858 12.7614 1 10 1C7.23858 1 5 3.23858 5 6" />
		<path stroke="#4c4f69" d="M8.80328 10.0962L8.44973 9.74263L8.09618 10.0962L6.18195 12.0104C5.98669 12.2057 5.67011 12.2057 5.47484 12.0104L4.06063 10.5962C3.86537 10.4009 3.86537 10.0843 4.06063 9.88909L5.97486 7.97486L6.32841 7.62131L5.97486 7.26775L5.06065 6.35355C4.74567 6.03857 4.96875 5.5 5.41421 5.5H10C10.2761 5.5 10.5 5.72386 10.5 6V10.5858C10.5 11.0312 9.96143 11.2543 9.64644 10.9393L8.80328 10.0962Z" />
	</g>
</svg>
