<svg xmlns="http://www.w3.org/2000/svg" width="16" height="16" viewBox="0 0 16 16">
	<path fill="none" stroke="#ea76cb" stroke-linecap="round" stroke-linejoin="round" d="m 5.6697378,2.5 c 0,0 -0.2977728,-0.014139 -0.741017,0 C 4.4265598,2.49243 3.8675713,2.8804051 3.8639825,3.5020021 3.8601725,4.1622809 4.662474,4.3397645 4.9195908,4.4686128 5.1767076,4.5974615 5.9744604,4.7169677 6.0123373,5.4779249 6.0358243,5.9497818 5.6697026,6.4980579 4.7481797,6.5087114 4.0389009,6.5169014 3.6708542,6.5090341 3.6708542,6.5090341 M 8.5,2.5 v 4.0088845" />
	<path fill="none" stroke="#4c4f69" stroke-linecap="round" stroke-linejoin="round" d="m 7.532543,9.4821151 v 3.3757139 h 1.5480366 m 1.3779224,-2.798801 v 2.117804 c 0,0 0.09356,0.680997 0.918615,0.680997 0.825052,0 0.816547,-0.680899 0.816547,-0.680899 v -2.117902 m 1.661654,-0.0047 h 0.664506 c 0,0 0.980176,-0.1022989 0.980176,0.777789 v 1.948224" />
	<path fill="none" stroke="#4c4f69" stroke-linecap="round" stroke-linejoin="round" d="m 15.495018,11.392148 h -1.258049 c 0,0 -0.59543,0.100247 -0.59543,0.73317 0,0.701139 0.631517,0.732511 0.631517,0.732511 h 1.221483" />
	<path fill="none" stroke="#8c8fa1" stroke-linecap="round" stroke-linejoin="round" d="M 5.4318364,8.5245357 V 13.334878 M 0.49999974,2.6874577 V 6.549329 m 0,2.4554701 V 12.86667" />
	<path fill="none" stroke="#ea76cb" stroke-linecap="round" stroke-linejoin="round" d="M7 3.5h3M11.5 3.5l1.5 3 1.5-3M13 6.5 12.21 8" />
</svg>
