<svg xmlns="http://www.w3.org/2000/svg" width="16" height="16">
  <path fill="none" stroke="#209fb5" stroke-linecap="round" stroke-linejoin="round" d="M8 2.5c-2 0-3.25 1.11-3.75 3.33.75-1.1 1.63-1.52 2.62-1.25.58.16.98.62 1.43 1.13.74.83 1.6 1.79 3.45 1.79 2 0 3.25-1.11 3.75-3.33-.75 1.1-1.63 1.52-2.63 1.25-.57-.16-.97-.62-1.42-1.13C10.7 3.46 9.85 2.5 8 2.5Zm-3.75 6C2.25 8.5 1 9.61.5 11.83c.75-1.1 1.63-1.52 2.63-1.25.57.16.97.62 1.42 1.13.74.83 1.6 1.79 3.45 1.79 2 0 3.25-1.11 3.75-3.33-.75 1.1-1.63 1.52-2.62 1.25-.58-.16-.98-.62-1.43-1.13-.74-.83-1.6-1.79-3.45-1.79Z"/>
</svg>
