<svg xmlns="http://www.w3.org/2000/svg" width="16" height="16">
  <g fill="none" stroke="#1e66f5" stroke-linecap="round" stroke-linejoin="round">
    <path d="M8 11.3c4.14 0 7.5-1.28 7.5-2.86 0-1.58-3.36-2.86-7.5-2.86C3.86 5.58.5 6.86.5 8.44c0 1.58 3.36 2.87 7.5 2.87Z"/>
    <path d="M5.52 9.87c2.07 3.6 4.86 5.86 6.23 5.07 1.37-.8.8-4.34-1.27-7.93-2.07-3.59-4.86-5.85-6.23-5.06s-.8 4.34 1.27 7.92Z"/>
    <path d="M5.52 7.01c-2.07 3.59-2.64 7.14-1.27 7.93s4.16-1.48 6.23-5.07c2.07-3.58 2.64-7.13 1.27-7.92-1.37-.8-4.16 1.47-6.23 5.06Z"/>
    <path d="M8.5 8.44a.5.5 0 0 1-.5.5.5.5 0 0 1-.5-.5.5.5 0 0 1 .5-.5.5.5 0 0 1 .5.5z"/>
  </g>
</svg>
