<svg xmlns="http://www.w3.org/2000/svg" width="16" height="16" viewBox="0 0 16 16">
	<g fill="none" stroke-linecap="round" stroke-linejoin="round">
		<path stroke="#1e66f5" d="M12.5 4.5h1a2 2 0 012 2v7a2 2 0 01-2 2h-7a2 2 0 01-2-2V10" />
		<path stroke="#1e66f5" d="M13.5 9c-.33-.33-.83-.5-1.5-.5-1 0-1.5.5-1.5 1s.5 1 1.5 1 1.5.5 1.5 1-.5 1-1.5 1c-.67 0-1.17-.17-1.5-.5M8 8.5v4m-1.5-4h3" />
		<path stroke="#209fb5" d="M2.04 7.88.5 3.02c-.05-.15.06-.31.23-.37L7.54.52c.1-.04.21-.02.3.04l2.63 1.84c.1.07.13.19.1.3L9.44 5.72a.34.34 0 01-.22.2l-6.8 2.13a.31.31 0 01-.4-.17Zm5.13-3.23a1.21 1.21 0 10.62-2.35 1.21 1.21 0 00-.62 2.35" />
	</g>
</svg>
