<svg xmlns="http://www.w3.org/2000/svg" width="16" height="16" viewBox="0 0 16 16">
	<path fill="none" stroke="#1e66f5" stroke-linecap="round" stroke-linejoin="round" d="M13.499999 8.0000002V11.714286C13.499999 13.257571 12.25757 14.5 10.714284 14.5H8.5m-4.5 0-.7142871 0C1.7424271 14.5.49999851 13.257571.49999851 11.714286V4.2857144C.49999851 2.7424286 1.7424271 1.5 3.2857129 1.5H6M3.5 12 8 4M6 4 7.4765625 6.625M10.21875 11.5 10.5 12M3 9.5H5.9766298" />
	<g fill="none" stroke-linecap="round" stroke-linejoin="round" stroke-width="1.884" transform="matrix(.50714 -.15926 .15877 .5054 2.596 1.629)">
		<path stroke="#4c4f69" d="M 13.999825,11.999776 0.34111276,25.70289 C -1.1015726,27.150265 -2.9263257,24.975466 -1.65514,23.700148 L 12.000891,9.9997239" />
		<path stroke="#8c8fa1" d="M 21.5,11.5 19.586,9.586 C 19.210901,9.2110145 19.000113,8.7023896 19,8.172 L 19,7 16.74,4.74 C 15.624538,3.6251846 14.11501,2.9943587 12.538,2.984 L 9,2.96 9.92,3.78 C 11.241761,4.9519482 11.998825,6.6335023 12,8.4 l 8.91e-4,1.5997239 1.998934,2.0000521 L 15.172,12 c 0.53039,1.13e-4 1.039015,0.210901 1.414,0.586 L 18.5,14.5 m -0.407979,0.568593 3.853726,-4.031082" />
	</g>
</svg>
