<svg xmlns="http://www.w3.org/2000/svg" width="16" height="16" viewBox="0 0 16 16">
	<g fill="none" stroke="#ed8796" stroke-linecap="round" stroke-linejoin="round">
		<path d="M 14.5,4.3888889 V 11.611111 C 14.5,13.2066 13.2066,14.5 11.611111,14.5 H 4.3888889 C 2.7933996,14.5 1.4999999,13.2066 1.5,11.611111 V 4.3888889 C 1.5,2.7933996 2.7933996,1.5 4.3888889,1.5 H 11.611111 C 13.2066,1.4999999 14.5,2.7933996 14.5,4.3888889 M 5.5008277,5 v 6" />
		<path d="m 10.500001,8 v 2.571429 C 10.500001,10.808123 10.298529,11 10.05,11 H 9 C 8.1715725,11 7.4999995,10.360407 7.4999998,9.5714281 v 0 C 7.5,8.7824502 8.1715729,8 9,8 Z m 0,0 V 6" />
	</g>
</svg>
