<svg xmlns="http://www.w3.org/2000/svg" width="16" height="16" viewBox="0 0 16 16">
	<path fill="none" stroke="#7dc4e4" stroke-linecap="round" stroke-linejoin="round" d="M 8.7178958,6.6549648 C 9.3131795,5.2340861 10.775321,4.3661232 12.319543,4.5169384 c 1.544223,0.1508152 2.807489,1.2849528 3.111766,2.7936863 0.304276,1.5087336 -0.421971,3.0373683 -1.788943,3.7654403 -1.366971,0.728071 -3.0533,0.484414 -4.1538824,-0.600195 C 8.0396649,8.9475395 7.8508464,6.880387 6.5136453,5.5392817 5.5066091,4.5398106 3.9914628,4.2404263 2.6749667,4.7807807 1.3584706,5.3211351 0.5,6.594768 0.5,8.0075761 0.5,9.4203842 1.3584706,10.694017 2.6749667,11.234371 3.9914628,11.774726 5.5066091,11.475342 6.5136453,10.47587 7.4607496,9.3541927 8.0340593,7.9491182 8.7178958,6.6549648 Z M 5,8 H 3 m 9.898583,0.0075 H 11.018292 M 12,9 V 7" />
</svg>
