<svg xmlns="http://www.w3.org/2000/svg" width="16" height="16" viewBox="0 0 16 16">
	<path fill="none" stroke="#8aadf4" d="m 6.665625,1.0107144 c 0.54375,0.090628 0.9125,0.6062693 0.821875,1.1500367 L 7.18125,3.9983098 h 2.971875 L 10.5125,1.8326156 c 0.09063,-0.5437673 0.60625,-0.9125291 1.15,-0.8219012 0.54375,0.090628 0.9125,0.6062693 0.821875,1.1500367 L 12.18125,3.9983098 H 14 c 0.553125,0 1,0.4468892 1,1.0000319 0,0.5531426 -0.446875,1.0000319 -1,1.0000319 H 11.846875 L 11.18125,9.9985013 H 13 c 0.553125,0 1,0.4468897 1,1.0000317 0,0.553143 -0.446875,1.000032 -1,1.000032 H 10.846875 L 10.4875,14.164259 c -0.09063,0.543768 -0.60625,0.912529 -1.15,0.821902 -0.54375,-0.09063 -0.9125,-0.60627 -0.821875,-1.150037 l 0.30625,-1.834434 h -2.975 L 5.4875,14.167384 c -0.090625,0.543768 -0.60625,0.91253 -1.15,0.821902 C 3.79375,14.898658 3.425,14.383016 3.515625,13.839249 L 3.81875,11.998565 H 2 c -0.553125,0 -1,-0.446889 -1,-1.000032 C 1,10.445391 1.446875,9.9985013 2,9.9985013 H 4.153125 L 4.81875,5.9983736 H 3 c -0.553125,0 -1,-0.4468893 -1,-1.0000319 C 2,4.445199 2.446875,3.9983098 3,3.9983098 H 5.153125 L 5.5125,1.8326156 C 5.603125,1.2888483 6.11875,0.9200865 6.6625,1.0107144 Z M 6.846875,5.9983736 6.18125,9.9985013 H 9.153125 L 9.81875,5.9983736 Z" />
</svg>
