<svg xmlns="http://www.w3.org/2000/svg" width="16" height="16" viewBox="0 0 16 16">
	<g fill="none" stroke="#c6a0f6" stroke-linecap="round" stroke-linejoin="round">
		<path d="m4 1.5h8c1.38 0 2.5 1.12 2.5 2.5v8c0 1.38-1.12 2.5-2.5 2.5h-8c-1.38 0-2.5-1.12-2.5-2.5v-8c0-1.38 1.12-2.5 2.5-2.5z" />
		<path stroke-width=".667" d="M10.7 11.8c0 .46.37.824.812.821l.382-.0025c.442-.0029.803-.358.803-.819s-.361-.845-.803-.845l-.382.000027c-.442.000031-.803-.385-.803-.845 0-.46.361-.823.803-.823l.382.000224c.442.000259.805.363.805.823M7.79 11.8c0 .46.37.824.812.821l.393-.0025c.442-.0028.792-.358.792-.818s-.346-.845-.788-.845l-.397.000027c-.442.00003-.803-.385-.803-.845 0-.46.361-.823.803-.823h.382c.442 0 .815.363.815.823M4.92 11.8c0 .46.37.834.812.834h.382c.442 0 .803-.362.803-.823m.00955-1.69c0-.46-.37-.823-.812-.823l-.382.000224c-.442.000259-.812.371-.812.832v1.68" transform="matrix(1.05 0 0 1.12 -.602 -1.62)" />
	</g>
</svg>
