<svg xmlns="http://www.w3.org/2000/svg" width="16" height="16" viewBox="0 0 16 16">
	<g fill="none" stroke-linecap="round" stroke-linejoin="round">
		<path stroke="#7dc4e4" d="M4.5 13.5 3.05 8.42m-.06-3.86a2 2 0 10.06 3.86L4.5 13.5" />
		<path stroke="#ed8796" d="m2.5 6.5 3.88-2.82A2 2 0 1110 2.3" />
		<path stroke="#8aadf4" d="M14.3 8.33a2 2 0 10-2.43-3L8.01 2.5" />
		<path stroke="#a6da95" d="M10.06 14.89a2 2 0 102-3.3L13.5 6.5" />
		<path stroke="#c6a0f6" d="M11.5 13.5h-5a2 2 0 11-3.73-1" />
		<path stroke="#c6a0f6" d="M12 13.5a.5.5 0 01-.5.5.5.5 0 01-.5-.5.5.5 0 01.5-.5.5.5 0 01.5.5" />
		<path stroke="#7dc4e4" d="M5 13.5a.5.5 0 01-.5.5.5.5 0 01-.5-.5.5.5 0 01.5-.5.5.5 0 01.5.5" />
		<path stroke="#ed8796" d="M3 6.5a.5.5 0 01-.5.5.5.5 0 01-.5-.5.5.5 0 01.5-.5.5.5 0 01.5.5" />
		<path stroke="#8aadf4" d="M8.5 2.5A.5.5 0 018 3a.5.5 0 01-.5-.5A.5.5 0 018 2a.5.5 0 01.5.5" />
		<path stroke="#a6da95" d="M14 6.5a.5.5 0 01-.5.5.5.5 0 01-.5-.5.5.5 0 01.5-.5.5.5 0 01.5.5" />
	</g>
</svg>
