<svg xmlns="http://www.w3.org/2000/svg" width="16" height="16" viewBox="0 0 16 16">
	<path fill="none" stroke="#cad3f5" stroke-linecap="round" stroke-linejoin="round" d="m1.87 8 .7-2.74a1 1 0 01.96-.76h10.94a1 1 0 01.97 1.24l-.219.875M6 13.5H2A1.5 1.5 0 01.5 12V3.5a1 1 0 011-1h5a1 1 0 011 1v1" />
	<path fill="none" stroke="#f0c6c6" d="M 8.063601,9.4263122 A 1.0487529,1.0041303 0 0 1 9.1123537,8.4221816 H 14.45146 a 1.0487529,1.0041303 0 0 1 1.048753,1.0041306 v 3.6513828 a 1.0487529,1.0041303 0 0 1 -1.048753,1.00413 h -4.209884 c -0.144919,0 -0.2818292,0.06317 -0.372213,0.171615 L 8.9807831,15.317087 C 8.6764545,15.680765 8.063601,15.475191 8.063601,15.009277 Z" clip-rule="evenodd" />
</svg>
