<svg xmlns="http://www.w3.org/2000/svg" width="16" height="16" viewBox="0 0 16 16">
	<g fill="none" stroke-linecap="round" stroke-linejoin="round">
		<path stroke="#cad3f5" d="m1.873 8 0.7015-2.74a1.002 1 0 0 1 0.962-0.76h10.96a1.002 1 0 0 1 0.972 1.24l-0.2195 0.875m-9.24 6.885h-4.008a1.503 1.5 0 0 1-1.503-1.5v-8.5a1.002 1 0 0 1 1.002-1h5.01a1.002 1 0 0 1 1.002 1v1" />
		<path stroke="#cad3f5" stroke-width=".613" d="m13.41 13.42c-0.1224-0.1841-0.2019-0.3252-0.153-0.5216 0.03059-0.1227 0.104-0.2332 0.1897-0.3191 0.7832-0.7732 1.481-1.442 2.117-2.252 0.05507-0.07363 0.07956-0.1657 0.104-0.2516 0.01836-0.07363 0.01836-0.1534 0.01836-0.2332 0-0.07363-0.0061-0.1473-0.03059-0.2148a4.222 4.234 0 0 0-0.8567-1.338c-0.08567-0.06136-0.1713-0.1227-0.2692-0.1657a0.6731 0.675 0 0 0-0.2203-0.05523c-0.09791 0-0.2019 0.00613-0.2937 0.03068-0.104 0.03068-0.1775 0.07977-0.2815 0.1411m0.1897 7.455-0.8199-1.387a0.4283 0.4295 0 0 1-0.04895-0.3436 0.4467 0.4479 0 0 1 0.2142-0.27l0.4712-0.2639a0.4712 0.4725 0 0 1 0.6241 0.1657l0.8199 1.387" />
		<path stroke="#8bd5ca" stroke-width=".613" d="m8.076 9.968 3.929-2.209c0.5578-0.3191 1.263-0.1227 1.588 0.4234a1.122 1.123 0 0 1-0.4168 1.54l-3.929 2.221c-0.5517 0.3129-1.263 0.1227-1.588-0.4295a1.122 1.123 0 0 1 0.4168-1.546" />
	</g>
</svg>
