<svg xmlns="http://www.w3.org/2000/svg" width="16" height="16" viewBox="0 0 16 16">
	<g fill="none" stroke-linecap="round" stroke-linejoin="round">
		<path stroke="#cad3f5" d="m1.87 8 .7-2.74a1 1 0 01.96-.76h10.94a1 1 0 01.97 1.24l-.219.875M6 13.5H2A1.5 1.5 0 01.5 12V3.5a1 1 0 011-1h5a1 1 0 011 1v1" />
		<path stroke="#c6a0f6" d="m12.635 15.154-.515-.892m.513-.895-.515.892m1.998-1.998.276.554a1 1 0 01-.894 1.447H12.12m-1.502-5.004.104-.207a1 1 0 011.788 0l.608 1.215m-1.119-.071 1.122.067m.615-.932-.619.938m-2.996 3.994h-.387a1 1 0 01-.894-1.447l.776-1.553m.616.934-.616-.934m-1.117.067 1.117-.067" />
	</g>
</svg>
