<svg xmlns="http://www.w3.org/2000/svg" width="16" height="16" viewBox="0 0 16 16">
	<g fill="none" stroke-linecap="round" stroke-linejoin="round">
		<path stroke="#cad3f5" d="M4.5 4.5H12c.83 0 1.5.67 1.5 1.5v.5m-7.5 7H2A1.5 1.5 0 01.5 12V3.5a1 1 0 011-1h5a1 1 0 011 1v1" />
		<path stroke="#8087a2" d="m 10.5,9.5 h 3 c 0.552285,0 1,0.4477153 1,1 v 3 c 0,0.552285 -0.447715,1 -1,1 h -3 c -0.5522847,0 -1,-0.447715 -1,-1 v -3 c 0,-0.5522847 0.4477153,-1 1,-1 z m 0,0 v -1 m 3,1 v -1 m -3,7 v -1 m 3,1 v -1 m -5,-4 h 1 m -1,3 h 1 m 5,-3 h 1 m -1,3 h 1" />
	</g>
</svg>
