<svg xmlns="http://www.w3.org/2000/svg" width="16" height="16" viewBox="0 0 16 16">
	<path fill="none" stroke="#cad3f5" stroke-linecap="round" stroke-linejoin="round" d="m1.87 8 .7-2.74a1 1 0 01.96-.76h10.94a1 1 0 01.97 1.24l-.219.875M6 13.5H2A1.5 1.5 0 01.5 12V3.5a1 1 0 011-1h5a1 1 0 011 1v1" />
	<path fill="none" stroke="#a6da95" stroke-linecap="round" stroke-linejoin="round" d="m 8.000001,10.278475 c 0,-0.5767528 0.4675426,-1.044295 1.0442953,-1.044295 H 10.088608 V 9.0442967 c 0,-0.5767532 0.467559,-1.0442957 1.044313,-1.0442957 0.576752,0 1.044295,0.4675425 1.044295,1.0442957 V 9.23418 h 1.044312 c 0.576753,0 1.044296,0.4675422 1.044296,1.044295 v 1.044312 h 0.189874 c 0.576753,0 1.044303,0.467543 1.044303,1.044296 0,0.576752 -0.46755,1.044311 -1.044304,1.044311 h -0.189873 v 1.044303 c 0,0.576753 -0.467543,1.044304 -1.044296,1.044304 h -1.044312 v -0.189873 c 0,-0.576753 -0.467543,-1.044304 -1.044297,-1.044304 -0.576752,0 -1.044311,0.467551 -1.044311,1.044304 v 0.189873 H 8.000001 v -2.088607 h 0.1898677 c 0.5767535,0 1.0443116,-0.467559 1.0443116,-1.044311 0,-0.576753 -0.4675581,-1.044296 -1.0443116,-1.044296 H 8.000001 Z" />
</svg>
