<svg xmlns="http://www.w3.org/2000/svg" width="16" height="16" viewBox="0 0 16 16">
	<g fill="none" stroke-linecap="round" stroke-linejoin="round">
		<path stroke="#cad3f5" d="M 1.8748797,8.0004811 2.5606339,5.2574644 C 2.6719257,4.8122974 3.0719088,4.5 3.5307764,4.5 H 14.469224 c 0.552284,0 1,0.4477152 1,1 0,0.081762 -0.01003,0.163215 -0.02986,0.2425356 L 15.124325,7.0026989 M 6,13.5 H 2.0043488 C 1.1715729,13.5 0.5,12.828427 0.5,12 V 3.5 c 0,-0.5522847 0.44771525,-1 1,-1 h 5 c 0.5522847,0 1,0.4477153 1,1 v 1" />
		<g stroke="#8aadf4" transform="matrix(.99904 0 0 1 .008 0)">
			<path d="m 8.5,11.5 h 5 L 13.75,11 c -0.151299,-0.554645 -0.464664,-0.945198 -0.25,-1.5 0.469981,0.2967216 0.650865,0.937471 1,1 0.357028,-0.04442 1,-1 1,0 0,0 0,1.5 -1,1.5 C 14,14 12.75,14.500026 11,14.500026 8.25,14.500026 8.5,11.5 8.5,11.5 Z" />
			<path d="m 9.5,11.5 v -2 h 2 v 1 1" />
		</g>
	</g>
</svg>
