<svg xmlns="http://www.w3.org/2000/svg" width="16" height="16" viewBox="0 0 16 16">
	<g fill="none" stroke-linecap="round" stroke-linejoin="round">
		<path stroke="#cad3f5" d="M 4.5,4.5 H 12 c 0.828427,0 1.5,0.6715729 1.5,1.5 V 6.5 M 6,13.5 H 2 C 1.1715729,13.5 0.5,12.828427 0.5,12 V 3.5 c 0,-0.5522847 0.44771525,-1 1,-1 h 5 c 0.5522847,0 1,0.4477153 1,1 v 1" />
		<path stroke="#c6a0f6" d="m 8.5073785,15.491715 3.0493975,0.01657" />
		<path stroke="#ed8796" d="m 9,8.5 h 2 m -2,4 h 2 m -1,-4 v 4" />
		<path stroke="#8aadf4" d="m 14.500033,8.5 v 3 c 0,0 0,1 -1,1 -1,0 -1,-1 -1,-1" />
	</g>
</svg>
