<svg xmlns="http://www.w3.org/2000/svg" width="16" height="16" viewBox="0 0 16 16">
	<g fill="none" stroke-linecap="round" stroke-linejoin="round">
		<path stroke="#c6a0f6" stroke-width=".65" d="m9.868 12.94-2.818-2.737 1.974 0.0027 2.339 2.255c0.27 0.2689 0.27 0.6996 0 0.9593l-2.3 2.257h-2.013zm5.808 2.737v-1.326l-3.738-1.99e-4 0.01332 1.323z" />
		<path stroke="#cad3f5" d="m1.873 8 0.7015-2.74a1.002 1 0 0 1 0.962-0.76h10.96a1.002 1 0 0 1 0.972 1.24l-0.2195 0.875m-9.24 6.885h-4.008a1.503 1.5 0 0 1-1.503-1.5v-8.5a1.002 1 0 0 1 1.002-1h5.01a1.002 1 0 0 1 1.002 1v1" />
	</g>
</svg>
