<svg width="16" height="16" viewBox="0 0 16 16" fill="none" xmlns="http://www.w3.org/2000/svg">
	<path d="M4.5 4.5H12C12.8284 4.5 13.5 5.17157 13.5 6V6.5M6 13.5H2C1.17157 13.5 0.5 12.8284 0.5 12V3.5C0.5 2.94772 0.947715 2.5 1.5 2.5H6.5C7.05228 2.5 7.5 2.94772 7.5 3.5V4.5" stroke="#cad3f5" stroke-linecap="round" stroke-linejoin="round" />
	<path d="M11.4967 11.743L8.36224 13.6851M11.4967 11.743L14.1123 14.0985M11.4967 11.743L7.64587 11.6272M11.4967 11.743L9.3745 14.7259M11.4967 11.743L11.1032 15.2893M11.4967 11.743L13.0879 14.6491M11.4967 11.743L14.8165 12.4595M11.4967 11.743L14.7909 11.1663M11.4967 11.743L13.7281 9.02779M11.4967 11.743L11.9099 8.24674M11.4967 11.743L9.5666 8.05469M11.4967 11.743L8.24771 9.52723" stroke="#f5a97f" stroke-linecap="round" />
</svg>
