<svg xmlns="http://www.w3.org/2000/svg" width="16" height="16" viewBox="0 0 16 16">
	<g fill="none" stroke-linecap="round" stroke-linejoin="round">
		<path stroke="#cad3f5" d="M 4.5,4.5 H 12 c 0.828427,0 1.5,0.6715729 1.5,1.5 V 6.5 M 6,13.5 H 2 C 1.1715729,13.5 0.5,12.828427 0.5,12 V 3.5 c 0,-0.5522847 0.44771525,-1 1,-1 h 5 c 0.5522847,0 1,0.4477153 1,1 v 1" />
		<path stroke="#a6da95" d="M 19.5,18 18.235246,16.734042 C 18.405327,16.357649 18.5,15.939881 18.5,15.5 c 0,-1.656854 -1.343146,-3 -3,-3 -0.439695,0 -0.857296,0.09459 -1.233565,0.264538 L 16,14.5 14.5,16 12.76418,14.267228 C 12.59446,14.64329 12.5,15.060614 12.5,15.5 c 0,1.656854 1.343146,3 3,3 0.439844,0 0.857579,-0.09466 1.233947,-0.264711 L 18,19.5" transform="translate(-4 -4)" />
	</g>
</svg>
