<svg xmlns="http://www.w3.org/2000/svg" width="16" height="16" viewBox="0 0 16 16">
	<g fill="none" stroke-linecap="round" stroke-linejoin="round">
		<path stroke="#cad3f5" d="M 4.5,4.5 H 12 c 0.828427,0 1.5,0.6715729 1.5,1.5 V 6.5 M 6,13.5 H 2 C 1.1715729,13.5 0.5,12.828427 0.5,12 V 3.5 c 0,-0.5522847 0.44771525,-1 1,-1 h 5 c 0.5522847,0 1,0.4477153 1,1 v 1" />
		<path stroke="#8aadf4" d="M9,8.5 L15,8.5 C15.2761424,8.5 15.5,8.72385763 15.5,9 L15.5,15 C15.5,15.2761424 15.2761424,15.5 15,15.5 L9,15.5 C8.72385763,15.5 8.5,15.2761424 8.5,15 L8.5,9 C8.5,8.72385763 8.72385763,8.5 9,8.5 Z M8.5,10.5 L15.5,10.5 M10.5,11 L10.5,15" />
	</g>
</svg>
