<svg xmlns="http://www.w3.org/2000/svg" width="16" height="16" viewBox="0 0 16 16">
	<g fill="none" stroke-linecap="round" stroke-linejoin="round">
		<path stroke="#cad3f5" d="m1.87 8 .7-2.74a1 1 0 01.96-.76h10.94a1 1 0 01.97 1.24l-.219.875M6 13.5H2A1.5 1.5 0 01.5 12V3.5a1 1 0 011-1h5a1 1 0 011 1v1" />
		<path stroke="#8087a2" d="M14.25 13.5a.75.75 0 01.75.75v.5a.75.75 0 01-.75.75h-.5a.75.75 0 01-.75-.75v-5.5a.75.75 0 01.75-.75h.5a.75.75 0 01.75.75v.5a.75.75 0 01-.75.75h-5.5A.75.75 0 018 9.75v-.5a.75.75 0 01.75-.75h.5a.75.75 0 01.75.75v5.5a.75.75 0 01-.75.75h-.5a.75.75 0 01-.75-.75v-.5a.75.75 0 01.75-.75h5z" />
	</g>
</svg>
