<svg xmlns="http://www.w3.org/2000/svg" width="16" height="16" viewBox="0 0 16 16">
	<path fill="none" stroke="#cad3f5" stroke-linecap="round" stroke-linejoin="round" d="m1.9 8 0.69-2.7c0.11-0.44 0.51-0.76 0.97-0.76h11c0.55 0 1 0.45 1 1 0 0.082-0.01 0.16-0.03 0.24l-0.32 1.3m-9.1 6.5h-4c-0.83 0-1.5-0.67-1.5-1.5v-8.5c0-0.55 0.45-1 1-1h5c0.55 0 1 0.45 1 1v1" />
	<path fill="none" stroke="#f5a97f" stroke-linejoin="round" d="m1.5 7v4l6.5 3.5 6.5-3.5v-8l-3.5-1.5-6.5 3v1zm6.5-4 3.5 1.5v8m-10-5.5 6.5 3.5 6.5-3.5m-10-2.5 3.5 2 6.5-3.5m-10 2.5v7m3.5-6v7.5" transform="matrix(.57 0 0 .57 7.4 7.4)" />
</svg>
