<svg xmlns="http://www.w3.org/2000/svg" width="16" height="16" viewBox="0 0 16 16">
	<g fill="none" stroke-linecap="round" stroke-linejoin="round">
		<path stroke="#cad3f5" d="M 4.5,4.5 H 12 c 0.828427,0 1.5,0.6715729 1.5,1.5 V 6.5 M 6,13.5 H 2 C 1.1715729,13.5 0.5,12.828427 0.5,12 V 3.5 c 0,-0.5522847 0.44771525,-1 1,-1 h 5 c 0.5522847,0 1,0.4477153 1,1 v 1" />
		<path stroke="#8087a2" d="M15.162514,13.5014105 C15.3789044,13.0464244 15.5,12.5373539 15.5,12 C15.5,10.0670034 13.9329966,8.5 12,8.5 C10.0670034,8.5 8.5,10.0670034 8.5,12 C8.5,13.9329966 10.0670034,15.5 12,15.5 C12.7107146,15.5 13.3719524,15.2881648 13.9240183,14.9241895 M13.92,14.92 L10.5,10.5 L10.5,13.5 M13.5,10.5 L13.5,11.5" />
	</g>
</svg>
