<svg xmlns="http://www.w3.org/2000/svg" width="16" height="16" viewBox="0 0 16 16">
	<g fill="none" stroke-linecap="round" stroke-linejoin="round">
		<path stroke="#cad3f5" d="M 4.5,4.5 H 12 c 0.828427,0 1.5,0.6715729 1.5,1.5 V 6.5 M 6,13.5 H 2 C 1.1715729,13.5 0.5,12.828427 0.5,12 V 3.5 c 0,-0.5522847 0.44771525,-1 1,-1 h 5 c 0.5522847,0 1,0.4477153 1,1 v 1" />
		<path stroke="#a6da95" d="M12.8654544,14.5 L15.5000005,14.5 L13.3826641,11 C13.3826641,11 11.7340397,13.6926704 11.7164445,13.72239 C11.6989972,13.7519618 11.6620325,13.8275176 11.6114648,13.9004119 C11.561045,13.9733062 11.4760263,14.0892274 11.4139256,14.1590167 C11.351825,14.228806 11.3079109,14.2734594 11.2407831,14.3175213 C11.1736552,14.3615831 11.0952901,14.3938163 11.0163336,14.4199873 C10.9373771,14.4461583 10.8522105,14.4613878 10.770001,14.47366 C10.6876437,14.4859323 10.5646253,14.4899245 10.5235206,14.4931774 C10.5029682,14.4948038 9.43439348,14.5 8.82817285,14.5 C8.35990439,14.5140466 8.46532763,14.2432275 8.62176212,14 L11.0000005,10 L12.4067967,12.3465649" />
	</g>
</svg>
