<svg xmlns="http://www.w3.org/2000/svg" width="16" height="16" viewBox="0 0 16 16">
	<g fill="none" stroke-linejoin="round">
		<path stroke="#ed8796" d="M5.576,5.627c1.153,-1.267 3.12,-1.416 4.451,-0.339l-0.009,0l0.458,0" />
		<path stroke="#ed8796" d="M11.78,3.984l0.064,-0.553c-1.071,-0.945 -2.451,-1.467 -3.879,-1.467c-2.637,0 -4.965,1.781 -5.656,4.326" />
		<path stroke="#8aadf4" d="M13.637,6.29c-0.3,-1.103 -0.915,-2.096 -1.771,-2.855l-1.83,1.83c0.773,0.631 1.213,1.584 1.195,2.581l-0,0.325c0.893,-0 1.628,0.735 1.628,1.628c0,0.894 -0.735,1.629 -1.628,1.629l-3.258,-0l0,2.608l3.258,-0c0.011,-0 0.022,-0 0.033,-0c2.324,-0 4.236,-1.913 4.236,-4.237c-0,-1.405 -0.699,-2.722 -1.863,-3.509Z" />
		<path stroke="#a6da95" d="M2.268,12.709l-0.114,0.457c0.736,0.556 1.635,0.855 2.557,0.851l3.258,0l-0,-2.607l-3.258,-0c-0.232,-0 -0.461,-0.05 -0.672,-0.147" />
		<path stroke="#eed49f" d="M3.221,12.085l0.822,-0.822c-0.582,-0.263 -0.958,-0.845 -0.958,-1.484c0,-0.893 0.735,-1.629 1.629,-1.629c0.639,0 1.221,0.376 1.484,0.958l1.89,-1.889c-0.804,-1.05 -2.055,-1.665 -3.377,-1.661c-2.314,0.014 -4.211,1.922 -4.211,4.237c0,1.314 0.612,2.556 1.654,3.358l1.067,-1.068" />
	</g>
</svg>
