<svg xmlns="http://www.w3.org/2000/svg" width="16" height="16" viewBox="0 0 16 16">
	<path fill="none" stroke="#8bd5ca" stroke-linecap="round" stroke-linejoin="round" d="M 13.825398,10.605043 V 5.3932025 A 1.2815876,1.2870348 0 0 0 13.178131,4.2771223 L 8.6472664,1.6718519 a 1.3074783,1.3130355 0 0 0 -1.2945329,0 L 2.8218682,4.2771223 C 2.4212104,4.5078786 2.1746018,4.9336401 2.1746018,5.3938525 v 5.2118405 c 0,0.460863 0.2466086,0.885974 0.6472664,1.11608 l 4.5308653,2.605271 a 1.3074783,1.3130355 0 0 0 1.2945329,0 l 4.5308646,-2.605271 c 0.400659,-0.230756 0.647267,-0.656517 0.647267,-1.11673 M 8,14.499949 V 7.999773 m 0,0 5.650636,-3.2760886 m -11.3012723,0 L 8,7.999773" />
</svg>
