<svg xmlns="http://www.w3.org/2000/svg" width="16" height="16" viewBox="0 0 16 16">
	<g fill="none" stroke-linecap="round" stroke-linejoin="round">
		<path stroke="#a6da95" d="M 8,11.900019 10.5,15.500035 15,9.5000084" transform="translate(.25)" />
		<g stroke-width="1.154" transform="translate(.317 .067)scale(.86667)">
			<path stroke="#cad3f5" d="M 10.5,7 A 1.5,1.5 0 0 1 9,8.5 1.5,1.5 0 0 1 7.5,7 1.5,1.5 0 0 1 9,5.5 1.5,1.5 0 0 1 10.5,7" />
			<path stroke="#8aadf4" d="M 7,2.5 C 3.4101467,2.5 0.50000282,5.4101492 0.50000282,9 c 0,3.589851 2.91014388,6.5 6.49999718,6.5 0.044972,0 0.089837,-4.57e-4 0.1345905,-0.0014 M 13.459639,9.7284127 C 13.486304,9.4892863 13.499997,9.2462423 13.499997,9 13.499997,5.4101492 10.589853,2.5 7,2.5 m 7,-2 c -1.999999,0 -1.999999,3 0,3 1.999999,0 1.999999,-3 0,-3" />
		</g>
	</g>
</svg>
