<svg xmlns="http://www.w3.org/2000/svg" width="16" height="16" viewBox="0 0 16 16">
	<path fill="none" stroke="#f5a97f" stroke-linecap="round" stroke-linejoin="round" d="M 7.0129457,9.0805214 V 4.8128263 c 0,-0.2407376 -0.051142,-0.4391927 -0.1520509,-0.5946832 C 6.7736204,4.0476492 6.6222492,3.8566959 6.4047411,3.6446012 6.1879156,3.4318248 6.0140456,3.3254366 5.8838129,3.3254366 c -0.289783,0 -0.6729792,0.283702 -1.1509519,0.850424 0.043642,0.3539456 0.065458,0.7297144 0.065458,1.1252605 V 10.080298 H 1.8022987 l 0,-3.5454823 c 0,-1.2043697 -0.08659,-2.047292 -0.2604646,-2.5287671 C 1.3829636,3.5238917 1.0352237,2.9503498 0.49997661,2.2847409 L 3.104619,0.50000988 C 3.5682728,0.82599405 3.9010123,1.215403 4.1035199,1.6682348 5.1453765,0.88941788 5.8831313,0.50000988 6.3181474,0.50000988 c 0.4336521,0 1.2518647,0.54558062 2.4525911,1.63606012 1.2014083,-1.0911612 2.0482575,-1.63606012 2.5398675,-1.63606012 0.362059,0 0.977082,0.37508731 1.84575,1.12594272 0.882306,0.7365338 1.432553,1.2609733 1.650061,1.5719545 0.216827,0.2980235 0.325239,0.6942515 0.325239,1.1900481 V 10.08098 h -2.99602 V 4.8128263 c 0,-0.2686986 -0.05046,-0.4746554 -0.152051,-0.6158243 C 11.882673,4.0408294 11.708803,3.8566959 11.462657,3.6446012 11.23083,3.4318248 11.021504,3.3254366 10.833315,3.3254366 c -0.17387,0 -0.456153,0.2339177 -0.8468493,0.7010713 0.015,0.070926 0.021816,0.1909533 0.021816,0.3614473 V 9.0805214 Z M 1.8022978,11.998126 h 2.9960204 l 0.3163749,0.928851 c 0.1193888,0.351806 0.030514,0.740873 -0.2297812,1.005914 L 3.3930387,15.46461 c -0.050767,0.05166 -0.1340133,0.05166 -0.1847799,0 L 1.7157041,13.932891 C 1.4554086,13.667851 1.3665334,13.278783 1.4859219,12.926977 l 0.3163759,-0.929534 z m 5.2106479,-1.00046 H 10.008285 L 10.32466,11.9272 c 0.119389,0.351806 0.03051,0.740874 -0.229781,1.005915 l -1.491874,1.531718 c -0.050766,0.05166 -0.134013,0.05166 -0.1847795,0 L 6.9256704,12.933115 C 6.6653748,12.668074 6.5764999,12.279006 6.6958891,11.9272 Z m 5.1226903,1.00046 h 2.99602 l 0.316376,0.928851 c 0.119389,0.351806 0.03051,0.740873 -0.229781,1.005914 l -1.491874,1.531719 c -0.05077,0.05166 -0.134013,0.05166 -0.184779,0 l -1.492556,-1.531719 c -0.260295,-0.265041 -0.34917,-0.654108 -0.229781,-1.005914 l 0.316375,-0.929534 z" />
</svg>
