<svg xmlns="http://www.w3.org/2000/svg" width="16" height="16" viewBox="0 0 16 16">
	<path fill="none" stroke="#91d7e3" stroke-linecap="round" stroke-linejoin="round" d="M.5 3.5.5 13.5 2.5 13.5 2.5 7.59393015 6.5 13.4996609 8.5 13.4996609 9.55 12 10.5 13.4996609 12.5 13.4996609 10.5 10C10.5 10 10.4386751 8.98931841 11.3369471 8.45608681 12.2353772 7.92302475 12.9043401 8.45608681 12.9043401 8.45608681 12.9043401 8.45608681 13.3057495 8.78416412 13.4013608 9.07138013 13.4969721 9.35842659 13.8792592 9.41997287 14.1085683 9.5428959 14.3378773 9.66598847 14.5289419 9.76839607 14.5864667 10.1376738 14.6436754 10.506782 15.0833293 10.7734825 15.427372 10.363174 15.7714146 9.95303493 14.8922648 6.91810783 12.8087288 6.54899966 10.7253509 6.17989149 9.32120826 7.86080027 9.32120826 7.86080027L8.5 6.3228213 8.5 3.5 6.5 3.5 6.5 9.5 2.5 3.5.5 3.5ZM6.667 5.536 8.5 5.5" />
	<path fill="none" stroke="#91d7e3" stroke-linecap="round" stroke-linejoin="round" d="M6.5 13.5 8.5 10 6.5 6.5" />
</svg>
