<svg xmlns="http://www.w3.org/2000/svg" width="16" height="16" viewBox="0 0 16 16">
	<path fill="none" stroke="#8087a2" d="m 15,11.5 c 0.27,0 0.5,0.22 0.5,0.5 v 3 A 0.5,0.5 0 0 1 15,15.5 H 10 A 0.5,0.5 0 0 1 9.5,15 v -3 c 0,-0.28 0.22,-0.5 0.5,-0.5 z m -4,0 V 10 a 1.5,1.5 0 0 1 3,0 v 1.5" />
	<path fill="none" stroke="#cad3f5" stroke-linecap="round" stroke-linejoin="round" d="M 5.0426227,4.9889611 9.1457629,9.9403635" />
	<path fill="none" stroke="#eed49f" stroke-linecap="round" stroke-linejoin="round" d="M2.3902985 3.1226433 2.0396458 1.2156708 3.8386465 1.9632041 5.652893 1.0936246 5.4089607 3.0005971 6.9792748 4.4804076 4.860113 4.6939884 4.1435618 6.5857052 3.1525868 4.8923137 1.1248996 4.6787327ZM6.8176873 8.4520542c0 0-.582141.4962235-1.056478.064721C5.2868723 8.0852816 5.8893087 7.2089626 6.3217894 6.7907854 6.7542702 6.3726081 7.6872198 5.8408368 8.1076346 6.2640505 8.724415 6.8849374 7.8704658 7.4901197 7.8704658 7.4901197" />
	<path fill="none" stroke="#eed49f" stroke-linecap="round" stroke-linejoin="round" d="m 8.5908397,9.3584791 c 0,0 -1.3546461,1.1444909 -1.9610075,0.6314402 C 6.0234706,9.476858 6.7935859,8.4349004 7.3464413,7.9376802 7.8992963,7.4404607 9.0552792,6.8089507 9.5513916,7.3476626 10.047507,7.8863739 8.5856491,9.3513475 8.5856491,9.3513475" />
</svg>
