<svg xmlns="http://www.w3.org/2000/svg" width="16" height="16" viewBox="0 0 16 16">
	<path fill="none" stroke="#8aadf4" stroke-linecap="round" stroke-linejoin="round" stroke-width=".79" d="m 10.5,9.5 c 0.4,0 0.86,0.34 1,0.7 l 1,3.3 m -5,0 v -8 h 3.05 c 0.95,0 1.95,1 1.95,2 0,1 -1,2 -1.95,2 H 7.5 Z" transform="matrix(1.26652 0 0 1.26466 -1.313 -1.572)" />
	<path fill="none" stroke="#8087a2" stroke-linecap="round" stroke-linejoin="round" d="m 5.6504234,4.1331125 c 2.3026979,0 4.1692301,-1.0172882 4.1692301,-1.9473801 0,-0.9300922 -1.8665322,-1.68579206 -4.1692301,-1.68579206 -2.302698,0 -4.1692305,0.75569986 -4.1692305,1.68579206 0,0.9300919 1.8665325,1.9473801 4.1692305,1.9473801 m 0.5388179,2.8980227 c -0.1788209,0.00931 -0.3588194,0.013965 -0.5388179,0.013965 -0.719994,0 -1.4399881,-0.07448 -2.0846153,-0.2234402 C 2.2765538,6.5237399 1.4811929,5.8261709 1.4811929,5.2230643 m 4.7080484,4.7051845 c -0.1788209,0.00954 -0.3588194,0.014306 -0.5388179,0.014306 -0.7199941,0 -1.4399881,-0.076296 -2.0846153,-0.2288896 C 2.2765538,9.4230113 1.4811929,8.8635025 1.4811929,8.2603961 m 0,-6.0310657 V 8.2603961 M 9.8196535,2.2293304 v 1.5077664" />
</svg>
