<svg xmlns="http://www.w3.org/2000/svg" width="16" height="16" viewBox="0 0 16 16">
	<g fill="none" stroke-linecap="round" stroke-linejoin="round">
		<path stroke="#91d7e3" d="M 6.7849769,9.1994174 6.1864972,9.0347569 6.5694561,7.6064123 2.8744706,6.6168921 1.499989,11.733796 3.6524682,12.314605 Z" />
		<path stroke="#a6da95" d="M 3.6524682,12.314605 6.7849769,9.1994174 8.4382163,9.6542754 9.574914,13.912674 Z" />
		<path stroke="#eed49f" d="M 9.574914,13.912674 8.4382163,9.6542754 9.0475852,9.8219319 9.4305446,8.393587 13.125801,9.383108 11.75159,14.500012 Z" />
		<path stroke="#ed8796" d="M 9.4305446,8.393587 9.813504,6.9652421 9.2095716,6.7990816 12.293674,3.6708311 l 2.206337,0.5953731 -1.37421,5.1169037 z" />
		<path stroke="#f5bde6" d="M 9.2095716,6.7990816 12.293674,3.670831 6.418557,2.0854493 7.5551218,6.3438911 Z" />
		<path stroke="#8aadf4" d="M 6.5694561,7.6064123 6.952415,6.1780678 7.5551218,6.3438911 6.418557,2.0854493 4.2489521,1.4999882 2.8744706,6.6168921 Z" />
	</g>
</svg>
