<svg xmlns="http://www.w3.org/2000/svg" width="16" height="16" viewBox="0 0 16 16">
	<path fill="none" stroke="#8087a2" stroke-linecap="round" stroke-linejoin="round" d="M11.5 13.5a1 1 0 100-2 1 1 0 000 2m1.75-4 1.75 3-1.75 3h-3.5L8 12.5l1.75-3z" />
	<g fill="none" stroke="#f5a97f" stroke-linecap="round" stroke-linejoin="round" stroke-width="1.252" transform="matrix(.79989 0 0 .79796 .1 -.697)">
		<path d="m 15.5,9.5 q -7.5,4.005 -15,0 l 1,-1 -1,-2 2,-0.5 V 4.5 h 2 l 0.5,-2 1.5,1 1.5,-2 1.5,2 1.5,-1 0.5,2 h 2 V 6 l 2,0.5 -1,2 z" />
		<path d="m 6.5,7.5 c 0,0.5522847 -0.4477153,1 -1,1 -0.5522847,0 -1,-0.4477153 -1,-1 0,-0.5522847 0.4477153,-1 1,-1 0.5522847,0 1,0.4477153 1,1 m 5,0 c 0,0.5522847 -0.447715,1 -1,1 -0.5522847,0 -1,-0.4477153 -1,-1 0,-0.5522847 0.4477153,-1 1,-1 0.552285,0 1,0.4477153 1,1 M 4,11.02 C 3.33,11.39 2.5,12 2.5,13.25 c 0,1.25 1.22,1.22 2,1.25 v -2 M 12,11 c 0.1675,0.0925 0.345,0.20125 0.517031,0.331875" />
	</g>
</svg>
