<svg xmlns="http://www.w3.org/2000/svg" width="16" height="16" viewBox="0 0 16 16">
	<g fill="none" stroke="#f5a97f" stroke-linecap="round" stroke-linejoin="round">
		<path d="m 12.86,6.72 c 0,0 1.39,-1.98 0.08,-3.87 C 11.28625,0.7625 9.44,1.6 9.44,1.6 c 0,0 -3.29,1.75 -5.11,2.99 -1.4,1 -2.24,2.26 -1.03,4.37 1.22,2.1 4.58,1.21 4.58,1.21" />
		<path d="M3.14 9.28s-1.39 1.98-.08 3.87c1.31 1.9 3.5 1.24 3.5 1.24s3.29-1.74 5.11-2.98c1.4-1 2.24-2.26 1.03-4.37-1.22-2.1-4.58-1.21-4.58-1.21M6.3 6.96l4.14-2.56m-4.92 7.25L9.66 9.1" />
	</g>
</svg>
