<svg xmlns="http://www.w3.org/2000/svg" width="16" height="16" viewBox="0 0 16 16">
	<path fill="none" stroke="#a6da95" stroke-linecap="round" stroke-linejoin="round" d="M 0.50193861,7 C 0.87604291,6.7033392 1.8698976,6.3562946 3,6.513194 3.7235067,6.6308946 4.4662486,6.8216174 5.507213,7.5709178 6.0274744,7.945409 6.4027539,8.438438 7,9 m 1.9847348,6.498929 H 4.9904053 c 0.056259,-0.825945 0.024836,-1.655528 -0.09374,-2.474851 C 4.7949408,11.65387 4.3412461,10.333124 3.5794921,9.1896679 2.3415957,7.548874 0.40391385,7.3026602 0.50193861,7 M 8.9847781,15.5 13,15.499 C 12.856966,14.352264 12.507382,13.199468 12.471962,12.044387 12.42196,10.325043 12.267315,8 14.093312,7.9630274 15,8.0421974 15.386592,8.7985219 15.493375,9 15.452267,8.6011544 15.16344,7.0607538 14,6.5850682 12.607299,6.015598 10.667481,8.2326663 10.483003,8.5522063 M 2,2 C 2.1403414,2.2142727 3.2163189,1.4935256 4.2629871,1.7329755 5.3669702,1.9858174 6.5532644,3.6560371 7,9 M 10.483003,8.5522063 C 10.312941,6.7934256 9.6915098,5.108388 8.6789195,3.660359 8.1271958,2.8862987 6.2149107,0.19021145 4.1012195,0.53036949 2.7385154,0.74892774 2.1228163,1.5416433 2,2" />
	<path fill="none" stroke="#cad3f5" stroke-linecap="round" stroke-linejoin="round" d="M8 11A.5.5 0 0 1 7.5 11.5.5.5 0 0 1 7 11 .5.5 0 0 1 7.5 10.5.5.5 0 0 1 8 11ZM11 11A.5.5 0 0 1 10.5 11.5.5.5 0 0 1 10 11 .5.5 0 0 1 10.5 10.5.5.5 0 0 1 11 11Z" />
</svg>
