<svg xmlns="http://www.w3.org/2000/svg" width="16" height="16" viewBox="0 0 16 16">
	<path fill="none" stroke="#a6da95" stroke-linecap="round" stroke-linejoin="round" d="m 1.5000001,5.449356 c 0,-0.9997055 0.810407,-1.8101123 1.8101122,-1.8101123 h 1.81014 V 3.3101124 c 0,-0.9997055 0.8104339,-1.8101123 1.8101395,-1.8101123 0.9997057,0 1.8101124,0.8104068 1.8101124,1.8101123 v 0.3291313 h 1.8101398 c 0.999706,0 1.810115,0.8104068 1.810115,1.8101123 v 1.8101398 h 0.329115 c 0.999705,0 1.810126,0.8104068 1.810126,1.8101123 0,0.9997049 -0.810421,1.8101399 -1.810126,1.8101399 h -0.329115 v 1.810126 C 12.360759,13.689579 11.55035,14.5 10.550644,14.5 H 8.7405042 v -0.329115 c 0,-0.999705 -0.8104067,-1.810126 -1.8101124,-1.810126 -0.9997056,0 -1.8101395,0.810421 -1.8101395,1.810126 V 14.5 H 1.5000001 v -3.620252 h 0.3291037 c 0.9997061,0 1.8101399,-0.810435 1.8101399,-1.8101399 0,-0.9997055 -0.8104338,-1.8101123 -1.8101399,-1.8101123 H 1.5000001 Z" />
</svg>
