<svg xmlns="http://www.w3.org/2000/svg" width="16" height="16" viewBox="0 0 16 16">
	<path fill="none" stroke="#8087a2" stroke-linecap="round" stroke-linejoin="round" d="M15 11.5c.27 0 .5.22.5.5v3a.5.5 0 01-.5.5h-5a.5.5 0 01-.5-.5v-3c0-.28.22-.5.5-.5zm-4 0V10a1.5 1.5 0 013 0v1.5" />
	<g fill="none" stroke="#c6a0f6" stroke-linecap="round" stroke-linejoin="round" stroke-width="7.179" transform="matrix(.13927 0 0 .13933 -.413 .02)">
		<path d="m 58.19,92.889 c -2.438,1.472 -16.058,7.342 -33.033,0.927 0,0 -15.323,4.247 -14.195,-6.503 0,0 -10.684,-12.422 0.938,-22.28 0,0 -1.241,-16.91 11.549,-24.936 0,0 -8.286,-12.228 0,-19.036 8.286,-6.808 12.645,-9.145 18.736,-8.634 0,0 7.247,-20.251 14.643,0 0,0 9.061,-7.776 7.844,17.247 -0.323,6.646 -4.717,16.289 -7.844,20.326 0,0 2.22025,1.58075 4.4405,5.611625 1.110125,2.015437 2.22025,4.643406 3.052844,7.992578 0.416297,1.674586 0.763211,3.529473 1.006051,5.578244" />
		<path d="m 27.469,94.285 c -1.525,-1.407 0.321,-8.703 0.321,-8.703 0,0 -1.252,4.723 -3.116,7.525" />
	</g>
</svg>
