<?xml version="1.0" encoding="utf-8"?><svg xmlns="http://www.w3.org/2000/svg" xmlns:xlink="http://www.w3.org/1999/xlink"><symbol viewBox="0 0 16 16" id="bracket" xmlns="http://www.w3.org/2000/svg"><path fill="currentColor" stroke="#eed49f" stroke-linecap="round" stroke-linejoin="round" d="M4.5 2.5H4c-.75 0-1.5.75-1.5 1.5v2c0 1.1-1 2-1.83 2 .83 0 1.83.9 1.83 2v2c0 .75.75 1.5 1.5 1.5h.5m7-11h.5c.75 0 1.5.75 1.5 1.5v2c0 1.1 1 2 1.83 2-.83 0-1.83.9-1.83 2v2c0 .74-.75 1.5-1.5 1.5h-.5m-6.5-3a.5.5 0 1 0 0-1 .5.5 0 0 0 0 1m3 0a.5.5 0 1 0 0-1 .5.5 0 0 0 0 1m3 0a.5.5 0 1 0 0-1 .5.5 0 0 0 0 1"/></symbol><symbol viewBox="0 0 16 16" id="database" xmlns="http://www.w3.org/2000/svg"><path fill="currentColor" stroke="#eed49f" stroke-linecap="round" stroke-linejoin="round" d="M8 6.5c3.59 0 6.5-1.4 6.5-2.68S11.59 1.5 8 1.5 1.5 2.54 1.5 3.82 4.41 6.5 8 6.5M14.5 8c0 .83-1.24 1.79-3.25 2.2s-4.49.41-6.5 0S1.5 8.83 1.5 8m13 4.18c0 .83-1.24 1.6-3.25 2-2.01.42-4.49.42-6.5 0-2.01-.4-3.25-1.17-3.25-2m0-8.3v8.3m13-8.3v8.3"/></symbol><symbol viewBox="0 0 16 16" id="diff" xmlns="http://www.w3.org/2000/svg"><g fill="currentColor" stroke-linecap="round" stroke-linejoin="round"><path stroke="#a6da95" d="M10 6H6m2-2v4"/><path stroke="#ed8796" d="M10 11.5H6"/><path stroke="#cad3f5" d="M6.1.5h3.8c1.44 0 2.6 1.09 2.6 2.43v10.14c0 1.34-1.16 2.43-2.6 2.43H6.1c-1.44 0-2.6-1.09-2.6-2.43V2.93C3.5 1.6 4.66.5 6.1.5"/></g></symbol><symbol viewBox="0 0 16 16" id="diff-sidebyside" xmlns="http://www.w3.org/2000/svg"><g fill="currentColor" stroke-linecap="round" stroke-linejoin="round"><path stroke="#a6da95" d="M10 6H6m2-2v4"/><path stroke="#ed8796" d="M10 11.5H6"/><path stroke="#cad3f5" d="M6.1.5h3.8c1.44 0 2.6 1.09 2.6 2.43v10.14c0 1.34-1.16 2.43-2.6 2.43H6.1c-1.44 0-2.6-1.09-2.6-2.43V2.93C3.5 1.6 4.66.5 6.1.5"/></g></symbol><symbol viewBox="0 0 16 16" id="json" xmlns="http://www.w3.org/2000/svg"><path fill="currentColor" stroke="#eed49f" stroke-linecap="round" stroke-linejoin="round" d="M4.5 2.5H4c-.75 0-1.5.75-1.5 1.5v2c0 1.1-1 2-1.83 2 .83 0 1.83.9 1.83 2v2c0 .75.75 1.5 1.5 1.5h.5m7-11h.5c.75 0 1.5.75 1.5 1.5v2c0 1.1 1 2 1.83 2-.83 0-1.83.9-1.83 2v2c0 .74-.75 1.5-1.5 1.5h-.5m-6.5-3a.5.5 0 1 0 0-1 .5.5 0 0 0 0 1m3 0a.5.5 0 1 0 0-1 .5.5 0 0 0 0 1m3 0a.5.5 0 1 0 0-1 .5.5 0 0 0 0 1"/></symbol><symbol viewBox="0 0 16 16" id="key" xmlns="http://www.w3.org/2000/svg"><g fill="currentColor" stroke="#cad3f5" stroke-linecap="round" stroke-linejoin="round"><path d="M10 10.5a4.5 4.5 0 1 0-4.02-2.48L1.5 12.5v2h2v-2h2v-2h2l.48-.48c.6.3 1.3.48 2.02.48"/><path d="M12 5a1 1 0 0 1-1 1 1 1 0 0 1-1-1 1 1 0 0 1 1-1 1 1 0 0 1 1 1"/></g></symbol><symbol viewBox="0 0 16 16" id="markdown" xmlns="http://www.w3.org/2000/svg"><path fill="currentColor" stroke="#7dc4e4" stroke-linecap="round" stroke-linejoin="round" d="m9.25 8.25 2.25 2.25 2.25-2.25M3.5 11V5.5l2.04 3 1.96-3V11m4-.5V5M1.65 2.5h12.7c.59 0 1.15.49 1.15 1v9c0 .51-.56 1-1.15 1H1.65c-.59 0-1.15-.49-1.15-1V3.58c0-.5.56-1.08 1.15-1.08"/></symbol><symbol viewBox="0 0 16 16" id="python" xmlns="http://www.w3.org/2000/svg"><g fill="currentColor" stroke-linecap="round" stroke-linejoin="round"><path stroke="#8aadf4" d="M8.5 5.5h-3m6 0V3c0-.8-.7-1.5-1.5-1.5H7c-.8 0-1.5.7-1.5 1.5v2.5H3c-.8 0-1.5.7-1.5 1.5v2c0 .8.7 1.5 1.48 1.5"/><path stroke="#eed49f" d="M10.5 10.5h-3m-3 0V13c0 .8.7 1.5 1.5 1.5h3c.8 0 1.5-.7 1.5-1.5v-2.5H13c.8 0 1.5-.7 1.5-1.5V7c0-.8-.7-1.5-1.48-1.5H11.5c0 1.5 0 2-1 2h-2"/><path stroke="#8aadf4" d="M2.98 10.5H4.5c0-1.5 0-2 1-2h2m0-5v0"/><path stroke="#eed49f" d="M8.5 12.5v0"/></g></symbol><symbol viewBox="0 0 16 16" id="ruby" xmlns="http://www.w3.org/2000/svg"><path fill="currentColor" stroke="#ed8796" stroke-linecap="round" stroke-linejoin="round" d="M1.5 9.06v2.5c.02.86.36 1.61.9 2.15 1.76 1.76 5.71.65 8.84-2.47 3.12-3.13 4.23-7.08 2.47-8.84a3.1 3.1 0 0 0-2.15-.9h-2.5M14.5 4l-.25 10.25L4 14.5m4.39-6.11c2.34-2.35 3.29-5.2 2.12-6.37S6.49 1.8 4.14 4.14C1.8 6.5.85 9.34 2.02 10.51s4.02.22 6.37-2.12M5.5 14.5l.25-3.75L11 11l-.25-5.25 3.75-.25"/></symbol><symbol viewBox="0 0 16 16" id="search" xmlns="http://www.w3.org/2000/svg"><path fill="currentColor" stroke="#cad3f5" stroke-linecap="round" stroke-linejoin="round" d="M12.5 6.5a6 6 0 0 1-6 6 6 6 0 0 1-6-6 6 6 0 0 1 6-6 6 6 0 0 1 6 6m3 9L11 11"/></symbol><symbol viewBox="0 0 16 16" id="search-save" xmlns="http://www.w3.org/2000/svg"><path fill="currentColor" stroke="#cad3f5" stroke-linecap="round" stroke-linejoin="round" d="M12.5 6.5a6 6 0 0 1-6 6 6 6 0 0 1-6-6 6 6 0 0 1 6-6 6 6 0 0 1 6 6m3 9L11 11"/></symbol><symbol viewBox="0 0 16 16" id="symbol-event" xmlns="http://www.w3.org/2000/svg"><path fill="currentColor" stroke="#eed49f" stroke-linecap="round" stroke-linejoin="round" d="M2.85 9.301a.644.65 0 0 1-.502-1.06L8.72 1.605a.322.325 0 0 1 .554.3L8.039 5.82a.644.65 0 0 0 .605.878h4.506a.644.65 0 0 1 .502 1.06L7.28 14.395a.322.325 0 0 1-.554-.3l1.236-3.916a.644.65 0 0 0-.605-.878Z"/></symbol><symbol viewBox="0 0 16 16" id="vscode" xmlns="http://www.w3.org/2000/svg"><path fill="currentColor" stroke="#8aadf4" stroke-linecap="round" stroke-linejoin="round" d="M10.5 11 3 4.5h-.5l-1 1V6l9 8.5 4-2v-9l-4-2v13m0-13L5.3 6.41M3.53 8.08 1.5 10v.5l.98 1.1.52-.1 2.17-1.88m1.91-1.66L10.5 5"/></symbol><symbol viewBox="0 0 16 16" id="zap" xmlns="http://www.w3.org/2000/svg"><path fill="currentColor" stroke="#eed49f" stroke-linecap="round" stroke-linejoin="round" d="M2.85 9.301a.644.65 0 0 1-.502-1.06L8.72 1.605a.322.325 0 0 1 .554.3L8.039 5.82a.644.65 0 0 0 .605.878h4.506a.644.65 0 0 1 .502 1.06L7.28 14.395a.322.325 0 0 1-.554-.3l1.236-3.916a.644.65 0 0 0-.605-.878Z"/></symbol></svg>