<svg xmlns="http://www.w3.org/2000/svg" width="100" height="100" viewBox="0 0 100 100">
<style>:root {--ctp-rosewater: #f5e0dc;--ctp-flamingo: #f2cdcd;--ctp-pink: #f5c2e7;--ctp-mauve: #cba6f7;--ctp-red: #f38ba8;--ctp-maroon: #eba0ac;--ctp-peach: #fab387;--ctp-yellow: #f9e2af;--ctp-green: #a6e3a1;--ctp-teal: #94e2d5;--ctp-sky: #89dceb;--ctp-sapphire: #74c7ec;--ctp-blue: #89b4fa;--ctp-lavender: #b4befe;--ctp-text: #cdd6f4;--ctp-overlay1: #7f849c;}</style>
    <rect width="94.052" height="94.445" x="2.974" y="2.777" fill="none" stroke="var(--ctp-mauve)" stroke-linecap="round" stroke-linejoin="round" stroke-width="5" paint-order="fill markers stroke" rx="16.188" ry="16.092"/>
    <path fill="none" stroke="var(--ctp-mauve)" stroke-linecap="round" stroke-linejoin="round" stroke-width="5" d="M33.14 69.278h32.406M33.435 80.472h32.406" paint-order="fill markers stroke"/>
    <path fill="none" stroke="var(--ctp-mauve)" stroke-linecap="round" stroke-linejoin="round" stroke-width="5" d="M67.87 57.783s-1.653.23-2.485.254a7.733 7.733 0 0 1-1.18-.054c-.355-.045-.72-.084-1.052-.218-.345-.14-.7-.317-.943-.599-.225-.26-.336-.61-.418-.943-.141-.583-.09-1.197-.108-1.796-.102-3.361 0-6.725 0-10.087 0-3.363-.03-6.725 0-10.087.012-1.404.08-2.806.072-4.21-.003-.572.013-1.148-.05-1.718-.07-.615-.191-1.226-.36-1.821-.18-.633-.387-1.265-.693-1.848a8.993 8.993 0 0 0-1.36-1.95c-.39-.418-.867-.747-1.334-1.077-.623-.442-1.255-.888-1.95-1.206-.676-.31-1.403-.508-2.13-.667-.858-.188-1.74-.268-2.616-.334a22.235 22.235 0 0 0-2.31-.051c-.737.022-1.478.06-2.206.18-.774.126-1.532.34-2.283.564-.739.221-1.483.444-2.181.77a9.752 9.752 0 0 0-1.565.923c-.478.344-.92.737-1.335 1.155a13.661 13.661 0 0 0-1.462 1.719c-.354.5-.643 1.046-.924 1.59-.275.535-.553 1.073-.744 1.643-.198.59-.296 1.21-.41 1.821-.108.578-.198 1.16-.257 1.745-.015.154-.025.462-.025.462" paint-order="fill markers stroke"/>
    <path fill="none" stroke="var(--ctp-mauve)" stroke-linecap="round" stroke-linejoin="round" stroke-width="5" d="M61.012 35.56s-2.049.991-3.13 1.335c-1.234.392-2.514.648-3.797.82-3.446.464-6.968.119-10.417.565a20.961 20.961 0 0 0-3.233.667 15.04 15.04 0 0 0-2.514.975c-.687.346-1.375.721-1.95 1.232a7.774 7.774 0 0 0-1.54 1.898c-.378.651-.636 1.374-.82 2.104-.275 1.086-.363 2.217-.41 3.336-.04.923-.077 1.864.102 2.77.134.68.408 1.331.718 1.95.366.73.814 1.424 1.334 2.053.378.457.809.876 1.283 1.232.521.39 1.1.705 1.694.975.526.24 1.09.389 1.642.564.696.222 1.385.481 2.103.616.777.146 1.573.149 2.36.205.616.044 1.232.122 1.848.103.723-.023 1.443-.131 2.155-.257.589-.104 1.171-.245 1.745-.41a15.632 15.632 0 0 0 1.796-.616 17.522 17.522 0 0 0 1.899-.975c.6-.347 1.186-.72 1.744-1.129.412-.302.785-.652 1.18-.975.698-.569 1.468-1.057 2.104-1.693.964-.963 2.566-3.182 2.566-3.182" paint-order="fill markers stroke"/>
</svg>
