<svg xmlns="http://www.w3.org/2000/svg" width="100" height="100" viewBox="0 0 100 100">
<style>:root {--ctp-rosewater: #f5e0dc;--ctp-flamingo: #f2cdcd;--ctp-pink: #f5c2e7;--ctp-mauve: #cba6f7;--ctp-red: #f38ba8;--ctp-maroon: #eba0ac;--ctp-peach: #fab387;--ctp-yellow: #f9e2af;--ctp-green: #a6e3a1;--ctp-teal: #94e2d5;--ctp-sky: #89dceb;--ctp-sapphire: #74c7ec;--ctp-blue: #89b4fa;--ctp-lavender: #b4befe;--ctp-text: #cdd6f4;--ctp-overlay1: #7f849c;}</style>
    <circle cx="50" cy="50" r="47.475" fill="none" stroke="var(--ctp-red)" stroke-width="4.74746"/>
    <path fill="var(--ctp-text)" d="M43.49 18.707c1.994-4.061 7.125-5.41 10.86-2.857a12.754 12.754 0 0 1 3.507 5.514C75.992 63.03 72.111 54.02 79.69 70.696c.517 4.412-4.38 7.396-8.064 4.915-10-5.615-20.1-11.05-29.946-16.897 7.175.029 14.35-.028 21.517.047-7.384-17.622-3.753-9.088-13.021-30.297C39.08 53.267 38.573 54.902 31.718 69.75c-1.004 2.107-1.514 4.8-3.697 6.036-2.77 1.643-6.351.38-7.478-2.636-.86-2.179.54-4.286 1.364-6.225C32.881 42.38 33.96 39.897 43.49 18.707Z"/>
</svg>
