<svg xmlns="http://www.w3.org/2000/svg" width="100" height="100" viewBox="0 0 100 100">
<style>:root {--ctp-rosewater: #f5e0dc;--ctp-flamingo: #f2cdcd;--ctp-pink: #f5c2e7;--ctp-mauve: #cba6f7;--ctp-red: #f38ba8;--ctp-maroon: #eba0ac;--ctp-peach: #fab387;--ctp-yellow: #f9e2af;--ctp-green: #a6e3a1;--ctp-teal: #94e2d5;--ctp-sky: #89dceb;--ctp-sapphire: #74c7ec;--ctp-blue: #89b4fa;--ctp-lavender: #b4befe;--ctp-text: #cdd6f4;--ctp-overlay1: #7f849c;}</style>
    <path fill="none" stroke="var(--ctp-text)" stroke-linecap="round" stroke-linejoin="round" stroke-width="5" d="M52.324 21.125a2.325 2.325 0 0 1-2.326-2.318A16.264 16.264 0 0 1 66.263 2.542a2.32 2.32 0 0 1 2.318 2.326 16.264 16.264 0 0 1-16.257 16.25Zm33.919 48.922a2.316 2.316 0 0 1 .677 2.895c-8.169 16.366-14.698 24.516-20.657 24.516-2.773 0-5.498-.895-8.156-2.644a12.081 12.081 0 0 0-12.848-.278c-3.213 1.925-6.284 2.922-9.193 2.922-8.773 0-23.234-26.997-23.234-41.817 0-15.81 8.292-27.878 20.909-27.878 5.932 0 11.057.881 15.363 2.644a6.941 6.941 0 0 0 5.667-.15c3.492-1.68 8.095-2.494 13.817-2.494 6.983 0 13.058 3.478 18.116 10.223a2.325 2.325 0 0 1-.461 3.255c-5.648 4.23-8.367 8.99-8.367 14.4 0 5.417 2.72 10.17 8.367 14.406z"/>
</svg>
