<svg xmlns="http://www.w3.org/2000/svg" width="100" height="100" viewBox="0 0 100 100">
<style>:root {--ctp-rosewater: #f5e0dc;--ctp-flamingo: #f2cdcd;--ctp-pink: #f5c2e7;--ctp-mauve: #cba6f7;--ctp-red: #f38ba8;--ctp-maroon: #eba0ac;--ctp-peach: #fab387;--ctp-yellow: #f9e2af;--ctp-green: #a6e3a1;--ctp-teal: #94e2d5;--ctp-sky: #89dceb;--ctp-sapphire: #74c7ec;--ctp-blue: #89b4fa;--ctp-lavender: #b4befe;--ctp-text: #cdd6f4;--ctp-overlay1: #7f849c;}</style>
    <path fill="none" stroke="var(--ctp-text)" stroke-linecap="round" stroke-linejoin="round" stroke-width="5" d="M63.645 4.808c.753.937 1.137 2.198 1.906 4.722l16.784 55.13a69.858 69.858 0 0 0-20.066-6.794l-10.924-36.92c-.404-1.36-2.332-1.354-2.728.008l-10.798 36.9a69.839 69.839 0 0 0-20.154 6.806L34.53 9.523c.768-2.521 1.153-3.781 1.91-4.715a6.198 6.198 0 0 1 2.513-1.86c1.114-.446 2.428-.446 5.064-.446h12.047c2.636 0 3.957 0 5.072.45a6.202 6.202 0 0 1 2.505 1.856z"/>
    <path fill="none" stroke="var(--ctp-mauve)" stroke-linecap="round" stroke-linejoin="round" stroke-width="5" d="M65.471 70.063c-2.766 2.367-8.288 3.977-14.648 3.977-7.809 0-14.353-2.428-16.09-5.698-.618 1.875-.76 4.019-.76 5.387 0 0-.408 6.725 4.269 11.405 0-2.428 1.971-4.4 4.4-4.4 4.161 0 4.157 3.632 4.154 6.58v.264c0 4.473 2.732 8.304 6.62 9.922a9.019 9.019 0 0 1-.906-3.954c0-4.265 2.505-5.852 5.418-7.697 2.313-1.472 4.888-3.101 6.66-6.379a12.024 12.024 0 0 0 1.452-5.74c0-1.245-.191-2.482-.569-3.667z"/>
</svg>
