<svg xmlns="http://www.w3.org/2000/svg" width="100" height="100" viewBox="0 0 100 100">
<style>:root {--ctp-rosewater: #f5e0dc;--ctp-flamingo: #f2cdcd;--ctp-pink: #f5c2e7;--ctp-mauve: #cba6f7;--ctp-red: #f38ba8;--ctp-maroon: #eba0ac;--ctp-peach: #fab387;--ctp-yellow: #f9e2af;--ctp-green: #a6e3a1;--ctp-teal: #94e2d5;--ctp-sky: #89dceb;--ctp-sapphire: #74c7ec;--ctp-blue: #89b4fa;--ctp-lavender: #b4befe;--ctp-text: #cdd6f4;--ctp-overlay1: #7f849c;}</style>
    <path fill="none" stroke="var(--ctp-text)" stroke-linecap="round" stroke-linejoin="round" stroke-width="5" d="m60.221 50.944-.683-2.308-2.73-9.23-5.463-18.46c-.404-1.36-2.332-1.354-2.728.008l-10.798 36.9a69.839 69.839 0 0 0-20.154 6.806L34.53 9.523c.768-2.521 1.153-3.781 1.91-4.715a6.198 6.198 0 0 1 2.513-1.86c1.114-.446 2.428-.446 5.064-.446h12.047c2.636 0 3.957 0 5.072.45a6.202 6.202 0 0 1 2.505 1.856h.004c.753.937 1.137 2.198 1.906 4.722l8.392 27.565 2.098 6.891.525 1.723"/>
    <path fill="none" stroke="var(--ctp-mauve)" stroke-linecap="round" stroke-linejoin="round" stroke-width="5" d="M45.259 73.61c-1.739-.279-3.343-.685-4.758-1.193-2.829-1.016-4.9-2.44-5.768-4.075-.618 1.875-.76 4.019-.76 5.387 0 0-.408 6.725 4.269 11.405 0-2.428 1.971-4.4 4.4-4.4 4.161 0 4.157 3.632 4.154 6.58v.264c0 4.473 2.732 8.304 6.62 9.922"/>
    <path fill="none" stroke="var(--ctp-overlay1)" stroke-linecap="round" stroke-linejoin="round" stroke-width="5.00775" d="M84.218 76.25a7.967 7.967 0 0 1-7.967 7.967 7.967 7.967 0 0 1-7.968-7.967 7.967 7.967 0 0 1 7.968-7.967 7.967 7.967 0 0 1 7.967 7.967zM76.25 55.004c-2.835 0-3.84 4.33-6.64 5.311-2.799.982-7.104-2.19-9.295 0-2.191 2.191.982 6.497 0 9.296-.982 2.799-5.312 3.805-5.312 6.639s4.33 3.84 5.312 6.64c.982 2.799-2.19 7.103 0 9.295 2.19 2.191 6.497-.975 9.295.007s3.806 5.305 6.64 5.304c2.833 0 3.84-4.33 6.639-5.311 2.799-.982 7.103 2.19 9.295 0s-.974-6.497.007-9.296c.982-2.798 5.305-3.806 5.304-6.639 0-2.833-4.33-3.84-5.311-6.64-.982-2.799 2.19-7.104 0-9.295-2.191-2.19-6.497.982-9.296 0-2.799-.982-3.805-5.311-6.639-5.311z" paint-order="fill markers stroke"/>
</svg>
