<svg xmlns="http://www.w3.org/2000/svg" width="100" height="100">
<style>:root {--ctp-rosewater: #f5e0dc;--ctp-flamingo: #f2cdcd;--ctp-pink: #f5c2e7;--ctp-mauve: #cba6f7;--ctp-red: #f38ba8;--ctp-maroon: #eba0ac;--ctp-peach: #fab387;--ctp-yellow: #f9e2af;--ctp-green: #a6e3a1;--ctp-teal: #94e2d5;--ctp-sky: #89dceb;--ctp-sapphire: #74c7ec;--ctp-blue: #89b4fa;--ctp-lavender: #b4befe;--ctp-text: #cdd6f4;--ctp-overlay1: #7f849c;}</style>
    <path fill="none" stroke="var(--ctp-yellow)" stroke-linecap="round" stroke-linejoin="round" stroke-width="5" d="M20.665 20.899c7.979-4.91 16.824-11.141 26.3-14.236 8.372-2.735 17.548-5.318 26.178-3.564 4.315.877 9.13 2.952 11.355 6.752 2.068 3.532 2.162 8.627.307 12.275C77.816 35.87 46.76 48.433 46.76 48.433m8.684-43.25L13.822 97.483s44.418-15.57 59.535-32.35c3.143-3.49 6.89-8.558 5.403-13.013-1.286-3.85-6.49-5.504-10.491-6.186-11.315-1.927-33.779 6.687-33.779 6.687" paint-order="fill markers stroke"/>
</svg>
