<svg xmlns="http://www.w3.org/2000/svg" width="100" height="100">
  <style>:root {--ctp-rosewater: #f5e0dc;--ctp-flamingo: #f2cdcd;--ctp-pink: #f5c2e7;--ctp-mauve: #cba6f7;--ctp-red: #f38ba8;--ctp-maroon: #eba0ac;--ctp-peach: #fab387;--ctp-yellow: #f9e2af;--ctp-green: #a6e3a1;--ctp-teal: #94e2d5;--ctp-sky: #89dceb;--ctp-sapphire: #74c7ec;--ctp-blue: #89b4fa;--ctp-lavender: #b4befe;--ctp-text: #cdd6f4;--ctp-overlay1: #7f849c;}</style>
    <path fill="none" stroke="var(--ctp-yellow)" stroke-linecap="round" stroke-linejoin="round" stroke-width="5" d="M96.49 45.742c-2.03-4.024-7.45-4.585-10.317-1.352-7.697-5.896-15.357-18.285-10.889-33.027-7.89-.932-16.463 1.477-23.926 5.863-1.931-4.027-2.96-8.331-2.96-14.271-7.054 3.794-12.73 10.83-16.323 18.776-4.008-2.202-7.38-5.16-10.854-10.118-3.562 7.066-4.203 15.964-2.656 24.446-4.511.478-8.947-.019-14.598-2.076C5.125 41.91 9.8 49.663 16.048 55.767c-3.429 3.008-7.362 5.16-13.207 6.727 5.436 5.77 13.591 9.42 22.105 10.86-1.089 4.374-3.077 8.35-6.922 12.931 7.803 1.611 16.612-.094 24.434-3.826 1.623 4.216 2.278 8.621 1.762 14.586 11.096-4.78 21.94-18.905 23.79-35.536 9.224-1.54 14.94-4.649 19.583-7.11 6.49 3.08 11.403-3.559 8.897-8.657zm-28.354 13.95c-.022-4.372-2.601-9.202-3.273-13.647-.437-2.894-1.093-5.828-.61-11.058.017-4.732 4.431-15.119 8.393-21.585m12.832 31.84c-1.747 4.059-.162 6.818 1.377 8.457"/>
</svg>
