<svg xmlns="http://www.w3.org/2000/svg" width="100" height="100" viewBox="0 0 100 100">
    <style>:root {--ctp-rosewater: #f5e0dc;--ctp-flamingo: #f2cdcd;--ctp-pink: #f5c2e7;--ctp-mauve: #cba6f7;--ctp-red: #f38ba8;--ctp-maroon: #eba0ac;--ctp-peach: #fab387;--ctp-yellow: #f9e2af;--ctp-green: #a6e3a1;--ctp-teal: #94e2d5;--ctp-sky: #89dceb;--ctp-sapphire: #74c7ec;--ctp-blue: #89b4fa;--ctp-lavender: #b4befe;--ctp-text: #cdd6f4;--ctp-overlay1: #7f849c;}</style>
    <path fill="none" stroke="var(--ctp-rosewater)" stroke-width="4.2123" d="M49.6 90.925c-26.22 0-47.5-17.005-47.5-38C2.1 40.29 9.985 28.51 23 21.385c3.8-1.995 7.125-4.085 9.975-5.795 1.615-1.045 3.135-1.9 4.56-2.755C42 10.08 45.8 8.275 49.6 8.275s7.125 1.52 11.305 3.895c1.235.76 2.565 1.52 3.895 2.375 3.135 1.9 6.745 4.18 11.4 6.745 13.015 7.125 20.9 18.905 20.9 31.54 0 21.09-21.28 38.095-47.5 38.095z"/>
    <path fill="var(--ctp-rosewater)" d="M50.1 72.8c-2.3-.1-4.3-1.2-6-2.7-2-1.7-3.5-4.1-4.1-6.7-.1-.5 0-.9.4-1.3s.9-.7 1.5-.7h16.4c.5 0 1.1.3 1.5.7.3.4.4.8.3 1.3-.7 2.7-2.1 4.9-4.1 6.7-1.6 1.5-3.6 2.4-5.9 2.7zM33.6 42.9c-4 0-7.3 3.3-7.3 7.3s3.3 7.3 7.3 7.3 7.3-3.3 7.3-7.3-3.2-7.3-7.3-7.3zM66.7 42.9c-4 0-7.3 3.2-7.3 7.3 0 4 3.2 7.3 7.3 7.3 4 0 7.3-3.2 7.5-7.3-.2-3.9-3.4-7.3-7.5-7.3z"/>
</svg>
