<svg xmlns="http://www.w3.org/2000/svg" width="100" height="100" viewBox="0 0 100 100">
    <style>:root {--ctp-rosewater: #f5e0dc;--ctp-flamingo: #f2cdcd;--ctp-pink: #f5c2e7;--ctp-mauve: #cba6f7;--ctp-red: #f38ba8;--ctp-maroon: #eba0ac;--ctp-peach: #fab387;--ctp-yellow: #f9e2af;--ctp-green: #a6e3a1;--ctp-teal: #94e2d5;--ctp-sky: #89dceb;--ctp-sapphire: #74c7ec;--ctp-blue: #89b4fa;--ctp-lavender: #b4befe;--ctp-text: #cdd6f4;--ctp-overlay1: #7f849c;}</style>
    <path fill="none" stroke="var(--ctp-overlay1)" stroke-width="5" d="M70.735 73.695v-8.88a8.88 8.88 0 0 1 17.76 0v8.88m-23.68 0h29.599a2.96 2.96 0 0 1 2.96 2.96v17.759a2.96 2.96 0 0 1-2.96 2.96H64.815a2.96 2.96 0 0 1-2.96-2.96v-17.76a2.96 2.96 0 0 1 2.96-2.96z"/>
    <path fill="none" stroke="var(--ctp-rosewater)" stroke-linecap="round" stroke-width="4.434" d="M45.8 84.3C21.6 84.3 2 68.6 2 49.3c0-11.6 7.3-22.5 19.2-29 3.5-1.8 6.6-3.8 9.2-5.3 1.5-1 2.9-1.8 4.2-2.5 4.1-2.5 7.6-4.2 11.1-4.2s6.6 1.4 10.4 3.6c1.1.7 2.4 1.4 3.6 2.2 2.9 1.8 6.2 3.8 10.5 6.2 12 6.6 19.2 17.4 19.2 29.1"/>
    <path fill="var(--ctp-rosewater)" d="M46.3 67.7c-2.1-.1-4-1.1-5.5-2.5-1.8-1.6-3.2-3.8-3.8-6.2-.1-.5 0-.8.4-1.2.4-.4.8-.6 1.4-.6h15.1c.5 0 1 .3 1.4.6.3.4.4.7.3 1.2-.6 2.5-1.9 4.5-3.8 6.2-1.5 1.4-3.4 2.2-5.5 2.5zM31.1 40.2a6.7 6.7 0 1 0 6.7 6.7c0-3.7-2.9-6.7-6.7-6.7zM61.6 40.2c-3.7 0-6.7 2.9-6.7 6.7 0 3.7 2.9 6.7 6.7 6.7 3.7 0 6.7-2.9 6.9-6.7-.2-3.6-3.1-6.7-6.9-6.7z"/>
</svg>
