<svg xmlns="http://www.w3.org/2000/svg" width="100" height="100" viewBox="0 0 100 100">
<style>:root {--ctp-rosewater: #f5e0dc;--ctp-flamingo: #f2cdcd;--ctp-pink: #f5c2e7;--ctp-mauve: #cba6f7;--ctp-red: #f38ba8;--ctp-maroon: #eba0ac;--ctp-peach: #fab387;--ctp-yellow: #f9e2af;--ctp-green: #a6e3a1;--ctp-teal: #94e2d5;--ctp-sky: #89dceb;--ctp-sapphire: #74c7ec;--ctp-blue: #89b4fa;--ctp-lavender: #b4befe;--ctp-text: #cdd6f4;--ctp-overlay1: #7f849c;}</style>
    <path fill="none" stroke="var(--ctp-overlay1)" stroke-width="5" d="M70.329 73.289v-8.88a8.88 8.88 0 0 1 17.759 0v8.88m-23.679 0h29.599a2.96 2.96 0 0 1 2.96 2.96v17.759a2.96 2.96 0 0 1-2.96 2.96H64.409a2.96 2.96 0 0 1-2.96-2.96v-17.76a2.96 2.96 0 0 1 2.96-2.96z"/>
    <path fill="none" stroke="var(--ctp-rosewater)" stroke-linecap="round" stroke-linejoin="round" stroke-width="5" d="M87.715 48.319c.232-1.693.355-3.481.355-5.37 0-23.035-25.671-34.552-42.785-40.311C28.171 8.397 2.5 19.914 2.5 42.948 2.5 73.181 33.876 77.5 45.285 77.5c1.426 0 3.164-.067 5.114-.245"/>
    <path fill="none" stroke="var(--ctp-red)" stroke-linecap="round" stroke-linejoin="round" stroke-width="5" d="M38.231 54.319h13.868c-1.54 2.96-3.852 4.44-6.934 4.44-3.082 0-5.393-1.48-6.934-4.44z"/>
    <circle cx="28.115" cy="39.902" r="4.49" fill="var(--ctp-overlay1)" paint-order="fill markers stroke"/>
    <circle cx="62.227" cy="39.902" r="4.49" fill="var(--ctp-overlay1)" paint-order="fill markers stroke"/>
</svg>
