<svg xmlns="http://www.w3.org/2000/svg" width="100" height="100">
  <style>:root {--ctp-rosewater: #f5e0dc;--ctp-flamingo: #f2cdcd;--ctp-pink: #f5c2e7;--ctp-mauve: #cba6f7;--ctp-red: #f38ba8;--ctp-maroon: #eba0ac;--ctp-peach: #fab387;--ctp-yellow: #f9e2af;--ctp-green: #a6e3a1;--ctp-teal: #94e2d5;--ctp-sky: #89dceb;--ctp-sapphire: #74c7ec;--ctp-blue: #89b4fa;--ctp-lavender: #b4befe;--ctp-text: #cdd6f4;--ctp-overlay1: #7f849c;}</style>
    <path fill="none" stroke="var(--ctp-overlay1)" stroke-linecap="round" stroke-linejoin="round" stroke-width="5" d="M53.846 4.143 87.791 23.74a7.686 7.686 0 0 1 3.846 6.662v39.196a7.689 7.689 0 0 1-3.846 6.662L53.846 95.858a7.688 7.688 0 0 1-7.692 0L12.209 76.26a7.686 7.686 0 0 1-3.846-6.662V30.402a7.693 7.693 0 0 1 3.846-6.662L46.154 4.143a7.687 7.687 0 0 1 7.692 0z"/>
    <path fill="none" stroke="var(--ctp-text)" stroke-linecap="round" stroke-linejoin="round" stroke-width="5" d="M68.13 67.213a25 25 0 0 1-27.303 6.043A25 25 0 0 1 25 50.201a25 25 0 0 1 15.454-23.307 25 25 0 0 1 27.397 5.604"/>
</svg>
