<svg xmlns="http://www.w3.org/2000/svg" width="100" height="100" viewBox="0 0 100 100">
<style>:root {--ctp-rosewater: #f5e0dc;--ctp-flamingo: #f2cdcd;--ctp-pink: #f5c2e7;--ctp-mauve: #cba6f7;--ctp-red: #f38ba8;--ctp-maroon: #eba0ac;--ctp-peach: #fab387;--ctp-yellow: #f9e2af;--ctp-green: #a6e3a1;--ctp-teal: #94e2d5;--ctp-sky: #89dceb;--ctp-sapphire: #74c7ec;--ctp-blue: #89b4fa;--ctp-lavender: #b4befe;--ctp-text: #cdd6f4;--ctp-overlay1: #7f849c;}</style>
    <defs>
        <linearGradient id="a" x1="3.843" x2="28.148" y1="28.15" y2="3.845" gradientTransform="translate(-7.154 -7.15) scale(3.57177)" gradientUnits="userSpaceOnUse">
            <stop offset="0" stop-color="var(--ctp-sapphire)"/>
            <stop offset="1" stop-color="var(--ctp-blue)"/>
        </linearGradient>
    </defs>
    <path fill="none" stroke="var(--ctp-sky)" stroke-linecap="round" stroke-linejoin="round" stroke-width="4.996" d="M96.5 55.97c1.117 1.1 1.07 1.697-.023 2.752-3.732 3.617-7.397 7.333-11.072 11.024-.627.631-1.082 1.117-1.975.217Q66.855 53.253 50.22 36.61 40.077 26.552 29.924 16.505c-.651-.641-.576-1.076.038-1.697q5.914-5.856 11.77-11.777c.727-.736 1.171-.608 1.83.058q7.217 7.315 14.488 14.59c1.313 1.269 2.62 2.548 3.943 3.804.53.502.94 1.194 1.795 1.225q9.823-9.8 19.632-19.616c.73-.733 1.191-.835 1.978-.037A637.701 637.701 0 0 0 96.79 14.337c1.001.96.9 1.48-.03 2.395-6.149 6.064-12.199 12.215-18.38 18.255-1.273 1.239-1.127 1.846.053 3.003 6.064 5.948 12.009 12.025 18.069 17.98zm-46.74 7.441a2.114 2.114 0 0 0-.227-.339q-16.426-16.43-32.842-32.876c-.834-.835-1.32-.818-2.134 0A622.127 622.127 0 0 1 3.36 41.393c-1.08 1.039-.937 1.599.05 2.572C9.46 49.937 15.41 56.008 21.48 61.95c1.228 1.208 1.188 1.863-.024 3.054C15.348 71.008 9.35 77.126 3.272 83.166c-.89.882-1.127 1.412-.082 2.426A490.434 490.434 0 0 1 14.35 96.82c.882.916 1.357.902 2.25 0q6.25-6.39 12.636-12.653a94.865 94.865 0 0 1 7.366-7.126l5.327 5.307q7.238 7.262 14.462 14.54c.678.678 1.177.702 1.866 0q5.85-5.9 11.754-11.744c.627-.62.634-1.055 0-1.696Q59.865 73.462 49.76 63.41Z"/>
</svg>
