<svg xmlns="http://www.w3.org/2000/svg" width="100" height="100" viewBox="0 0 100 100">
<style>:root {--ctp-rosewater: #f5e0dc;--ctp-flamingo: #f2cdcd;--ctp-pink: #f5c2e7;--ctp-mauve: #cba6f7;--ctp-red: #f38ba8;--ctp-maroon: #eba0ac;--ctp-peach: #fab387;--ctp-yellow: #f9e2af;--ctp-green: #a6e3a1;--ctp-teal: #94e2d5;--ctp-sky: #89dceb;--ctp-sapphire: #74c7ec;--ctp-blue: #89b4fa;--ctp-lavender: #b4befe;--ctp-text: #cdd6f4;--ctp-overlay1: #7f849c;}</style>
    <path fill="none" stroke="var(--ctp-peach)" stroke-linecap="round" stroke-linejoin="round" stroke-width="5" d="M26.243 83.679V56.025l23.703 11.852V95.53z"/>
    <path fill="none" stroke="var(--ctp-peach)" stroke-linecap="round" stroke-linejoin="round" stroke-width="5" d="M2.57 71.856V44.203l23.702 11.851v27.654z"/>
    <path fill="none" stroke="var(--ctp-peach)" stroke-linecap="round" stroke-linejoin="round" stroke-width="5" d="M26.243 56.054V28.401l23.703 11.851v27.654zM73.649 83.679V56.025L49.946 67.877V95.53zM97.418 69.215V42.88L73.715 56.047v26.337z"/>
    <path fill="none" stroke="var(--ctp-peach)" stroke-linecap="round" stroke-linejoin="round" stroke-width="5" d="M73.649 56.054V28.401L49.946 40.252v27.654zM97.418 42.835V16.498L73.715 29.666v26.337zM49.946 40.064 26.243 28.213 49.946 16.36l23.703 11.852ZM73.728 28.173 50.025 16.322 73.728 4.47l23.703 11.852ZM26.272 56.084 2.57 44.232l23.703-11.851v15.802Z"/>
</svg>
