<svg xmlns="http://www.w3.org/2000/svg" width="100" height="100">
  <style>:root {--ctp-rosewater: #f5e0dc;--ctp-flamingo: #f2cdcd;--ctp-pink: #f5c2e7;--ctp-mauve: #cba6f7;--ctp-red: #f38ba8;--ctp-maroon: #eba0ac;--ctp-peach: #fab387;--ctp-yellow: #f9e2af;--ctp-green: #a6e3a1;--ctp-teal: #94e2d5;--ctp-sky: #89dceb;--ctp-sapphire: #74c7ec;--ctp-blue: #89b4fa;--ctp-lavender: #b4befe;--ctp-text: #cdd6f4;--ctp-overlay1: #7f849c;}</style>
    <path fill="none" stroke="var(--ctp-peach)" stroke-linecap="round" stroke-linejoin="round" stroke-width="4.50623" d="M23.658 73.64V48.716l21.362 10.68V84.32z"/>
    <path fill="none" stroke="var(--ctp-peach)" stroke-linecap="round" stroke-linejoin="round" stroke-width="4.50623" d="M2.322 62.985V38.062l21.362 10.681v24.923z"/>
    <path fill="none" stroke="var(--ctp-peach)" stroke-linecap="round" stroke-linejoin="round" stroke-width="4.50623" d="M23.658 48.743V23.821L45.02 34.5v24.923z"/>
    <path fill="none" stroke="var(--ctp-peach)" stroke-linecap="round" stroke-linejoin="round" stroke-width="4.50623" d="M66.382 51.832v-3.115L45.02 59.397V84.32l8.011-4.005"/>
    <path fill="none" stroke="var(--ctp-peach)" stroke-linecap="round" stroke-linejoin="round" stroke-width="4.50623" d="M87.804 45.77v-8.901L66.442 48.737"/>
    <path fill="none" stroke="var(--ctp-peach)" stroke-linecap="round" stroke-linejoin="round" stroke-width="4.50623" d="M66.382 48.743V23.821L45.02 34.5v24.923zM87.804 36.83V13.092L66.442 24.961v23.736zM45.02 34.332l-21.362-10.68L45.02 12.97l21.362 10.681ZM66.454 23.615l-21.362-10.68L66.454 2.252l21.362 10.681ZM23.684 48.77 2.322 38.087l21.362-10.68v14.24z"/>
    <path fill="none" stroke="var(--ctp-overlay1)" stroke-width="5" d="M70.329 73.289v-8.88a8.88 8.88 0 0 1 17.759 0v8.88m-23.679 0h29.599a2.96 2.96 0 0 1 2.96 2.96v17.759a2.96 2.96 0 0 1-2.96 2.96H64.409a2.96 2.96 0 0 1-2.96-2.96v-17.76a2.96 2.96 0 0 1 2.96-2.96z"/>
</svg>
