<svg xmlns="http://www.w3.org/2000/svg" width="100" height="100">
<style>:root {--ctp-rosewater: #f5e0dc;--ctp-flamingo: #f2cdcd;--ctp-pink: #f5c2e7;--ctp-mauve: #cba6f7;--ctp-red: #f38ba8;--ctp-maroon: #eba0ac;--ctp-peach: #fab387;--ctp-yellow: #f9e2af;--ctp-green: #a6e3a1;--ctp-teal: #94e2d5;--ctp-sky: #89dceb;--ctp-sapphire: #74c7ec;--ctp-blue: #89b4fa;--ctp-lavender: #b4befe;--ctp-text: #cdd6f4;--ctp-overlay1: #7f849c;}</style>
    <path fill="none" stroke="var(--ctp-red)" stroke-linecap="round" stroke-linejoin="round" stroke-width="5" d="M55.055 4.92a7.15 7.15 0 0 0-10.11 0l-6.79 6.79h-9.603a7.15 7.15 0 0 0-7.149 7.15v9.602l-6.79 6.79a7.15 7.15 0 0 0 0 10.11l6.79 6.79v9.602a7.15 7.15 0 0 0 7.15 7.15h7.149V97.5L50 83.202 64.298 97.5V68.904h7.15a7.15 7.15 0 0 0 7.149-7.15v-9.602l6.79-6.79a7.148 7.148 0 0 0 0-10.11l-6.79-6.79v-9.603a7.15 7.15 0 0 0-7.15-7.15h-9.602z" clip-rule="evenodd"/>
    <path fill="none" stroke="var(--ctp-peach)" stroke-linecap="round" stroke-linejoin="round" stroke-width="5" d="M50 54.452c7.897 0 14.298-6.402 14.298-14.298 0-7.897-6.401-14.299-14.298-14.299s-14.298 6.402-14.298 14.299c0 7.896 6.401 14.298 14.298 14.298z" clip-rule="evenodd"/>
</svg>
