<svg xmlns="http://www.w3.org/2000/svg" width="100" height="100">
<style>:root {--ctp-rosewater: #f5e0dc;--ctp-flamingo: #f2cdcd;--ctp-pink: #f5c2e7;--ctp-mauve: #cba6f7;--ctp-red: #f38ba8;--ctp-maroon: #eba0ac;--ctp-peach: #fab387;--ctp-yellow: #f9e2af;--ctp-green: #a6e3a1;--ctp-teal: #94e2d5;--ctp-sky: #89dceb;--ctp-sapphire: #74c7ec;--ctp-blue: #89b4fa;--ctp-lavender: #b4befe;--ctp-text: #cdd6f4;--ctp-overlay1: #7f849c;}</style>
    <path fill="none" stroke="var(--ctp-red)" stroke-linecap="round" stroke-linejoin="round" stroke-width="5" d="m89.304 53.015-39.26 38.883-39.26-38.883a26.173 26.173 0 1 1 39.26-34.371 26.173 26.173 0 1 1 39.26 34.402"/>
    <path fill="none" stroke="var(--ctp-red)" stroke-linecap="round" stroke-linejoin="round" stroke-width="5" d="M50.043 18.612 32.806 35.85a5.235 5.235 0 0 0 0 7.402l2.842 2.842c3.612 3.612 9.475 3.612 13.087 0l5.234-5.234a16.657 16.657 0 0 1 23.557 0l11.778 11.778M52.66 68.342l10.47 10.47m2.617-23.557 10.469 10.47"/>
</svg>
