<svg xmlns="http://www.w3.org/2000/svg" width="100" height="100">
  <style>:root {--ctp-rosewater: #f5e0dc;--ctp-flamingo: #f2cdcd;--ctp-pink: #f5c2e7;--ctp-mauve: #cba6f7;--ctp-red: #f38ba8;--ctp-maroon: #eba0ac;--ctp-peach: #fab387;--ctp-yellow: #f9e2af;--ctp-green: #a6e3a1;--ctp-teal: #94e2d5;--ctp-sky: #89dceb;--ctp-sapphire: #74c7ec;--ctp-blue: #89b4fa;--ctp-lavender: #b4befe;--ctp-text: #cdd6f4;--ctp-overlay1: #7f849c;}</style>
    <path fill="none" stroke="var(--ctp-peach)" stroke-linecap="round" stroke-linejoin="round" stroke-width="5" d="M9.192 35.035c24.708 12.387 67.493 11.548 87.93 0-3.556 11.733-12.155 37.865-20.9 46.387-8.746 8.521-12.5 8.32-20.645 8.665-8.143.345-15.547.507-25.231-8.156-9.684-8.664-19.517-29.224-21.155-46.896Z"/>
    <path fill="none" stroke="var(--ctp-peach)" stroke-linecap="round" stroke-linejoin="round" stroke-width="5" d="M9.07 24.062c24.731 12.4 67.56 11.56 88.015 0m-58.03-13.225c-5.452-2.621-12.193.191-12.516 4.353-.327 4.202 7.66 4.58 11.87 4.366 4.244-.217 7.72-3.573 11.46-5.594 4.575-2.473 9.143-3.582 13.779-2.866 3.764.583 10.422 1.312 9.96 5.594-.595 5.513-13.52 5.987-16.27 3.707m-46.72 26.789C-1.916 58.851-.249 76.114 23.414 75.58"/>
</svg>
