<svg xmlns="http://www.w3.org/2000/svg" width="100" height="100">
  <style>:root {--ctp-rosewater: #f5e0dc;--ctp-flamingo: #f2cdcd;--ctp-pink: #f5c2e7;--ctp-mauve: #cba6f7;--ctp-red: #f38ba8;--ctp-maroon: #eba0ac;--ctp-peach: #fab387;--ctp-yellow: #f9e2af;--ctp-green: #a6e3a1;--ctp-teal: #94e2d5;--ctp-sky: #89dceb;--ctp-sapphire: #74c7ec;--ctp-blue: #89b4fa;--ctp-lavender: #b4befe;--ctp-text: #cdd6f4;--ctp-overlay1: #7f849c;}</style>
    <path fill="none" stroke="var(--ctp-green)" stroke-linecap="round" stroke-linejoin="round" stroke-width="5" d="M91.941 44.798C91.888 73.696 68.488 97.15 39.59 97.202V85.37l-.052-.051C17.132 79.507 3.624 56.682 9.384 34.276A41.886 41.886 0 0 1 60.374 4.12c18.48 4.764 31.566 21.622 31.566 40.73zM42.207 29.145 39.59 23.91m18.323 36.646 2.618 5.235M34.354 52.703l-5.236 2.618m15.706 5.235-2.618 5.235m13.088-36.646 2.618-5.235M71 52.703l-5.236-2.618m-31.41-10.47-5.236-2.618"/>
</svg>
