<svg xmlns="http://www.w3.org/2000/svg" width="100" height="100" viewBox="0 0 100 100">
<style>:root {--ctp-rosewater: #f5e0dc;--ctp-flamingo: #f2cdcd;--ctp-pink: #f5c2e7;--ctp-mauve: #cba6f7;--ctp-red: #f38ba8;--ctp-maroon: #eba0ac;--ctp-peach: #fab387;--ctp-yellow: #f9e2af;--ctp-green: #a6e3a1;--ctp-teal: #94e2d5;--ctp-sky: #89dceb;--ctp-sapphire: #74c7ec;--ctp-blue: #89b4fa;--ctp-lavender: #b4befe;--ctp-text: #cdd6f4;--ctp-overlay1: #7f849c;}</style>
    <path fill="none" stroke="var(--ctp-green)" stroke-linecap="round" stroke-linejoin="round" stroke-width="5" d="M85.838 30.503v32.122c0 11.068-.81 16.377-3.238 20.965-2.25 4.41-5.22 7.2-11.339 10.258L58.394 87.73c6.118-2.88 9.088-5.398 10.978-9.268 1.98-3.96 2.61-8.548 2.61-20.606V30.503ZM57.892 6.152v64.14c-7.108 1.35-12.327 1.89-17.996 1.89-16.915 0-25.734-7.648-25.734-22.315 0-14.128 9.359-23.305 23.845-23.305 2.25 0 3.959.18 6.028.72V6.153h13.858ZM39.356 37.72c-7.018 0-11.067 4.319-11.067 11.876 0 7.38 3.869 11.43 10.978 11.43 1.53 0 2.79-.091 4.768-.36V38.437c-1.618-.538-2.968-.718-4.679-.718ZM85.838 6.226v14.218H71.983V6.226H85.84z"/>
</svg>
