<svg xmlns="http://www.w3.org/2000/svg" width="100" height="100">
<style>:root {--ctp-rosewater: #f5e0dc;--ctp-flamingo: #f2cdcd;--ctp-pink: #f5c2e7;--ctp-mauve: #cba6f7;--ctp-red: #f38ba8;--ctp-maroon: #eba0ac;--ctp-peach: #fab387;--ctp-yellow: #f9e2af;--ctp-green: #a6e3a1;--ctp-teal: #94e2d5;--ctp-sky: #89dceb;--ctp-sapphire: #74c7ec;--ctp-blue: #89b4fa;--ctp-lavender: #b4befe;--ctp-text: #cdd6f4;--ctp-overlay1: #7f849c;}</style>
    <path fill="none" stroke="var(--ctp-rosewater)" stroke-linecap="round" stroke-linejoin="round" stroke-width="5" d="M19.769 39.24c1.664.514 3.359 1.052 4.845 1.962 1.811 1.11 3.67 2.383 4.814 4.172.69 1.08 1.213 2.422 1.066 3.696-.166 1.428-.944 2.923-2.112 3.763-1.498 1.077-3.594.966-5.439 1.03-2.14.073-4.287-.306-6.38-.759-1.558-.337-3.076-.861-4.558-1.447-1.594-.63-3.202-1.284-4.639-2.217-1.342-.872-2.816-1.752-3.654-3.116-.628-1.024-1.008-2.314-.845-3.505.177-1.285.9-2.571 1.9-3.398 1.305-1.08 3.142-1.38 4.82-1.603 1.639-.218 3.313.056 4.951.28 1.768.241 3.526.614 5.23 1.141z" paint-order="fill markers stroke"/>
    <path fill="none" stroke="var(--ctp-rosewater)" stroke-linecap="round" stroke-linejoin="round" stroke-width="5" d="M44.685 50.52c1.563.093 3.113.365 4.655.643 1.699.305 3.408.607 5.055 1.123 1.82.57 3.709 1.11 5.297 2.167 1.292.859 2.766 1.83 3.29 3.29.382 1.062.16 2.35-.32 3.37-.549 1.164-1.635 2.053-2.73 2.73-1.294.8-2.82 1.272-4.333 1.444-1.388.157-2.787-.22-4.173-.401-1.775-.233-3.558-.455-5.296-.883-1.997-.491-4.087-.884-5.859-1.926-1.224-.72-2.347-1.705-3.13-2.89-.438-.663-.666-1.463-.802-2.246-.17-.976-.31-2.03 0-2.97.24-.726.79-1.34 1.364-1.845.782-.689 1.723-1.253 2.729-1.525 1.368-.37 2.837-.164 4.253-.08z" paint-order="fill markers stroke"/>
    <path fill="none" stroke="var(--ctp-rosewater)" stroke-linecap="round" stroke-linejoin="round" stroke-width="5" d="M17.797 36.205s2.132-4.29 3.779-5.977c1.38-1.413 3.188-2.354 4.929-3.286a30.565 30.565 0 0 1 5.377-2.24 29.416 29.416 0 0 1 5.377-1.12c2.474-.28 4.988-.375 7.467-.15 2.48.226 4.959.7 7.32 1.494 2.536.852 5.018 1.977 7.238 3.471 1.842 1.24 3.471 2.806 4.929 4.48 1.814 2.087 3.365 4.418 4.673 6.853 1.232 2.292 2.322 4.701 2.95 7.226.602 2.428.892 4.97.746 7.468-.135 2.315-.791 4.586-1.494 6.796a36.217 36.217 0 0 1-2.613 6.198c-.8 1.486-1.818 2.845-2.813 4.208-1.023 1.402-2.081 2.785-3.242 4.076-1.598 1.778-3.284 3.49-5.109 5.035-2.635 2.23-5.4 4.345-8.39 6.07-3.656 2.107-7.59 3.732-11.562 5.157-3.845 1.38-7.76 2.75-11.812 3.26-2.918.369-5.942.443-8.82-.161-2.506-.527-4.988-1.498-7.09-2.962-1.8-1.254-3.224-3.022-4.485-4.818-.602-.857-1.07-1.813-1.437-2.794-.458-1.219-.738-2.505-.94-3.79-.182-1.155-.229-2.33-.242-3.498-.013-1.096.056-2.193.149-3.286.119-1.4.229-2.808.523-4.182.338-1.578.884-3.107 1.419-4.63.692-1.971 1.428-3.933 2.315-5.825.95-2.027 3.21-5.9 3.21-5.9" paint-order="fill markers stroke"/>
    <path fill="none" stroke="var(--ctp-rosewater)" stroke-linecap="round" stroke-linejoin="round" stroke-width="5" d="M28.308 25.354c-.141-1.303-.426-2.598-.423-3.908.005-1.559.13-3.14.528-4.647.24-.907.654-1.767 1.11-2.587.582-1.05 1.254-2.066 2.059-2.958.903-1 1.995-1.817 3.063-2.64.862-.664 1.733-1.335 2.693-1.848 1.086-.581 2.253-1.016 3.432-1.373 1.309-.396 2.651-.729 4.013-.845.948-.08 1.923-.098 2.852.106.894.196 1.76.568 2.535 1.056a7.991 7.991 0 0 1 2.006 1.795c.644.817 1.225 1.738 1.479 2.746.172.683.082 1.413 0 2.112a17.199 17.199 0 0 1-.95 4.014c-.293.781-.733 1.502-1.162 2.218-.9 1.498-1.972 2.886-2.958 4.33" paint-order="fill markers stroke"/>
    <path fill="none" stroke="var(--ctp-rosewater)" stroke-linecap="round" stroke-linejoin="round" stroke-width="5" d="M71.003 40.072s2.41-3.452 4.038-4.738c1.458-1.151 3.16-2.088 4.964-2.535 2.615-.647 5.469-.766 8.08-.105 2.032.514 3.993 1.597 5.491 3.063 1.517 1.484 2.538 3.482 3.222 5.491.543 1.596.765 3.337.633 5.017-.133 1.7-.551 3.448-1.425 4.911-1.38 2.308-3.624 4.012-5.756 5.65-1.865 1.433-3.904 2.684-6.073 3.591-1.78.745-3.686 1.21-5.598 1.479-1.726.242-5.227.105-5.227.105" paint-order="fill markers stroke"/>
</svg>
