<svg xmlns="http://www.w3.org/2000/svg" width="100" height="100" viewBox="0 0 100 100">
<style>:root {--ctp-rosewater: #f5e0dc;--ctp-flamingo: #f2cdcd;--ctp-pink: #f5c2e7;--ctp-mauve: #cba6f7;--ctp-red: #f38ba8;--ctp-maroon: #eba0ac;--ctp-peach: #fab387;--ctp-yellow: #f9e2af;--ctp-green: #a6e3a1;--ctp-teal: #94e2d5;--ctp-sky: #89dceb;--ctp-sapphire: #74c7ec;--ctp-blue: #89b4fa;--ctp-lavender: #b4befe;--ctp-text: #cdd6f4;--ctp-overlay1: #7f849c;}</style>
    <path fill="none" stroke="var(--ctp-red)" stroke-linecap="round" stroke-linejoin="round" stroke-width="5" d="M36.973 30.342c.644-8.908 6.781-14.895 13.971-14.914 7.245.02 12.476 6.006 12.655 14.914zm50.562 55.975.033.005c3.351-4.113 6.35-8.952 9.075-14.489l-15.108-8.64c-5.306 9.869-13.064 18.959-23.789 19.016-15.617-.057-21.75-15.34-21.717-35.011h58.35c.079-2.219.079-3.252 0-4.323.38-11.7-2.332-21.537-7.258-29.197l-.029.024M15.674 86.317h.008C7.902 76.873 3.35 63.838 3.357 48.28 3.35 34.522 7.126 22.697 13.618 13.698"/>
</svg>
