<svg xmlns="http://www.w3.org/2000/svg" width="100" height="100">
<style>:root {--ctp-rosewater: #f5e0dc;--ctp-flamingo: #f2cdcd;--ctp-pink: #f5c2e7;--ctp-mauve: #cba6f7;--ctp-red: #f38ba8;--ctp-maroon: #eba0ac;--ctp-peach: #fab387;--ctp-yellow: #f9e2af;--ctp-green: #a6e3a1;--ctp-teal: #94e2d5;--ctp-sky: #89dceb;--ctp-sapphire: #74c7ec;--ctp-blue: #89b4fa;--ctp-lavender: #b4befe;--ctp-text: #cdd6f4;--ctp-overlay1: #7f849c;}</style>
    <path fill="none" stroke="var(--ctp-text)" stroke-linecap="round" stroke-linejoin="round" stroke-width="5" d="M44.714 27.878v-2.974c0-7.56-7.295-7.56-7.295-7.56h-26.19c-8.729 0-8.729 9.047-8.729 9.047v48.21c0 7.436 7.773 8.056 7.773 8.056H40m54.627-37.656 1.939-7.332c1.833-8.827-7.31-9.543-7.31-9.543h-65.23s-4.886 1.207-6.747 5.588c-1.86 4.382-5.75 15.512-5.75 15.512" paint-order="fill markers stroke"/>
    <path fill="var(--ctp-yellow)" stroke="var(--ctp-yellow)" stroke-width="1.35" d="M86.283 80.537a5.869 5.869 0 0 0-3.04.867l-4.698-4.713a9.122 9.122 0 0 0 0-10.552l4.698-4.713a5.869 5.869 0 0 0 3.04.866 6.082 6.082 0 1 0-6.081-6.081 5.869 5.869 0 0 0 .866 3.04l-4.713 4.699a9.122 9.122 0 0 0-10.551 0l-4.713-4.698a5.869 5.869 0 0 0 .866-3.041 6.082 6.082 0 1 0-6.081 6.081 5.869 5.869 0 0 0 3.04-.866l4.698 4.713a9.122 9.122 0 0 0 0 10.552l-4.698 4.713a5.869 5.869 0 0 0-3.04-.867 6.082 6.082 0 1 0 6.081 6.082 5.869 5.869 0 0 0-.866-3.041l4.713-4.698a9.122 9.122 0 0 0 10.551 0l4.713 4.698a5.869 5.869 0 0 0-.866 3.04 6.082 6.082 0 1 0 6.081-6.08zm0-27.367a3.04 3.04 0 1 1-3.04 3.041 3.04 3.04 0 0 1 3.04-3.04zm-33.448 3.041a3.04 3.04 0 1 1 3.04 3.04 3.04 3.04 0 0 1-3.04-3.04zm3.04 33.448a3.04 3.04 0 1 1 3.041-3.04 3.04 3.04 0 0 1-3.04 3.04zM71.08 77.496a6.082 6.082 0 1 1 6.081-6.081 6.082 6.082 0 0 1-6.081 6.081zM86.283 89.66a3.04 3.04 0 1 1 3.041-3.04 3.04 3.04 0 0 1-3.04 3.04z"/>
</svg>
