<svg xmlns="http://www.w3.org/2000/svg" width="100" height="100">
<style>:root {--ctp-rosewater: #f5e0dc;--ctp-flamingo: #f2cdcd;--ctp-pink: #f5c2e7;--ctp-mauve: #cba6f7;--ctp-red: #f38ba8;--ctp-maroon: #eba0ac;--ctp-peach: #fab387;--ctp-yellow: #f9e2af;--ctp-green: #a6e3a1;--ctp-teal: #94e2d5;--ctp-sky: #89dceb;--ctp-sapphire: #74c7ec;--ctp-blue: #89b4fa;--ctp-lavender: #b4befe;--ctp-text: #cdd6f4;--ctp-overlay1: #7f849c;}</style>
    <path fill="none" stroke="var(--ctp-text)" stroke-linecap="round" stroke-linejoin="round" stroke-width="5" d="M24.023 28.126H78.31s9.207.248 9.207 9.543V45M40 82.656H10.272S2.5 82.036 2.5 74.601V26.39s0-9.047 8.729-9.047h26.186s7.294 0 7.294 7.56v2.974" paint-order="fill markers stroke"/>
    <path fill="none" stroke="var(--ctp-overlay1)" stroke-linecap="round" stroke-linejoin="round" stroke-width="5" d="M70.828 49.122c-3.097 0-4.196 4.73-7.255 5.804-3.058 1.073-7.762-2.394-10.156 0-2.394 2.394 1.073 7.098 0 10.156-1.073 3.059-5.804 4.158-5.804 7.255 0 3.097 4.731 4.196 5.804 7.255 1.073 3.058-2.393 7.761 0 10.156 2.393 2.395 7.099-1.064 10.156.008 3.058 1.073 4.16 5.797 7.255 5.796 3.096-.001 4.196-4.731 7.255-5.804 3.058-1.073 7.761 2.393 10.156 0 2.395-2.393-1.064-7.099.009-10.157 1.072-3.057 5.796-4.158 5.795-7.254-.001-3.096-4.73-4.196-5.804-7.255-1.073-3.058 2.394-7.762 0-10.156-2.394-2.394-7.098 1.072-10.156 0-3.059-1.073-4.158-5.804-7.255-5.804z" paint-order="fill markers stroke"/>
    <circle cx="70.828" cy="72.337" r="8.706" fill="none" stroke="var(--ctp-overlay1)" stroke-linecap="round" stroke-linejoin="round" stroke-width="5" paint-order="fill markers stroke"/>
</svg>
