<svg xmlns="http://www.w3.org/2000/svg" width="100" height="100" viewBox="0 0 100 100">
<style>:root {--ctp-rosewater: #f5e0dc;--ctp-flamingo: #f2cdcd;--ctp-pink: #f5c2e7;--ctp-mauve: #cba6f7;--ctp-red: #f38ba8;--ctp-maroon: #eba0ac;--ctp-peach: #fab387;--ctp-yellow: #f9e2af;--ctp-green: #a6e3a1;--ctp-teal: #94e2d5;--ctp-sky: #89dceb;--ctp-sapphire: #74c7ec;--ctp-blue: #89b4fa;--ctp-lavender: #b4befe;--ctp-text: #cdd6f4;--ctp-overlay1: #7f849c;}</style>
    <path fill="none" stroke="var(--ctp-text)" stroke-linecap="round" stroke-linejoin="round" stroke-width="5" d="M44.714 27.878v-2.974c0-7.56-7.295-7.56-7.295-7.56h-26.19c-8.729 0-8.729 9.047-8.729 9.047v48.21c0 7.436 7.773 8.056 7.773 8.056H40m54.627-37.656 1.939-7.332c1.833-8.827-7.31-9.543-7.31-9.543h-65.23s-4.886 1.207-6.747 5.588c-1.86 4.382-5.75 15.512-5.75 15.512" paint-order="fill markers stroke"/>
    <path fill="none" stroke="var(--ctp-overlay1)" stroke-linecap="round" stroke-linejoin="round" stroke-width="5" d="M63.676 91.024c-10.168 3.31-10.168-5.911-14.188-7.094m28.375 11.823v-8.276c0-2.364.237-3.31-1.182-4.729 6.621-.71 13.005-3.31 13.005-14.188a10.877 10.877 0 0 0-3.074-7.566 9.931 9.931 0 0 0-.236-7.567s-2.601-.71-8.276 3.074a29.084 29.084 0 0 0-14.66 0c-5.676-3.783-8.277-3.074-8.277-3.074a9.931 9.931 0 0 0-.236 7.567 10.877 10.877 0 0 0-3.074 7.566c0 10.878 6.384 13.479 13.005 14.188-1.419 1.419-1.419 2.837-1.182 4.73v8.275"/>
</svg>
