<svg xmlns="http://www.w3.org/2000/svg" width="100" height="100">
<style>:root {--ctp-rosewater: #f5e0dc;--ctp-flamingo: #f2cdcd;--ctp-pink: #f5c2e7;--ctp-mauve: #cba6f7;--ctp-red: #f38ba8;--ctp-maroon: #eba0ac;--ctp-peach: #fab387;--ctp-yellow: #f9e2af;--ctp-green: #a6e3a1;--ctp-teal: #94e2d5;--ctp-sky: #89dceb;--ctp-sapphire: #74c7ec;--ctp-blue: #89b4fa;--ctp-lavender: #b4befe;--ctp-text: #cdd6f4;--ctp-overlay1: #7f849c;}</style>
    <path fill="none" stroke="var(--ctp-text)" stroke-linecap="round" stroke-linejoin="round" stroke-width="5" d="M44.714 27.878v-2.974c0-7.56-7.295-7.56-7.295-7.56h-26.19c-8.729 0-8.729 9.047-8.729 9.047v48.21c0 7.436 7.773 8.056 7.773 8.056H40m54.627-37.656 1.939-7.332c1.833-8.827-7.31-9.543-7.31-9.543h-65.23s-4.886 1.207-6.747 5.588c-1.86 4.382-5.75 15.512-5.75 15.512" paint-order="fill markers stroke"/>
    <path fill="none" stroke="var(--ctp-mauve)" stroke-linecap="round" stroke-linejoin="round" stroke-width="5" d="m61.44 71.346-3.604-6.84-8.219 1.504m14.49 23.092s-5.669.239-8.218.09c-2.183-.127-4.525-.767-5.747-2.454-1.347-1.86-1.662-4.832-.596-6.866 1.968-3.755 8.24-15.335 8.24-15.335m18.96 18.5-4.976 6.066 4.908 5.495m10.774-25.177s4.352 7.227 5.497 9.509c.981 1.954 1.598 4.302.748 6.204-.937 2.097-3.353 3.855-5.648 3.949-4.235.173-16.227.049-16.227.049m4.34-27.55 7.705 1.481 2.49-6.934m-24.183 1.718s2.037-4.72 3.497-6.816c1.25-1.794 3.02-3.456 5.097-3.615 2.29-.176 4.987 1.109 6.164 3.082 2.172 3.64 6.935 12.506 6.935 12.506" paint-order="fill markers stroke"/>
</svg>
