<svg xmlns="http://www.w3.org/2000/svg" width="100" height="100" viewBox="0 0 100 100">
<style>:root {--ctp-rosewater: #f5e0dc;--ctp-flamingo: #f2cdcd;--ctp-pink: #f5c2e7;--ctp-mauve: #cba6f7;--ctp-red: #f38ba8;--ctp-maroon: #eba0ac;--ctp-peach: #fab387;--ctp-yellow: #f9e2af;--ctp-green: #a6e3a1;--ctp-teal: #94e2d5;--ctp-sky: #89dceb;--ctp-sapphire: #74c7ec;--ctp-blue: #89b4fa;--ctp-lavender: #b4befe;--ctp-text: #cdd6f4;--ctp-overlay1: #7f849c;}</style>
    <path fill="none" stroke="var(--ctp-text)" stroke-linecap="round" stroke-linejoin="round" stroke-width="5" d="M24.023 28.126H78.31s9.207.248 9.207 9.543V45M40 82.656H10.272S2.5 82.036 2.5 74.601V26.39s0-9.047 8.729-9.047h26.186s7.294 0 7.294 7.56v2.974" paint-order="fill markers stroke"/>
    <path fill="none" stroke="var(--ctp-yellow)" stroke-width="5" d="M70.59 49.257c-8.92 0-15.906 7.256-15.906 16.177 0 6.72 3.301 9.92 5.909 12.257 1.68 1.506 2.81 2.412 2.81 3.529v2.444c-.031 1.431-.016 2.913-.016 4.358 0 4.402 2.846 7.359 7.255 7.359 4.255 0 7.16-2.957 7.16-7.359.003-1.434.006-2.981-.023-4.358V81.22c0-1.7 1.263-2.729 3.176-4.4 2.59-2.262 5.541-5.076 5.541-11.386 0-8.921-6.986-16.177-15.906-16.177z"/>
    <path fill="none" stroke="var(--ctp-yellow)" stroke-linecap="round" stroke-linejoin="round" stroke-width="5" d="M63.745 83.401c4.907 2.592 9.538 2.207 13.998 0" paint-order="fill markers stroke"/>
</svg>
