<svg xmlns="http://www.w3.org/2000/svg" width="100" height="100" viewBox="0 0 100 100">
<style>:root {--ctp-rosewater: #f5e0dc;--ctp-flamingo: #f2cdcd;--ctp-pink: #f5c2e7;--ctp-mauve: #cba6f7;--ctp-red: #f38ba8;--ctp-maroon: #eba0ac;--ctp-peach: #fab387;--ctp-yellow: #f9e2af;--ctp-green: #a6e3a1;--ctp-teal: #94e2d5;--ctp-sky: #89dceb;--ctp-sapphire: #74c7ec;--ctp-blue: #89b4fa;--ctp-lavender: #b4befe;--ctp-text: #cdd6f4;--ctp-overlay1: #7f849c;}</style>
    <path fill="none" stroke="var(--ctp-text)" stroke-linecap="round" stroke-linejoin="round" stroke-width="5" d="M44.714 27.878v-2.974c0-7.56-7.295-7.56-7.295-7.56h-26.19c-8.729 0-8.729 9.047-8.729 9.047v48.21c0 7.436 7.773 8.056 7.773 8.056H40m54.627-37.656 1.939-7.332c1.833-8.827-7.31-9.543-7.31-9.543h-65.23s-4.886 1.207-6.747 5.588c-1.86 4.382-5.75 15.512-5.75 15.512" paint-order="fill markers stroke"/>
    <path fill="none" stroke="var(--ctp-yellow)" stroke-linecap="round" stroke-linejoin="round" stroke-width="5" d="m72.906 77.998 2.903 2.904c1.959 1.959 3.461 3.61 3.368 3.703l-9.64 9.64c-.092.092-1.744-1.41-3.702-3.368l-2.904-2.904c-1.959-1.959-3.46-3.61-3.368-3.703l9.64-9.64c.092-.092 1.744 1.41 3.703 3.368zm-15.59-15.59 2.903 2.903c1.958 1.96 3.46 3.61 3.368 3.704l-9.64 9.639c-.093.093-1.744-1.41-3.703-3.368l-2.903-2.903c-1.96-1.96-3.461-3.61-3.368-3.704l9.639-9.639c.093-.093 1.745 1.41 3.703 3.368zm31.013.168 2.903 2.903c1.959 1.959 3.461 3.61 3.368 3.703l-9.64 9.64c-.092.092-1.744-1.41-3.702-3.368l-2.904-2.904c-1.959-1.959-3.46-3.61-3.368-3.703l9.64-9.64c.092-.092 1.744 1.41 3.703 3.369zm-15.59-15.591 2.903 2.904c1.958 1.958 3.46 3.61 3.368 3.703l-9.64 9.639c-.093.093-1.744-1.41-3.703-3.368l-2.903-2.903c-1.96-1.96-3.461-3.61-3.368-3.704l9.639-9.639c.093-.093 1.744 1.41 3.703 3.368z" paint-order="fill markers stroke"/>
</svg>
