<svg xmlns="http://www.w3.org/2000/svg" width="100" height="100" viewBox="0 0 100 100">
<style>:root {--ctp-rosewater: #f5e0dc;--ctp-flamingo: #f2cdcd;--ctp-pink: #f5c2e7;--ctp-mauve: #cba6f7;--ctp-red: #f38ba8;--ctp-maroon: #eba0ac;--ctp-peach: #fab387;--ctp-yellow: #f9e2af;--ctp-green: #a6e3a1;--ctp-teal: #94e2d5;--ctp-sky: #89dceb;--ctp-sapphire: #74c7ec;--ctp-blue: #89b4fa;--ctp-lavender: #b4befe;--ctp-text: #cdd6f4;--ctp-overlay1: #7f849c;}</style>
    <path fill="none" stroke="var(--ctp-text)" stroke-linecap="round" stroke-linejoin="round" stroke-width="5" d="M24.023 28.126H78.31s9.207.248 9.207 9.543V45M40 82.656H10.272S2.5 82.036 2.5 74.601V26.39s0-9.047 8.729-9.047h26.186s7.294 0 7.294 7.56v2.974" paint-order="fill markers stroke"/>
    <path fill="none" stroke="var(--ctp-teal)" stroke-linecap="round" stroke-linejoin="round" stroke-width="5" d="m54.45 92.21-7.743-24.658c-.237-.756.278-1.592 1.15-1.866l34.462-10.82c.527-.166 1.094-.094 1.509.195l13.357 9.35c.499.349.687.949.477 1.52l-5.614 15.307c-.174.474-.597.858-1.126 1.024L56.46 93.082c-.873.275-1.774-.116-2.011-.873z"/>
    <circle cx="97.333" cy="46.247" r="6.147" fill="none" stroke="var(--ctp-teal)" stroke-linecap="round" stroke-linejoin="round" stroke-width="5" paint-order="fill markers stroke" transform="rotate(15)"/>
</svg>
