<svg xmlns="http://www.w3.org/2000/svg" width="100" height="100" viewBox="0 0 100 100">
<style>:root {--ctp-rosewater: #f5e0dc;--ctp-flamingo: #f2cdcd;--ctp-pink: #f5c2e7;--ctp-mauve: #cba6f7;--ctp-red: #f38ba8;--ctp-maroon: #eba0ac;--ctp-peach: #fab387;--ctp-yellow: #f9e2af;--ctp-green: #a6e3a1;--ctp-teal: #94e2d5;--ctp-sky: #89dceb;--ctp-sapphire: #74c7ec;--ctp-blue: #89b4fa;--ctp-lavender: #b4befe;--ctp-text: #cdd6f4;--ctp-overlay1: #7f849c;}</style>
    <path fill="none" stroke="var(--ctp-text)" stroke-linecap="round" stroke-linejoin="round" stroke-width="5" d="M44.714 27.878v-2.974c0-7.56-7.295-7.56-7.295-7.56h-26.19c-8.729 0-8.729 9.047-8.729 9.047v48.21c0 7.436 7.773 8.056 7.773 8.056H40m54.627-37.656 1.939-7.332c1.833-8.827-7.31-9.543-7.31-9.543h-65.23s-4.886 1.207-6.747 5.588c-1.86 4.382-5.75 15.512-5.75 15.512" paint-order="fill markers stroke"/>
    <path fill="none" stroke="var(--ctp-text)" stroke-linecap="round" stroke-linejoin="round" stroke-width="5" d="M63.72 83.305c1.29 3.224 3.523 4.3 7.056 4.3h-.608c3.869 0 6.448-2.094 6.448-5.235 0-2.566-1.786-3.866-4.615-5.014l-4.245-1.724c-2.472-1.004-4.036-3.056-4.036-5.303 0-2.085 2.24-3.877 4.793-4.107l1.01-.08c3.284-.296 6.446 1.638 7.093 4.267"/>
    <path fill="none" stroke="var(--ctp-red)" stroke-linecap="round" stroke-linejoin="round" stroke-width="5" d="M79.392 56.304v4.273m-26.022-3.13 1.18 38.934 31.855 1.18V55.087Z"/>
</svg>
