<svg xmlns="http://www.w3.org/2000/svg" width="100" height="100" viewBox="0 0 100 100">
<style>:root {--ctp-rosewater: #f5e0dc;--ctp-flamingo: #f2cdcd;--ctp-pink: #f5c2e7;--ctp-mauve: #cba6f7;--ctp-red: #f38ba8;--ctp-maroon: #eba0ac;--ctp-peach: #fab387;--ctp-yellow: #f9e2af;--ctp-green: #a6e3a1;--ctp-teal: #94e2d5;--ctp-sky: #89dceb;--ctp-sapphire: #74c7ec;--ctp-blue: #89b4fa;--ctp-lavender: #b4befe;--ctp-text: #cdd6f4;--ctp-overlay1: #7f849c;}</style>
    <path fill="none" stroke="var(--ctp-text)" stroke-linecap="round" stroke-linejoin="round" stroke-width="5" d="M24.023 28.126H78.31s9.207.248 9.207 9.543V45M40 82.656H10.272S2.5 82.036 2.5 74.601V26.39s0-9.047 8.729-9.047h26.186s7.294 0 7.294 7.56v2.974" paint-order="fill markers stroke"/>
    <path fill="none" stroke="var(--ctp-peach)" stroke-linecap="round" stroke-linejoin="round" stroke-width="5" d="M86.652 54.995a1.91 1.91 0 0 0-1.41-.62H51.888a1.91 1.91 0 0 0-1.903 2.08L52.89 88.93a1.91 1.91 0 0 0 1.39 1.67l13.755 3.82a1.903 1.903 0 0 0 .512.07 1.933 1.933 0 0 0 .51-.068l13.792-3.82a1.91 1.91 0 0 0 1.393-1.672l2.903-32.476a1.91 1.91 0 0 0-.492-1.46z"/>
</svg>
