<svg xmlns="http://www.w3.org/2000/svg" fill-rule="evenodd" stroke-linecap="round" stroke-linejoin="round" clip-rule="evenodd" viewBox="0 0 100 100">
<style>:root {--ctp-rosewater: #f5e0dc;--ctp-flamingo: #f2cdcd;--ctp-pink: #f5c2e7;--ctp-mauve: #cba6f7;--ctp-red: #f38ba8;--ctp-maroon: #eba0ac;--ctp-peach: #fab387;--ctp-yellow: #f9e2af;--ctp-green: #a6e3a1;--ctp-teal: #94e2d5;--ctp-sky: #89dceb;--ctp-sapphire: #74c7ec;--ctp-blue: #89b4fa;--ctp-lavender: #b4befe;--ctp-text: #cdd6f4;--ctp-overlay1: #7f849c;}</style>
    <g fill="none">
        <path stroke="var(--ctp-text)" stroke-width="5" d="M44.714 27.878v-2.974c0-7.56-7.295-7.56-7.295-7.56H11.23c-8.73 0-8.73 9.047-8.73 9.047v48.21c0 7.436 7.773 8.056 7.773 8.056h35.656m40.652-7.233 9.985-37.755c1.833-8.827-7.31-9.543-7.31-9.543H24.025s-4.885 1.207-6.746 5.588c-1.86 4.382-5.75 15.512-5.75 15.512"/>
        <g stroke="var(--ctp-blue)" stroke-miterlimit="1.5" stroke-width="10.75">
            <path d="M11.9 65.033s-1.241-16.91 11.549-24.936c0 0-8.286-12.228 0-19.036s12.645-9.145 18.736-8.634c0 0 7.247-20.251 14.643 0 0 0 9.061-7.776 7.844 17.247-.323 6.646-4.717 16.289-7.844 20.326 0 0 8.881 6.323 8.881 25.924 0 0 14.526-7.698 18.663-8.162 4.136-.463 7.724-.011 8.572 2.799s1.245 4.744-1.062 6.558c-2.308 1.813-10.589 4.258-19.484 10.194-8.894 5.936-11.77 4.105-14.208 5.576-2.438 1.472-16.058 7.342-33.033.927 0 0-15.323 4.247-14.195-6.503 0 0-10.684-12.422.938-22.28z" transform="matrix(.46496 0 0 .46496 49.856 51.46)"/>
            <path d="M27.469 94.285c-1.525-1.407.321-8.703.321-8.703s-1.252 4.723-3.116 7.525" transform="matrix(.46496 0 0 .46496 49.856 51.46)"/>
        </g>
    </g>
</svg>
