<svg xmlns="http://www.w3.org/2000/svg" width="100" height="100">
<style>:root {--ctp-rosewater: #f5e0dc;--ctp-flamingo: #f2cdcd;--ctp-pink: #f5c2e7;--ctp-mauve: #cba6f7;--ctp-red: #f38ba8;--ctp-maroon: #eba0ac;--ctp-peach: #fab387;--ctp-yellow: #f9e2af;--ctp-green: #a6e3a1;--ctp-teal: #94e2d5;--ctp-sky: #89dceb;--ctp-sapphire: #74c7ec;--ctp-blue: #89b4fa;--ctp-lavender: #b4befe;--ctp-text: #cdd6f4;--ctp-overlay1: #7f849c;}</style>
    <path fill="none" stroke="var(--ctp-text)" stroke-linecap="round" stroke-linejoin="round" stroke-width="5" d="M24.023 28.126H78.31s9.207.248 9.207 9.543V45M40 82.656H10.272S2.5 82.036 2.5 74.601V26.39s0-9.047 8.729-9.047h26.186s7.294 0 7.294 7.56v2.974" paint-order="fill markers stroke"/>
    <circle cx="84.015" cy="66.289" r="2.481" fill="none" stroke="var(--ctp-yellow)" stroke-miterlimit="10" stroke-width="5"/>
    <path fill="none" stroke="var(--ctp-green)" stroke-linecap="round" stroke-linejoin="round" stroke-width="5" d="m78.201 83.188-9.588-9.57a3.384 3.384 0 0 0-4.64-.137L51.127 84.902m18.613 8.461 13.045-13.044a3.384 3.384 0 0 1 4.559-.212l7.778 6.487"/>
    <rect width="43.995" height="37.227" x="51.127" y="56.136" fill="none" stroke="var(--ctp-sapphire)" stroke-linejoin="round" stroke-width="5" rx="5.076" ry="5.076"/>
</svg>
