<svg xmlns="http://www.w3.org/2000/svg" width="100" height="100" viewBox="0 0 100 100">
<style>:root {--ctp-rosewater: #f5e0dc;--ctp-flamingo: #f2cdcd;--ctp-pink: #f5c2e7;--ctp-mauve: #cba6f7;--ctp-red: #f38ba8;--ctp-maroon: #eba0ac;--ctp-peach: #fab387;--ctp-yellow: #f9e2af;--ctp-green: #a6e3a1;--ctp-teal: #94e2d5;--ctp-sky: #89dceb;--ctp-sapphire: #74c7ec;--ctp-blue: #89b4fa;--ctp-lavender: #b4befe;--ctp-text: #cdd6f4;--ctp-overlay1: #7f849c;}</style>
    <path fill="none" stroke="var(--ctp-text)" stroke-linecap="round" stroke-linejoin="round" stroke-width="5" d="M44.714 27.878v-2.974c0-7.56-7.295-7.56-7.295-7.56h-26.19c-8.729 0-8.729 9.047-8.729 9.047v48.21c0 7.436 7.773 8.056 7.773 8.056H40m54.627-37.656 1.939-7.332c1.833-8.827-7.31-9.543-7.31-9.543h-65.23s-4.886 1.207-6.747 5.588c-1.86 4.382-5.75 15.512-5.75 15.512" paint-order="fill markers stroke"/>
    <path fill="var(--ctp-blue)" stroke="var(--ctp-blue)" stroke-width="1.5" d="M50.533 54.593a4.331 4.331 0 0 1 4.33-4.331h31.763a4.331 4.331 0 0 1 4.33 4.331v20.212a4.331 4.331 0 0 1-4.33 4.331H70.745V76.25h15.88a1.444 1.444 0 0 0 1.444-1.444V54.593a1.444 1.444 0 0 0-1.443-1.444H54.864a1.444 1.444 0 0 0-1.444 1.444v4.331h-2.887zm20.212 30.318H92.4a1.444 1.444 0 0 0 0-2.887H70.745Zm-14.437 0a1.444 1.444 0 0 0 0 2.888h2.887a1.444 1.444 0 0 0 0-2.888zm-8.663-18.768a4.331 4.331 0 0 1 4.331-4.331h11.55a4.331 4.331 0 0 1 4.331 4.33v23.1a4.331 4.331 0 0 1-4.33 4.331h-11.55a4.331 4.331 0 0 1-4.332-4.33zm4.331-1.444a1.444 1.444 0 0 0-1.443 1.444v23.1a1.444 1.444 0 0 0 1.443 1.443h11.55a1.444 1.444 0 0 0 1.444-1.444v-23.1a1.444 1.444 0 0 0-1.444-1.443z"/>
</svg>
