<svg xmlns="http://www.w3.org/2000/svg" width="100" height="100" viewBox="0 0 100 100">
<style>:root {--ctp-rosewater: #f5e0dc;--ctp-flamingo: #f2cdcd;--ctp-pink: #f5c2e7;--ctp-mauve: #cba6f7;--ctp-red: #f38ba8;--ctp-maroon: #eba0ac;--ctp-peach: #fab387;--ctp-yellow: #f9e2af;--ctp-green: #a6e3a1;--ctp-teal: #94e2d5;--ctp-sky: #89dceb;--ctp-sapphire: #74c7ec;--ctp-blue: #89b4fa;--ctp-lavender: #b4befe;--ctp-text: #cdd6f4;--ctp-overlay1: #7f849c;}</style>
    <path fill="none" stroke="var(--ctp-text)" stroke-linecap="round" stroke-linejoin="round" stroke-width="5" d="M44.714 27.878v-2.974c0-7.56-7.295-7.56-7.295-7.56h-26.19c-8.729 0-8.729 9.047-8.729 9.047v48.21c0 7.436 7.773 8.056 7.773 8.056H40m54.627-37.656 1.939-7.332c1.833-8.827-7.31-9.543-7.31-9.543h-65.23s-4.886 1.207-6.747 5.588c-1.86 4.382-5.75 15.512-5.75 15.512" paint-order="fill markers stroke"/>
    <path fill="none" stroke="var(--ctp-pink)" stroke-linecap="round" stroke-linejoin="round" stroke-width="5" d="M60.993 67.274c5.994 3.557 10.875 2.483 15.712-.672 4.836-3.156 8.776-9.257 4.216-13.815-2.281-2.278-10.582-2.659-18.271.626-7.69 3.285-14.933 10.066-15.437 13.707-1.006 7.283 10.262 9.602 11.847 14.102 1.586 4.499.907 6.58-.672 9.41-1.578 2.831-6.365 5.417-9.074 2.27-2.71-3.15 5.418-9.169 9.663-10.84 4.243-1.671 10.127-1.309 12.015.84 1.887 2.15-.208 5.966-.084 5.966"/>
</svg>
