<svg xmlns="http://www.w3.org/2000/svg" xmlns:xlink="http://www.w3.org/1999/xlink" width="100" height="100" viewBox="0 0 100 100">
<style>:root {--ctp-rosewater: #f5e0dc;--ctp-flamingo: #f2cdcd;--ctp-pink: #f5c2e7;--ctp-mauve: #cba6f7;--ctp-red: #f38ba8;--ctp-maroon: #eba0ac;--ctp-peach: #fab387;--ctp-yellow: #f9e2af;--ctp-green: #a6e3a1;--ctp-teal: #94e2d5;--ctp-sky: #89dceb;--ctp-sapphire: #74c7ec;--ctp-blue: #89b4fa;--ctp-lavender: #b4befe;--ctp-text: #cdd6f4;--ctp-overlay1: #7f849c;}</style>
    <defs>
        <pattern xlink:href="#a" id="b" patternTransform="scale(1.21666) rotate(45 6.296 -15.2)"/>
        <pattern id="a" width="1" height="1" patternTransform="rotate(45)" patternUnits="userSpaceOnUse">
            <path fill="var(--ctp-mauve)" d="M0 0H0V1H0z"/>
        </pattern>
    </defs>
    <path fill="url(#b)" stroke="var(--ctp-mauve)" stroke-linecap="round" stroke-linejoin="round" stroke-width="5" d="m40.821 57.903.184-1.649.55-1.282.915-.916 1.283-.55 1.648-.183h1.51l1.076.037 1.02.11.965.184.91.258.856.331.8.405.744.478.69.552.634.625.58.7.523.772.469.846.414.92.358.994.304 1.067.248 1.14.193 1.214.138 1.288.082 1.361.028 1.435v.167l.183 1.65.55 1.282.916.916 1.282.55 1.65.183h1.871l1.649-.184 1.282-.55.916-.915.55-1.283.183-1.648V29.703l-.183-1.65-.55-1.282-.916-.916-1.282-.55-1.649-.182h-1.872l-1.649.183-1.282.55-.916.915c-.552.93-.505 1.922-.733 2.932.4-2.648.275-1.994-.11.305l-.138 1.287-.193 1.214-.248 1.141-.304 1.067-.358.993-.414.92-.469.846-.524.773-.58.7-.633.625-.69.552-.745.478-.8.405-.854.33-.91.258-.966.184-1.02.11-1.076.037h-1.51l-1.648-.183-1.283-.55-.916-.915-.55-1.283-.183-1.649V18.025l.184-1.649.55-1.282.915-.916 1.283-.55 1.648-.183h21.81l1.548.06 1.47.179 1.39.299 1.31.418 1.231.538 1.152.657 1.072.777.993.897.914 1.015.834 1.136.754 1.255.675 1.374.596 1.494.517 1.614.436 1.733.358 1.853.278 1.972.198 2.091.12 2.212.04 2.33v0l.182 1.65.55 1.282.916.916 1.283.55 1.648.182h1.872l1.65-.183 1.282-.55.916-.915.55-1.283.182-1.649V7.106l-.183-1.649-.55-1.282-.915-.916-1.283-.55-1.649-.183H10.452l-1.65.183-1.282.55-.916.916-.55 1.282-.182 1.649v1.759l.183 1.649.55 1.282.915.916 1.283.55 1.649.183h4.245l.517.012.49.035.463.06.437.083.41.107.384.13.357.154.331.178.305.202.278.226.251.249.225.273.199.297.172.32.146.344.119.368.093.392.066.415.04.44.013.462v63.616l-.014.463-.04.439-.065.415-.093.392-.12.368-.145.344-.172.32-.199.297-.225.273-.251.25-.278.225-.305.202-.33.178-.358.154-.384.13-.41.107-.437.083-.464.06-.49.035-.516.012h-4.245l-1.65.183-1.282.55-.916.916-.55 1.282-.182 1.65v1.758l.183 1.649.55 1.282.915.916 1.283.55 1.649.183h41.43l1.648-.183 1.283-.55.916-.916.55-1.282.183-1.649v-1.759l-.184-1.649-.55-1.282-.915-.916-1.283-.55-1.649-.183h-5.764l-.517-.012-.49-.035-.463-.06-.437-.083-.41-.107-.384-.13-.357-.154-.331-.178-.305-.202-.278-.226-.251-.249-.225-.273-.199-.297-.172-.32-.146-.344-.119-.368-.092-.392-.067-.415-.04-.44-.013-.462z"/>
</svg>
