<svg xmlns="http://www.w3.org/2000/svg" width="100" height="100">
<style>:root {--ctp-rosewater: #f5e0dc;--ctp-flamingo: #f2cdcd;--ctp-pink: #f5c2e7;--ctp-mauve: #cba6f7;--ctp-red: #f38ba8;--ctp-maroon: #eba0ac;--ctp-peach: #fab387;--ctp-yellow: #f9e2af;--ctp-green: #a6e3a1;--ctp-teal: #94e2d5;--ctp-sky: #89dceb;--ctp-sapphire: #74c7ec;--ctp-blue: #89b4fa;--ctp-lavender: #b4befe;--ctp-text: #cdd6f4;--ctp-overlay1: #7f849c;}</style>
    <pattern id="a" width="1" height="1" patternTransform="rotate(45)" patternUnits="userSpaceOnUse">
        <path fill="var(--ctp-mauve)" d="M0 0H0V1H0z"/>
    </pattern>
    <path fill="url(#a)" stroke="var(--ctp-mauve)" stroke-width="5" d="m42.456 56.496.15-1.355.452-1.054.753-.753 1.054-.452 1.355-.15h1.241l.884.03.839.09.793.152.748.211.703.272.658.333.612.393.566.454.522.514.476.574.43.636.386.695.34.756.295.817.249.877.204.937.159.998.113 1.058.068 1.12.023 1.179v.137l.15 1.355.452 1.054.753.753 1.054.452 1.355.15h1.539l1.355-.15 1.054-.452.753-.753.452-1.054.15-1.355V33.318l-.15-1.355-.452-1.054-.753-.753-1.054-.452-1.355-.15h-1.539l-1.355.15-1.054.452-.753.753-.452 1.054-.15 1.355V31.27l-.023 1.18-.068 1.119-.113 1.058-.16.998-.203.937-.25.877-.294.817-.34.756-.386.695-.43.636-.476.574-.522.514-.566.454-.612.393-.658.333-.703.272-.748.211-.793.152-.839.09-.884.03h-1.24l-1.356-.15-1.054-.452-.753-.753-.452-1.054-.15-1.355V23.72l.15-1.355.452-1.054.753-.753 1.054-.452 1.355-.15h17.925l1.273.049 1.208.147 1.143.246 1.077.343 1.012.443.946.54.882.638.816.737.75.835.686.933.62 1.032.555 1.13.49 1.228.424 1.326.36 1.424.293 1.523.229 1.62.163 1.72.098 1.817.032 1.916.151 1.355.452 1.054.753.753 1.054.452 1.355.15h1.539l1.355-.15 1.054-.452.753-.753.451-1.054.151-1.355V14.744l-.15-1.355-.452-1.054-.753-.753-1.054-.451-1.355-.151H17.494l-1.355.15-1.054.452-.753.753-.451 1.054-.151 1.355v1.446l.15 1.355.452 1.054.753.753 1.054.452 1.355.15h3.49l.424.01.403.03.38.048.36.069.337.087.316.108.294.127.272.146.25.166.228.185.207.205.185.224.163.244.142.264.12.282.097.303.076.322.055.341.033.361.01.38v52.287l-.01.38-.033.362-.055.341-.076.322-.098.303-.12.282-.14.264-.164.244-.185.224-.207.205-.228.185-.25.166-.272.146-.294.127-.316.108-.337.087-.36.069-.38.048-.403.03-.424.01h-3.49l-1.355.15-1.054.452-.753.753-.451 1.054-.151 1.355v1.446l.15 1.355.452 1.054.753.753 1.054.451 1.355.151h34.052l1.356-.15 1.054-.452.753-.753.451-1.054.15-1.355V83.81l-.15-1.355-.451-1.054-.753-.753-1.054-.452-1.356-.15h-4.738l-.424-.01-.403-.03-.38-.048-.36-.069-.337-.087-.315-.108-.294-.127-.272-.146-.25-.166-.23-.185-.206-.205-.185-.224-.163-.244-.141-.264-.12-.282-.098-.303-.076-.322-.055-.341-.032-.361-.011-.38z"/>
</svg>
