<svg xmlns="http://www.w3.org/2000/svg" width="100" height="100">
  <style>:root {--ctp-rosewater: #f5e0dc;--ctp-flamingo: #f2cdcd;--ctp-pink: #f5c2e7;--ctp-mauve: #cba6f7;--ctp-red: #f38ba8;--ctp-maroon: #eba0ac;--ctp-peach: #fab387;--ctp-yellow: #f9e2af;--ctp-green: #a6e3a1;--ctp-teal: #94e2d5;--ctp-sky: #89dceb;--ctp-sapphire: #74c7ec;--ctp-blue: #89b4fa;--ctp-lavender: #b4befe;--ctp-text: #cdd6f4;--ctp-overlay1: #7f849c;}</style>
    <path fill="none" stroke="var(--ctp-peach)" stroke-linecap="round" stroke-linejoin="round" stroke-width="5" d="M50 93.537v0m17.383-53.505H32.617m-24.356-.097v0L2.96 56.18a3.632 3.632 0 0 0 1.308 4.043L50 93.537M32.617 39.935 22.134 7.711c-.53-1.663-2.883-1.663-3.414 0L8.261 39.935m83.502.097v-.097 0L97.04 56.18a3.632 3.632 0 0 1-1.308 4.043L50 93.537m17.383-53.602L77.866 7.711c.53-1.663 2.883-1.663 3.414 0l10.483 32.224"/>
</svg>
