<svg xmlns="http://www.w3.org/2000/svg" width="100" height="100" viewBox="0 0 100 100">
<style>:root {--ctp-rosewater: #f5e0dc;--ctp-flamingo: #f2cdcd;--ctp-pink: #f5c2e7;--ctp-mauve: #cba6f7;--ctp-red: #f38ba8;--ctp-maroon: #eba0ac;--ctp-peach: #fab387;--ctp-yellow: #f9e2af;--ctp-green: #a6e3a1;--ctp-teal: #94e2d5;--ctp-sky: #89dceb;--ctp-sapphire: #74c7ec;--ctp-blue: #89b4fa;--ctp-lavender: #b4befe;--ctp-text: #cdd6f4;--ctp-overlay1: #7f849c;}</style>
    <path fill="none" stroke="var(--ctp-sapphire)" stroke-linecap="round" stroke-linejoin="round" stroke-width="4.9998" d="M97.386 47.42 68.65 50.25m28.736-2.83a29.473 29.473 0 0 1-2.656 15.093c-4.329 9.263-13.343 16.029-24.26 16.984-16.291 1.425-30.653-10.625-32.078-26.916-1.426-16.291 10.625-30.653 26.916-32.078 8.637-.756 16.731 2.276 22.644 7.72L77.92 39.112a14.766 14.766 0 0 0-11.321-3.86c-8.146.712-14.172 7.893-13.459 16.038a14.742 14.742 0 0 0 4.089 8.984c1.498 1.553 5.884 4.91 10.558 4.811 4.674-.099 9.33-1.44 12.268-4.793 0 0 4.7-5.645 3.99-11.098"/>
    <path fill="none" stroke="var(--ctp-sapphire)" stroke-linecap="round" stroke-linejoin="round" stroke-width="4.9998" d="M24.838 50.616H2.5m18.303 15.73h9.25m-18.47-31.46h18.47"/>
</svg>
