<svg xmlns="http://www.w3.org/2000/svg" width="100" height="100" viewBox="0 0 100 100">
<style>:root {--ctp-rosewater: #f5e0dc;--ctp-flamingo: #f2cdcd;--ctp-pink: #f5c2e7;--ctp-mauve: #cba6f7;--ctp-red: #f38ba8;--ctp-maroon: #eba0ac;--ctp-peach: #fab387;--ctp-yellow: #f9e2af;--ctp-green: #a6e3a1;--ctp-teal: #94e2d5;--ctp-sky: #89dceb;--ctp-sapphire: #74c7ec;--ctp-blue: #89b4fa;--ctp-lavender: #b4befe;--ctp-text: #cdd6f4;--ctp-overlay1: #7f849c;}</style>
    <path fill="none" stroke="var(--ctp-sapphire)" stroke-linecap="round" stroke-linejoin="round" stroke-width="4.9998" d="M24.838 50H2.5m18.303 15.73h9.25m-18.47-31.46h18.47"/>
    <path fill="none" stroke="var(--ctp-sapphire)" stroke-linecap="round" stroke-linejoin="round" stroke-width="5" d="M89.608 45.165a8.298 8.214 0 0 1-9.995 5.312 8.298 8.214 0 0 1-6.01-9.525 8.298 8.214 0 0 1 9.21-6.56m-30.274 1.706a8.298 8.214 0 0 1-7.38-6.259 8.298 8.214 0 0 1 3.684-8.902 8.298 8.214 0 0 1 9.694.664 8.298 8.214 0 0 1 2.41 9.32m.169.207 10.043-6.366a4.986 4.986 0 0 1 6.897 1.56l4.8 7.635m7.031 11.203 5.948 9.331c1.489 2.336.783 5.419-1.56 6.897L66.623 78.84a4.99 4.99 0 0 1-6.897-1.56L41.947 49.11a4.99 4.99 0 0 1 1.56-6.897l9.155-5.951" paint-order="fill markers stroke"/>
</svg>
