<svg xmlns="http://www.w3.org/2000/svg" width="100" height="100" viewBox="0 0 100 100">
<style>:root {--ctp-rosewater: #f5e0dc;--ctp-flamingo: #f2cdcd;--ctp-pink: #f5c2e7;--ctp-mauve: #cba6f7;--ctp-red: #f38ba8;--ctp-maroon: #eba0ac;--ctp-peach: #fab387;--ctp-yellow: #f9e2af;--ctp-green: #a6e3a1;--ctp-teal: #94e2d5;--ctp-sky: #89dceb;--ctp-sapphire: #74c7ec;--ctp-blue: #89b4fa;--ctp-lavender: #b4befe;--ctp-text: #cdd6f4;--ctp-overlay1: #7f849c;}</style>
    <path fill="none" stroke="var(--ctp-sapphire)" stroke-linecap="round" stroke-linejoin="round" stroke-width="4.975" d="m45.087 42.592-10.699 7.625c-1.337 1.017-4.737 2.173-7.641-1.334-2.904-3.508-5.413-8.706-6.304-10.866m51.284-20.372c3.438-1.715 25.785-9.249 25.785 13.89 0 15.587-10.09 20.865-17.465 27.26-4.776 4.142-8.597 7.054-8.597 24.592h-9.552c0-8.578-16.811-14.679-20.059.762h-8.406c0-8.578-16.811-14.678-20.059.763H3.822C1.148 74.427.727 50.37 20.442 38.017c-.955-1.652-1.757-5.414 2.675-7.244 5.54-2.287 23.88-8.96 41.265.763 17.384 9.722 32.14 1.506 32.945-1.016"/>
</svg>
