<svg xmlns="http://www.w3.org/2000/svg" width="100" height="100">
  <style>:root {--ctp-rosewater: #f5e0dc;--ctp-flamingo: #f2cdcd;--ctp-pink: #f5c2e7;--ctp-mauve: #cba6f7;--ctp-red: #f38ba8;--ctp-maroon: #eba0ac;--ctp-peach: #fab387;--ctp-yellow: #f9e2af;--ctp-green: #a6e3a1;--ctp-teal: #94e2d5;--ctp-sky: #89dceb;--ctp-sapphire: #74c7ec;--ctp-blue: #89b4fa;--ctp-lavender: #b4befe;--ctp-text: #cdd6f4;--ctp-overlay1: #7f849c;}</style>
    <path fill="none" stroke="var(--ctp-sapphire)" stroke-linecap="round" stroke-linejoin="round" stroke-width="5" d="M75.104 31.024c2.666 1.332 3.636 4.95 10.425 23.615 6.788 18.662-6.304 29.517-6.304 29.517s-45.82 17.9-45.82 11.806c-1.211-6.665-13.09-15.044-13.09-15.044s-3.56-4.568.393-5.475c40.11-9.214 47.245-13.378 49.548-23.471M45.77 69.11C13.362 70.95 12.38 50.642 12.555 50.066 19.989 25.374 58.457-1.414 69.043 3.41c22.396 10.612-11.195 57.94-26.426 55.417C6.332 52.82 56.921 14.455 56.921 14.455c14.627-8.95-1.294 27.804-7.516 28.757" paint-order="fill markers stroke"/>
</svg>
