<svg xmlns="http://www.w3.org/2000/svg" width="100" height="100">
<style>:root {--ctp-rosewater: #f5e0dc;--ctp-flamingo: #f2cdcd;--ctp-pink: #f5c2e7;--ctp-mauve: #cba6f7;--ctp-red: #f38ba8;--ctp-maroon: #eba0ac;--ctp-peach: #fab387;--ctp-yellow: #f9e2af;--ctp-green: #a6e3a1;--ctp-teal: #94e2d5;--ctp-sky: #89dceb;--ctp-sapphire: #74c7ec;--ctp-blue: #89b4fa;--ctp-lavender: #b4befe;--ctp-text: #cdd6f4;--ctp-overlay1: #7f849c;}</style>
    <path fill="none" stroke="var(--ctp-peach)" stroke-linecap="round" stroke-linejoin="round" stroke-width="5" d="M50.026 37.74a10.612 10.612 0 0 0-15.659-1.483c-6.159 5.491-11.28 16.623-21.001 16.623a6.605 6.605 0 0 1-3.71-11.132c-7.421 0-9.574 12.69-3.71 18.553a29.016 29.016 0 0 0 29.683 3.71 35.324 35.324 0 0 0 14.397-11.057Zm-.01 0a10.612 10.612 0 0 1 15.66-1.483C71.76 41.748 76.954 52.88 86.601 52.88a6.605 6.605 0 0 0 3.71-11.132c7.422 0 9.648 12.69 3.711 18.553a29.016 29.016 0 0 1-29.684 3.71 33.914 33.914 0 0 1-14.322-11.057Z" class="cls-1"/>
</svg>
