<svg xmlns="http://www.w3.org/2000/svg" width="100" height="100" viewBox="0 0 100 100">
<style>:root {--ctp-rosewater: #f5e0dc;--ctp-flamingo: #f2cdcd;--ctp-pink: #f5c2e7;--ctp-mauve: #cba6f7;--ctp-red: #f38ba8;--ctp-maroon: #eba0ac;--ctp-peach: #fab387;--ctp-yellow: #f9e2af;--ctp-green: #a6e3a1;--ctp-teal: #94e2d5;--ctp-sky: #89dceb;--ctp-sapphire: #74c7ec;--ctp-blue: #89b4fa;--ctp-lavender: #b4befe;--ctp-text: #cdd6f4;--ctp-overlay1: #7f849c;}</style>
    <path fill="none" stroke="var(--ctp-sapphire)" stroke-miterlimit="10" stroke-width="5" d="M50 2.503C23.77 2.503 2.503 23.769 2.503 50c0 26.23 21.266 47.497 47.497 47.497 26.23 0 47.497-21.266 47.497-47.497C97.497 23.77 76.231 2.503 50 2.503z"/>
    <path fill="none" stroke="var(--ctp-sapphire)" stroke-miterlimit="10" stroke-width="5" d="M50 2.503C36.74 2.503 24.272 23.769 24.272 50c0 26.23 12.468 47.497 25.728 47.497 13.26 0 25.728-21.266 25.728-47.497C75.728 23.77 63.26 2.503 50 2.503z"/>
    <path fill="none" stroke="var(--ctp-sapphire)" stroke-linecap="round" stroke-linejoin="round" stroke-width="5" d="M18.334 18.334c8.733 6.2 19.725 9.897 31.666 9.897 11.94 0 22.933-3.697 31.666-9.897m0 63.332c-8.733-6.2-19.725-9.897-31.666-9.897-11.94 0-22.933 3.697-31.666 9.897"/>
    <path fill="none" stroke="var(--ctp-sapphire)" stroke-miterlimit="10" stroke-width="5" d="M50 2.503v94.994M97.497 50H2.503"/>
</svg>
