<svg xmlns="http://www.w3.org/2000/svg" width="100" height="100" viewBox="0 0 100 100">
<style>:root {--ctp-rosewater: #f5e0dc;--ctp-flamingo: #f2cdcd;--ctp-pink: #f5c2e7;--ctp-mauve: #cba6f7;--ctp-red: #f38ba8;--ctp-maroon: #eba0ac;--ctp-peach: #fab387;--ctp-yellow: #f9e2af;--ctp-green: #a6e3a1;--ctp-teal: #94e2d5;--ctp-sky: #89dceb;--ctp-sapphire: #74c7ec;--ctp-blue: #89b4fa;--ctp-lavender: #b4befe;--ctp-text: #cdd6f4;--ctp-overlay1: #7f849c;}</style>
    <path fill="none" stroke="var(--ctp-text)" stroke-width="5" d="m60.49 21.955 3.048-5.278c6.095-10.557-9.74-19.7-15.836-9.143l-3.047 5.279c-6.095 10.557 9.74 19.7 15.835 9.142zm26.392 15.238 3.048-5.279c6.095-10.556-9.74-19.699-15.836-9.142l-3.047 5.278c-6.095 10.557 9.74 19.7 15.835 9.143Zm2.122 32.895 1.523-2.64c6.095-10.556-9.74-19.698-15.835-9.142l-1.524 2.64c-6.095 10.556 9.74 19.699 15.836 9.142zM30.94 36.566l1.524-2.64c6.095-10.556-9.74-19.699-15.835-9.142l-1.524 2.64C9.01 37.98 24.846 47.122 30.94 36.565zM14.92 56.453l26.2-9.81c8.035-3.01 16.82 2.063 18.231 10.527l4.605 27.594c1.483 8.879-8.04 15.486-15.841 10.982a7.61 7.61 0 0 1-2.549-2.4l-1.351-2.048a32.395 32.395 0 0 0-25.089-14.484l-2.448-.147a7.607 7.607 0 0 1-3.348-1.004c-7.801-4.504-6.84-16.055 1.59-19.21z"/>
</svg>
