<svg xmlns="http://www.w3.org/2000/svg" width="100" height="100">
  <style>:root {--ctp-rosewater: #f5e0dc;--ctp-flamingo: #f2cdcd;--ctp-pink: #f5c2e7;--ctp-mauve: #cba6f7;--ctp-red: #f38ba8;--ctp-maroon: #eba0ac;--ctp-peach: #fab387;--ctp-yellow: #f9e2af;--ctp-green: #a6e3a1;--ctp-teal: #94e2d5;--ctp-sky: #89dceb;--ctp-sapphire: #74c7ec;--ctp-blue: #89b4fa;--ctp-lavender: #b4befe;--ctp-text: #cdd6f4;--ctp-overlay1: #7f849c;}</style>
    <path fill="none" stroke="var(--ctp-yellow)" stroke-linecap="round" stroke-linejoin="round" stroke-width="5" d="m58.02 21.581 28.254-.04c5.292-.007 11.226 5.935 11.226 11.227v53.886c0 5.203-6.023 10.846-11.226 10.846H32.387c-5.203 0-11.226-5.643-11.226-10.846v-8.631" paint-order="fill markers stroke"/>
    <path fill="none" stroke="var(--ctp-yellow)" stroke-linecap="round" stroke-linejoin="round" stroke-width="5" d="M85.954 61.946s-.002-.06-.606-.607a7.03 7.03 0 0 0-1.87-1.212c-.633-.283-1.217-.402-1.869-.505-.652-.103-.963-.055-1.717-.013-.755.042-1.662.143-2.286.455-.625.312-1.33.68-1.73 1.06-.4.382-.662.752-.935 1.226a6.896 6.896 0 0 0-.657 1.566c-.14.519-.2.853-.202 1.515-.003.663.078 1.71.303 2.425.225.716.581 1.295.96 1.819.378.524.834 1.009 1.263 1.313.429.305.638.459 1.263.758.625.3 1.616.632 2.475 1.061.859.43 1.845.89 2.627 1.314.782.423 1.51.806 2.071 1.212.561.406.915.722 1.314 1.162.399.44.79.945 1.06 1.465.271.52.448.887.574 1.599.063.356.09.852.095 1.34.004.487-.014.966-.044 1.287-.06.641-.113.703-.27 1.23-.158.527-.535 1.372-.937 1.92-.402.547-.82.906-1.387 1.263a8.321 8.321 0 0 1-1.82.858c-.596.19-1.025.236-1.717.304-.691.067-1.585.13-2.425.05-.84-.08-1.843-.307-2.576-.556-.734-.248-1.283-.489-1.819-.858-.535-.37-.76-.536-1.06-.885-.401-.463-.96-1.566-.96-1.566" paint-order="fill markers stroke"/>
    <path fill="none" stroke="var(--ctp-yellow)" stroke-linecap="round" stroke-linejoin="round" stroke-width="5" d="M63.354 59.865s.052 14.375 0 21.754c-.004.573-.006 1.151-.107 1.715a5.104 5.104 0 0 1-.322 1.072c-.105.25-.244.487-.393.714-.214.327-.438.652-.714.929a4.606 4.606 0 0 1-.786.607 9 9 0 0 1-1.572.822 6.97 6.97 0 0 1-1.464.393 7.274 7.274 0 0 1-1.608.071 5.283 5.283 0 0 1-1.16-.214 6.49 6.49 0 0 1-1.501-.643c-.336-.205-.631-.474-.911-.75-.289-.285-.536-.61-.786-.93-.1-.127-.286-.392-.286-.392" paint-order="fill markers stroke"/>
    <path fill="none" stroke="var(--ctp-red)" stroke-linecap="round" stroke-linejoin="round" stroke-width="5" d="M25.248 2.5C12.68 2.5 2.5 12.685 2.5 25.248a22.645 22.645 0 0 0 4.519 13.61L21.61 64.132c.085.163.17.325.274.474l.032.056.01-.005a4.084 4.084 0 0 0 3.335 1.703c1.255 0 2.35-.57 3.102-1.45l.038.02.144-.25a4.22 4.22 0 0 0 .538-.93l14.295-24.763a22.646 22.646 0 0 0 4.62-13.739c0-12.563-10.18-22.748-22.749-22.748z"/>
    <circle cx="25.25" cy="26" r="9.75" fill="none" stroke="var(--ctp-red)" stroke-linecap="round" stroke-linejoin="round" stroke-width="5" paint-order="fill markers stroke"/>
</svg>
