<svg xmlns="http://www.w3.org/2000/svg" width="100" height="100" viewBox="0 0 100 100">
<style>:root {--ctp-rosewater: #f5e0dc;--ctp-flamingo: #f2cdcd;--ctp-pink: #f5c2e7;--ctp-mauve: #cba6f7;--ctp-red: #f38ba8;--ctp-maroon: #eba0ac;--ctp-peach: #fab387;--ctp-yellow: #f9e2af;--ctp-green: #a6e3a1;--ctp-teal: #94e2d5;--ctp-sky: #89dceb;--ctp-sapphire: #74c7ec;--ctp-blue: #89b4fa;--ctp-lavender: #b4befe;--ctp-text: #cdd6f4;--ctp-overlay1: #7f849c;}</style>
    <path fill="none" stroke="var(--ctp-yellow)" stroke-linecap="round" stroke-linejoin="round" stroke-width="5" d="m16.667 3.062 66.666-.049c6.548-.005 13.89 7.342 13.89 13.889v66.667c0 6.437-7.452 13.418-13.89 13.418H16.667c-6.438 0-13.89-6.981-13.89-13.418V16.902c0-6.536 7.354-13.835 13.89-13.84z" paint-order="fill markers stroke"/>
    <path fill="none" stroke="var(--ctp-yellow)" stroke-linecap="round" stroke-linejoin="round" stroke-width="5" d="M57.21 57.43s-.002-.065-.654-.654a7.586 7.586 0 0 0-2.017-1.308c-.684-.305-1.314-.434-2.017-.545-.703-.111-1.04-.06-1.853-.014-.814.046-1.793.155-2.467.49-.674.337-1.435.735-1.867 1.146-.432.41-.713.81-1.009 1.322a7.44 7.44 0 0 0-.708 1.69c-.152.56-.215.92-.218 1.635-.003.714.084 1.844.327 2.616s.627 1.397 1.036 1.963c.408.565.9 1.089 1.362 1.417.463.329.689.495 1.363.818.674.323 1.744.681 2.671 1.145.927.463 1.99.96 2.835 1.417.844.457 1.63.87 2.235 1.308.605.438.987.78 1.417 1.254.43.474.853 1.02 1.145 1.58.291.562.483.958.619 1.726.068.384.098.92.102 1.446.005.526-.015 1.042-.048 1.388-.064.693-.121.76-.292 1.328-.17.569-.576 1.481-1.01 2.072-.434.59-.884.978-1.497 1.362a8.98 8.98 0 0 1-1.963.927c-.643.205-1.107.254-1.853.327-.746.073-1.71.142-2.617.055a13.427 13.427 0 0 1-2.78-.6c-.791-.268-1.384-.528-1.962-.927-.578-.398-.82-.578-1.145-.954-.432-.5-1.036-1.69-1.036-1.69" paint-order="fill markers stroke"/>
    <path fill="none" stroke="var(--ctp-yellow)" stroke-linecap="round" stroke-linejoin="round" stroke-width="5" d="M32.824 55.185s.055 15.512 0 23.474c-.005.618-.007 1.242-.116 1.85a5.51 5.51 0 0 1-.347 1.157c-.113.27-.263.525-.424.77-.23.354-.473.705-.77 1.003a4.97 4.97 0 0 1-.849.655 9.711 9.711 0 0 1-1.696.887 7.522 7.522 0 0 1-1.58.424 7.849 7.849 0 0 1-1.735.077 5.7 5.7 0 0 1-1.253-.231c-.562-.17-1.117-.389-1.619-.694-.362-.22-.68-.511-.982-.81-.312-.307-.578-.657-.848-1.002-.108-.137-.309-.424-.309-.424" paint-order="fill markers stroke"/>
    <path fill="var(--ctp-blue)" stroke="var(--ctp-yellow)" stroke-linecap="round" stroke-linejoin="round" stroke-width="5" d="m68.349 85.637 16.393-29.905m0 29.905L68.35 55.732" paint-order="fill markers stroke"/>
</svg>
