<svg xmlns="http://www.w3.org/2000/svg" width="100" height="100" viewBox="0 0 100 100">
<style>:root {--ctp-rosewater: #f5e0dc;--ctp-flamingo: #f2cdcd;--ctp-pink: #f5c2e7;--ctp-mauve: #cba6f7;--ctp-red: #f38ba8;--ctp-maroon: #eba0ac;--ctp-peach: #fab387;--ctp-yellow: #f9e2af;--ctp-green: #a6e3a1;--ctp-teal: #94e2d5;--ctp-sky: #89dceb;--ctp-sapphire: #74c7ec;--ctp-blue: #89b4fa;--ctp-lavender: #b4befe;--ctp-text: #cdd6f4;--ctp-overlay1: #7f849c;}</style>
    <path fill="none" stroke="var(--ctp-yellow)" stroke-linecap="round" stroke-linejoin="round" stroke-width="5" d="M44.599 73.711H13.025c-4.878 0-10.525-5.29-10.525-10.168V13.025C2.5 8.072 8.072 2.54 13.025 2.537L63.543 2.5c4.961-.004 10.525 5.563 10.525 10.525v31.574" paint-order="fill markers stroke"/>
    <path fill="none" stroke="var(--ctp-yellow)" stroke-linecap="round" stroke-linejoin="round" stroke-width="5" d="M53.32 27.028s-.002-.056-.57-.568a6.591 6.591 0 0 0-1.752-1.137c-.594-.265-1.14-.377-1.752-.473-.611-.097-.903-.052-1.61-.012-.707.04-1.558.134-2.143.426-.586.292-1.247.638-1.622.995-.376.357-.62.704-.877 1.148a6.465 6.465 0 0 0-.615 1.468 4.7 4.7 0 0 0-.19 1.421c-.002.62.073 1.603.284 2.274.212.67.545 1.213.9 1.705.355.49.782.945 1.184 1.23.402.286.598.43 1.184.711.586.281 1.516.592 2.321.995.805.402 1.73.834 2.463 1.231.733.398 1.416.756 1.942 1.137.525.38.857.677 1.231 1.09.374.412.741.885.995 1.373.253.488.42.831.537 1.499.06.333.085.798.09 1.256.003.457-.014.906-.042 1.206-.056.602-.106.66-.254 1.154-.148.494-.5 1.286-.878 1.8-.377.512-.768.85-1.3 1.183a7.801 7.801 0 0 1-1.705.806c-.56.177-.962.22-1.61.284-.65.063-1.487.123-2.274.047a11.666 11.666 0 0 1-2.415-.52c-.688-.234-1.203-.46-1.705-.806-.503-.346-.713-.502-.995-.829-.376-.434-.9-1.468-.9-1.468" paint-order="fill markers stroke"/>
    <path fill="none" stroke="var(--ctp-yellow)" stroke-linecap="round" stroke-linejoin="round" stroke-width="5" d="M32.132 25.077s.048 13.478 0 20.395c-.004.537-.006 1.08-.1 1.608a4.787 4.787 0 0 1-.302 1.005 4.213 4.213 0 0 1-.369.67c-.2.306-.41.61-.67.87-.219.22-.475.402-.736.57a8.437 8.437 0 0 1-1.474.77 6.535 6.535 0 0 1-1.373.368 6.819 6.819 0 0 1-1.507.067 4.952 4.952 0 0 1-1.088-.2 6.085 6.085 0 0 1-1.407-.604c-.315-.192-.591-.444-.854-.703-.27-.267-.502-.572-.736-.87-.094-.12-.268-.37-.268-.37" paint-order="fill markers stroke"/>
    <path fill="none" stroke="var(--ctp-overlay1)" stroke-linecap="round" stroke-linejoin="round" stroke-width="5.00775" d="M76.25 55.004c-2.834 0-3.84 4.33-6.639 5.312-2.799.982-7.104-2.191-9.295 0-2.191 2.19.982 6.496 0 9.295-.982 2.8-5.312 3.805-5.312 6.64 0 2.834 4.33 3.84 5.312 6.639.982 2.799-2.19 7.103 0 9.295s6.497-.974 9.295.007c2.798.982 3.806 5.305 6.64 5.304 2.833 0 3.84-4.33 6.639-5.311 2.799-.982 7.103 2.19 9.295 0s-.974-6.497.007-9.296c.982-2.798 5.305-3.806 5.304-6.639 0-2.833-4.33-3.84-5.311-6.64-.982-2.799 2.19-7.104 0-9.295-2.191-2.19-6.497.982-9.296 0-2.799-.982-3.805-5.311-6.639-5.311z" paint-order="fill markers stroke"/>
    <circle cx="76.251" cy="76.251" r="7.967" fill="none" stroke="var(--ctp-overlay1)" stroke-linecap="round" stroke-linejoin="round" stroke-width="5.00775" paint-order="fill markers stroke"/>
</svg>
