<svg xmlns="http://www.w3.org/2000/svg" width="100" height="100">
  <style>:root {--ctp-rosewater: #f5e0dc;--ctp-flamingo: #f2cdcd;--ctp-pink: #f5c2e7;--ctp-mauve: #cba6f7;--ctp-red: #f38ba8;--ctp-maroon: #eba0ac;--ctp-peach: #fab387;--ctp-yellow: #f9e2af;--ctp-green: #a6e3a1;--ctp-teal: #94e2d5;--ctp-sky: #89dceb;--ctp-sapphire: #74c7ec;--ctp-blue: #89b4fa;--ctp-lavender: #b4befe;--ctp-text: #cdd6f4;--ctp-overlay1: #7f849c;}</style>
    <path fill="none" stroke="var(--ctp-yellow)" stroke-linecap="round" stroke-linejoin="round" stroke-width="5" d="m16.667 3.062 66.666-.049c6.548-.005 13.89 7.342 13.89 13.889v66.667c0 6.437-7.452 13.418-13.89 13.418H16.667c-6.438 0-13.89-6.981-13.89-13.418V16.902c0-6.536 7.354-13.835 13.89-13.84z" paint-order="fill markers stroke"/>
    <path fill="none" stroke="var(--ctp-yellow)" stroke-linecap="round" stroke-linejoin="round" stroke-width="5" d="M82.937 53s-.002-.075-.75-.75a8.698 8.698 0 0 0-2.312-1.5c-.784-.35-1.506-.497-2.313-.625-.806-.128-1.192-.068-2.125-.016-.932.053-2.055.177-2.828.563-.772.385-1.645.841-2.14 1.312-.495.472-.818.93-1.157 1.516a8.53 8.53 0 0 0-.812 1.937c-.174.643-.247 1.056-.25 1.875-.003.82.096 2.115.375 3 .279.886.72 1.602 1.187 2.25.469.649 1.032 1.249 1.563 1.625.53.377.79.568 1.562.938.774.37 2 .781 3.063 1.312 1.062.532 2.282 1.101 3.25 1.625.968.525 1.869.998 2.562 1.5.694.503 1.132.894 1.625 1.438.494.544.979 1.169 1.313 1.812.334.644.554 1.098.71 1.978.078.44.112 1.055.117 1.658.005.603-.018 1.196-.055 1.592-.074.794-.14.87-.334 1.522-.196.653-.661 1.698-1.159 2.375-.498.678-1.014 1.122-1.716 1.563-.703.44-1.513.828-2.25 1.062-.738.235-1.27.292-2.125.375-.856.084-1.962.163-3 .063-1.04-.1-2.28-.38-3.188-.688-.907-.307-1.587-.605-2.25-1.062-.663-.457-.94-.663-1.312-1.094C67.692 81.583 67 80.22 67 80.22" paint-order="fill markers stroke"/>
    <path fill="none" stroke="var(--ctp-yellow)" stroke-linecap="round" stroke-linejoin="round" stroke-width="5" d="M54.978 50.426s.064 17.785 0 26.914c-.005.708-.008 1.424-.133 2.121-.081.454-.22.9-.398 1.326-.13.31-.302.602-.486.884-.264.404-.542.807-.884 1.149-.29.29-.627.53-.972.751-.616.395-1.263.75-1.945 1.017a8.624 8.624 0 0 1-1.812.486 9 9 0 0 1-1.988.088 6.536 6.536 0 0 1-1.437-.265c-.644-.195-1.28-.445-1.856-.795-.415-.254-.78-.587-1.127-.929-.357-.352-.662-.754-.972-1.149-.124-.157-.354-.486-.354-.486" paint-order="fill markers stroke"/>
</svg>
