<svg xmlns="http://www.w3.org/2000/svg" width="100" height="100" viewBox="0 0 100 100">
<style>:root {--ctp-rosewater: #f5e0dc;--ctp-flamingo: #f2cdcd;--ctp-pink: #f5c2e7;--ctp-mauve: #cba6f7;--ctp-red: #f38ba8;--ctp-maroon: #eba0ac;--ctp-peach: #fab387;--ctp-yellow: #f9e2af;--ctp-green: #a6e3a1;--ctp-teal: #94e2d5;--ctp-sky: #89dceb;--ctp-sapphire: #74c7ec;--ctp-blue: #89b4fa;--ctp-lavender: #b4befe;--ctp-text: #cdd6f4;--ctp-overlay1: #7f849c;}</style>
    <path fill="none" stroke="var(--ctp-red)" stroke-linecap="round" stroke-linejoin="round" stroke-width="4.99639" d="M48.796 35.425 36.236 4.873v0h59.776v0L82.814 35.438m-5.202.709c-3.95-6.43-7.298-12.536-11.629-19.664v0L53.416 35.826" class="cls-1"/>
    <path fill="none" stroke="var(--ctp-red)" stroke-linecap="round" stroke-linejoin="round" stroke-width="4.99639" d="M60.727 45.436h11.09" paint-order="fill markers stroke"/>
    <path fill="none" stroke="var(--ctp-red)" stroke-linecap="round" stroke-linejoin="round" stroke-width="4.99639" d="M89.213 54.775s2.374 4.344 2.238 6.723c-.136 2.379-1.587 4.438-2.822 6.353-1.235 1.914-2.194 3.143-4.203 5.253-2.009 2.11-5.208 5.134-8.055 7.122-2.848 1.987-5.587 3.197-8.873 4.786-3.286 1.59-7.667 3.533-10.857 4.67-3.19 1.136-5.35 1.65-8.172 2.335-2.823.684-5.95 1.309-8.756 1.75-2.805.443-5.602.728-8.055.935-2.454.206-4.63.318-6.655.35-2.025.032-3.638.191-5.487-.117-1.849-.308-3.863-.97-5.487-1.75-1.623-.782-2.984-1.677-4.203-2.803a14.782 14.782 0 0 1-3.035-3.852c-.87-1.565-1.52-3.648-1.985-5.487-.464-1.84-.794-3.76-.817-5.487-.023-1.728.243-3.302.584-4.787a20.449 20.449 0 0 1 1.4-4.086c.576-1.229.996-2.046 1.986-3.269.99-1.223 3.016-3.035 4.086-3.852a12.127 12.127 0 0 1 2.101-1.284m.467-.234s-.53 3.974-.35 5.954c.148 1.636.473 3.298 1.167 4.787.695 1.488 1.656 2.918 2.919 3.969 1.097.913 2.461 1.548 3.852 1.868 1.783.41 3.692.351 5.487 0 2.227-.436 4.271-1.562 6.304-2.569 1.58-.782 3.137-1.637 4.554-2.685a26.63 26.63 0 0 0 4.086-3.736c.888-1.002 1.606-2.145 2.334-3.268.712-1.098 1.318-2.26 1.985-3.386.232-.39.934-1.926.934-1.926" paint-order="fill markers stroke"/>
    <circle cx="16.256" cy="45.788" r="9.849" fill="none" stroke="var(--ctp-red)" stroke-linecap="round" stroke-linejoin="round" stroke-width="4.99639" paint-order="fill markers stroke"/>
    <circle cx="49.772" cy="45.788" r="9.849" fill="none" stroke="var(--ctp-red)" stroke-linecap="round" stroke-linejoin="round" stroke-width="4.99639" paint-order="fill markers stroke"/>
    <circle cx="82.462" cy="45.788" r="9.849" fill="none" stroke="var(--ctp-red)" stroke-linecap="round" stroke-linejoin="round" stroke-width="4.99639" paint-order="fill markers stroke"/>
</svg>
