<svg xmlns="http://www.w3.org/2000/svg" width="100" height="100" viewBox="0 0 100 100">
<style>:root {--ctp-rosewater: #f5e0dc;--ctp-flamingo: #f2cdcd;--ctp-pink: #f5c2e7;--ctp-mauve: #cba6f7;--ctp-red: #f38ba8;--ctp-maroon: #eba0ac;--ctp-peach: #fab387;--ctp-yellow: #f9e2af;--ctp-green: #a6e3a1;--ctp-teal: #94e2d5;--ctp-sky: #89dceb;--ctp-sapphire: #74c7ec;--ctp-blue: #89b4fa;--ctp-lavender: #b4befe;--ctp-text: #cdd6f4;--ctp-overlay1: #7f849c;}</style>
    <path fill="none" stroke="var(--ctp-yellow)" stroke-linecap="round" stroke-linejoin="round" stroke-width="5" d="M24.5 11.75h-7.65c-2.404 0-5.1 2.696-5.1 5.1v24.225c0 4.207-8.924 4.718-8.924 8.925 0 4.207 8.925 4.718 8.925 8.925V83.15c0 2.404 2.695 5.1 5.1 5.1h7.65M75.5 11.75h7.65c2.404 0 5.1 2.696 5.1 5.1v24.225c0 4.207 8.924 4.718 8.924 8.925 0 4.207-8.925 4.718-8.925 8.925V83.15c0 2.404-2.695 5.1-5.1 5.1H75.5" paint-order="fill markers stroke"/>
    <circle cx="50" cy="75.5" r="2.5" fill="var(--ctp-yellow)" paint-order="fill markers stroke"/>
    <circle cx="69.125" cy="75.5" r="2.5" fill="var(--ctp-yellow)" paint-order="fill markers stroke"/>
    <circle cx="30.875" cy="75.5" r="2.5" fill="var(--ctp-yellow)" paint-order="fill markers stroke"/>
</svg>
