<svg xmlns="http://www.w3.org/2000/svg" width="100" height="100" viewBox="0 0 100 100">
<style>:root {--ctp-rosewater: #f5e0dc;--ctp-flamingo: #f2cdcd;--ctp-pink: #f5c2e7;--ctp-mauve: #cba6f7;--ctp-red: #f38ba8;--ctp-maroon: #eba0ac;--ctp-peach: #fab387;--ctp-yellow: #f9e2af;--ctp-green: #a6e3a1;--ctp-teal: #94e2d5;--ctp-sky: #89dceb;--ctp-sapphire: #74c7ec;--ctp-blue: #89b4fa;--ctp-lavender: #b4befe;--ctp-text: #cdd6f4;--ctp-overlay1: #7f849c;}</style>
    <path fill="none" stroke="var(--ctp-text)" stroke-width="5" d="M73.41 33.98a6.334 6.334 0 1 0 0-12.669 6.334 6.334 0 0 0 0 12.67z"/>
    <path fill="none" stroke="var(--ctp-text)" stroke-linecap="round" stroke-linejoin="round" stroke-width="5" d="M36.452 46.098A31.48 31.48 0 0 1 48.647 8.364a31.48 31.48 0 0 1 39.44 4.139 31.48 31.48 0 0 1 4.096 39.443A31.48 31.48 0 0 1 54.436 64.1" paint-order="fill markers stroke"/>
    <path fill="none" stroke="var(--ctp-text)" stroke-linecap="round" stroke-linejoin="round" stroke-width="5" d="M36.489 46.072 2.711 79.997v16.726h14.703V85.771h16.428V73.747h10.953l9.593-9.594" paint-order="fill markers stroke"/>
</svg>
