<svg xmlns="http://www.w3.org/2000/svg" width="100" height="100" viewBox="0 0 100 100">
<style>:root {--ctp-rosewater: #f5e0dc;--ctp-flamingo: #f2cdcd;--ctp-pink: #f5c2e7;--ctp-mauve: #cba6f7;--ctp-red: #f38ba8;--ctp-maroon: #eba0ac;--ctp-peach: #fab387;--ctp-yellow: #f9e2af;--ctp-green: #a6e3a1;--ctp-teal: #94e2d5;--ctp-sky: #89dceb;--ctp-sapphire: #74c7ec;--ctp-blue: #89b4fa;--ctp-lavender: #b4befe;--ctp-text: #cdd6f4;--ctp-overlay1: #7f849c;}</style>
    <path fill="none" stroke="var(--ctp-mauve)" stroke-linecap="round" stroke-linejoin="round" stroke-width="4.99863" d="M2.5 65.33c1.333.346 2.667.642 4.05.938 2.865.593 5.236 1.087 5.334 1.136.05.1-.938 1.68-2.222 3.507-4.693 6.669-5.631 9.88-2.964 9.88.84 0 2.618-.346 4.05-.84 1.63-.494 4.594-.79 7.805-.79 6.619 0 13.238 1.63 21.585 5.334 7.953 3.507 10.57 4.347 19.758 6.174 4.199.89 7.854 1.828 8.101 2.026.247.247-.346 1.086-1.383 1.877-1.037.79-1.877 1.63-1.877 1.827 0 .198 1.087.198 2.52-.05 1.333-.197 4.395-.69 6.717-.938 7.064-.889 12.102-4.05 12.2-7.705.198-4.643-.597-11.978-1.486-12.522-3.986 4.051-7.59 3.924-11.9 4.223-5.087.247-9.977-.938-13.929-3.21-3.31-1.927-8.2-3.656-10.768-7.607-2.075-3.21-4.248-8.496-3.853-9.237.148-.198.84-.148 1.58.099 1.927.74 4.743 1.877 13.486.74 7.607-.987 14.818-.197 16.745.791 4.942 1.186 4.193 2.243 6.813 3.69 4.286-9.594 4.144-6.575 9.141-9.864 3.063-2.124 5.582-4.1 5.483-4.446-.05-.296-1.778-2.321-3.803-4.544-3.211-3.458-4.1-4.05-7.014-5.039-10.126-3.309-20.895-10.471-26.476-17.485-6.175-7.805-7.903-9.583-12.349-12.497-4.989-3.31-11.46-6.125-16.3-7.064-4.94-.938-3.557.642-1.433 3.952 7.558 8.644 7.36 8.94 7.36 14.67-.79 4.446-4.94 5.088-9.484 6.125-2.025.395-4.89.296-6.224.296-1.975 0-6.273-2.37-8.644-4.84-1.235-1.285-3.507-4.05-4.989-6.175-1.53-2.124-3.062-3.853-3.507-3.853m45.394 21.389c8.595 2.864 9.09 4.198 11.905 9.138.642 1.086 1.086 2.025 1.037 2.074-.05.05-.84.247-1.729.445-2.223.444-5.73.444-7.804 0-3.754-.79-3.92-1.482-5.483-2.816-.87-.742-1.64-1.69-2.025-2.766-.51-1.428.306-3.132-.247-4.544-.461-1.176-2.68-1.679-2.42-2.914 2.071-.655 5.32.896 6.766 1.383z"/>
</svg>
