<svg xmlns="http://www.w3.org/2000/svg" width="100" height="100" viewBox="0 0 100 100">
<style>:root {--ctp-rosewater: #f5e0dc;--ctp-flamingo: #f2cdcd;--ctp-pink: #f5c2e7;--ctp-mauve: #cba6f7;--ctp-red: #f38ba8;--ctp-maroon: #eba0ac;--ctp-peach: #fab387;--ctp-yellow: #f9e2af;--ctp-green: #a6e3a1;--ctp-teal: #94e2d5;--ctp-sky: #89dceb;--ctp-sapphire: #74c7ec;--ctp-blue: #89b4fa;--ctp-lavender: #b4befe;--ctp-text: #cdd6f4;--ctp-overlay1: #7f849c;}</style>
    <path fill="none" stroke="var(--ctp-peach)" stroke-linecap="round" stroke-linejoin="round" stroke-width="5" d="M25.796 51.474c-.09.099.936 1.515 2.773 2.612a8.976 8.976 0 0 0 3.327 1.2M35.16 33.89c-.183.197 4.105 5.667 10.413 3.302M20.91 67.903a15.43 15.43 0 0 1-.442-1.476c-.998-4.073-.354-9.153 6.213-13.18-4.862-8.926 4.862-18.65 8.273-18.941 1.742-.073-1.233-20.464 20.755-17.199m2.521 11.05c-1.164-1.044-7.049-3.934-2.514-10.195M71.383 50.38s.707-2.45.095-5.452a11.336 11.336 0 0 0-.738-2.326M38.418 73.566h36.303c4.433.492 14.786-12.026-3.12-23.512-4.079 4.656-8.155 8.804-15.21 7.723" paint-order="fill markers stroke"/>
    <circle cx="50" cy="50" r="47.5" fill="none" stroke="var(--ctp-red)" stroke-linecap="round" stroke-linejoin="round" stroke-width="5" paint-order="fill markers stroke"/>
    <path fill="none" stroke="var(--ctp-red)" stroke-linecap="round" stroke-linejoin="round" stroke-width="5" d="m16.42 83.95 67.53-67.53" paint-order="fill markers stroke"/>
</svg>
