<svg xmlns="http://www.w3.org/2000/svg" width="100" height="100" viewBox="0 0 100 100">
<style>:root {--ctp-rosewater: #f5e0dc;--ctp-flamingo: #f2cdcd;--ctp-pink: #f5c2e7;--ctp-mauve: #cba6f7;--ctp-red: #f38ba8;--ctp-maroon: #eba0ac;--ctp-peach: #fab387;--ctp-yellow: #f9e2af;--ctp-green: #a6e3a1;--ctp-teal: #94e2d5;--ctp-sky: #89dceb;--ctp-sapphire: #74c7ec;--ctp-blue: #89b4fa;--ctp-lavender: #b4befe;--ctp-text: #cdd6f4;--ctp-overlay1: #7f849c;}</style>
    <path fill="none" stroke="var(--ctp-mauve)" stroke-linecap="round" stroke-linejoin="round" stroke-width="5" d="M97.267 84.509C97.23 51.029 79.361 19.985 50.38 3.263h-.005C21.082 19.802 2.9 50.792 2.733 84.453c30.649 16.71 66.644 16.02 94.534.055ZM66.152 39.1c4.343 2.951 3.699 10.056 3 14.922-.89 5.36-6.028 14.173-12.704 19.923a7.607 7.607 0 0 1 1.356 4.39c-4.137 2.091-8.24-.267-13.204-4.519-4.965-4.252-10.32-12.771-12.097-21.527a7.15 7.15 0 0 1-4.573-1.058c.36-4.91 5.572-7.828 10.19-9.549 4.617-1.721 16.515-2.301 24.903.68a7.146 7.146 0 0 1 3.129-3.257V39.1z"/>
</svg>
