<svg xmlns="http://www.w3.org/2000/svg" width="100" height="100" viewBox="0 0 100 100">
<style>:root {--ctp-rosewater: #f5e0dc;--ctp-flamingo: #f2cdcd;--ctp-pink: #f5c2e7;--ctp-mauve: #cba6f7;--ctp-red: #f38ba8;--ctp-maroon: #eba0ac;--ctp-peach: #fab387;--ctp-yellow: #f9e2af;--ctp-green: #a6e3a1;--ctp-teal: #94e2d5;--ctp-sky: #89dceb;--ctp-sapphire: #74c7ec;--ctp-blue: #89b4fa;--ctp-lavender: #b4befe;--ctp-text: #cdd6f4;--ctp-overlay1: #7f849c;}</style>
    <path fill="none" stroke="var(--ctp-yellow)" stroke-linecap="round" stroke-linejoin="round" stroke-width="5" d="M6.232 44.41 2.496 28.664l6.405 2.67c1.751-1.773 3-3.153 7.472-5.605l4.27-8.807 7.206 5.604c4.85-1.154 9.671-2.364 15.212-2.135L50 13.72l6.939 6.672c5.541-.23 10.363.98 15.212 2.135l7.206-5.604 4.27 8.807c4.472 2.452 5.72 3.832 7.472 5.604l6.405-2.669-3.736 15.746m-8.273 6.405C82.623 41.28 67.757 32.935 50 32.935c-18.113 0-32.623 8.344-35.495 17.88"/>
    <path fill="none" stroke="var(--ctp-yellow)" stroke-linecap="round" stroke-linejoin="round" stroke-width="5" d="m89.498 52.12-4.003-1.067-7.206 9.34-9.874 2.936L50 52.921 31.585 63.329l-9.874-2.935-7.206-9.341-4.003 1.067-4.125-7.4 8.128 23.413C20.35 80.299 38.354 86.281 50 86.281c11.646 0 29.65-5.982 35.495-18.148l8.128-23.34z" color="var(--ctp-red)" enable-background="accumulate" overflow="visible" style="marker:none"/>
</svg>
