<svg xmlns="http://www.w3.org/2000/svg" width="100" height="100">
  <style>:root {--ctp-rosewater: #f5e0dc;--ctp-flamingo: #f2cdcd;--ctp-pink: #f5c2e7;--ctp-mauve: #cba6f7;--ctp-red: #f38ba8;--ctp-maroon: #eba0ac;--ctp-peach: #fab387;--ctp-yellow: #f9e2af;--ctp-green: #a6e3a1;--ctp-teal: #94e2d5;--ctp-sky: #89dceb;--ctp-sapphire: #74c7ec;--ctp-blue: #89b4fa;--ctp-lavender: #b4befe;--ctp-text: #cdd6f4;--ctp-overlay1: #7f849c;}</style>
    <path fill="none" stroke="var(--ctp-sapphire)" stroke-linecap="round" stroke-linejoin="round" stroke-width="5" d="M2.542 20.51v58.98h14.575V44.656l20.924 34.832h14.03l6.29-9.312 6.047 9.312h13.909L65.254 59.291s.177-6.405 5.861-9.55c5.685-3.144 9.918 0 9.918 0s2.54 1.935 3.145 3.629c.605 1.693 3.024 2.056 4.475 2.781 1.451.726 2.66 1.33 3.024 3.508.362 2.177 3.144 3.75 5.321 1.33 2.177-2.419-3.386-20.319-16.57-22.496C67.245 36.316 58.36 46.23 58.36 46.23l-6.531-9.071V20.51H37.92v34.548L17.117 20.51Z" paint-order="fill markers stroke"/>
    <path fill="none" stroke="var(--ctp-sapphire)" stroke-linecap="round" stroke-linejoin="round" stroke-width="5" d="M38.404 35.466h12.941" paint-order="fill markers stroke"/>
    <path fill="none" stroke="var(--ctp-sapphire)" stroke-linecap="round" stroke-linejoin="round" stroke-width="5" d="m38.041 77.796 12.7-19.23-12.724-20.697" paint-order="fill markers stroke"/>
</svg>
