<svg xmlns="http://www.w3.org/2000/svg" width="100" height="100" viewBox="0 0 100 100">
<style>:root {--ctp-rosewater: #f5e0dc;--ctp-flamingo: #f2cdcd;--ctp-pink: #f5c2e7;--ctp-mauve: #cba6f7;--ctp-red: #f38ba8;--ctp-maroon: #eba0ac;--ctp-peach: #fab387;--ctp-yellow: #f9e2af;--ctp-green: #a6e3a1;--ctp-teal: #94e2d5;--ctp-sky: #89dceb;--ctp-sapphire: #74c7ec;--ctp-blue: #89b4fa;--ctp-lavender: #b4befe;--ctp-text: #cdd6f4;--ctp-overlay1: #7f849c;}</style>
    <path fill="none" stroke="var(--ctp-peach)" stroke-linecap="round" stroke-linejoin="round" stroke-width="4.98989" d="M45.275 91.333c-.343-.664-1.679-3.356-2.33-5.11-2.121-5.718-2.517-12.046-5.105-17.567-.488-1.04-1.523-2.92-1.93-2.858-2.308 1.026-3.918 4.527-5.049 6.258a55.767 55.767 0 0 0-2.614 4.41c-1.64 3.098-3.087 6.41-3.808 9.482-.287 1.222-.739 3.646-.825 4.468l5.221-.108c4.89.343 8.632 1.373 16.186.984M85.459 8.636H14.468c-6.606-.018-11.973 5.35-11.973 11.956v26.072c1.747-.603 4.143-4.27 4.952-5.15 1.329-1.53 1.604-3.542 2.272-4.736 1.532-2.817 1.807-4.81 5.274-4.81 1.607 0 2.275.383 3.342 1.868.74.99 2.072 2.939 2.675 4.21.746 1.47 1.874 3.403 2.417 3.806.383.26.722.536 1.064.664.525.2 1.007-.2 1.413-.467.462-.4.665-1.13 1.129-2.194.665-1.549 1.346-3.28 1.732-3.945.679-1.085.945-2.416 1.67-3.02 1.086-.926 2.557-1.007 2.94-1.068 2.213-.464 3.22 1.068 4.29 2.01.723.665 1.666 1.936 2.411 3.604.526 1.331 1.193 2.614 1.535 3.342.26.728.94 1.935 1.329 3.403.403 1.27 1.343 2.278 1.747 2.942 0 0 .603 1.607 4.067 3.078 1.047.447 2.123.824 3.22 1.13 1.534.544 3.395.954 4.874.277 1.33-.609 2.059-2.152 2.675-3.478.614-1.323.72-2.833.928-4.277.093-.645-.065-1.332.143-1.95.22-.652.581-1.312 1.128-1.731 1.825-1.4 4.262-2.053 6.56-2.135 1.56-.056 3.015.83 4.548 1.128 1.724.336 3.537.227 5.216.74 1.37.417 3.027.714 3.865 1.874.802 1.108 1.232 2.886.543 4.067-.364.624-1.316.611-2.01.807-.891.251-1.84.237-2.737.464-1.958.495-4.273.559-5.738 1.95-1.232 1.168-1.052 3.253-1.889 4.731-1.409 2.489-1.674 4.23-5.196 6.827-.949.679-2.759 2.271-6.623 2.875-1.75.264-3.477.228-5.217.2-.964-.015-1.906-.17-2.886-.203-.609-.02-1.393-.058-1.782.411-.439.531-.155 1.381-.08 2.067.923 8.517 3.52 18.69 6.486 24.869v.058c1.732-.262 3.543-.927 5.82-1.251 4.207-.618 10.026-.342 13.77-.679 9.503-.867 14.635 3.881 23.133 1.932V20.58c-.047-6.606-5.416-11.959-12.037-11.959ZM19.204 71.353c.736-1.483 1.443-2.699 1.171-4.09-.181-.928-.982-1.678-1.748-2.231-1.38-.997-3.179-1.229-4.807-1.726-1.25-.382-2.539-1.303-3.801-.964-1.248.335-2.003 1.671-2.775 2.707-.544.729-.777 1.649-1.268 2.414-.926 1.443-2.333 2.56-3.142 4.073-.167.312-.2.665-.34 1.007v16.104c.805.14 1.645.381 2.473.542 2.37.46 4.73 1.17 7.145 1.21.203.004.44.04.603-.081 1.633-1.197 1.871-3.602 2.586-5.496 1.65-4.373 1.726-9.047 3.903-13.469z"/>
</svg>
