<svg xmlns="http://www.w3.org/2000/svg" width="100" height="100" viewBox="0 0 100 100">
<style>:root {--ctp-rosewater: #f5e0dc;--ctp-flamingo: #f2cdcd;--ctp-pink: #f5c2e7;--ctp-mauve: #cba6f7;--ctp-red: #f38ba8;--ctp-maroon: #eba0ac;--ctp-peach: #fab387;--ctp-yellow: #f9e2af;--ctp-green: #a6e3a1;--ctp-teal: #94e2d5;--ctp-sky: #89dceb;--ctp-sapphire: #74c7ec;--ctp-blue: #89b4fa;--ctp-lavender: #b4befe;--ctp-text: #cdd6f4;--ctp-overlay1: #7f849c;}</style>
    <path fill="none" stroke="var(--ctp-green)" stroke-linecap="round" stroke-linejoin="round" stroke-width="5" d="M77.055 39.105V37.89c0-5.346-4.337-9.682-9.683-9.682h-8.477c-6.018-.002-10.898 4.877-10.898 10.896 0 6.018 4.88 10.897 10.898 10.895h7.264c6.016.002 10.892 4.88 10.892 10.895 0 6.017-4.876 10.894-10.892 10.896h-7.264C52.878 71.791 48 66.913 48 60.895M35.473 28.077v34.736a14.53 14.53 0 0 1-8.034 12.995l-6.494 3.247M6.418 71.79V28.209L50 2.786 93.582 28.21v43.582L50 97.214Z"/>
</svg>
