<svg xmlns="http://www.w3.org/2000/svg" width="100" height="100" viewBox="0 0 100 100">
<style>:root {--ctp-rosewater: #f5e0dc;--ctp-flamingo: #f2cdcd;--ctp-pink: #f5c2e7;--ctp-mauve: #cba6f7;--ctp-red: #f38ba8;--ctp-maroon: #eba0ac;--ctp-peach: #fab387;--ctp-yellow: #f9e2af;--ctp-green: #a6e3a1;--ctp-teal: #94e2d5;--ctp-sky: #89dceb;--ctp-sapphire: #74c7ec;--ctp-blue: #89b4fa;--ctp-lavender: #b4befe;--ctp-text: #cdd6f4;--ctp-overlay1: #7f849c;}</style>
    <path fill="none" stroke="var(--ctp-yellow)" stroke-linecap="round" stroke-linejoin="round" stroke-width="5" d="M70.639 5.004c-8.7-2.553-17.575-2.9-26.619-2.073-5.06.537-9.926 1.563-14.62 3.363C19.258 10.185 11.64 16.925 7.1 27.073c-3.256 7.275-4.433 15.003-4.556 22.932-.13 8.38.899 16.644 2.533 24.836 1.48 7.427 3.453 14.708 6.27 21.736.267.667.6.893 1.315.891 8.908-.02 17.817-.02 26.725-.02h7.912c.202 0 .404-.011.636-.024.118-.007.245-.014.383-.02-.05-.13-.1-.25-.146-.362-.088-.22-.165-.412-.25-.599-.645-1.408-1.302-2.809-1.96-4.21-1.426-3.04-2.852-6.08-4.142-9.18-3.912-9.4-6.908-19.077-7.822-29.322-.403-4.52-.348-9.014.88-13.418 1.404-5.035 4.416-8.59 9.41-10.075 4.586-1.365 9.235-1.356 13.796.15 4.07 1.345 6.724 4.184 7.853 8.436.867 3.265.867 6.566.211 9.857-.505 2.535-1.522 4.848-3.352 6.698-3.283 3.319-7.383 4.082-11.782 3.827a44.353 44.353 0 0 1-2.367-.223c-.376-.042-.758-.085-1.148-.124.013.127.02.244.026.354.012.216.019.403.064.582.188.769.366 1.541.545 2.314.43 1.86.86 3.721 1.414 5.543a108.164 108.164 0 0 0 3.783 10.476c10.21-.813 19.615-3.405 29.597-9.525l.422-.27c4.288-2.726 7.758-6.263 10.151-10.83 3.876-7.394 4.632-15.302 3.48-23.465-1.188-8.424-4.89-15.494-11.262-21.04-4.42-3.848-9.53-6.367-15.077-7.994Z"/>
</svg>
