<svg xmlns="http://www.w3.org/2000/svg" width="100" height="100">
  <style>:root {--ctp-rosewater: #f5e0dc;--ctp-flamingo: #f2cdcd;--ctp-pink: #f5c2e7;--ctp-mauve: #cba6f7;--ctp-red: #f38ba8;--ctp-maroon: #eba0ac;--ctp-peach: #fab387;--ctp-yellow: #f9e2af;--ctp-green: #a6e3a1;--ctp-teal: #94e2d5;--ctp-sky: #89dceb;--ctp-sapphire: #74c7ec;--ctp-blue: #89b4fa;--ctp-lavender: #b4befe;--ctp-text: #cdd6f4;--ctp-overlay1: #7f849c;}</style>
    <path fill="none" stroke="var(--ctp-red)" stroke-linecap="round" stroke-linejoin="round" stroke-width="5" d="M12.363 95.168c13.099-8.923 21.816-22.508 28.339-39.135 6.522-16.627 13.481-30.878 10.43-47.292-.478-2.574-4.145-5.178-6.016-5.047-7.444.523-6.924 8.713-6.212 13.666C40.648 29.49 50.27 43.612 59.49 56.922c9.22 13.309 16.876 15.4 27.466 16.1 3.569.236 9.009-1.004 9.89-4.162 5.58-19.992-65.42-3.811-89.025 14.841-2.952 2.333-6.273 7.152-4.38 10.405 1.505 2.59 6.318 2.837 8.922 1.062z" paint-order="fill markers stroke"/>
</svg>
