<svg xmlns="http://www.w3.org/2000/svg" width="100" height="100" viewBox="0 0 100 100">
<style>:root {--ctp-rosewater: #f5e0dc;--ctp-flamingo: #f2cdcd;--ctp-pink: #f5c2e7;--ctp-mauve: #cba6f7;--ctp-red: #f38ba8;--ctp-maroon: #eba0ac;--ctp-peach: #fab387;--ctp-yellow: #f9e2af;--ctp-green: #a6e3a1;--ctp-teal: #94e2d5;--ctp-sky: #89dceb;--ctp-sapphire: #74c7ec;--ctp-blue: #89b4fa;--ctp-lavender: #b4befe;--ctp-text: #cdd6f4;--ctp-overlay1: #7f849c;}</style>
    <path fill="none" stroke="var(--ctp-red)" stroke-linecap="round" stroke-linejoin="round" stroke-width="5" d="M31.673 56.393c-6.422 2.201-8.545 7.792-8.545 7.792m14.09 10.125c-.224.068-.448.133-.674.194v.004C17.826 79.548 7.926 57.859 4.93 46.602c-1.387-5.198-1.99-9.136-2.152-11.674-.185-2.877 1.794-2.05 5.577-1.395 2.669.465 9.066 1.028 16.98-1.104 3.3-.887 7.977-2.461 10.988-4.078M12.11 46.756s2.937 4.241 7.923 2.929h.004c4.986-1.313 5.372-6.429 5.372-6.429"/>
    <path fill="none" stroke="var(--ctp-green)" stroke-linecap="round" stroke-linejoin="round" stroke-width="5" d="M97.217 32.113c-.22 3.299-1.013 8.415-2.822 15.174-3.922 14.642-16.83 42.859-41.07 36.367-24.239-6.503-21.31-37.392-17.389-52.03 1.813-6.763 3.681-11.588 5.144-14.56 1.655-3.362 3.334-1.139 7.153 2.062 2.696 2.258 9.5 7.059 19.75 9.806 10.252 2.747 18.549 1.994 22.005 1.387 4.908-.863 7.477-1.947 7.229 1.794zM58.564 47.338s-.5-7.17-6.988-9.01c-6.48-1.84-10.3 4.1-10.3 4.1m2.661 14.24s1.758 9.088 13.157 12.427c11.28 3.295 17.46-3.867 17.46-3.867m10.65-9.893s-.513-7.165-6.988-9.01c-6.48-1.848-10.295 4.092-10.295 4.092"/>
</svg>
