<svg xmlns="http://www.w3.org/2000/svg" width="100" height="100" viewBox="0 0 100 100">
<style>:root {--ctp-rosewater: #f5e0dc;--ctp-flamingo: #f2cdcd;--ctp-pink: #f5c2e7;--ctp-mauve: #cba6f7;--ctp-red: #f38ba8;--ctp-maroon: #eba0ac;--ctp-peach: #fab387;--ctp-yellow: #f9e2af;--ctp-green: #a6e3a1;--ctp-teal: #94e2d5;--ctp-sky: #89dceb;--ctp-sapphire: #74c7ec;--ctp-blue: #89b4fa;--ctp-lavender: #b4befe;--ctp-text: #cdd6f4;--ctp-overlay1: #7f849c;}</style>
    <path fill="none" stroke="var(--ctp-teal)" stroke-linecap="round" stroke-linejoin="round" stroke-width="5" d="M19.08 64.37c1.344 17.607 13.1 33.117 30.753 33.127h.334c17.653-.01 29.41-15.52 30.752-33.128.039-.494.057-1.002.058-1.523v-.02c-.004-7.775-4.156-18.563-12.274-31.336a2654.036 2654.036 0 0 0-12.762-19.863c-1.401-2.161-2.805-4.32-4.211-6.478l-1.181-1.808-.312-.477L50 2.502l-.237.362-.312.477-1.18 1.809a2809.446 2809.446 0 0 0-16.974 26.34c-8.12 12.78-12.274 23.571-12.274 31.346 0 .525.02 1.036.058 1.534z" clip-rule="evenodd"/>
</svg>
