<svg xmlns="http://www.w3.org/2000/svg" width="100" height="100" viewBox="0 0 100 100">
<style>:root {--ctp-rosewater: #f5e0dc;--ctp-flamingo: #f2cdcd;--ctp-pink: #f5c2e7;--ctp-mauve: #cba6f7;--ctp-red: #f38ba8;--ctp-maroon: #eba0ac;--ctp-peach: #fab387;--ctp-yellow: #f9e2af;--ctp-green: #a6e3a1;--ctp-teal: #94e2d5;--ctp-sky: #89dceb;--ctp-sapphire: #74c7ec;--ctp-blue: #89b4fa;--ctp-lavender: #b4befe;--ctp-text: #cdd6f4;--ctp-overlay1: #7f849c;}</style>
    <path fill="none" stroke="var(--ctp-green)" stroke-linecap="round" stroke-linejoin="round" stroke-width="5" d="m64.587 26.987-4.682-1.204-.401-5.752-5.218-.669-1.07 6.154-4.549 1.07-2.943-5.886-6.822 2.007 2.541 6.153-2.408 2.944-5.886-2.409-3.21 3.746 7.759 9.9m30.1-19.933s-6.555 11.104-11.505 14.448c-4.95 3.345-9.23 7.224-25.418 5.351-16.187-1.873-25.284.268-27.291 2.408-2.007 2.14-1.606 6.823 3.746 9.632 5.35 2.81 12.66 5.107 12.66 5.107" paint-order="fill markers stroke"/>
    <path fill="none" stroke="var(--ctp-yellow)" stroke-linecap="round" stroke-linejoin="round" stroke-width="5" d="m69.904 67.159 3.486-3.35 5.104 2.683 3.312-4.087-4.672-4.145 1.481-4.432 6.555.59 1.88-6.858-6.572-1.073-1.237-3.596 5.143-3.74-1.499-4.701-12.5 1.395m1.132 36.085s-6-11.414-6.242-17.383c-.243-5.969-1.293-11.65 8.81-24.435C84.19 17.327 87.152 8.463 86.386 5.631c-.766-2.832-4.96-4.953-10.163-1.878s-10.087 9.198-10.087 9.198" paint-order="fill markers stroke"/>
    <path fill="none" stroke="var(--ctp-blue)" stroke-linecap="round" stroke-linejoin="round" stroke-width="5" d="m32.523 52.604 1.166 4.692-4.87 3.088 1.891 4.908 5.923-1.984 3.104 3.494-3.78 5.387 5.008 5.049 4.206-5.162 3.734.72.68 6.324 4.821 1.044 5.022-11.532M27.583 51.624s12.885.49 18.18 3.254c5.296 2.766 10.744 4.688 16.79 19.82C68.6 89.83 74.807 96.816 77.644 97.564c2.837.749 6.766-1.83 6.694-7.874-.072-6.043-2.304-13.44-2.304-13.44" paint-order="fill markers stroke"/>
</svg>
