<svg xmlns="http://www.w3.org/2000/svg" width="100" height="100" viewBox="0 0 100 100">
<style>:root {--ctp-rosewater: #f5e0dc;--ctp-flamingo: #f2cdcd;--ctp-pink: #f5c2e7;--ctp-mauve: #cba6f7;--ctp-red: #f38ba8;--ctp-maroon: #eba0ac;--ctp-peach: #fab387;--ctp-yellow: #f9e2af;--ctp-green: #a6e3a1;--ctp-teal: #94e2d5;--ctp-sky: #89dceb;--ctp-sapphire: #74c7ec;--ctp-blue: #89b4fa;--ctp-lavender: #b4befe;--ctp-text: #cdd6f4;--ctp-overlay1: #7f849c;}</style>
    <path fill="none" stroke="var(--ctp-text)" stroke-linecap="round" stroke-linejoin="round" stroke-width="5" d="M71.16 71.418c-1.365-2.158-2.242-3.717-1.705-5.98.342-1.363 1.18-2.616 2.168-3.616 8.74-8.856 16.533-16.494 23.59-25.757.629-.826.933-1.874 1.172-2.884.204-.86.233-1.76.209-2.642-.023-.837-.063-1.696-.333-2.488-1.643-4.824-4.576-9.171-7.645-13.24a11.995 11.995 0 0 0-1.956-2.024c-.9-.74-1.863-1.443-2.934-1.902a7.63 7.63 0 0 0-2.496-.599 9.515 9.515 0 0 0-3.287.349c-1.118.33-1.939.896-3.121 1.579" paint-order="fill markers stroke"/>
    <rect width="76.309" height="26.073" x="-18.3" y="33.655" fill="none" stroke="var(--ctp-teal)" stroke-linecap="round" stroke-linejoin="round" stroke-width="5" paint-order="fill markers stroke" rx="6.584" ry="6.584" transform="rotate(-30)"/>
    <path fill="none" stroke="var(--ctp-text)" stroke-linecap="round" stroke-linejoin="round" stroke-width="5" d="m76.93 97.439-9.168-15.88a5.112 5.112 0 0 1 1.875-6.998l5.212-3.01a5.112 5.112 0 0 1 6.999 1.875l9.168 15.88" paint-order="fill markers stroke"/>
</svg>
