<svg xmlns="http://www.w3.org/2000/svg" width="100" height="100">
<style>:root {--ctp-rosewater: #f5e0dc;--ctp-flamingo: #f2cdcd;--ctp-pink: #f5c2e7;--ctp-mauve: #cba6f7;--ctp-red: #f38ba8;--ctp-maroon: #eba0ac;--ctp-peach: #fab387;--ctp-yellow: #f9e2af;--ctp-green: #a6e3a1;--ctp-teal: #94e2d5;--ctp-sky: #89dceb;--ctp-sapphire: #74c7ec;--ctp-blue: #89b4fa;--ctp-lavender: #b4befe;--ctp-text: #cdd6f4;--ctp-overlay1: #7f849c;}</style>
    <path fill="none" stroke="var(--ctp-peach)" stroke-linecap="round" stroke-linejoin="round" stroke-width="5" d="M97.229 59.625c-45.33 28.9-94.458 0-94.458 0l6.194-7.45-4.598-10.22 11.069-5.025V26.04l11.069-.335 4.938-10.22L41.66 19.34l8.685-7.706 8.855 8.041 9.494-4.565 5.534 10.68 11.197-.042.042 11.308 10.686 4.566-4.598 10.052z"/>
    <path fill="none" stroke="var(--ctp-peach)" stroke-linecap="round" stroke-linejoin="round" stroke-width="5" d="M32.823 42.936a5.876 7.431 0 0 1 6.672 2.459 5.876 7.431 0 0 1 .151 8.786 5.876 7.431 0 0 1-6.58 2.825 5.876 7.431 0 0 1-4.109-7.087" paint-order="stroke fill markers"/>
    <path fill="none" stroke="var(--ctp-peach)" stroke-linecap="round" stroke-linejoin="round" stroke-width="5" d="M64.498 42.875a5.876 7.431 0 0 1 6.671 2.459 5.876 7.431 0 0 1 .152 8.786 5.876 7.431 0 0 1-6.58 2.825 5.876 7.431 0 0 1-4.11-7.087" paint-order="stroke fill markers"/>
    <g fill="none" stroke="var(--ctp-peach)" stroke-linecap="round" stroke-linejoin="round" stroke-width="5" paint-order="stroke fill markers">
        <path d="M79.05 73.743a11 10.5 0 0 1 5.128 11.633 11 10.5 0 0 1-10.284 7.932" transform="translate(-.79 -4.984)"/>
        <path d="M73.377 93.277V83.218" transform="translate(-.79 -4.984)"/>
    </g>
    <g fill="none" stroke="var(--ctp-peach)" stroke-linecap="round" stroke-linejoin="round" stroke-width="5" paint-order="stroke fill markers">
        <path d="M79.05 73.743a11 10.5 0 0 1 5.128 11.633 11 10.5 0 0 1-10.284 7.932" transform="matrix(-1 0 0 1 100.7 -4.94)"/>
        <path d="M73.377 93.277V83.218" transform="matrix(-1 0 0 1 100.7 -4.94)"/>
    </g>
</svg>
