<svg xmlns="http://www.w3.org/2000/svg" width="100" height="100" viewBox="0 0 100 100">
<style>:root {--ctp-rosewater: #f5e0dc;--ctp-flamingo: #f2cdcd;--ctp-pink: #f5c2e7;--ctp-mauve: #cba6f7;--ctp-red: #f38ba8;--ctp-maroon: #eba0ac;--ctp-peach: #fab387;--ctp-yellow: #f9e2af;--ctp-green: #a6e3a1;--ctp-teal: #94e2d5;--ctp-sky: #89dceb;--ctp-sapphire: #74c7ec;--ctp-blue: #89b4fa;--ctp-lavender: #b4befe;--ctp-text: #cdd6f4;--ctp-overlay1: #7f849c;}</style>
    <path fill="none" stroke="var(--ctp-pink)" stroke-linecap="round" stroke-linejoin="round" stroke-width="5" d="M41.163 38.196c13.121 7.788 23.81 5.437 34.398-1.471 10.588-6.909 19.214-20.267 9.23-30.244-4.993-4.989-23.167-5.82-40 1.37-16.834 7.191-32.694 22.037-33.796 30.009C8.79 53.804 33.46 58.882 36.932 68.732c3.471 9.85 1.984 14.405-1.472 20.602-3.456 6.198-13.935 11.859-19.866 4.967-5.932-6.891 11.862-20.071 21.154-23.73 9.291-3.658 22.174-2.865 26.305 1.84 4.13 4.705-.455 13.06-.184 13.06" paint-order="fill markers stroke"/>
</svg>
