<svg xmlns="http://www.w3.org/2000/svg" width="100" height="100" viewBox="0 0 100 100">
<style>:root {--ctp-rosewater: #f5e0dc;--ctp-flamingo: #f2cdcd;--ctp-pink: #f5c2e7;--ctp-mauve: #cba6f7;--ctp-red: #f38ba8;--ctp-maroon: #eba0ac;--ctp-peach: #fab387;--ctp-yellow: #f9e2af;--ctp-green: #a6e3a1;--ctp-teal: #94e2d5;--ctp-sky: #89dceb;--ctp-sapphire: #74c7ec;--ctp-blue: #89b4fa;--ctp-lavender: #b4befe;--ctp-text: #cdd6f4;--ctp-overlay1: #7f849c;}</style>
    <path fill="none" stroke="var(--ctp-red)" stroke-linecap="round" stroke-linejoin="round" stroke-width="4.99977" d="m16.354 8.705 67.573-6.209c.103-.01.153.023.175.044.023.02.06.066.06.17v21.933c0 .266-.251.54-.516.565l-67.572 6.209c-.104.01-.154-.023-.176-.043-.023-.021-.06-.067-.06-.171V9.27c0-.266.251-.54.516-.565zm0 33.044 67.573-6.21c.103-.009.153.023.175.044.023.02.06.067.06.171v21.933c0 .265-.251.54-.516.564l-67.572 6.21c-.104.009-.154-.023-.176-.044-.023-.02-.06-.067-.06-.17V42.313c0-.266.251-.54.516-.565zm0 33.043 67.573-6.209c.103-.01.153.023.175.043.023.021.06.067.06.172V90.73c0 .266-.251.54-.516.565l-67.572 6.209c-.104.01-.154-.023-.176-.044-.023-.02-.06-.066-.06-.17V75.357c0-.266.251-.54.516-.565z"/>
</svg>
