<svg xmlns="http://www.w3.org/2000/svg" width="100" height="100" viewBox="0 0 100 100">
<style>:root {--ctp-rosewater: #f5e0dc;--ctp-flamingo: #f2cdcd;--ctp-pink: #f5c2e7;--ctp-mauve: #cba6f7;--ctp-red: #f38ba8;--ctp-maroon: #eba0ac;--ctp-peach: #fab387;--ctp-yellow: #f9e2af;--ctp-green: #a6e3a1;--ctp-teal: #94e2d5;--ctp-sky: #89dceb;--ctp-sapphire: #74c7ec;--ctp-blue: #89b4fa;--ctp-lavender: #b4befe;--ctp-text: #cdd6f4;--ctp-overlay1: #7f849c;}</style>
    <path fill="none" stroke="var(--ctp-text)" stroke-linecap="round" stroke-linejoin="round" stroke-width="4.99941" d="M71.836 18.78c1.995-6.977 3.553-12.373 4.014-13.988h8.134L97.5 17.308l-8.877 7.672 6.714 7.26L50 95.21v0c10.39-37.15 10.735-37.319 18.245-63.807M57.616 15.898c.404 0 .727.221.727.499v9.936c0 .271-.325.492-.727.492H42.28c-.404 0-.73-.221-.73-.494v-9.94c0-.272.326-.498.727-.498h15.338l.002.005zm.543 10.842 12.144 5.78c.826.48 1.505.089 1.505-.866V11.359c0-.957-.547-.87-1.503-.87h0l-12.022 5.638m-16.58-.043L29.68 10.442c-.826-.475-1.506-.085-1.506.87v20.294c0 .955.68 1.347 1.509.867l12.14-5.78m-13.66-7.912C26.17 11.805 24.612 6.407 24.15 4.792H16.02L2.499 17.308l8.876 7.672-6.714 7.262L50 95.21v0C39.612 58.059 39.265 57.89 31.755 31.402"/>
    <circle cx="50" cy="54.082" r="2.5" fill="none" stroke="var(--ctp-text)" stroke-linecap="round" stroke-linejoin="round" stroke-width="5" paint-order="fill markers stroke"/>
    <circle cx="50" cy="37.861" r="2.5" fill="none" stroke="var(--ctp-text)" stroke-linecap="round" stroke-linejoin="round" stroke-width="5" paint-order="fill markers stroke"/>
</svg>
