<svg xmlns="http://www.w3.org/2000/svg" width="100" height="100">
<style>:root {--ctp-rosewater: #f5e0dc;--ctp-flamingo: #f2cdcd;--ctp-pink: #f5c2e7;--ctp-mauve: #cba6f7;--ctp-red: #f38ba8;--ctp-maroon: #eba0ac;--ctp-peach: #fab387;--ctp-yellow: #f9e2af;--ctp-green: #a6e3a1;--ctp-teal: #94e2d5;--ctp-sky: #89dceb;--ctp-sapphire: #74c7ec;--ctp-blue: #89b4fa;--ctp-lavender: #b4befe;--ctp-text: #cdd6f4;--ctp-overlay1: #7f849c;}</style>
    <path fill="none" stroke="var(--ctp-peach)" stroke-linecap="round" stroke-linejoin="round" stroke-width="5" d="M67.353 34.945s8.748-12.44.497-24.363c-8.25-11.923-22.043-7.79-22.043-7.79s-20.69 10.951-32.153 18.729C4.789 27.883-.446 35.76 7.19 49.033c7.636 13.273 28.838 7.624 28.838 7.624" paint-order="fill markers stroke"/>
    <path fill="none" stroke="var(--ctp-peach)" stroke-linecap="round" stroke-linejoin="round" stroke-width="5" d="M26.093 36.432 52.11 20.377" paint-order="fill markers stroke"/>
    <path fill="none" stroke="var(--ctp-peach)" stroke-linecap="round" stroke-linejoin="round" stroke-width="5" d="M6.176 51.055s-8.747 12.44-.497 24.363 22.043 7.79 22.043 7.79c6.832-3.687 13.285-7.235 19.492-10.865M69.798 45.97c-.445-2.704-1.55-5.685-3.459-9.003-7.636-13.273-28.838-7.624-28.838-7.624" paint-order="fill markers stroke"/>
    <path fill="none" stroke="var(--ctp-peach)" stroke-linecap="round" stroke-linejoin="round" stroke-width="5" d="M21.17 65.966 47.188 49.91" paint-order="fill markers stroke"/>
    <path fill="none" stroke="var(--ctp-overlay1)" stroke-linecap="round" stroke-linejoin="round" stroke-width="5.00775" d="M76.25 55.004c-2.834 0-3.84 4.33-6.639 5.311-2.799.982-7.104-2.19-9.295 0-2.191 2.191.982 6.497 0 9.296-.982 2.799-5.312 3.805-5.312 6.639s4.33 3.84 5.312 6.64c.982 2.799-2.19 7.103 0 9.295 2.19 2.191 6.497-.975 9.295.007s3.806 5.305 6.64 5.304c2.833 0 3.84-4.33 6.639-5.311 2.799-.982 7.103 2.19 9.295 0s-.974-6.497.007-9.296c.982-2.798 5.305-3.806 5.304-6.639 0-2.833-4.33-3.84-5.311-6.64-.982-2.799 2.19-7.104 0-9.295-2.191-2.19-6.497.982-9.296 0-2.799-.982-3.805-5.311-6.639-5.311z" paint-order="fill markers stroke"/>
    <circle cx="76.251" cy="76.25" r="7.967" fill="none" stroke="var(--ctp-overlay1)" stroke-linecap="round" stroke-linejoin="round" stroke-width="5.00775" paint-order="fill markers stroke"/>
</svg>
