<svg xmlns="http://www.w3.org/2000/svg" width="100" height="100" viewBox="0 0 100 100">
<style>:root {--ctp-rosewater: #f5e0dc;--ctp-flamingo: #f2cdcd;--ctp-pink: #f5c2e7;--ctp-mauve: #cba6f7;--ctp-red: #f38ba8;--ctp-maroon: #eba0ac;--ctp-peach: #fab387;--ctp-yellow: #f9e2af;--ctp-green: #a6e3a1;--ctp-teal: #94e2d5;--ctp-sky: #89dceb;--ctp-sapphire: #74c7ec;--ctp-blue: #89b4fa;--ctp-lavender: #b4befe;--ctp-text: #cdd6f4;--ctp-overlay1: #7f849c;}</style>
    <path fill="none" stroke="var(--ctp-peach)" stroke-linecap="round" stroke-linejoin="round" stroke-width="5" d="M90.131 64.662c2.117-6.82 6.886-32.033-28.142-54.527a3.018 3.018 0 0 0-3.834.475 2.814 2.814 0 0 0-.104 3.749c.142.17 13.05 15.898 8.461 33.86-7.94-5.462-39.502-30.481-39.502-30.481l18.242 29.888-33.874-21.83s23.946 29.399 38.6 40.456c-7.094 2.549-22.508 5.244-42.867-7.408a3.023 3.023 0 0 0-3.659.351 2.814 2.814 0 0 0-.503 3.526c.679 1.135 17 27.615 51.505 27.615 9.467 0 14.996-2.695 19.447-4.86 2.734-1.323 4.893-2.377 7.251-2.377 5.866 0 9.715 5.823 9.748 5.875a3 3 0 0 0 2.767 1.353 2.942 2.942 0 0 0 2.496-1.756c4.238-9.843-3.061-20.26-6.032-23.913Z"/>
</svg>
