<svg xmlns="http://www.w3.org/2000/svg" width="100" height="100">
<style>:root {--ctp-rosewater: #f5e0dc;--ctp-flamingo: #f2cdcd;--ctp-pink: #f5c2e7;--ctp-mauve: #cba6f7;--ctp-red: #f38ba8;--ctp-maroon: #eba0ac;--ctp-peach: #fab387;--ctp-yellow: #f9e2af;--ctp-green: #a6e3a1;--ctp-teal: #94e2d5;--ctp-sky: #89dceb;--ctp-sapphire: #74c7ec;--ctp-blue: #89b4fa;--ctp-lavender: #b4befe;--ctp-text: #cdd6f4;--ctp-overlay1: #7f849c;}</style>
    <path fill="none" stroke="var(--ctp-blue)" stroke-linecap="round" stroke-linejoin="round" stroke-width="5" d="m16.667 3.062 66.666-.049c6.548-.005 13.89 7.342 13.89 13.889v66.667c0 6.437-7.452 13.418-13.89 13.418H16.667c-6.438 0-13.89-6.981-13.89-13.418V16.902c0-6.536 7.354-13.835 13.89-13.84z" paint-order="fill markers stroke"/>
    <path fill="none" stroke="var(--ctp-blue)" stroke-linecap="round" stroke-linejoin="round" stroke-width="5" d="M82.94 53.388s-.002-.075-.75-.75a8.7 8.7 0 0 0-2.313-1.5c-.784-.35-1.506-.498-2.313-.626-.806-.127-1.192-.068-2.125-.015-.933.052-2.056.177-2.829.562-.772.386-1.645.841-2.14 1.313-.496.471-.818.929-1.157 1.516a8.532 8.532 0 0 0-.813 1.937c-.174.643-.246 1.056-.25 1.876-.003.819.097 2.115.375 3 .28.885.72 1.602 1.188 2.25.469.649 1.032 1.249 1.563 1.625.53.377.79.568 1.563.938.773.37 2 .781 3.062 1.313 1.063.531 2.283 1.1 3.25 1.625.968.524 1.87.998 2.564 1.5.693.503 1.131.894 1.625 1.438.493.544.978 1.169 1.312 1.812.335.644.554 1.098.71 1.979.078.44.112 1.054.118 1.657.005.604-.018 1.196-.055 1.593-.074.794-.14.87-.335 1.522-.195.653-.66 1.698-1.159 2.376-.498.677-1.013 1.122-1.716 1.562-.703.44-1.513.828-2.25 1.063-.739.235-1.27.291-2.126.375-.856.084-1.961.162-3 .062-1.04-.1-2.28-.38-3.188-.687-.908-.308-1.588-.606-2.25-1.063-.663-.457-.94-.663-1.313-1.094C67.692 81.974 67 80.61 67 80.61" paint-order="fill markers stroke"/>
    <path fill="none" stroke="var(--ctp-blue)" stroke-linecap="round" stroke-linejoin="round" stroke-width="5" d="M46.536 50.956v34.56M35.134 50.47H57.85" paint-order="fill markers stroke"/>
</svg>
