<svg xmlns="http://www.w3.org/2000/svg" width="100" height="100" viewBox="0 0 100 100">
<style>:root {--ctp-rosewater: #f5e0dc;--ctp-flamingo: #f2cdcd;--ctp-pink: #f5c2e7;--ctp-mauve: #cba6f7;--ctp-red: #f38ba8;--ctp-maroon: #eba0ac;--ctp-peach: #fab387;--ctp-yellow: #f9e2af;--ctp-green: #a6e3a1;--ctp-teal: #94e2d5;--ctp-sky: #89dceb;--ctp-sapphire: #74c7ec;--ctp-blue: #89b4fa;--ctp-lavender: #b4befe;--ctp-text: #cdd6f4;--ctp-overlay1: #7f849c;}</style>
    <path fill="none" stroke="var(--ctp-blue)" stroke-linecap="round" stroke-linejoin="round" stroke-width="5" d="m16.667 3.062 66.666-.049c6.548-.005 13.89 7.342 13.89 13.889v66.667c0 6.437-7.452 13.418-13.89 13.418H16.667c-6.438 0-13.89-6.981-13.89-13.418V16.902c0-6.536 7.354-13.835 13.89-13.84z" paint-order="fill markers stroke"/>
    <path fill="none" stroke="var(--ctp-blue)" stroke-linecap="round" stroke-linejoin="round" stroke-width="5.00006" d="M56.771 57.47s-.002-.064-.655-.654a7.598 7.598 0 0 0-2.02-1.31c-.685-.306-1.316-.435-2.02-.546-.704-.112-1.041-.06-1.856-.014-.815.046-1.796.154-2.47.491-.675.337-1.438.735-1.87 1.147-.433.411-.714.811-1.01 1.324a7.452 7.452 0 0 0-.71 1.692c-.152.561-.215.922-.218 1.638-.003.715.084 1.847.327 2.62.244.773.628 1.4 1.038 1.966.409.566.9 1.09 1.364 1.419.464.33.69.495 1.365.819.676.323 1.747.682 2.675 1.146.928.464 1.994.962 2.84 1.42.844.458 1.632.871 2.237 1.31.606.439.989.78 1.42 1.256.43.475.854 1.02 1.146 1.583.292.562.484.958.62 1.727.068.385.098.921.103 1.448.004.527-.016 1.045-.048 1.391-.065.694-.122.76-.293 1.33-.17.57-.577 1.483-1.012 2.074-.434.592-.885.98-1.499 1.365a8.992 8.992 0 0 1-1.965.928c-.645.205-1.109.255-1.856.328-.748.073-1.713.142-2.62.054a13.447 13.447 0 0 1-2.785-.6c-.793-.269-1.386-.529-1.965-.928-.58-.4-.821-.58-1.147-.956-.433-.5-1.037-1.692-1.037-1.692" paint-order="fill markers stroke"/>
    <path fill="none" stroke="var(--ctp-blue)" stroke-linecap="round" stroke-linejoin="round" stroke-width="5.00006" d="M24.977 55.347v30.184M15.02 54.923h19.84" paint-order="fill markers stroke"/>
    <path fill="var(--ctp-blue)" stroke="var(--ctp-blue)" stroke-linecap="round" stroke-linejoin="round" stroke-width="5" d="m68.681 85.517 16.675-30.418m0 30.418L68.68 55.099" paint-order="fill markers stroke"/>
</svg>
