<svg xmlns="http://www.w3.org/2000/svg" width="100" height="100">
<style>:root {--ctp-rosewater: #f5e0dc;--ctp-flamingo: #f2cdcd;--ctp-pink: #f5c2e7;--ctp-mauve: #cba6f7;--ctp-red: #f38ba8;--ctp-maroon: #eba0ac;--ctp-peach: #fab387;--ctp-yellow: #f9e2af;--ctp-green: #a6e3a1;--ctp-teal: #94e2d5;--ctp-sky: #89dceb;--ctp-sapphire: #74c7ec;--ctp-blue: #89b4fa;--ctp-lavender: #b4befe;--ctp-text: #cdd6f4;--ctp-overlay1: #7f849c;}</style>
    <path fill="none" stroke="var(--ctp-blue)" stroke-linecap="round" stroke-linejoin="round" stroke-width="5" d="M44.599 73.711H13.025c-4.878 0-10.525-5.29-10.525-10.168V13.025C2.5 8.072 8.072 2.54 13.025 2.537L63.543 2.5c4.961-.004 10.525 5.563 10.525 10.525v31.574" paint-order="fill markers stroke"/>
    <path fill="none" stroke="var(--ctp-blue)" stroke-linecap="round" stroke-linejoin="round" stroke-width="5" d="M55.396 27.049s-.001-.057-.568-.568a6.592 6.592 0 0 0-1.753-1.137c-.594-.265-1.141-.377-1.752-.474-.611-.097-.904-.051-1.61-.012-.708.04-1.559.134-2.144.427-.586.292-1.247.637-1.622.994-.376.357-.62.704-.877 1.149a6.465 6.465 0 0 0-.616 1.468c-.132.487-.186.8-.189 1.421-.003.621.073 1.603.284 2.274.211.67.545 1.214.9 1.705.355.491.782.946 1.184 1.232.402.285.599.43 1.185.71.585.28 1.515.592 2.32.995.806.402 1.73.834 2.464 1.231.733.398 1.416.756 1.942 1.137.525.381.857.677 1.231 1.09.374.412.741.885.995 1.373.253.488.42.832.538 1.5.059.333.085.798.089 1.255.004.458-.014.907-.042 1.207-.056.602-.106.66-.254 1.154-.148.494-.5 1.287-.878 1.8-.377.513-.768.85-1.3 1.184a7.802 7.802 0 0 1-1.706.805c-.559.178-.962.22-1.61.284-.649.064-1.486.123-2.274.048a11.667 11.667 0 0 1-2.415-.521c-.688-.233-1.203-.459-1.706-.806-.502-.346-.712-.502-.994-.828-.376-.435-.9-1.469-.9-1.469" paint-order="fill markers stroke"/>
    <path fill="none" stroke="var(--ctp-blue)" stroke-linecap="round" stroke-linejoin="round" stroke-width="5" d="M27.81 25.206v26.189m-8.64-26.557h17.214" paint-order="fill markers stroke"/>
    <path fill="none" stroke="var(--ctp-overlay1)" stroke-linecap="round" stroke-linejoin="round" stroke-width="5.00775" d="M76.25 55.004c-2.834 0-3.84 4.33-6.639 5.312-2.799.982-7.104-2.191-9.295 0-2.191 2.19.982 6.496 0 9.295-.982 2.8-5.312 3.805-5.312 6.64 0 2.834 4.33 3.84 5.312 6.639.982 2.799-2.19 7.103 0 9.295s6.497-.974 9.295.007c2.798.982 3.806 5.305 6.64 5.304 2.833 0 3.84-4.33 6.639-5.311 2.799-.982 7.103 2.19 9.295 0s-.974-6.497.007-9.296c.982-2.798 5.305-3.806 5.304-6.639 0-2.833-4.33-3.84-5.311-6.64-.982-2.799 2.19-7.104 0-9.295-2.191-2.19-6.497.982-9.296 0-2.799-.982-3.805-5.311-6.639-5.311z" paint-order="fill markers stroke"/>
    <circle cx="76.251" cy="76.251" r="7.967" fill="none" stroke="var(--ctp-overlay1)" stroke-linecap="round" stroke-linejoin="round" stroke-width="5.00775" paint-order="fill markers stroke"/>
</svg>
