<svg xmlns="http://www.w3.org/2000/svg" width="100" height="100">
  <style>:root {--ctp-rosewater: #f5e0dc;--ctp-flamingo: #f2cdcd;--ctp-pink: #f5c2e7;--ctp-mauve: #cba6f7;--ctp-red: #f38ba8;--ctp-maroon: #eba0ac;--ctp-peach: #fab387;--ctp-yellow: #f9e2af;--ctp-green: #a6e3a1;--ctp-teal: #94e2d5;--ctp-sky: #89dceb;--ctp-sapphire: #74c7ec;--ctp-blue: #89b4fa;--ctp-lavender: #b4befe;--ctp-text: #cdd6f4;--ctp-overlay1: #7f849c;}</style>
    <path fill="none" stroke="var(--ctp-blue)" stroke-linecap="round" stroke-linejoin="round" stroke-width="5" d="m13.525 2.573 53.886-.04c5.292-.003 11.226 5.935 11.226 11.227v53.886c0 5.204-6.023 10.846-11.226 10.846H13.525c-5.203 0-11.226-5.642-11.226-10.846V13.76c0-5.283 5.943-11.183 11.226-11.187z" paint-order="fill markers stroke"/>
    <path fill="none" stroke="var(--ctp-blue)" stroke-linecap="round" stroke-linejoin="round" stroke-width="5" d="M67.093 43.251s-.002-.06-.606-.606a7.031 7.031 0 0 0-1.87-1.213c-.634-.282-1.217-.402-1.87-.505-.651-.103-.963-.055-1.717-.013-.754.043-1.662.143-2.286.455-.625.312-1.33.68-1.73 1.061-.4.381-.662.751-.935 1.225a6.896 6.896 0 0 0-.657 1.567c-.141.519-.2.853-.202 1.515-.003.663.078 1.71.303 2.426.225.715.581 1.294.96 1.818.378.525.834 1.01 1.263 1.314.429.305.638.459 1.263.758.625.3 1.617.632 2.476 1.061.859.43 1.845.89 2.627 1.314.782.424 1.51.806 2.072 1.212.56.406.914.722 1.313 1.162.4.44.79.945 1.061 1.466.27.52.448.887.574 1.598.063.356.09.853.095 1.34.004.488-.015.967-.045 1.288-.06.641-.112.703-.27 1.23-.158.528-.534 1.373-.937 1.92-.402.547-.82.907-1.387 1.263a8.322 8.322 0 0 1-1.82.86c-.596.189-1.025.234-1.717.302-.692.068-1.585.131-2.425.05-.84-.08-1.843-.306-2.577-.555-.734-.249-1.283-.49-1.819-.859-.536-.37-.76-.536-1.06-.884-.401-.463-.96-1.566-.96-1.566" paint-order="fill markers stroke"/>
    <path fill="none" stroke="var(--ctp-blue)" stroke-linecap="round" stroke-linejoin="round" stroke-width="5" d="M37.668 41.286V69.22m-9.216-28.327h18.361" paint-order="fill markers stroke"/>
    <path fill="none" stroke="var(--ctp-blue)" stroke-linecap="round" stroke-linejoin="round" stroke-width="5" d="m79.137 21.581 7.137-.04c5.292-.029 11.226 5.935 11.226 11.227v53.886c0 5.203-6.023 10.846-11.226 10.846H32.387c-5.203 0-11.226-5.643-11.226-10.846v-8.011" paint-order="fill markers stroke"/>
</svg>
