<svg xmlns="http://www.w3.org/2000/svg" width="100" height="100">
<style>:root {--ctp-rosewater: #f5e0dc;--ctp-flamingo: #f2cdcd;--ctp-pink: #f5c2e7;--ctp-mauve: #cba6f7;--ctp-red: #f38ba8;--ctp-maroon: #eba0ac;--ctp-peach: #fab387;--ctp-yellow: #f9e2af;--ctp-green: #a6e3a1;--ctp-teal: #94e2d5;--ctp-sky: #89dceb;--ctp-sapphire: #74c7ec;--ctp-blue: #89b4fa;--ctp-lavender: #b4befe;--ctp-text: #cdd6f4;--ctp-overlay1: #7f849c;}</style>
    <path fill="none" stroke="var(--ctp-blue)" stroke-linecap="round" stroke-linejoin="round" stroke-width="5" d="m78.634 21.581 7.64-.04c5.292-.027 11.226 5.935 11.226 11.227v53.886c0 5.203-6.023 10.846-11.226 10.846H32.387c-5.203 0-11.226-5.643-11.226-10.846V62.301" paint-order="fill markers stroke"/>
    <path fill="none" stroke="var(--ctp-blue)" stroke-linecap="round" stroke-linejoin="round" stroke-width="5" d="M85.956 62.259s-.002-.06-.607-.606a7.031 7.031 0 0 0-1.87-1.213c-.633-.283-1.217-.402-1.869-.505-.651-.103-.963-.055-1.717-.013-.755.042-1.662.143-2.287.455-.624.312-1.33.68-1.73 1.06-.4.382-.661.752-.935 1.226a6.896 6.896 0 0 0-.657 1.566c-.14.52-.199.854-.202 1.516-.002.662.078 1.71.303 2.425.226.716.582 1.295.96 1.82.379.523.835 1.008 1.264 1.313.428.304.638.458 1.263.758.625.299 1.616.631 2.475 1.06.86.43 1.845.89 2.628 1.314.782.424 1.51.807 2.071 1.213.56.406.915.722 1.314 1.162.399.44.79.945 1.06 1.465.271.52.448.887.574 1.6.063.355.091.851.095 1.34.005.487-.014.966-.044 1.286-.06.642-.113.703-.27 1.23-.158.528-.535 1.373-.937 1.92-.403.548-.82.908-1.388 1.264a8.322 8.322 0 0 1-1.819.859c-.596.19-1.026.235-1.717.303-.692.068-1.586.131-2.426.05-.84-.08-1.843-.307-2.576-.555-.734-.249-1.283-.49-1.82-.86-.535-.369-.76-.535-1.06-.883-.4-.464-.96-1.567-.96-1.567" paint-order="fill markers stroke"/>
    <path fill="none" stroke="var(--ctp-blue)" stroke-linecap="round" stroke-linejoin="round" stroke-width="5" d="M56.531 60.293v27.935M47.315 59.9h18.36" paint-order="fill markers stroke"/>
    <path fill="none" stroke="var(--ctp-teal)" stroke-linecap="round" stroke-linejoin="round" stroke-width="5" d="M13.152 52.71 2.817 19.795c-.318-1.01.37-2.125 1.536-2.491L50.356 2.858c.703-.22 1.46-.124 2.014.262L70.2 15.6c.666.466.918 1.267.638 2.03l-7.495 20.434c-.232.632-.796 1.145-1.503 1.366L15.837 53.876c-1.166.366-2.368-.156-2.685-1.166Z"/>
    <circle cx="54.21" cy="9.16" r="8.205" fill="none" stroke="var(--ctp-teal)" stroke-linecap="round" stroke-linejoin="round" stroke-width="5" paint-order="fill markers stroke" transform="rotate(15)"/>
</svg>
