<svg xmlns="http://www.w3.org/2000/svg" width="100" height="100" viewBox="0 0 100 100">
<style>:root {--ctp-rosewater: #f5e0dc;--ctp-flamingo: #f2cdcd;--ctp-pink: #f5c2e7;--ctp-mauve: #cba6f7;--ctp-red: #f38ba8;--ctp-maroon: #eba0ac;--ctp-peach: #fab387;--ctp-yellow: #f9e2af;--ctp-green: #a6e3a1;--ctp-teal: #94e2d5;--ctp-sky: #89dceb;--ctp-sapphire: #74c7ec;--ctp-blue: #89b4fa;--ctp-lavender: #b4befe;--ctp-text: #cdd6f4;--ctp-overlay1: #7f849c;}</style>
    <path fill="none" stroke="var(--ctp-overlay1)" stroke-width="5" d="M55.526 76.253c0-11.506 9.327-20.834 20.834-20.834 11.506 0 20.833 9.328 20.833 20.834S87.866 97.087 76.36 97.087c-11.507 0-20.834-9.328-20.834-20.834z"/>
    <path fill="none" stroke="var(--ctp-text)" stroke-width="5" d="M55.53 23.743c.003-11.506 9.332-20.832 20.838-20.83 11.506.002 20.832 9.332 20.83 20.838V42.5c0 1.15-.932 2.084-2.083 2.084H57.614a2.083 2.083 0 0 1-2.083-2.084zM44.47 76.223c.003 11.509-9.326 20.84-20.834 20.84-11.51 0-20.838-9.331-20.834-20.84V57.468c0-1.15.932-2.083 2.083-2.083h37.501c1.15 0 2.083.933 2.083 2.083z"/>
</svg>
