<svg xmlns="http://www.w3.org/2000/svg" width="100" height="100">
  <style>:root {--ctp-rosewater: #f5e0dc;--ctp-flamingo: #f2cdcd;--ctp-pink: #f5c2e7;--ctp-mauve: #cba6f7;--ctp-red: #f38ba8;--ctp-maroon: #eba0ac;--ctp-peach: #fab387;--ctp-yellow: #f9e2af;--ctp-green: #a6e3a1;--ctp-teal: #94e2d5;--ctp-sky: #89dceb;--ctp-sapphire: #74c7ec;--ctp-blue: #89b4fa;--ctp-lavender: #b4befe;--ctp-text: #cdd6f4;--ctp-overlay1: #7f849c;}</style>
    <path fill="none" stroke="var(--ctp-yellow)" stroke-width="5" d="m76.304 33.438-25.315 36.56a2.242 2.242 0 0 1-1.082.812 2.126 2.126 0 0 1-1.39 0 2.164 2.164 0 0 1-1.122-.812 2.28 2.28 0 0 1-.348-1.352l1.005-20.097-16.348-3.478a2.126 2.126 0 0 1-.927-.464 1.932 1.932 0 0 1-.619-.85 1.932 1.932 0 0 1 0-1.044 1.778 1.778 0 0 1 .387-.966L55.82 5.187a2.242 2.242 0 0 1 1.121-.85 2.048 2.048 0 0 1 1.353 0 2.242 2.242 0 0 1 1.12.85 2.01 2.01 0 0 1 .348 1.314l-1.004 20.173 16.348 3.479a2.242 2.242 0 0 1 .966.464 2.667 2.667 0 0 1 .618.85 2.396 2.396 0 0 1-.232 2.048z"/>
    <path fill="none" stroke="var(--ctp-green)" stroke-linecap="round" stroke-linejoin="round" stroke-width="5" d="M97.487 47.944 49.652 95.78 2.513 48.639" paint-order="fill markers stroke"/>
</svg>
