<svg xmlns="http://www.w3.org/2000/svg" width="100" height="100" viewBox="0 0 100 100">
<style>:root {--ctp-rosewater: #f5e0dc;--ctp-flamingo: #f2cdcd;--ctp-pink: #f5c2e7;--ctp-mauve: #cba6f7;--ctp-red: #f38ba8;--ctp-maroon: #eba0ac;--ctp-peach: #fab387;--ctp-yellow: #f9e2af;--ctp-green: #a6e3a1;--ctp-teal: #94e2d5;--ctp-sky: #89dceb;--ctp-sapphire: #74c7ec;--ctp-blue: #89b4fa;--ctp-lavender: #b4befe;--ctp-text: #cdd6f4;--ctp-overlay1: #7f849c;}</style>
    <path fill="none" stroke="var(--ctp-blue)" stroke-linecap="round" stroke-linejoin="round" stroke-width="5" d="M5.65 46.814s4.95 3.925 7.062 6.255c1.618 1.785 2.989 3.793 4.238 5.852.78 1.286 1.603 2.59 2.018 4.036.39 1.364.265 2.825.403 4.237.132 1.346-.016 2.75.404 4.036.412 1.26 1.134 2.441 2.018 3.43.896 1.003 2.047 1.779 3.228 2.422a14.186 14.186 0 0 0 3.834 1.412c1.055.222 2.154.115 3.229.202 2.02.164 4.098.066 6.053.605 2.292.632 4.642 1.492 6.457 3.027.812.687 1.326 1.68 1.816 2.623.628 1.209 1.049 2.522 1.413 3.834.384 1.386.461 2.842.807 4.238.183.74.297 1.52.67 2.185.425.76.981 1.513 1.731 1.954a3.075 3.075 0 0 0 1.816.404c1.25-.123 2.414-.808 3.45-1.517.786-.537 1.44-1.263 2.019-2.018.9-1.17 1.53-2.528 2.22-3.833.87-1.65 1.564-3.388 2.42-5.045.955-1.845 1.846-3.74 3.027-5.448.652-.943 1.445-1.78 2.22-2.623.966-1.05 1.905-2.146 3.027-3.027 1.733-1.36 3.63-2.548 5.65-3.43 1.346-.589 2.818-.831 4.237-1.211 1.875-.502 3.752-1.008 5.65-1.413 1.136-.242 3.43-.605 3.43-.605"/>
    <path fill="none" stroke="var(--ctp-blue)" stroke-linecap="round" stroke-linejoin="round" stroke-width="5" d="M19.252 63.765s.458-2.6.874-3.847c.397-1.187 1.048-2.274 1.536-3.427.446-1.053.941-2.091 1.274-3.185.296-.97.48-1.972.637-2.973.11-.703.241-1.413.213-2.124-.032-.791-.228-1.57-.425-2.336-.055-.217-.212-.637-.212-.637"/>
    <path fill="none" stroke="var(--ctp-blue)" stroke-linecap="round" stroke-linejoin="round" stroke-width="5" d="M16.353 55.854s-.55-8.213-.85-12.317c-.067-.921-.212-2.761-.212-2.761"/>
    <path fill="none" stroke="var(--ctp-blue)" stroke-linecap="round" stroke-linejoin="round" stroke-width="5" d="M73.13 72.493s6.595-6.142 9.555-9.529a52.658 52.658 0 0 0 4.514-5.94c.986-1.516 1.806-3.135 2.614-4.752 1.205-2.41 2.503-4.8 3.326-7.365.247-.77.476-2.376.476-2.376"/>
    <path fill="none" stroke="var(--ctp-blue)" stroke-linecap="round" stroke-linejoin="round" stroke-width="5" d="M78.922 40.119s.821 2.007 1.258 3c.436.989.92 1.957 1.36 2.943.523 1.168 1.055 2.332 1.524 3.522.55 1.393 1.111 2.787 1.51 4.23.22.797.448 1.607.483 2.433.041 1-.046 2.025-.337 2.982-.41 1.348-1.209 2.553-1.948 3.752-.623 1.012-2.087 2.89-2.087 2.89"/>
    <path fill="none" stroke="var(--ctp-blue)" stroke-linecap="round" stroke-linejoin="round" stroke-width="5" d="M50.448 96.271s2.416-3.557 3.082-5.572c1.357-4.108.421-8.737 1.72-12.864.607-1.93 1.902-3.574 2.785-5.395.938-1.933 1.873-3.872 2.668-5.868.765-1.922 1.318-3.922 2.016-5.869.476-1.33.966-2.656 1.482-3.972.872-2.227 1.882-4.4 2.726-6.64.664-1.76 1.225-3.556 1.838-5.334.553-1.601 1.128-3.194 1.66-4.802a267.59 267.59 0 0 0 1.126-3.557"/>
    <path fill="none" stroke="var(--ctp-blue)" stroke-linecap="round" stroke-linejoin="round" stroke-width="5" d="M63.055 59.605s.549-4.874.558-7.322c.01-2.26-.243-4.515-.462-6.765-.247-2.531-.35-5.1-.959-7.57-.48-1.953-1.086-3.921-2.108-5.654-1.196-2.03-2.977-3.658-4.6-5.366-1.244-1.311-2.635-2.476-3.929-3.738-1.067-1.04-2.147-2.07-3.162-3.162-1.064-1.144-3.066-3.546-3.066-3.546"/>
    <path fill="none" stroke="var(--ctp-blue)" stroke-linecap="round" stroke-linejoin="round" stroke-width="5" d="M62.391 38.79s-.333-2.13-.297-3.202c.026-.778.195-1.549.372-2.308.365-1.567.889-3.095 1.415-4.616.495-1.433 1.117-2.82 1.637-4.243.523-1.43 1.053-2.86 1.49-4.319.432-1.447.89-2.899 1.116-4.392.216-1.426.281-2.879.224-4.319a23.466 23.466 0 0 0-.521-3.946c-.346-1.62-1.415-4.765-1.415-4.765"/>
    <path fill="none" stroke="var(--ctp-blue)" stroke-linecap="round" stroke-linejoin="round" stroke-width="5" d="M60.766 31.023s-1.874-7.526-3.118-11.194a64.627 64.627 0 0 0-2.639-6.556c-.933-2-3.118-5.837-3.118-5.837"/>
    <path fill="none" stroke="var(--ctp-blue)" stroke-linecap="round" stroke-linejoin="round" stroke-width="5" d="M45.51 83.344s-2.573-3.902-3.747-5.922c-.841-1.45-1.663-2.915-2.358-4.44-.802-1.759-1.58-3.545-2.082-5.411-.304-1.131-.532-2.298-.555-3.47-.029-1.536.249-3.071.555-4.578.5-2.453 1.552-4.768 2.082-7.215.405-1.873.617-3.784.832-5.688.328-2.905.801-5.82.694-8.742-.09-2.431-.523-4.853-1.11-7.215a37.005 37.005 0 0 0-2.22-6.382c-.772-1.697-1.59-3.417-2.775-4.856-1.126-1.367-2.583-2.44-4.024-3.469-1.306-.933-4.158-2.43-4.158-2.43"/>
    <path fill="none" stroke="var(--ctp-blue)" stroke-linecap="round" stroke-linejoin="round" stroke-width="5" d="M40.151 47.284s.42-3.599.16-5.37a13.348 13.348 0 0 0-1.443-4.328c-.8-1.493-1.91-2.827-3.126-4.007-1.616-1.572-3.589-2.733-5.449-4.007-3.528-2.417-10.819-6.892-10.819-6.892"/>
    <path fill="none" stroke="var(--ctp-blue)" stroke-linecap="round" stroke-linejoin="round" stroke-width="5" d="M39.81 73.84s-1.169-2.297-1.32-3.551c-.087-.716 0-1.471.247-2.148.41-1.118 1.153-2.118 1.982-2.973 1.389-1.432 3.337-2.199 4.874-3.47 1.35-1.116 2.768-2.216 3.799-3.634 1.08-1.483 1.818-3.214 2.395-4.955.733-2.209 1.1-4.539 1.322-6.856.128-1.343 0-4.047 0-4.047"/>
</svg>
