<svg xmlns="http://www.w3.org/2000/svg" width="100" height="100" viewBox="0 0 100 100">
<style>:root {--ctp-rosewater: #f5e0dc;--ctp-flamingo: #f2cdcd;--ctp-pink: #f5c2e7;--ctp-mauve: #cba6f7;--ctp-red: #f38ba8;--ctp-maroon: #eba0ac;--ctp-peach: #fab387;--ctp-yellow: #f9e2af;--ctp-green: #a6e3a1;--ctp-teal: #94e2d5;--ctp-sky: #89dceb;--ctp-sapphire: #74c7ec;--ctp-blue: #89b4fa;--ctp-lavender: #b4befe;--ctp-text: #cdd6f4;--ctp-overlay1: #7f849c;}</style>
    <path fill="none" stroke="var(--ctp-overlay1)" stroke-linecap="round" stroke-linejoin="round" stroke-width="5" d="M3.657 35.729s-2.298-1.68.46-3.916l6.435-5.816s1.837-1.956 3.785-.252l59.348 45.42v21.778s-.028 3.424-4.369 3.046L3.653 35.725Zm65.655 60.288c1.63 1.684 3.605 1.133 3.605 1.133l21.864-10.889c2.798-1.928 2.405-4.32 2.405-4.32V16.91c0-2.857-2.893-3.845-2.893-3.845L75.341 3.83c-4.14-2.586-6.851.468-6.851.468s3.487-2.538 5.195 2.267V92.55a3.95 3.95 0 0 1-.374 1.692c-.5 1.02-1.582 1.968-4.18 1.574zM18.957 49.766l-15.3 14.057s-1.574 1.18 0 3.293l7.103 6.533s1.688 1.83 4.18-.256l16.216-12.427Zm26.854.114 27.86-21.696.014-21.62s-1.2-4.73-5.195-2.266L31.156 38.641Z"/>
</svg>
