<svg xmlns="http://www.w3.org/2000/svg" width="100" height="100">
<style>:root {--ctp-rosewater: #f5e0dc;--ctp-flamingo: #f2cdcd;--ctp-pink: #f5c2e7;--ctp-mauve: #cba6f7;--ctp-red: #f38ba8;--ctp-maroon: #eba0ac;--ctp-peach: #fab387;--ctp-yellow: #f9e2af;--ctp-green: #a6e3a1;--ctp-teal: #94e2d5;--ctp-sky: #89dceb;--ctp-sapphire: #74c7ec;--ctp-blue: #89b4fa;--ctp-lavender: #b4befe;--ctp-text: #cdd6f4;--ctp-overlay1: #7f849c;}</style>
    <path fill="none" stroke="var(--ctp-green)" stroke-linecap="round" stroke-linejoin="round" stroke-width="5" d="m46.426 82.39-1.334 2.547L2.315 3.405h33.24l9.498 19.184L54.55 3.405h33.24L66.442 44.17l-2.669 5.096" paint-order="fill markers stroke"/>
    <path fill="none" stroke="var(--ctp-green)" stroke-linecap="round" stroke-linejoin="round" stroke-width="5" d="M69.78 4.86 45.053 52.173 20.325 4.859" paint-order="fill markers stroke"/>
    <path fill="none" stroke="var(--ctp-overlay1)" stroke-linecap="round" stroke-linejoin="round" stroke-width="5.00775" d="M76.25 55.004c-2.834 0-3.84 4.33-6.64 5.311-2.798.982-7.104-2.19-9.295 0-2.19 2.191.982 6.497 0 9.296-.981 2.799-5.311 3.805-5.311 6.639s4.33 3.84 5.311 6.64c.982 2.799-2.19 7.103 0 9.295 2.19 2.191 6.497-.975 9.296.007 2.798.982 3.806 5.305 6.639 5.304 2.833 0 3.84-4.33 6.64-5.311 2.799-.982 7.103 2.19 9.295 0 2.191-2.19-.975-6.497.007-9.296.982-2.798 5.305-3.806 5.304-6.639 0-2.833-4.33-3.84-5.311-6.64-.982-2.799 2.19-7.104 0-9.295-2.191-2.19-6.497.982-9.296 0-2.799-.982-3.805-5.311-6.639-5.311z" paint-order="fill markers stroke"/>
    <circle cx="76.25" cy="76.25" r="7.967" fill="none" stroke="var(--ctp-overlay1)" stroke-linecap="round" stroke-linejoin="round" stroke-width="5.00775" paint-order="fill markers stroke"/>
</svg>
