<svg xmlns="http://www.w3.org/2000/svg" width="100" height="100">
  <style>:root {--ctp-rosewater: #f5e0dc;--ctp-flamingo: #f2cdcd;--ctp-pink: #f5c2e7;--ctp-mauve: #cba6f7;--ctp-red: #f38ba8;--ctp-maroon: #eba0ac;--ctp-peach: #fab387;--ctp-yellow: #f9e2af;--ctp-green: #a6e3a1;--ctp-teal: #94e2d5;--ctp-sky: #89dceb;--ctp-sapphire: #74c7ec;--ctp-blue: #89b4fa;--ctp-lavender: #b4befe;--ctp-text: #cdd6f4;--ctp-overlay1: #7f849c;}</style>
    <path fill="none" stroke="var(--ctp-sapphire)" stroke-linecap="round" stroke-linejoin="round" stroke-width="3.69138" d="M40.234 25.146 10.047 42.561l-30.175-17.434.011-34.85L10.07-27.138 40.245-9.704z" paint-order="fill markers stroke" transform="matrix(1.3545 0 0 1.3545 36.376 39.555)"/>
    <path fill="none" stroke="var(--ctp-sapphire)" stroke-linecap="round" stroke-linejoin="round" stroke-width="5" d="M50 3.47v18.446m0 56.11v17.427" paint-order="fill markers stroke"/>
    <path fill="none" stroke="var(--ctp-sapphire)" stroke-linecap="round" stroke-linejoin="round" stroke-width="5" d="m25.633 64.354-15.205 8.778M74.534 64.354l15.205 8.778" paint-order="fill markers stroke"/>
    <path fill="none" stroke="var(--ctp-blue)" stroke-linecap="round" stroke-linejoin="round" stroke-width="6.43461" d="M40.234 25.146 10.047 42.561l-30.175-17.434.011-34.85L10.07-27.138 40.245-9.704z" paint-order="fill markers stroke" transform="matrix(.77705 0 0 .77705 42.184 44.008)"/>
    <path fill="none" stroke="var(--ctp-sapphire)" stroke-linecap="round" stroke-linejoin="round" stroke-width="5" d="m10.5 27.54 39.381 22.737M89.499 27.54 50.118 50.278" paint-order="fill markers stroke"/>
    <path fill="none" stroke="var(--ctp-sapphire)" stroke-linecap="round" stroke-linejoin="round" stroke-width="5" d="M50.04 50.04v30.55" paint-order="fill markers stroke"/>
</svg>
