<svg xmlns="http://www.w3.org/2000/svg" width="100" height="100">
<style>:root {--ctp-rosewater: #f5e0dc;--ctp-flamingo: #f2cdcd;--ctp-pink: #f5c2e7;--ctp-mauve: #cba6f7;--ctp-red: #f38ba8;--ctp-maroon: #eba0ac;--ctp-peach: #fab387;--ctp-yellow: #f9e2af;--ctp-green: #a6e3a1;--ctp-teal: #94e2d5;--ctp-sky: #89dceb;--ctp-sapphire: #74c7ec;--ctp-blue: #89b4fa;--ctp-lavender: #b4befe;--ctp-text: #cdd6f4;--ctp-overlay1: #7f849c;}</style>
    <path fill="none" stroke="var(--ctp-overlay1)" stroke-width="5" d="M70.735 73.695v-8.88a8.88 8.88 0 0 1 17.76 0v8.88m-23.68 0h29.599a2.96 2.96 0 0 1 2.96 2.96v17.759a2.96 2.96 0 0 1-2.96 2.96H64.815a2.96 2.96 0 0 1-2.96-2.96v-17.76a2.96 2.96 0 0 1 2.96-2.96z"/>
    <path fill="none" stroke="var(--ctp-sapphire)" stroke-linecap="round" stroke-linejoin="round" stroke-width="5" d="M52.725 84.207c-5.412 2.583-10.637 3.452-16.084 3.84-8.728 0-14.92.596-14.92-3.73a11.192 11.192 0 0 1 3.581-7.46h-3.73s-6.34 11.19-14.918 11.19c-8.579 0 0-7.46 0-7.46-7.46 0-4.849-14.397 3.73-18.649A17.306 17.306 0 0 1 21.572 35.83c-4.327-4.327-7.46-13.502-3.73-14.92a14.024 14.024 0 0 0 7.46-7.459 15.441 15.441 0 0 1 12.457-2.61h0a30.286 30.286 0 0 1 6.191-8.579 19.843 19.843 0 0 1 2.462 8.578l4.998-1.119s7.46 14.92-4.998 35.433A23.945 23.945 0 0 1 55.14 70.89"/>
</svg>
