<svg xmlns="http://www.w3.org/2000/svg" width="100" height="100" fill-rule="evenodd" clip-rule="evenodd" viewBox="0 0 100 100">
<style>:root {--ctp-rosewater: #f5e0dc;--ctp-flamingo: #f2cdcd;--ctp-pink: #f5c2e7;--ctp-mauve: #cba6f7;--ctp-red: #f38ba8;--ctp-maroon: #eba0ac;--ctp-peach: #fab387;--ctp-yellow: #f9e2af;--ctp-green: #a6e3a1;--ctp-teal: #94e2d5;--ctp-sky: #89dceb;--ctp-sapphire: #74c7ec;--ctp-blue: #89b4fa;--ctp-lavender: #b4befe;--ctp-text: #cdd6f4;--ctp-overlay1: #7f849c;}</style>
    <g fill="none" stroke-width="5">
        <path stroke="var(--ctp-overlay1)" d="M70.735 73.695v-8.88c.002-4.87 4.01-8.876 8.88-8.876s8.877 4.006 8.879 8.876v8.88m-23.679 0h29.599a2.974 2.974 0 0 1 2.96 2.96v17.759a2.974 2.974 0 0 1-2.96 2.96H64.815a2.975 2.975 0 0 1-2.96-2.96V76.655a2.975 2.975 0 0 1 2.96-2.96z"/>
        <g stroke="var(--ctp-blue)" stroke-linecap="round" stroke-linejoin="round" stroke-miterlimit="1.5">
            <path d="M54.542 94.503c-5.611 1.986-16.537 4.168-29.385-.687 0 0-15.323 4.247-14.195-6.503 0 0-10.684-12.422.938-22.28 0 0-1.241-16.91 11.549-24.936 0 0-8.286-12.228 0-19.036s12.645-9.145 18.736-8.634c0 0 7.247-20.251 14.643 0 0 0 9.061-7.776 7.844 17.247-.323 6.646-4.717 16.289-7.844 20.326 0 0 4.307 3.066 6.922 11.547"/>
            <path d="M27.469 94.285c-1.525-1.407.321-8.703.321-8.703s-1.252 4.723-3.116 7.525"/>
        </g>
    </g>
</svg>
