<svg xmlns="http://www.w3.org/2000/svg" width="100" height="100">
<style>:root {--ctp-rosewater: #f5e0dc;--ctp-flamingo: #f2cdcd;--ctp-pink: #f5c2e7;--ctp-mauve: #cba6f7;--ctp-red: #f38ba8;--ctp-maroon: #eba0ac;--ctp-peach: #fab387;--ctp-yellow: #f9e2af;--ctp-green: #a6e3a1;--ctp-teal: #94e2d5;--ctp-sky: #89dceb;--ctp-sapphire: #74c7ec;--ctp-blue: #89b4fa;--ctp-lavender: #b4befe;--ctp-text: #cdd6f4;--ctp-overlay1: #7f849c;}</style>
    <path fill="none" stroke="var(--ctp-sapphire)" stroke-linecap="round" stroke-linejoin="round" stroke-width="5" d="M45.831 12.058a33.47 33.47 0 0 1 6.842-9.48 21.929 21.929 0 0 1 2.72 9.48l5.524-1.237s8.244 16.488-5.523 39.159a26.463 26.463 0 0 1 9.645 28.441C79.22 73.64 84 68.941 88.7 68.941a4.618 4.618 0 0 1 4.7 4.699s.659 3.132-7.585 7.254l-16.488 8.244a51.527 51.527 0 0 1-24.731 8.244c-9.646 0-16.488.66-16.488-4.122a12.369 12.369 0 0 1 3.957-8.244h-4.122s-7.007 12.366-16.488 12.366c-9.48 0 0-8.244 0-8.244-8.244 0-5.358-15.91 4.122-20.61a19.125 19.125 0 0 1 12.366-28.853c-4.781-4.782-8.244-14.922-4.122-16.488a15.499 15.499 0 0 0 8.244-8.244 17.065 17.065 0 0 1 13.767-2.885z"/>
</svg>
