<svg xmlns="http://www.w3.org/2000/svg" width="100" height="100" viewBox="0 0 100 100">
<style>:root {--ctp-rosewater: #f5e0dc;--ctp-flamingo: #f2cdcd;--ctp-pink: #f5c2e7;--ctp-mauve: #cba6f7;--ctp-red: #f38ba8;--ctp-maroon: #eba0ac;--ctp-peach: #fab387;--ctp-yellow: #f9e2af;--ctp-green: #a6e3a1;--ctp-teal: #94e2d5;--ctp-sky: #89dceb;--ctp-sapphire: #74c7ec;--ctp-blue: #89b4fa;--ctp-lavender: #b4befe;--ctp-text: #cdd6f4;--ctp-overlay1: #7f849c;}</style>
    <path fill="none" stroke="var(--ctp-yellow)" stroke-linecap="round" stroke-linejoin="round" stroke-width="5" d="M24.453 97.445h-7.3c-8.062 0-14.598-6.536-14.598-14.598V17.153c0-8.062 6.536-14.598 14.598-14.598h65.694c8.062 0 14.598 6.536 14.598 14.598v65.694c0 8.062-6.536 14.598-14.598 14.598h-7.323v0"/>
    <path fill="none" stroke="var(--ctp-text)" stroke-linecap="square" stroke-linejoin="round" stroke-width="0.710455" d="M6.5 12.5 8 11 9.5 12.5 9.5 14.5 6.5 14.5z" transform="matrix(7.35908 0 0 6.73044 -8.873 .018)"/>
    <path fill="none" stroke="var(--ctp-text)" stroke-linecap="round" stroke-linejoin="round" stroke-width="5" d="M35.401 12.321h10.891m7.268 7.3h11.039M35.4 26.92h10.891m7.268 7.3h11.039M35.4 41.517h10.891m7.268 7.3h11.039M35.4 56.117h10.891m7.268 7.3h11.039"/>
</svg>
