<svg xmlns="http://www.w3.org/2000/svg" width="16" height="16" viewBox="0 0 16 16">
	<g fill="none" stroke="var(--vscode-ctp-mauve)" stroke-linecap="round" stroke-linejoin="round">
		<path d="M 14.5,4.3888889 V 11.611111 A 2.8888889,2.8888889 0 0 1 11.611111,14.5 H 4.3888889 A 2.8888889,2.8888889 0 0 1 1.5,11.611111 V 4.3888889 A 2.8888889,2.8888889 0 0 1 4.3888889,1.5 H 11.611111 A 2.8888889,2.8888889 0 0 1 14.5,4.3888889" />
		<path d="M 9.498599,8.667276 V 7.8897022 a 1.4994277,1.5551488 0 0 1 1.499428,-1.5551486 v 0 a 1.4994277,1.5551488 0 0 1 1.499428,1.5551486 V 8.667276 Z m 0,0 V 9.444851 A 1.4994277,1.5551488 0 0 0 10.998027,11 h 1.124571 M 3.5008886,11 4.3443166,8.667276 M 7.9991716,11 7.1557431,8.667276 m -2.8114265,0 L 5.75003,4.7794049 7.1557431,8.667276 m -2.8114265,0 h 2.8114265" />
	</g>
</svg>
