<svg xmlns="http://www.w3.org/2000/svg" width="16" height="16" viewBox="0 0 16 16">
	<path fill="none" stroke="var(--vscode-ctp-blue)" stroke-linecap="round" stroke-linejoin="round" d="m 5.5,12.5 c 0,1.104569 -0.8954305,2 -2,2 -1.1045695,0 -2,-0.895431 -2,-2 0,-1.104569 0.8954305,-2 2,-2 1.1045695,0 2,0.895431 2,2 z m 9,0 c 0,1.104569 -0.895431,2 -2,2 -1.104569,0 -2,-0.895431 -2,-2 0,-1.104569 0.895431,-2 2,-2 1.104569,0 2,0.895431 2,2 z M 10,3.5 c 0,1.1045695 -0.8954305,2 -2,2 -1.1045695,0 -2,-0.8954305 -2,-2 0,-1.1045695 0.8954305,-2 2,-2 1.1045695,0 2,0.8954305 2,2 z m -6.5,7 3,-5.5 m 3,0 3,5.5" />
</svg>
