<svg xmlns="http://www.w3.org/2000/svg" width="16" height="16" viewBox="0 0 16 16">
	<g fill="none" stroke-linecap="round" stroke-linejoin="round">
		<path stroke="var(--vscode-ctp-text)" d="M8.59110673,8.59135151 C8.12521144,8.38741807 7.65936142,8.21989134 7.24074074,8.14619864 L5.44320988,3.1962963 L3.64567901,8.14619864 C2.64857899,8.32021863 1.39846115,9.02154385 0.5,9.48765432 L3.34275084,1.49637341 C3.45174027,1.13860994 3.5063769,0.959799154 3.61380528,0.827252114 C3.7081721,0.710236483 3.83095443,0.619358992 3.97043345,0.56329334 C4.12852489,0.5 4.31499899,0.5 4.6890825,0.5 L6.39871225,0.5 C6.77279576,0.5 6.96026326,0.5 7.11849661,0.563860994 C7.25748832,0.619956478 7.37985198,0.710617938 7.47398947,0.827252114 C7.58141785,0.960224894 7.63591257,1.13917759 7.74504391,1.49736681 C8.62676938,4.16462829 9.28806349,6.1650744 9.72892623,7.49870514" />
		<path stroke="var(--vscode-ctp-mauve)" d="M6.56118304,11.1447463 C6.257697,11.2096054 5.91750794,11.2459131 5.55823126,11.2459131 C4.46419566,11.2459131 3.54738571,10.9091303 3.30403319,10.4555556 C3.21745181,10.7156328 3.19755771,11.0130225 3.19755771,11.2027749 C3.19755771,11.2027749 3.14039719,12.1355854 3.79564171,12.7847383 C3.79564171,12.4479556 4.07177747,12.1744236 4.41207872,12.1744236 C4.99503199,12.1744236 4.99447159,12.6782107 4.99405129,13.0871215 L4.99405129,13.1237404 C4.99405129,13.7441807 5.37680264,14.2755706 5.92150879,14.5 C5.83768382,14.3290974 5.79427601,14.1415368 5.79457881,13.951549 C5.79457881,13.3599599 6.14552761,13.1398305 6.55363693,12.8839145" />
		<path stroke="var(--vscode-ctp-overlay1)" d="M3.5,4.5 C4.05228475,4.5 4.5,4.05228475 4.5,3.5 C4.5,2.94771525 4.05228475,2.5 3.5,2.5 C2.94771525,2.5 2.5,2.94771525 2.5,3.5 C2.5,4.05228475 2.94771525,4.5 3.5,4.5 Z M5.25153811,0.5 L7.00153811,3.5 L5.25153811,6.5 L1.75153811,6.5 L0.00153810568,3.5 L1.75153811,0.5 L5.25153811,0.5 Z" transform="translate(8 9)" />
	</g>
</svg>
