<svg xmlns="http://www.w3.org/2000/svg" width="16" height="16" viewBox="0 0 16 16">
	<g fill="none" stroke-linecap="round" stroke-linejoin="round">
		<path stroke="var(--vscode-ctp-text)" d="M 4.5,4.5 H 12 c 0.828427,0 1.5,0.6715729 1.5,1.5 V 6.5 M 6,13.5 H 2 C 1.1715729,13.5 0.5,12.828427 0.5,12 V 3.5 c 0,-0.5522847 0.44771525,-1 1,-1 h 5 c 0.5522847,0 1,0.4477153 1,1 v 1" />
		<path stroke="var(--vscode-ctp-rosewater)" d="m 9.0594661,12.284474 2.1181699,-0.774739 c 0.649743,-0.237842 1.359979,0.162923 1.474068,0.831591 l 0.372357,2.17983 c 0.119731,0.701533 -0.650057,1.223477 -1.280838,0.86757 -0.08256,-0.04643 -0.15312,-0.111332 -0.206081,-0.189557 L 11.427911,15.037493 C 10.973749,14.365398 10.222297,13.941425 9.3995392,13.89314 l -0.197932,-0.01153 c -0.095143,-0.0055 -0.187736,-0.03272 -0.270648,-0.07944 -0.6307808,-0.355751 -0.5532066,-1.268491 0.1285069,-1.517704 z" />
		<path fill="var(--vscode-ctp-rosewater)" d="M9.22382543 10.801379C9.6218161 11.0316989 10.1680056 10.8368234 10.4437788 10.3661124 10.7195445 9.89539715 10.6204657 9.32709584 10.2224776 9.09677158 9.82448693 8.86645171 9.27829745 9.06132718 9.00252428 9.53203816 8.72675849 10.0027534 8.82583731 10.5710548 9.22382543 10.801379ZM11.8436404 9.80137901C12.2416311 10.0316989 12.7878206 9.83682342 13.0635938 9.36611243 13.3393595 8.89539715 13.2402807 8.32709584 12.8422926 8.09677158 12.4443019 7.86645171 11.8981124 8.06132718 11.6223393 8.53203816 11.3465735 9.00275344 11.4456523 9.57105476 11.8436404 9.80137901ZM13.8893194 10.801379C14.2873101 11.0316989 14.8334996 10.8368234 15.1092728 10.3661124 15.3850385 9.89539715 15.2859597 9.32709584 14.8879716 9.09677158 14.4899809 8.86645171 13.9437914 9.06132718 13.6680183 9.53203816 13.3922525 10.0027534 13.4913313 10.5710548 13.8893194 10.801379ZM14.5774656 13.5935963C14.9754563 13.8239162 15.5216458 13.6290407 15.7974189 13.1583298 16.0731847 12.6876145 15.9741059 12.1193132 15.5761178 11.8889889 15.1781271 11.658669 14.6319376 11.8535445 14.3561644 12.3242555 14.0803987 12.7949708 14.1794775 13.3632721 14.5774656 13.5935963Z" />
	</g>
</svg>
