<svg xmlns="http://www.w3.org/2000/svg" width="16" height="16" viewBox="0 0 16 16">
	<g fill="none" stroke-linecap="round" stroke-linejoin="round">
		<path stroke="var(--vscode-ctp-text)" d="M 4.5,4.5 H 12 c 0.828427,0 1.5,0.6715729 1.5,1.5 V 6.5 M 6,13.5 H 2 C 1.1715729,13.5 0.5,12.828427 0.5,12 V 3.5 c 0,-0.5522847 0.44771525,-1 1,-1 h 5 c 0.5522847,0 1,0.4477153 1,1 v 1" />
		<path stroke="var(--vscode-ctp-mauve)" d="m 12.499998,9.5000008 c 0,1.3333342 2.000003,1.3333342 2.000003,0 0,-1.3333362 -2.000003,-1.3333362 -2.000003,0 m 1.000003,1.0000002 v 2.668136 c -0.0027,3.108734 -4.0026803,3.108734 -4.000001,0 V 11.5 L 11,13" />
	</g>
</svg>
