<svg xmlns="http://www.w3.org/2000/svg" width="16" height="16" viewBox="0 0 16 16">
	<g fill="none" stroke-linecap="round" stroke-linejoin="round">
		<path stroke="var(--vscode-ctp-peach)" stroke-width=".65" d="m14.48 8.724a0.6766 0.7032 0 0 1-0.6766 0.7032 0.6766 0.7032 0 0 1-0.6766-0.7032 0.6766 0.7032 0 0 1 0.6766-0.7032 0.6766 0.7032 0 0 1 0.6766 0.7032zm-3.834 5.547v-3.593c0-1.079 0.8414-1.954 1.879-1.954h0.6012" />
		<path stroke="var(--vscode-ctp-red)" stroke-width=".65" d="m11.33 14.97a0.6766 0.7027 0 0 1-0.6766 0.7027 0.6766 0.7027 0 0 1-0.6766-0.7027 0.6766 0.7027 0 0 1 0.6766-0.7027 0.6766 0.7027 0 0 1 0.6766 0.7027zm3.157-3.59a0.6766 0.7027 0 0 1-0.6766 0.7027 0.6766 0.7027 0 0 1-0.6766-0.7027 0.6766 0.7027 0 0 1 0.6766-0.7027 0.6766 0.7027 0 0 1 0.6766 0.7027zm-3.834 2.89v-0.9369c0-1.078 0.8414-1.952 1.879-1.952h0.6012" />
		<path stroke="var(--vscode-ctp-text)" d="m4.5 4.5h7.5c0.83 0 1.5 0.67 1.5 1.5v0.5m-7.5 7h-4c-0.83 0-1.5-0.67-1.5-1.5v-8.5c0-0.55 0.45-1 1-1h5c0.55 0 1 0.45 1 1v1" />
	</g>
</svg>
