<svg xmlns="http://www.w3.org/2000/svg" width="16" height="16" viewBox="0 0 16 16">
	<g fill="none" stroke-linecap="round" stroke-linejoin="round">
		<path stroke="var(--vscode-ctp-text)" d="M 4.5,4.5 H 12 c 0.828427,0 1.5,0.6715729 1.5,1.5 V 6.5 M 6,13.5 H 2 C 1.1715729,13.5 0.5,12.828427 0.5,12 V 3.5 c 0,-0.5522847 0.44771525,-1 1,-1 h 5 c 0.5522847,0 1,0.4477153 1,1 v 1" />
		<path stroke="var(--vscode-ctp-mauve)" d="m 12,14.5 h 3 m -3.5,1 2,-4.000923 2,4.000923 m -6,-4.000923 c 0,0 0.555895,1.734705 3,2.000462 M 11.5,10 c 0,0 0.147877,3.300801 -3,3.5 H 8 m 0,-4 h 5 M 10.5,8 v 1.5" />
	</g>
</svg>
