<svg xmlns="http://www.w3.org/2000/svg" width="16" height="16" viewBox="0 0 16 16">
	<g fill="none" stroke-linecap="round" stroke-linejoin="round">
		<path stroke="var(--vscode-ctp-text)" d="M 4.5,4.5 H 12 c 0.828427,0 1.5,0.6715729 1.5,1.5 V 6.5 M 6,13.5 H 2 C 1.1715729,13.5 0.5,12.828427 0.5,12 V 3.5 c 0,-0.5522847 0.44771525,-1 1,-1 h 5 c 0.5522847,0 1,0.4477153 1,1 v 1" />
		<path stroke="var(--vscode-ctp-blue)" d="m 8.5175952,15.5 1.0156421,-1.015642 m 3.9687157,-5.9685602 -2,1.9899902 m 3.998047,0.01001 -1.998047,2 m -2.969095,-2.6251372 3.594231,3.5940752 -0.898597,0.898597 c -0.636935,0.66647 -1.584784,0.935859 -2.477035,0.704003 C 9.859207,14.855479 9.1624176,14.15872 8.9305221,13.26648 8.6986267,12.374239 8.9679753,11.426378 9.634417,10.789414 Z" />
	</g>
</svg>
