<svg xmlns="http://www.w3.org/2000/svg" width="16" height="16" viewBox="0 0 16 16">
	<path fill="none" stroke="var(--vscode-ctp-text)" stroke-linecap="round" stroke-linejoin="round" d="M4.5 4.5H12c.83 0 1.5.67 1.5 1.5v.5m-7.5 7H2A1.5 1.5 0 01.5 12V3.5a1 1 0 011-1h5a1 1 0 011 1v1" />
	<path fill="none" stroke="var(--vscode-ctp-flamingo)" stroke-linecap="round" stroke-linejoin="round" stroke-width="2.42" d="M7.6835455 7.5745406h.00976m9.5012965 2.9648684h5.121335l-3.414224 6.918024-3.014271-4.269409M18.413962 8.0686852 14.511993 15.974999 4.3766263 10.835895A2.8484378 2.8858045 0 0 1 3.1084862 6.9716842L4.4546657 4.2143573A2.8484378 2.8858045 0 0 1 8.2785959 2.9295814ZM2.8060836 17.457433H6.473935a1.9509848 1.9765784 0 0 0 1.7558863-1.087118l1.404709-2.866039m-6.8284467 5.929735v-3.953156" transform="matrix(-.4104 0 0 .41613 16.655 7.41)" />
</svg>
