<svg xmlns="http://www.w3.org/2000/svg" width="16" height="16" viewBox="0 0 16 16">
	<path fill="none" stroke="var(--vscode-ctp-text)" stroke-linecap="round" stroke-linejoin="round" d="M4.5 4.5H12c.8 0 1.5.7 1.5 1.5v.5m-7.5 7H2c-.8 0-1.5-.7-1.5-1.5V3.5c0-.6.4-1 1-1h5c.6 0 1 .4 1 1v1" />
	<path fill="none" stroke="var(--vscode-ctp-overlay1)" stroke-linecap="round" stroke-linejoin="round" d="M 8.833333,8.6161099 C 8.096953,8.6161099 7.5,9.2130636 7.5,9.9494432 c 0,0.7363778 0.596953,1.3333318 1.333333,1.3333318 0.73638,0 1.333333,-0.596954 1.333333,-1.3333318 0,-0.7363796 -0.596953,-1.3333333 -1.333333,-1.3333333 m 5.333333,0 c -0.73638,0 -1.333333,0.5969537 -1.333333,1.3333333 0,0.7363778 0.596953,1.3333318 1.333333,1.3333318 0.73638,0 1.333334,-0.596954 1.333334,-1.3333318 0,-0.7363796 -0.596954,-1.3333333 -1.333334,-1.3333333" />
	<path fill="none" stroke="var(--vscode-ctp-yellow)" stroke-linecap="round" stroke-linejoin="round" d="m 9.157796,13.716494 2.392457,1.783519 2.392456,-1.783519 -2.392456,-1.783519 z" />
</svg>
