<svg xmlns="http://www.w3.org/2000/svg" width="16" height="16" viewBox="0 0 16 16">
	<path fill="none" stroke="var(--vscode-ctp-text)" stroke-linecap="round" stroke-linejoin="round" d="M4.5 4.5H12c.8 0 1.5.7 1.5 1.5v.5m-7.5 7H2c-.8 0-1.5-.7-1.5-1.5V3.5c0-.6.4-1 1-1h5c.6 0 1 .4 1 1v1" />
	<path fill="none" stroke="var(--vscode-ctp-blue)" stroke-linecap="round" stroke-linejoin="round" d="M 9.7769411,9.7040302 V 10.230017" />
	<path fill="none" stroke="var(--vscode-ctp-sky)" stroke-linecap="round" stroke-linejoin="round" d="M 12.395089,14.847574 H 7.8125011 V 8.4548112 h 4.4219719" />
	<path fill="none" stroke="var(--vscode-ctp-text)" stroke-linecap="round" stroke-linejoin="round" d="M 13.379318,9.7040302 V 10.230017" />
	<path fill="none" stroke="var(--vscode-ctp-blue)" stroke-linecap="round" stroke-linejoin="round" d="m 9.345248,12.870066 c 1.316141,0.630115 2.554728,0.552584 2.841398,0.530344" />
	<path fill="none" stroke="var(--vscode-ctp-text)" stroke-linecap="round" stroke-linejoin="round" d="m 12.186646,13.40041 c 0.600853,-0.04662 1.049598,-0.192932 1.760376,-0.530344" />
	<path fill="none" stroke="var(--vscode-ctp-blue)" stroke-linecap="round" stroke-linejoin="round" d="M 12.234473,8.4548112 H 15.5 v 6.3927628 h -3.104911" />
	<path fill="none" stroke="var(--vscode-ctp-text)" stroke-linecap="round" stroke-linejoin="round" d="m 12.693051,7.8125 c 0,0 -1.436349,1.4464641 -1.739803,4.268585 h 1.325082 c 0,0 -0.424834,1.901645 0.343916,3.418915" />
</svg>
