<svg xmlns="http://www.w3.org/2000/svg" width="16" height="16" viewBox="0 0 16 16">
	<path fill="none" stroke="var(--vscode-ctp-text)" stroke-linecap="round" stroke-linejoin="round" d="M4.5 4.5H12c.8 0 1.5.7 1.5 1.5v.5m-7.5 7H2c-.8 0-1.5-.7-1.5-1.5V3.5c0-.6.4-1 1-1h5c.6 0 1 .4 1 1v1" />
	<path fill="none" stroke="var(--vscode-ctp-pink)" stroke-linecap="round" stroke-linejoin="round" d="M8.9999635 13.614596v0m0 0H14.821511M8.9999635 13.071581 11.587318 8.7274605m3.234193 4.3441205-2.587354-4.3441205M15.500001 13.902304 11.950872 15.500005 8.4017445 13.902303V9.5468754l3.5491275-1.5344271 3.549129 1.5344271z" />
</svg>
