<svg xmlns="http://www.w3.org/2000/svg" width="16" height="16" viewBox="0 0 16 16">
	<g fill="none" stroke-linecap="round" stroke-linejoin="round">
		<path stroke="var(--vscode-ctp-text)" d="M 4.5,4.5 H 12 c 0.828427,0 1.5,0.6715729 1.5,1.5 V 6.5 M 6,13.5 H 2 C 1.1715729,13.5 0.5,12.828427 0.5,12 V 3.5 c 0,-0.5522847 0.44771525,-1 1,-1 h 5 c 0.5522847,0 1,0.4477153 1,1 v 1" />
		<path stroke="var(--vscode-ctp-lavender)" d="m 8.5,14 v 1.5 H 10 m 1,-5 1.269231,-2 H 15.5 v 3.230769 L 13.5,13.5 v 2 h -2 L 11,15 l 0.75,-0.75 -2,-2 L 9,13 8.5,12.5 v -2 z m 2.5,0 v 0" />
	</g>
</svg>
