<svg xmlns="http://www.w3.org/2000/svg" width="16" height="16" viewBox="0 0 16 16">
	<path fill="none" stroke="var(--vscode-ctp-text)" stroke-linecap="round" stroke-linejoin="round" d="m1.87 8 .7-2.74a1 1 0 0 1 .96-.76h10.94a1 1 0 0 1 .97 1.24L15.12 7M6 13.5H2A1.5 1.5 0 0 1 .5 12V3.5a1 1 0 0 1 1-1h5a1 1 0 0 1 1 1v1" />
	<path fill="none" stroke="var(--vscode-ctp-yellow)" stroke-linejoin="round" d="M 12.922829,11.903796 H 7.4995875 L 10.211208,6.9999457 Z" />
	<path fill="none" stroke="var(--vscode-ctp-yellow)" stroke-linejoin="round" d="m 11.661925,9.6413547 a 2.5689041,2.5961567 0 1 1 -1.308,2.2624413" />
</svg>
