<svg xmlns="http://www.w3.org/2000/svg" width="16" height="16" viewBox="0 0 16 16">
	<g fill="none" stroke-linecap="round" stroke-linejoin="round">
		<path stroke="var(--vscode-ctp-text)" d="M 1.8748797,8.0004811 2.5606339,5.2574644 C 2.6719257,4.8122974 3.0719088,4.5 3.5307764,4.5 H 14.469224 c 0.552284,0 1,0.4477152 1,1 0,0.081762 -0.01003,0.163215 -0.02986,0.2425356 L 15.124325,7.0026989 M 6,13.5 H 2.0043488 C 1.1715729,13.5 0.5,12.828427 0.5,12 V 3.5 c 0,-0.5522847 0.44771525,-1 1,-1 h 5 c 0.5522847,0 1,0.4477153 1,1 v 1" />
		<path stroke="var(--vscode-ctp-sapphire)" d="m 8.5,11.999925 h 6.999849 m -3.499924,3.499924 C 10.06697,15.499849 8.5,14 8.5,11.999925 8.5,9.9998494 10.06697,8.5 11.999925,8.5 14,8.5 15.499849,10 15.499849,11.999925 15.499849,14 14,15.499849 11.999925,15.499849 Z M 11.556079,9 c -1.37927,2.010618 -1.447783,4.009525 0.08683,6.339119 M 12.454259,9 c 1.360556,1.979117 1.449569,3.98033 -0.062,6.339119" />
	</g>
</svg>
