<svg xmlns="http://www.w3.org/2000/svg" width="16" height="16" viewBox="0 0 16 16">
	<path fill="none" stroke="var(--vscode-ctp-text)" stroke-linecap="round" stroke-linejoin="round" d="M4.5 4.5H12c.8 0 1.5.7 1.5 1.5v.5m-7.5 7H2c-.8 0-1.5-.7-1.5-1.5V3.5c0-.6.4-1 1-1h5c.6 0 1 .4 1 1v1" />
	<path fill="none" stroke="var(--vscode-ctp-blue)" d="M 7.872648,14.251639 V 9.9734225 C 7.872589,9.8466458 7.9751459,9.7387135 8.1143397,9.719063 L 15.169642,8.7269319 c 0.17357,-0.024503 0.330431,0.096272 0.330358,0.2543596 v 6.2616215 c 7.3e-5,0.158085 -0.156788,0.278862 -0.330358,0.254359 L 8.1143397,14.505141 C 7.975324,14.485517 7.8728235,14.377825 7.872648,14.25121 Z m 0,-2.139108 H 15.5 M 10.971261,9.3244411 v 5.5761799" />
</svg>
