<svg xmlns="http://www.w3.org/2000/svg" width="16" height="16" viewBox="0 0 16 16">
	<g fill="none" stroke-linecap="round" stroke-linejoin="round">
		<path stroke="var(--vscode-ctp-text)" d="M 4.5,4.5 H 12 c 0.828427,0 1.5,0.6715729 1.5,1.5 V 6.5 M 6,13.5 H 2 C 1.1715729,13.5 0.5,12.828427 0.5,12 V 3.5 c 0,-0.5522847 0.44771525,-1 1,-1 h 5 c 0.5522847,0 1,0.4477153 1,1 v 1" />
		<path stroke="var(--vscode-ctp-blue)" d="M8,10 L13.5551807,15.4315107 C13.5551807,15.4315107 13.7338984,15.5745056 13.897341,15.4472582 L15.3309858,14.708029 C15.5261666,14.5643101 15.4986715,14.3867431 15.4986715,14.3867431 L15.4986715,9.55007729 C15.4986715,9.33775705 15.2970414,9.26408754 15.2970414,9.26408754 L13.9752436,8.57735014 C13.6867155,8.38494059 13.4976448,8.61210333 13.4976448,8.61210333 L13.0767334,9.01755714 L8,14" />
	</g>
</svg>
