<svg xmlns="http://www.w3.org/2000/svg" width="16" height="16" viewBox="0 0 16 16">
	<path fill="none" stroke="var(--vscode-ctp-text)" stroke-linecap="round" stroke-linejoin="round" d="m1.9 8 .7-2.7a1 1 0 0 1 1-.8h10.9a1 1 0 0 1 1 1.2L15 7m-9 6.5H2c-.8 0-1.5-.7-1.5-1.5V3.5c0-.6.4-1 1-1h5c.6 0 1 .4 1 1v1" />
	<path fill="none" stroke="var(--vscode-ctp-blue)" d="M 7.8726184,14.251603 V 9.9733863 C 7.8725594,9.8466096 7.9751163,9.7386773 8.1143101,9.7190268 L 15.169612,8.7268957 c 0.17357,-0.024503 0.330432,0.096272 0.330359,0.2543596 v 6.2616217 c 7.3e-5,0.158085 -0.156789,0.278862 -0.330359,0.254359 L 8.1143101,14.505105 C 7.9752944,14.485481 7.8727939,14.377789 7.8726184,14.251174 Z m 0,-2.139108 h 7.6273526 m -4.52874,-2.7880901 v 5.5761801" />
</svg>
