<svg xmlns="http://www.w3.org/2000/svg" width="16" height="16" viewBox="0 0 16 16">
	<g fill="none" stroke-linecap="round" stroke-linejoin="round">
		<path stroke="var(--vscode-ctp-text)" d="M 4.5,4.5 H 12 c 0.828427,0 1.5,0.6715729 1.5,1.5 V 6.5 M 6,13.5 H 2 C 1.1715729,13.5 0.5,12.828427 0.5,12 V 3.5 c 0,-0.5522847 0.44771525,-1 1,-1 h 5 c 0.5522847,0 1,0.4477153 1,1 v 1" />
		<path stroke="var(--vscode-ctp-mauve)" d="M 13.436131,10.469148 C 13.297968,9.3453713 12.700514,8.5000194 11.984422,8.5000194 c -0.818381,0 -1.481809,1.1041042 -1.481809,2.4660856 0,0.806223 0.232467,1.522084 0.591932,1.97206 m 1.695644,1.905287 c 0.893484,0.697076 1.914573,0.872982 2.420928,0.367365 0.578682,-0.57784 0.265939,-1.826992 -0.698531,-2.790058 -0.570918,-0.570085 -1.242225,-0.912136 -1.815051,-0.976506 m -3.1102289,1.091543 c -0.8864825,0.760502 -1.3829083,2.137526 -0.8765545,2.643141 0.5786824,0.577841 1.8296544,0.265552 2.7941254,-0.697513 0.570917,-0.570085 0.913467,-1.240416 0.977931,-1.812408" />
	</g>
</svg>
