<svg xmlns="http://www.w3.org/2000/svg" width="16" height="16" viewBox="0 0 16 16">
	<g fill="none" stroke-linecap="round" stroke-linejoin="round">
		<path stroke="var(--vscode-ctp-text)" d="m1.87 8 .7-2.74a1 1 0 01.96-.76h10.94a1 1 0 01.97 1.24l-.219.875M6 13.5H2A1.5 1.5 0 01.5 12V3.5a1 1 0 011-1h5a1 1 0 011 1v1" />
		<path stroke="var(--vscode-ctp-sky)" d="M7.5 12.429c0-1.142.834-2.068 1.863-2.068.157-.813.717-1.477 1.47-1.741a2.15 2.15 0 012.177.461c.596.55.865 1.388.708 2.2h.396c.766 0 1.386.72 1.386 1.61 0 .888-.62 1.608-1.386 1.608H9.363c-1.029-.002-1.863-.928-1.863-2.07" />
	</g>
</svg>
