<svg xmlns="http://www.w3.org/2000/svg" width="16" height="16" viewBox="0 0 16 16">
	<g fill="none" stroke-linecap="round" stroke-linejoin="round">
		<path stroke="var(--vscode-ctp-text)" d="M 4.5,4.5 H 12 c 0.828427,0 1.5,0.6715729 1.5,1.5 V 6.5 M 6,13.5 H 2 C 1.1715729,13.5 0.5,12.828427 0.5,12 V 3.5 c 0,-0.5522847 0.44771525,-1 1,-1 h 5 c 0.5522847,0 1,0.4477153 1,1 v 1" />
		<path stroke="var(--vscode-ctp-red)" d="M12.5 10.5v-1c0-.5522847-.447715-1-1-1-.552285 0-1 .4477153-1 1v1m2.666667 0c.248167.371911.30872 1.053571.333333 1.5v1.5c0 1.150593-.849407 2-2 2-1.150593 0-2-.849407-2-2V12c.024613-.446429.085166-1.128089.3333333-1.5zM7.5 12.5h2m4 0h2m-4 3V13m-3.5 2.5 1.5-1m5.5 1-1.5-1m-5.5-5 1.5 1m5.5-1-1.5 1" />
	</g>
</svg>
