<svg xmlns="http://www.w3.org/2000/svg" width="16" height="16" viewBox="0 0 16 16">
	<path fill="none" stroke="var(--vscode-ctp-text)" stroke-linecap="round" stroke-linejoin="round" d="m1.8 7.9 0.69-2.7c0.11-0.44 0.51-0.76 0.97-0.76h11c0.55 0 1 0.45 1 1 0 0.082-0.01 0.16-0.03 0.24l-0.32 1.3m-9.1 6.5h-4c-0.83 0-1.5-0.67-1.5-1.5v-8.5c0-0.55 0.45-1 1-1h5c0.55 0 1 0.45 1 1v1" />
	<path fill="none" stroke="var(--vscode-ctp-peach)" stroke-linejoin="round" stroke-width=".57" d="m 8.2850023,11.432293 v 2.29075 L 12,15.715002 15.714998,13.723043 V 9.1415414 L 13.706891,8.2849996 9.9918931,9.9781636 V 10.545871 Z M 12,9.1415414 14.008106,9.9980831 V 14.579586 M 8.2850023,11.492051 12,13.484009 15.714998,11.492051 M 9.9918931,10.09768 12,11.193257 15.714998,9.2013001 M 9.9918931,10.595671 v 3.983915 M 12,11.193257 v 4.282709" />
</svg>
