<svg xmlns="http://www.w3.org/2000/svg" width="16" height="16" viewBox="0 0 16 16">
	<path fill="none" stroke="var(--vscode-ctp-text)" stroke-linecap="round" stroke-linejoin="round" d="m1.9 8 .7-2.7a1 1 0 0 1 1-.8h10.9a1 1 0 0 1 1 1.2L15 7m-9 6.5H2c-.8 0-1.5-.7-1.5-1.5V3.5c0-.6.4-1 1-1h5c.6 0 1 .4 1 1v1" />
	<path fill="none" stroke="var(--vscode-ctp-pink)" stroke-linecap="round" stroke-linejoin="round" d="M9.0073262 13.614598v0m0 0H14.828873M9.0073262 13.071583 11.59468 8.7274622m3.234193 4.3441208-2.587354-4.3441208M15.507363 13.902306 11.958234 15.500007 8.4091068 13.902305V9.5468771L11.958234 8.01245 15.507363 9.5468771Z" />
</svg>
