<svg xmlns="http://www.w3.org/2000/svg" fill="none" viewBox="0 0 16 16" width="16" height="16">
	<path stroke="var(--vscode-ctp-peach)" stroke-linecap="round" stroke-linejoin="round" d="M4.12 6.22Q4.8 5.66 5.39 5" />
	<path stroke="var(--vscode-ctp-yellow)" stroke-linecap="round" stroke-linejoin="round" d="M.5 8a9 9 0 0 1 4.76 2.86M.5 8a8.5 8.5 0 0 0 3.62-1.78" />
	<path stroke="var(--vscode-ctp-green)" stroke-linecap="round" stroke-linejoin="round" d="M8.86 13.5q-.56 1.05-.86 2m-2.74-4.64A13 13 0 0 1 8 15.5" />
	<path stroke="var(--vscode-ctp-sapphire)" stroke-linecap="round" stroke-linejoin="round" d="M8.86 13.5q.54-1.01 1.32-2" />
	<path stroke="var(--vscode-ctp-teal)" stroke-linecap="round" stroke-linejoin="round" d="M10.19 11.5a11 11 0 0 1 2.31-2.19" />
	<path stroke="var(--vscode-ctp-blue)" stroke-linecap="round" stroke-linejoin="round" d="M12.5 6.69c.89.61 1.9 1.08 3 1.31-1.1.23-2.11.7-3 1.31" />
	<path stroke="var(--vscode-ctp-mauve)" stroke-linecap="round" stroke-linejoin="round" d="M9.5 3.56a12 12 0 0 0 3 3.13" />
	<path stroke="var(--vscode-ctp-red)" stroke-linecap="round" stroke-linejoin="round" d="M9.5 3.56C8.8 2.52 8.3 1.45 8 .5c-.3.95-.8 2.02-1.5 3.06" />
	<path stroke="var(--vscode-ctp-peach)" stroke-linecap="round" stroke-linejoin="round" d="M6.5 3.56Q6 4.31 5.4 5" />
</svg>
