<svg xmlns="http://www.w3.org/2000/svg" width="16" height="16" viewBox="0 0 16 16">
	<g fill="none" stroke-linecap="round" stroke-linejoin="round">
		<path stroke="var(--vscode-ctp-text)" d="M8.5 10.5a1 1 0 01-1 1 1 1 0 01-1-1 1 1 0 011-1 1 1 0 011 1m0-6a1 1 0 01-1 1 1 1 0 01-1-1 1 1 0 011-1 1 1 0 011 1m3 3a1 1 0 01-1 1 1 1 0 01-1-1 1 1 0 011-1 1 1 0 011 1m-4-2v4m-1-6-1-1m4 4-1-1" />
		<path stroke="var(--vscode-ctp-peach)" d="m9.06 1.06 5.88 5.88a1.5 1.5 0 010 2.12l-5.88 5.88a1.5 1.5 0 01-2.12 0L1.06 9.06a1.5 1.5 0 010-2.12l5.88-5.88a1.5 1.5 0 012.12 0" />
	</g>
</svg>
