<svg xmlns="http://www.w3.org/2000/svg" width="16" height="16" viewBox="0 0 16 16">
	<path fill="none" stroke="var(--vscode-ctp-overlay1)" stroke-linecap="round" stroke-linejoin="round" d="M11.5 13.5a1 1 0 100-2 1 1 0 000 2m1.75-4 1.75 3-1.75 3h-3.5L8 12.5l1.75-3z" />
	<path fill="none" stroke="var(--vscode-ctp-pink)" stroke-linecap="round" stroke-linejoin="round" stroke-width="142.489" d="m 1018.0719,154.77863 c -41.70892,0 -83.41782,21.24714 -106.37376,63.744 L 732.8705,549.57315 c -17.43451,32.27586 -47.42034,55.0061 -82.22438,62.33394 L 293.64059,687.06734 C 202.0307,706.35449 164.68103,826.44075 227.89663,898.1897 l 246.4864,279.7607 c 24.01926,27.2404 35.48555,64.062 31.40546,100.8524 l -41.81254,377.5026 c -10.72703,96.8481 87.07793,171.089 172.11607,130.4885 h 0.002 l 331.17084,-158.1484 h 0.002 c 32.26489,-15.4221 69.35474,-15.4221 101.61964,0 v 0 m 492.875,-450.6951 v 0 l 246.4781,-279.76929 v -0.002 c 63.2156,-71.74895 25.8718,-191.83178 -65.7423,-211.12236 l -357.0062,-75.15989 c -34.8007,-7.32698 -64.7906,-30.05808 -82.2227,-62.33136 L 1124.4456,218.50115 c -22.9592,-42.49515 -64.6698,-63.74229 -106.3819,-63.74229" transform="translate(-.88 -.586)scale(.00702)" />
	<path fill="none" stroke="var(--vscode-ctp-pink)" stroke-linecap="round" stroke-linejoin="round" d="M6.8708518 7.3710806A.65722328.66072845 0 0 1 6.253264 7.8058267.65722328.66072845 0 0 1 5.6356761 7.3710807M4.0797644 6.2655668v0m4.3814884 0v0" />
</svg>
