<svg xmlns="http://www.w3.org/2000/svg" width="16" height="16" viewBox="0 0 16 16">
	<path fill="none" stroke="var(--vscode-ctp-yellow)" stroke-linecap="round" stroke-linejoin="round" d="M 0.50000015,12.741015 A 0.74999999,0.72938689 0 0 0 1.2500003,13.470402 H 14.749999 A 0.74999999,0.72938689 0 0 0 15.5,12.741015 V 11.282241 A 0.74999999,0.72938689 0 0 0 14.749999,10.552854 H 1.2500003 A 0.74999999,0.72938689 0 0 0 0.50000015,11.282241 Z M 6.4999999,6.9059195 V 3.258985 a 0.74999999,0.72938689 0 0 1 0.75,-0.7293868 h 1.5 a 0.74999999,0.72938689 0 0 1 0.75,0.7293868 v 3.6469345 m -7.5,3.6469345 V 8.3646934 a 4.5,4.3763213 0 0 1 4.5,-4.3763214 m 3,0 A 4.5,4.3763213 0 0 1 14,8.3646934 v 2.1881606" />
</svg>
