<svg xmlns="http://www.w3.org/2000/svg" width="16" height="16" viewBox="0 0 16 16">
	<path fill="none" stroke="var(--vscode-ctp-text)" stroke-linecap="round" stroke-linejoin="round" d="m 6.791477,13.15611 2.258569,1.932825 c 0,0 2.25857,1.259594 3.887347,-0.933837 1.628775,-2.19343 -0.586361,-4.2348399 -0.586361,-4.2348399 0,0 -0.977257,-3.8867186 -4.560572,-3.8439324 -3.6376005,0.043434 -4.169667,3.9090832 -4.169667,3.9090832 0,0 -2.0326098,1.7261571 -0.6515106,3.9742351 1.4876156,2.42146 3.7570436,1.151008 3.7570436,1.151008 L 9.060905,13.15611" />
	<path fill="none" stroke="var(--vscode-ctp-text)" stroke-linecap="round" stroke-linejoin="round" d="M4.1420011 8.4217752c0 0-3.279269-7.1015016-.8252464-7.81816703C5.7707774-.11305713 6.617741 6.0546079 6.617741 6.0546079M11.743603 8.4217752c0 0 3.279269-7.1015016.825247-7.81816703C10.114827-.11305713 9.267864 6.0546079 9.267864 6.0546079" />
	<circle cx="6.035" cy="10.776" r=".5" fill="none" stroke="var(--vscode-ctp-text)" stroke-linecap="round" stroke-linejoin="round" />
	<circle cx="9.874" cy="10.776" r=".5" fill="none" stroke="var(--vscode-ctp-text)" stroke-linecap="round" stroke-linejoin="round" />
	<path fill="none" stroke="var(--vscode-ctp-text)" stroke-linecap="round" stroke-linejoin="round" d="M11.525786 12.374294H15.5M11.571778 13.699146l3.838796 1.028608M4.474214 12.374294H.5M4.4282214 13.699146.5894259 14.727754" />
</svg>
