<svg xmlns="http://www.w3.org/2000/svg" width="16" height="16" viewBox="0 0 16 16">
	<g fill="none" stroke="var(--vscode-ctp-yellow)" stroke-linecap="round" stroke-linejoin="round">
		<path d="M4.5 11c0 .828427.6715729 1.5 1.5 1.5.8284271 0 1.5-.671573 1.5-1.5V7.5M12.5 8.75C12.5 8.05964406 11.9627417 7.5 11.3 7.5L10.7 7.5C10.0372583 7.5 9.5 8.05964406 9.5 8.75 9.5 9.44035594 10.0372583 10 10.7 10L11.3 10C11.9627417 10 12.5 10.5596441 12.5 11.25 12.5 11.9403559 11.9627417 12.5 11.3 12.5L10.7 12.5C10.0372583 12.5 9.5 11.9403559 9.5 11.25" />
		<path d="m 4,1.5 h 8 c 1.385,0 2.5,1.115 2.5,2.5 v 8 c 0,1.385 -1.115,2.5 -2.5,2.5 H 4 C 2.615,14.5 1.5,13.385 1.5,12 V 4 C 1.5,2.615 2.615,1.5 4,1.5 Z" />
	</g>
</svg>
