<svg xmlns="http://www.w3.org/2000/svg" width="16" height="16" viewBox="0 0 16 16">
	<path fill="none" stroke="var(--vscode-ctp-blue)" stroke-linecap="round" stroke-linejoin="round" d="m 15.5,15.5 h -7 m 0.8,-7 h 5.4 a 0.8,0.8 0 0 1 0.8,0.8 v 3.4 a 0.8,0.8 0 0 1 -0.8,0.8 H 9.3 A 0.8,0.8 0 0 1 8.5,12.7 V 9.3 A 0.8,0.8 0 0 1 9.3,8.5" />
	<g fill="none" stroke-linecap="round" stroke-linejoin="round" stroke-width="1.084" transform="translate(.307 .038)scale(.92302)">
		<path stroke="var(--vscode-ctp-text)" d="M 9.417035,6.13369 A 1.300005,1.300005 0 0 1 8.11703,7.433695 1.300005,1.300005 0 0 1 6.817025,6.13369 1.300005,1.300005 0 0 1 8.11703,4.833685 1.300005,1.300005 0 0 1 9.417035,6.13369" />
		<path stroke="var(--vscode-ctp-blue)" d="m 6.38369,2.233675 c -3.1112182,0 -5.63335256,2.522139 -5.63335256,5.633355 0,3.111216 2.52213436,5.633355 5.63335256,5.633355 0.038976,0 0.2865514,0.0015 0.3253379,6.53e-4 M 11.950776,7.0002624 C 11.92447,6.8299203 11.890533,6.6620976 11.849324,6.4971546 11.237422,4.0479631 9.0224441,2.233675 6.383693,2.233675 m 6.06669,-1.73334 c -1.733339,0 -1.733339,2.60001 0,2.60001 1.733339,0 1.733339,-2.60001 0,-2.60001" />
	</g>
</svg>
