<svg xmlns="http://www.w3.org/2000/svg" width="16" height="16" viewBox="0 0 16 16">
	<g fill="none" stroke-linecap="round" stroke-linejoin="round">
		<path stroke="var(--vscode-ctp-overlay1)" d="M15 11.5c.27 0 .5.22.5.5v3a.5.5 0 01-.5.5h-5a.5.5 0 01-.5-.5v-3c0-.28.22-.5.5-.5zm-4 0V10a1.5 1.5 0 013 0v1.5" />
		<path stroke="var(--vscode-ctp-text)" d="M9.5 9V5.5h-2v6h-4v-8h8v3" />
		<path stroke="var(--vscode-ctp-red)" d="M7.54 13.5H3A1.5 1.5 0 011.5 12V3c0-.83.67-1.5 1.5-1.5h9c.83 0 1.5.67 1.5 1.5v3.5" />
	</g>
</svg>
