<svg xmlns="http://www.w3.org/2000/svg" width="16" height="16" viewBox="0 0 16 16">
	<path fill="none" stroke="var(--vscode-ctp-yellow)" stroke-linecap="round" stroke-linejoin="round" stroke-width="1.449" d="M 32.426705,0.48926907 31.252152,1.1673975 21.855728,-4.2576298 V -15.107685 l 9.396423,-5.425027 9.396424,5.425027 v 2.712514 1.356257" transform="matrix(.68907 0 0 .69117 -14.561 14.692)" />
	<path fill="none" stroke="var(--vscode-ctp-yellow)" stroke-linecap="round" stroke-linejoin="round" d="M 3.5415977,13.23567 V 6.8930306 H 2.1984552" />
	<ellipse cx="5.698" cy="9.07" fill="none" stroke="var(--vscode-ctp-yellow)" stroke-linecap="round" stroke-linejoin="round" rx="2.142" ry="2.147" />
	<path fill="none" stroke="var(--vscode-ctp-yellow)" stroke-linecap="round" stroke-linejoin="round" d="M 9.3911852,8.898767 C 9.0040235,8.8604019 8.5477001,8.7463203 8.1799769,8.5103795 7.3034466,7.9479749 6.9375104,6.8485461 7.3015735,5.8712689 7.6656347,4.8939926 8.6609067,4.304048 9.6906604,4.4551431 10.720414,4.6062392 11.505232,5.6069686 11.574564,6.6478369 H 7.3620947" />
	<path fill="none" stroke="var(--vscode-ctp-overlay1)" d="m 15.000148,11.501352 c 0.27606,0 0.499852,0.223791 0.499852,0.499852 v 2.998944 C 15.5,15.276209 15.276208,15.5 15.000148,15.5 h -4.998353 c -0.276061,0 -0.499852,-0.223791 -0.499852,-0.499852 v -2.999113 c 0,-0.27606 0.223791,-0.499852 0.499852,-0.499852 z m -3.998649,0 v -1.5 c 0,-0.8284271 0.671573,-1.5 1.5,-1.5 0.828428,0 1.5,0.6715729 1.5,1.5 v 1.5" />
</svg>
