<svg xmlns="http://www.w3.org/2000/svg" width="16" height="16" viewBox="0 0 16 16">
	<g fill="none" stroke-linejoin="round">
		<path stroke="var(--vscode-ctp-mauve)" d="M4.16 2.1a71.7 71.7 0 0 0-2.2 4.12L5.8 1.55l5.22 5.49-1.1.82.55 4.12 2.47 2.47-1.1-2.74s1.65-2.75 1.92-3.57c.28-.83.28-2.2.28-2.75 0-.55-1.65-2.74-2.2-3.57C11.3 1 11.02 1 10.74 1H6.09c-.55 0-1.37.27-1.92 1.1Z" />
		<path stroke="var(--vscode-ctp-sky)" d="M2.41 6.49c.44-.66 2.56-3.2 3.57-4.4l.55 4.13-1.1 1.37L13.12 15c-1.37-.37-4.94-1.65-6.04-1.65-1.1 0-1.89.07-2.2-.55-.27-.55-2.47-3.56-2.74-4.39-.16-.47-.4-.9.27-1.92Z" />
	</g>
</svg>
