<svg xmlns="http://www.w3.org/2000/svg" width="16" height="16" viewBox="0 0 16 16">
	<path fill="none" stroke="var(--vscode-ctp-red)" stroke-linecap="round" stroke-linejoin="round" d="M 6.0466123,5.8922891 C 2.6366412,5.3344739 1.4999841,8.6813637 1.4999841,8.6813637 l 2.8416425,0.5578157 m 5.9282354,0.7982336 c 0.568329,3.346889 -2.8416428,4.46252 -2.8416428,4.46252 L 6.8598904,11.710859" />
	<path fill="none" stroke="var(--vscode-ctp-sapphire)" stroke-linecap="round" stroke-linejoin="round" d="M 8.888255,7.0079193 A 1.607476,1.5777394 0 1 1 11.161569,4.7766589 1.607476,1.5777394 0 0 1 8.888255,7.0079193" />
	<path fill="none" stroke="var(--vscode-ctp-yellow)" stroke-linecap="round" stroke-linejoin="round" d="m 2.6366409,10.912625 c -1.1366568,1.115629 -0.5683286,2.789074 -0.5683286,2.789074 0,0 1.704986,0.557816 2.8416428,-0.557814" />
	<path fill="none" stroke="var(--vscode-ctp-text)" stroke-linecap="round" stroke-linejoin="round" d="M 11.534961,8.9407482 6.6149408,11.47044 4.3416266,9.2391794 6.9189966,4.4101744 C 7.6537305,3.0328533 9.0307426,2.0974931 10.602902,1.9078161 l 3.35598,-0.4044159 c 0.311457,-0.037698 0.576047,0.2219978 0.537639,0.5276931 L 14.084483,5.3249911 C 13.891231,6.868067 12.938241,8.2196062 11.534961,8.9407482" />
</svg>
