<svg xmlns="http://www.w3.org/2000/svg" width="16" height="16" viewBox="0 0 16 16">
	<g fill="none" stroke="var(--vscode-ctp-mauve)" stroke-linecap="round" stroke-linejoin="round">
		<path d="M3.5 5.5h9a1 1 0 011 1v7a1 1 0 01-1 1h-9a1 1 0 01-1-1v-7a1 1 0 011-1" />
		<path d="M6.5 9a.5.5 0 01-.5.5.5.5 0 01-.5-.5.5.5 0 01.5-.5.5.5 0 01.5.5m4 0a.5.5 0 01-.5.5.5.5 0 01-.5-.5.5.5 0 01.5-.5.5.5 0 01.5.5M8 5.5v-2m-7.5 5v3m15-3v3M9 2.5a1 1 0 01-1 1 1 1 0 01-1-1 1 1 0 011-1 1 1 0 011 1m-2.5 10h3" />
	</g>
</svg>
