<svg xmlns="http://www.w3.org/2000/svg" width="16" height="16" viewBox="0 0 16 16">
	<path fill="none" stroke="var(--vscode-ctp-green)" stroke-linecap="round" stroke-linejoin="round" d="M 6.9582329,1.5 C 6.8345276,1.5 6.7342082,1.597004 6.7342082,1.7166693 v 0.65 c 0,0.119657 -0.1002942,0.2166695 -0.2240331,0.2166695 H 5.8828905 C 5.7591602,2.5833388 5.6588659,2.6803431 5.6588659,2.8 V 4.5333307 C 5.6588659,4.6530038 5.5585465,4.75 5.4348159,4.75 H 4.8075314 C 4.6838011,4.75 4.5834982,4.847004 4.5834982,4.9666775 V 6.1583306 C 4.5834982,6.2780038 4.4831956,6.375 4.359465,6.375 H 3.7321724 C 3.608442,6.375 3.5081392,6.471996 3.5081392,6.5916775 V 7.7833306 C 3.5081392,7.9030038 3.4078366,8 3.284106,8 H 2.7240316 C 2.600301,8 2.4999984,8.096996 2.4999984,8.2166775 v 0.65 c 0,0.1196488 0.1003025,0.2166532 0.2240332,0.2166532 h 2.9124056 c 0.123739,0 0.2240584,0.097021 0.2240584,0.2166693 v 1.191677 c 0,0.11965 -0.1003189,0.216654 -0.2240584,0.216654 H 5.0091529 c -0.123722,0 -0.2240249,0.09702 -0.2240249,0.216669 v 1.191678 c 0,0.119649 -0.1003025,0.216645 -0.224033,0.216645 H 3.9338022 c -0.1237306,0 -0.2240332,0.09703 -0.2240332,0.216677 v 1.733323 c 0,0.11968 0.1003027,0.216677 0.2240332,0.216677 h 1.7922653 c 0.1237304,0 0.2240247,-0.097 0.2240247,-0.216677 v -0.866645 h 0.8961411 c 0.1237304,0 0.2240248,-0.09702 0.2240248,-0.216678 v -0.65 c 0,-0.119648 0.1002941,-0.216677 0.224033,-0.216677 h 0.6272845 c 0.1237305,0 0.2240501,-0.097 0.2240501,-0.216645 v -0.65 c 0,-0.119682 0.1002942,-0.216678 0.2240245,-0.216678 h 0.6272846 c 0.1237387,0 0.2240331,-0.097 0.2240331,-0.216669 v -0.65 c 0,-0.119657 0.100319,-0.216654 0.2240248,-0.216654 h 0.6273093 c 0.12373,0 0.224025,-0.09702 0.224025,-0.216677 V 9.3 c 0,-0.1196487 0.100294,-0.2166693 0.224033,-0.2166693 h 0.627284 c 0.123732,0 0.22405,-0.097004 0.22405,-0.2166532 v -0.65 C 11.371694,8.0969963 11.471989,8 11.595719,8 h 0.627284 c 0.12374,0 0.224035,-0.096996 0.224035,-0.2166694 V 6.05 c 0,-0.1196487 -0.100299,-0.2166694 -0.224035,-0.2166694 h -0.649678 c -0.123731,0 -0.224059,-0.097004 -0.224059,-0.2166531 v -0.65 C 11.349265,4.8470044 11.449594,4.75 11.573325,4.75 h 0.627284 c 0.123731,0 0.224025,-0.096996 0.224025,-0.2166693 v -0.65 c 0,-0.1196569 0.100289,-0.2166613 0.224033,-0.2166613 h 0.627303 c 0.123712,0 0.224032,-0.097004 0.224032,-0.2166694 V 1.7166693 C 13.500002,1.5970043 13.399682,1.5 13.27597,1.5 Z" clip-rule="evenodd" />
</svg>
