<svg xmlns="http://www.w3.org/2000/svg" width="16" height="16" viewBox="0 0 16 16">
	<path fill="none" stroke="var(--vscode-ctp-overlay1)" stroke-linecap="round" stroke-linejoin="round" d="M5.6697378 2.6713396c0 0-.2977728-.01416-.741017-.0000203-.502161-.00757-1.0611495.2090858-1.0647383.8306828-.00381.6602788.7984915.8377624 1.0556083.9666107.2571168.1288487 1.0548696.2483549 1.0927465 1.0093121.023487.4718569-.3426347 1.020133-1.2641576 1.0307865-.7092788.00819-1.0773255.0003227-1.0773255.0003227M8.138332 2.6713396v2.9597572c0 0 .09623.8779368.8420209.8779371M15.495018 11.392148h-1.258049c0 0-.59543.100247-.59543.73317 0 .701139.631517.732511.631517.732511h1.221483M5.4318364 8.5245357V13.334878M.49999974 2.6874577V6.549329M.49999974 9.0047991V12.86667" />
</svg>
