<svg xmlns="http://www.w3.org/2000/svg" width="16" height="16" viewBox="0 0 16 16">
	<path fill="none" stroke="var(--vscode-ctp-sapphire)" stroke-linecap="round" stroke-linejoin="round" d="M8 2.5q-3 0-3.75 3.33C5 4.73 5.88 4.31 6.87 4.58c.58.16.98.62 1.43 1.13.74.83 1.6 1.79 3.45 1.79q3 0 3.75-3.33c-.75 1.1-1.63 1.52-2.63 1.25-.57-.16-.97-.62-1.42-1.13C10.7 3.46 9.85 2.5 8 2.5m-3.75 6q-3 0-3.75 3.33c.75-1.1 1.63-1.52 2.63-1.25.57.16.97.62 1.42 1.13.74.83 1.6 1.79 3.45 1.79q3 0 3.75-3.33c-.75 1.1-1.63 1.52-2.62 1.25-.58-.16-.98-.62-1.43-1.13-.74-.83-1.6-1.79-3.45-1.79" />
</svg>
