<svg xmlns="http://www.w3.org/2000/svg" width="16" height="16" viewBox="0 0 16 16">
	<g fill="none" stroke-linecap="round" stroke-linejoin="round">
		<path stroke="var(--vscode-ctp-yellow)" d="M4.73 4.02a4.64 4.64 0 115.55 6.56" />
		<path stroke="var(--vscode-ctp-sky)" d="M7.5 10a.5.5 0 01-.5.5.5.5 0 01-.5-.5.5.5 0 01.5-.5.5.5 0 01.5.5" />
		<path stroke="var(--vscode-ctp-sky)" d="M11.26 12a4.64 4.64 0 11-5.63-6.55" />
		<path stroke="var(--vscode-ctp-yellow)" d="M9.5 6a.5.5 0 01-.5.5.5.5 0 01-.5-.5.5.5 0 01.5-.5.5.5 0 01.5.5" />
	</g>
</svg>
