<svg xmlns="http://www.w3.org/2000/svg" width="16" height="16" viewBox="0 0 16 16">
	<g fill="none">
		<g clip-path="url(#a)">
			<mask id="b" width="14" height="14" x="1" y="1" maskUnits="userSpaceOnUse" style="mask-type:alpha">
				<circle cx="8" cy="8" r="7" fill="#3700ff" />
			</mask>
			<g mask="url(#b)">
				<path stroke="var(--vscode-ctp-yellow)" stroke-linecap="round" stroke-linejoin="round" d="M5 3C4.5 3.5 4.5 4.5 3.5 5M5.5 10C5.33333 9.83333 5 9.5 5 10M5 10C4.5 10.5 3.5 10 3.5 9M3.5 9C3.5 9 4 8.8 4 8M3.5 5C2 7.5 4 7.20546 4 8M10.2947 8C9.5 10 7.5 10.5 5.5 10" />
				<path stroke="var(--vscode-ctp-peach)" stroke-linecap="round" stroke-linejoin="round" d="M11.5 9.5C11.5 9.9 11.8333 10.3333 12 10.5C12.1361 10.6361 12.3167 10.8093 12.5155 10.9892C13.047 11.4703 14.7089 13 15 13" />
				<path stroke="var(--vscode-ctp-yellow)" stroke-linecap="round" stroke-linejoin="round" d="M6 16C5.5 16 5.83333 13.6667 6 13C6.33333 12.1667 6.5 10.5 5.5 10" />
				<mask id="c" width="12" height="8" x="4" y="9" maskUnits="userSpaceOnUse" style="mask-type:alpha">
					<path fill="#b88c2a" d="M11.5622 9.00391C11.6644 9.01678 11.7615 9.06098 11.8386 9.13184C11.9415 9.22651 11.9997 9.3602 11.9997 9.5C11.9997 9.57241 12.035 9.68993 12.1199 9.83594C12.2006 9.97479 12.298 10.0912 12.3533 10.1465L12.5788 10.3662C12.6626 10.4459 12.7543 10.5312 12.8503 10.6182L13.4206 11.1348C13.6534 11.3437 13.9171 11.5767 14.1726 11.7949C14.4287 12.0136 14.6698 12.2105 14.8601 12.3506C14.9561 12.4212 15.03 12.4708 15.0808 12.5C15.0886 12.5045 15.0952 12.508 15.1003 12.5107C15.3001 12.5517 15.4591 12.7119 15.4929 12.9199C15.5322 13.162 15.3906 13.3971 15.1579 13.4746L6.15794 16.4746C6.10703 16.4916 6.0534 16.5 5.99974 16.5C5.69981 16.4999 5.51119 16.3091 5.41869 16.1523C5.33328 16.0075 5.29313 15.8408 5.27123 15.7031C5.22601 15.4185 5.22928 15.0618 5.25072 14.7187C5.29407 14.0252 5.42292 13.2449 5.51439 12.8789L5.53587 12.8145C5.6772 12.4611 5.78649 11.911 5.75072 11.4102C5.71854 10.9609 5.58232 10.6624 5.37083 10.5059L5.27611 10.4473C5.07577 10.347 4.96618 10.1253 5.00853 9.90527C5.05092 9.68547 5.23475 9.52087 5.45775 9.50195L11.4577 9.00195L11.5622 9.00391Z" />
				</mask>
				<g mask="url(#c)">
					<path stroke="var(--vscode-ctp-red)" stroke-linecap="round" stroke-linejoin="round" d="M13 10C11.5 14 7.5 14.5 4.5 12" />
				</g>
				<path stroke="var(--vscode-ctp-yellow)" stroke-linecap="round" stroke-linejoin="round" d="M9.5 2.5C8.01243 2.5 6.24135 1.75865 5 3" />
				<path stroke="var(--vscode-ctp-peach)" stroke-linecap="round" stroke-linejoin="round" d="M12 4C11.8333 3.66667 11.4 3 11 3M11 3C10.5 3 10 2.5 9.5 2.5M12 4C12.5 4.16667 13.5 4.8 13.5 6M13.5 6C13.5 7.2 12.5 8.16667 12 8.5M12 8.5C11.8333 8.66667 11.5 9.1 11.5 9.5M9.5 2.5C9.5804 3.38435 10.5 3 10.5 6.5M10.5 6.5C10.3973 6.91062 10.3046 7.47067 10.2947 8M10.2947 8C10.2767 8.96202 10.5324 9.82253 11.5 9.5" />
			</g>
			<circle cx="8" cy="8" r="7.5" stroke="var(--vscode-ctp-maroon)" />
			<path stroke="var(--vscode-ctp-text)" stroke-linecap="round" stroke-linejoin="round" d="M5.5 4V5M8.5 4.5V5.5" />
			<path stroke="var(--vscode-ctp-red)" stroke-linecap="round" stroke-linejoin="round" d="M4 7.5C3.5 7.5 2.61204 6.89392 3 6.5C3.39694 6.09696 3.93301 6 4.09968 6C4.89968 6 5.43301 6.33333 5.59968 6.5C4.84921 7.16151 4.52736 7.42176 4 7.5Z" />
		</g>
		<defs>
			<clipPath id="a">
				<path fill="#fff" d="M0 0H16V16H0z" />
			</clipPath>
		</defs>
	</g>
</svg>
