<svg xmlns="http://www.w3.org/2000/svg" width="16" height="16" viewBox="0 0 16 16">
	<g fill="none" fill-rule="evenodd" stroke="var(--vscode-ctp-mauve)" stroke-linecap="round" stroke-linejoin="round" stroke-miterlimit="1.5" stroke-width="6.22" transform="matrix(.1608 0 0 .16076 -.053 -.054)">
		<path d="m 11.9,65.033 c 0,0 -1.241,-16.91 11.549,-24.936 0,0 -8.286,-12.228 0,-19.036 8.286,-6.808 12.645,-9.145 18.736,-8.634 0,0 7.247,-20.251 14.643,0 0,0 9.061,-7.776 7.844,17.247 -0.323,6.646 -4.717,16.289 -7.844,20.326 0,0 8.881,6.323 8.881,25.924 0,0 14.526,-7.698 18.663,-8.162 4.136,-0.463 7.724,-0.011 8.572,2.799 0.848,2.81 1.245,4.744 -1.062,6.558 -2.308,1.813 -10.589,4.258 -19.484,10.194 -8.894,5.936 -11.77,4.105 -14.208,5.576 -2.438,1.472 -16.058,7.342 -33.033,0.927 0,0 -15.323,4.247 -14.195,-6.503 0,0 -10.684,-12.422 0.938,-22.28 z" />
		<path d="m 27.469,94.285 c -1.525,-1.407 0.321,-8.703 0.321,-8.703 0,0 -1.252,4.723 -3.116,7.525" />
	</g>
</svg>
