<svg xmlns="http://www.w3.org/2000/svg" width="16" height="16" viewBox="0 0 16 16">
	<g fill="none" stroke-linecap="round" stroke-linejoin="round">
		<path stroke="#c6d0f5" d="M10.5611065,1.60970757 L13.5,10.5 C12.5045494,9.98342233 11.1045219,9.20188294 10,9.00744629 L8,3.5 L6,9.00744629 C4.89058926,9.20106743 3.49966145,9.98138807 2.5,10.5 L5.6629508,1.60860229 C5.78421651,1.21054127 5.84500726,1.01158972 5.9645361,0.864112929 C6.06953214,0.733916966 6.20614435,0.632803274 6.36133392,0.570422535 C6.53723236,0.5 6.74471041,0.5 7.1609297,0.5 L9.06312764,0.5 C9.47934693,0.5 9.68793027,0.5 9.86398661,0.571054127 C10.018634,0.633468059 10.1547804,0.734341387 10.2595213,0.864112929 C10.3790501,1.01206341 10.4396829,1.21117287 10.5611065,1.60970757 Z" />
		<path stroke="#ca9ee6" d="M10.4113035,11.2656046 C9.98014013,11.6309075 9.11937222,11.8793813 8.12797708,11.8793813 C6.91071221,11.8793813 5.8906352,11.5046642 5.6198721,11 C5.52353842,11.2893717 5.5014035,11.6202586 5.5014035,11.8313842 C5.5014035,11.8313842 5.43780456,12.869264 6.1668541,13.5915358 C6.1668541,13.2168187 6.47409306,12.9124769 6.85272495,12.9124769 C7.50134054,12.9124769 7.50071702,13.4730091 7.50024938,13.9279786 L7.50024938,13.9687221 C7.50024938,14.6590473 7.92611282,15.2502915 8.53217325,15.5 C8.43890644,15.3098473 8.39060929,15.1011605 8.3909462,14.889773 C8.3909462,14.2315488 8.78142495,13.9866246 9.23550262,13.7018828 C9.59605246,13.4747068 9.99744278,13.2233006 10.2736617,12.7174017 C10.4225074,12.4454083 10.5003119,12.1408886 10.5,11.8315385 C10.5,11.6393957 10.470226,11.4484876 10.4113035,11.2656046 L10.4113035,11.2656046 Z" />
	</g>
</svg>
