<svg xmlns="http://www.w3.org/2000/svg" width="16" height="16" viewBox="0 0 16 16">
	<g fill="none" fill-rule="evenodd">
		<path stroke="#838ba7" d="M14.9982047,11.5 C15.2742654,11.5 15.4980569,11.7237914 15.4980569,11.9998521 L15.4980569,14.9987961 C15.4980569,15.2748569 15.2742654,15.4986483 14.9982047,15.4986483 L9.99985214,15.4986483 C9.72379143,15.4986483 9.5,15.2748569 9.5,14.9987961 L9.5,11.9996833 C9.5,11.7236226 9.72379143,11.4998311 9.99985214,11.4998311 L14.9982047,11.5 Z M10.9995564,11.5 L10.9995564,10 C10.9995564,9.17157288 11.6711293,8.5 12.4995564,8.5 C13.3279836,8.5 13.9995564,9.17157288 13.9995564,10 L13.9995564,11.5" />
		<path stroke="#ef9f76" stroke-linecap="round" stroke-linejoin="round" d="M.5 6 6.5 8.996 12.5 5.498M3.5 3.497 6.5 5.5 12.498 2M3.5 4 3.5 11M6.5 5.498 6.5 12.5" />
		<path stroke="#ef9f76" stroke-linecap="round" stroke-linejoin="round" d="M6.499 2.5 9.5 4 9.5 7" />
		<path stroke="#ef9f76" stroke-linecap="round" stroke-linejoin="round" d="M12.498 5.5 12.498 2 9.538.5 3.5 3.5 3.5 4.497.5 5.998.5 9.538 6.5 12.5" />
	</g>
</svg>
