<svg xmlns="http://www.w3.org/2000/svg" width="16" height="16" viewBox="0 0 16 16">
	<path fill="none" stroke="#8caaee" stroke-linecap="round" stroke-linejoin="round" d="M6.74 2.24c.32-1.32 2.2-1.32 2.52 0a1.3 1.3 0 001.93.8c1.15-.7 2.48.62 1.77 1.77a1.3 1.3 0 00.8 1.93c1.32.32 1.32 2.2 0 2.52a1.3 1.3 0 00-.8 1.93c.7 1.15-.62 2.48-1.77 1.77a1.3 1.3 0 00-1.93.8c-.32 1.32-2.2 1.32-2.52 0a1.3 1.3 0 00-1.93-.8c-1.15.7-2.48-.62-1.77-1.77a1.3 1.3 0 00-.8-1.93c-1.32-.32-1.32-2.2 0-2.52a1.3 1.3 0 00.8-1.93c-.7-1.15.62-2.48 1.77-1.77a1.3 1.3 0 001.93-.8M10 6.5a2.5 2.5 0 100 3" />
</svg>
