<svg xmlns="http://www.w3.org/2000/svg" width="16" height="16" viewBox="0 0 16 16">
	<g fill="none" stroke="#a6d189" stroke-linecap="round" stroke-linejoin="round">
		<path d="M7.5 9.39328462C7.02379845 10.2664421 6.05354515 10.7012197 5.12400605 10.4579848 4.19445152 10.214734 3.53172338 9.35261329 3.50110324 8.34680521 3.47049495 7.34096959 4.07947542 6.43611831 4.99237283 6.13100805 5.9052158 5.82585073 6.89994737 6.19459407 7.42830435 7.03399891M10.5 10.002 8.5 6M7.99671558 14.5002368C8.3640616 14.4524886 8.52399735 14.4266308 8.7282609 14.2903639 8.85358267 14.1843329 8.97315824 14.0094844 9.02952568 13.8574839L12.5 6" />
		<path d="M7.96360655,14.4996895 C4.76790175,14.4817788 2.05937394,12.1433445 1.57547976,8.98443707 C1.0916378,5.82550562 2.97604437,2.78353914 6.01988777,1.80990248 C9.06370709,0.836310827 12.3636792,2.21992312 13.8029717,5.07319384 C15.2422283,7.9265387 14.3936202,11.4028211 11.8015174,13.2720561" />
	</g>
</svg>
