<svg xmlns="http://www.w3.org/2000/svg" width="16" height="16" viewBox="0 0 16 16">
	<g fill="none" fill-rule="evenodd" stroke="#ea999c" stroke-linecap="round" stroke-linejoin="round">
		<path d="M 4.5369366,10.788858 3.6958118,11.19937 c -0.249065,0.120087 -0.5220136,0.182435 -0.7985172,0.1824 H 0.49495074 V 4.4439473 H 3.7788111 c 0.9241057,0 1.6732414,0.7491358 1.6732413,1.6732415 v 2.8309249 c 0,1.4429653 1.1696122,2.6127433 2.6125756,2.6127433 h 0.00129 c 1.4429639,0 2.612742,-1.169778 2.612742,-2.6127433 V 4.4391433 h 3.156959 c 0.922001,5e-7 1.66943,0.7474297 1.66943,1.6694304 v 0.062453 c 0,0.8876463 -0.719659,1.6073059 -1.607471,1.6073059 h -1.82971 1.626602 c 0.999969,0 1.810579,0.8107764 1.810579,1.8107452 v 0.00277 c 0,1.0000472 -0.810698,1.8107462 -1.810745,1.8107462 h -2.463546" />
		<circle cx="8.034" cy="8.941" r="1.25" />
		<path d="m 9.25,6.7496925 v 0" />
	</g>
</svg>
