<svg xmlns="http://www.w3.org/2000/svg" width="16" height="16" viewBox="0 0 16 16">
	<path fill="none" stroke="#c6d0f5" stroke-linecap="round" stroke-linejoin="round" d="m1.9 8 .7-2.7a1 1 0 0 1 1-.8h10.9a1 1 0 0 1 1 1.2L15 7m-9 6.5H2c-.8 0-1.5-.7-1.5-1.5V3.5c0-.6.4-1 1-1h5c.6 0 1 .4 1 1v1" />
	<path fill="none" stroke="#838ba7" stroke-linecap="round" stroke-linejoin="round" d="M 8.833333,8.6161104 C 8.096953,8.6161104 7.5,9.2130641 7.5,9.9494437 c 0,0.7363783 0.596953,1.3333323 1.333333,1.3333323 0.73638,0 1.333333,-0.596954 1.333333,-1.3333323 0,-0.7363796 -0.596953,-1.3333333 -1.333333,-1.3333333 m 5.333333,0 c -0.73638,0 -1.333333,0.5969537 -1.333333,1.3333333 0,0.7363783 0.596953,1.3333323 1.333333,1.3333323 0.73638,0 1.333334,-0.596954 1.333334,-1.3333323 0,-0.7363796 -0.596954,-1.3333333 -1.333334,-1.3333333" />
	<path fill="none" stroke="#e5c890" stroke-linecap="round" stroke-linejoin="round" d="m 9.1577959,13.716495 2.3924571,1.783518 2.392456,-1.783518 -2.392456,-1.783519 z" />
</svg>
