<svg xmlns="http://www.w3.org/2000/svg" width="16" height="16" viewBox="0 0 16 16">
	<g fill="none" stroke-linecap="round" stroke-linejoin="round">
		<path stroke="#c6d0f5" d="M 1.8748797,8.0004811 2.5606339,5.2574644 C 2.6719257,4.8122974 3.0719088,4.5 3.5307764,4.5 H 14.469224 c 0.552284,0 1,0.4477152 1,1 0,0.081762 -0.01003,0.163215 -0.02986,0.2425356 L 15.124325,7.0026989 M 6,13.5 H 2.0043488 C 1.1715729,13.5 0.5,12.828427 0.5,12 V 3.5 c 0,-0.5522847 0.44771525,-1 1,-1 h 5 c 0.5522847,0 1,0.4477153 1,1 v 1" />
		<g stroke="#8caaee">
			<circle cx="11.494" cy="11.509" r="2.992" />
			<path d="M 11.493765,11.509266 V 8.8164217 7.47 m 0,4.039266 L 9.3887595,9.8302101 8.3362569,8.9906828 m 3.1575081,2.5185832 1.168177,2.426194 0.58409,1.213097 m -1.752267,-3.639291 2.624984,0.599252 1.312493,0.299627 m -3.937477,-0.898879 2.105093,-1.6789456 1.052548,-0.8394723 m -3.157641,2.5184179 -2.6250151,0.599115 -1.3125077,0.299558 m 3.9375228,-0.898673 -1.168305,2.426132 -0.5841517,1.213067" />
		</g>
	</g>
</svg>
