<svg xmlns="http://www.w3.org/2000/svg" width="16" height="16" viewBox="0 0 16 16">
	<g fill="none" stroke-linecap="round" stroke-linejoin="round">
		<path stroke="#c6d0f5" d="M 1.8748797,8.0004811 2.5606339,5.2574644 C 2.6719257,4.8122974 3.0719088,4.5 3.5307764,4.5 H 14.469224 c 0.552284,0 1,0.4477152 1,1 0,0.081762 -0.01003,0.163215 -0.02986,0.2425356 L 15.124325,7.0026989 M 6,13.5 H 2.0043488 C 1.1715729,13.5 0.5,12.828427 0.5,12 V 3.5 c 0,-0.5522847 0.44771525,-1 1,-1 h 5 c 0.5522847,0 1,0.4477153 1,1 v 1" />
		<path stroke="#ef9f76" stroke-linecap="square" d="M11.5,8.5 L11.5,14.5 M11.5,8.5 C11.7761424,8.5 12,8.27614237 12,8 C12,7.72385763 11.7761424,7.5 11.5,7.5 C11.2238576,7.5 11,7.72385763 11,8 C11,8.27614237 11.2238576,8.5 11.5,8.5 Z M11.5,15.5 C11.7761424,15.5 12,15.2761424 12,15 C12,14.7238576 11.7761424,14.5 11.5,14.5 C11.2238576,14.5 11,14.7238576 11,15 C11,15.2761424 11.2238576,15.5 11.5,15.5 Z M14.0980762,13 L8.90192379,10 M14.0980762,13 C13.960005,13.2391463 14.0419426,13.5449415 14.2810889,13.6830127 C14.5202352,13.8210839 14.8260304,13.7391463 14.9641016,13.5 C15.1021728,13.2608537 15.0202352,12.9550585 14.7810889,12.8169873 C14.5419426,12.6789161 14.2361474,12.7608537 14.0980762,13 Z M8.03589838,9.5 C7.8978272,9.73914631 7.97976478,10.0449415 8.21891109,10.1830127 C8.4580574,10.3210839 8.7638526,10.2391463 8.90192379,10 C9.03999498,9.76085369 8.9580574,9.45505849 8.71891109,9.3169873 C8.47976478,9.17891611 8.17396957,9.26085369 8.03589838,9.5 Z M14.0980762,10 L8.90192379,13 M14.0980762,10 C14.2361474,10.2391463 14.5419426,10.3210839 14.7810889,10.1830127 C15.0202352,10.0449415 15.1021728,9.73914631 14.9641016,9.5 C14.8260304,9.26085369 14.5202352,9.17891611 14.2810889,9.3169873 C14.0419426,9.45505849 13.960005,9.76085369 14.0980762,10 Z M8.03589838,13.5 C8.17396957,13.7391463 8.47976478,13.8210839 8.71891109,13.6830127 C8.9580574,13.5449415 9.03999498,13.2391463 8.90192379,13 C8.7638526,12.7608537 8.4580574,12.6789161 8.21891109,12.8169873 C7.97976478,12.9550585 7.8978272,13.2608537 8.03589838,13.5 Z" />
	</g>
</svg>
