<svg xmlns="http://www.w3.org/2000/svg" width="16" height="16" viewBox="0 0 16 16">
	<g fill="none" stroke-linecap="round" stroke-linejoin="round">
		<path stroke="#c6d0f5" d="M4.5 4.5H12c.828427 0 1.5.6715729 1.5 1.5V6.5M6 13.5H2C1.1715729 13.5.5 12.828427.5 12V3.5c0-.5522847.44771525-1 1-1h5c.5522847 0 1 .4477153 1 1v1M10 13c0 .54914.528595 1 1 1 .471405 0 1-.528595 1-1 0-.471405-1-1-1-1 0 0-1-.528595-1-1 0-.471405.528595-1 1-1 .471405 0 .902399.538196 1 1" />
		<path stroke="#f4b8e4" d="m 12,8.2528972 v 0.750585 M 8.5,8.5 V 15 l 5,0.500002 L 13.514549,8 Z" />
	</g>
</svg>
