<svg xmlns="http://www.w3.org/2000/svg" width="16" height="16" viewBox="0 0 16 16">
	<g fill="none" stroke-linecap="round" stroke-linejoin="round">
		<path stroke="#c6d0f5" d="M4.5 4.5H12c.83 0 1.5.67 1.5 1.5v.5m-7.5 7H2A1.5 1.5 0 01.5 12V3.5a1 1 0 011-1h5a1 1 0 011 1v1" />
		<path stroke="#e5c890" d="M11.5 13.5a1.5 1.5 0 100-3 1.5 1.5 0 000 3zm-3-4a.5.5 0 100-1 .5.5 0 000 1Zm6 0a.5.5 0 100-1 .5.5 0 000 1zm0 6a.5.5 0 100-1 .5.5 0 000 1zm-6 0a.5.5 0 100-1 .5.5 0 000 1zm4-4.5L14 9.5M12.5 13l1.5 1.5m-5 0 1.5-1.5M9 9.5l1.5 1.5" />
	</g>
</svg>
