<svg xmlns="http://www.w3.org/2000/svg" width="16" height="16" viewBox="0 0 16 16">
	<g fill="none" stroke-linecap="round" stroke-linejoin="round">
		<path stroke="#c6d0f5" d="M 4.5,4.5 H 12 c 0.828427,0 1.5,0.6715729 1.5,1.5 V 6.5 M 6,13.5 H 2 C 1.1715729,13.5 0.5,12.828427 0.5,12 V 3.5 c 0,-0.5522847 0.44771525,-1 1,-1 h 5 c 0.5522847,0 1,0.4477153 1,1 v 1" />
		<path stroke="#838ba7" d="M 10,14.906671 C 8.4999999,15.406671 8.75,14.25 8,14 m 5,1.5 V 14.437702 C 13,13.991331 12.7625,13.767822 12.5,13.5 13.725,13.366089 15,12.920041 15,10.866734 14.999467,10.333305 14.795489,9.9019333 14.43125,9.5192558 c 0.170829,-0.463348 0.155102,-0.9768257 -0.04375,-1.428387 0,0 -0.48125,-0.1339112 -1.53125,0.5802822 -0.889333,-0.2363142 -1.823167,-0.2363142 -2.7125,0 C 9.09375,7.9569576 8.6125,8.0908688 8.6125,8.0908688 8.413648,8.5424301 8.3979207,9.0559078 8.56875,9.5192558 8.2045106,9.9019333 8.0005327,10.333305 8,10.866734 8,12.920041 9.275,13.366089 10.5,13.5 10.2375,13.767822 9.95625,14.080605 10,14.437702 V 15.5" />
	</g>
</svg>
