<svg xmlns="http://www.w3.org/2000/svg" width="16" height="16" viewBox="0 0 16 16">
	<g fill="none" stroke-linecap="round" stroke-linejoin="round">
		<path stroke="#c6d0f5" d="m1.87 8 .7-2.74a1 1 0 01.96-.76h10.94a1 1 0 01.97 1.24l-.219.875M6 13.5H2A1.5 1.5 0 01.5 12V3.5a1 1 0 011-1h5a1 1 0 011 1v1" />
		<g stroke="#ea999c">
			<path d="M10.654 14.423A1.077 1.077 0 019.577 15.5 1.077 1.077 0 018.5 14.423a1.077 1.077 0 011.077-1.077 1.077 1.077 0 011.077 1.077m4.846-1.077a1.077 1.077 0 01-1.077 1.077 1.077 1.077 0 01-1.077-1.077 1.077 1.077 0 011.077-1.077 1.077 1.077 0 011.077 1.077" />
			<path d="M10.654 14.423v-4.038c0-.291.237-.652.727-.808L14.773 8.5c.485 0 .727.474.727.808v4.081m-4.846-1.658 4.846-1.616" />
		</g>
	</g>
</svg>
