<svg xmlns="http://www.w3.org/2000/svg" width="16" height="16" viewBox="0 0 16 16">
	<path fill="none" stroke="#c6d0f5" stroke-linecap="round" stroke-linejoin="round" d="m1.87 8 .7-2.74a1 1 0 01.96-.76h10.94a1 1 0 01.97 1.24l-.219.875M6 13.5H2A1.5 1.5 0 01.5 12V3.5a1 1 0 011-1h5a1 1 0 011 1v1" />
	<path fill="none" stroke="#85c1dc" stroke-linecap="round" stroke-linejoin="round" d="M9.25 15.5 8 11.5" />
	<path fill="none" stroke="#ca9ee6" stroke-linecap="round" stroke-linejoin="round" d="M13.75 15.5 9.25 15.5" />
	<path fill="none" stroke="#a6d189" stroke-linecap="round" stroke-linejoin="round" d="M15 11.5 13.75 15.5" />
	<path fill="none" stroke="#8caaee" stroke-linecap="round" stroke-linejoin="round" d="M8.5 11.5 12 8.5 15.5 11.5" transform="translate(-.5)" />
	<path fill="none" stroke="#e78284" stroke-linecap="round" stroke-linejoin="round" d="M8 11.5 11.5 8.5" />
</svg>
