<svg xmlns="http://www.w3.org/2000/svg" width="16" height="16" viewBox="0 0 16 16">
	<g fill="none" stroke-linecap="round" stroke-linejoin="round">
		<path stroke="#c6d0f5" d="m4.5 4.5h7.5c0.83 0 1.5 0.67 1.5 1.5v0.5m-7.5 7h-4c-0.83 0-1.5-0.67-1.5-1.5v-8.5c0-0.55 0.45-1 1-1h5c0.55 0 1 0.45 1 1v1" />
		<path stroke="#c6d0f5" stroke-width=".613" d="m13.4 13.41c-0.1228-0.1838-0.2026-0.3248-0.1535-0.5208 0.03071-0.1226 0.1044-0.2328 0.1904-0.3186 0.786-0.7721 1.486-1.44 2.125-2.249 0.05527-0.07353 0.07983-0.1654 0.1044-0.2512 0.01842-0.07353 0.01842-0.1532 0.01842-0.2328 0-0.07353-0.0061-0.1471-0.03071-0.2145a4.237 4.228 0 0 0-0.8597-1.336c-0.08597-0.06128-0.1719-0.1226-0.2702-0.1654a0.6755 0.674 0 0 0-0.2211-0.05515c-0.09825 0-0.2026 0.00613-0.2948 0.03064-0.1044 0.03064-0.1781 0.07966-0.2825 0.1409m0.1904 7.445-0.8228-1.385a0.4298 0.4289 0 0 1-0.04913-0.3431 0.4483 0.4473 0 0 1 0.2149-0.2696l0.4728-0.2635a0.4728 0.4718 0 0 1 0.6263 0.1654l0.8228 1.385" />
		<path stroke="#81c8be" stroke-width=".613" d="m8.076 9.968 3.929-2.209c0.5578-0.3191 1.263-0.1227 1.588 0.4234a1.122 1.123 0 0 1-0.4168 1.54l-3.929 2.221c-0.5517 0.3129-1.263 0.1227-1.588-0.4295a1.122 1.123 0 0 1 0.4168-1.546" />
	</g>
</svg>
