<svg xmlns="http://www.w3.org/2000/svg" width="16" height="16" viewBox="0 0 16 16">
	<g fill="none" stroke-linecap="round" stroke-linejoin="round">
		<path stroke="#c6d0f5" d="M 4.5,4.5 H 12 c 0.828427,0 1.5,0.6715729 1.5,1.5 V 6.5 M 6,13.5 H 2 C 1.1715729,13.5 0.5,12.828427 0.5,12 V 3.5 c 0,-0.5522847 0.44771525,-1 1,-1 h 5 c 0.5522847,0 1,0.4477153 1,1 v 1" />
		<path stroke="#a6d189" d="M14.5 15.5 11 12 8.5 14.5" />
		<path stroke="#85c1dc" d="M9.5,8.5 L14.4974843,8.5 C15.049769,8.5 15.4974843,8.94771525 15.4974843,9.5 L15.4974843,14.5 C15.4974843,15.0522847 15.049769,15.5 14.4974843,15.5 L9.5,15.5 C8.94771525,15.5 8.5,15.0522847 8.5,14.5 L8.5,9.5 C8.5,8.94771525 8.94771525,8.5 9.5,8.5 Z" />
		<circle cx="13.5" cy="10.5" r=".5" stroke="#e5c890" />
	</g>
</svg>
