<svg xmlns="http://www.w3.org/2000/svg" width="16" height="16" viewBox="0 0 16 16">
	<g fill="none" stroke-linecap="round" stroke-linejoin="round">
		<path stroke="#c6d0f5" d="M 4.5,4.5 H 12 c 0.828427,0 1.5,0.6715729 1.5,1.5 V 6.5 M 6,13.5 H 2 C 1.1715729,13.5 0.5,12.828427 0.5,12 V 3.5 c 0,-0.5522847 0.44771525,-1 1,-1 h 5 c 0.5522847,0 1,0.4477153 1,1 v 1" />
		<path stroke="#e5c890" d="M11.11,9.81163539 C11.5908037,8.87585735 12.6387615,8.3801442 13.6653703,8.60287421 C14.6919474,8.82560304 15.4413924,9.71123815 15.4928588,10.7624564 C15.5443406,11.8136347 14.8850712,12.7685047 13.885237,13.090897" />
		<path fill="#99d1db" d="M 12.5,13 A 0.5,0.5 0 0 1 12,13.5 0.5,0.5 0 0 1 11.5,13 0.5,0.5 0 0 1 12,12.5 0.5,0.5 0 0 1 12.5,13 Z" />
		<path stroke="#99d1db" d="M13.881417,14.2428302 C13.4000813,15.1705036 12.3602097,15.6624197 11.3394982,15.4452968 C10.3187757,15.2281672 9.56803819,14.3553378 9.50436211,13.3117139 C9.44067842,12.2680847 10.0797117,11.3101088 11.0664401,10.97" />
		<path fill="#e5c890" d="M 13.5,11 A 0.5,0.5 0 0 1 13,11.5 0.5,0.5 0 0 1 12.5,11 0.5,0.5 0 0 1 13,10.5 0.5,0.5 0 0 1 13.5,11 Z" />
	</g>
</svg>
