<svg xmlns="http://www.w3.org/2000/svg" width="16" height="16" viewBox="0 0 16 16">
	<path fill="none" stroke="#c6d0f5" stroke-linecap="round" stroke-linejoin="round" d="M4.5 4.5H12c.83 0 1.5.67 1.5 1.5v.5m-7.5 7H2A1.5 1.5 0 01.5 12V3.5a1 1 0 011-1h5a1 1 0 011 1v1" />
	<path fill="none" stroke="#838ba7" stroke-linecap="round" stroke-linejoin="round" d="M 8.2585937,7.8562001 H 9.4291113 A 0.5852588,0.58460205 0 0 1 10.014371,8.4408022 V 14.871425 A 0.5852588,0.58460205 0 0 1 9.4291113,15.456027 H 8.2585937 A 0.5852588,0.58460205 0 0 1 7.6733349,14.871425 V 8.4408022 A 0.5852588,0.58460205 0 0 1 8.2585937,7.8562001 m 2.3410353,1.7538062 h 0.585259 a 0.5852588,0.58460205 0 0 1 0.585258,0.5846017 v 4.676817 a 0.5852588,0.58460205 0 0 1 -0.585258,0.584602 h -0.585259 a 0.5852588,0.58460205 0 0 1 -0.585258,-0.584602 v -4.676817 a 0.5852588,0.58460205 0 0 1 0.585258,-0.5846017 m 2.0367,0.2338408 1.12955,-0.3039931 a 0.29262941,0.29230102 0 0 1 0.36286,0.2046107 l 1.363653,5.0860383 a 0.29262941,0.29230102 0 0 1 -0.210693,0.350761 l -1.129549,0.309839 a 0.29262941,0.29230102 0 0 1 -0.357008,-0.210457 l -1.363654,-5.086038 a 0.29262941,0.29230102 0 0 1 0.204841,-0.3507609" />
</svg>
