<svg xmlns="http://www.w3.org/2000/svg" width="16" height="16" viewBox="0 0 16 16">
	<path fill="none" stroke="#c6d0f5" stroke-linecap="round" stroke-linejoin="round" d="M4.5 4.5H12c.83 0 1.5.67 1.5 1.5v.5m-7.5 7H2A1.5 1.5 0 01.5 12V3.5a1 1 0 011-1h5a1 1 0 011 1v1" />
	<path fill="none" stroke="#f4b8e4" stroke-linejoin="round" d="M 9.3135176,7.6238742 15.500012,9.28691 13.850279,15.500012 7.6238736,13.810367 Z" />
	<path fill="none" stroke="#f4b8e4" stroke-linecap="round" stroke-linejoin="round" d="m 13.01562,10.310172 a 0.89062405,0.89062405 0 0 1 0.143309,0.988269 0.89062405,0.89062405 0 0 1 -0.864353,0.500109 0.89062405,0.89062405 0 0 1 -0.785362,-0.616783" />
</svg>
