<svg xmlns="http://www.w3.org/2000/svg" width="16" height="16" viewBox="0 0 16 16">
	<path fill="none" stroke="#c6d0f5" stroke-linecap="round" stroke-linejoin="round" d="M 1.8748797,8.0004811 2.5606339,5.2574644 C 2.6719257,4.8122974 3.0719088,4.5 3.5307764,4.5 H 14.469224 c 0.552284,0 1,0.4477152 1,1 0,0.081762 -0.01003,0.163215 -0.02986,0.2425356 L 15.124325,7.0026989 M 6,13.5 H 2.0043488 C 1.1715729,13.5 0.5,12.828427 0.5,12 V 3.5 c 0,-0.5522847 0.44771525,-1 1,-1 h 5 c 0.5522847,0 1,0.4477153 1,1 v 1" />
	<rect width="6.034" height="6.034" x="-3.015" y="13.247" fill="none" stroke="#e5c890" stroke-linecap="round" stroke-linejoin="round" rx=".635" ry=".635" transform="rotate(-45.004)" />
	<path fill="none" stroke="#e5c890" stroke-linecap="round" stroke-linejoin="round" d="M 10.619236,13.11754 V 9.917437 h 1.612342 c 0,0 0.662434,0.096666 0.662434,0.850027 0,0.753361 -0.662434,0.900029 -0.662434,0.900029 h -1.554136" />
</svg>
