<svg xmlns="http://www.w3.org/2000/svg" width="16" height="16" viewBox="0 0 16 16">
	<g fill="currentColor" stroke-linecap="round" stroke-linejoin="round">
		<path stroke="#c6d0f5" d="m1.87 8 .7-2.74a1 1 0 01.96-.76h10.94a1 1 0 01.97 1.24l-.219.875M6 13.5H2A1.5 1.5 0 01.5 12V3.5a1 1 0 011-1h5a1 1 0 011 1v1" />
		<path stroke="#85c1dc" d="M9.25 15.5 8 11.5" />
		<path stroke="#ca9ee6" d="M13.75 15.5 9.25 15.5" />
		<path stroke="#a6d189" d="M15 11.5 13.75 15.5" />
		<path stroke="#8caaee" d="M8.5 11.5 12 8.5 15.5 11.5" transform="translate(-.5)" />
		<path stroke="#e78284" d="M8 11.5 11.5 8.5" />
	</g>
</svg>
