<svg xmlns="http://www.w3.org/2000/svg" width="16" height="16" viewBox="0 0 16 16">
	<path fill="none" stroke="#c6d0f5" stroke-linecap="round" stroke-linejoin="round" d="m1.87 8 .7-2.74a1 1 0 01.96-.76h10.94a1 1 0 01.97 1.24l-.219.875M6 13.5H2A1.5 1.5 0 01.5 12V3.5a1 1 0 011-1h5a1 1 0 011 1v1" />
	<path fill="none" stroke="#e5c890" stroke-linecap="round" stroke-linejoin="round" d="m 7.7343934,13.980992 c 0,0.838925 0.6518957,1.519007 1.4560515,1.519007 0.8041535,0 1.4560521,-0.680082 1.4560521,-1.519007 V 10.436647 M 15.5,11.024473 c -0.24156,-0.337285 -0.607788,-0.587826 -1.16484,-0.587826 h -0.582423 c -0.643323,0 -1.164839,0.566734 -1.164839,1.265837 0,0.699103 0.521516,1.265838 1.164839,1.265838 h 0.582423 c 0.643325,0 1.16484,0.566736 1.16484,1.26584 0,0.699101 -0.521515,1.265837 -1.16484,1.265837 h -0.582423 c -0.582933,0 -0.950798,-0.310294 -1.164839,-0.694154" />
</svg>
