<svg xmlns="http://www.w3.org/2000/svg" width="16" height="16" viewBox="0 0 16 16">
	<g fill="none" stroke-linecap="round" stroke-linejoin="round">
		<path stroke="#c6d0f5" d="M 4.5,4.5 H 12 c 0.828427,0 1.5,0.6715729 1.5,1.5 V 6.5 M 6,13.5 H 2 C 1.1715729,13.5 0.5,12.828427 0.5,12 V 3.5 c 0,-0.5522847 0.44771525,-1 1,-1 h 5 c 0.5522847,0 1,0.4477153 1,1 v 1" />
		<path stroke="#a6d189" d="M15.5,13.5 L15.5,14.7 C15.5,15.1418278 15.1418278,15.5 14.7,15.5 L10.3,15.5 C9.85817221,15.5 9.5,15.1418278 9.5,14.7 L9.5,13.5 L9,13.5 C8.44771525,13.5 8,13.0522847 8,12.5 C8,11.9477153 8.44771525,11.5 9,11.5 L9.5,11.5 L9.5,10.3 C9.5,9.85817221 9.85817221,9.5 10.3,9.5 L11.5,9.5 L11.5,9 C11.5,8.44771525 11.9477153,8 12.5,8 C13.0522847,8 13.5,8.44771525 13.5,9 L13.5,9.5 L14.7,9.5 C15.1418278,9.5 15.5,9.85817221 15.5,10.3 L15.5,11.5 L15,11.5 C14.4477153,11.5 14,11.9477153 14,12.5 C14,13.0522847 14.4477153,13.5 15,13.5 L15.5,13.5 Z" />
	</g>
</svg>
