<svg xmlns="http://www.w3.org/2000/svg" width="16" height="16" viewBox="0 0 16 16">
	<g fill="none" stroke-linecap="round" stroke-linejoin="round">
		<path stroke="#c6d0f5" d="M 1.8748797,8.0004811 2.5606339,5.2574644 C 2.6719257,4.8122974 3.0719088,4.5 3.5307764,4.5 H 14.469224 c 0.552284,0 1,0.4477152 1,1 0,0.081762 -0.01003,0.163215 -0.02986,0.2425356 L 15.124325,7.0026989 M 6,13.5 H 2.0043488 C 1.1715729,13.5 0.5,12.828427 0.5,12 V 3.5 c 0,-0.5522847 0.44771525,-1 1,-1 h 5 c 0.5522847,0 1,0.4477153 1,1 v 1" />
		<path stroke="#ca9ee6" d="M 13.435853,10.469163 C 13.29769,9.3453866 12.700236,8.5000347 11.984144,8.5000347 c -0.818381,0 -1.481809,1.1041042 -1.481809,2.4660853 0,0.806223 0.232467,1.522084 0.591932,1.97206 m 1.695644,1.905288 c 0.893484,0.697076 1.914574,0.872982 2.420929,0.367365 0.578682,-0.57784 0.265939,-1.826993 -0.698531,-2.790059 -0.570919,-0.570085 -1.242226,-0.912136 -1.815052,-0.976506 m -3.1102287,1.091543 c -0.8864825,0.760502 -1.3829083,2.137527 -0.8765545,2.643142 0.5786824,0.577841 1.8296542,0.265552 2.7941252,-0.697514 0.570917,-0.570085 0.913467,-1.240416 0.977931,-1.812408" />
	</g>
</svg>
