<svg xmlns="http://www.w3.org/2000/svg" width="16" height="16" viewBox="0 0 16 16">
	<g fill="none" stroke-linecap="round" stroke-linejoin="round">
		<path stroke="#c6d0f5" d="M1.8748797 8.0004811 2.5606339 5.2574644C2.6719257 4.8122974 3.0719088 4.5 3.5307764 4.5H14.469224c.552284 0 1 .4477152 1 1 0 .081762-.01003.163215-.02986.2425356L15.124325 7.0026989M6 13.5H2.0043488C1.1715729 13.5.5 12.828427.5 12V3.5c0-.5522847.44771525-1 1-1h5c.5522847 0 1 .4477153 1 1v1M10 13c0 .54914.528595 1 1 1 .471405 0 1-.528595 1-1 0-.471405-1-1-1-1 0 0-1-.528595-1-1 0-.471405.528595-1 1-1 .471405 0 .902399.538196 1 1" />
		<path stroke="#f4b8e4" d="m 12,8.2528972 v 0.750585 M 8.5,8.5 V 15 l 5,0.500002 L 13.514549,8 Z" />
	</g>
</svg>
