<svg xmlns="http://www.w3.org/2000/svg" width="16" height="16" viewBox="0 0 16 16">
	<g fill="none" stroke="#e5c890" stroke-linecap="round" stroke-linejoin="round">
		<path d="M 12,6.3674678 12.5,14 l -0.0017,2.84e-4 A 36.487853,36.487853 175.23771 0 1 6.5,14.5 5.809443,5.809443 97.125016 0 0 7,10.5 C 3.833108,11.23107 3.5648102,11.108017 2,8.5 L 5.0958571,7.3390536 A 1.3933973,1.3933973 124.72198 0 0 6,6.034375 2.1583537,2.1583537 121.31513 0 1 7.0586539,4.2942308 L 7.5,4" />
		<path stroke="#c6d0f5" d="M 7.5,6 V 6" />
		<path d="M10.5 5 10.389612 5.3311625A7.5923137 7.5923137 117.65242 0 1 9.2607623 7.4856503L9.1172616 7.6769845A.5143847.5143847 63.434949 0 0 9.5287694 8.5 3.4831559 3.4831559 157.96895 0 0 12 7.5M7 10.5l.3015473-.08918A.95889541.95889541 127.48245 0 0 8 9.5" />
		<path stroke="#f2d5cf" d="M 3.4903135,10.515949 C 3.0246759,10.158338 2.611254,9.5187566 2,8.5 L 4.0042808,7.7483947 A 2.6370562,2.6370562 96.777044 0 1 3.7155884,10.17772 Z" />
		<path stroke="#ef9f76" d="M 13,7.5 13.875025,5.5311933 A 2.8986951,2.8986951 70.26377 0 0 12.5225,1.76125 3.9185561,3.9185561 170.72268 0 0 8,2.5 l -1,1 H 6 l 2.5564374,0.5680972 a 5.8374865,5.8374865 31.361618 0 1 3.2181526,1.961411 z" />
	</g>
</svg>
