<svg xmlns="http://www.w3.org/2000/svg" width="16" height="16" viewBox="0 0 16 16">
	<g fill="none" stroke-linecap="round" stroke-linejoin="round">
		<path stroke="#ef9f76" d="m12.58 1.877a1.345 1.377 0 0 1-1.345 1.377 1.345 1.377 0 0 1-1.345-1.377 1.345 1.377 0 0 1 1.345-1.377 1.345 1.377 0 0 1 1.345 1.377zm-7.619 10.87v-7.038c0-2.114 1.672-3.827 3.734-3.827h1.195" />
		<path stroke="#e78284" d="m6.305 14.13a1.345 1.377 0 0 1-1.345 1.377 1.345 1.377 0 0 1-1.345-1.377 1.345 1.377 0 0 1 1.345-1.377 1.345 1.377 0 0 1 1.345 1.377zm6.273-7.038a1.345 1.377 0 0 1-1.345 1.377 1.345 1.377 0 0 1-1.345-1.377 1.345 1.377 0 0 1 1.345-1.377 1.345 1.377 0 0 1 1.345 1.377zm-7.619 5.664v-1.837c0-2.114 1.672-3.827 3.734-3.827h1.195" />
	</g>
</svg>
