<svg xmlns="http://www.w3.org/2000/svg" width="16" height="16" viewBox="0 0 16 16">
	<path fill="none" stroke="#f4b8e4" stroke-width="104.97" d="m 999.32247,136.01908 c -41.70892,0 -83.41782,21.24714 -106.37376,63.744 L 714.12107,530.8136 c -17.43451,32.27586 -47.42034,55.0061 -82.22438,62.33394 L 274.89116,668.30779 C 183.28127,687.59494 145.9316,807.6812 209.1472,879.43015 l 246.4864,279.76075 c 24.01926,27.2404 35.48555,64.062 31.40546,100.8524 l -41.81254,377.5026 c -10.72703,96.8481 87.07793,171.089 172.11607,130.4885 h 0.002 L 948.51543,1609.886 h 0.002 c 32.26489,-15.4221 69.35477,-15.4221 101.61967,0 v 0 l 331.1709,158.1484 c 85.0299,40.6116 182.8415,-33.6352 172.1078,-130.4885 v 0 l -41.8075,-377.5026 v 0 c -4.0817,-36.7902 7.3842,-73.6124 31.4038,-100.8524 v 0 l 246.4781,-279.76934 v -0.002 c 63.2156,-71.74895 25.8718,-191.83178 -65.7423,-211.12236 l -357.0062,-75.15989 c -34.8007,-7.32698 -64.7906,-30.05808 -82.2227,-62.33136 L 1105.6962,199.7416 c -22.9592,-42.49515 -64.6698,-63.74229 -106.38196,-63.74229" transform="translate(-.009 .331)scale(.008)" />
	<path fill="none" stroke="#f4b8e4" stroke-linecap="round" stroke-linejoin="round" d="M8.6850894 9.261573A.75.75400001 0 0 1 7.98032 9.7576898.75.75400001 0 0 1 7.2755505 9.261573M5.5 8v0m5 0v0" />
</svg>
