<svg xmlns="http://www.w3.org/2000/svg" width="16" height="16" viewBox="0 0 16 16">
	<g fill="none" stroke="#ca9ee6" stroke-linecap="round" stroke-linejoin="round">
		<path d="m1 10.3.6.15.78.17c.01.01-.14.25-.32.52-.7 1-.83 1.5-.44 1.5.12 0 .38-.06.6-.14.24-.07.67-.11 1.15-.11.97 0 1.95.24 3.18.8 1.17.53 1.56.65 2.9.93a9 9 0 011.2.3c.04.04-.05.16-.2.28s.74.17 1.08.13c1.05-.13 1.79-.6 1.8-1.16.03-.7-.09-1.8-.22-1.88-.58.6-1.12.59-1.75.63a3.7 3.7 0 01-2.05-.48c-.5-.29-1.21-.55-1.6-1.14-.3-.49-.62-1.28-.56-1.4.02-.02.13-.02.23.02.29.11.7.28 2 .11a5.7 5.7 0 012.46.12c.73.18.62.34 1 .56.64-1.45.61-1 1.35-1.49.45-.32.82-.61.81-.67 0-.04-.26-.35-.56-.68-.47-.52-.6-.6-1.03-.76a8.97 8.97 0 01-3.9-2.63C8.58 2.81 8.33 2.54 7.67 2.1a7.3 7.3 0 00-2.4-1.06c-.73-.14-.52.1-.21.6 1.11 1.3 1.08 1.34 1.08 2.2-.11.67-.72.77-1.4.92-.3.06-.71.05-.91.05-.3 0-.93-.36-1.27-.73-.19-.2-.52-.61-.74-.93-.23-.32-.45-.58-.52-.58" />
		<path d="M8 5.79c1.27.43 1.34.63 1.76 1.37.1.17.16.3.15.31l-.25.07c-.33.07-.85.07-1.15 0-.56-.12-.58-.22-.81-.42a1 1 0 01-.3-.42c-.08-.21.04-.47-.04-.68-.07-.18-.4-.25-.35-.44.3-.1.78.13 1 .2Z" />
	</g>
</svg>
