<svg xmlns="http://www.w3.org/2000/svg" width="16" height="16" viewBox="0 0 16 16">
	<path fill="none" stroke="#8caaee" stroke-linecap="round" stroke-linejoin="round" d="M0.5,12.5 L0.5,13.24 C0.5,14 1.27360724,14.5 2,14.5 C2.9375516,14.5 3.5,14 3.5,13.2445661 L3.5,6.00089968 C3.5,4.28551107 4.99401107,2.52263547 7.14960413,2.5 C9.49387886,2.5 11,4.0579782 11,5.5 C11.1657296,8.48962302 9.57820404,9.63684469 7.49621582,10.5 L7.49621582,14.5 L15.4979764,14.5 L15.4979764,9 C15.5394484,8.36478228 14.9387379,7.15595371 14.1308258,6.5 C13.1942239,5.80827275 12.0584852,5.50253264 11,5.5 M11.5,14.5 L11.5,11.5 M6,6.5 C6.27614237,6.5 6.5,6.27614237 6.5,6 C6.5,5.72385763 6.27614237,5.5 6,5.5 C5.72385763,5.5 5.5,5.72385763 5.5,6 C5.5,6.27614237 5.72385763,6.5 6,6.5 Z" />
</svg>
