<svg xmlns="http://www.w3.org/2000/svg" width="16" height="16" viewBox="0 0 16 16">
	<path fill="none" stroke="#a6d189" stroke-linecap="round" stroke-linejoin="round" d="m 4.3888891,10.166667 h 7.2222229 v 2.888889 A 1.4444444,1.4444444 0 0 1 10.166667,14.5 H 5.8333333 A 1.4444444,1.4444444 0 0 1 4.3888891,13.055556 Z M 7.9999998,5.8333334 A 4.3333333,4.3333333 0 0 0 3.6666668,1.5000002 H 1.5000001 v 1.4444444 a 4.3333333,4.3333333 0 0 0 4.3333332,4.3333333 h 2.1666665 m 0,0 A 4.3333333,4.3333333 0 0 1 12.333334,2.9444446 H 14.5 V 3.6666668 A 4.3333333,4.3333333 0 0 1 10.166667,8.0000001 H 7.9999998 m 0,2.1666669 V 5.8333334" />
</svg>
