<svg xmlns="http://www.w3.org/2000/svg" width="16" height="16" viewBox="0 0 16 16">
	<path fill="none" stroke="#f4b8e4" stroke-linecap="round" stroke-linejoin="round" d="M 15.44821,11.025526 14.417003,7.7364185 a 4.8778311,4.8778352 0 0 1 0,-2.9252369 L 15.468161,1.4616733 C 15.646984,0.88896259 15.110515,0.35304113 14.541099,0.53223069 L 11.199647,1.5861363 a 4.8430549,4.843059 0 0 1 -2.9180959,0 L 5.0003167,0.55236494 C 4.4182719,0.36933126 3.877958,0.93106028 4.0805761,1.5072493 L 4.6790939,3.2048824 A 4.8869829,4.886987 0 0 1 4.403629,7.090677 l -3.82136441,7.326271 c -0.33952596,0.651416 0.37045898,1.346575 1.01272161,0.993505 L 8.5498774,11.572246 A 4.8613582,4.8613622 0 0 1 12.51895,11.246629 l 1.980234,0.702483 c 0.571063,0.201335 1.131327,-0.340076 0.948843,-0.92377 z" />
</svg>
