<svg xmlns="http://www.w3.org/2000/svg" width="16" height="16" viewBox="0 0 16 16">
	<path fill="none" stroke="#99d1db" stroke-linecap="round" stroke-linejoin="round" d="m 12.0583,4.4178335 c -0.445386,0 -0.833507,0.1336155 -1.215265,0.2608684 -0.445385,-0.76988 -1.278892,-1.2788916 -2.1760249,-1.2788916 -0.6998906,0 -1.3361554,0.3181323 -1.7879028,0.7635174 C 6.3700955,3.5270632 5.6002156,3.0753155 4.7094453,3.0753155 c -1.4824961,0 -2.755025,1.2152651 -2.755025,2.6977612 0,0.3753961 0.1336155,0.7571548 0.2608684,1.1389135 a 2.3414532,2.3414532 0 0 0 -1.2152651,2.042409 c 0,1.2725288 1.0243858,2.3669038 2.3032773,2.3669038 0.1908793,0 0.3817587,0 0.5090116,-0.06363 0.2545057,0.960759 1.2152651,1.667012 2.3669037,1.667012 1.0816498,0 1.9787826,-0.642626 2.2969146,-1.539759 0.3244948,0.133615 0.6426272,0.260868 0.9607596,0.260868 0.8335066,0 1.5970236,-0.464473 1.9787826,-1.151639 0.197241,0.0509 0.400846,0.0509 0.579,0.0509 1.660651,0 3.003169,-1.329793 3.003169,-3.0540696 0.06363,-1.717914 -1.272529,-3.0731572 -2.939542,-3.0731572" />
</svg>
