<svg xmlns="http://www.w3.org/2000/svg" width="16" height="16" viewBox="0 0 16 16">
	<path fill="none" stroke="#8caaee" stroke-linecap="round" stroke-linejoin="round" d="m 1.5,11.575 c 3.03355,1.95 5.2,2.925 6.5,2.925 1.625,0 2.6,-0.975 2.6,-2.275 0,-1.3 -0.975,-2.275 -2.6,-2.275 -1.3,0 -3.46645,0.54145 -6.5,1.625 z" />
	<path fill="none" stroke="#8caaee" stroke-linecap="round" stroke-linejoin="round" d="M3.45 8.975C6.48355 7.89145 8.65 7.35 9.95 7.35c1.625 0 2.6.975 2.6 2.275 0 .4797-.1326.9152-.3822 1.274l-1.87395 2.48625M14.5 4.425C11.9 2.475 9.3 1.5 8 1.5 6.674 1.5 6.2983 1.80095 5.77765 2.50425M1.5 11.575l1.95-2.6M14.5 4.425l-1.95 2.6M5.77765 2.50425 3.8582 4.9164" />
	<path fill="none" stroke="#8caaee" stroke-linecap="round" stroke-linejoin="round" d="M 5.0204,8.4303 C 4.0389,8.1209 3.45,7.46895 3.45,6.375 3.45,4.75 4.425,4.1 6.05,4.1 c 1.0972,0 3.30655,0.6942 5.3287,2.0826 A 74.594,74.594 0 0 1 12.55,7.025 l -1.4963,0.51025" />
</svg>
