<svg xmlns="http://www.w3.org/2000/svg" width="16" height="16" viewBox="0 0 16 16">
	<path fill="none" stroke="#f4b8e4" stroke-linecap="round" stroke-linejoin="round" d="M5.6697378 2.6713396c0 0-.2977728-.01416-.741017-.0000203-.502161-.00757-1.0611495.2090858-1.0647383.8306828-.00381.6602788.7984915.8377624 1.0556083.9666107.2571168.1288487 1.0548696.2483549 1.0927465 1.0093121.023487.4718569-.3426347 1.020133-1.2641576 1.0307865-.7092788.00819-1.0773255.0003227-1.0773255.0003227M8.138332 2.6713396v2.9597572c0 0 .09623.8779368.8420209.8779371l.64955893e-7M7.3323978 3.5333538H9.4374499M11.087923 3.5251912l1.207809 3.0239899M13.622621 3.5251912l-1.428957 3.358801c0 0-.424645 1.1426882-1.45216 1.1426882" />
	<path fill="none" stroke="#c6d0f5" stroke-linecap="round" stroke-linejoin="round" d="M7.532543 9.4821151V12.857829H9.0805796M10.458502 10.059028v2.117804c0 0 .09356.680997.918615.680997.825052 0 .816547-.680899.816547-.680899v-2.117902M13.855318 10.054288h.664506c0 0 .980176-.1022989.980176.777789v1.948224" />
	<path fill="none" stroke="#c6d0f5" stroke-linecap="round" stroke-linejoin="round" d="m 15.495018,11.392148 h -1.258049 c 0,0 -0.59543,0.100247 -0.59543,0.73317 0,0.701139 0.631517,0.732511 0.631517,0.732511 h 1.221483" />
	<path fill="none" stroke="#838ba7" stroke-linecap="round" stroke-linejoin="round" d="M5.4318364 8.5245357V13.334878M.49999974 2.6874577V6.549329M.49999974 9.0047991V12.86667" />
</svg>
