<svg xmlns="http://www.w3.org/2000/svg" width="16" height="16" viewBox="0 0 16 16">
	<path fill="none" stroke="#f4b8e4" stroke-linecap="round" stroke-linejoin="round" d="m 5.3779815,6.1643087 a 2.535998,2.5869417 0 0 0 -1.83828,2.485544 m 1.83828,-2.485544 C 6.6332368,5.7983671 9.2915745,5.5630718 9.8013227,4.1045044 M 5.3779815,6.1643087 c 0,-2.7143391 2.6220181,-2.0643533 2.6220181,-4.6642954 1.3043185,0 2.2320604,1.3714688 1.8013231,2.6044911 m 0,0 c 1.0367013,-0.091002 1.7312333,1.1251254 1.1838903,1.9961051 m 0,0 c -0.174589,0.277544 -0.461322,0.5037391 -0.755064,0.6766353 m 0.755064,-0.6759853 c 1.246972,0.2957434 1.475085,1.4390681 1.475085,2.5485932" />
	<path fill="none" stroke="#99d1db" stroke-linecap="round" stroke-linejoin="round" d="m 10.548742,9.916674 c 0,-1.689312 2.548742,-1.689312 2.548742,0 0,0.885279 -0.481076,1.643813 -0.855104,2.411445 -0.513571,1.056877 -0.770994,1.584665 -1.232953,1.878458 -0.46196,0.293793 -1.0367013,0.293143 -2.1861838,0.293143 H 7.1767559 c -1.1494825,0 -1.7242238,0 -2.1861832,-0.293143 C 4.5286133,13.912784 4.2718276,13.384996 3.757619,12.328119 3.3835911,11.560487 2.9025161,10.801953 2.9025161,9.916674 c 0,-1.689312 2.5487417,-1.689312 2.5487417,0 0,-1.689312 2.5487417,-1.689312 2.5487417,0 0,-1.689312 2.5487425,-1.689312 2.5487425,0" />
</svg>
