<svg xmlns="http://www.w3.org/2000/svg" width="16" height="16" viewBox="0 0 16 16">
	<path fill="none" stroke="#ca9ee6" stroke-linecap="round" stroke-linejoin="round" d="M7.83 2A5.3 5.3 0 018.93.5c.26.46.4.97.44 1.5l.89-.2s1.33 2.61-.9 6.2a4.14 4.14 0 011.56 4.5c2.3-.76 3.06-1.5 3.82-1.5.2 0 .4.07.54.21s.22.33.22.53c0 0 .1.5-1.23 1.15l-2.65 1.3a8.4 8.4 0 01-4 1.3c-1.55 0-2.65.11-2.65-.65.03-.5.26-.96.64-1.3h-.67S3.81 15.5 2.28 15.5s0-1.3 0-1.3c-1.33 0-.86-2.53.67-3.27a2.97 2.97 0 01-.22-2.8 3.07 3.07 0 012.21-1.76C4.17 5.6 3.61 4 4.28 3.76c.6-.25 1.07-.72 1.33-1.3A2.8 2.8 0 017.83 2" />
</svg>
